<?xml version="1.0" encoding="UTF-8" standalone="no"?>
<!DOCTYPE svg PUBLIC "-//W3C//DTD SVG 1.1//EN"
 "http://www.w3.org/Graphics/SVG/1.1/DTD/svg11.dtd">
<!-- Generated by graphviz version 2.30.1 (20130214.1330)
 -->
<!-- Title: Framework/Actuator.h Pages: 1 -->
<svg width="1922pt" height="252pt"
 viewBox="0.00 0.00 1922.00 252.00" xmlns="http://www.w3.org/2000/svg" xmlns:xlink="http://www.w3.org/1999/xlink">
<g id="graph0" class="graph" transform="scale(1 1) rotate(0) translate(4 248)">
<title>Framework/Actuator.h</title>
<polygon fill="white" stroke="white" points="-4,5 -4,-248 1919,-248 1919,5 -4,5"/>
<!-- Node1 -->
<g id="node1" class="node"><title>Node1</title>
<polygon fill="#bfbfbf" stroke="black" points="873.5,-224.5 873.5,-243.5 986.5,-243.5 986.5,-224.5 873.5,-224.5"/>
<text text-anchor="middle" x="930" y="-231.5" font-family="Helvetica,sans-Serif" font-size="10.00">Framework/Actuator.h</text>
</g>
<!-- Node2 -->
<g id="node2" class="node"><title>Node2</title>
<g id="a_node2"><a xlink:href="_aquaduino_8h.html" target="_top" xlink:title="Aquaduino.h">
<polygon fill="white" stroke="black" points="862.5,-168.5 862.5,-187.5 933.5,-187.5 933.5,-168.5 862.5,-168.5"/>
<text text-anchor="middle" x="898" y="-175.5" font-family="Helvetica,sans-Serif" font-size="10.00">Aquaduino.h</text>
</a>
</g>
</g>
<!-- Node1&#45;&gt;Node2 -->
<g id="edge1" class="edge"><title>Node1&#45;&gt;Node2</title>
<path fill="none" stroke="midnightblue" d="M919.496,-215.275C914.027,-206.045 907.582,-195.17 903.186,-187.751"/>
<polygon fill="midnightblue" stroke="midnightblue" points="916.607,-217.264 924.716,-224.083 922.629,-213.696 916.607,-217.264"/>
</g>
<!-- Node4 -->
<g id="node4" class="node"><title>Node4</title>
<g id="a_node4"><a xlink:href="_config_manager_8h.html" target="_top" xlink:title="Framework/ConfigManager.h">
<polygon fill="white" stroke="black" points="1476,-112.5 1476,-131.5 1616,-131.5 1616,-112.5 1476,-112.5"/>
<text text-anchor="middle" x="1546" y="-119.5" font-family="Helvetica,sans-Serif" font-size="10.00">Framework/ConfigManager.h</text>
</a>
</g>
</g>
<!-- Node1&#45;&gt;Node4 -->
<g id="edge17" class="edge"><title>Node1&#45;&gt;Node4</title>
<path fill="none" stroke="midnightblue" d="M939.521,-215.695C949.065,-200.232 965.299,-178.452 986,-168 1080.69,-120.188 1356.36,-141.652 1462,-132 1466.53,-131.586 1471.19,-131.141 1475.89,-130.677"/>
<polygon fill="midnightblue" stroke="midnightblue" points="936.487,-213.95 934.463,-224.349 942.531,-217.482 936.487,-213.95"/>
</g>
<!-- Node16 -->
<g id="node16" class="node"><title>Node16</title>
<g id="a_node16"><a xlink:href="_digital_output_8h.html" target="_top" xlink:title="Actuators/DigitalOutput.h">
<polygon fill="white" stroke="black" points="120,-168.5 120,-187.5 246,-187.5 246,-168.5 120,-168.5"/>
<text text-anchor="middle" x="183" y="-175.5" font-family="Helvetica,sans-Serif" font-size="10.00">Actuators/DigitalOutput.h</text>
</a>
</g>
</g>
<!-- Node1&#45;&gt;Node16 -->
<g id="edge18" class="edge"><title>Node1&#45;&gt;Node16</title>
<path fill="none" stroke="midnightblue" d="M863.227,-229.83C741.93,-223.787 477.376,-209.293 255,-188 252.116,-187.724 249.169,-187.425 246.193,-187.109"/>
<polygon fill="midnightblue" stroke="midnightblue" points="863.302,-233.338 873.463,-230.337 863.648,-226.347 863.302,-233.338"/>
</g>
<!-- Node17 -->
<g id="node17" class="node"><title>Node17</title>
<g id="a_node17"><a xlink:href="_p_w_m_output_8h.html" target="_top" xlink:title="Actuators/PWMOutput.h">
<polygon fill="white" stroke="black" points="1477,-168.5 1477,-187.5 1601,-187.5 1601,-168.5 1477,-168.5"/>
<text text-anchor="middle" x="1539" y="-175.5" font-family="Helvetica,sans-Serif" font-size="10.00">Actuators/PWMOutput.h</text>
</a>
</g>
</g>
<!-- Node1&#45;&gt;Node17 -->
<g id="edge21" class="edge"><title>Node1&#45;&gt;Node17</title>
<path fill="none" stroke="midnightblue" d="M996.792,-227.078C1115.47,-216.555 1361.42,-194.746 1476.76,-184.519"/>
<polygon fill="midnightblue" stroke="midnightblue" points="996.398,-223.599 986.746,-227.968 997.016,-230.571 996.398,-223.599"/>
</g>
<!-- Node19 -->
<g id="node19" class="node"><title>Node19</title>
<g id="a_node19"><a xlink:href="_temperature_controller_8h.html" target="_top" xlink:title="Controller/TemperatureController.h">
<polygon fill="white" stroke="black" points="264,-168.5 264,-187.5 428,-187.5 428,-168.5 264,-168.5"/>
<text text-anchor="middle" x="346" y="-175.5" font-family="Helvetica,sans-Serif" font-size="10.00">Controller/TemperatureController.h</text>
</a>
</g>
</g>
<!-- Node1&#45;&gt;Node19 -->
<g id="edge23" class="edge"><title>Node1&#45;&gt;Node19</title>
<path fill="none" stroke="midnightblue" d="M863.187,-226.834C769.343,-218.172 593.149,-201.903 443,-188 438.116,-187.548 433.094,-187.083 428.028,-186.613"/>
<polygon fill="midnightblue" stroke="midnightblue" points="863.109,-230.342 873.388,-227.776 863.752,-223.372 863.109,-230.342"/>
</g>
<!-- Node20 -->
<g id="node20" class="node"><title>Node20</title>
<g id="a_node20"><a xlink:href="_level_controller_8h.html" target="_top" xlink:title="Controller/LevelController.h">
<polygon fill="white" stroke="black" points="452,-168.5 452,-187.5 584,-187.5 584,-168.5 452,-168.5"/>
<text text-anchor="middle" x="518" y="-175.5" font-family="Helvetica,sans-Serif" font-size="10.00">Controller/LevelController.h</text>
</a>
</g>
</g>
<!-- Node1&#45;&gt;Node20 -->
<g id="edge26" class="edge"><title>Node1&#45;&gt;Node20</title>
<path fill="none" stroke="midnightblue" d="M863.043,-224.224C785.775,-214.097 659.56,-197.554 583.091,-187.531"/>
<polygon fill="midnightblue" stroke="midnightblue" points="862.776,-227.719 873.146,-225.548 863.685,-220.778 862.776,-227.719"/>
</g>
<!-- Node21 -->
<g id="node21" class="node"><title>Node21</title>
<g id="a_node21"><a xlink:href="_actuator_8cpp.html" target="_top" xlink:title="Framework/Actuator.cpp">
<polygon fill="white" stroke="black" points="1028.5,-168.5 1028.5,-187.5 1151.5,-187.5 1151.5,-168.5 1028.5,-168.5"/>
<text text-anchor="middle" x="1090" y="-175.5" font-family="Helvetica,sans-Serif" font-size="10.00">Framework/Actuator.cpp</text>
</a>
</g>
</g>
<!-- Node1&#45;&gt;Node21 -->
<g id="edge29" class="edge"><title>Node1&#45;&gt;Node21</title>
<path fill="none" stroke="midnightblue" d="M965.046,-221.172C995.174,-211.004 1037.9,-196.585 1064.77,-187.516"/>
<polygon fill="midnightblue" stroke="midnightblue" points="963.708,-217.929 955.352,-224.444 965.947,-224.562 963.708,-217.929"/>
</g>
<!-- Node11 -->
<g id="node11" class="node"><title>Node11</title>
<g id="a_node11"><a xlink:href="_controller_8cpp.html" target="_top" xlink:title="Framework/Controller.cpp">
<polygon fill="white" stroke="black" points="1634,-112.5 1634,-131.5 1762,-131.5 1762,-112.5 1634,-112.5"/>
<text text-anchor="middle" x="1698" y="-119.5" font-family="Helvetica,sans-Serif" font-size="10.00">Framework/Controller.cpp</text>
</a>
</g>
</g>
<!-- Node1&#45;&gt;Node11 -->
<g id="edge30" class="edge"><title>Node1&#45;&gt;Node11</title>
<path fill="none" stroke="midnightblue" d="M948.342,-217.67C969.619,-200.243 1003.73,-173.489 1019,-168 1145.95,-122.367 1490.65,-144.26 1625,-132 1627.92,-131.733 1630.91,-131.442 1633.93,-131.132"/>
<polygon fill="midnightblue" stroke="midnightblue" points="945.841,-215.196 940.36,-224.263 950.299,-220.593 945.841,-215.196"/>
</g>
<!-- Node3 -->
<g id="node3" class="node"><title>Node3</title>
<g id="a_node3"><a xlink:href="_digital_output_8cpp.html" target="_top" xlink:title="Actuators/DigitalOutput.cpp">
<polygon fill="white" stroke="black" points="-0.5,-112.5 -0.5,-131.5 136.5,-131.5 136.5,-112.5 -0.5,-112.5"/>
<text text-anchor="middle" x="68" y="-119.5" font-family="Helvetica,sans-Serif" font-size="10.00">Actuators/DigitalOutput.cpp</text>
</a>
</g>
</g>
<!-- Node2&#45;&gt;Node3 -->
<g id="edge2" class="edge"><title>Node2&#45;&gt;Node3</title>
<path fill="none" stroke="midnightblue" d="M852.199,-175.168C734.609,-170.269 412.513,-155.608 145,-132 142.319,-131.763 139.586,-131.509 136.827,-131.24"/>
<polygon fill="midnightblue" stroke="midnightblue" points="852.144,-178.669 862.28,-175.585 852.433,-171.675 852.144,-178.669"/>
</g>
<!-- Node2&#45;&gt;Node4 -->
<g id="edge3" class="edge"><title>Node2&#45;&gt;Node4</title>
<path fill="none" stroke="midnightblue" d="M943.595,-168.582C945.079,-168.376 946.55,-168.181 948,-168 1175.25,-139.674 1233.89,-152.202 1462,-132 1466.53,-131.599 1471.19,-131.163 1475.89,-130.707"/>
<polygon fill="midnightblue" stroke="midnightblue" points="943.067,-165.122 933.708,-170.088 944.121,-172.043 943.067,-165.122"/>
</g>
<!-- Node7 -->
<g id="node7" class="node"><title>Node7</title>
<g id="a_node7"><a xlink:href="_aquaduino_8cpp.html" target="_top" xlink:title="Aquaduino.cpp">
<polygon fill="white" stroke="black" points="154.5,-112.5 154.5,-131.5 235.5,-131.5 235.5,-112.5 154.5,-112.5"/>
<text text-anchor="middle" x="195" y="-119.5" font-family="Helvetica,sans-Serif" font-size="10.00">Aquaduino.cpp</text>
</a>
</g>
</g>
<!-- Node2&#45;&gt;Node7 -->
<g id="edge7" class="edge"><title>Node2&#45;&gt;Node7</title>
<path fill="none" stroke="midnightblue" d="M852.312,-175.632C745.506,-172.047 471.304,-160.602 244,-132 241.254,-131.654 238.429,-131.255 235.587,-130.82"/>
<polygon fill="midnightblue" stroke="midnightblue" points="852.308,-179.134 862.417,-175.964 852.538,-172.137 852.308,-179.134"/>
</g>
<!-- Node8 -->
<g id="node8" class="node"><title>Node8</title>
<g id="a_node8"><a xlink:href="_clock_timer_controller_8cpp.html" target="_top" xlink:title="Controller/ClockTimerController.cpp">
<polygon fill="white" stroke="black" points="646,-112.5 646,-131.5 816,-131.5 816,-112.5 646,-112.5"/>
<text text-anchor="middle" x="731" y="-119.5" font-family="Helvetica,sans-Serif" font-size="10.00">Controller/ClockTimerController.cpp</text>
</a>
</g>
</g>
<!-- Node2&#45;&gt;Node8 -->
<g id="edge8" class="edge"><title>Node2&#45;&gt;Node8</title>
<path fill="none" stroke="midnightblue" d="M861.83,-165.304C830.363,-155.129 785.506,-140.625 757.338,-131.516"/>
<polygon fill="midnightblue" stroke="midnightblue" points="860.947,-168.697 871.538,-168.444 863.1,-162.037 860.947,-168.697"/>
</g>
<!-- Node9 -->
<g id="node9" class="node"><title>Node9</title>
<g id="a_node9"><a xlink:href="_level_controller_8cpp.html" target="_top" xlink:title="Controller/LevelController.cpp">
<polygon fill="white" stroke="black" points="446.5,-112.5 446.5,-131.5 589.5,-131.5 589.5,-112.5 446.5,-112.5"/>
<text text-anchor="middle" x="518" y="-119.5" font-family="Helvetica,sans-Serif" font-size="10.00">Controller/LevelController.cpp</text>
</a>
</g>
</g>
<!-- Node2&#45;&gt;Node9 -->
<g id="edge9" class="edge"><title>Node2&#45;&gt;Node9</title>
<path fill="none" stroke="midnightblue" d="M852.185,-170.489C783.605,-160.744 654.199,-142.355 578.109,-131.542"/>
<polygon fill="midnightblue" stroke="midnightblue" points="851.858,-173.978 862.251,-171.92 852.842,-167.048 851.858,-173.978"/>
</g>
<!-- Node10 -->
<g id="node10" class="node"><title>Node10</title>
<g id="a_node10"><a xlink:href="_temperature_controller_8cpp.html" target="_top" xlink:title="Controller/TemperatureController.cpp">
<polygon fill="white" stroke="black" points="253.5,-112.5 253.5,-131.5 428.5,-131.5 428.5,-112.5 253.5,-112.5"/>
<text text-anchor="middle" x="341" y="-119.5" font-family="Helvetica,sans-Serif" font-size="10.00">Controller/TemperatureController.cpp</text>
</a>
</g>
</g>
<!-- Node2&#45;&gt;Node10 -->
<g id="edge10" class="edge"><title>Node2&#45;&gt;Node10</title>
<path fill="none" stroke="midnightblue" d="M852.136,-172.554C759.484,-163.571 548.637,-143.13 428.702,-131.502"/>
<polygon fill="midnightblue" stroke="midnightblue" points="852.019,-176.059 862.31,-173.54 852.694,-169.091 852.019,-176.059"/>
</g>
<!-- Node2&#45;&gt;Node11 -->
<g id="edge11" class="edge"><title>Node2&#45;&gt;Node11</title>
<path fill="none" stroke="midnightblue" d="M943.616,-171.935C957.239,-170.53 972.214,-169.093 986,-168 1269.56,-145.524 1341.69,-157.417 1625,-132 1627.93,-131.738 1630.91,-131.45 1633.93,-131.143"/>
<polygon fill="midnightblue" stroke="midnightblue" points="943.085,-168.471 933.505,-172.996 943.816,-175.433 943.085,-168.471"/>
</g>
<!-- Node12 -->
<g id="node12" class="node"><title>Node12</title>
<g id="a_node12"><a xlink:href="_n_t_p_sync_8cpp.html" target="_top" xlink:title="Framework/NTPSync.cpp">
<polygon fill="white" stroke="black" points="834,-112.5 834,-131.5 962,-131.5 962,-112.5 834,-112.5"/>
<text text-anchor="middle" x="898" y="-119.5" font-family="Helvetica,sans-Serif" font-size="10.00">Framework/NTPSync.cpp</text>
</a>
</g>
</g>
<!-- Node2&#45;&gt;Node12 -->
<g id="edge12" class="edge"><title>Node2&#45;&gt;Node12</title>
<path fill="none" stroke="midnightblue" d="M898,-157.805C898,-148.91 898,-138.78 898,-131.751"/>
<polygon fill="midnightblue" stroke="midnightblue" points="894.5,-158.083 898,-168.083 901.5,-158.083 894.5,-158.083"/>
</g>
<!-- Node6 -->
<g id="node6" class="node"><title>Node6</title>
<g id="a_node6"><a xlink:href="_s_d_config_manager_8cpp.html" target="_top" xlink:title="Framework/SDConfigManager.cpp">
<polygon fill="white" stroke="black" points="1313,-0.5 1313,-19.5 1477,-19.5 1477,-0.5 1313,-0.5"/>
<text text-anchor="middle" x="1395" y="-7.5" font-family="Helvetica,sans-Serif" font-size="10.00">Framework/SDConfigManager.cpp</text>
</a>
</g>
</g>
<!-- Node2&#45;&gt;Node6 -->
<g id="edge13" class="edge"><title>Node2&#45;&gt;Node6</title>
<path fill="none" stroke="midnightblue" d="M943.442,-169.717C948.016,-169.089 952.596,-168.503 957,-168 1009.26,-162.03 1393.25,-170.58 1429,-132 1451.96,-107.224 1439.74,-88.0254 1429,-56 1424.14,-41.5174 1412.58,-27.9752 1404.29,-19.6053"/>
<polygon fill="midnightblue" stroke="midnightblue" points="942.912,-166.257 933.509,-171.141 943.905,-173.186 942.912,-166.257"/>
</g>
<!-- Node13 -->
<g id="node13" class="node"><title>Node13</title>
<g id="a_node13"><a xlink:href="configweb_8cpp.html" target="_top" xlink:title="Webinterface/configweb.cpp">
<polygon fill="white" stroke="black" points="980,-112.5 980,-131.5 1118,-131.5 1118,-112.5 980,-112.5"/>
<text text-anchor="middle" x="1049" y="-119.5" font-family="Helvetica,sans-Serif" font-size="10.00">Webinterface/configweb.cpp</text>
</a>
</g>
</g>
<!-- Node2&#45;&gt;Node13 -->
<g id="edge14" class="edge"><title>Node2&#45;&gt;Node13</title>
<path fill="none" stroke="midnightblue" d="M931.446,-165.039C959.858,-154.879 999.937,-140.546 1025.19,-131.516"/>
<polygon fill="midnightblue" stroke="midnightblue" points="930.164,-161.781 921.926,-168.444 932.521,-168.372 930.164,-161.781"/>
</g>
<!-- Node14 -->
<g id="node14" class="node"><title>Node14</title>
<g id="a_node14"><a xlink:href="dispatch_8cpp.html" target="_top" xlink:title="Webinterface/dispatch.cpp">
<polygon fill="white" stroke="black" points="1136,-112.5 1136,-131.5 1268,-131.5 1268,-112.5 1136,-112.5"/>
<text text-anchor="middle" x="1202" y="-119.5" font-family="Helvetica,sans-Serif" font-size="10.00">Webinterface/dispatch.cpp</text>
</a>
</g>
</g>
<!-- Node2&#45;&gt;Node14 -->
<g id="edge15" class="edge"><title>Node2&#45;&gt;Node14</title>
<path fill="none" stroke="midnightblue" d="M943.542,-168.797C945.045,-168.528 946.535,-168.262 948,-168 1019.64,-155.206 1102.67,-140.523 1153.77,-131.504"/>
<polygon fill="midnightblue" stroke="midnightblue" points="942.732,-165.386 933.507,-170.596 943.967,-172.276 942.732,-165.386"/>
</g>
<!-- Node15 -->
<g id="node15" class="node"><title>Node15</title>
<g id="a_node15"><a xlink:href="mainweb_8cpp.html" target="_top" xlink:title="Webinterface/mainweb.cpp">
<polygon fill="white" stroke="black" points="1286,-112.5 1286,-131.5 1420,-131.5 1420,-112.5 1286,-112.5"/>
<text text-anchor="middle" x="1353" y="-119.5" font-family="Helvetica,sans-Serif" font-size="10.00">Webinterface/mainweb.cpp</text>
</a>
</g>
</g>
<!-- Node2&#45;&gt;Node15 -->
<g id="edge16" class="edge"><title>Node2&#45;&gt;Node15</title>
<path fill="none" stroke="midnightblue" d="M943.605,-168.657C945.086,-168.429 946.554,-168.209 948,-168 1093.58,-146.958 1130.85,-148.649 1277,-132 1279.9,-131.669 1282.87,-131.329 1285.87,-130.983"/>
<polygon fill="midnightblue" stroke="midnightblue" points="943.041,-165.202 933.731,-170.259 944.162,-172.112 943.041,-165.202"/>
</g>
<!-- Node5 -->
<g id="node5" class="node"><title>Node5</title>
<g id="a_node5"><a xlink:href="_s_d_config_manager_8h.html" target="_top" xlink:title="Framework/SDConfigManager.h">
<polygon fill="white" stroke="black" points="1266,-56.5 1266,-75.5 1420,-75.5 1420,-56.5 1266,-56.5"/>
<text text-anchor="middle" x="1343" y="-63.5" font-family="Helvetica,sans-Serif" font-size="10.00">Framework/SDConfigManager.h</text>
</a>
</g>
</g>
<!-- Node4&#45;&gt;Node5 -->
<g id="edge4" class="edge"><title>Node4&#45;&gt;Node5</title>
<path fill="none" stroke="midnightblue" d="M1504.01,-109.829C1465.68,-99.6333 1409.85,-84.7823 1375.02,-75.5164"/>
<polygon fill="midnightblue" stroke="midnightblue" points="1503.27,-113.255 1513.83,-112.444 1505.07,-106.49 1503.27,-113.255"/>
</g>
<!-- Node5&#45;&gt;Node2 -->
<g id="edge5" class="edge"><title>Node5&#45;&gt;Node2</title>
<path fill="none" stroke="midnightblue" d="M1255.64,-69.4174C1071.34,-74.9436 657.865,-89.7632 637,-112 630.918,-118.482 631.273,-125.202 637,-132 665.401,-165.717 797.686,-174.171 862.298,-176.291"/>
<polygon fill="midnightblue" stroke="midnightblue" points="1255.95,-72.9097 1265.84,-69.1139 1255.74,-65.9128 1255.95,-72.9097"/>
</g>
<!-- Node5&#45;&gt;Node6 -->
<g id="edge6" class="edge"><title>Node5&#45;&gt;Node6</title>
<path fill="none" stroke="midnightblue" d="M1358.68,-48.7175C1367.84,-39.1997 1379.05,-27.5608 1386.57,-19.7511"/>
<polygon fill="midnightblue" stroke="midnightblue" points="1356,-46.452 1351.59,-56.083 1361.04,-51.3075 1356,-46.452"/>
</g>
<!-- Node16&#45;&gt;Node3 -->
<g id="edge19" class="edge"><title>Node16&#45;&gt;Node3</title>
<path fill="none" stroke="midnightblue" d="M155.519,-164.096C134.034,-154.007 104.778,-140.27 86.1368,-131.516"/>
<polygon fill="midnightblue" stroke="midnightblue" points="154.238,-167.361 164.778,-168.444 157.214,-161.025 154.238,-167.361"/>
</g>
<!-- Node16&#45;&gt;Node7 -->
<g id="edge20" class="edge"><title>Node16&#45;&gt;Node7</title>
<path fill="none" stroke="midnightblue" d="M187.2,-158.101C189.192,-149.136 191.476,-138.858 193.055,-131.751"/>
<polygon fill="midnightblue" stroke="midnightblue" points="183.734,-157.562 184.982,-168.083 190.568,-159.08 183.734,-157.562"/>
</g>
<!-- Node18 -->
<g id="node18" class="node"><title>Node18</title>
<g id="a_node18"><a xlink:href="_p_w_m_output_8cpp.html" target="_top" xlink:title="Actuators/PWMOutput.cpp">
<polygon fill="white" stroke="black" points="1780,-112.5 1780,-131.5 1914,-131.5 1914,-112.5 1780,-112.5"/>
<text text-anchor="middle" x="1847" y="-119.5" font-family="Helvetica,sans-Serif" font-size="10.00">Actuators/PWMOutput.cpp</text>
</a>
</g>
</g>
<!-- Node17&#45;&gt;Node18 -->
<g id="edge22" class="edge"><title>Node17&#45;&gt;Node18</title>
<path fill="none" stroke="midnightblue" d="M1597.95,-166.664C1656.16,-156.459 1744.11,-141.039 1798.42,-131.516"/>
<polygon fill="midnightblue" stroke="midnightblue" points="1597.05,-163.269 1587.8,-168.444 1598.26,-170.164 1597.05,-163.269"/>
</g>
<!-- Node19&#45;&gt;Node7 -->
<g id="edge24" class="edge"><title>Node19&#45;&gt;Node7</title>
<path fill="none" stroke="midnightblue" d="M312.554,-165.039C284.142,-154.879 244.063,-140.546 218.814,-131.516"/>
<polygon fill="midnightblue" stroke="midnightblue" points="311.479,-168.372 322.074,-168.444 313.836,-161.781 311.479,-168.372"/>
</g>
<!-- Node19&#45;&gt;Node10 -->
<g id="edge25" class="edge"><title>Node19&#45;&gt;Node10</title>
<path fill="none" stroke="midnightblue" d="M344.25,-158.101C343.42,-149.136 342.468,-138.858 341.81,-131.751"/>
<polygon fill="midnightblue" stroke="midnightblue" points="340.767,-158.448 345.174,-168.083 347.737,-157.803 340.767,-158.448"/>
</g>
<!-- Node20&#45;&gt;Node7 -->
<g id="edge27" class="edge"><title>Node20&#45;&gt;Node7</title>
<path fill="none" stroke="midnightblue" d="M454.087,-166.853C398.519,-157.948 315.873,-144.501 244,-132 241.273,-131.526 238.462,-131.029 235.631,-130.524"/>
<polygon fill="midnightblue" stroke="midnightblue" points="453.711,-170.337 464.139,-168.462 454.818,-163.425 453.711,-170.337"/>
</g>
<!-- Node20&#45;&gt;Node9 -->
<g id="edge28" class="edge"><title>Node20&#45;&gt;Node9</title>
<path fill="none" stroke="midnightblue" d="M518,-157.805C518,-148.91 518,-138.78 518,-131.751"/>
<polygon fill="midnightblue" stroke="midnightblue" points="514.5,-158.083 518,-168.083 521.5,-158.083 514.5,-158.083"/>
</g>
</g>
</svg>
