<?xml version="1.0" encoding="UTF-8" standalone="no"?>
<!DOCTYPE svg PUBLIC "-//W3C//DTD SVG 1.1//EN"
 "http://www.w3.org/Graphics/SVG/1.1/DTD/svg11.dtd">
<!-- Generated by graphviz version 2.30.1 (20130214.1330)
 -->
<!-- Title: Aquaduino.cpp Pages: 1 -->
<!--zoomable 476 -->
<svg id="main" version="1.1" xmlns="http://www.w3.org/2000/svg" xmlns:xlink="http://www.w3.org/1999/xlink" xml:space="preserve" onload="init(evt)">
<style type="text/css"><![CDATA[
.edge:hover path { stroke: red; }
.edge:hover polygon { stroke: red; fill: red; }
]]></style>
<script type="text/javascript"><![CDATA[
var edges = document.getElementsByTagName('g');
if (edges && edges.length) {
  for (var i=0;i<edges.length;i++) {
    if (edges[i].id.substr(0,4)=='edge') {
      edges[i].setAttribute('class','edge');
    }
  }
}
]]></script>
        <defs>
                <circle id="rim" cx="0" cy="0" r="7"/>
                <circle id="rim2" cx="0" cy="0" r="3.5"/>
                <g id="zoomPlus">
                        <use xlink:href="#rim" fill="#404040">
                                <set attributeName="fill" to="#808080" begin="zoomplus.mouseover" end="zoomplus.mouseout"/>
                        </use>
                        <path d="M-4,0h8M0,-4v8" fill="none" stroke="white" stroke-width="1.5" pointer-events="none"/>
                </g>
                <g id="zoomMin">
                        <use xlink:href="#rim" fill="#404040">
                                <set attributeName="fill" to="#808080" begin="zoomminus.mouseover" end="zoomminus.mouseout"/>
                        </use>
                        <path d="M-4,0h8" fill="none" stroke="white" stroke-width="1.5" pointer-events="none"/>
                </g>
                <g id="dirArrow">
                        <path fill="none" stroke="white" stroke-width="1.5" d="M0,-3.0v7 M-2.5,-0.5L0,-3.0L2.5,-0.5"/>
                </g>
               <g id="resetDef">
                       <use xlink:href="#rim2" fill="#404040">
                               <set attributeName="fill" to="#808080" begin="reset.mouseover" end="reset.mouseout"/>
                       </use>
               </g>
        </defs>

<script type="text/javascript">
var viewWidth = 1564;
var viewHeight = 476;
var sectionId = 'dynsection-0';
</script>
<script xlink:href="svgpan.js"/>
<svg id="graph" class="graph">
<g id="viewport">
<title>Aquaduino.cpp</title>
<polygon fill="white" stroke="white" points="-4,5 -4,-472 1561,-472 1561,5 -4,5"/>
<!-- Node1 -->
<g id="node1" class="node"><title>Node1</title>
<polygon fill="#bfbfbf" stroke="black" points="1164.5,-448.5 1164.5,-467.5 1245.5,-467.5 1245.5,-448.5 1164.5,-448.5"/>
<text text-anchor="middle" x="1205" y="-455.5" font-family="Helvetica,sans-Serif" font-size="10.00">Aquaduino.cpp</text>
</g>
<!-- Node2 -->
<g id="node2" class="node"><title>Node2</title>
<g id="a_node2"><a xlink:href="_aquaduino_8h.html" target="_top" xlink:title="Aquaduino.h">
<polygon fill="white" stroke="black" points="501.5,-392.5 501.5,-411.5 572.5,-411.5 572.5,-392.5 501.5,-392.5"/>
<text text-anchor="middle" x="537" y="-399.5" font-family="Helvetica,sans-Serif" font-size="10.00">Aquaduino.h</text>
</a>
</g>
</g>
<!-- Node1&#45;&gt;Node2 -->
<g id="edge1" class="edge"><title>Node1&#45;&gt;Node2</title>
<path fill="none" stroke="midnightblue" d="M1164.22,-453.703C1046.55,-444.191 706.96,-416.739 582.997,-406.718"/>
<polygon fill="midnightblue" stroke="midnightblue" points="582.968,-403.205 572.718,-405.887 582.403,-410.182 582.968,-403.205"/>
</g>
<!-- Node20 -->
<g id="node20" class="node"><title>Node20</title>
<g id="a_node20"><a xlink:href="_temperature_controller_8h.html" target="_top" xlink:title="Controller/TemperatureController.h">
<polygon fill="white" stroke="black" points="844,-280.5 844,-299.5 1008,-299.5 1008,-280.5 844,-280.5"/>
<text text-anchor="middle" x="926" y="-287.5" font-family="Helvetica,sans-Serif" font-size="10.00">Controller/TemperatureController.h</text>
</a>
</g>
</g>
<!-- Node1&#45;&gt;Node20 -->
<g id="edge37" class="edge"><title>Node1&#45;&gt;Node20</title>
<path fill="none" stroke="midnightblue" d="M1195.62,-448.306C1168.65,-423.441 1090.92,-352.747 1061,-336 1033.76,-320.753 1000.52,-309.594 973.841,-302.202"/>
<polygon fill="midnightblue" stroke="midnightblue" points="974.529,-298.763 963.964,-299.553 972.716,-305.524 974.529,-298.763"/>
</g>
<!-- Node21 -->
<g id="node21" class="node"><title>Node21</title>
<g id="a_node21"><a xlink:href="_level_controller_8h.html" target="_top" xlink:title="Controller/LevelController.h">
<polygon fill="white" stroke="black" points="1026,-280.5 1026,-299.5 1158,-299.5 1158,-280.5 1026,-280.5"/>
<text text-anchor="middle" x="1092" y="-287.5" font-family="Helvetica,sans-Serif" font-size="10.00">Controller/LevelController.h</text>
</a>
</g>
</g>
<!-- Node1&#45;&gt;Node21 -->
<g id="edge40" class="edge"><title>Node1&#45;&gt;Node21</title>
<path fill="none" stroke="midnightblue" d="M1198.55,-448.463C1191.8,-439.478 1180.97,-424.878 1172,-412 1146.57,-375.496 1118.14,-331.752 1102.96,-308.144"/>
<polygon fill="midnightblue" stroke="midnightblue" points="1105.83,-306.132 1097.48,-299.604 1099.94,-309.911 1105.83,-306.132"/>
</g>
<!-- Node22 -->
<g id="node22" class="node"><title>Node22</title>
<g id="a_node22"><a xlink:href="_clock_timer_controller_8h.html" target="_top" xlink:title="Controller/ClockTimerController.h">
<polygon fill="white" stroke="black" points="925.5,-224.5 925.5,-243.5 1084.5,-243.5 1084.5,-224.5 925.5,-224.5"/>
<text text-anchor="middle" x="1005" y="-231.5" font-family="Helvetica,sans-Serif" font-size="10.00">Controller/ClockTimerController.h</text>
</a>
</g>
</g>
<!-- Node1&#45;&gt;Node22 -->
<g id="edge43" class="edge"><title>Node1&#45;&gt;Node22</title>
<path fill="none" stroke="midnightblue" d="M1205.99,-448.223C1208.69,-419.748 1213.12,-328.952 1167,-280 1148.18,-260.031 1121.35,-248.66 1094.92,-242.264"/>
<polygon fill="midnightblue" stroke="midnightblue" points="1095.34,-238.774 1084.82,-240.049 1093.84,-245.612 1095.34,-238.774"/>
</g>
<!-- Node24 -->
<g id="node24" class="node"><title>Node24</title>
<g id="a_node24"><a xlink:href="_digital_output_8h.html" target="_top" xlink:title="Actuators/DigitalOutput.h">
<polygon fill="white" stroke="black" points="893,-336.5 893,-355.5 1019,-355.5 1019,-336.5 893,-336.5"/>
<text text-anchor="middle" x="956" y="-343.5" font-family="Helvetica,sans-Serif" font-size="10.00">Actuators/DigitalOutput.h</text>
</a>
</g>
</g>
<!-- Node1&#45;&gt;Node24 -->
<g id="edge48" class="edge"><title>Node1&#45;&gt;Node24</title>
<path fill="none" stroke="midnightblue" d="M1177.99,-448.341C1152.6,-439.934 1113.71,-426.366 1081,-412 1045.02,-396.197 1004.96,-374.626 980.121,-360.753"/>
<polygon fill="midnightblue" stroke="midnightblue" points="981.51,-357.518 971.078,-355.666 978.078,-363.619 981.51,-357.518"/>
</g>
<!-- Node25 -->
<g id="node25" class="node"><title>Node25</title>
<g id="a_node25"><a xlink:href="_d_s18_s20_8h.html" target="_top" xlink:title="Sensors/DS18S20.h">
<polygon fill="white" stroke="black" points="1214.5,-280.5 1214.5,-299.5 1319.5,-299.5 1319.5,-280.5 1214.5,-280.5"/>
<text text-anchor="middle" x="1267" y="-287.5" font-family="Helvetica,sans-Serif" font-size="10.00">Sensors/DS18S20.h</text>
</a>
</g>
</g>
<!-- Node1&#45;&gt;Node25 -->
<g id="edge50" class="edge"><title>Node1&#45;&gt;Node25</title>
<path fill="none" stroke="midnightblue" d="M1208.33,-448.075C1218.13,-421.832 1247,-344.545 1260.23,-309.117"/>
<polygon fill="midnightblue" stroke="midnightblue" points="1263.58,-310.161 1263.8,-299.568 1257.02,-307.711 1263.58,-310.161"/>
</g>
<!-- Node27 -->
<g id="node27" class="node"><title>Node27</title>
<g id="a_node27"><a xlink:href="_digital_input_8h.html" target="_top" xlink:title="Sensors/DigitalInput.h">
<polygon fill="white" stroke="black" points="0,-336.5 0,-355.5 112,-355.5 112,-336.5 0,-336.5"/>
<text text-anchor="middle" x="56" y="-343.5" font-family="Helvetica,sans-Serif" font-size="10.00">Sensors/DigitalInput.h</text>
</a>
</g>
</g>
<!-- Node1&#45;&gt;Node27 -->
<g id="edge54" class="edge"><title>Node1&#45;&gt;Node27</title>
<path fill="none" stroke="midnightblue" d="M1164.3,-455.643C1055.17,-451.742 747.008,-439.007 492,-412 355.929,-397.589 197.254,-371.602 113.921,-357.238"/>
<polygon fill="midnightblue" stroke="midnightblue" points="114.345,-353.76 103.895,-355.503 113.151,-360.657 114.345,-353.76"/>
</g>
<!-- Node28 -->
<g id="node28" class="node"><title>Node28</title>
<polygon fill="white" stroke="#bfbfbf" points="1290,-392.5 1290,-411.5 1336,-411.5 1336,-392.5 1290,-392.5"/>
<text text-anchor="middle" x="1313" y="-399.5" font-family="Helvetica,sans-Serif" font-size="10.00">Time.h</text>
</g>
<!-- Node1&#45;&gt;Node28 -->
<g id="edge56" class="edge"><title>Node1&#45;&gt;Node28</title>
<path fill="none" stroke="midnightblue" d="M1222.35,-448.324C1239.67,-439.664 1266.52,-426.242 1286.5,-416.249"/>
<polygon fill="midnightblue" stroke="midnightblue" points="1288.31,-419.257 1295.69,-411.655 1285.18,-412.996 1288.31,-419.257"/>
</g>
<!-- Node29 -->
<g id="node29" class="node"><title>Node29</title>
<polygon fill="white" stroke="#bfbfbf" points="1354.5,-392.5 1354.5,-411.5 1433.5,-411.5 1433.5,-392.5 1354.5,-392.5"/>
<text text-anchor="middle" x="1394" y="-399.5" font-family="Helvetica,sans-Serif" font-size="10.00">EthernetUdp.h</text>
</g>
<!-- Node1&#45;&gt;Node29 -->
<g id="edge57" class="edge"><title>Node1&#45;&gt;Node29</title>
<path fill="none" stroke="midnightblue" d="M1234.95,-448.444C1267.16,-439.241 1318.53,-424.562 1354.14,-414.388"/>
<polygon fill="midnightblue" stroke="midnightblue" points="1355.54,-417.629 1364.19,-411.516 1353.62,-410.898 1355.54,-417.629"/>
</g>
<!-- Node13 -->
<g id="node13" class="node"><title>Node13</title>
<polygon fill="white" stroke="#bfbfbf" points="934,-56.5 934,-75.5 1006,-75.5 1006,-56.5 934,-56.5"/>
<text text-anchor="middle" x="970" y="-63.5" font-family="Helvetica,sans-Serif" font-size="10.00">WebServer.h</text>
</g>
<!-- Node1&#45;&gt;Node13 -->
<g id="edge58" class="edge"><title>Node1&#45;&gt;Node13</title>
<path fill="none" stroke="midnightblue" d="M1216.22,-448.194C1249.93,-420.656 1348,-332.192 1348,-235 1348,-235 1348,-235 1348,-177 1348,-108.678 1117.46,-79.981 1016.46,-70.6871"/>
<polygon fill="midnightblue" stroke="midnightblue" points="1016.52,-67.1779 1006.24,-69.7724 1015.89,-74.15 1016.52,-67.1779"/>
</g>
<!-- Node30 -->
<g id="node30" class="node"><title>Node30</title>
<polygon fill="white" stroke="#bfbfbf" points="1452,-392.5 1452,-411.5 1490,-411.5 1490,-392.5 1452,-392.5"/>
<text text-anchor="middle" x="1471" y="-399.5" font-family="Helvetica,sans-Serif" font-size="10.00">SD.h</text>
</g>
<!-- Node1&#45;&gt;Node30 -->
<g id="edge59" class="edge"><title>Node1&#45;&gt;Node30</title>
<path fill="none" stroke="midnightblue" d="M1245.56,-450.736C1293,-443.079 1373.73,-429.017 1442,-412 1442.1,-411.975 1442.2,-411.95 1442.3,-411.925"/>
<polygon fill="midnightblue" stroke="midnightblue" points="1443.04,-415.352 1451.74,-409.31 1441.17,-408.606 1443.04,-415.352"/>
</g>
<!-- Node31 -->
<g id="node31" class="node"><title>Node31</title>
<polygon fill="white" stroke="#bfbfbf" points="1508,-392.5 1508,-411.5 1556,-411.5 1556,-392.5 1508,-392.5"/>
<text text-anchor="middle" x="1532" y="-399.5" font-family="Helvetica,sans-Serif" font-size="10.00">stdlib.h</text>
</g>
<!-- Node1&#45;&gt;Node31 -->
<g id="edge60" class="edge"><title>Node1&#45;&gt;Node31</title>
<path fill="none" stroke="midnightblue" d="M1245.69,-452.267C1300.78,-445.531 1402.31,-431.963 1498.08,-411.988"/>
<polygon fill="midnightblue" stroke="midnightblue" points="1498.87,-415.399 1507.93,-409.907 1497.42,-408.551 1498.87,-415.399"/>
</g>
<!-- Node3 -->
<g id="node3" class="node"><title>Node3</title>
<polygon fill="white" stroke="#bfbfbf" points="725,-56.5 725,-75.5 783,-75.5 783,-56.5 725,-56.5"/>
<text text-anchor="middle" x="754" y="-63.5" font-family="Helvetica,sans-Serif" font-size="10.00">Arduino.h</text>
</g>
<!-- Node2&#45;&gt;Node3 -->
<g id="edge2" class="edge"><title>Node2&#45;&gt;Node3</title>
<path fill="none" stroke="midnightblue" d="M531.716,-392.231C521.275,-374.043 499,-330.601 499,-291 499,-291 499,-291 499,-233 499,-131.296 643.232,-88.6775 714.75,-73.7967"/>
<polygon fill="midnightblue" stroke="midnightblue" points="715.628,-77.1905 724.748,-71.7987 714.256,-70.3263 715.628,-77.1905"/>
</g>
<!-- Node4 -->
<g id="node4" class="node"><title>Node4</title>
<polygon fill="white" stroke="#bfbfbf" points="603,-336.5 603,-355.5 665,-355.5 665,-336.5 603,-336.5"/>
<text text-anchor="middle" x="634" y="-343.5" font-family="Helvetica,sans-Serif" font-size="10.00">Ethernet.h</text>
</g>
<!-- Node2&#45;&gt;Node4 -->
<g id="edge3" class="edge"><title>Node2&#45;&gt;Node4</title>
<path fill="none" stroke="midnightblue" d="M552.585,-392.324C567.999,-383.743 591.812,-370.486 609.71,-360.522"/>
<polygon fill="midnightblue" stroke="midnightblue" points="611.419,-363.577 618.454,-355.655 608.014,-357.461 611.419,-363.577"/>
</g>
<!-- Node5 -->
<g id="node5" class="node"><title>Node5</title>
<polygon fill="white" stroke="#bfbfbf" points="168.5,-336.5 168.5,-355.5 261.5,-355.5 261.5,-336.5 168.5,-336.5"/>
<text text-anchor="middle" x="215" y="-343.5" font-family="Helvetica,sans-Serif" font-size="10.00">TemplateParser.h</text>
</g>
<!-- Node2&#45;&gt;Node5 -->
<g id="edge4" class="edge"><title>Node2&#45;&gt;Node5</title>
<path fill="none" stroke="midnightblue" d="M501.31,-395.015C445.708,-385.69 337.922,-367.614 271.629,-356.497"/>
<polygon fill="midnightblue" stroke="midnightblue" points="272.201,-353.044 261.76,-354.842 271.043,-359.947 272.201,-353.044"/>
</g>
<!-- Node6 -->
<g id="node6" class="node"><title>Node6</title>
<g id="a_node6"><a xlink:href="_config_8h.html" target="_top" xlink:title="Framework/Config.h">
<polygon fill="white" stroke="black" points="447.5,-56.5 447.5,-75.5 550.5,-75.5 550.5,-56.5 447.5,-56.5"/>
<text text-anchor="middle" x="499" y="-63.5" font-family="Helvetica,sans-Serif" font-size="10.00">Framework/Config.h</text>
</a>
</g>
</g>
<!-- Node2&#45;&gt;Node6 -->
<g id="edge5" class="edge"><title>Node2&#45;&gt;Node6</title>
<path fill="none" stroke="midnightblue" d="M523.797,-392.46C512.158,-384.33 495.466,-371.116 485,-356 467.47,-330.681 461,-321.795 461,-291 461,-291 461,-291 461,-177 461,-142.813 477.6,-105.764 488.857,-84.5707"/>
<polygon fill="midnightblue" stroke="midnightblue" points="491.947,-86.2151 493.716,-75.769 485.819,-82.832 491.947,-86.2151"/>
</g>
<!-- Node8 -->
<g id="node8" class="node"><title>Node8</title>
<g id="a_node8"><a xlink:href="_controller_8h.html" target="_top" xlink:title="Framework/Controller.h">
<polygon fill="white" stroke="black" points="739.5,-168.5 739.5,-187.5 856.5,-187.5 856.5,-168.5 739.5,-168.5"/>
<text text-anchor="middle" x="798" y="-175.5" font-family="Helvetica,sans-Serif" font-size="10.00">Framework/Controller.h</text>
</a>
</g>
</g>
<!-- Node2&#45;&gt;Node8 -->
<g id="edge7" class="edge"><title>Node2&#45;&gt;Node8</title>
<path fill="none" stroke="midnightblue" d="M572.818,-400.439C680.764,-398.38 997.419,-389.512 1028,-356 1033.99,-349.434 1033.68,-342.837 1028,-336 972.243,-268.881 900.067,-358.139 835,-300 819.749,-286.373 807.108,-228.55 801.35,-198.036"/>
<polygon fill="midnightblue" stroke="midnightblue" points="804.725,-197.038 799.489,-187.828 797.839,-198.293 804.725,-197.038"/>
</g>
<!-- Node14 -->
<g id="node14" class="node"><title>Node14</title>
<g id="a_node14"><a xlink:href="_actuator_8h.html" target="_top" xlink:title="Framework/Actuator.h">
<polygon fill="white" stroke="black" points="679.5,-224.5 679.5,-243.5 792.5,-243.5 792.5,-224.5 679.5,-224.5"/>
<text text-anchor="middle" x="736" y="-231.5" font-family="Helvetica,sans-Serif" font-size="10.00">Framework/Actuator.h</text>
</a>
</g>
</g>
<!-- Node2&#45;&gt;Node14 -->
<g id="edge17" class="edge"><title>Node2&#45;&gt;Node14</title>
<path fill="none" stroke="midnightblue" d="M572.547,-401.367C646.081,-401.289 810.979,-396.49 846,-356 881.739,-314.679 812.392,-338.305 772,-300 758.276,-286.985 748.463,-267.555 742.583,-253.329"/>
<polygon fill="midnightblue" stroke="midnightblue" points="745.717,-251.728 738.854,-243.657 739.186,-254.246 745.717,-251.728"/>
</g>
<!-- Node15 -->
<g id="node15" class="node"><title>Node15</title>
<g id="a_node15"><a xlink:href="_sensor_8h.html" target="_top" xlink:title="Framework/Sensor.h">
<polygon fill="white" stroke="black" points="325.5,-224.5 325.5,-243.5 432.5,-243.5 432.5,-224.5 325.5,-224.5"/>
<text text-anchor="middle" x="379" y="-231.5" font-family="Helvetica,sans-Serif" font-size="10.00">Framework/Sensor.h</text>
</a>
</g>
</g>
<!-- Node2&#45;&gt;Node15 -->
<g id="edge23" class="edge"><title>Node2&#45;&gt;Node15</title>
<path fill="none" stroke="midnightblue" d="M510.038,-392.357C490.686,-385.086 464.96,-373.112 447,-356 415.859,-326.329 395.085,-279.208 385.361,-253.396"/>
<polygon fill="midnightblue" stroke="midnightblue" points="388.565,-251.965 381.872,-243.752 381.983,-254.346 388.565,-251.965"/>
</g>
<!-- Node16 -->
<g id="node16" class="node"><title>Node16</title>
<g id="a_node16"><a xlink:href="_array_list_8h.html" target="_top" xlink:title="Framework/ArrayList.h">
<polygon fill="white" stroke="black" points="279.5,-336.5 279.5,-355.5 394.5,-355.5 394.5,-336.5 279.5,-336.5"/>
<text text-anchor="middle" x="337" y="-343.5" font-family="Helvetica,sans-Serif" font-size="10.00">Framework/ArrayList.h</text>
</a>
</g>
</g>
<!-- Node2&#45;&gt;Node16 -->
<g id="edge25" class="edge"><title>Node2&#45;&gt;Node16</title>
<path fill="none" stroke="midnightblue" d="M505.309,-392.444C470.932,-383.162 415.923,-368.309 378.211,-358.127"/>
<polygon fill="midnightblue" stroke="midnightblue" points="379.109,-354.744 368.542,-355.516 377.284,-361.502 379.109,-354.744"/>
</g>
<!-- Node18 -->
<g id="node18" class="node"><title>Node18</title>
<g id="a_node18"><a xlink:href="_s_d_config_manager_8h.html" target="_top" xlink:title="Framework/SDConfigManager.h">
<polygon fill="white" stroke="black" points="683,-336.5 683,-355.5 837,-355.5 837,-336.5 683,-336.5"/>
<text text-anchor="middle" x="760" y="-343.5" font-family="Helvetica,sans-Serif" font-size="10.00">Framework/SDConfigManager.h</text>
</a>
</g>
</g>
<!-- Node2&#45;&gt;Node18 -->
<g id="edge28" class="edge"><title>Node2&#45;&gt;Node18</title>
<path fill="none" stroke="midnightblue" d="M572.335,-392.444C610.911,-383.102 672.785,-368.119 714.853,-357.933"/>
<polygon fill="midnightblue" stroke="midnightblue" points="715.935,-361.272 724.83,-355.516 714.287,-354.468 715.935,-361.272"/>
</g>
<!-- Node9 -->
<g id="node9" class="node"><title>Node9</title>
<g id="a_node9"><a xlink:href="_object_8h.html" target="_top" xlink:title="Object.h">
<polygon fill="white" stroke="black" points="372.5,-112.5 372.5,-131.5 425.5,-131.5 425.5,-112.5 372.5,-112.5"/>
<text text-anchor="middle" x="399" y="-119.5" font-family="Helvetica,sans-Serif" font-size="10.00">Object.h</text>
</a>
</g>
</g>
<!-- Node2&#45;&gt;Node9 -->
<g id="edge35" class="edge"><title>Node2&#45;&gt;Node9</title>
<path fill="none" stroke="midnightblue" d="M501.195,-397.809C409.412,-389.488 172.005,-367.008 159,-356 136.028,-336.554 140,-321.098 140,-291 140,-291 140,-291 140,-233 140,-137.742 290.261,-123.779 361.881,-122.534"/>
<polygon fill="midnightblue" stroke="midnightblue" points="362.292,-126.03 372.258,-122.434 362.225,-119.031 362.292,-126.03"/>
</g>
<!-- Node11 -->
<g id="node11" class="node"><title>Node11</title>
<g id="a_node11"><a xlink:href="_serializable_8h.html" target="_top" xlink:title="Serializable.h">
<polygon fill="white" stroke="black" points="716.5,-112.5 716.5,-131.5 791.5,-131.5 791.5,-112.5 716.5,-112.5"/>
<text text-anchor="middle" x="754" y="-119.5" font-family="Helvetica,sans-Serif" font-size="10.00">Serializable.h</text>
</a>
</g>
</g>
<!-- Node2&#45;&gt;Node11 -->
<g id="edge36" class="edge"><title>Node2&#45;&gt;Node11</title>
<path fill="none" stroke="midnightblue" d="M539.172,-392.472C544.708,-371.809 560.792,-317.976 587,-280 629.326,-218.667 699.091,-163.054 733.502,-137.612"/>
<polygon fill="midnightblue" stroke="midnightblue" points="735.82,-140.253 741.835,-131.532 731.694,-134.598 735.82,-140.253"/>
</g>
<!-- Node7 -->
<g id="node7" class="node"><title>Node7</title>
<polygon fill="white" stroke="#bfbfbf" points="359.5,-0.5 359.5,-19.5 408.5,-19.5 408.5,-0.5 359.5,-0.5"/>
<text text-anchor="middle" x="384" y="-7.5" font-family="Helvetica,sans-Serif" font-size="10.00">stdint.h</text>
</g>
<!-- Node6&#45;&gt;Node7 -->
<g id="edge6" class="edge"><title>Node6&#45;&gt;Node7</title>
<path fill="none" stroke="midnightblue" d="M480.778,-56.4435C462.104,-47.6751 432.844,-33.9355 411.383,-23.8579"/>
<polygon fill="midnightblue" stroke="midnightblue" points="412.676,-20.5988 402.137,-19.5164 409.701,-26.935 412.676,-20.5988"/>
</g>
<!-- Node8&#45;&gt;Node9 -->
<g id="edge8" class="edge"><title>Node8&#45;&gt;Node9</title>
<path fill="none" stroke="midnightblue" d="M739.126,-169.032C655.619,-157.73 505.229,-137.377 435.873,-127.99"/>
<polygon fill="midnightblue" stroke="midnightblue" points="436.232,-124.507 425.853,-126.634 435.293,-131.444 436.232,-124.507"/>
</g>
<!-- Node8&#45;&gt;Node11 -->
<g id="edge11" class="edge"><title>Node8&#45;&gt;Node11</title>
<path fill="none" stroke="midnightblue" d="M790.734,-168.083C784.455,-160.377 775.212,-149.033 767.569,-139.653"/>
<polygon fill="midnightblue" stroke="midnightblue" points="770.161,-137.293 761.131,-131.751 764.734,-141.714 770.161,-137.293"/>
</g>
<!-- Node12 -->
<g id="node12" class="node"><title>Node12</title>
<g id="a_node12"><a xlink:href="_web_interface_8h.html" target="_top" xlink:title="WebInterface.h">
<polygon fill="white" stroke="black" points="929,-112.5 929,-131.5 1011,-131.5 1011,-112.5 929,-112.5"/>
<text text-anchor="middle" x="970" y="-119.5" font-family="Helvetica,sans-Serif" font-size="10.00">WebInterface.h</text>
</a>
</g>
</g>
<!-- Node8&#45;&gt;Node12 -->
<g id="edge13" class="edge"><title>Node8&#45;&gt;Node12</title>
<path fill="none" stroke="midnightblue" d="M825.254,-168.444C854.441,-159.28 900.921,-144.688 933.309,-134.519"/>
<polygon fill="midnightblue" stroke="midnightblue" points="934.381,-137.851 942.874,-131.516 932.284,-131.173 934.381,-137.851"/>
</g>
<!-- Node8&#45;&gt;Node6 -->
<g id="edge15" class="edge"><title>Node8&#45;&gt;Node6</title>
<path fill="none" stroke="midnightblue" d="M774.538,-168.368C721.592,-148.89 592.72,-101.479 531.86,-79.089"/>
<polygon fill="midnightblue" stroke="midnightblue" points="532.947,-75.7594 522.353,-75.5914 530.53,-82.3289 532.947,-75.7594"/>
</g>
<!-- Node8&#45;&gt;Node13 -->
<g id="edge16" class="edge"><title>Node8&#45;&gt;Node13</title>
<path fill="none" stroke="midnightblue" d="M811.497,-168.368C841.012,-149.492 911.544,-104.385 947.739,-81.2367"/>
<polygon fill="midnightblue" stroke="midnightblue" points="950.027,-83.9278 956.566,-75.5914 946.256,-78.0306 950.027,-83.9278"/>
</g>
<!-- Node9&#45;&gt;Node6 -->
<g id="edge9" class="edge"><title>Node9&#45;&gt;Node6</title>
<path fill="none" stroke="midnightblue" d="M415.067,-112.324C430.958,-103.743 455.507,-90.486 473.958,-80.5224"/>
<polygon fill="midnightblue" stroke="midnightblue" points="475.837,-83.4857 482.973,-75.6545 472.511,-77.3264 475.837,-83.4857"/>
</g>
<!-- Node10 -->
<g id="node10" class="node"><title>Node10</title>
<g id="a_node10"><a xlink:href="_object_types_8h.html" target="_top" xlink:title="Framework/ObjectTypes.h">
<polygon fill="white" stroke="black" points="298.5,-56.5 298.5,-75.5 429.5,-75.5 429.5,-56.5 298.5,-56.5"/>
<text text-anchor="middle" x="364" y="-63.5" font-family="Helvetica,sans-Serif" font-size="10.00">Framework/ObjectTypes.h</text>
</a>
</g>
</g>
<!-- Node9&#45;&gt;Node10 -->
<g id="edge10" class="edge"><title>Node9&#45;&gt;Node10</title>
<path fill="none" stroke="midnightblue" d="M393.22,-112.083C388.328,-104.534 381.173,-93.4948 375.167,-84.2298"/>
<polygon fill="midnightblue" stroke="midnightblue" points="378.048,-82.239 369.672,-75.7511 372.174,-86.0463 378.048,-82.239"/>
</g>
<!-- Node11&#45;&gt;Node3 -->
<g id="edge12" class="edge"><title>Node11&#45;&gt;Node3</title>
<path fill="none" stroke="midnightblue" d="M754,-112.083C754,-105.006 754,-94.8611 754,-85.9865"/>
<polygon fill="midnightblue" stroke="midnightblue" points="757.5,-85.751 754,-75.7511 750.5,-85.7511 757.5,-85.751"/>
</g>
<!-- Node12&#45;&gt;Node13 -->
<g id="edge14" class="edge"><title>Node12&#45;&gt;Node13</title>
<path fill="none" stroke="midnightblue" d="M970,-112.083C970,-105.006 970,-94.8611 970,-85.9865"/>
<polygon fill="midnightblue" stroke="midnightblue" points="973.5,-85.751 970,-75.7511 966.5,-85.7511 973.5,-85.751"/>
</g>
<!-- Node14&#45;&gt;Node9 -->
<g id="edge18" class="edge"><title>Node14&#45;&gt;Node9</title>
<path fill="none" stroke="midnightblue" d="M709.837,-224.46C650.115,-204.966 503.651,-157.159 435.27,-134.839"/>
<polygon fill="midnightblue" stroke="midnightblue" points="435.972,-131.386 425.379,-131.61 433.799,-138.041 435.972,-131.386"/>
</g>
<!-- Node14&#45;&gt;Node6 -->
<g id="edge19" class="edge"><title>Node14&#45;&gt;Node6</title>
<path fill="none" stroke="midnightblue" d="M723.592,-224.309C685.117,-197.36 567.544,-115.01 519.64,-81.4566"/>
<polygon fill="midnightblue" stroke="midnightblue" points="521.484,-78.4754 511.286,-75.6051 517.468,-84.2089 521.484,-78.4754"/>
</g>
<!-- Node14&#45;&gt;Node8 -->
<g id="edge20" class="edge"><title>Node14&#45;&gt;Node8</title>
<path fill="none" stroke="midnightblue" d="M745.961,-224.324C755.127,-216.341 768.937,-204.313 780.028,-194.653"/>
<polygon fill="midnightblue" stroke="midnightblue" points="782.615,-197.041 787.857,-187.834 778.018,-191.762 782.615,-197.041"/>
</g>
<!-- Node14&#45;&gt;Node11 -->
<g id="edge21" class="edge"><title>Node14&#45;&gt;Node11</title>
<path fill="none" stroke="midnightblue" d="M733.419,-224.448C730.029,-211.885 725.053,-187.79 730,-168 732.439,-158.245 737.437,-148.29 742.243,-140.231"/>
<polygon fill="midnightblue" stroke="midnightblue" points="745.213,-142.083 747.633,-131.768 739.309,-138.322 745.213,-142.083"/>
</g>
<!-- Node14&#45;&gt;Node12 -->
<g id="edge22" class="edge"><title>Node14&#45;&gt;Node12</title>
<path fill="none" stroke="midnightblue" d="M792.649,-228.653C850.646,-222.999 935.398,-211 958,-188 969.805,-175.988 972.018,-156.385 971.758,-141.843"/>
<polygon fill="midnightblue" stroke="midnightblue" points="975.231,-141.286 971.155,-131.507 968.243,-141.694 975.231,-141.286"/>
</g>
<!-- Node15&#45;&gt;Node9 -->
<g id="edge24" class="edge"><title>Node15&#45;&gt;Node9</title>
<path fill="none" stroke="midnightblue" d="M380.569,-224.368C383.797,-206.617 391.242,-165.666 395.619,-141.597"/>
<polygon fill="midnightblue" stroke="midnightblue" points="399.093,-142.056 397.438,-131.591 392.205,-140.804 399.093,-142.056"/>
</g>
<!-- Node17 -->
<g id="node17" class="node"><title>Node17</title>
<polygon fill="white" stroke="#bfbfbf" points="336.5,-280.5 336.5,-299.5 387.5,-299.5 387.5,-280.5 336.5,-280.5"/>
<text text-anchor="middle" x="362" y="-287.5" font-family="Helvetica,sans-Serif" font-size="10.00">stddef.h</text>
</g>
<!-- Node16&#45;&gt;Node17 -->
<g id="edge26" class="edge"><title>Node16&#45;&gt;Node17</title>
<path fill="none" stroke="midnightblue" d="M341.128,-336.083C344.514,-328.77 349.416,-318.181 353.619,-309.103"/>
<polygon fill="midnightblue" stroke="midnightblue" points="356.923,-310.296 357.949,-299.751 350.571,-307.355 356.923,-310.296"/>
</g>
<!-- Node16&#45;&gt;Node7 -->
<g id="edge27" class="edge"><title>Node16&#45;&gt;Node7</title>
<path fill="none" stroke="midnightblue" d="M327.114,-336.402C308.477,-319.183 270,-278.38 270,-235 270,-235 270,-235 270,-121 270,-90.9022 269.463,-78.8954 289,-56 304.677,-37.6272 329.535,-26.2241 349.891,-19.4949"/>
<polygon fill="midnightblue" stroke="midnightblue" points="350.929,-22.8373 359.462,-16.5568 348.875,-16.1455 350.929,-22.8373"/>
</g>
<!-- Node19 -->
<g id="node19" class="node"><title>Node19</title>
<g id="a_node19"><a xlink:href="_config_manager_8h.html" target="_top" xlink:title="ConfigManager.h">
<polygon fill="white" stroke="black" points="596.5,-280.5 596.5,-299.5 685.5,-299.5 685.5,-280.5 596.5,-280.5"/>
<text text-anchor="middle" x="641" y="-287.5" font-family="Helvetica,sans-Serif" font-size="10.00">ConfigManager.h</text>
</a>
</g>
</g>
<!-- Node18&#45;&gt;Node19 -->
<g id="edge29" class="edge"><title>Node18&#45;&gt;Node19</title>
<path fill="none" stroke="midnightblue" d="M741.144,-336.444C721.734,-327.636 691.27,-313.812 669.035,-303.722"/>
<polygon fill="midnightblue" stroke="midnightblue" points="670.32,-300.462 659.768,-299.516 667.428,-306.836 670.32,-300.462"/>
</g>
<!-- Node19&#45;&gt;Node3 -->
<g id="edge30" class="edge"><title>Node19&#45;&gt;Node3</title>
<path fill="none" stroke="midnightblue" d="M641.848,-280.406C643.257,-267.792 646.583,-243.634 653,-224 670.169,-171.473 674.524,-156.711 707,-112 715.01,-100.972 725.91,-90.3431 735.197,-82.1869"/>
<polygon fill="midnightblue" stroke="midnightblue" points="737.47,-84.8478 742.829,-75.7079 732.94,-79.5113 737.47,-84.8478"/>
</g>
<!-- Node19&#45;&gt;Node2 -->
<g id="edge31" class="edge"><title>Node19&#45;&gt;Node2</title>
<path fill="none" stroke="midnightblue" d="M631.402,-299.73C621.733,-308.629 606.498,-322.943 594,-336 578.676,-352.01 562.066,-371.175 550.752,-384.53"/>
<polygon fill="midnightblue" stroke="midnightblue" points="547.911,-382.471 544.149,-392.375 553.266,-386.979 547.911,-382.471"/>
</g>
<!-- Node19&#45;&gt;Node14 -->
<g id="edge32" class="edge"><title>Node19&#45;&gt;Node14</title>
<path fill="none" stroke="midnightblue" d="M656.263,-280.324C671.221,-271.822 694.255,-258.729 711.727,-248.797"/>
<polygon fill="midnightblue" stroke="midnightblue" points="713.81,-251.639 720.774,-243.655 710.351,-245.553 713.81,-251.639"/>
</g>
<!-- Node19&#45;&gt;Node8 -->
<g id="edge33" class="edge"><title>Node19&#45;&gt;Node8</title>
<path fill="none" stroke="midnightblue" d="M642.624,-280.124C645.614,-266.246 653.28,-239.408 670,-224 687.956,-207.453 712.357,-196.928 735.04,-190.261"/>
<polygon fill="midnightblue" stroke="midnightblue" points="736.247,-193.56 744.971,-187.548 734.402,-186.807 736.247,-193.56"/>
</g>
<!-- Node19&#45;&gt;Node15 -->
<g id="edge34" class="edge"><title>Node19&#45;&gt;Node15</title>
<path fill="none" stroke="midnightblue" d="M599.485,-280.444C553.588,-270.984 479.62,-255.738 430.174,-245.547"/>
<polygon fill="midnightblue" stroke="midnightblue" points="430.821,-242.107 420.32,-243.516 429.408,-248.963 430.821,-242.107"/>
</g>
<!-- Node20&#45;&gt;Node8 -->
<g id="edge38" class="edge"><title>Node20&#45;&gt;Node8</title>
<path fill="none" stroke="midnightblue" d="M915.956,-280.368C894.272,-261.733 842.838,-217.532 815.61,-194.134"/>
<polygon fill="midnightblue" stroke="midnightblue" points="817.863,-191.455 807.997,-187.591 813.3,-196.764 817.863,-191.455"/>
</g>
<!-- Node20&#45;&gt;Node14 -->
<g id="edge39" class="edge"><title>Node20&#45;&gt;Node14</title>
<path fill="none" stroke="midnightblue" d="M895.894,-280.444C863.374,-271.201 811.421,-256.436 775.609,-246.257"/>
<polygon fill="midnightblue" stroke="midnightblue" points="776.541,-242.884 765.965,-243.516 774.627,-249.617 776.541,-242.884"/>
</g>
<!-- Node21&#45;&gt;Node8 -->
<g id="edge41" class="edge"><title>Node21&#45;&gt;Node8</title>
<path fill="none" stroke="midnightblue" d="M1045.41,-280.449C1009.34,-273.032 958.521,-260.831 916,-244 897.243,-236.576 850.187,-209.644 821.486,-192.865"/>
<polygon fill="midnightblue" stroke="midnightblue" points="822.919,-189.648 812.523,-187.607 819.377,-195.686 822.919,-189.648"/>
</g>
<!-- Node21&#45;&gt;Node14 -->
<g id="edge42" class="edge"><title>Node21&#45;&gt;Node14</title>
<path fill="none" stroke="midnightblue" d="M1035.59,-280.444C972.185,-270.826 869.352,-255.228 802.196,-245.041"/>
<polygon fill="midnightblue" stroke="midnightblue" points="802.557,-241.556 792.145,-243.516 801.507,-248.477 802.557,-241.556"/>
</g>
<!-- Node22&#45;&gt;Node8 -->
<g id="edge44" class="edge"><title>Node22&#45;&gt;Node8</title>
<path fill="none" stroke="midnightblue" d="M972.2,-224.444C936.62,-215.162 879.686,-200.309 840.653,-190.127"/>
<polygon fill="midnightblue" stroke="midnightblue" points="841.206,-186.654 830.646,-187.516 839.439,-193.427 841.206,-186.654"/>
</g>
<!-- Node23 -->
<g id="node23" class="node"><title>Node23</title>
<g id="a_node23"><a xlink:href="_clock_timer_8h.html" target="_top" xlink:title="ClockTimer.h">
<polygon fill="white" stroke="black" points="875,-168.5 875,-187.5 949,-187.5 949,-168.5 875,-168.5"/>
<text text-anchor="middle" x="912" y="-175.5" font-family="Helvetica,sans-Serif" font-size="10.00">ClockTimer.h</text>
</a>
</g>
</g>
<!-- Node22&#45;&gt;Node23 -->
<g id="edge45" class="edge"><title>Node22&#45;&gt;Node23</title>
<path fill="none" stroke="midnightblue" d="M990.058,-224.324C975.415,-215.822 952.866,-202.729 935.762,-192.797"/>
<polygon fill="midnightblue" stroke="midnightblue" points="937.31,-189.649 926.905,-187.655 933.795,-195.703 937.31,-189.649"/>
</g>
<!-- Node23&#45;&gt;Node3 -->
<g id="edge46" class="edge"><title>Node23&#45;&gt;Node3</title>
<path fill="none" stroke="midnightblue" d="M899.602,-168.368C872.605,-149.573 808.249,-104.768 774.875,-81.5334"/>
<polygon fill="midnightblue" stroke="midnightblue" points="776.547,-78.4327 766.34,-75.5914 772.548,-84.1776 776.547,-78.4327"/>
</g>
<!-- Node23&#45;&gt;Node11 -->
<g id="edge47" class="edge"><title>Node23&#45;&gt;Node11</title>
<path fill="none" stroke="midnightblue" d="M886.964,-168.444C860.384,-159.359 818.191,-144.939 788.477,-134.783"/>
<polygon fill="midnightblue" stroke="midnightblue" points="789.513,-131.439 778.918,-131.516 787.249,-138.062 789.513,-131.439"/>
</g>
<!-- Node24&#45;&gt;Node14 -->
<g id="edge49" class="edge"><title>Node24&#45;&gt;Node14</title>
<path fill="none" stroke="midnightblue" d="M903.854,-336.431C872.75,-329.742 833.344,-318.408 802,-300 780.438,-287.337 760.721,-266.078 748.562,-251.336"/>
<polygon fill="midnightblue" stroke="midnightblue" points="751.297,-249.152 742.32,-243.524 745.828,-253.521 751.297,-249.152"/>
</g>
<!-- Node25&#45;&gt;Node15 -->
<g id="edge51" class="edge"><title>Node25&#45;&gt;Node15</title>
<path fill="none" stroke="midnightblue" d="M1214.35,-283.936C1199.08,-282.556 1182.39,-281.131 1167,-280 897.957,-260.216 576.691,-244.248 442.637,-237.927"/>
<polygon fill="midnightblue" stroke="midnightblue" points="442.698,-234.426 432.545,-237.452 442.37,-241.418 442.698,-234.426"/>
</g>
<!-- Node25&#45;&gt;Node3 -->
<g id="edge52" class="edge"><title>Node25&#45;&gt;Node3</title>
<path fill="none" stroke="midnightblue" d="M1258.08,-280.19C1227.76,-250.815 1124.7,-155.613 1020,-112 943.797,-80.2583 846.438,-70.8935 793.174,-68.1391"/>
<polygon fill="midnightblue" stroke="midnightblue" points="793.28,-64.6404 783.128,-67.6717 792.955,-71.6328 793.28,-64.6404"/>
</g>
<!-- Node26 -->
<g id="node26" class="node"><title>Node26</title>
<polygon fill="white" stroke="#bfbfbf" points="1235.5,-224.5 1235.5,-243.5 1298.5,-243.5 1298.5,-224.5 1235.5,-224.5"/>
<text text-anchor="middle" x="1267" y="-231.5" font-family="Helvetica,sans-Serif" font-size="10.00">OneWire.h</text>
</g>
<!-- Node25&#45;&gt;Node26 -->
<g id="edge53" class="edge"><title>Node25&#45;&gt;Node26</title>
<path fill="none" stroke="midnightblue" d="M1267,-280.083C1267,-273.006 1267,-262.861 1267,-253.986"/>
<polygon fill="midnightblue" stroke="midnightblue" points="1270.5,-253.751 1267,-243.751 1263.5,-253.751 1270.5,-253.751"/>
</g>
<!-- Node27&#45;&gt;Node15 -->
<g id="edge55" class="edge"><title>Node27&#45;&gt;Node15</title>
<path fill="none" stroke="midnightblue" d="M81.0765,-336.46C138.317,-316.966 278.697,-269.159 344.236,-246.839"/>
<polygon fill="midnightblue" stroke="midnightblue" points="345.379,-250.147 353.717,-243.61 343.122,-243.521 345.379,-250.147"/>
</g>
</g>
</svg>
        <g id="navigator" transform="translate(0 0)" fill="#404254">
                <rect fill="#f2f5e9" fill-opacity="0.5" stroke="#606060" stroke-width=".5" x="0" y="0" width="60" height="60"/>
                <use id="zoomplus" xlink:href="#zoomPlus" x="17" y="9" onmousedown="handleZoom(evt,'in')"/>
                <use id="zoomminus" xlink:href="#zoomMin" x="42" y="9" onmousedown="handleZoom(evt,'out')"/>
                <use id="reset" xlink:href="#resetDef" x="30" y="36" onmousedown="handleReset()"/>
                <g id="arrowUp" xlink:href="#dirArrow" transform="translate(30 24)" onmousedown="handlePan(0,-1)">
                  <use xlink:href="#rim" fill="#404040">
                        <set attributeName="fill" to="#808080" begin="arrowUp.mouseover" end="arrowUp.mouseout"/>
                  </use>
                  <path fill="none" stroke="white" stroke-width="1.5" d="M0,-3.0v7 M-2.5,-0.5L0,-3.0L2.5,-0.5"/>
                </g>
                <g id="arrowRight" xlink:href="#dirArrow" transform="rotate(90) translate(36 -43)" onmousedown="handlePan(1,0)">
                  <use xlink:href="#rim" fill="#404040">
                        <set attributeName="fill" to="#808080" begin="arrowRight.mouseover" end="arrowRight.mouseout"/>
                  </use>
                  <path fill="none" stroke="white" stroke-width="1.5" d="M0,-3.0v7 M-2.5,-0.5L0,-3.0L2.5,-0.5"/>
                </g>
                <g id="arrowDown" xlink:href="#dirArrow" transform="rotate(180) translate(-30 -48)" onmousedown="handlePan(0,1)">
                  <use xlink:href="#rim" fill="#404040">
                        <set attributeName="fill" to="#808080" begin="arrowDown.mouseover" end="arrowDown.mouseout"/>
                  </use>
                  <path fill="none" stroke="white" stroke-width="1.5" d="M0,-3.0v7 M-2.5,-0.5L0,-3.0L2.5,-0.5"/>
                </g>
                <g id="arrowLeft" xlink:href="#dirArrow" transform="rotate(270) translate(-36 17)" onmousedown="handlePan(-1,0)">
                  <use xlink:href="#rim" fill="#404040">
                        <set attributeName="fill" to="#808080" begin="arrowLeft.mouseover" end="arrowLeft.mouseout"/>
                  </use>
                  <path fill="none" stroke="white" stroke-width="1.5" d="M0,-3.0v7 M-2.5,-0.5L0,-3.0L2.5,-0.5"/>
                </g>
        </g>
        <svg viewBox="0 0 15 15" width="100%" height="30px" preserveAspectRatio="xMaxYMin meet">
         <g id="arrow_out" transform="scale(0.3 0.3)">
          <a xlink:href="_aquaduino_8cpp__incl_org.svg" target="_base">
           <rect id="button" ry="5" rx="5" y="6" x="6" height="38" width="38"
                fill="#f2f5e9" fill-opacity="0.5" stroke="#606060" stroke-width="1.0"/>
           <path id="arrow"
             d="M 11.500037,31.436501 C 11.940474,20.09759 22.043105,11.32322 32.158766,21.979434 L 37.068811,17.246167 C 37.068811,17.246167 37.088388,32 37.088388,32 L 22.160133,31.978069 C 22.160133,31.978069 26.997745,27.140456 26.997745,27.140456 C 18.528582,18.264221 13.291696,25.230495 11.500037,31.436501 z"
             style="fill:#404040;"/>
          </a>
         </g>
        </svg>
</svg>
