<?xml version="1.0" encoding="UTF-8" standalone="no"?>
<!DOCTYPE svg PUBLIC "-//W3C//DTD SVG 1.1//EN"
 "http://www.w3.org/Graphics/SVG/1.1/DTD/svg11.dtd">
<!-- Generated by graphviz version 2.30.1 (20130214.1330)
 -->
<!-- Title: loop Pages: 1 -->
<svg width="312pt" height="142pt"
 viewBox="0.00 0.00 312.00 142.00" xmlns="http://www.w3.org/2000/svg" xmlns:xlink="http://www.w3.org/1999/xlink">
<g id="graph0" class="graph" transform="scale(1 1) rotate(0) translate(4 138)">
<title>loop</title>
<polygon fill="white" stroke="white" points="-4,5 -4,-138 309,-138 309,5 -4,5"/>
<!-- Node1 -->
<g id="node1" class="node"><title>Node1</title>
<polygon fill="#bfbfbf" stroke="black" points="0.5,-57.5 0.5,-76.5 35.5,-76.5 35.5,-57.5 0.5,-57.5"/>
<text text-anchor="middle" x="18" y="-64.5" font-family="Helvetica,sans-Serif" font-size="10.00">loop</text>
</g>
<!-- Node2 -->
<g id="node2" class="node"><title>Node2</title>
<g id="a_node2"><a xlink:href="class_aquaduino.html#a72ddeb7acd4e678dbbf7835f6876fc3c" target="_top" xlink:title="Aquaduino::run">
<polygon fill="white" stroke="black" points="72,-57.5 72,-76.5 154,-76.5 154,-57.5 72,-57.5"/>
<text text-anchor="middle" x="113" y="-64.5" font-family="Helvetica,sans-Serif" font-size="10.00">Aquaduino::run</text>
</a>
</g>
</g>
<!-- Node1&#45;&gt;Node2 -->
<g id="edge1" class="edge"><title>Node1&#45;&gt;Node2</title>
<path fill="none" stroke="midnightblue" d="M35.6265,-67C43.07,-67 52.2845,-67 61.7081,-67"/>
<polygon fill="midnightblue" stroke="midnightblue" points="61.9419,-70.5001 71.9418,-67 61.9418,-63.5001 61.9419,-70.5001"/>
</g>
<!-- Node3 -->
<g id="node3" class="node"><title>Node3</title>
<g id="a_node3"><a xlink:href="class_sensor.html#a1e61b97c3b45e2d1a9d97ad45e6cc33a" target="_top" xlink:title="Sensor::read">
<polygon fill="white" stroke="black" points="211,-114.5 211,-133.5 283,-133.5 283,-114.5 211,-114.5"/>
<text text-anchor="middle" x="247" y="-121.5" font-family="Helvetica,sans-Serif" font-size="10.00">Sensor::read</text>
</a>
</g>
</g>
<!-- Node2&#45;&gt;Node3 -->
<g id="edge2" class="edge"><title>Node2&#45;&gt;Node3</title>
<path fill="none" stroke="midnightblue" d="M131.493,-76.6041C146.695,-84.7414 169.443,-96.4206 190,-105 195.093,-107.125 200.515,-109.196 205.905,-111.141"/>
<polygon fill="midnightblue" stroke="midnightblue" points="204.898,-114.496 215.493,-114.491 207.207,-107.888 204.898,-114.496"/>
</g>
<!-- Node4 -->
<g id="node4" class="node"><title>Node4</title>
<g id="a_node4"><a xlink:href="class_array_list.html#ada61a62619272992ac7fb0da2cf400b8" target="_top" xlink:title="ArrayList::resetIterator">
<polygon fill="white" stroke="black" points="190.5,-76.5 190.5,-95.5 303.5,-95.5 303.5,-76.5 190.5,-76.5"/>
<text text-anchor="middle" x="247" y="-83.5" font-family="Helvetica,sans-Serif" font-size="10.00">ArrayList::resetIterator</text>
</a>
</g>
</g>
<!-- Node2&#45;&gt;Node4 -->
<g id="edge3" class="edge"><title>Node2&#45;&gt;Node4</title>
<path fill="none" stroke="midnightblue" d="M154.322,-72.8039C162.585,-73.9932 171.484,-75.2742 180.374,-76.5538"/>
<polygon fill="midnightblue" stroke="midnightblue" points="179.976,-80.0326 190.373,-77.9931 180.974,-73.104 179.976,-80.0326"/>
</g>
<!-- Node5 -->
<g id="node5" class="node"><title>Node5</title>
<g id="a_node5"><a xlink:href="class_array_list.html#a921b9822fbf598f6fece601973db200b" target="_top" xlink:title="ArrayList::getNext">
<polygon fill="white" stroke="black" points="199.5,-38.5 199.5,-57.5 294.5,-57.5 294.5,-38.5 199.5,-38.5"/>
<text text-anchor="middle" x="247" y="-45.5" font-family="Helvetica,sans-Serif" font-size="10.00">ArrayList::getNext</text>
</a>
</g>
</g>
<!-- Node2&#45;&gt;Node5 -->
<g id="edge4" class="edge"><title>Node2&#45;&gt;Node5</title>
<path fill="none" stroke="midnightblue" d="M154.322,-61.1961C165.346,-59.6093 177.503,-57.8594 189.26,-56.1672"/>
<polygon fill="midnightblue" stroke="midnightblue" points="190.051,-59.5895 199.45,-54.7004 189.053,-52.6609 190.051,-59.5895"/>
</g>
<!-- Node6 -->
<g id="node6" class="node"><title>Node6</title>
<g id="a_node6"><a xlink:href="class_controller.html#a571614716a0e7dd79674988a0f5780d8" target="_top" xlink:title="Controller::run">
<polygon fill="white" stroke="black" points="208.5,-0.5 208.5,-19.5 285.5,-19.5 285.5,-0.5 208.5,-0.5"/>
<text text-anchor="middle" x="247" y="-7.5" font-family="Helvetica,sans-Serif" font-size="10.00">Controller::run</text>
</a>
</g>
</g>
<!-- Node2&#45;&gt;Node6 -->
<g id="edge5" class="edge"><title>Node2&#45;&gt;Node6</title>
<path fill="none" stroke="midnightblue" d="M131.493,-57.3959C146.695,-49.2586 169.443,-37.5794 190,-29 195.093,-26.8746 200.515,-24.8041 205.905,-22.8592"/>
<polygon fill="midnightblue" stroke="midnightblue" points="207.207,-26.1119 215.493,-19.5092 204.898,-19.5037 207.207,-26.1119"/>
</g>
</g>
</svg>
