<?xml version="1.0" encoding="UTF-8" standalone="no"?>
<!DOCTYPE svg PUBLIC "-//W3C//DTD SVG 1.1//EN"
 "http://www.w3.org/Graphics/SVG/1.1/DTD/svg11.dtd">
<!-- Generated by graphviz version 2.30.1 (20130214.1330)
 -->
<!-- Title: Aquaduino.h Pages: 1 -->
<!--zoomable 420 -->
<svg id="main" version="1.1" xmlns="http://www.w3.org/2000/svg" xmlns:xlink="http://www.w3.org/1999/xlink" xml:space="preserve" onload="init(evt)">
<style type="text/css"><![CDATA[
.edge:hover path { stroke: red; }
.edge:hover polygon { stroke: red; fill: red; }
]]></style>
<script type="text/javascript"><![CDATA[
var edges = document.getElementsByTagName('g');
if (edges && edges.length) {
  for (var i=0;i<edges.length;i++) {
    if (edges[i].id.substr(0,4)=='edge') {
      edges[i].setAttribute('class','edge');
    }
  }
}
]]></script>
        <defs>
                <circle id="rim" cx="0" cy="0" r="7"/>
                <circle id="rim2" cx="0" cy="0" r="3.5"/>
                <g id="zoomPlus">
                        <use xlink:href="#rim" fill="#404040">
                                <set attributeName="fill" to="#808080" begin="zoomplus.mouseover" end="zoomplus.mouseout"/>
                        </use>
                        <path d="M-4,0h8M0,-4v8" fill="none" stroke="white" stroke-width="1.5" pointer-events="none"/>
                </g>
                <g id="zoomMin">
                        <use xlink:href="#rim" fill="#404040">
                                <set attributeName="fill" to="#808080" begin="zoomminus.mouseover" end="zoomminus.mouseout"/>
                        </use>
                        <path d="M-4,0h8" fill="none" stroke="white" stroke-width="1.5" pointer-events="none"/>
                </g>
                <g id="dirArrow">
                        <path fill="none" stroke="white" stroke-width="1.5" d="M0,-3.0v7 M-2.5,-0.5L0,-3.0L2.5,-0.5"/>
                </g>
               <g id="resetDef">
                       <use xlink:href="#rim2" fill="#404040">
                               <set attributeName="fill" to="#808080" begin="reset.mouseover" end="reset.mouseout"/>
                       </use>
               </g>
        </defs>

<script type="text/javascript">
var viewWidth = 834;
var viewHeight = 420;
var sectionId = 'dynsection-0';
</script>
<script xlink:href="svgpan.js"/>
<svg id="graph" class="graph">
<g id="viewport">
<title>Aquaduino.h</title>
<polygon fill="white" stroke="white" points="-4,5 -4,-416 831,-416 831,5 -4,5"/>
<!-- Node1 -->
<g id="node1" class="node"><title>Node1</title>
<polygon fill="#bfbfbf" stroke="black" points="360.5,-392.5 360.5,-411.5 431.5,-411.5 431.5,-392.5 360.5,-392.5"/>
<text text-anchor="middle" x="396" y="-399.5" font-family="Helvetica,sans-Serif" font-size="10.00">Aquaduino.h</text>
</g>
<!-- Node2 -->
<g id="node2" class="node"><title>Node2</title>
<polygon fill="white" stroke="#bfbfbf" points="9,-56.5 9,-75.5 67,-75.5 67,-56.5 9,-56.5"/>
<text text-anchor="middle" x="38" y="-63.5" font-family="Helvetica,sans-Serif" font-size="10.00">Arduino.h</text>
</g>
<!-- Node1&#45;&gt;Node2 -->
<g id="edge1" class="edge"><title>Node1&#45;&gt;Node2</title>
<path fill="none" stroke="midnightblue" d="M360.159,-398.727C262.68,-391.571 0,-365.386 0,-291 0,-291 0,-291 0,-177 0,-142.813 16.6005,-105.764 27.8573,-84.5707"/>
<polygon fill="midnightblue" stroke="midnightblue" points="30.9473,-86.2151 32.7163,-75.769 24.8191,-82.832 30.9473,-86.2151"/>
</g>
<!-- Node3 -->
<g id="node3" class="node"><title>Node3</title>
<polygon fill="white" stroke="#bfbfbf" points="653,-336.5 653,-355.5 715,-355.5 715,-336.5 653,-336.5"/>
<text text-anchor="middle" x="684" y="-343.5" font-family="Helvetica,sans-Serif" font-size="10.00">Ethernet.h</text>
</g>
<!-- Node1&#45;&gt;Node3 -->
<g id="edge2" class="edge"><title>Node1&#45;&gt;Node3</title>
<path fill="none" stroke="midnightblue" d="M431.662,-394.917C477.87,-386.943 561.167,-372.263 642.747,-355.988"/>
<polygon fill="midnightblue" stroke="midnightblue" points="643.568,-359.393 652.685,-353.995 642.192,-352.529 643.568,-359.393"/>
</g>
<!-- Node4 -->
<g id="node4" class="node"><title>Node4</title>
<polygon fill="white" stroke="#bfbfbf" points="733.5,-336.5 733.5,-355.5 826.5,-355.5 826.5,-336.5 733.5,-336.5"/>
<text text-anchor="middle" x="780" y="-343.5" font-family="Helvetica,sans-Serif" font-size="10.00">TemplateParser.h</text>
</g>
<!-- Node1&#45;&gt;Node4 -->
<g id="edge3" class="edge"><title>Node1&#45;&gt;Node4</title>
<path fill="none" stroke="midnightblue" d="M431.955,-396.342C490.58,-388.688 610.668,-372.76 723.104,-356.104"/>
<polygon fill="midnightblue" stroke="midnightblue" points="723.885,-359.526 733.262,-354.594 722.856,-352.602 723.885,-359.526"/>
</g>
<!-- Node5 -->
<g id="node5" class="node"><title>Node5</title>
<g id="a_node5"><a xlink:href="_config_8h.html" target="_top" xlink:title="Framework/Config.h">
<polygon fill="white" stroke="black" points="306.5,-56.5 306.5,-75.5 409.5,-75.5 409.5,-56.5 306.5,-56.5"/>
<text text-anchor="middle" x="358" y="-63.5" font-family="Helvetica,sans-Serif" font-size="10.00">Framework/Config.h</text>
</a>
</g>
</g>
<!-- Node1&#45;&gt;Node5 -->
<g id="edge4" class="edge"><title>Node1&#45;&gt;Node5</title>
<path fill="none" stroke="midnightblue" d="M395.022,-392.408C390.014,-348.383 367.186,-147.74 360.103,-85.4808"/>
<polygon fill="midnightblue" stroke="midnightblue" points="363.579,-85.0753 358.971,-75.5351 356.624,-85.8666 363.579,-85.0753"/>
</g>
<!-- Node7 -->
<g id="node7" class="node"><title>Node7</title>
<g id="a_node7"><a xlink:href="_controller_8h.html" target="_top" xlink:title="Framework/Controller.h">
<polygon fill="white" stroke="black" points="153.5,-168.5 153.5,-187.5 270.5,-187.5 270.5,-168.5 153.5,-168.5"/>
<text text-anchor="middle" x="212" y="-175.5" font-family="Helvetica,sans-Serif" font-size="10.00">Framework/Controller.h</text>
</a>
</g>
</g>
<!-- Node1&#45;&gt;Node7 -->
<g id="edge6" class="edge"><title>Node1&#45;&gt;Node7</title>
<path fill="none" stroke="midnightblue" d="M360.206,-398.931C304.37,-394.873 200.578,-383.714 178,-356 139.341,-308.546 179.611,-230.27 200.762,-195.98"/>
<polygon fill="midnightblue" stroke="midnightblue" points="203.72,-197.852 206.14,-187.537 197.816,-194.092 203.72,-197.852"/>
</g>
<!-- Node13 -->
<g id="node13" class="node"><title>Node13</title>
<g id="a_node13"><a xlink:href="_actuator_8h.html" target="_top" xlink:title="Framework/Actuator.h">
<polygon fill="white" stroke="black" points="242.5,-224.5 242.5,-243.5 355.5,-243.5 355.5,-224.5 242.5,-224.5"/>
<text text-anchor="middle" x="299" y="-231.5" font-family="Helvetica,sans-Serif" font-size="10.00">Framework/Actuator.h</text>
</a>
</g>
</g>
<!-- Node1&#45;&gt;Node13 -->
<g id="edge16" class="edge"><title>Node1&#45;&gt;Node13</title>
<path fill="none" stroke="midnightblue" d="M390.785,-392.075C375.318,-365.606 329.508,-287.209 309.056,-252.21"/>
<polygon fill="midnightblue" stroke="midnightblue" points="312.074,-250.436 304.007,-243.568 306.03,-253.968 312.074,-250.436"/>
</g>
<!-- Node14 -->
<g id="node14" class="node"><title>Node14</title>
<g id="a_node14"><a xlink:href="_sensor_8h.html" target="_top" xlink:title="Framework/Sensor.h">
<polygon fill="white" stroke="black" points="412.5,-224.5 412.5,-243.5 519.5,-243.5 519.5,-224.5 412.5,-224.5"/>
<text text-anchor="middle" x="466" y="-231.5" font-family="Helvetica,sans-Serif" font-size="10.00">Framework/Sensor.h</text>
</a>
</g>
</g>
<!-- Node1&#45;&gt;Node14 -->
<g id="edge22" class="edge"><title>Node1&#45;&gt;Node14</title>
<path fill="none" stroke="midnightblue" d="M403.789,-392.281C411.177,-383.618 422.139,-369.684 429,-356 446.169,-321.756 457.116,-278.02 462.351,-253.613"/>
<polygon fill="midnightblue" stroke="midnightblue" points="465.827,-254.085 464.41,-243.585 458.97,-252.677 465.827,-254.085"/>
</g>
<!-- Node15 -->
<g id="node15" class="node"><title>Node15</title>
<g id="a_node15"><a xlink:href="_array_list_8h.html" target="_top" xlink:title="Framework/ArrayList.h">
<polygon fill="white" stroke="black" points="519.5,-336.5 519.5,-355.5 634.5,-355.5 634.5,-336.5 519.5,-336.5"/>
<text text-anchor="middle" x="577" y="-343.5" font-family="Helvetica,sans-Serif" font-size="10.00">Framework/ArrayList.h</text>
</a>
</g>
</g>
<!-- Node1&#45;&gt;Node15 -->
<g id="edge24" class="edge"><title>Node1&#45;&gt;Node15</title>
<path fill="none" stroke="midnightblue" d="M424.68,-392.444C455.527,-383.241 504.728,-368.562 538.829,-358.388"/>
<polygon fill="midnightblue" stroke="midnightblue" points="539.872,-361.729 548.454,-355.516 537.871,-355.021 539.872,-361.729"/>
</g>
<!-- Node17 -->
<g id="node17" class="node"><title>Node17</title>
<g id="a_node17"><a xlink:href="_s_d_config_manager_8h.html" target="_top" xlink:title="Framework/SDConfigManager.h">
<polygon fill="white" stroke="black" points="195,-336.5 195,-355.5 349,-355.5 349,-336.5 195,-336.5"/>
<text text-anchor="middle" x="272" y="-343.5" font-family="Helvetica,sans-Serif" font-size="10.00">Framework/SDConfigManager.h</text>
</a>
</g>
</g>
<!-- Node1&#45;&gt;Node17 -->
<g id="edge27" class="edge"><title>Node1&#45;&gt;Node17</title>
<path fill="none" stroke="midnightblue" d="M376.352,-392.444C356.035,-383.596 324.097,-369.687 300.902,-359.586"/>
<polygon fill="midnightblue" stroke="midnightblue" points="302.122,-356.3 291.556,-355.516 299.327,-362.718 302.122,-356.3"/>
</g>
<!-- Node8 -->
<g id="node8" class="node"><title>Node8</title>
<g id="a_node8"><a xlink:href="_object_8h.html" target="_top" xlink:title="Object.h">
<polygon fill="white" stroke="black" points="427.5,-112.5 427.5,-131.5 480.5,-131.5 480.5,-112.5 427.5,-112.5"/>
<text text-anchor="middle" x="454" y="-119.5" font-family="Helvetica,sans-Serif" font-size="10.00">Object.h</text>
</a>
</g>
</g>
<!-- Node1&#45;&gt;Node8 -->
<g id="edge34" class="edge"><title>Node1&#45;&gt;Node8</title>
<path fill="none" stroke="midnightblue" d="M407.442,-392.396C418.466,-383.818 435.297,-369.945 448,-356 468.598,-333.389 518.666,-273.127 528,-244 541.426,-202.104 500.068,-159.751 473.855,-137.986"/>
<polygon fill="midnightblue" stroke="midnightblue" points="475.959,-135.186 465.965,-131.669 471.584,-140.651 475.959,-135.186"/>
</g>
<!-- Node10 -->
<g id="node10" class="node"><title>Node10</title>
<g id="a_node10"><a xlink:href="_serializable_8h.html" target="_top" xlink:title="Serializable.h">
<polygon fill="white" stroke="black" points="66.5,-112.5 66.5,-131.5 141.5,-131.5 141.5,-112.5 66.5,-112.5"/>
<text text-anchor="middle" x="104" y="-119.5" font-family="Helvetica,sans-Serif" font-size="10.00">Serializable.h</text>
</a>
</g>
</g>
<!-- Node1&#45;&gt;Node10 -->
<g id="edge35" class="edge"><title>Node1&#45;&gt;Node10</title>
<path fill="none" stroke="midnightblue" d="M360.146,-398.649C302.257,-394.122 191.858,-382.223 164,-356 102.575,-298.18 100.724,-186.583 102.68,-142.039"/>
<polygon fill="midnightblue" stroke="midnightblue" points="106.189,-141.971 103.256,-131.79 99.2005,-141.578 106.189,-141.971"/>
</g>
<!-- Node6 -->
<g id="node6" class="node"><title>Node6</title>
<polygon fill="white" stroke="#bfbfbf" points="459.5,-0.5 459.5,-19.5 508.5,-19.5 508.5,-0.5 459.5,-0.5"/>
<text text-anchor="middle" x="484" y="-7.5" font-family="Helvetica,sans-Serif" font-size="10.00">stdint.h</text>
</g>
<!-- Node5&#45;&gt;Node6 -->
<g id="edge5" class="edge"><title>Node5&#45;&gt;Node6</title>
<path fill="none" stroke="midnightblue" d="M377.965,-56.4435C398.609,-47.5961 431.063,-33.6875 454.632,-23.5865"/>
<polygon fill="midnightblue" stroke="midnightblue" points="456.316,-26.6727 464.128,-19.5164 453.558,-20.2387 456.316,-26.6727"/>
</g>
<!-- Node7&#45;&gt;Node8 -->
<g id="edge7" class="edge"><title>Node7&#45;&gt;Node8</title>
<path fill="none" stroke="midnightblue" d="M250.346,-168.444C296.218,-158.208 372.449,-141.197 417.492,-131.146"/>
<polygon fill="midnightblue" stroke="midnightblue" points="418.424,-134.525 427.421,-128.931 416.899,-127.693 418.424,-134.525"/>
</g>
<!-- Node7&#45;&gt;Node10 -->
<g id="edge10" class="edge"><title>Node7&#45;&gt;Node10</title>
<path fill="none" stroke="midnightblue" d="M194.648,-168.324C177.328,-159.664 150.485,-146.242 130.498,-136.249"/>
<polygon fill="midnightblue" stroke="midnightblue" points="131.819,-132.996 121.309,-131.655 128.688,-139.257 131.819,-132.996"/>
</g>
<!-- Node11 -->
<g id="node11" class="node"><title>Node11</title>
<g id="a_node11"><a xlink:href="_web_interface_8h.html" target="_top" xlink:title="WebInterface.h">
<polygon fill="white" stroke="black" points="198,-112.5 198,-131.5 280,-131.5 280,-112.5 198,-112.5"/>
<text text-anchor="middle" x="239" y="-119.5" font-family="Helvetica,sans-Serif" font-size="10.00">WebInterface.h</text>
</a>
</g>
</g>
<!-- Node7&#45;&gt;Node11 -->
<g id="edge12" class="edge"><title>Node7&#45;&gt;Node11</title>
<path fill="none" stroke="midnightblue" d="M216.459,-168.083C220.154,-160.691 225.523,-149.953 230.094,-140.811"/>
<polygon fill="midnightblue" stroke="midnightblue" points="233.283,-142.261 234.624,-131.751 227.022,-139.13 233.283,-142.261"/>
</g>
<!-- Node7&#45;&gt;Node5 -->
<g id="edge14" class="edge"><title>Node7&#45;&gt;Node5</title>
<path fill="none" stroke="midnightblue" d="M229.215,-168.388C245.296,-160.013 269.658,-146.468 289,-132 309.05,-117.003 329.639,-96.8737 343.045,-83.0095"/>
<polygon fill="midnightblue" stroke="midnightblue" points="345.686,-85.3111 350.049,-75.6565 340.617,-80.4829 345.686,-85.3111"/>
</g>
<!-- Node12 -->
<g id="node12" class="node"><title>Node12</title>
<polygon fill="white" stroke="#bfbfbf" points="168,-56.5 168,-75.5 240,-75.5 240,-56.5 168,-56.5"/>
<text text-anchor="middle" x="204" y="-63.5" font-family="Helvetica,sans-Serif" font-size="10.00">WebServer.h</text>
</g>
<!-- Node7&#45;&gt;Node12 -->
<g id="edge15" class="edge"><title>Node7&#45;&gt;Node12</title>
<path fill="none" stroke="midnightblue" d="M205.895,-168.191C200.245,-159.46 192.245,-145.478 189,-132 185.193,-116.186 190.078,-98.1584 195.264,-85.1068"/>
<polygon fill="midnightblue" stroke="midnightblue" points="198.516,-86.4075 199.327,-75.8438 192.105,-83.5957 198.516,-86.4075"/>
</g>
<!-- Node8&#45;&gt;Node5 -->
<g id="edge8" class="edge"><title>Node8&#45;&gt;Node5</title>
<path fill="none" stroke="midnightblue" d="M438.576,-112.324C423.46,-103.822 400.185,-90.7288 382.529,-80.7975"/>
<polygon fill="midnightblue" stroke="midnightblue" points="383.817,-77.5066 373.386,-75.6545 380.386,-83.6077 383.817,-77.5066"/>
</g>
<!-- Node9 -->
<g id="node9" class="node"><title>Node9</title>
<g id="a_node9"><a xlink:href="_object_types_8h.html" target="_top" xlink:title="Framework/ObjectTypes.h">
<polygon fill="white" stroke="black" points="427.5,-56.5 427.5,-75.5 558.5,-75.5 558.5,-56.5 427.5,-56.5"/>
<text text-anchor="middle" x="493" y="-63.5" font-family="Helvetica,sans-Serif" font-size="10.00">Framework/ObjectTypes.h</text>
</a>
</g>
</g>
<!-- Node8&#45;&gt;Node9 -->
<g id="edge9" class="edge"><title>Node8&#45;&gt;Node9</title>
<path fill="none" stroke="midnightblue" d="M460.44,-112.083C465.949,-104.455 474.031,-93.2645 480.765,-83.9408"/>
<polygon fill="midnightblue" stroke="midnightblue" points="483.662,-85.9071 486.68,-75.7511 477.987,-81.8087 483.662,-85.9071"/>
</g>
<!-- Node10&#45;&gt;Node2 -->
<g id="edge11" class="edge"><title>Node10&#45;&gt;Node2</title>
<path fill="none" stroke="midnightblue" d="M93.396,-112.324C83.5438,-104.263 68.6491,-92.0765 56.7849,-82.3695"/>
<polygon fill="midnightblue" stroke="midnightblue" points="58.7529,-79.4575 48.797,-75.8339 54.3202,-84.8752 58.7529,-79.4575"/>
</g>
<!-- Node11&#45;&gt;Node12 -->
<g id="edge13" class="edge"><title>Node11&#45;&gt;Node12</title>
<path fill="none" stroke="midnightblue" d="M233.22,-112.083C228.328,-104.534 221.173,-93.4948 215.167,-84.2298"/>
<polygon fill="midnightblue" stroke="midnightblue" points="218.048,-82.239 209.672,-75.7511 212.174,-86.0463 218.048,-82.239"/>
</g>
<!-- Node13&#45;&gt;Node8 -->
<g id="edge17" class="edge"><title>Node13&#45;&gt;Node8</title>
<path fill="none" stroke="midnightblue" d="M311.163,-224.368C337.647,-205.573 400.781,-160.768 433.521,-137.533"/>
<polygon fill="midnightblue" stroke="midnightblue" points="435.764,-140.233 441.894,-131.591 431.713,-134.525 435.764,-140.233"/>
</g>
<!-- Node13&#45;&gt;Node5 -->
<g id="edge18" class="edge"><title>Node13&#45;&gt;Node5</title>
<path fill="none" stroke="midnightblue" d="M302.172,-224.075C311.499,-197.832 338.969,-120.545 351.561,-85.1165"/>
<polygon fill="midnightblue" stroke="midnightblue" points="354.904,-86.1628 354.955,-75.5681 348.308,-83.8185 354.904,-86.1628"/>
</g>
<!-- Node13&#45;&gt;Node7 -->
<g id="edge19" class="edge"><title>Node13&#45;&gt;Node7</title>
<path fill="none" stroke="midnightblue" d="M285.022,-224.324C271.45,-215.9 250.62,-202.971 234.675,-193.074"/>
<polygon fill="midnightblue" stroke="midnightblue" points="236.286,-189.954 225.943,-187.655 232.594,-195.902 236.286,-189.954"/>
</g>
<!-- Node13&#45;&gt;Node10 -->
<g id="edge20" class="edge"><title>Node13&#45;&gt;Node10</title>
<path fill="none" stroke="midnightblue" d="M242.159,-226.66C210.68,-220.804 172.312,-209.56 144,-188 128.222,-175.985 117.221,-155.8 110.804,-141.107"/>
<polygon fill="midnightblue" stroke="midnightblue" points="113.939,-139.525 106.939,-131.573 107.452,-142.155 113.939,-139.525"/>
</g>
<!-- Node13&#45;&gt;Node11 -->
<g id="edge21" class="edge"><title>Node13&#45;&gt;Node11</title>
<path fill="none" stroke="midnightblue" d="M297.514,-224.112C295.076,-211.132 289.423,-186.521 279,-168 273.002,-157.342 264.132,-147.027 256.267,-138.967"/>
<polygon fill="midnightblue" stroke="midnightblue" points="258.474,-136.229 248.881,-131.73 253.574,-141.229 258.474,-136.229"/>
</g>
<!-- Node14&#45;&gt;Node8 -->
<g id="edge23" class="edge"><title>Node14&#45;&gt;Node8</title>
<path fill="none" stroke="midnightblue" d="M465.058,-224.368C463.122,-206.617 458.655,-165.666 456.029,-141.597"/>
<polygon fill="midnightblue" stroke="midnightblue" points="459.501,-141.153 454.937,-131.591 452.542,-141.912 459.501,-141.153"/>
</g>
<!-- Node16 -->
<g id="node16" class="node"><title>Node16</title>
<polygon fill="white" stroke="#bfbfbf" points="519.5,-280.5 519.5,-299.5 570.5,-299.5 570.5,-280.5 519.5,-280.5"/>
<text text-anchor="middle" x="545" y="-287.5" font-family="Helvetica,sans-Serif" font-size="10.00">stddef.h</text>
</g>
<!-- Node15&#45;&gt;Node16 -->
<g id="edge25" class="edge"><title>Node15&#45;&gt;Node16</title>
<path fill="none" stroke="midnightblue" d="M571.716,-336.083C567.289,-328.613 560.837,-317.724 555.382,-308.52"/>
<polygon fill="midnightblue" stroke="midnightblue" points="558.295,-306.57 550.186,-299.751 552.273,-310.138 558.295,-306.57"/>
</g>
<!-- Node15&#45;&gt;Node6 -->
<g id="edge26" class="edge"><title>Node15&#45;&gt;Node6</title>
<path fill="none" stroke="midnightblue" d="M579.967,-336.279C585.972,-317.824 599,-273.367 599,-235 599,-235 599,-235 599,-121 599,-88.8 589.317,-79.2122 567,-56 553.325,-41.7764 534.159,-30.9795 517.689,-23.5316"/>
<polygon fill="midnightblue" stroke="midnightblue" points="518.936,-20.2579 508.366,-19.5328 516.177,-26.6911 518.936,-20.2579"/>
</g>
<!-- Node18 -->
<g id="node18" class="node"><title>Node18</title>
<g id="a_node18"><a xlink:href="_config_manager_8h.html" target="_top" xlink:title="ConfigManager.h">
<polygon fill="white" stroke="black" points="191.5,-280.5 191.5,-299.5 280.5,-299.5 280.5,-280.5 191.5,-280.5"/>
<text text-anchor="middle" x="236" y="-287.5" font-family="Helvetica,sans-Serif" font-size="10.00">ConfigManager.h</text>
</a>
</g>
</g>
<!-- Node17&#45;&gt;Node18 -->
<g id="edge28" class="edge"><title>Node17&#45;&gt;Node18</title>
<path fill="none" stroke="midnightblue" d="M266.055,-336.083C261.023,-328.534 253.663,-317.495 247.487,-308.23"/>
<polygon fill="midnightblue" stroke="midnightblue" points="250.293,-306.13 241.834,-299.751 244.469,-310.013 250.293,-306.13"/>
</g>
<!-- Node18&#45;&gt;Node2 -->
<g id="edge29" class="edge"><title>Node18&#45;&gt;Node2</title>
<path fill="none" stroke="midnightblue" d="M221.458,-280.388C187.386,-259.454 101.889,-202.407 57,-132 48.0131,-117.904 43.1478,-99.4147 40.5982,-85.7606"/>
<polygon fill="midnightblue" stroke="midnightblue" points="44.0118,-84.9446 38.9614,-75.631 37.1014,-86.0613 44.0118,-84.9446"/>
</g>
<!-- Node18&#45;&gt;Node1 -->
<g id="edge30" class="edge"><title>Node18&#45;&gt;Node1</title>
<path fill="none" stroke="midnightblue" d="M221.136,-299.515C201.153,-312.032 169.889,-336.071 186,-356 206.205,-380.993 294.425,-392.731 349.896,-397.733"/>
<polygon fill="midnightblue" stroke="midnightblue" points="349.923,-401.248 360.186,-398.618 350.523,-394.274 349.923,-401.248"/>
</g>
<!-- Node18&#45;&gt;Node13 -->
<g id="edge31" class="edge"><title>Node18&#45;&gt;Node13</title>
<path fill="none" stroke="midnightblue" d="M246.122,-280.324C255.526,-272.263 269.744,-260.077 281.069,-250.369"/>
<polygon fill="midnightblue" stroke="midnightblue" points="283.379,-252.999 288.694,-243.834 278.823,-247.684 283.379,-252.999"/>
</g>
<!-- Node18&#45;&gt;Node7 -->
<g id="edge32" class="edge"><title>Node18&#45;&gt;Node7</title>
<path fill="none" stroke="midnightblue" d="M234.117,-280.368C230.244,-262.617 221.309,-221.666 216.058,-197.597"/>
<polygon fill="midnightblue" stroke="midnightblue" points="219.426,-196.615 213.874,-187.591 212.587,-198.108 219.426,-196.615"/>
</g>
<!-- Node18&#45;&gt;Node14 -->
<g id="edge33" class="edge"><title>Node18&#45;&gt;Node14</title>
<path fill="none" stroke="midnightblue" d="M272.444,-280.444C312.399,-271.063 376.587,-255.993 419.985,-245.804"/>
<polygon fill="midnightblue" stroke="midnightblue" points="420.791,-249.21 429.726,-243.516 419.191,-242.395 420.791,-249.21"/>
</g>
</g>
</svg>
        <g id="navigator" transform="translate(0 0)" fill="#404254">
                <rect fill="#f2f5e9" fill-opacity="0.5" stroke="#606060" stroke-width=".5" x="0" y="0" width="60" height="60"/>
                <use id="zoomplus" xlink:href="#zoomPlus" x="17" y="9" onmousedown="handleZoom(evt,'in')"/>
                <use id="zoomminus" xlink:href="#zoomMin" x="42" y="9" onmousedown="handleZoom(evt,'out')"/>
                <use id="reset" xlink:href="#resetDef" x="30" y="36" onmousedown="handleReset()"/>
                <g id="arrowUp" xlink:href="#dirArrow" transform="translate(30 24)" onmousedown="handlePan(0,-1)">
                  <use xlink:href="#rim" fill="#404040">
                        <set attributeName="fill" to="#808080" begin="arrowUp.mouseover" end="arrowUp.mouseout"/>
                  </use>
                  <path fill="none" stroke="white" stroke-width="1.5" d="M0,-3.0v7 M-2.5,-0.5L0,-3.0L2.5,-0.5"/>
                </g>
                <g id="arrowRight" xlink:href="#dirArrow" transform="rotate(90) translate(36 -43)" onmousedown="handlePan(1,0)">
                  <use xlink:href="#rim" fill="#404040">
                        <set attributeName="fill" to="#808080" begin="arrowRight.mouseover" end="arrowRight.mouseout"/>
                  </use>
                  <path fill="none" stroke="white" stroke-width="1.5" d="M0,-3.0v7 M-2.5,-0.5L0,-3.0L2.5,-0.5"/>
                </g>
                <g id="arrowDown" xlink:href="#dirArrow" transform="rotate(180) translate(-30 -48)" onmousedown="handlePan(0,1)">
                  <use xlink:href="#rim" fill="#404040">
                        <set attributeName="fill" to="#808080" begin="arrowDown.mouseover" end="arrowDown.mouseout"/>
                  </use>
                  <path fill="none" stroke="white" stroke-width="1.5" d="M0,-3.0v7 M-2.5,-0.5L0,-3.0L2.5,-0.5"/>
                </g>
                <g id="arrowLeft" xlink:href="#dirArrow" transform="rotate(270) translate(-36 17)" onmousedown="handlePan(-1,0)">
                  <use xlink:href="#rim" fill="#404040">
                        <set attributeName="fill" to="#808080" begin="arrowLeft.mouseover" end="arrowLeft.mouseout"/>
                  </use>
                  <path fill="none" stroke="white" stroke-width="1.5" d="M0,-3.0v7 M-2.5,-0.5L0,-3.0L2.5,-0.5"/>
                </g>
        </g>
        <svg viewBox="0 0 15 15" width="100%" height="30px" preserveAspectRatio="xMaxYMin meet">
         <g id="arrow_out" transform="scale(0.3 0.3)">
          <a xlink:href="_aquaduino_8h__incl_org.svg" target="_base">
           <rect id="button" ry="5" rx="5" y="6" x="6" height="38" width="38"
                fill="#f2f5e9" fill-opacity="0.5" stroke="#606060" stroke-width="1.0"/>
           <path id="arrow"
             d="M 11.500037,31.436501 C 11.940474,20.09759 22.043105,11.32322 32.158766,21.979434 L 37.068811,17.246167 C 37.068811,17.246167 37.088388,32 37.088388,32 L 22.160133,31.978069 C 22.160133,31.978069 26.997745,27.140456 26.997745,27.140456 C 18.528582,18.264221 13.291696,25.230495 11.500037,31.436501 z"
             style="fill:#404040;"/>
          </a>
         </g>
        </svg>
</svg>
