<?xml version="1.0" encoding="UTF-8" standalone="no"?>
<!DOCTYPE svg PUBLIC "-//W3C//DTD SVG 1.1//EN"
 "http://www.w3.org/Graphics/SVG/1.1/DTD/svg11.dtd">
<!-- Generated by graphviz version 2.30.1 (20130214.1330)
 -->
<!-- Title: controllerDispatchCommand Pages: 1 -->
<svg width="838pt" height="800pt"
 viewBox="0.00 0.00 838.00 800.00" xmlns="http://www.w3.org/2000/svg" xmlns:xlink="http://www.w3.org/1999/xlink">
<g id="graph0" class="graph" transform="scale(1 1) rotate(0) translate(4 796)">
<title>controllerDispatchCommand</title>
<polygon fill="white" stroke="white" points="-4,5 -4,-796 835,-796 835,5 -4,5"/>
<!-- Node1 -->
<g id="node1" class="node"><title>Node1</title>
<polygon fill="#bfbfbf" stroke="black" points="0.5,-152.5 0.5,-171.5 139.5,-171.5 139.5,-152.5 0.5,-152.5"/>
<text text-anchor="middle" x="70" y="-159.5" font-family="Helvetica,sans-Serif" font-size="10.00">controllerDispatchCommand</text>
</g>
<!-- Node2 -->
<g id="node2" class="node"><title>Node2</title>
<g id="a_node2"><a xlink:href="configweb_8cpp.html#a57a05a1aa70f5b076936a72ec80f9db3" target="_top" xlink:title="configCmd">
<polygon fill="white" stroke="black" points="217,-468.5 217,-487.5 279,-487.5 279,-468.5 217,-468.5"/>
<text text-anchor="middle" x="248" y="-475.5" font-family="Helvetica,sans-Serif" font-size="10.00">configCmd</text>
</a>
</g>
</g>
<!-- Node1&#45;&gt;Node2 -->
<g id="edge1" class="edge"><title>Node1&#45;&gt;Node2</title>
<path fill="none" stroke="midnightblue" d="M76.4603,-171.804C101.252,-216.316 203.436,-399.783 236.574,-459.28"/>
<polygon fill="midnightblue" stroke="midnightblue" points="233.68,-461.277 241.603,-468.311 239.795,-457.871 233.68,-461.277"/>
</g>
<!-- Node33 -->
<g id="node33" class="node"><title>Node33</title>
<g id="a_node33"><a xlink:href="class_aquaduino.html#a01abc2912433c4af75419077cb72251e" target="_top" xlink:title="Aquaduino::resetController\lIterator">
<polygon fill="white" stroke="black" points="182.5,-191 182.5,-221 313.5,-221 313.5,-191 182.5,-191"/>
<text text-anchor="start" x="190.5" y="-209" font-family="Helvetica,sans-Serif" font-size="10.00">Aquaduino::resetController</text>
<text text-anchor="middle" x="248" y="-198" font-family="Helvetica,sans-Serif" font-size="10.00">Iterator</text>
</a>
</g>
</g>
<!-- Node1&#45;&gt;Node33 -->
<g id="edge33" class="edge"><title>Node1&#45;&gt;Node33</title>
<path fill="none" stroke="midnightblue" d="M109.189,-171.547C129.005,-176.501 153.845,-182.711 176.958,-188.49"/>
<polygon fill="midnightblue" stroke="midnightblue" points="176.188,-191.905 186.739,-190.935 177.886,-185.114 176.188,-191.905"/>
</g>
<!-- Node34 -->
<g id="node34" class="node"><title>Node34</title>
<g id="a_node34"><a xlink:href="class_aquaduino.html#ab2e484eadc69b75889abd55143195f07" target="_top" xlink:title="Aquaduino::getNextController">
<polygon fill="white" stroke="black" points="176.5,-114.5 176.5,-133.5 319.5,-133.5 319.5,-114.5 176.5,-114.5"/>
<text text-anchor="middle" x="248" y="-121.5" font-family="Helvetica,sans-Serif" font-size="10.00">Aquaduino::getNextController</text>
</a>
</g>
</g>
<!-- Node1&#45;&gt;Node34 -->
<g id="edge35" class="edge"><title>Node1&#45;&gt;Node34</title>
<path fill="none" stroke="midnightblue" d="M115.412,-152.411C138.951,-147.329 168.057,-141.045 192.905,-135.68"/>
<polygon fill="midnightblue" stroke="midnightblue" points="193.871,-139.052 202.907,-133.52 192.394,-132.209 193.871,-139.052"/>
</g>
<!-- Node35 -->
<g id="node35" class="node"><title>Node35</title>
<g id="a_node35"><a xlink:href="class_object.html#a67bb9bfe6e021c997565b0f5871cf2ad" target="_top" xlink:title="Object::getURL">
<polygon fill="white" stroke="black" points="206.5,-76.5 206.5,-95.5 289.5,-95.5 289.5,-76.5 206.5,-76.5"/>
<text text-anchor="middle" x="248" y="-83.5" font-family="Helvetica,sans-Serif" font-size="10.00">Object::getURL</text>
</a>
</g>
</g>
<!-- Node1&#45;&gt;Node35 -->
<g id="edge37" class="edge"><title>Node1&#45;&gt;Node35</title>
<path fill="none" stroke="midnightblue" d="M86.0988,-152.316C106.016,-139.896 142.476,-118.367 176,-105 182.45,-102.428 189.367,-100.091 196.26,-98.005"/>
<polygon fill="midnightblue" stroke="midnightblue" points="197.637,-101.251 206.285,-95.1307 195.708,-94.5224 197.637,-101.251"/>
</g>
<!-- Node36 -->
<g id="node36" class="node"><title>Node36</title>
<g id="a_node36"><a xlink:href="class_controller.html#ad8a96958b672fa16ca021809b18585de" target="_top" xlink:title="Controller::showWebinterface">
<polygon fill="white" stroke="black" points="176.5,-38.5 176.5,-57.5 319.5,-57.5 319.5,-38.5 176.5,-38.5"/>
<text text-anchor="middle" x="248" y="-45.5" font-family="Helvetica,sans-Serif" font-size="10.00">Controller::showWebinterface</text>
</a>
</g>
</g>
<!-- Node1&#45;&gt;Node36 -->
<g id="edge38" class="edge"><title>Node1&#45;&gt;Node36</title>
<path fill="none" stroke="midnightblue" d="M78.8722,-152.292C95.0122,-133.042 133.896,-89.9173 176,-67 180.192,-64.7181 184.675,-62.6974 189.275,-60.9103"/>
<polygon fill="midnightblue" stroke="midnightblue" points="190.545,-64.1739 198.823,-57.5612 188.228,-57.5685 190.545,-64.1739"/>
</g>
<!-- Node17 -->
<g id="node17" class="node"><title>Node17</title>
<g id="a_node17"><a xlink:href="class_aquaduino.html#a16e05153698a4aed10c0ebf9f472abb5" target="_top" xlink:title="Aquaduino::writeConfig">
<polygon fill="white" stroke="black" points="373,-278.5 373,-297.5 489,-297.5 489,-278.5 373,-278.5"/>
<text text-anchor="middle" x="431" y="-285.5" font-family="Helvetica,sans-Serif" font-size="10.00">Aquaduino::writeConfig</text>
</a>
</g>
</g>
<!-- Node1&#45;&gt;Node17 -->
<g id="edge39" class="edge"><title>Node1&#45;&gt;Node17</title>
<path fill="none" stroke="midnightblue" d="M78.4407,-171.674C94.0872,-191.219 132.557,-235.232 176,-255 235.194,-281.935 309.653,-288.865 362.615,-289.856"/>
<polygon fill="midnightblue" stroke="midnightblue" points="362.869,-293.36 372.911,-289.98 362.953,-286.36 362.869,-293.36"/>
</g>
<!-- Node19 -->
<g id="node19" class="node"><title>Node19</title>
<g id="a_node19"><a xlink:href="class_aquaduino.html#ad399caf8b1461f7cf082f7816b685303" target="_top" xlink:title="Aquaduino::resetActuator\lIterator">
<polygon fill="white" stroke="black" points="367.5,-229 367.5,-259 494.5,-259 494.5,-229 367.5,-229"/>
<text text-anchor="start" x="375.5" y="-247" font-family="Helvetica,sans-Serif" font-size="10.00">Aquaduino::resetActuator</text>
<text text-anchor="middle" x="431" y="-236" font-family="Helvetica,sans-Serif" font-size="10.00">Iterator</text>
</a>
</g>
</g>
<!-- Node1&#45;&gt;Node19 -->
<g id="edge40" class="edge"><title>Node1&#45;&gt;Node19</title>
<path fill="none" stroke="midnightblue" d="M81.6432,-171.666C99.5661,-187.262 137.591,-217.489 176,-230 234.855,-249.17 305.4,-251.546 357.193,-249.771"/>
<polygon fill="midnightblue" stroke="midnightblue" points="357.441,-253.264 367.292,-249.364 357.16,-246.269 357.441,-253.264"/>
</g>
<!-- Node21 -->
<g id="node21" class="node"><title>Node21</title>
<g id="a_node21"><a xlink:href="class_aquaduino.html#ab0fcce5c8f5895244e6f92c8d775fae7" target="_top" xlink:title="Aquaduino::getNextActuator">
<polygon fill="white" stroke="black" points="361.5,-152.5 361.5,-171.5 500.5,-171.5 500.5,-152.5 361.5,-152.5"/>
<text text-anchor="middle" x="431" y="-159.5" font-family="Helvetica,sans-Serif" font-size="10.00">Aquaduino::getNextActuator</text>
</a>
</g>
</g>
<!-- Node1&#45;&gt;Node21 -->
<g id="edge41" class="edge"><title>Node1&#45;&gt;Node21</title>
<path fill="none" stroke="midnightblue" d="M139.794,-162C200.159,-162 287.93,-162 351.122,-162"/>
<polygon fill="midnightblue" stroke="midnightblue" points="351.439,-165.5 361.439,-162 351.439,-158.5 351.439,-165.5"/>
</g>
<!-- Node37 -->
<g id="node37" class="node"><title>Node37</title>
<g id="a_node37"><a xlink:href="class_actuator.html#aace95bf36eb1268fa3f533700f309936" target="_top" xlink:title="Actuator::showWebinterface">
<polygon fill="white" stroke="black" points="178.5,-0.5 178.5,-19.5 317.5,-19.5 317.5,-0.5 178.5,-0.5"/>
<text text-anchor="middle" x="248" y="-7.5" font-family="Helvetica,sans-Serif" font-size="10.00">Actuator::showWebinterface</text>
</a>
</g>
</g>
<!-- Node1&#45;&gt;Node37 -->
<g id="edge42" class="edge"><title>Node1&#45;&gt;Node37</title>
<path fill="none" stroke="midnightblue" d="M75.8429,-152.215C88.5955,-127.495 125.62,-62.1509 176,-29 179.115,-26.9506 182.443,-25.1214 185.896,-23.489"/>
<polygon fill="midnightblue" stroke="midnightblue" points="187.364,-26.6693 195.266,-19.6113 184.688,-20.2014 187.364,-26.6693"/>
</g>
<!-- Node3 -->
<g id="node3" class="node"><title>Node3</title>
<g id="a_node3"><a xlink:href="class_aquaduino.html#a7d9431d1a546c566071cb7e14c566146" target="_top" xlink:title="Aquaduino::setMAC">
<polygon fill="white" stroke="black" points="379,-696.5 379,-715.5 483,-715.5 483,-696.5 379,-696.5"/>
<text text-anchor="middle" x="431" y="-703.5" font-family="Helvetica,sans-Serif" font-size="10.00">Aquaduino::setMAC</text>
</a>
</g>
</g>
<!-- Node2&#45;&gt;Node3 -->
<g id="edge2" class="edge"><title>Node2&#45;&gt;Node3</title>
<path fill="none" stroke="midnightblue" d="M250.984,-487.686C258.335,-521.027 287.231,-632.014 356,-687 360.04,-690.23 364.567,-692.918 369.338,-695.152"/>
<polygon fill="midnightblue" stroke="midnightblue" points="368.166,-698.453 378.751,-698.915 370.764,-691.953 368.166,-698.453"/>
</g>
<!-- Node4 -->
<g id="node4" class="node"><title>Node4</title>
<g id="a_node4"><a xlink:href="class_aquaduino.html#a9c4f7492a7c094b2dac8f55a6cafd374" target="_top" xlink:title="Aquaduino::setIP">
<polygon fill="white" stroke="black" points="385.5,-658.5 385.5,-677.5 476.5,-677.5 476.5,-658.5 385.5,-658.5"/>
<text text-anchor="middle" x="431" y="-665.5" font-family="Helvetica,sans-Serif" font-size="10.00">Aquaduino::setIP</text>
</a>
</g>
</g>
<!-- Node2&#45;&gt;Node4 -->
<g id="edge3" class="edge"><title>Node2&#45;&gt;Node4</title>
<path fill="none" stroke="midnightblue" d="M252.085,-487.534C262.021,-516.663 296.075,-605.17 356,-649 361.888,-653.307 368.662,-656.64 375.669,-659.219"/>
<polygon fill="midnightblue" stroke="midnightblue" points="374.717,-662.589 385.308,-662.289 376.842,-655.919 374.717,-662.589"/>
</g>
<!-- Node5 -->
<g id="node5" class="node"><title>Node5</title>
<g id="a_node5"><a xlink:href="class_aquaduino.html#afd471ba4a4700ca42163ff612793d804" target="_top" xlink:title="Aquaduino::setNetmask">
<polygon fill="white" stroke="black" points="370.5,-620.5 370.5,-639.5 491.5,-639.5 491.5,-620.5 370.5,-620.5"/>
<text text-anchor="middle" x="431" y="-627.5" font-family="Helvetica,sans-Serif" font-size="10.00">Aquaduino::setNetmask</text>
</a>
</g>
</g>
<!-- Node2&#45;&gt;Node5 -->
<g id="edge4" class="edge"><title>Node2&#45;&gt;Node5</title>
<path fill="none" stroke="midnightblue" d="M253.967,-487.815C267.038,-512.604 304.929,-578.098 356,-611 359.293,-613.121 362.811,-615.006 366.458,-616.681"/>
<polygon fill="midnightblue" stroke="midnightblue" points="365.152,-619.928 375.735,-620.425 367.772,-613.437 365.152,-619.928"/>
</g>
<!-- Node6 -->
<g id="node6" class="node"><title>Node6</title>
<g id="a_node6"><a xlink:href="class_aquaduino.html#a0cabe5da7d3b893f9b7064cf9f430188" target="_top" xlink:title="Aquaduino::setGateway">
<polygon fill="white" stroke="black" points="371,-582.5 371,-601.5 491,-601.5 491,-582.5 371,-582.5"/>
<text text-anchor="middle" x="431" y="-589.5" font-family="Helvetica,sans-Serif" font-size="10.00">Aquaduino::setGateway</text>
</a>
</g>
</g>
<!-- Node2&#45;&gt;Node6 -->
<g id="edge5" class="edge"><title>Node2&#45;&gt;Node6</title>
<path fill="none" stroke="midnightblue" d="M257.045,-487.737C273.534,-507.042 313.229,-550.258 356,-573 360.311,-575.292 364.913,-577.318 369.632,-579.107"/>
<polygon fill="midnightblue" stroke="midnightblue" points="368.834,-582.533 379.429,-582.455 371.098,-575.909 368.834,-582.533"/>
</g>
<!-- Node7 -->
<g id="node7" class="node"><title>Node7</title>
<g id="a_node7"><a xlink:href="class_aquaduino.html#a9e777de75e2e25dc172ee89d93e6e1ff" target="_top" xlink:title="Aquaduino::setDNS">
<polygon fill="white" stroke="black" points="380,-544.5 380,-563.5 482,-563.5 482,-544.5 380,-544.5"/>
<text text-anchor="middle" x="431" y="-551.5" font-family="Helvetica,sans-Serif" font-size="10.00">Aquaduino::setDNS</text>
</a>
</g>
</g>
<!-- Node2&#45;&gt;Node7 -->
<g id="edge6" class="edge"><title>Node2&#45;&gt;Node7</title>
<path fill="none" stroke="midnightblue" d="M264.045,-487.504C284.271,-499.926 321.664,-521.667 356,-535 362.314,-537.452 369.053,-539.681 375.796,-541.68"/>
<polygon fill="midnightblue" stroke="midnightblue" points="375.057,-545.107 385.631,-544.442 376.949,-538.368 375.057,-545.107"/>
</g>
<!-- Node8 -->
<g id="node8" class="node"><title>Node8</title>
<g id="a_node8"><a xlink:href="class_aquaduino.html#a96162253d8d5b3ebbcadc25594804bd8" target="_top" xlink:title="Aquaduino::setNTP">
<polygon fill="white" stroke="black" points="380.5,-506.5 380.5,-525.5 481.5,-525.5 481.5,-506.5 380.5,-506.5"/>
<text text-anchor="middle" x="431" y="-513.5" font-family="Helvetica,sans-Serif" font-size="10.00">Aquaduino::setNTP</text>
</a>
</g>
</g>
<!-- Node2&#45;&gt;Node8 -->
<g id="edge7" class="edge"><title>Node2&#45;&gt;Node8</title>
<path fill="none" stroke="midnightblue" d="M279.295,-484.36C305.267,-489.813 343.345,-497.807 374.727,-504.396"/>
<polygon fill="midnightblue" stroke="midnightblue" points="374.151,-507.851 384.656,-506.48 375.589,-501 374.151,-507.851"/>
</g>
<!-- Node9 -->
<g id="node9" class="node"><title>Node9</title>
<g id="a_node9"><a xlink:href="class_aquaduino.html#ac8fe819d11689b731f388bf7d18a9ab3" target="_top" xlink:title="Aquaduino::enableDHCP">
<polygon fill="white" stroke="black" points="369,-468.5 369,-487.5 493,-487.5 493,-468.5 369,-468.5"/>
<text text-anchor="middle" x="431" y="-475.5" font-family="Helvetica,sans-Serif" font-size="10.00">Aquaduino::enableDHCP</text>
</a>
</g>
</g>
<!-- Node2&#45;&gt;Node9 -->
<g id="edge8" class="edge"><title>Node2&#45;&gt;Node9</title>
<path fill="none" stroke="midnightblue" d="M279.295,-478C300.986,-478 331.121,-478 358.746,-478"/>
<polygon fill="midnightblue" stroke="midnightblue" points="358.791,-481.5 368.791,-478 358.791,-474.5 358.791,-481.5"/>
</g>
<!-- Node10 -->
<g id="node10" class="node"><title>Node10</title>
<g id="a_node10"><a xlink:href="class_aquaduino.html#abb5a0eb820deffbe6e0eef23953957b9" target="_top" xlink:title="Aquaduino::disableDHCP">
<polygon fill="white" stroke="black" points="368,-430.5 368,-449.5 494,-449.5 494,-430.5 368,-430.5"/>
<text text-anchor="middle" x="431" y="-437.5" font-family="Helvetica,sans-Serif" font-size="10.00">Aquaduino::disableDHCP</text>
</a>
</g>
</g>
<!-- Node2&#45;&gt;Node10 -->
<g id="edge9" class="edge"><title>Node2&#45;&gt;Node10</title>
<path fill="none" stroke="midnightblue" d="M279.295,-471.64C305.267,-466.187 343.345,-458.193 374.727,-451.604"/>
<polygon fill="midnightblue" stroke="midnightblue" points="375.589,-455 384.656,-449.52 374.151,-448.149 375.589,-455"/>
</g>
<!-- Node11 -->
<g id="node11" class="node"><title>Node11</title>
<g id="a_node11"><a xlink:href="class_aquaduino.html#a2636dfe3b0c322dbbf46b70ab3929930" target="_top" xlink:title="Aquaduino::enableNTP">
<polygon fill="white" stroke="black" points="373,-392.5 373,-411.5 489,-411.5 489,-392.5 373,-392.5"/>
<text text-anchor="middle" x="431" y="-399.5" font-family="Helvetica,sans-Serif" font-size="10.00">Aquaduino::enableNTP</text>
</a>
</g>
</g>
<!-- Node2&#45;&gt;Node11 -->
<g id="edge10" class="edge"><title>Node2&#45;&gt;Node11</title>
<path fill="none" stroke="midnightblue" d="M264.045,-468.496C284.271,-456.074 321.664,-434.333 356,-421 362.314,-418.548 369.053,-416.319 375.796,-414.32"/>
<polygon fill="midnightblue" stroke="midnightblue" points="376.949,-417.632 385.631,-411.558 375.057,-410.893 376.949,-417.632"/>
</g>
<!-- Node14 -->
<g id="node14" class="node"><title>Node14</title>
<g id="a_node14"><a xlink:href="class_aquaduino.html#a8af57b9214f2cde4e710915d92f21fa9" target="_top" xlink:title="Aquaduino::disableNTP">
<polygon fill="white" stroke="black" points="372,-316.5 372,-335.5 490,-335.5 490,-316.5 372,-316.5"/>
<text text-anchor="middle" x="431" y="-323.5" font-family="Helvetica,sans-Serif" font-size="10.00">Aquaduino::disableNTP</text>
</a>
</g>
</g>
<!-- Node2&#45;&gt;Node14 -->
<g id="edge13" class="edge"><title>Node2&#45;&gt;Node14</title>
<path fill="none" stroke="midnightblue" d="M253.967,-468.185C267.038,-443.396 304.929,-377.902 356,-345 359.293,-342.879 362.811,-340.994 366.458,-339.319"/>
<polygon fill="midnightblue" stroke="midnightblue" points="367.772,-342.563 375.735,-335.575 365.152,-336.072 367.772,-342.563"/>
</g>
<!-- Node15 -->
<g id="node15" class="node"><title>Node15</title>
<g id="a_node15"><a xlink:href="class_aquaduino.html#ad910741d704dd02ea0f66b20cfab89a1" target="_top" xlink:title="Aquaduino::setTime">
<polygon fill="white" stroke="black" points="379.5,-772.5 379.5,-791.5 482.5,-791.5 482.5,-772.5 379.5,-772.5"/>
<text text-anchor="middle" x="431" y="-779.5" font-family="Helvetica,sans-Serif" font-size="10.00">Aquaduino::setTime</text>
</a>
</g>
</g>
<!-- Node2&#45;&gt;Node15 -->
<g id="edge14" class="edge"><title>Node2&#45;&gt;Node15</title>
<path fill="none" stroke="midnightblue" d="M249.54,-487.599C252.341,-527.858 268.685,-684.626 356,-763 360.133,-766.71 364.895,-769.715 369.967,-772.146"/>
<polygon fill="midnightblue" stroke="midnightblue" points="368.784,-775.442 379.367,-775.93 371.398,-768.948 368.784,-775.442"/>
</g>
<!-- Node16 -->
<g id="node16" class="node"><title>Node16</title>
<g id="a_node16"><a xlink:href="class_aquaduino.html#a48788b0397889f5dbe04848b29a0ed57" target="_top" xlink:title="Aquaduino::setNtpSyncInterval">
<polygon fill="white" stroke="black" points="356.5,-734.5 356.5,-753.5 505.5,-753.5 505.5,-734.5 356.5,-734.5"/>
<text text-anchor="middle" x="431" y="-741.5" font-family="Helvetica,sans-Serif" font-size="10.00">Aquaduino::setNtpSyncInterval</text>
</a>
</g>
</g>
<!-- Node2&#45;&gt;Node16 -->
<g id="edge15" class="edge"><title>Node2&#45;&gt;Node16</title>
<path fill="none" stroke="midnightblue" d="M250.147,-487.57C255.09,-524.42 277.986,-658.396 356,-725 357.986,-726.696 360.104,-728.243 362.323,-729.654"/>
<polygon fill="midnightblue" stroke="midnightblue" points="360.838,-732.829 371.307,-734.453 364.136,-726.655 360.838,-732.829"/>
</g>
<!-- Node2&#45;&gt;Node17 -->
<g id="edge16" class="edge"><title>Node2&#45;&gt;Node17</title>
<path fill="none" stroke="midnightblue" d="M252.085,-468.466C262.021,-439.337 296.075,-350.83 356,-307 358.676,-305.042 361.536,-303.286 364.517,-301.71"/>
<polygon fill="midnightblue" stroke="midnightblue" points="366.111,-304.83 373.764,-297.503 363.213,-298.458 366.111,-304.83"/>
</g>
<!-- Node2&#45;&gt;Node19 -->
<g id="edge18" class="edge"><title>Node2&#45;&gt;Node19</title>
<path fill="none" stroke="midnightblue" d="M251.137,-468.499C258.989,-435.761 289.325,-326.508 356,-269 357.977,-267.295 360.075,-265.705 362.264,-264.223"/>
<polygon fill="midnightblue" stroke="midnightblue" points="364.26,-267.109 371.102,-259.021 360.709,-261.077 364.26,-267.109"/>
</g>
<!-- Node2&#45;&gt;Node21 -->
<g id="edge20" class="edge"><title>Node2&#45;&gt;Node21</title>
<path fill="none" stroke="midnightblue" d="M251.113,-468.142C259.275,-431.823 291.552,-303.233 356,-219 369.098,-201.882 388.542,-187.174 404.213,-176.988"/>
<polygon fill="midnightblue" stroke="midnightblue" points="406.311,-179.804 412.927,-171.529 402.594,-173.872 406.311,-179.804"/>
</g>
<!-- Node23 -->
<g id="node23" class="node"><title>Node23</title>
<g id="a_node23"><a xlink:href="configweb_8cpp.html#af63922b5bba9bcc24b202484ec739456" target="_top" xlink:title="printTopLevelTemplate">
<polygon fill="white" stroke="black" points="374.5,-354.5 374.5,-373.5 487.5,-373.5 487.5,-354.5 374.5,-354.5"/>
<text text-anchor="middle" x="431" y="-361.5" font-family="Helvetica,sans-Serif" font-size="10.00">printTopLevelTemplate</text>
</a>
</g>
</g>
<!-- Node2&#45;&gt;Node23 -->
<g id="edge22" class="edge"><title>Node2&#45;&gt;Node23</title>
<path fill="none" stroke="midnightblue" d="M257.045,-468.263C273.534,-448.958 313.229,-405.742 356,-383 360.311,-380.708 364.913,-378.682 369.632,-376.893"/>
<polygon fill="midnightblue" stroke="midnightblue" points="371.098,-380.091 379.429,-373.545 368.834,-373.467 371.098,-380.091"/>
</g>
<!-- Node12 -->
<g id="node12" class="node"><title>Node12</title>
<g id="a_node12"><a xlink:href="_aquaduino_8cpp.html#a2898e3c748953d17a36dab59bda980dc" target="_top" xlink:title="NTPSync">
<polygon fill="white" stroke="black" points="588,-617.5 588,-636.5 646,-636.5 646,-617.5 588,-617.5"/>
<text text-anchor="middle" x="617" y="-624.5" font-family="Helvetica,sans-Serif" font-size="10.00">NTPSync</text>
</a>
</g>
</g>
<!-- Node11&#45;&gt;Node12 -->
<g id="edge11" class="edge"><title>Node11&#45;&gt;Node12</title>
<path fill="none" stroke="midnightblue" d="M489.078,-409.396C495.415,-412.209 501.274,-415.976 506,-421 563.99,-482.649 484.01,-546.351 542,-608 551.179,-617.758 564.633,-622.774 577.561,-625.27"/>
<polygon fill="midnightblue" stroke="midnightblue" points="577.32,-628.773 587.724,-626.775 578.345,-621.848 577.32,-628.773"/>
</g>
<!-- Node13 -->
<g id="node13" class="node"><title>Node13</title>
<g id="a_node13"><a xlink:href="class_aquaduino.html#a3e007b2b50b6542ce7e906aec2ffda09" target="_top" xlink:title="Aquaduino::getNTP">
<polygon fill="white" stroke="black" points="728.5,-560.5 728.5,-579.5 829.5,-579.5 829.5,-560.5 728.5,-560.5"/>
<text text-anchor="middle" x="779" y="-567.5" font-family="Helvetica,sans-Serif" font-size="10.00">Aquaduino::getNTP</text>
</a>
</g>
</g>
<!-- Node12&#45;&gt;Node13 -->
<g id="edge12" class="edge"><title>Node12&#45;&gt;Node13</title>
<path fill="none" stroke="midnightblue" d="M646.083,-620.942C660.048,-617.639 677.087,-613.17 692,-608 711.725,-601.162 733.207,-591.672 749.766,-583.886"/>
<polygon fill="midnightblue" stroke="midnightblue" points="751.377,-586.995 758.897,-579.532 748.364,-580.677 751.377,-586.995"/>
</g>
<!-- Node18 -->
<g id="node18" class="node"><title>Node18</title>
<g id="a_node18"><a xlink:href="class_config_manager.html#ac626ebb363c0993b1a3b2da7fc824afb" target="_top" xlink:title="ConfigManager::writeConfig">
<polygon fill="white" stroke="black" points="550,-199.5 550,-218.5 684,-218.5 684,-199.5 550,-199.5"/>
<text text-anchor="middle" x="617" y="-206.5" font-family="Helvetica,sans-Serif" font-size="10.00">ConfigManager::writeConfig</text>
</a>
</g>
</g>
<!-- Node17&#45;&gt;Node18 -->
<g id="edge17" class="edge"><title>Node17&#45;&gt;Node18</title>
<path fill="none" stroke="midnightblue" d="M482.969,-278.393C491.005,-275.72 498.97,-272.32 506,-268 526.378,-255.479 521.543,-240.392 542,-228 545.574,-225.835 549.388,-223.915 553.33,-222.213"/>
<polygon fill="midnightblue" stroke="midnightblue" points="554.619,-225.468 562.707,-218.623 552.116,-218.93 554.619,-225.468"/>
</g>
<!-- Node20 -->
<g id="node20" class="node"><title>Node20</title>
<g id="a_node20"><a xlink:href="class_array_list.html#ada61a62619272992ac7fb0da2cf400b8" target="_top" xlink:title="ArrayList::resetIterator">
<polygon fill="white" stroke="black" points="560.5,-161.5 560.5,-180.5 673.5,-180.5 673.5,-161.5 560.5,-161.5"/>
<text text-anchor="middle" x="617" y="-168.5" font-family="Helvetica,sans-Serif" font-size="10.00">ArrayList::resetIterator</text>
</a>
</g>
</g>
<!-- Node19&#45;&gt;Node20 -->
<g id="edge19" class="edge"><title>Node19&#45;&gt;Node20</title>
<path fill="none" stroke="midnightblue" d="M473.387,-228.944C484.201,-224.547 495.707,-219.445 506,-214 522.998,-205.008 524.439,-197.835 542,-190 547.432,-187.576 553.231,-185.419 559.103,-183.509"/>
<polygon fill="midnightblue" stroke="midnightblue" points="560.437,-186.762 569.001,-180.524 558.416,-180.06 560.437,-186.762"/>
</g>
<!-- Node22 -->
<g id="node22" class="node"><title>Node22</title>
<g id="a_node22"><a xlink:href="class_array_list.html#a921b9822fbf598f6fece601973db200b" target="_top" xlink:title="ArrayList::getNext">
<polygon fill="white" stroke="black" points="569.5,-120.5 569.5,-139.5 664.5,-139.5 664.5,-120.5 569.5,-120.5"/>
<text text-anchor="middle" x="617" y="-127.5" font-family="Helvetica,sans-Serif" font-size="10.00">ArrayList::getNext</text>
</a>
</g>
</g>
<!-- Node21&#45;&gt;Node22 -->
<g id="edge21" class="edge"><title>Node21&#45;&gt;Node22</title>
<path fill="none" stroke="midnightblue" d="M486.708,-152.486C509.593,-148.506 536.184,-143.881 559.279,-139.865"/>
<polygon fill="midnightblue" stroke="midnightblue" points="560.027,-143.287 569.279,-138.125 558.827,-136.391 560.027,-143.287"/>
</g>
<!-- Node24 -->
<g id="node24" class="node"><title>Node24</title>
<g id="a_node24"><a xlink:href="class_aquaduino.html#aed76e9fb8f6a3714bbd8de7781133f6e" target="_top" xlink:title="Aquaduino::getTemplateParser">
<polygon fill="white" stroke="black" points="542,-465.5 542,-484.5 692,-484.5 692,-465.5 542,-465.5"/>
<text text-anchor="middle" x="617" y="-472.5" font-family="Helvetica,sans-Serif" font-size="10.00">Aquaduino::getTemplateParser</text>
</a>
</g>
</g>
<!-- Node23&#45;&gt;Node24 -->
<g id="edge23" class="edge"><title>Node23&#45;&gt;Node24</title>
<path fill="none" stroke="midnightblue" d="M487.503,-372.535C494.173,-375.158 500.543,-378.569 506,-383 534.084,-405.802 513.916,-433.198 542,-456 544.072,-457.683 546.276,-459.218 548.578,-460.619"/>
<polygon fill="midnightblue" stroke="midnightblue" points="547.376,-463.936 557.871,-465.384 550.569,-457.707 547.376,-463.936"/>
</g>
<!-- Node25 -->
<g id="node25" class="node"><title>Node25</title>
<g id="a_node25"><a xlink:href="class_aquaduino.html#a9f9eac411924c726db67affdeaa69c25" target="_top" xlink:title="Aquaduino::getMAC">
<polygon fill="white" stroke="black" points="565,-427.5 565,-446.5 669,-446.5 669,-427.5 565,-427.5"/>
<text text-anchor="middle" x="617" y="-434.5" font-family="Helvetica,sans-Serif" font-size="10.00">Aquaduino::getMAC</text>
</a>
</g>
</g>
<!-- Node23&#45;&gt;Node25 -->
<g id="edge24" class="edge"><title>Node23&#45;&gt;Node25</title>
<path fill="none" stroke="midnightblue" d="M483.505,-373.51C491.307,-375.993 499.06,-379.106 506,-383 525.461,-393.92 522.539,-407.08 542,-418 546.19,-420.351 550.675,-422.417 555.288,-424.231"/>
<polygon fill="midnightblue" stroke="midnightblue" points="554.29,-427.59 564.885,-427.614 556.617,-420.988 554.29,-427.59"/>
</g>
<!-- Node26 -->
<g id="node26" class="node"><title>Node26</title>
<g id="a_node26"><a xlink:href="class_aquaduino.html#a02a03dd2da29f1fa24fa3753bf0eea8f" target="_top" xlink:title="Aquaduino::getIP">
<polygon fill="white" stroke="black" points="571.5,-389.5 571.5,-408.5 662.5,-408.5 662.5,-389.5 571.5,-389.5"/>
<text text-anchor="middle" x="617" y="-396.5" font-family="Helvetica,sans-Serif" font-size="10.00">Aquaduino::getIP</text>
</a>
</g>
</g>
<!-- Node23&#45;&gt;Node26 -->
<g id="edge25" class="edge"><title>Node23&#45;&gt;Node26</title>
<path fill="none" stroke="midnightblue" d="M482.279,-373.564C506.781,-378.225 536.292,-383.838 561.35,-388.605"/>
<polygon fill="midnightblue" stroke="midnightblue" points="560.951,-392.091 571.429,-390.522 562.26,-385.215 560.951,-392.091"/>
</g>
<!-- Node27 -->
<g id="node27" class="node"><title>Node27</title>
<g id="a_node27"><a xlink:href="class_aquaduino.html#a4ba7434469e812694335c954b4572e48" target="_top" xlink:title="Aquaduino::getNetmask">
<polygon fill="white" stroke="black" points="556.5,-351.5 556.5,-370.5 677.5,-370.5 677.5,-351.5 556.5,-351.5"/>
<text text-anchor="middle" x="617" y="-358.5" font-family="Helvetica,sans-Serif" font-size="10.00">Aquaduino::getNetmask</text>
</a>
</g>
</g>
<!-- Node23&#45;&gt;Node27 -->
<g id="edge26" class="edge"><title>Node23&#45;&gt;Node27</title>
<path fill="none" stroke="midnightblue" d="M487.705,-363.092C506.086,-362.792 526.768,-362.455 546.072,-362.14"/>
<polygon fill="midnightblue" stroke="midnightblue" points="546.383,-365.636 556.325,-361.973 546.269,-358.637 546.383,-365.636"/>
</g>
<!-- Node28 -->
<g id="node28" class="node"><title>Node28</title>
<g id="a_node28"><a xlink:href="class_aquaduino.html#a01b685574cfa55a1f2b9f7fb4139daf7" target="_top" xlink:title="Aquaduino::getGateway">
<polygon fill="white" stroke="black" points="557,-313.5 557,-332.5 677,-332.5 677,-313.5 557,-313.5"/>
<text text-anchor="middle" x="617" y="-320.5" font-family="Helvetica,sans-Serif" font-size="10.00">Aquaduino::getGateway</text>
</a>
</g>
</g>
<!-- Node23&#45;&gt;Node28 -->
<g id="edge27" class="edge"><title>Node23&#45;&gt;Node28</title>
<path fill="none" stroke="midnightblue" d="M474.676,-354.491C501.056,-348.613 535.117,-341.023 563.191,-334.767"/>
<polygon fill="midnightblue" stroke="midnightblue" points="564.238,-338.12 573.237,-332.529 562.715,-331.287 564.238,-338.12"/>
</g>
<!-- Node29 -->
<g id="node29" class="node"><title>Node29</title>
<g id="a_node29"><a xlink:href="class_aquaduino.html#af20ad1ceaeedf6cf5ff5cfed695dbe41" target="_top" xlink:title="Aquaduino::getDNS">
<polygon fill="white" stroke="black" points="566,-275.5 566,-294.5 668,-294.5 668,-275.5 566,-275.5"/>
<text text-anchor="middle" x="617" y="-282.5" font-family="Helvetica,sans-Serif" font-size="10.00">Aquaduino::getDNS</text>
</a>
</g>
</g>
<!-- Node23&#45;&gt;Node29 -->
<g id="edge28" class="edge"><title>Node23&#45;&gt;Node29</title>
<path fill="none" stroke="midnightblue" d="M485.337,-354.448C492.569,-351.983 499.671,-348.887 506,-345 526.664,-332.309 521.336,-316.691 542,-304 546.408,-301.293 551.19,-298.969 556.131,-296.976"/>
<polygon fill="midnightblue" stroke="midnightblue" points="557.528,-300.193 565.769,-293.534 555.174,-293.601 557.528,-300.193"/>
</g>
<!-- Node23&#45;&gt;Node13 -->
<g id="edge29" class="edge"><title>Node23&#45;&gt;Node13</title>
<path fill="none" stroke="midnightblue" d="M487.761,-371.66C494.47,-374.415 500.78,-378.096 506,-383 543.797,-418.513 504.146,-458.548 542,-494 592.196,-541.011 626.985,-509.579 692,-532 711.736,-538.806 733.218,-548.297 749.775,-556.09"/>
<polygon fill="midnightblue" stroke="midnightblue" points="748.371,-559.299 758.903,-560.45 751.388,-552.982 748.371,-559.299"/>
</g>
<!-- Node30 -->
<g id="node30" class="node"><title>Node30</title>
<g id="a_node30"><a xlink:href="class_aquaduino.html#abca57c3879e6b9927fe3820e36a4a912" target="_top" xlink:title="Aquaduino::isDHCPEnabled">
<polygon fill="white" stroke="black" points="548,-237.5 548,-256.5 686,-256.5 686,-237.5 548,-237.5"/>
<text text-anchor="middle" x="617" y="-244.5" font-family="Helvetica,sans-Serif" font-size="10.00">Aquaduino::isDHCPEnabled</text>
</a>
</g>
</g>
<!-- Node23&#45;&gt;Node30 -->
<g id="edge30" class="edge"><title>Node23&#45;&gt;Node30</title>
<path fill="none" stroke="midnightblue" d="M487.632,-355.621C494.281,-352.973 500.611,-349.514 506,-345 535.579,-320.224 512.421,-290.776 542,-266 544.002,-264.323 546.133,-262.792 548.363,-261.394"/>
<polygon fill="midnightblue" stroke="midnightblue" points="550.171,-264.397 557.381,-256.634 546.903,-258.207 550.171,-264.397"/>
</g>
<!-- Node31 -->
<g id="node31" class="node"><title>Node31</title>
<g id="a_node31"><a xlink:href="class_aquaduino.html#a2270ff8493d7fe8e0182655f312b9c5a" target="_top" xlink:title="Aquaduino::isNTPEnabled">
<polygon fill="white" stroke="black" points="552,-579.5 552,-598.5 682,-598.5 682,-579.5 552,-579.5"/>
<text text-anchor="middle" x="617" y="-586.5" font-family="Helvetica,sans-Serif" font-size="10.00">Aquaduino::isNTPEnabled</text>
</a>
</g>
</g>
<!-- Node23&#45;&gt;Node31 -->
<g id="edge31" class="edge"><title>Node23&#45;&gt;Node31</title>
<path fill="none" stroke="midnightblue" d="M487.607,-370.764C494.507,-373.637 500.911,-377.59 506,-383 563.99,-444.649 484.01,-508.351 542,-570 543.218,-571.295 544.512,-572.507 545.87,-573.64"/>
<polygon fill="midnightblue" stroke="midnightblue" points="544.023,-576.616 554.269,-579.311 547.939,-570.814 544.023,-576.616"/>
</g>
<!-- Node32 -->
<g id="node32" class="node"><title>Node32</title>
<g id="a_node32"><a xlink:href="class_aquaduino.html#a9694acc4701c2367aff948c7c85eb852" target="_top" xlink:title="Aquaduino::getNtpSyncInterval">
<polygon fill="white" stroke="black" points="542.5,-541.5 542.5,-560.5 691.5,-560.5 691.5,-541.5 542.5,-541.5"/>
<text text-anchor="middle" x="617" y="-548.5" font-family="Helvetica,sans-Serif" font-size="10.00">Aquaduino::getNtpSyncInterval</text>
</a>
</g>
</g>
<!-- Node23&#45;&gt;Node32 -->
<g id="edge32" class="edge"><title>Node23&#45;&gt;Node32</title>
<path fill="none" stroke="midnightblue" d="M487.711,-371.175C494.51,-373.997 500.858,-377.825 506,-383 552.499,-429.795 496.981,-478.779 542,-527 545.595,-530.85 549.811,-534.084 554.377,-536.801"/>
<polygon fill="midnightblue" stroke="midnightblue" points="553.012,-540.032 563.517,-541.412 556.165,-533.782 553.012,-540.032"/>
</g>
<!-- Node33&#45;&gt;Node20 -->
<g id="edge34" class="edge"><title>Node33&#45;&gt;Node20</title>
<path fill="none" stroke="midnightblue" d="M313.767,-199.823C380.316,-193.477 483.376,-183.648 550.273,-177.268"/>
<polygon fill="midnightblue" stroke="midnightblue" points="550.657,-180.748 560.279,-176.314 549.992,-173.779 550.657,-180.748"/>
</g>
<!-- Node34&#45;&gt;Node22 -->
<g id="edge36" class="edge"><title>Node34&#45;&gt;Node22</title>
<path fill="none" stroke="midnightblue" d="M319.761,-125.157C389.411,-126.296 494.441,-128.013 558.929,-129.067"/>
<polygon fill="midnightblue" stroke="midnightblue" points="559.254,-132.573 569.31,-129.237 559.368,-125.574 559.254,-132.573"/>
</g>
</g>
</svg>
