<?xml version="1.0" encoding="UTF-8" standalone="no"?>
<!DOCTYPE svg PUBLIC "-//W3C//DTD SVG 1.1//EN"
 "http://www.w3.org/Graphics/SVG/1.1/DTD/svg11.dtd">
<!-- Generated by graphviz version 2.30.1 (20130214.1330)
 -->
<!-- Title: Framework/ArrayList.h Pages: 1 -->
<svg width="1756pt" height="252pt"
 viewBox="0.00 0.00 1756.07 252.00" xmlns="http://www.w3.org/2000/svg" xmlns:xlink="http://www.w3.org/1999/xlink">
<g id="graph0" class="graph" transform="scale(1 1) rotate(0) translate(4 248)">
<title>Framework/ArrayList.h</title>
<polygon fill="white" stroke="white" points="-4,5 -4,-248 1753.07,-248 1753.07,5 -4,5"/>
<!-- Node1 -->
<g id="node1" class="node"><title>Node1</title>
<polygon fill="#bfbfbf" stroke="black" points="962.5,-224.5 962.5,-243.5 1077.5,-243.5 1077.5,-224.5 962.5,-224.5"/>
<text text-anchor="middle" x="1020" y="-231.5" font-family="Helvetica,sans-Serif" font-size="10.00">Framework/ArrayList.h</text>
</g>
<!-- Node2 -->
<g id="node2" class="node"><title>Node2</title>
<g id="a_node2"><a xlink:href="_aquaduino_8h.html" target="_top" xlink:title="Aquaduino.h">
<polygon fill="white" stroke="black" points="984.5,-168.5 984.5,-187.5 1055.5,-187.5 1055.5,-168.5 984.5,-168.5"/>
<text text-anchor="middle" x="1020" y="-175.5" font-family="Helvetica,sans-Serif" font-size="10.00">Aquaduino.h</text>
</a>
</g>
</g>
<!-- Node1&#45;&gt;Node2 -->
<g id="edge1" class="edge"><title>Node1&#45;&gt;Node2</title>
<path fill="none" stroke="midnightblue" d="M1020,-213.805C1020,-204.91 1020,-194.78 1020,-187.751"/>
<polygon fill="midnightblue" stroke="midnightblue" points="1016.5,-214.083 1020,-224.083 1023.5,-214.083 1016.5,-214.083"/>
</g>
<!-- Node3 -->
<g id="node3" class="node"><title>Node3</title>
<g id="a_node3"><a xlink:href="_digital_output_8cpp.html" target="_top" xlink:title="Actuators/DigitalOutput.cpp">
<polygon fill="white" stroke="black" points="-0.5,-112.5 -0.5,-131.5 136.5,-131.5 136.5,-112.5 -0.5,-112.5"/>
<text text-anchor="middle" x="68" y="-119.5" font-family="Helvetica,sans-Serif" font-size="10.00">Actuators/DigitalOutput.cpp</text>
</a>
</g>
</g>
<!-- Node2&#45;&gt;Node3 -->
<g id="edge2" class="edge"><title>Node2&#45;&gt;Node3</title>
<path fill="none" stroke="midnightblue" d="M974.147,-175.665C844.165,-171.659 462.215,-158.357 146,-132 143.011,-131.751 139.96,-131.478 136.88,-131.188"/>
<polygon fill="midnightblue" stroke="midnightblue" points="974.045,-179.163 984.147,-175.97 974.258,-172.166 974.045,-179.163"/>
</g>
<!-- Node4 -->
<g id="node4" class="node"><title>Node4</title>
<g id="a_node4"><a xlink:href="_config_manager_8h.html" target="_top" xlink:title="Framework/ConfigManager.h">
<polygon fill="white" stroke="black" points="155,-112.5 155,-131.5 295,-131.5 295,-112.5 155,-112.5"/>
<text text-anchor="middle" x="225" y="-119.5" font-family="Helvetica,sans-Serif" font-size="10.00">Framework/ConfigManager.h</text>
</a>
</g>
</g>
<!-- Node2&#45;&gt;Node4 -->
<g id="edge3" class="edge"><title>Node2&#45;&gt;Node4</title>
<path fill="none" stroke="midnightblue" d="M974.107,-174.924C860.422,-169.604 556.655,-154.317 304,-132 301.112,-131.745 298.167,-131.471 295.193,-131.183"/>
<polygon fill="midnightblue" stroke="midnightblue" points="974.039,-178.424 984.191,-175.392 974.365,-171.432 974.039,-178.424"/>
</g>
<!-- Node7 -->
<g id="node7" class="node"><title>Node7</title>
<g id="a_node7"><a xlink:href="_aquaduino_8cpp.html" target="_top" xlink:title="Aquaduino.cpp">
<polygon fill="white" stroke="black" points="313.5,-112.5 313.5,-131.5 394.5,-131.5 394.5,-112.5 313.5,-112.5"/>
<text text-anchor="middle" x="354" y="-119.5" font-family="Helvetica,sans-Serif" font-size="10.00">Aquaduino.cpp</text>
</a>
</g>
</g>
<!-- Node2&#45;&gt;Node7 -->
<g id="edge7" class="edge"><title>Node2&#45;&gt;Node7</title>
<path fill="none" stroke="midnightblue" d="M974.154,-175.301C871.634,-171.142 616.178,-158.771 404,-132 400.937,-131.614 397.777,-131.165 394.604,-130.677"/>
<polygon fill="midnightblue" stroke="midnightblue" points="974.323,-178.811 984.455,-175.712 974.602,-171.816 974.323,-178.811"/>
</g>
<!-- Node8 -->
<g id="node8" class="node"><title>Node8</title>
<g id="a_node8"><a xlink:href="_clock_timer_controller_8cpp.html" target="_top" xlink:title="Controller/ClockTimerController.cpp">
<polygon fill="white" stroke="black" points="413,-112.5 413,-131.5 583,-131.5 583,-112.5 413,-112.5"/>
<text text-anchor="middle" x="498" y="-119.5" font-family="Helvetica,sans-Serif" font-size="10.00">Controller/ClockTimerController.cpp</text>
</a>
</g>
</g>
<!-- Node2&#45;&gt;Node8 -->
<g id="edge8" class="edge"><title>Node2&#45;&gt;Node8</title>
<path fill="none" stroke="midnightblue" d="M974.164,-172.258C886.038,-163.142 691.87,-143.055 580.616,-131.546"/>
<polygon fill="midnightblue" stroke="midnightblue" points="973.814,-175.741 984.121,-173.288 974.534,-168.778 973.814,-175.741"/>
</g>
<!-- Node9 -->
<g id="node9" class="node"><title>Node9</title>
<g id="a_node9"><a xlink:href="_level_controller_8cpp.html" target="_top" xlink:title="Controller/LevelController.cpp">
<polygon fill="white" stroke="black" points="601.5,-112.5 601.5,-131.5 744.5,-131.5 744.5,-112.5 601.5,-112.5"/>
<text text-anchor="middle" x="673" y="-119.5" font-family="Helvetica,sans-Serif" font-size="10.00">Controller/LevelController.cpp</text>
</a>
</g>
</g>
<!-- Node2&#45;&gt;Node9 -->
<g id="edge9" class="edge"><title>Node2&#45;&gt;Node9</title>
<path fill="none" stroke="midnightblue" d="M974.378,-169.9C910.831,-160.011 795.827,-142.114 727.74,-131.519"/>
<polygon fill="midnightblue" stroke="midnightblue" points="974.076,-173.395 984.496,-171.475 975.153,-166.479 974.076,-173.395"/>
</g>
<!-- Node10 -->
<g id="node10" class="node"><title>Node10</title>
<g id="a_node10"><a xlink:href="_temperature_controller_8cpp.html" target="_top" xlink:title="Controller/TemperatureController.cpp">
<polygon fill="white" stroke="black" points="762.5,-112.5 762.5,-131.5 937.5,-131.5 937.5,-112.5 762.5,-112.5"/>
<text text-anchor="middle" x="850" y="-119.5" font-family="Helvetica,sans-Serif" font-size="10.00">Controller/TemperatureController.cpp</text>
</a>
</g>
</g>
<!-- Node2&#45;&gt;Node10 -->
<g id="edge10" class="edge"><title>Node2&#45;&gt;Node10</title>
<path fill="none" stroke="midnightblue" d="M983.181,-165.304C951.148,-155.129 905.485,-140.625 876.811,-131.516"/>
<polygon fill="midnightblue" stroke="midnightblue" points="982.473,-168.752 993.063,-168.444 984.592,-162.08 982.473,-168.752"/>
</g>
<!-- Node11 -->
<g id="node11" class="node"><title>Node11</title>
<g id="a_node11"><a xlink:href="_controller_8cpp.html" target="_top" xlink:title="Framework/Controller.cpp">
<polygon fill="white" stroke="black" points="956,-112.5 956,-131.5 1084,-131.5 1084,-112.5 956,-112.5"/>
<text text-anchor="middle" x="1020" y="-119.5" font-family="Helvetica,sans-Serif" font-size="10.00">Framework/Controller.cpp</text>
</a>
</g>
</g>
<!-- Node2&#45;&gt;Node11 -->
<g id="edge11" class="edge"><title>Node2&#45;&gt;Node11</title>
<path fill="none" stroke="midnightblue" d="M1020,-157.805C1020,-148.91 1020,-138.78 1020,-131.751"/>
<polygon fill="midnightblue" stroke="midnightblue" points="1016.5,-158.083 1020,-168.083 1023.5,-158.083 1016.5,-158.083"/>
</g>
<!-- Node12 -->
<g id="node12" class="node"><title>Node12</title>
<g id="a_node12"><a xlink:href="_n_t_p_sync_8cpp.html" target="_top" xlink:title="Framework/NTPSync.cpp">
<polygon fill="white" stroke="black" points="1102,-112.5 1102,-131.5 1230,-131.5 1230,-112.5 1102,-112.5"/>
<text text-anchor="middle" x="1166" y="-119.5" font-family="Helvetica,sans-Serif" font-size="10.00">Framework/NTPSync.cpp</text>
</a>
</g>
</g>
<!-- Node2&#45;&gt;Node12 -->
<g id="edge12" class="edge"><title>Node2&#45;&gt;Node12</title>
<path fill="none" stroke="midnightblue" d="M1052.7,-164.906C1080.15,-154.754 1118.67,-140.506 1142.97,-131.516"/>
<polygon fill="midnightblue" stroke="midnightblue" points="1051.3,-161.692 1043.13,-168.444 1053.73,-168.257 1051.3,-161.692"/>
</g>
<!-- Node6 -->
<g id="node6" class="node"><title>Node6</title>
<g id="a_node6"><a xlink:href="_s_d_config_manager_8cpp.html" target="_top" xlink:title="Framework/SDConfigManager.cpp">
<polygon fill="white" stroke="black" points="1424,-0.5 1424,-19.5 1588,-19.5 1588,-0.5 1424,-0.5"/>
<text text-anchor="middle" x="1506" y="-7.5" font-family="Helvetica,sans-Serif" font-size="10.00">Framework/SDConfigManager.cpp</text>
</a>
</g>
</g>
<!-- Node2&#45;&gt;Node6 -->
<g id="edge13" class="edge"><title>Node2&#45;&gt;Node6</title>
<path fill="none" stroke="midnightblue" d="M1065.67,-175.828C1219.75,-171.657 1712.03,-156.457 1735,-132 1792.25,-71.0313 1645.42,-34.7827 1560.84,-19.5177"/>
<polygon fill="midnightblue" stroke="midnightblue" points="1065.5,-172.332 1055.6,-176.098 1065.69,-179.329 1065.5,-172.332"/>
</g>
<!-- Node13 -->
<g id="node13" class="node"><title>Node13</title>
<g id="a_node13"><a xlink:href="configweb_8cpp.html" target="_top" xlink:title="Webinterface/configweb.cpp">
<polygon fill="white" stroke="black" points="1286,-112.5 1286,-131.5 1424,-131.5 1424,-112.5 1286,-112.5"/>
<text text-anchor="middle" x="1355" y="-119.5" font-family="Helvetica,sans-Serif" font-size="10.00">Webinterface/configweb.cpp</text>
</a>
</g>
</g>
<!-- Node2&#45;&gt;Node13 -->
<g id="edge14" class="edge"><title>Node2&#45;&gt;Node13</title>
<path fill="none" stroke="midnightblue" d="M1065.73,-169.628C1127.37,-159.692 1236.88,-142.041 1302.03,-131.539"/>
<polygon fill="midnightblue" stroke="midnightblue" points="1064.85,-166.225 1055.53,-171.272 1065.96,-173.136 1064.85,-166.225"/>
</g>
<!-- Node14 -->
<g id="node14" class="node"><title>Node14</title>
<g id="a_node14"><a xlink:href="dispatch_8cpp.html" target="_top" xlink:title="Webinterface/dispatch.cpp">
<polygon fill="white" stroke="black" points="1442,-112.5 1442,-131.5 1574,-131.5 1574,-112.5 1442,-112.5"/>
<text text-anchor="middle" x="1508" y="-119.5" font-family="Helvetica,sans-Serif" font-size="10.00">Webinterface/dispatch.cpp</text>
</a>
</g>
</g>
<!-- Node2&#45;&gt;Node14 -->
<g id="edge15" class="edge"><title>Node2&#45;&gt;Node14</title>
<path fill="none" stroke="midnightblue" d="M1065.85,-172.169C1142.09,-164.1 1299.72,-147.258 1433,-132 1435.87,-131.672 1438.79,-131.334 1441.75,-130.99"/>
<polygon fill="midnightblue" stroke="midnightblue" points="1065.22,-168.716 1055.65,-173.248 1065.96,-175.677 1065.22,-168.716"/>
</g>
<!-- Node15 -->
<g id="node15" class="node"><title>Node15</title>
<g id="a_node15"><a xlink:href="mainweb_8cpp.html" target="_top" xlink:title="Webinterface/mainweb.cpp">
<polygon fill="white" stroke="black" points="1592,-112.5 1592,-131.5 1726,-131.5 1726,-112.5 1592,-112.5"/>
<text text-anchor="middle" x="1659" y="-119.5" font-family="Helvetica,sans-Serif" font-size="10.00">Webinterface/mainweb.cpp</text>
</a>
</g>
</g>
<!-- Node2&#45;&gt;Node15 -->
<g id="edge16" class="edge"><title>Node2&#45;&gt;Node15</title>
<path fill="none" stroke="midnightblue" d="M1065.84,-173.931C1161.87,-167.37 1391.14,-151.021 1583,-132 1585.91,-131.712 1588.88,-131.406 1591.88,-131.089"/>
<polygon fill="midnightblue" stroke="midnightblue" points="1065.35,-170.456 1055.61,-174.627 1065.83,-177.44 1065.35,-170.456"/>
</g>
<!-- Node5 -->
<g id="node5" class="node"><title>Node5</title>
<g id="a_node5"><a xlink:href="_s_d_config_manager_8h.html" target="_top" xlink:title="Framework/SDConfigManager.h">
<polygon fill="white" stroke="black" points="1181,-56.5 1181,-75.5 1335,-75.5 1335,-56.5 1181,-56.5"/>
<text text-anchor="middle" x="1258" y="-63.5" font-family="Helvetica,sans-Serif" font-size="10.00">Framework/SDConfigManager.h</text>
</a>
</g>
</g>
<!-- Node4&#45;&gt;Node5 -->
<g id="edge4" class="edge"><title>Node4&#45;&gt;Node5</title>
<path fill="none" stroke="midnightblue" d="M305.485,-111.935C637.342,-85.5641 1020.19,-73.2479 1180.91,-68.9029"/>
<polygon fill="midnightblue" stroke="midnightblue" points="304.877,-108.473 295.188,-112.759 305.435,-115.45 304.877,-108.473"/>
</g>
<!-- Node5&#45;&gt;Node2 -->
<g id="edge5" class="edge"><title>Node5&#45;&gt;Node2</title>
<path fill="none" stroke="midnightblue" d="M1257.55,-85.5841C1256.16,-100.268 1251.82,-120.192 1239,-132 1212.67,-156.264 1110.54,-168.927 1055.55,-174.108"/>
<polygon fill="midnightblue" stroke="midnightblue" points="1261.04,-85.783 1258.12,-75.5982 1254.05,-85.3803 1261.04,-85.783"/>
</g>
<!-- Node5&#45;&gt;Node6 -->
<g id="edge6" class="edge"><title>Node5&#45;&gt;Node6</title>
<path fill="none" stroke="midnightblue" d="M1307.23,-54.2815C1354.09,-44.0769 1423.7,-28.9203 1466.89,-19.5164"/>
<polygon fill="midnightblue" stroke="midnightblue" points="1306.32,-50.896 1297.3,-56.4435 1307.81,-57.7358 1306.32,-50.896"/>
</g>
</g>
</svg>
