<?xml version="1.0" encoding="UTF-8" standalone="no"?>
<!DOCTYPE svg PUBLIC "-//W3C//DTD SVG 1.1//EN"
 "http://www.w3.org/Graphics/SVG/1.1/DTD/svg11.dtd">
<!-- Generated by graphviz version 2.30.1 (20130214.1330)
 -->
<!-- Title: Controller/ClockTimer.h Pages: 1 -->
<svg width="176pt" height="140pt"
 viewBox="0.00 0.00 176.00 140.00" xmlns="http://www.w3.org/2000/svg" xmlns:xlink="http://www.w3.org/1999/xlink">
<g id="graph0" class="graph" transform="scale(1 1) rotate(0) translate(4 136)">
<title>Controller/ClockTimer.h</title>
<polygon fill="white" stroke="white" points="-4,5 -4,-136 173,-136 173,5 -4,5"/>
<!-- Node1 -->
<g id="node1" class="node"><title>Node1</title>
<polygon fill="#bfbfbf" stroke="black" points="0,-112.5 0,-131.5 118,-131.5 118,-112.5 0,-112.5"/>
<text text-anchor="middle" x="59" y="-119.5" font-family="Helvetica,sans-Serif" font-size="10.00">Controller/ClockTimer.h</text>
</g>
<!-- Node2 -->
<g id="node2" class="node"><title>Node2</title>
<polygon fill="white" stroke="#bfbfbf" points="30,-0.5 30,-19.5 88,-19.5 88,-0.5 30,-0.5"/>
<text text-anchor="middle" x="59" y="-7.5" font-family="Helvetica,sans-Serif" font-size="10.00">Arduino.h</text>
</g>
<!-- Node1&#45;&gt;Node2 -->
<g id="edge1" class="edge"><title>Node1&#45;&gt;Node2</title>
<path fill="none" stroke="midnightblue" d="M52.1097,-112.319C45.7306,-103.684 36.6919,-89.7696 33,-76 28.4916,-59.1852 37.1675,-40.8382 45.6856,-27.9374"/>
<polygon fill="midnightblue" stroke="midnightblue" points="48.6786,-29.7699 51.6694,-19.606 42.993,-25.6864 48.6786,-29.7699"/>
</g>
<!-- Node3 -->
<g id="node3" class="node"><title>Node3</title>
<g id="a_node3"><a xlink:href="_serializable_8h.html" target="_top" xlink:title="Framework/Serializable.h">
<polygon fill="white" stroke="black" points="42,-56.5 42,-75.5 168,-75.5 168,-56.5 42,-56.5"/>
<text text-anchor="middle" x="105" y="-63.5" font-family="Helvetica,sans-Serif" font-size="10.00">Framework/Serializable.h</text>
</a>
</g>
</g>
<!-- Node1&#45;&gt;Node3 -->
<g id="edge2" class="edge"><title>Node1&#45;&gt;Node3</title>
<path fill="none" stroke="midnightblue" d="M66.596,-112.083C73.2275,-104.298 83.021,-92.8015 91.0581,-83.3665"/>
<polygon fill="midnightblue" stroke="midnightblue" points="93.725,-85.6332 97.5454,-75.7511 88.3963,-81.0939 93.725,-85.6332"/>
</g>
<!-- Node3&#45;&gt;Node2 -->
<g id="edge3" class="edge"><title>Node3&#45;&gt;Node2</title>
<path fill="none" stroke="midnightblue" d="M97.404,-56.083C90.7725,-48.2982 80.979,-36.8015 72.9419,-27.3665"/>
<polygon fill="midnightblue" stroke="midnightblue" points="75.6037,-25.0939 66.4546,-19.7511 70.275,-29.6332 75.6037,-25.0939"/>
</g>
</g>
</svg>
