<?xml version="1.0" encoding="UTF-8" standalone="no"?>
<!DOCTYPE svg PUBLIC "-//W3C//DTD SVG 1.1//EN"
 "http://www.w3.org/Graphics/SVG/1.1/DTD/svg11.dtd">
<!-- Generated by graphviz version 2.30.1 (20130214.1330)
 -->
<!-- Title: Controller/ClockTimerController.cpp Pages: 1 -->
<!--zoomable 476 -->
<svg id="main" version="1.1" xmlns="http://www.w3.org/2000/svg" xmlns:xlink="http://www.w3.org/1999/xlink" xml:space="preserve" onload="init(evt)">
<style type="text/css"><![CDATA[
.edge:hover path { stroke: red; }
.edge:hover polygon { stroke: red; fill: red; }
]]></style>
<script type="text/javascript"><![CDATA[
var edges = document.getElementsByTagName('g');
if (edges && edges.length) {
  for (var i=0;i<edges.length;i++) {
    if (edges[i].id.substr(0,4)=='edge') {
      edges[i].setAttribute('class','edge');
    }
  }
}
]]></script>
        <defs>
                <circle id="rim" cx="0" cy="0" r="7"/>
                <circle id="rim2" cx="0" cy="0" r="3.5"/>
                <g id="zoomPlus">
                        <use xlink:href="#rim" fill="#404040">
                                <set attributeName="fill" to="#808080" begin="zoomplus.mouseover" end="zoomplus.mouseout"/>
                        </use>
                        <path d="M-4,0h8M0,-4v8" fill="none" stroke="white" stroke-width="1.5" pointer-events="none"/>
                </g>
                <g id="zoomMin">
                        <use xlink:href="#rim" fill="#404040">
                                <set attributeName="fill" to="#808080" begin="zoomminus.mouseover" end="zoomminus.mouseout"/>
                        </use>
                        <path d="M-4,0h8" fill="none" stroke="white" stroke-width="1.5" pointer-events="none"/>
                </g>
                <g id="dirArrow">
                        <path fill="none" stroke="white" stroke-width="1.5" d="M0,-3.0v7 M-2.5,-0.5L0,-3.0L2.5,-0.5"/>
                </g>
               <g id="resetDef">
                       <use xlink:href="#rim2" fill="#404040">
                               <set attributeName="fill" to="#808080" begin="reset.mouseover" end="reset.mouseout"/>
                       </use>
               </g>
        </defs>

<script type="text/javascript">
var viewWidth = 831;
var viewHeight = 476;
var sectionId = 'dynsection-0';
</script>
<script xlink:href="svgpan.js"/>
<svg id="graph" class="graph">
<g id="viewport">
<title>Controller/ClockTimerController.cpp</title>
<polygon fill="white" stroke="white" points="-4,5 -4,-472 828.468,-472 828.468,5 -4,5"/>
<!-- Node1 -->
<g id="node1" class="node"><title>Node1</title>
<polygon fill="#bfbfbf" stroke="black" points="425.468,-448.5 425.468,-467.5 595.468,-467.5 595.468,-448.5 425.468,-448.5"/>
<text text-anchor="middle" x="510.468" y="-455.5" font-family="Helvetica,sans-Serif" font-size="10.00">Controller/ClockTimerController.cpp</text>
</g>
<!-- Node2 -->
<g id="node2" class="node"><title>Node2</title>
<g id="a_node2"><a xlink:href="_aquaduino_8h.html" target="_top" xlink:title="Aquaduino.h">
<polygon fill="white" stroke="black" points="410.968,-392.5 410.968,-411.5 481.968,-411.5 481.968,-392.5 410.968,-392.5"/>
<text text-anchor="middle" x="446.468" y="-399.5" font-family="Helvetica,sans-Serif" font-size="10.00">Aquaduino.h</text>
</a>
</g>
</g>
<!-- Node1&#45;&gt;Node2 -->
<g id="edge1" class="edge"><title>Node1&#45;&gt;Node2</title>
<path fill="none" stroke="midnightblue" d="M500.186,-448.324C490.632,-440.263 476.189,-428.077 464.684,-418.369"/>
<polygon fill="midnightblue" stroke="midnightblue" points="466.838,-415.608 456.938,-411.834 462.324,-420.958 466.838,-415.608"/>
</g>
<!-- Node20 -->
<g id="node20" class="node"><title>Node20</title>
<g id="a_node20"><a xlink:href="_clock_timer_controller_8h.html" target="_top" xlink:title="ClockTimerController.h">
<polygon fill="white" stroke="black" points="69.9684,-224.5 69.9684,-243.5 184.968,-243.5 184.968,-224.5 69.9684,-224.5"/>
<text text-anchor="middle" x="127.468" y="-231.5" font-family="Helvetica,sans-Serif" font-size="10.00">ClockTimerController.h</text>
</a>
</g>
</g>
<!-- Node1&#45;&gt;Node20 -->
<g id="edge37" class="edge"><title>Node1&#45;&gt;Node20</title>
<path fill="none" stroke="midnightblue" d="M439.123,-448.487C371.267,-437.254 269.438,-411.893 199.468,-356 165.057,-328.511 143.418,-279.779 133.619,-253.322"/>
<polygon fill="midnightblue" stroke="midnightblue" points="136.875,-252.03 130.241,-243.769 130.275,-254.364 136.875,-252.03"/>
</g>
<!-- Node22 -->
<g id="node22" class="node"><title>Node22</title>
<polygon fill="white" stroke="#bfbfbf" points="538.468,-392.5 538.468,-411.5 584.468,-411.5 584.468,-392.5 538.468,-392.5"/>
<text text-anchor="middle" x="561.468" y="-399.5" font-family="Helvetica,sans-Serif" font-size="10.00">Time.h</text>
</g>
<!-- Node1&#45;&gt;Node22 -->
<g id="edge42" class="edge"><title>Node1&#45;&gt;Node22</title>
<path fill="none" stroke="midnightblue" d="M518.89,-448.083C526.317,-440.22 537.32,-428.569 546.281,-419.081"/>
<polygon fill="midnightblue" stroke="midnightblue" points="548.882,-421.424 553.204,-411.751 543.793,-416.618 548.882,-421.424"/>
</g>
<!-- Node23 -->
<g id="node23" class="node"><title>Node23</title>
<polygon fill="white" stroke="#bfbfbf" points="602.468,-392.5 602.468,-411.5 640.468,-411.5 640.468,-392.5 602.468,-392.5"/>
<text text-anchor="middle" x="621.468" y="-399.5" font-family="Helvetica,sans-Serif" font-size="10.00">SD.h</text>
</g>
<!-- Node1&#45;&gt;Node23 -->
<g id="edge43" class="edge"><title>Node1&#45;&gt;Node23</title>
<path fill="none" stroke="midnightblue" d="M528.302,-448.324C546.184,-439.625 573.943,-426.12 594.514,-416.113"/>
<polygon fill="midnightblue" stroke="midnightblue" points="596.217,-419.177 603.679,-411.655 593.155,-412.882 596.217,-419.177"/>
</g>
<!-- Node5 -->
<g id="node5" class="node"><title>Node5</title>
<polygon fill="white" stroke="#bfbfbf" points="729.968,-336.5 729.968,-355.5 822.968,-355.5 822.968,-336.5 729.968,-336.5"/>
<text text-anchor="middle" x="776.468" y="-343.5" font-family="Helvetica,sans-Serif" font-size="10.00">TemplateParser.h</text>
</g>
<!-- Node1&#45;&gt;Node5 -->
<g id="edge44" class="edge"><title>Node1&#45;&gt;Node5</title>
<path fill="none" stroke="midnightblue" d="M510.309,-448.361C510.553,-434.318 513.221,-406.637 529.468,-392 536.539,-385.63 648.937,-367.005 719.648,-355.813"/>
<polygon fill="midnightblue" stroke="midnightblue" points="720.429,-359.233 729.761,-354.218 719.338,-352.319 720.429,-359.233"/>
</g>
<!-- Node3 -->
<g id="node3" class="node"><title>Node3</title>
<polygon fill="white" stroke="#bfbfbf" points="150.468,-56.5 150.468,-75.5 208.468,-75.5 208.468,-56.5 150.468,-56.5"/>
<text text-anchor="middle" x="179.468" y="-63.5" font-family="Helvetica,sans-Serif" font-size="10.00">Arduino.h</text>
</g>
<!-- Node2&#45;&gt;Node3 -->
<g id="edge2" class="edge"><title>Node2&#45;&gt;Node3</title>
<path fill="none" stroke="midnightblue" d="M410.759,-399.89C313.298,-396.496 48.2724,-384.688 22.4684,-356 -58.3454,-266.155 101.758,-127.347 159.676,-81.935"/>
<polygon fill="midnightblue" stroke="midnightblue" points="161.972,-84.5846 167.742,-75.699 157.69,-79.0468 161.972,-84.5846"/>
</g>
<!-- Node4 -->
<g id="node4" class="node"><title>Node4</title>
<polygon fill="white" stroke="#bfbfbf" points="565.468,-336.5 565.468,-355.5 627.468,-355.5 627.468,-336.5 565.468,-336.5"/>
<text text-anchor="middle" x="596.468" y="-343.5" font-family="Helvetica,sans-Serif" font-size="10.00">Ethernet.h</text>
</g>
<!-- Node2&#45;&gt;Node4 -->
<g id="edge3" class="edge"><title>Node2&#45;&gt;Node4</title>
<path fill="none" stroke="midnightblue" d="M470.236,-392.444C495.361,-383.399 535.179,-369.064 563.369,-358.916"/>
<polygon fill="midnightblue" stroke="midnightblue" points="564.588,-362.197 572.812,-355.516 562.217,-355.611 564.588,-362.197"/>
</g>
<!-- Node2&#45;&gt;Node5 -->
<g id="edge4" class="edge"><title>Node2&#45;&gt;Node5</title>
<path fill="none" stroke="midnightblue" d="M482.234,-394.478C487.017,-393.631 491.86,-392.785 496.468,-392 573.688,-378.846 663.072,-364.662 719.676,-355.808"/>
<polygon fill="midnightblue" stroke="midnightblue" points="720.514,-359.219 729.854,-354.218 719.433,-352.303 720.514,-359.219"/>
</g>
<!-- Node6 -->
<g id="node6" class="node"><title>Node6</title>
<g id="a_node6"><a xlink:href="_config_8h.html" target="_top" xlink:title="Framework/Config.h">
<polygon fill="white" stroke="black" points="420.968,-56.5 420.968,-75.5 523.968,-75.5 523.968,-56.5 420.968,-56.5"/>
<text text-anchor="middle" x="472.468" y="-63.5" font-family="Helvetica,sans-Serif" font-size="10.00">Framework/Config.h</text>
</a>
</g>
</g>
<!-- Node2&#45;&gt;Node6 -->
<g id="edge5" class="edge"><title>Node2&#45;&gt;Node6</title>
<path fill="none" stroke="midnightblue" d="M461.089,-392.482C486.813,-376.272 537.468,-338.339 537.468,-291 537.468,-291 537.468,-291 537.468,-177 537.468,-139.178 508.633,-102.94 489.374,-82.9551"/>
<polygon fill="midnightblue" stroke="midnightblue" points="491.611,-80.2429 482.059,-75.6585 486.667,-85.1988 491.611,-80.2429"/>
</g>
<!-- Node8 -->
<g id="node8" class="node"><title>Node8</title>
<g id="a_node8"><a xlink:href="_controller_8h.html" target="_top" xlink:title="Framework/Controller.h">
<polygon fill="white" stroke="black" points="315.968,-168.5 315.968,-187.5 432.968,-187.5 432.968,-168.5 315.968,-168.5"/>
<text text-anchor="middle" x="374.468" y="-175.5" font-family="Helvetica,sans-Serif" font-size="10.00">Framework/Controller.h</text>
</a>
</g>
</g>
<!-- Node2&#45;&gt;Node8 -->
<g id="edge7" class="edge"><title>Node2&#45;&gt;Node8</title>
<path fill="none" stroke="midnightblue" d="M410.906,-401.166C376.403,-399.185 325.673,-390.143 300.468,-356 261.809,-303.63 325.306,-228.062 357.512,-195.238"/>
<polygon fill="midnightblue" stroke="midnightblue" points="360.318,-197.385 364.945,-187.854 355.384,-192.419 360.318,-197.385"/>
</g>
<!-- Node14 -->
<g id="node14" class="node"><title>Node14</title>
<g id="a_node14"><a xlink:href="_actuator_8h.html" target="_top" xlink:title="Framework/Actuator.h">
<polygon fill="white" stroke="black" points="395.968,-224.5 395.968,-243.5 508.968,-243.5 508.968,-224.5 395.968,-224.5"/>
<text text-anchor="middle" x="452.468" y="-231.5" font-family="Helvetica,sans-Serif" font-size="10.00">Framework/Actuator.h</text>
</a>
</g>
</g>
<!-- Node2&#45;&gt;Node14 -->
<g id="edge17" class="edge"><title>Node2&#45;&gt;Node14</title>
<path fill="none" stroke="midnightblue" d="M455.756,-392.395C464.049,-384.025 475.612,-370.483 480.468,-356 492.524,-320.045 474.8,-276.383 462.523,-252.574"/>
<polygon fill="midnightblue" stroke="midnightblue" points="465.538,-250.792 457.698,-243.665 459.383,-254.125 465.538,-250.792"/>
</g>
<!-- Node15 -->
<g id="node15" class="node"><title>Node15</title>
<g id="a_node15"><a xlink:href="_sensor_8h.html" target="_top" xlink:title="Framework/Sensor.h">
<polygon fill="white" stroke="black" points="565.968,-224.5 565.968,-243.5 672.968,-243.5 672.968,-224.5 565.968,-224.5"/>
<text text-anchor="middle" x="619.468" y="-231.5" font-family="Helvetica,sans-Serif" font-size="10.00">Framework/Sensor.h</text>
</a>
</g>
</g>
<!-- Node2&#45;&gt;Node15 -->
<g id="edge23" class="edge"><title>Node2&#45;&gt;Node15</title>
<path fill="none" stroke="midnightblue" d="M482.089,-395.002C534.399,-385.836 626.875,-368.131 636.468,-356 660.166,-326.034 642.108,-278.347 629.316,-252.702"/>
<polygon fill="midnightblue" stroke="midnightblue" points="632.361,-250.971 624.61,-243.748 626.164,-254.228 632.361,-250.971"/>
</g>
<!-- Node16 -->
<g id="node16" class="node"><title>Node16</title>
<g id="a_node16"><a xlink:href="_array_list_8h.html" target="_top" xlink:title="Framework/ArrayList.h">
<polygon fill="white" stroke="black" points="31.9684,-336.5 31.9684,-355.5 146.968,-355.5 146.968,-336.5 31.9684,-336.5"/>
<text text-anchor="middle" x="89.4684" y="-343.5" font-family="Helvetica,sans-Serif" font-size="10.00">Framework/ArrayList.h</text>
</a>
</g>
</g>
<!-- Node2&#45;&gt;Node16 -->
<g id="edge25" class="edge"><title>Node2&#45;&gt;Node16</title>
<path fill="none" stroke="midnightblue" d="M410.933,-395.625C351.641,-386.656 231.615,-368.501 156.177,-357.09"/>
<polygon fill="midnightblue" stroke="midnightblue" points="156.25,-353.562 145.839,-355.527 155.203,-360.483 156.25,-353.562"/>
</g>
<!-- Node18 -->
<g id="node18" class="node"><title>Node18</title>
<g id="a_node18"><a xlink:href="_s_d_config_manager_8h.html" target="_top" xlink:title="Framework/SDConfigManager.h">
<polygon fill="white" stroke="black" points="317.468,-336.5 317.468,-355.5 471.468,-355.5 471.468,-336.5 317.468,-336.5"/>
<text text-anchor="middle" x="394.468" y="-343.5" font-family="Helvetica,sans-Serif" font-size="10.00">Framework/SDConfigManager.h</text>
</a>
</g>
</g>
<!-- Node2&#45;&gt;Node18 -->
<g id="edge28" class="edge"><title>Node2&#45;&gt;Node18</title>
<path fill="none" stroke="midnightblue" d="M437.882,-392.083C430.309,-384.22 419.09,-372.569 409.954,-363.081"/>
<polygon fill="midnightblue" stroke="midnightblue" points="412.353,-360.527 402.895,-355.751 407.311,-365.382 412.353,-360.527"/>
</g>
<!-- Node9 -->
<g id="node9" class="node"><title>Node9</title>
<g id="a_node9"><a xlink:href="_object_8h.html" target="_top" xlink:title="Object.h">
<polygon fill="white" stroke="black" points="578.968,-112.5 578.968,-131.5 631.968,-131.5 631.968,-112.5 578.968,-112.5"/>
<text text-anchor="middle" x="605.468" y="-119.5" font-family="Helvetica,sans-Serif" font-size="10.00">Object.h</text>
</a>
</g>
</g>
<!-- Node2&#45;&gt;Node9 -->
<g id="edge35" class="edge"><title>Node2&#45;&gt;Node9</title>
<path fill="none" stroke="midnightblue" d="M482.125,-396.5C534.052,-389.421 627.359,-374.558 655.468,-356 685.004,-336.501 701.468,-326.391 701.468,-291 701.468,-291 701.468,-291 701.468,-233 701.468,-189.543 658.412,-154.957 629.969,-136.851"/>
<polygon fill="midnightblue" stroke="midnightblue" points="631.678,-133.794 621.321,-131.561 628.025,-139.765 631.678,-133.794"/>
</g>
<!-- Node11 -->
<g id="node11" class="node"><title>Node11</title>
<g id="a_node11"><a xlink:href="_serializable_8h.html" target="_top" xlink:title="Serializable.h">
<polygon fill="white" stroke="black" points="174.968,-112.5 174.968,-131.5 249.968,-131.5 249.968,-112.5 174.968,-112.5"/>
<text text-anchor="middle" x="212.468" y="-119.5" font-family="Helvetica,sans-Serif" font-size="10.00">Serializable.h</text>
</a>
</g>
</g>
<!-- Node2&#45;&gt;Node11 -->
<g id="edge36" class="edge"><title>Node2&#45;&gt;Node11</title>
<path fill="none" stroke="midnightblue" d="M410.762,-400.259C375.024,-397.603 320.705,-388.073 287.468,-356 225.713,-296.406 214.718,-185.834 212.828,-141.802"/>
<polygon fill="midnightblue" stroke="midnightblue" points="216.322,-141.561 212.51,-131.676 209.326,-141.781 216.322,-141.561"/>
</g>
<!-- Node7 -->
<g id="node7" class="node"><title>Node7</title>
<polygon fill="white" stroke="#bfbfbf" points="231.968,-0.5 231.968,-19.5 280.968,-19.5 280.968,-0.5 231.968,-0.5"/>
<text text-anchor="middle" x="256.468" y="-7.5" font-family="Helvetica,sans-Serif" font-size="10.00">stdint.h</text>
</g>
<!-- Node6&#45;&gt;Node7 -->
<g id="edge6" class="edge"><title>Node6&#45;&gt;Node7</title>
<path fill="none" stroke="midnightblue" d="M438.243,-56.4435C397.972,-46.3758 331.487,-29.7547 291.059,-19.6476"/>
<polygon fill="midnightblue" stroke="midnightblue" points="291.678,-16.1948 281.128,-17.1649 289.981,-22.9858 291.678,-16.1948"/>
</g>
<!-- Node8&#45;&gt;Node9 -->
<g id="edge8" class="edge"><title>Node8&#45;&gt;Node9</title>
<path fill="none" stroke="midnightblue" d="M411.071,-168.444C454.295,-158.339 525.757,-141.634 568.946,-131.538"/>
<polygon fill="midnightblue" stroke="midnightblue" points="569.818,-134.928 578.759,-129.244 568.225,-128.112 569.818,-134.928"/>
</g>
<!-- Node8&#45;&gt;Node11 -->
<g id="edge11" class="edge"><title>Node8&#45;&gt;Node11</title>
<path fill="none" stroke="midnightblue" d="M348.799,-168.444C321.546,-159.359 278.285,-144.939 247.818,-134.783"/>
<polygon fill="midnightblue" stroke="midnightblue" points="248.611,-131.358 238.018,-131.516 246.398,-137.999 248.611,-131.358"/>
</g>
<!-- Node12 -->
<g id="node12" class="node"><title>Node12</title>
<g id="a_node12"><a xlink:href="_web_interface_8h.html" target="_top" xlink:title="WebInterface.h">
<polygon fill="white" stroke="black" points="351.468,-112.5 351.468,-131.5 433.468,-131.5 433.468,-112.5 351.468,-112.5"/>
<text text-anchor="middle" x="392.468" y="-119.5" font-family="Helvetica,sans-Serif" font-size="10.00">WebInterface.h</text>
</a>
</g>
</g>
<!-- Node8&#45;&gt;Node12 -->
<g id="edge13" class="edge"><title>Node8&#45;&gt;Node12</title>
<path fill="none" stroke="midnightblue" d="M377.441,-168.083C379.852,-160.849 383.332,-150.409 386.336,-141.397"/>
<polygon fill="midnightblue" stroke="midnightblue" points="389.709,-142.345 389.551,-131.751 383.069,-140.131 389.709,-142.345"/>
</g>
<!-- Node8&#45;&gt;Node6 -->
<g id="edge15" class="edge"><title>Node8&#45;&gt;Node6</title>
<path fill="none" stroke="midnightblue" d="M392.976,-168.376C407.949,-160.624 428.73,-148.006 442.468,-132 454.093,-118.456 462.116,-99.6528 466.921,-85.753"/>
<polygon fill="midnightblue" stroke="midnightblue" points="470.375,-86.4421 470.091,-75.8511 463.708,-84.3078 470.375,-86.4421"/>
</g>
<!-- Node13 -->
<g id="node13" class="node"><title>Node13</title>
<polygon fill="white" stroke="#bfbfbf" points="308.468,-56.5 308.468,-75.5 380.468,-75.5 380.468,-56.5 308.468,-56.5"/>
<text text-anchor="middle" x="344.468" y="-63.5" font-family="Helvetica,sans-Serif" font-size="10.00">WebServer.h</text>
</g>
<!-- Node8&#45;&gt;Node13 -->
<g id="edge16" class="edge"><title>Node8&#45;&gt;Node13</title>
<path fill="none" stroke="midnightblue" d="M365.717,-168.286C357.905,-159.84 347.017,-146.246 342.468,-132 337.687,-117.027 338.698,-99.1159 340.615,-85.8906"/>
<polygon fill="midnightblue" stroke="midnightblue" points="344.128,-86.1208 342.41,-75.6662 337.233,-84.9103 344.128,-86.1208"/>
</g>
<!-- Node9&#45;&gt;Node6 -->
<g id="edge9" class="edge"><title>Node9&#45;&gt;Node6</title>
<path fill="none" stroke="midnightblue" d="M584.394,-112.444C562.409,-103.517 527.734,-89.4387 502.804,-79.3168"/>
<polygon fill="midnightblue" stroke="midnightblue" points="504.026,-76.0355 493.444,-75.5164 501.393,-82.5213 504.026,-76.0355"/>
</g>
<!-- Node10 -->
<g id="node10" class="node"><title>Node10</title>
<g id="a_node10"><a xlink:href="_object_types_8h.html" target="_top" xlink:title="Framework/ObjectTypes.h">
<polygon fill="white" stroke="black" points="541.968,-56.5 541.968,-75.5 672.968,-75.5 672.968,-56.5 541.968,-56.5"/>
<text text-anchor="middle" x="607.468" y="-63.5" font-family="Helvetica,sans-Serif" font-size="10.00">Framework/ObjectTypes.h</text>
</a>
</g>
</g>
<!-- Node9&#45;&gt;Node10 -->
<g id="edge10" class="edge"><title>Node9&#45;&gt;Node10</title>
<path fill="none" stroke="midnightblue" d="M605.799,-112.083C606.061,-105.006 606.437,-94.8611 606.765,-85.9865"/>
<polygon fill="midnightblue" stroke="midnightblue" points="610.272,-85.8738 607.144,-75.7511 603.276,-85.6147 610.272,-85.8738"/>
</g>
<!-- Node11&#45;&gt;Node3 -->
<g id="edge12" class="edge"><title>Node11&#45;&gt;Node3</title>
<path fill="none" stroke="midnightblue" d="M207.019,-112.083C202.454,-104.613 195.8,-93.7244 190.175,-84.5199"/>
<polygon fill="midnightblue" stroke="midnightblue" points="193.017,-82.4588 184.816,-75.7511 187.044,-86.109 193.017,-82.4588"/>
</g>
<!-- Node12&#45;&gt;Node13 -->
<g id="edge14" class="edge"><title>Node12&#45;&gt;Node13</title>
<path fill="none" stroke="midnightblue" d="M384.542,-112.083C377.622,-104.298 367.403,-92.8015 359.016,-83.3665"/>
<polygon fill="midnightblue" stroke="midnightblue" points="361.507,-80.8999 352.247,-75.7511 356.275,-85.5505 361.507,-80.8999"/>
</g>
<!-- Node14&#45;&gt;Node9 -->
<g id="edge18" class="edge"><title>Node14&#45;&gt;Node9</title>
<path fill="none" stroke="midnightblue" d="M464.474,-224.368C490.617,-205.573 552.936,-160.768 585.254,-137.533"/>
<polygon fill="midnightblue" stroke="midnightblue" points="587.442,-140.271 593.519,-131.591 583.356,-134.587 587.442,-140.271"/>
</g>
<!-- Node14&#45;&gt;Node6 -->
<g id="edge19" class="edge"><title>Node14&#45;&gt;Node6</title>
<path fill="none" stroke="midnightblue" d="M453.932,-224.391C455.44,-215.346 457.799,-200.699 459.468,-188 464.224,-151.816 468.48,-109.373 470.746,-85.5914"/>
<polygon fill="midnightblue" stroke="midnightblue" points="474.241,-85.8087 471.692,-75.525 467.272,-85.1537 474.241,-85.8087"/>
</g>
<!-- Node14&#45;&gt;Node8 -->
<g id="edge20" class="edge"><title>Node14&#45;&gt;Node8</title>
<path fill="none" stroke="midnightblue" d="M439.936,-224.324C427.882,-215.979 409.442,-203.212 395.2,-193.352"/>
<polygon fill="midnightblue" stroke="midnightblue" points="397.184,-190.469 386.969,-187.655 393.199,-196.224 397.184,-190.469"/>
</g>
<!-- Node14&#45;&gt;Node11 -->
<g id="edge21" class="edge"><title>Node14&#45;&gt;Node11</title>
<path fill="none" stroke="midnightblue" d="M413.439,-224.43C383.31,-217.003 341.066,-204.797 306.468,-188 278.092,-174.223 248.707,-152.489 230.51,-137.994"/>
<polygon fill="midnightblue" stroke="midnightblue" points="232.502,-135.103 222.529,-131.527 228.095,-140.542 232.502,-135.103"/>
</g>
<!-- Node14&#45;&gt;Node12 -->
<g id="edge22" class="edge"><title>Node14&#45;&gt;Node12</title>
<path fill="none" stroke="midnightblue" d="M452.736,-224.434C452.778,-211.434 451.414,-186.302 441.468,-168 434.985,-156.069 424.123,-145.606 414.271,-137.779"/>
<polygon fill="midnightblue" stroke="midnightblue" points="416.115,-134.788 406.008,-131.609 411.926,-140.397 416.115,-134.788"/>
</g>
<!-- Node15&#45;&gt;Node9 -->
<g id="edge24" class="edge"><title>Node15&#45;&gt;Node9</title>
<path fill="none" stroke="midnightblue" d="M618.37,-224.368C616.111,-206.617 610.899,-165.666 607.835,-141.597"/>
<polygon fill="midnightblue" stroke="midnightblue" points="611.296,-141.069 606.562,-131.591 604.353,-141.953 611.296,-141.069"/>
</g>
<!-- Node17 -->
<g id="node17" class="node"><title>Node17</title>
<polygon fill="white" stroke="#bfbfbf" points="69.9684,-280.5 69.9684,-299.5 120.968,-299.5 120.968,-280.5 69.9684,-280.5"/>
<text text-anchor="middle" x="95.4684" y="-287.5" font-family="Helvetica,sans-Serif" font-size="10.00">stddef.h</text>
</g>
<!-- Node16&#45;&gt;Node17 -->
<g id="edge26" class="edge"><title>Node16&#45;&gt;Node17</title>
<path fill="none" stroke="midnightblue" d="M90.4592,-336.083C91.2543,-328.927 92.3978,-318.635 93.3916,-309.691"/>
<polygon fill="midnightblue" stroke="midnightblue" points="96.8703,-310.076 94.4961,-299.751 89.9131,-309.303 96.8703,-310.076"/>
</g>
<!-- Node16&#45;&gt;Node7 -->
<g id="edge27" class="edge"><title>Node16&#45;&gt;Node7</title>
<path fill="none" stroke="midnightblue" d="M82.7942,-336.435C69.6051,-318.623 41.4684,-275.839 41.4684,-235 41.4684,-235 41.4684,-235 41.4684,-121 41.4684,-41.1025 160.597,-19.202 221.503,-13.2263"/>
<polygon fill="midnightblue" stroke="midnightblue" points="222.153,-16.6824 231.805,-12.313 221.535,-9.70976 222.153,-16.6824"/>
</g>
<!-- Node19 -->
<g id="node19" class="node"><title>Node19</title>
<g id="a_node19"><a xlink:href="_config_manager_8h.html" target="_top" xlink:title="ConfigManager.h">
<polygon fill="white" stroke="black" points="335.968,-280.5 335.968,-299.5 424.968,-299.5 424.968,-280.5 335.968,-280.5"/>
<text text-anchor="middle" x="380.468" y="-287.5" font-family="Helvetica,sans-Serif" font-size="10.00">ConfigManager.h</text>
</a>
</g>
</g>
<!-- Node18&#45;&gt;Node19 -->
<g id="edge29" class="edge"><title>Node18&#45;&gt;Node19</title>
<path fill="none" stroke="midnightblue" d="M392.157,-336.083C390.301,-328.927 387.633,-318.635 385.314,-309.691"/>
<polygon fill="midnightblue" stroke="midnightblue" points="388.635,-308.553 382.737,-299.751 381.859,-310.309 388.635,-308.553"/>
</g>
<!-- Node19&#45;&gt;Node3 -->
<g id="edge30" class="edge"><title>Node19&#45;&gt;Node3</title>
<path fill="none" stroke="midnightblue" d="M373.93,-280.497C360.774,-263.299 330.326,-223.037 306.468,-188 283.983,-154.978 287.354,-139.599 258.468,-112 244.481,-98.6355 225.779,-87.7533 210.083,-80.0398"/>
<polygon fill="midnightblue" stroke="midnightblue" points="211.306,-76.7469 200.768,-75.6527 208.323,-83.0798 211.306,-76.7469"/>
</g>
<!-- Node19&#45;&gt;Node2 -->
<g id="edge31" class="edge"><title>Node19&#45;&gt;Node2</title>
<path fill="none" stroke="midnightblue" d="M357.274,-299.632C330.253,-311.026 291.357,-332.421 308.468,-356 329.346,-384.768 369.113,-395.496 400.615,-399.33"/>
<polygon fill="midnightblue" stroke="midnightblue" points="400.639,-402.85 410.942,-400.382 401.349,-395.886 400.639,-402.85"/>
</g>
<!-- Node19&#45;&gt;Node14 -->
<g id="edge32" class="edge"><title>Node19&#45;&gt;Node14</title>
<path fill="none" stroke="midnightblue" d="M392.036,-280.324C402.889,-272.185 419.349,-259.839 432.352,-250.087"/>
<polygon fill="midnightblue" stroke="midnightblue" points="434.79,-252.634 440.69,-243.834 430.59,-247.034 434.79,-252.634"/>
</g>
<!-- Node19&#45;&gt;Node8 -->
<g id="edge33" class="edge"><title>Node19&#45;&gt;Node8</title>
<path fill="none" stroke="midnightblue" d="M379.998,-280.368C379.029,-262.617 376.796,-221.666 375.483,-197.597"/>
<polygon fill="midnightblue" stroke="midnightblue" points="378.977,-197.386 374.937,-187.591 371.987,-197.767 378.977,-197.386"/>
</g>
<!-- Node19&#45;&gt;Node15 -->
<g id="edge34" class="edge"><title>Node19&#45;&gt;Node15</title>
<path fill="none" stroke="midnightblue" d="M418.339,-280.444C459.944,-271.043 526.838,-255.929 571.937,-245.739"/>
<polygon fill="midnightblue" stroke="midnightblue" points="572.793,-249.134 581.775,-243.516 571.25,-242.306 572.793,-249.134"/>
</g>
<!-- Node20&#45;&gt;Node8 -->
<g id="edge38" class="edge"><title>Node20&#45;&gt;Node8</title>
<path fill="none" stroke="midnightblue" d="M166.606,-224.444C209.695,-215.023 279.028,-199.866 325.639,-189.675"/>
<polygon fill="midnightblue" stroke="midnightblue" points="326.492,-193.072 335.514,-187.516 324.997,-186.233 326.492,-193.072"/>
</g>
<!-- Node21 -->
<g id="node21" class="node"><title>Node21</title>
<g id="a_node21"><a xlink:href="_clock_timer_8h.html" target="_top" xlink:title="ClockTimer.h">
<polygon fill="white" stroke="black" points="109.468,-168.5 109.468,-187.5 183.468,-187.5 183.468,-168.5 109.468,-168.5"/>
<text text-anchor="middle" x="146.468" y="-175.5" font-family="Helvetica,sans-Serif" font-size="10.00">ClockTimer.h</text>
</a>
</g>
</g>
<!-- Node20&#45;&gt;Node21 -->
<g id="edge39" class="edge"><title>Node20&#45;&gt;Node21</title>
<path fill="none" stroke="midnightblue" d="M130.606,-224.083C133.151,-216.849 136.825,-206.409 139.995,-197.397"/>
<polygon fill="midnightblue" stroke="midnightblue" points="143.372,-198.346 143.389,-187.751 136.769,-196.023 143.372,-198.346"/>
</g>
<!-- Node21&#45;&gt;Node3 -->
<g id="edge40" class="edge"><title>Node21&#45;&gt;Node3</title>
<path fill="none" stroke="midnightblue" d="M149.002,-168.154C152.599,-155.634 159.424,-132.035 165.468,-112 168.13,-103.177 171.16,-93.4058 173.719,-85.2295"/>
<polygon fill="midnightblue" stroke="midnightblue" points="177.082,-86.2026 176.74,-75.6133 170.404,-84.1042 177.082,-86.2026"/>
</g>
<!-- Node21&#45;&gt;Node11 -->
<g id="edge41" class="edge"><title>Node21&#45;&gt;Node11</title>
<path fill="none" stroke="midnightblue" d="M157.072,-168.324C166.925,-160.263 181.819,-148.077 193.684,-138.369"/>
<polygon fill="midnightblue" stroke="midnightblue" points="196.148,-140.875 201.671,-131.834 191.715,-135.457 196.148,-140.875"/>
</g>
</g>
</svg>
        <g id="navigator" transform="translate(0 0)" fill="#404254">
                <rect fill="#f2f5e9" fill-opacity="0.5" stroke="#606060" stroke-width=".5" x="0" y="0" width="60" height="60"/>
                <use id="zoomplus" xlink:href="#zoomPlus" x="17" y="9" onmousedown="handleZoom(evt,'in')"/>
                <use id="zoomminus" xlink:href="#zoomMin" x="42" y="9" onmousedown="handleZoom(evt,'out')"/>
                <use id="reset" xlink:href="#resetDef" x="30" y="36" onmousedown="handleReset()"/>
                <g id="arrowUp" xlink:href="#dirArrow" transform="translate(30 24)" onmousedown="handlePan(0,-1)">
                  <use xlink:href="#rim" fill="#404040">
                        <set attributeName="fill" to="#808080" begin="arrowUp.mouseover" end="arrowUp.mouseout"/>
                  </use>
                  <path fill="none" stroke="white" stroke-width="1.5" d="M0,-3.0v7 M-2.5,-0.5L0,-3.0L2.5,-0.5"/>
                </g>
                <g id="arrowRight" xlink:href="#dirArrow" transform="rotate(90) translate(36 -43)" onmousedown="handlePan(1,0)">
                  <use xlink:href="#rim" fill="#404040">
                        <set attributeName="fill" to="#808080" begin="arrowRight.mouseover" end="arrowRight.mouseout"/>
                  </use>
                  <path fill="none" stroke="white" stroke-width="1.5" d="M0,-3.0v7 M-2.5,-0.5L0,-3.0L2.5,-0.5"/>
                </g>
                <g id="arrowDown" xlink:href="#dirArrow" transform="rotate(180) translate(-30 -48)" onmousedown="handlePan(0,1)">
                  <use xlink:href="#rim" fill="#404040">
                        <set attributeName="fill" to="#808080" begin="arrowDown.mouseover" end="arrowDown.mouseout"/>
                  </use>
                  <path fill="none" stroke="white" stroke-width="1.5" d="M0,-3.0v7 M-2.5,-0.5L0,-3.0L2.5,-0.5"/>
                </g>
                <g id="arrowLeft" xlink:href="#dirArrow" transform="rotate(270) translate(-36 17)" onmousedown="handlePan(-1,0)">
                  <use xlink:href="#rim" fill="#404040">
                        <set attributeName="fill" to="#808080" begin="arrowLeft.mouseover" end="arrowLeft.mouseout"/>
                  </use>
                  <path fill="none" stroke="white" stroke-width="1.5" d="M0,-3.0v7 M-2.5,-0.5L0,-3.0L2.5,-0.5"/>
                </g>
        </g>
        <svg viewBox="0 0 15 15" width="100%" height="30px" preserveAspectRatio="xMaxYMin meet">
         <g id="arrow_out" transform="scale(0.3 0.3)">
          <a xlink:href="_clock_timer_controller_8cpp__incl_org.svg" target="_base">
           <rect id="button" ry="5" rx="5" y="6" x="6" height="38" width="38"
                fill="#f2f5e9" fill-opacity="0.5" stroke="#606060" stroke-width="1.0"/>
           <path id="arrow"
             d="M 11.500037,31.436501 C 11.940474,20.09759 22.043105,11.32322 32.158766,21.979434 L 37.068811,17.246167 C 37.068811,17.246167 37.088388,32 37.088388,32 L 22.160133,31.978069 C 22.160133,31.978069 26.997745,27.140456 26.997745,27.140456 C 18.528582,18.264221 13.291696,25.230495 11.500037,31.436501 z"
             style="fill:#404040;"/>
          </a>
         </g>
        </svg>
</svg>
