<?xml version="1.0" encoding="UTF-8" standalone="no"?>
<!DOCTYPE svg PUBLIC "-//W3C//DTD SVG 1.1//EN"
 "http://www.w3.org/Graphics/SVG/1.1/DTD/svg11.dtd">
<!-- Generated by graphviz version 2.30.1 (20130214.1330)
 -->
<!-- Title: Controller/ClockTimer.h Pages: 1 -->
<svg width="346pt" height="140pt"
 viewBox="0.00 0.00 346.00 140.00" xmlns="http://www.w3.org/2000/svg" xmlns:xlink="http://www.w3.org/1999/xlink">
<g id="graph0" class="graph" transform="scale(1 1) rotate(0) translate(4 136)">
<title>Controller/ClockTimer.h</title>
<polygon fill="white" stroke="white" points="-4,5 -4,-136 343,-136 343,5 -4,5"/>
<!-- Node1 -->
<g id="node1" class="node"><title>Node1</title>
<polygon fill="#bfbfbf" stroke="black" points="134,-112.5 134,-131.5 252,-131.5 252,-112.5 134,-112.5"/>
<text text-anchor="middle" x="193" y="-119.5" font-family="Helvetica,sans-Serif" font-size="10.00">Controller/ClockTimer.h</text>
</g>
<!-- Node2 -->
<g id="node2" class="node"><title>Node2</title>
<g id="a_node2"><a xlink:href="_clock_timer_controller_8h.html" target="_top" xlink:title="Controller/ClockTimerController.h">
<polygon fill="white" stroke="black" points="32.5,-56.5 32.5,-75.5 191.5,-75.5 191.5,-56.5 32.5,-56.5"/>
<text text-anchor="middle" x="112" y="-63.5" font-family="Helvetica,sans-Serif" font-size="10.00">Controller/ClockTimerController.h</text>
</a>
</g>
</g>
<!-- Node1&#45;&gt;Node2 -->
<g id="edge1" class="edge"><title>Node1&#45;&gt;Node2</title>
<path fill="none" stroke="midnightblue" d="M171.433,-106.622C156.636,-96.7574 137.488,-83.9919 124.982,-75.6545"/>
<polygon fill="midnightblue" stroke="midnightblue" points="169.724,-109.689 179.986,-112.324 173.607,-103.865 169.724,-109.689"/>
</g>
<!-- Node5 -->
<g id="node5" class="node"><title>Node5</title>
<g id="a_node5"><a xlink:href="_clock_timer_8cpp.html" target="_top" xlink:title="Controller/ClockTimer.cpp">
<polygon fill="white" stroke="black" points="210,-56.5 210,-75.5 338,-75.5 338,-56.5 210,-56.5"/>
<text text-anchor="middle" x="274" y="-63.5" font-family="Helvetica,sans-Serif" font-size="10.00">Controller/ClockTimer.cpp</text>
</a>
</g>
</g>
<!-- Node1&#45;&gt;Node5 -->
<g id="edge4" class="edge"><title>Node1&#45;&gt;Node5</title>
<path fill="none" stroke="midnightblue" d="M214.567,-106.622C229.364,-96.7574 248.512,-83.9919 261.018,-75.6545"/>
<polygon fill="midnightblue" stroke="midnightblue" points="212.393,-103.865 206.014,-112.324 216.276,-109.689 212.393,-103.865"/>
</g>
<!-- Node3 -->
<g id="node3" class="node"><title>Node3</title>
<g id="a_node3"><a xlink:href="_aquaduino_8cpp.html" target="_top" xlink:title="Aquaduino.cpp">
<polygon fill="white" stroke="black" points="-0.5,-0.5 -0.5,-19.5 80.5,-19.5 80.5,-0.5 -0.5,-0.5"/>
<text text-anchor="middle" x="40" y="-7.5" font-family="Helvetica,sans-Serif" font-size="10.00">Aquaduino.cpp</text>
</a>
</g>
</g>
<!-- Node2&#45;&gt;Node3 -->
<g id="edge2" class="edge"><title>Node2&#45;&gt;Node3</title>
<path fill="none" stroke="midnightblue" d="M92.1343,-50.1008C79.1765,-40.3824 62.7026,-28.0269 51.7785,-19.8339"/>
<polygon fill="midnightblue" stroke="midnightblue" points="90.3319,-53.1239 100.432,-56.324 94.5319,-47.5239 90.3319,-53.1239"/>
</g>
<!-- Node4 -->
<g id="node4" class="node"><title>Node4</title>
<g id="a_node4"><a xlink:href="_clock_timer_controller_8cpp.html" target="_top" xlink:title="Controller/ClockTimerController.cpp">
<polygon fill="white" stroke="black" points="99,-0.5 99,-19.5 269,-19.5 269,-0.5 99,-0.5"/>
<text text-anchor="middle" x="184" y="-7.5" font-family="Helvetica,sans-Serif" font-size="10.00">Controller/ClockTimerController.cpp</text>
</a>
</g>
</g>
<!-- Node2&#45;&gt;Node4 -->
<g id="edge3" class="edge"><title>Node2&#45;&gt;Node4</title>
<path fill="none" stroke="midnightblue" d="M131.866,-50.1008C144.823,-40.3824 161.297,-28.0269 172.221,-19.8339"/>
<polygon fill="midnightblue" stroke="midnightblue" points="129.468,-47.5239 123.568,-56.324 133.668,-53.1239 129.468,-47.5239"/>
</g>
</g>
</svg>
