<?xml version="1.0" encoding="UTF-8" standalone="no"?>
<!DOCTYPE svg PUBLIC "-//W3C//DTD SVG 1.1//EN"
 "http://www.w3.org/Graphics/SVG/1.1/DTD/svg11.dtd">
<!-- Generated by graphviz version 2.30.1 (20130214.1330)
 -->
<!-- Title: Controller/ClockTimer.cpp Pages: 1 -->
<svg width="154pt" height="196pt"
 viewBox="0.00 0.00 154.00 196.00" xmlns="http://www.w3.org/2000/svg" xmlns:xlink="http://www.w3.org/1999/xlink">
<g id="graph0" class="graph" transform="scale(1 1) rotate(0) translate(4 192)">
<title>Controller/ClockTimer.cpp</title>
<polygon fill="white" stroke="white" points="-4,5 -4,-192 151,-192 151,5 -4,5"/>
<!-- Node1 -->
<g id="node1" class="node"><title>Node1</title>
<polygon fill="#bfbfbf" stroke="black" points="12,-168.5 12,-187.5 140,-187.5 140,-168.5 12,-168.5"/>
<text text-anchor="middle" x="76" y="-175.5" font-family="Helvetica,sans-Serif" font-size="10.00">Controller/ClockTimer.cpp</text>
</g>
<!-- Node2 -->
<g id="node2" class="node"><title>Node2</title>
<g id="a_node2"><a xlink:href="_clock_timer_8h.html" target="_top" xlink:title="ClockTimer.h">
<polygon fill="white" stroke="black" points="0,-112.5 0,-131.5 74,-131.5 74,-112.5 0,-112.5"/>
<text text-anchor="middle" x="37" y="-119.5" font-family="Helvetica,sans-Serif" font-size="10.00">ClockTimer.h</text>
</a>
</g>
</g>
<!-- Node1&#45;&gt;Node2 -->
<g id="edge1" class="edge"><title>Node1&#45;&gt;Node2</title>
<path fill="none" stroke="midnightblue" d="M69.5599,-168.083C64.0511,-160.455 55.9688,-149.264 49.235,-139.941"/>
<polygon fill="midnightblue" stroke="midnightblue" points="52.0126,-137.809 43.3202,-131.751 46.3378,-141.907 52.0126,-137.809"/>
</g>
<!-- Node5 -->
<g id="node5" class="node"><title>Node5</title>
<polygon fill="white" stroke="#bfbfbf" points="92,-112.5 92,-131.5 138,-131.5 138,-112.5 92,-112.5"/>
<text text-anchor="middle" x="115" y="-119.5" font-family="Helvetica,sans-Serif" font-size="10.00">Time.h</text>
</g>
<!-- Node1&#45;&gt;Node5 -->
<g id="edge5" class="edge"><title>Node1&#45;&gt;Node5</title>
<path fill="none" stroke="midnightblue" d="M82.4401,-168.083C87.9489,-160.455 96.0312,-149.264 102.765,-139.941"/>
<polygon fill="midnightblue" stroke="midnightblue" points="105.662,-141.907 108.68,-131.751 99.9874,-137.809 105.662,-141.907"/>
</g>
<!-- Node3 -->
<g id="node3" class="node"><title>Node3</title>
<polygon fill="white" stroke="#bfbfbf" points="8,-0.5 8,-19.5 66,-19.5 66,-0.5 8,-0.5"/>
<text text-anchor="middle" x="37" y="-7.5" font-family="Helvetica,sans-Serif" font-size="10.00">Arduino.h</text>
</g>
<!-- Node2&#45;&gt;Node3 -->
<g id="edge2" class="edge"><title>Node2&#45;&gt;Node3</title>
<path fill="none" stroke="midnightblue" d="M30.1097,-112.319C23.7306,-103.684 14.6919,-89.7696 11,-76 6.49159,-59.1852 15.1675,-40.8382 23.6856,-27.9374"/>
<polygon fill="midnightblue" stroke="midnightblue" points="26.6786,-29.7699 29.6694,-19.606 20.993,-25.6864 26.6786,-29.7699"/>
</g>
<!-- Node4 -->
<g id="node4" class="node"><title>Node4</title>
<g id="a_node4"><a xlink:href="_serializable_8h.html" target="_top" xlink:title="Framework/Serializable.h">
<polygon fill="white" stroke="black" points="20,-56.5 20,-75.5 146,-75.5 146,-56.5 20,-56.5"/>
<text text-anchor="middle" x="83" y="-63.5" font-family="Helvetica,sans-Serif" font-size="10.00">Framework/Serializable.h</text>
</a>
</g>
</g>
<!-- Node2&#45;&gt;Node4 -->
<g id="edge3" class="edge"><title>Node2&#45;&gt;Node4</title>
<path fill="none" stroke="midnightblue" d="M44.596,-112.083C51.2275,-104.298 61.021,-92.8015 69.0581,-83.3665"/>
<polygon fill="midnightblue" stroke="midnightblue" points="71.725,-85.6332 75.5454,-75.7511 66.3963,-81.0939 71.725,-85.6332"/>
</g>
<!-- Node4&#45;&gt;Node3 -->
<g id="edge4" class="edge"><title>Node4&#45;&gt;Node3</title>
<path fill="none" stroke="midnightblue" d="M75.404,-56.083C68.7725,-48.2982 58.979,-36.8015 50.9419,-27.3665"/>
<polygon fill="midnightblue" stroke="midnightblue" points="53.6037,-25.0939 44.4546,-19.7511 48.275,-29.6332 53.6037,-25.0939"/>
</g>
</g>
</svg>
