<?xml version="1.0" encoding="UTF-8" standalone="no"?>
<!DOCTYPE svg PUBLIC "-//W3C//DTD SVG 1.1//EN"
 "http://www.w3.org/Graphics/SVG/1.1/DTD/svg11.dtd">
<!-- Generated by graphviz version 2.30.1 (20130214.1330)
 -->
<!-- Title: Controller/ClockTimerController.h Pages: 1 -->
<svg width="427pt" height="252pt"
 viewBox="0.00 0.00 427.00 252.00" xmlns="http://www.w3.org/2000/svg" xmlns:xlink="http://www.w3.org/1999/xlink">
<g id="graph0" class="graph" transform="scale(1 1) rotate(0) translate(4 248)">
<title>Controller/ClockTimerController.h</title>
<polygon fill="white" stroke="white" points="-4,5 -4,-248 424,-248 424,5 -4,5"/>
<!-- Node1 -->
<g id="node1" class="node"><title>Node1</title>
<polygon fill="#bfbfbf" stroke="black" points="186.5,-224.5 186.5,-243.5 345.5,-243.5 345.5,-224.5 186.5,-224.5"/>
<text text-anchor="middle" x="266" y="-231.5" font-family="Helvetica,sans-Serif" font-size="10.00">Controller/ClockTimerController.h</text>
</g>
<!-- Node2 -->
<g id="node2" class="node"><title>Node2</title>
<g id="a_node2"><a xlink:href="_controller_8h.html" target="_top" xlink:title="Framework/Controller.h">
<polygon fill="white" stroke="black" points="147.5,-168.5 147.5,-187.5 264.5,-187.5 264.5,-168.5 147.5,-168.5"/>
<text text-anchor="middle" x="206" y="-175.5" font-family="Helvetica,sans-Serif" font-size="10.00">Framework/Controller.h</text>
</a>
</g>
</g>
<!-- Node1&#45;&gt;Node2 -->
<g id="edge1" class="edge"><title>Node1&#45;&gt;Node2</title>
<path fill="none" stroke="midnightblue" d="M256.36,-224.324C247.49,-216.341 234.125,-204.313 223.392,-194.653"/>
<polygon fill="midnightblue" stroke="midnightblue" points="225.59,-191.922 215.815,-187.834 220.907,-197.125 225.59,-191.922"/>
</g>
<!-- Node11 -->
<g id="node11" class="node"><title>Node11</title>
<g id="a_node11"><a xlink:href="_clock_timer_8h.html" target="_top" xlink:title="ClockTimer.h">
<polygon fill="white" stroke="black" points="287,-168.5 287,-187.5 361,-187.5 361,-168.5 287,-168.5"/>
<text text-anchor="middle" x="324" y="-175.5" font-family="Helvetica,sans-Serif" font-size="10.00">ClockTimer.h</text>
</a>
</g>
</g>
<!-- Node1&#45;&gt;Node11 -->
<g id="edge12" class="edge"><title>Node1&#45;&gt;Node11</title>
<path fill="none" stroke="midnightblue" d="M275.319,-224.324C283.893,-216.341 296.812,-204.313 307.188,-194.653"/>
<polygon fill="midnightblue" stroke="midnightblue" points="309.578,-197.21 314.512,-187.834 304.808,-192.086 309.578,-197.21"/>
</g>
<!-- Node3 -->
<g id="node3" class="node"><title>Node3</title>
<g id="a_node3"><a xlink:href="_object_8h.html" target="_top" xlink:title="Object.h">
<polygon fill="white" stroke="black" points="176.5,-112.5 176.5,-131.5 229.5,-131.5 229.5,-112.5 176.5,-112.5"/>
<text text-anchor="middle" x="203" y="-119.5" font-family="Helvetica,sans-Serif" font-size="10.00">Object.h</text>
</a>
</g>
</g>
<!-- Node2&#45;&gt;Node3 -->
<g id="edge2" class="edge"><title>Node2&#45;&gt;Node3</title>
<path fill="none" stroke="midnightblue" d="M205.505,-168.083C205.111,-161.006 204.548,-150.861 204.055,-141.986"/>
<polygon fill="midnightblue" stroke="midnightblue" points="207.536,-141.542 203.486,-131.751 200.546,-141.93 207.536,-141.542"/>
</g>
<!-- Node7 -->
<g id="node7" class="node"><title>Node7</title>
<g id="a_node7"><a xlink:href="_serializable_8h.html" target="_top" xlink:title="Serializable.h">
<polygon fill="white" stroke="black" points="286.5,-112.5 286.5,-131.5 361.5,-131.5 361.5,-112.5 286.5,-112.5"/>
<text text-anchor="middle" x="324" y="-119.5" font-family="Helvetica,sans-Serif" font-size="10.00">Serializable.h</text>
</a>
</g>
</g>
<!-- Node2&#45;&gt;Node7 -->
<g id="edge6" class="edge"><title>Node2&#45;&gt;Node7</title>
<path fill="none" stroke="midnightblue" d="M224.697,-168.444C243.944,-159.636 274.152,-145.812 296.2,-135.722"/>
<polygon fill="midnightblue" stroke="midnightblue" points="297.753,-138.86 305.39,-131.516 294.84,-132.495 297.753,-138.86"/>
</g>
<!-- Node9 -->
<g id="node9" class="node"><title>Node9</title>
<g id="a_node9"><a xlink:href="_web_interface_8h.html" target="_top" xlink:title="WebInterface.h">
<polygon fill="white" stroke="black" points="6,-112.5 6,-131.5 88,-131.5 88,-112.5 6,-112.5"/>
<text text-anchor="middle" x="47" y="-119.5" font-family="Helvetica,sans-Serif" font-size="10.00">WebInterface.h</text>
</a>
</g>
</g>
<!-- Node2&#45;&gt;Node9 -->
<g id="edge8" class="edge"><title>Node2&#45;&gt;Node9</title>
<path fill="none" stroke="midnightblue" d="M180.806,-168.444C154.057,-159.359 111.597,-144.939 81.6948,-134.783"/>
<polygon fill="midnightblue" stroke="midnightblue" points="82.6705,-131.418 72.0762,-131.516 80.4194,-138.046 82.6705,-131.418"/>
</g>
<!-- Node4 -->
<g id="node4" class="node"><title>Node4</title>
<g id="a_node4"><a xlink:href="_config_8h.html" target="_top" xlink:title="Framework/Config.h">
<polygon fill="white" stroke="black" points="239.5,-56.5 239.5,-75.5 342.5,-75.5 342.5,-56.5 239.5,-56.5"/>
<text text-anchor="middle" x="291" y="-63.5" font-family="Helvetica,sans-Serif" font-size="10.00">Framework/Config.h</text>
</a>
</g>
</g>
<!-- Node2&#45;&gt;Node4 -->
<g id="edge10" class="edge"><title>Node2&#45;&gt;Node4</title>
<path fill="none" stroke="midnightblue" d="M212.67,-168.368C226.759,-150.135 259.762,-107.426 278.115,-83.6752"/>
<polygon fill="midnightblue" stroke="midnightblue" points="281.016,-85.6444 284.361,-75.5914 275.477,-81.3642 281.016,-85.6444"/>
</g>
<!-- Node10 -->
<g id="node10" class="node"><title>Node10</title>
<polygon fill="white" stroke="#bfbfbf" points="0,-56.5 0,-75.5 72,-75.5 72,-56.5 0,-56.5"/>
<text text-anchor="middle" x="36" y="-63.5" font-family="Helvetica,sans-Serif" font-size="10.00">WebServer.h</text>
</g>
<!-- Node2&#45;&gt;Node10 -->
<g id="edge11" class="edge"><title>Node2&#45;&gt;Node10</title>
<path fill="none" stroke="midnightblue" d="M192.66,-168.368C163.488,-149.492 93.7768,-104.385 58.0021,-81.2367"/>
<polygon fill="midnightblue" stroke="midnightblue" points="59.5748,-78.0855 49.2776,-75.5914 55.772,-83.9625 59.5748,-78.0855"/>
</g>
<!-- Node3&#45;&gt;Node4 -->
<g id="edge3" class="edge"><title>Node3&#45;&gt;Node4</title>
<path fill="none" stroke="midnightblue" d="M217.139,-112.324C230.866,-103.9 251.936,-90.9709 268.064,-81.0741"/>
<polygon fill="midnightblue" stroke="midnightblue" points="270.204,-83.8678 276.896,-75.6545 266.543,-77.9016 270.204,-83.8678"/>
</g>
<!-- Node6 -->
<g id="node6" class="node"><title>Node6</title>
<g id="a_node6"><a xlink:href="_object_types_8h.html" target="_top" xlink:title="Framework/ObjectTypes.h">
<polygon fill="white" stroke="black" points="90.5,-56.5 90.5,-75.5 221.5,-75.5 221.5,-56.5 90.5,-56.5"/>
<text text-anchor="middle" x="156" y="-63.5" font-family="Helvetica,sans-Serif" font-size="10.00">Framework/ObjectTypes.h</text>
</a>
</g>
</g>
<!-- Node3&#45;&gt;Node6 -->
<g id="edge5" class="edge"><title>Node3&#45;&gt;Node6</title>
<path fill="none" stroke="midnightblue" d="M195.239,-112.083C188.463,-104.298 178.457,-92.8015 170.245,-83.3665"/>
<polygon fill="midnightblue" stroke="midnightblue" points="172.822,-80.9963 163.617,-75.7511 167.542,-85.592 172.822,-80.9963"/>
</g>
<!-- Node5 -->
<g id="node5" class="node"><title>Node5</title>
<polygon fill="white" stroke="#bfbfbf" points="266.5,-0.5 266.5,-19.5 315.5,-19.5 315.5,-0.5 266.5,-0.5"/>
<text text-anchor="middle" x="291" y="-7.5" font-family="Helvetica,sans-Serif" font-size="10.00">stdint.h</text>
</g>
<!-- Node4&#45;&gt;Node5 -->
<g id="edge4" class="edge"><title>Node4&#45;&gt;Node5</title>
<path fill="none" stroke="midnightblue" d="M291,-56.083C291,-49.0059 291,-38.8611 291,-29.9865"/>
<polygon fill="midnightblue" stroke="midnightblue" points="294.5,-29.751 291,-19.7511 287.5,-29.7511 294.5,-29.751"/>
</g>
<!-- Node8 -->
<g id="node8" class="node"><title>Node8</title>
<polygon fill="white" stroke="#bfbfbf" points="361,-56.5 361,-75.5 419,-75.5 419,-56.5 361,-56.5"/>
<text text-anchor="middle" x="390" y="-63.5" font-family="Helvetica,sans-Serif" font-size="10.00">Arduino.h</text>
</g>
<!-- Node7&#45;&gt;Node8 -->
<g id="edge7" class="edge"><title>Node7&#45;&gt;Node8</title>
<path fill="none" stroke="midnightblue" d="M334.604,-112.324C344.456,-104.263 359.351,-92.0765 371.215,-82.3695"/>
<polygon fill="midnightblue" stroke="midnightblue" points="373.68,-84.8752 379.203,-75.8339 369.247,-79.4575 373.68,-84.8752"/>
</g>
<!-- Node9&#45;&gt;Node10 -->
<g id="edge9" class="edge"><title>Node9&#45;&gt;Node10</title>
<path fill="none" stroke="midnightblue" d="M45.1836,-112.083C43.7259,-104.927 41.6294,-94.6353 39.8075,-85.6911"/>
<polygon fill="midnightblue" stroke="midnightblue" points="43.2083,-84.8512 37.7826,-75.7511 36.3492,-86.2485 43.2083,-84.8512"/>
</g>
<!-- Node11&#45;&gt;Node8 -->
<g id="edge13" class="edge"><title>Node11&#45;&gt;Node8</title>
<path fill="none" stroke="midnightblue" d="M335.824,-168.258C346.217,-159.991 361.045,-146.691 370,-132 378.738,-117.666 383.939,-99.2025 386.837,-85.619"/>
<polygon fill="midnightblue" stroke="midnightblue" points="390.321,-86.033 388.756,-75.5544 383.445,-84.7217 390.321,-86.033"/>
</g>
<!-- Node11&#45;&gt;Node7 -->
<g id="edge14" class="edge"><title>Node11&#45;&gt;Node7</title>
<path fill="none" stroke="midnightblue" d="M324,-168.083C324,-161.006 324,-150.861 324,-141.986"/>
<polygon fill="midnightblue" stroke="midnightblue" points="327.5,-141.751 324,-131.751 320.5,-141.751 327.5,-141.751"/>
</g>
</g>
</svg>
