<?xml version="1.0" encoding="UTF-8" standalone="no"?>
<!DOCTYPE svg PUBLIC "-//W3C//DTD SVG 1.1//EN"
 "http://www.w3.org/Graphics/SVG/1.1/DTD/svg11.dtd">
<!-- Generated by graphviz version 2.30.1 (20130214.1330)
 -->
<!-- Title: Framework/Config.h Pages: 1 -->
<!--zoomable 420 -->
<svg id="main" version="1.1" xmlns="http://www.w3.org/2000/svg" xmlns:xlink="http://www.w3.org/1999/xlink" xml:space="preserve" onload="init(evt)">
<style type="text/css"><![CDATA[
.edge:hover path { stroke: red; }
.edge:hover polygon { stroke: red; fill: red; }
]]></style>
<script type="text/javascript"><![CDATA[
var edges = document.getElementsByTagName('g');
if (edges && edges.length) {
  for (var i=0;i<edges.length;i++) {
    if (edges[i].id.substr(0,4)=='edge') {
      edges[i].setAttribute('class','edge');
    }
  }
}
]]></script>
        <defs>
                <circle id="rim" cx="0" cy="0" r="7"/>
                <circle id="rim2" cx="0" cy="0" r="3.5"/>
                <g id="zoomPlus">
                        <use xlink:href="#rim" fill="#404040">
                                <set attributeName="fill" to="#808080" begin="zoomplus.mouseover" end="zoomplus.mouseout"/>
                        </use>
                        <path d="M-4,0h8M0,-4v8" fill="none" stroke="white" stroke-width="1.5" pointer-events="none"/>
                </g>
                <g id="zoomMin">
                        <use xlink:href="#rim" fill="#404040">
                                <set attributeName="fill" to="#808080" begin="zoomminus.mouseover" end="zoomminus.mouseout"/>
                        </use>
                        <path d="M-4,0h8" fill="none" stroke="white" stroke-width="1.5" pointer-events="none"/>
                </g>
                <g id="dirArrow">
                        <path fill="none" stroke="white" stroke-width="1.5" d="M0,-3.0v7 M-2.5,-0.5L0,-3.0L2.5,-0.5"/>
                </g>
               <g id="resetDef">
                       <use xlink:href="#rim2" fill="#404040">
                               <set attributeName="fill" to="#808080" begin="reset.mouseover" end="reset.mouseout"/>
                       </use>
               </g>
        </defs>

<script type="text/javascript">
var viewWidth = 2209;
var viewHeight = 420;
var sectionId = 'dynsection-1';
</script>
<script xlink:href="svgpan.js"/>
<svg id="graph" class="graph">
<g id="viewport">
<title>Framework/Config.h</title>
<polygon fill="white" stroke="white" points="-4,5 -4,-416 2206,-416 2206,5 -4,5"/>
<!-- Node1 -->
<g id="node1" class="node"><title>Node1</title>
<polygon fill="#bfbfbf" stroke="black" points="1271.5,-392.5 1271.5,-411.5 1374.5,-411.5 1374.5,-392.5 1271.5,-392.5"/>
<text text-anchor="middle" x="1323" y="-399.5" font-family="Helvetica,sans-Serif" font-size="10.00">Framework/Config.h</text>
</g>
<!-- Node2 -->
<g id="node2" class="node"><title>Node2</title>
<g id="a_node2"><a xlink:href="_aquaduino_8h.html" target="_top" xlink:title="Aquaduino.h">
<polygon fill="white" stroke="black" points="997.5,-168.5 997.5,-187.5 1068.5,-187.5 1068.5,-168.5 997.5,-168.5"/>
<text text-anchor="middle" x="1033" y="-175.5" font-family="Helvetica,sans-Serif" font-size="10.00">Aquaduino.h</text>
</a>
</g>
</g>
<!-- Node1&#45;&gt;Node2 -->
<g id="edge1" class="edge"><title>Node1&#45;&gt;Node2</title>
<path fill="none" stroke="midnightblue" d="M1281.69,-389.275C1259.11,-381.772 1231.29,-370.674 1209,-356 1131.54,-305.015 1060.59,-215.585 1039.4,-187.612"/>
<polygon fill="midnightblue" stroke="midnightblue" points="1280.74,-392.646 1291.33,-392.37 1282.88,-385.981 1280.74,-392.646"/>
</g>
<!-- Node16 -->
<g id="node16" class="node"><title>Node16</title>
<g id="a_node16"><a xlink:href="_object_8h.html" target="_top" xlink:title="Framework/Object.h">
<polygon fill="white" stroke="black" points="1218,-336.5 1218,-355.5 1322,-355.5 1322,-336.5 1218,-336.5"/>
<text text-anchor="middle" x="1270" y="-343.5" font-family="Helvetica,sans-Serif" font-size="10.00">Framework/Object.h</text>
</a>
</g>
</g>
<!-- Node1&#45;&gt;Node16 -->
<g id="edge17" class="edge"><title>Node1&#45;&gt;Node16</title>
<path fill="none" stroke="midnightblue" d="M1307.02,-384.718C1297.68,-375.2 1286.25,-363.561 1278.59,-355.751"/>
<polygon fill="midnightblue" stroke="midnightblue" points="1304.75,-387.398 1314.25,-392.083 1309.74,-382.494 1304.75,-387.398"/>
</g>
<!-- Node17 -->
<g id="node17" class="node"><title>Node17</title>
<g id="a_node17"><a xlink:href="_controller_8h.html" target="_top" xlink:title="Framework/Controller.h">
<polygon fill="white" stroke="black" points="1332.5,-280.5 1332.5,-299.5 1449.5,-299.5 1449.5,-280.5 1332.5,-280.5"/>
<text text-anchor="middle" x="1391" y="-287.5" font-family="Helvetica,sans-Serif" font-size="10.00">Framework/Controller.h</text>
</a>
</g>
</g>
<!-- Node1&#45;&gt;Node17 -->
<g id="edge56" class="edge"><title>Node1&#45;&gt;Node17</title>
<path fill="none" stroke="midnightblue" d="M1333.73,-383.64C1348.5,-359.744 1374.54,-317.629 1385.69,-299.591"/>
<polygon fill="midnightblue" stroke="midnightblue" points="1330.62,-382.022 1328.34,-392.368 1336.57,-385.703 1330.62,-382.022"/>
</g>
<!-- Node18 -->
<g id="node18" class="node"><title>Node18</title>
<g id="a_node18"><a xlink:href="_actuator_8h.html" target="_top" xlink:title="Framework/Actuator.h">
<polygon fill="white" stroke="black" points="1685.5,-224.5 1685.5,-243.5 1798.5,-243.5 1798.5,-224.5 1685.5,-224.5"/>
<text text-anchor="middle" x="1742" y="-231.5" font-family="Helvetica,sans-Serif" font-size="10.00">Framework/Actuator.h</text>
</a>
</g>
</g>
<!-- Node1&#45;&gt;Node18 -->
<g id="edge57" class="edge"><title>Node1&#45;&gt;Node18</title>
<path fill="none" stroke="midnightblue" d="M1354.31,-388.597C1435.53,-356.418 1651.48,-270.86 1720.48,-243.524"/>
<polygon fill="midnightblue" stroke="midnightblue" points="1352.65,-385.487 1344.64,-392.425 1355.23,-391.995 1352.65,-385.487"/>
</g>
<!-- Node3 -->
<g id="node3" class="node"><title>Node3</title>
<g id="a_node3"><a xlink:href="_digital_output_8cpp.html" target="_top" xlink:title="Actuators/DigitalOutput.cpp">
<polygon fill="white" stroke="black" points="1595.5,-112.5 1595.5,-131.5 1732.5,-131.5 1732.5,-112.5 1595.5,-112.5"/>
<text text-anchor="middle" x="1664" y="-119.5" font-family="Helvetica,sans-Serif" font-size="10.00">Actuators/DigitalOutput.cpp</text>
</a>
</g>
</g>
<!-- Node2&#45;&gt;Node3 -->
<g id="edge2" class="edge"><title>Node2&#45;&gt;Node3</title>
<path fill="none" stroke="midnightblue" d="M1079.07,-167.869C1303.44,-137.665 1363.5,-152.695 1586,-132 1588.99,-131.722 1592.03,-131.426 1595.11,-131.116"/>
<polygon fill="midnightblue" stroke="midnightblue" points="1078.39,-164.429 1068.95,-169.246 1079.33,-171.365 1078.39,-164.429"/>
</g>
<!-- Node4 -->
<g id="node4" class="node"><title>Node4</title>
<g id="a_node4"><a xlink:href="_config_manager_8h.html" target="_top" xlink:title="Framework/ConfigManager.h">
<polygon fill="white" stroke="black" points="1751,-112.5 1751,-131.5 1891,-131.5 1891,-112.5 1751,-112.5"/>
<text text-anchor="middle" x="1821" y="-119.5" font-family="Helvetica,sans-Serif" font-size="10.00">Framework/ConfigManager.h</text>
</a>
</g>
</g>
<!-- Node2&#45;&gt;Node4 -->
<g id="edge3" class="edge"><title>Node2&#45;&gt;Node4</title>
<path fill="none" stroke="midnightblue" d="M1079.01,-167.911C1371.87,-130.867 1449.78,-156.255 1741,-132 1744.2,-131.733 1747.48,-131.442 1750.78,-131.132"/>
<polygon fill="midnightblue" stroke="midnightblue" points="1078.42,-164.457 1068.95,-169.197 1079.31,-171.401 1078.42,-164.457"/>
</g>
<!-- Node7 -->
<g id="node7" class="node"><title>Node7</title>
<g id="a_node7"><a xlink:href="_aquaduino_8cpp.html" target="_top" xlink:title="Aquaduino.cpp">
<polygon fill="white" stroke="black" points="1303.5,-112.5 1303.5,-131.5 1384.5,-131.5 1384.5,-112.5 1303.5,-112.5"/>
<text text-anchor="middle" x="1344" y="-119.5" font-family="Helvetica,sans-Serif" font-size="10.00">Aquaduino.cpp</text>
</a>
</g>
</g>
<!-- Node2&#45;&gt;Node7 -->
<g id="edge7" class="edge"><title>Node2&#45;&gt;Node7</title>
<path fill="none" stroke="midnightblue" d="M1078.39,-167.794C1174.78,-150.086 1200.77,-148.123 1294,-132 1297.04,-131.474 1300.19,-130.923 1303.35,-130.365"/>
<polygon fill="midnightblue" stroke="midnightblue" points="1077.72,-164.358 1068.52,-169.616 1078.99,-171.242 1077.72,-164.358"/>
</g>
<!-- Node8 -->
<g id="node8" class="node"><title>Node8</title>
<g id="a_node8"><a xlink:href="_clock_timer_controller_8cpp.html" target="_top" xlink:title="Controller/ClockTimerController.cpp">
<polygon fill="white" stroke="black" points="954,-112.5 954,-131.5 1124,-131.5 1124,-112.5 954,-112.5"/>
<text text-anchor="middle" x="1039" y="-119.5" font-family="Helvetica,sans-Serif" font-size="10.00">Controller/ClockTimerController.cpp</text>
</a>
</g>
</g>
<!-- Node2&#45;&gt;Node8 -->
<g id="edge8" class="edge"><title>Node2&#45;&gt;Node8</title>
<path fill="none" stroke="midnightblue" d="M1035.1,-158.101C1036.1,-149.136 1037.24,-138.858 1038.03,-131.751"/>
<polygon fill="midnightblue" stroke="midnightblue" points="1031.62,-157.758 1033.99,-168.083 1038.57,-158.531 1031.62,-157.758"/>
</g>
<!-- Node9 -->
<g id="node9" class="node"><title>Node9</title>
<g id="a_node9"><a xlink:href="_level_controller_8cpp.html" target="_top" xlink:title="Controller/LevelController.cpp">
<polygon fill="white" stroke="black" points="1142.5,-112.5 1142.5,-131.5 1285.5,-131.5 1285.5,-112.5 1142.5,-112.5"/>
<text text-anchor="middle" x="1214" y="-119.5" font-family="Helvetica,sans-Serif" font-size="10.00">Controller/LevelController.cpp</text>
</a>
</g>
</g>
<!-- Node2&#45;&gt;Node9 -->
<g id="edge9" class="edge"><title>Node2&#45;&gt;Node9</title>
<path fill="none" stroke="midnightblue" d="M1071.32,-165.568C1105.46,-155.381 1154.66,-140.703 1185.45,-131.516"/>
<polygon fill="midnightblue" stroke="midnightblue" points="1070.26,-162.231 1061.68,-168.444 1072.26,-168.938 1070.26,-162.231"/>
</g>
<!-- Node10 -->
<g id="node10" class="node"><title>Node10</title>
<g id="a_node10"><a xlink:href="_temperature_controller_8cpp.html" target="_top" xlink:title="Controller/TemperatureController.cpp">
<polygon fill="white" stroke="black" points="1402.5,-112.5 1402.5,-131.5 1577.5,-131.5 1577.5,-112.5 1402.5,-112.5"/>
<text text-anchor="middle" x="1490" y="-119.5" font-family="Helvetica,sans-Serif" font-size="10.00">Controller/TemperatureController.cpp</text>
</a>
</g>
</g>
<!-- Node2&#45;&gt;Node10 -->
<g id="edge10" class="edge"><title>Node2&#45;&gt;Node10</title>
<path fill="none" stroke="midnightblue" d="M1079.25,-167.793C1152.9,-156.938 1305.56,-141.216 1402.9,-131.526"/>
<polygon fill="midnightblue" stroke="midnightblue" points="1078.33,-164.393 1068.97,-169.358 1079.38,-171.313 1078.33,-164.393"/>
</g>
<!-- Node11 -->
<g id="node11" class="node"><title>Node11</title>
<g id="a_node11"><a xlink:href="_controller_8cpp.html" target="_top" xlink:title="Framework/Controller.cpp">
<polygon fill="white" stroke="black" points="1909,-112.5 1909,-131.5 2037,-131.5 2037,-112.5 1909,-112.5"/>
<text text-anchor="middle" x="1973" y="-119.5" font-family="Helvetica,sans-Serif" font-size="10.00">Framework/Controller.cpp</text>
</a>
</g>
</g>
<!-- Node2&#45;&gt;Node11 -->
<g id="edge11" class="edge"><title>Node2&#45;&gt;Node11</title>
<path fill="none" stroke="midnightblue" d="M1078.94,-167.941C1442.11,-123.878 1538.43,-162.149 1900,-132 1902.93,-131.756 1905.92,-131.483 1908.94,-131.189"/>
<polygon fill="midnightblue" stroke="midnightblue" points="1078.44,-164.476 1068.94,-169.166 1079.29,-171.424 1078.44,-164.476"/>
</g>
<!-- Node12 -->
<g id="node12" class="node"><title>Node12</title>
<g id="a_node12"><a xlink:href="_n_t_p_sync_8cpp.html" target="_top" xlink:title="Framework/NTPSync.cpp">
<polygon fill="white" stroke="black" points="732,-112.5 732,-131.5 860,-131.5 860,-112.5 732,-112.5"/>
<text text-anchor="middle" x="796" y="-119.5" font-family="Helvetica,sans-Serif" font-size="10.00">Framework/NTPSync.cpp</text>
</a>
</g>
</g>
<!-- Node2&#45;&gt;Node12 -->
<g id="edge12" class="edge"><title>Node2&#45;&gt;Node12</title>
<path fill="none" stroke="midnightblue" d="M987.247,-166.575C942.535,-156.388 875.285,-141.065 833.598,-131.567"/>
<polygon fill="midnightblue" stroke="midnightblue" points="986.734,-170.048 997.262,-168.857 988.29,-163.223 986.734,-170.048"/>
</g>
<!-- Node6 -->
<g id="node6" class="node"><title>Node6</title>
<g id="a_node6"><a xlink:href="_s_d_config_manager_8cpp.html" target="_top" xlink:title="Framework/SDConfigManager.cpp">
<polygon fill="white" stroke="black" points="858,-0.5 858,-19.5 1022,-19.5 1022,-0.5 858,-0.5"/>
<text text-anchor="middle" x="940" y="-7.5" font-family="Helvetica,sans-Serif" font-size="10.00">Framework/SDConfigManager.cpp</text>
</a>
</g>
</g>
<!-- Node2&#45;&gt;Node6 -->
<g id="edge13" class="edge"><title>Node2&#45;&gt;Node6</title>
<path fill="none" stroke="midnightblue" d="M994.205,-164.941C975.554,-157.672 953.863,-146.891 938,-132 911.403,-107.033 895.65,-90.6692 907,-56 911.702,-41.6367 922.928,-28.0685 930.98,-19.66"/>
<polygon fill="midnightblue" stroke="midnightblue" points="993.041,-168.242 1003.63,-168.426 995.468,-161.676 993.041,-168.242"/>
</g>
<!-- Node13 -->
<g id="node13" class="node"><title>Node13</title>
<g id="a_node13"><a xlink:href="configweb_8cpp.html" target="_top" xlink:title="Webinterface/configweb.cpp">
<polygon fill="white" stroke="black" points="274,-112.5 274,-131.5 412,-131.5 412,-112.5 274,-112.5"/>
<text text-anchor="middle" x="343" y="-119.5" font-family="Helvetica,sans-Serif" font-size="10.00">Webinterface/configweb.cpp</text>
</a>
</g>
</g>
<!-- Node2&#45;&gt;Node13 -->
<g id="edge14" class="edge"><title>Node2&#45;&gt;Node13</title>
<path fill="none" stroke="midnightblue" d="M987.045,-168.066C735.887,-135.668 669.189,-154.183 421,-132 418.149,-131.745 415.24,-131.472 412.304,-131.184"/>
<polygon fill="midnightblue" stroke="midnightblue" points="986.842,-171.57 997.211,-169.392 987.747,-164.628 986.842,-171.57"/>
</g>
<!-- Node14 -->
<g id="node14" class="node"><title>Node14</title>
<g id="a_node14"><a xlink:href="dispatch_8cpp.html" target="_top" xlink:title="Webinterface/dispatch.cpp">
<polygon fill="white" stroke="black" points="430,-112.5 430,-131.5 562,-131.5 562,-112.5 430,-112.5"/>
<text text-anchor="middle" x="496" y="-119.5" font-family="Helvetica,sans-Serif" font-size="10.00">Webinterface/dispatch.cpp</text>
</a>
</g>
</g>
<!-- Node2&#45;&gt;Node14 -->
<g id="edge15" class="edge"><title>Node2&#45;&gt;Node14</title>
<path fill="none" stroke="midnightblue" d="M987.137,-168.037C802.12,-142.039 752.788,-150.749 571,-132 568.13,-131.704 565.2,-131.392 562.24,-131.07"/>
<polygon fill="midnightblue" stroke="midnightblue" points="986.808,-171.526 997.2,-169.467 987.792,-164.595 986.808,-171.526"/>
</g>
<!-- Node15 -->
<g id="node15" class="node"><title>Node15</title>
<g id="a_node15"><a xlink:href="mainweb_8cpp.html" target="_top" xlink:title="Webinterface/mainweb.cpp">
<polygon fill="white" stroke="black" points="580,-112.5 580,-131.5 714,-131.5 714,-112.5 580,-112.5"/>
<text text-anchor="middle" x="647" y="-119.5" font-family="Helvetica,sans-Serif" font-size="10.00">Webinterface/mainweb.cpp</text>
</a>
</g>
</g>
<!-- Node2&#45;&gt;Node15 -->
<g id="edge16" class="edge"><title>Node2&#45;&gt;Node15</title>
<path fill="none" stroke="midnightblue" d="M986.994,-167.954C922.336,-157.668 793.608,-141.265 714.133,-131.323"/>
<polygon fill="midnightblue" stroke="midnightblue" points="986.745,-171.46 997.178,-169.613 987.871,-164.551 986.745,-171.46"/>
</g>
<!-- Node5 -->
<g id="node5" class="node"><title>Node5</title>
<g id="a_node5"><a xlink:href="_s_d_config_manager_8h.html" target="_top" xlink:title="Framework/SDConfigManager.h">
<polygon fill="white" stroke="black" points="916,-56.5 916,-75.5 1070,-75.5 1070,-56.5 916,-56.5"/>
<text text-anchor="middle" x="993" y="-63.5" font-family="Helvetica,sans-Serif" font-size="10.00">Framework/SDConfigManager.h</text>
</a>
</g>
</g>
<!-- Node4&#45;&gt;Node5 -->
<g id="edge4" class="edge"><title>Node4&#45;&gt;Node5</title>
<path fill="none" stroke="midnightblue" d="M1740.7,-112.025C1488.72,-90.5144 1204.05,-76.3674 1070.09,-70.3151"/>
<polygon fill="midnightblue" stroke="midnightblue" points="1740.52,-115.523 1750.78,-112.892 1741.12,-108.548 1740.52,-115.523"/>
</g>
<!-- Node5&#45;&gt;Node2 -->
<g id="edge5" class="edge"><title>Node5&#45;&gt;Node2</title>
<path fill="none" stroke="midnightblue" d="M970.199,-81.4332C952.908,-94.2785 933.864,-113.798 945,-132 956.373,-150.589 978.119,-161.81 997.148,-168.397"/>
<polygon fill="midnightblue" stroke="midnightblue" points="972.213,-84.2951 978.406,-75.6985 968.204,-78.5571 972.213,-84.2951"/>
</g>
<!-- Node5&#45;&gt;Node6 -->
<g id="edge6" class="edge"><title>Node5&#45;&gt;Node6</title>
<path fill="none" stroke="midnightblue" d="M977.019,-48.7175C967.678,-39.1997 956.254,-27.5608 948.589,-19.7511"/>
<polygon fill="midnightblue" stroke="midnightblue" points="974.746,-51.3978 984.248,-56.083 979.741,-46.4945 974.746,-51.3978"/>
</g>
<!-- Node16&#45;&gt;Node17 -->
<g id="edge18" class="edge"><title>Node16&#45;&gt;Node17</title>
<path fill="none" stroke="midnightblue" d="M1298.31,-332.368C1320.97,-322.255 1352.13,-308.349 1371.92,-299.516"/>
<polygon fill="midnightblue" stroke="midnightblue" points="1296.88,-329.172 1289.17,-336.444 1299.73,-335.564 1296.88,-329.172"/>
</g>
<!-- Node16&#45;&gt;Node18 -->
<g id="edge43" class="edge"><title>Node16&#45;&gt;Node18</title>
<path fill="none" stroke="midnightblue" d="M1316.42,-334.182C1410.18,-312.331 1620.45,-263.327 1705.38,-243.535"/>
<polygon fill="midnightblue" stroke="midnightblue" points="1315.59,-330.782 1306.64,-336.46 1317.18,-337.599 1315.59,-330.782"/>
</g>
<!-- Node26 -->
<g id="node26" class="node"><title>Node26</title>
<g id="a_node26"><a xlink:href="_sensor_8h.html" target="_top" xlink:title="Framework/Sensor.h">
<polygon fill="white" stroke="black" points="916.5,-224.5 916.5,-243.5 1023.5,-243.5 1023.5,-224.5 916.5,-224.5"/>
<text text-anchor="middle" x="970" y="-231.5" font-family="Helvetica,sans-Serif" font-size="10.00">Framework/Sensor.h</text>
</a>
</g>
</g>
<!-- Node16&#45;&gt;Node26 -->
<g id="edge44" class="edge"><title>Node16&#45;&gt;Node26</title>
<path fill="none" stroke="midnightblue" d="M1236.78,-332.86C1212.03,-323.81 1177.4,-311.142 1147,-300 1091.83,-279.777 1027.01,-255.957 993.191,-243.527"/>
<polygon fill="midnightblue" stroke="midnightblue" points="1235.82,-336.235 1246.42,-336.382 1238.23,-329.661 1235.82,-336.235"/>
</g>
<!-- Node16&#45;&gt;Node2 -->
<g id="edge54" class="edge"><title>Node16&#45;&gt;Node2</title>
<path fill="none" stroke="midnightblue" d="M1241.4,-331.878C1225.45,-323.853 1205.7,-312.701 1190,-300 1155,-271.675 1158.68,-251.464 1123,-224 1102.23,-208.018 1074.9,-195.315 1055.83,-187.536"/>
<polygon fill="midnightblue" stroke="midnightblue" points="1240.25,-335.211 1250.77,-336.456 1243.33,-328.921 1240.25,-335.211"/>
</g>
<!-- Node32 -->
<g id="node32" class="node"><title>Node32</title>
<g id="a_node32"><a xlink:href="_object_8cpp.html" target="_top" xlink:title="Framework/Object.cpp">
<polygon fill="white" stroke="black" points="1199.5,-280.5 1199.5,-299.5 1314.5,-299.5 1314.5,-280.5 1199.5,-280.5"/>
<text text-anchor="middle" x="1257" y="-287.5" font-family="Helvetica,sans-Serif" font-size="10.00">Framework/Object.cpp</text>
</a>
</g>
</g>
<!-- Node16&#45;&gt;Node32 -->
<g id="edge55" class="edge"><title>Node16&#45;&gt;Node32</title>
<path fill="none" stroke="midnightblue" d="M1265.45,-326.101C1263.29,-317.136 1260.82,-306.858 1259.11,-299.751"/>
<polygon fill="midnightblue" stroke="midnightblue" points="1262.11,-327.18 1267.85,-336.083 1268.92,-325.542 1262.11,-327.18"/>
</g>
<!-- Node17&#45;&gt;Node2 -->
<g id="edge19" class="edge"><title>Node17&#45;&gt;Node2</title>
<path fill="none" stroke="midnightblue" d="M1353.62,-277.514C1281.57,-255.376 1124.95,-207.252 1061.02,-187.61"/>
<polygon fill="midnightblue" stroke="midnightblue" points="1352.62,-280.868 1363.21,-280.46 1354.68,-274.177 1352.62,-280.868"/>
</g>
<!-- Node17&#45;&gt;Node18 -->
<g id="edge20" class="edge"><title>Node17&#45;&gt;Node18</title>
<path fill="none" stroke="midnightblue" d="M1456.54,-278.917C1522.85,-268.715 1624.24,-253.117 1686.64,-243.516"/>
<polygon fill="midnightblue" stroke="midnightblue" points="1455.97,-275.464 1446.62,-280.444 1457.03,-282.382 1455.97,-275.464"/>
</g>
<!-- Node17&#45;&gt;Node4 -->
<g id="edge36" class="edge"><title>Node17&#45;&gt;Node4</title>
<path fill="none" stroke="midnightblue" d="M1444.64,-278.473C1534.4,-260.201 1710.49,-221.374 1764,-188 1787.69,-173.226 1807.04,-145.608 1815.86,-131.608"/>
<polygon fill="midnightblue" stroke="midnightblue" points="1443.76,-275.078 1434.66,-280.492 1445.15,-281.939 1443.76,-275.078"/>
</g>
<!-- Node22 -->
<g id="node22" class="node"><title>Node22</title>
<g id="a_node22"><a xlink:href="_temperature_controller_8h.html" target="_top" xlink:title="Controller/TemperatureController.h">
<polygon fill="white" stroke="black" points="1414,-168.5 1414,-187.5 1578,-187.5 1578,-168.5 1414,-168.5"/>
<text text-anchor="middle" x="1496" y="-175.5" font-family="Helvetica,sans-Serif" font-size="10.00">Controller/TemperatureController.h</text>
</a>
</g>
</g>
<!-- Node17&#45;&gt;Node22 -->
<g id="edge37" class="edge"><title>Node17&#45;&gt;Node22</title>
<path fill="none" stroke="midnightblue" d="M1406.37,-272.897C1428.94,-249.249 1470.28,-205.949 1487.8,-187.591"/>
<polygon fill="midnightblue" stroke="midnightblue" points="1403.61,-270.718 1399.24,-280.368 1408.68,-275.552 1403.61,-270.718"/>
</g>
<!-- Node23 -->
<g id="node23" class="node"><title>Node23</title>
<g id="a_node23"><a xlink:href="_level_controller_8h.html" target="_top" xlink:title="Controller/LevelController.h">
<polygon fill="white" stroke="black" points="1264,-168.5 1264,-187.5 1396,-187.5 1396,-168.5 1264,-168.5"/>
<text text-anchor="middle" x="1330" y="-175.5" font-family="Helvetica,sans-Serif" font-size="10.00">Controller/LevelController.h</text>
</a>
</g>
</g>
<!-- Node17&#45;&gt;Node23 -->
<g id="edge38" class="edge"><title>Node17&#45;&gt;Node23</title>
<path fill="none" stroke="midnightblue" d="M1381.2,-271.32C1367.91,-247.37 1344.72,-205.548 1334.76,-187.591"/>
<polygon fill="midnightblue" stroke="midnightblue" points="1378.3,-273.321 1386.21,-280.368 1384.42,-269.926 1378.3,-273.321"/>
</g>
<!-- Node25 -->
<g id="node25" class="node"><title>Node25</title>
<g id="a_node25"><a xlink:href="_clock_timer_controller_8h.html" target="_top" xlink:title="Controller/ClockTimerController.h">
<polygon fill="white" stroke="black" points="1086.5,-168.5 1086.5,-187.5 1245.5,-187.5 1245.5,-168.5 1086.5,-168.5"/>
<text text-anchor="middle" x="1166" y="-175.5" font-family="Helvetica,sans-Serif" font-size="10.00">Controller/ClockTimerController.h</text>
</a>
</g>
</g>
<!-- Node17&#45;&gt;Node25 -->
<g id="edge39" class="edge"><title>Node17&#45;&gt;Node25</title>
<path fill="none" stroke="midnightblue" d="M1364.16,-275.878C1317.52,-253.078 1222.76,-206.751 1183.57,-187.591"/>
<polygon fill="midnightblue" stroke="midnightblue" points="1362.82,-279.121 1373.34,-280.368 1365.9,-272.832 1362.82,-279.121"/>
</g>
<!-- Node17&#45;&gt;Node11 -->
<g id="edge42" class="edge"><title>Node17&#45;&gt;Node11</title>
<path fill="none" stroke="midnightblue" d="M1460.04,-289.235C1609.7,-288.069 1956.03,-275.739 2024,-188 2039.72,-167.703 2008.52,-144.011 1988.33,-131.595"/>
<polygon fill="midnightblue" stroke="midnightblue" points="1459.59,-285.738 1449.61,-289.301 1459.63,-292.738 1459.59,-285.738"/>
</g>
<!-- Node18&#45;&gt;Node2 -->
<g id="edge21" class="edge"><title>Node18&#45;&gt;Node2</title>
<path fill="none" stroke="midnightblue" d="M1675.1,-231.44C1554.88,-227.977 1294.55,-217.474 1077,-188 1074.37,-187.644 1071.67,-187.224 1068.95,-186.763"/>
<polygon fill="midnightblue" stroke="midnightblue" points="1675.16,-234.943 1685.25,-231.725 1675.35,-227.945 1675.16,-234.943"/>
</g>
<!-- Node18&#45;&gt;Node4 -->
<g id="edge22" class="edge"><title>Node18&#45;&gt;Node4</title>
<path fill="none" stroke="midnightblue" d="M1767.66,-219.023C1779.65,-211.309 1793.2,-200.709 1802,-188 1814.18,-170.411 1818.65,-144.978 1820.21,-131.745"/>
<polygon fill="midnightblue" stroke="midnightblue" points="1765.62,-216.163 1758.89,-224.346 1769.26,-222.146 1765.62,-216.163"/>
</g>
<!-- Node19 -->
<g id="node19" class="node"><title>Node19</title>
<g id="a_node19"><a xlink:href="_digital_output_8h.html" target="_top" xlink:title="Actuators/DigitalOutput.h">
<polygon fill="white" stroke="black" points="1596,-168.5 1596,-187.5 1722,-187.5 1722,-168.5 1596,-168.5"/>
<text text-anchor="middle" x="1659" y="-175.5" font-family="Helvetica,sans-Serif" font-size="10.00">Actuators/DigitalOutput.h</text>
</a>
</g>
</g>
<!-- Node18&#45;&gt;Node19 -->
<g id="edge23" class="edge"><title>Node18&#45;&gt;Node19</title>
<path fill="none" stroke="midnightblue" d="M1719.9,-218.622C1704.74,-208.757 1685.12,-195.992 1672.3,-187.655"/>
<polygon fill="midnightblue" stroke="midnightblue" points="1718.37,-221.804 1728.66,-224.324 1722.19,-215.937 1718.37,-221.804"/>
</g>
<!-- Node20 -->
<g id="node20" class="node"><title>Node20</title>
<g id="a_node20"><a xlink:href="_p_w_m_output_8h.html" target="_top" xlink:title="Actuators/PWMOutput.h">
<polygon fill="white" stroke="black" points="2072,-168.5 2072,-187.5 2196,-187.5 2196,-168.5 2072,-168.5"/>
<text text-anchor="middle" x="2134" y="-175.5" font-family="Helvetica,sans-Serif" font-size="10.00">Actuators/PWMOutput.h</text>
</a>
</g>
</g>
<!-- Node18&#45;&gt;Node20 -->
<g id="edge26" class="edge"><title>Node18&#45;&gt;Node20</title>
<path fill="none" stroke="midnightblue" d="M1808.69,-223.813C1882.51,-213.644 2000.5,-197.39 2072.26,-187.505"/>
<polygon fill="midnightblue" stroke="midnightblue" points="1808.01,-220.374 1798.58,-225.206 1808.97,-227.308 1808.01,-220.374"/>
</g>
<!-- Node18&#45;&gt;Node22 -->
<g id="edge28" class="edge"><title>Node18&#45;&gt;Node22</title>
<path fill="none" stroke="midnightblue" d="M1693.17,-222.281C1646.68,-212.077 1577.64,-196.92 1534.8,-187.516"/>
<polygon fill="midnightblue" stroke="midnightblue" points="1692.5,-225.718 1703.02,-224.444 1694,-218.881 1692.5,-225.718"/>
</g>
<!-- Node18&#45;&gt;Node23 -->
<g id="edge31" class="edge"><title>Node18&#45;&gt;Node23</title>
<path fill="none" stroke="midnightblue" d="M1675.04,-224.224C1597.77,-214.097 1471.56,-197.554 1395.09,-187.531"/>
<polygon fill="midnightblue" stroke="midnightblue" points="1674.78,-227.719 1685.15,-225.548 1675.69,-220.778 1674.78,-227.719"/>
</g>
<!-- Node24 -->
<g id="node24" class="node"><title>Node24</title>
<g id="a_node24"><a xlink:href="_actuator_8cpp.html" target="_top" xlink:title="Framework/Actuator.cpp">
<polygon fill="white" stroke="black" points="1892.5,-168.5 1892.5,-187.5 2015.5,-187.5 2015.5,-168.5 1892.5,-168.5"/>
<text text-anchor="middle" x="1954" y="-175.5" font-family="Helvetica,sans-Serif" font-size="10.00">Framework/Actuator.cpp</text>
</a>
</g>
</g>
<!-- Node18&#45;&gt;Node24 -->
<g id="edge34" class="edge"><title>Node18&#45;&gt;Node24</title>
<path fill="none" stroke="midnightblue" d="M1785.35,-221.959C1825.39,-211.76 1884.03,-196.822 1920.57,-187.516"/>
<polygon fill="midnightblue" stroke="midnightblue" points="1784.42,-218.583 1775.59,-224.444 1786.15,-225.367 1784.42,-218.583"/>
</g>
<!-- Node18&#45;&gt;Node11 -->
<g id="edge35" class="edge"><title>Node18&#45;&gt;Node11</title>
<path fill="none" stroke="midnightblue" d="M1769.26,-220.021C1817.03,-197.272 1914.64,-150.791 1954.96,-131.591"/>
<polygon fill="midnightblue" stroke="midnightblue" points="1767.65,-216.909 1760.13,-224.368 1770.66,-223.229 1767.65,-216.909"/>
</g>
<!-- Node19&#45;&gt;Node3 -->
<g id="edge24" class="edge"><title>Node19&#45;&gt;Node3</title>
<path fill="none" stroke="midnightblue" d="M1660.75,-158.101C1661.58,-149.136 1662.53,-138.858 1663.19,-131.751"/>
<polygon fill="midnightblue" stroke="midnightblue" points="1657.26,-157.803 1659.83,-168.083 1664.23,-158.448 1657.26,-157.803"/>
</g>
<!-- Node19&#45;&gt;Node7 -->
<g id="edge25" class="edge"><title>Node19&#45;&gt;Node7</title>
<path fill="none" stroke="midnightblue" d="M1596.88,-166.745C1542.95,-157.78 1462.76,-144.307 1393,-132 1390.27,-131.519 1387.46,-131.018 1384.63,-130.509"/>
<polygon fill="midnightblue" stroke="midnightblue" points="1596.54,-170.235 1606.97,-168.421 1597.68,-163.33 1596.54,-170.235"/>
</g>
<!-- Node21 -->
<g id="node21" class="node"><title>Node21</title>
<g id="a_node21"><a xlink:href="_p_w_m_output_8cpp.html" target="_top" xlink:title="Actuators/PWMOutput.cpp">
<polygon fill="white" stroke="black" points="2067,-112.5 2067,-131.5 2201,-131.5 2201,-112.5 2067,-112.5"/>
<text text-anchor="middle" x="2134" y="-119.5" font-family="Helvetica,sans-Serif" font-size="10.00">Actuators/PWMOutput.cpp</text>
</a>
</g>
</g>
<!-- Node20&#45;&gt;Node21 -->
<g id="edge27" class="edge"><title>Node20&#45;&gt;Node21</title>
<path fill="none" stroke="midnightblue" d="M2134,-157.805C2134,-148.91 2134,-138.78 2134,-131.751"/>
<polygon fill="midnightblue" stroke="midnightblue" points="2130.5,-158.083 2134,-168.083 2137.5,-158.083 2130.5,-158.083"/>
</g>
<!-- Node22&#45;&gt;Node7 -->
<g id="edge29" class="edge"><title>Node22&#45;&gt;Node7</title>
<path fill="none" stroke="midnightblue" d="M1462.33,-165.039C1433.73,-154.879 1393.39,-140.546 1367.97,-131.516"/>
<polygon fill="midnightblue" stroke="midnightblue" points="1461.32,-168.394 1471.92,-168.444 1463.66,-161.798 1461.32,-168.394"/>
</g>
<!-- Node22&#45;&gt;Node10 -->
<g id="edge30" class="edge"><title>Node22&#45;&gt;Node10</title>
<path fill="none" stroke="midnightblue" d="M1493.9,-158.101C1492.9,-149.136 1491.76,-138.858 1490.97,-131.751"/>
<polygon fill="midnightblue" stroke="midnightblue" points="1490.43,-158.531 1495.01,-168.083 1497.38,-157.758 1490.43,-158.531"/>
</g>
<!-- Node23&#45;&gt;Node7 -->
<g id="edge32" class="edge"><title>Node23&#45;&gt;Node7</title>
<path fill="none" stroke="midnightblue" d="M1334.82,-158.396C1337.17,-149.362 1339.87,-138.936 1341.73,-131.751"/>
<polygon fill="midnightblue" stroke="midnightblue" points="1331.43,-157.525 1332.31,-168.083 1338.21,-159.281 1331.43,-157.525"/>
</g>
<!-- Node23&#45;&gt;Node9 -->
<g id="edge33" class="edge"><title>Node23&#45;&gt;Node9</title>
<path fill="none" stroke="midnightblue" d="M1302.28,-164.096C1280.61,-154.007 1251.1,-140.27 1232.29,-131.516"/>
<polygon fill="midnightblue" stroke="midnightblue" points="1301.08,-167.396 1311.62,-168.444 1304.03,-161.05 1301.08,-167.396"/>
</g>
<!-- Node25&#45;&gt;Node7 -->
<g id="edge40" class="edge"><title>Node25&#45;&gt;Node7</title>
<path fill="none" stroke="midnightblue" d="M1204.12,-165.436C1237.68,-155.255 1285.77,-140.664 1315.93,-131.516"/>
<polygon fill="midnightblue" stroke="midnightblue" points="1202.76,-162.191 1194.2,-168.444 1204.79,-168.89 1202.76,-162.191"/>
</g>
<!-- Node25&#45;&gt;Node8 -->
<g id="edge41" class="edge"><title>Node25&#45;&gt;Node8</title>
<path fill="none" stroke="midnightblue" d="M1136.61,-164.503C1112.8,-154.38 1079.89,-140.388 1059.03,-131.516"/>
<polygon fill="midnightblue" stroke="midnightblue" points="1135.3,-167.751 1145.88,-168.444 1138.04,-161.31 1135.3,-167.751"/>
</g>
<!-- Node26&#45;&gt;Node2 -->
<g id="edge45" class="edge"><title>Node26&#45;&gt;Node2</title>
<path fill="none" stroke="midnightblue" d="M988.04,-217.537C999.273,-207.909 1013.32,-195.869 1022.69,-187.834"/>
<polygon fill="midnightblue" stroke="midnightblue" points="985.437,-215.159 980.122,-224.324 989.992,-220.473 985.437,-215.159"/>
</g>
<!-- Node26&#45;&gt;Node4 -->
<g id="edge46" class="edge"><title>Node26&#45;&gt;Node4</title>
<path fill="none" stroke="midnightblue" d="M1033.69,-231.275C1204.85,-226.351 1666.21,-211.085 1731,-188 1765.13,-175.838 1797.67,-146.484 1812.55,-131.748"/>
<polygon fill="midnightblue" stroke="midnightblue" points="1033.47,-227.78 1023.57,-231.563 1033.67,-234.777 1033.47,-227.78"/>
</g>
<!-- Node27 -->
<g id="node27" class="node"><title>Node27</title>
<g id="a_node27"><a xlink:href="_d_s18_s20_8h.html" target="_top" xlink:title="Sensors/DS18S20.h">
<polygon fill="white" stroke="black" points="608.5,-168.5 608.5,-187.5 713.5,-187.5 713.5,-168.5 608.5,-168.5"/>
<text text-anchor="middle" x="661" y="-175.5" font-family="Helvetica,sans-Serif" font-size="10.00">Sensors/DS18S20.h</text>
</a>
</g>
</g>
<!-- Node26&#45;&gt;Node27 -->
<g id="edge47" class="edge"><title>Node26&#45;&gt;Node27</title>
<path fill="none" stroke="midnightblue" d="M910.856,-222.664C852.461,-212.459 764.221,-197.039 709.733,-187.516"/>
<polygon fill="midnightblue" stroke="midnightblue" points="910.585,-226.17 921.038,-224.444 911.79,-219.274 910.585,-226.17"/>
</g>
<!-- Node29 -->
<g id="node29" class="node"><title>Node29</title>
<g id="a_node29"><a xlink:href="_digital_input_8h.html" target="_top" xlink:title="Sensors/DigitalInput.h">
<polygon fill="white" stroke="black" points="732,-168.5 732,-187.5 844,-187.5 844,-168.5 732,-168.5"/>
<text text-anchor="middle" x="788" y="-175.5" font-family="Helvetica,sans-Serif" font-size="10.00">Sensors/DigitalInput.h</text>
</a>
</g>
</g>
<!-- Node26&#45;&gt;Node29 -->
<g id="edge50" class="edge"><title>Node26&#45;&gt;Node29</title>
<path fill="none" stroke="midnightblue" d="M931.469,-221.568C897.136,-211.381 847.667,-196.703 816.704,-187.516"/>
<polygon fill="midnightblue" stroke="midnightblue" points="930.579,-224.954 941.162,-224.444 932.57,-218.244 930.579,-224.954"/>
</g>
<!-- Node31 -->
<g id="node31" class="node"><title>Node31</title>
<g id="a_node31"><a xlink:href="_sensor_8cpp.html" target="_top" xlink:title="Framework/Sensor.cpp">
<polygon fill="white" stroke="black" points="862.5,-168.5 862.5,-187.5 979.5,-187.5 979.5,-168.5 862.5,-168.5"/>
<text text-anchor="middle" x="921" y="-175.5" font-family="Helvetica,sans-Serif" font-size="10.00">Framework/Sensor.cpp</text>
</a>
</g>
</g>
<!-- Node26&#45;&gt;Node31 -->
<g id="edge53" class="edge"><title>Node26&#45;&gt;Node31</title>
<path fill="none" stroke="midnightblue" d="M954.966,-216.431C946.378,-206.967 935.957,-195.483 928.941,-187.751"/>
<polygon fill="midnightblue" stroke="midnightblue" points="952.597,-219.029 961.909,-224.083 957.781,-214.325 952.597,-219.029"/>
</g>
<!-- Node27&#45;&gt;Node7 -->
<g id="edge48" class="edge"><title>Node27&#45;&gt;Node7</title>
<path fill="none" stroke="midnightblue" d="M723.997,-167.992C977.683,-142.255 1044.89,-162.171 1294,-132 1297.06,-131.629 1300.23,-131.191 1303.4,-130.711"/>
<polygon fill="midnightblue" stroke="midnightblue" points="723.318,-164.544 713.729,-169.049 724.035,-171.507 723.318,-164.544"/>
</g>
<!-- Node28 -->
<g id="node28" class="node"><title>Node28</title>
<g id="a_node28"><a xlink:href="_d_s18_s20_8cpp.html" target="_top" xlink:title="Sensors/DS18S20.cpp">
<polygon fill="white" stroke="black" points="0,-112.5 0,-131.5 116,-131.5 116,-112.5 0,-112.5"/>
<text text-anchor="middle" x="58" y="-119.5" font-family="Helvetica,sans-Serif" font-size="10.00">Sensors/DS18S20.cpp</text>
</a>
</g>
</g>
<!-- Node27&#45;&gt;Node28 -->
<g id="edge49" class="edge"><title>Node27&#45;&gt;Node28</title>
<path fill="none" stroke="midnightblue" d="M598.17,-172.743C497.955,-165.725 295.801,-150.63 125,-132 122.083,-131.682 119.097,-131.34 116.083,-130.982"/>
<polygon fill="midnightblue" stroke="midnightblue" points="598.201,-176.254 608.42,-173.458 598.688,-169.271 598.201,-176.254"/>
</g>
<!-- Node29&#45;&gt;Node7 -->
<g id="edge51" class="edge"><title>Node29&#45;&gt;Node7</title>
<path fill="none" stroke="midnightblue" d="M854.387,-167.908C1050.19,-146.859 1102.24,-157.026 1294,-132 1297.06,-131.601 1300.22,-131.142 1303.39,-130.648"/>
<polygon fill="midnightblue" stroke="midnightblue" points="853.909,-164.439 844.346,-169.001 854.666,-171.398 853.909,-164.439"/>
</g>
<!-- Node30 -->
<g id="node30" class="node"><title>Node30</title>
<g id="a_node30"><a xlink:href="_digital_input_8cpp.html" target="_top" xlink:title="Sensors/DigitalInput.cpp">
<polygon fill="white" stroke="black" points="134,-112.5 134,-131.5 256,-131.5 256,-112.5 134,-112.5"/>
<text text-anchor="middle" x="195" y="-119.5" font-family="Helvetica,sans-Serif" font-size="10.00">Sensors/DigitalInput.cpp</text>
</a>
</g>
</g>
<!-- Node29&#45;&gt;Node30 -->
<g id="edge52" class="edge"><title>Node29&#45;&gt;Node30</title>
<path fill="none" stroke="midnightblue" d="M721.712,-168.039C517.719,-146.438 464.39,-152.659 265,-132 262.075,-131.697 259.083,-131.372 256.063,-131.031"/>
<polygon fill="midnightblue" stroke="midnightblue" points="721.542,-171.541 731.857,-169.123 722.286,-164.58 721.542,-171.541"/>
</g>
</g>
</svg>
        <g id="navigator" transform="translate(0 0)" fill="#404254">
                <rect fill="#f2f5e9" fill-opacity="0.5" stroke="#606060" stroke-width=".5" x="0" y="0" width="60" height="60"/>
                <use id="zoomplus" xlink:href="#zoomPlus" x="17" y="9" onmousedown="handleZoom(evt,'in')"/>
                <use id="zoomminus" xlink:href="#zoomMin" x="42" y="9" onmousedown="handleZoom(evt,'out')"/>
                <use id="reset" xlink:href="#resetDef" x="30" y="36" onmousedown="handleReset()"/>
                <g id="arrowUp" xlink:href="#dirArrow" transform="translate(30 24)" onmousedown="handlePan(0,-1)">
                  <use xlink:href="#rim" fill="#404040">
                        <set attributeName="fill" to="#808080" begin="arrowUp.mouseover" end="arrowUp.mouseout"/>
                  </use>
                  <path fill="none" stroke="white" stroke-width="1.5" d="M0,-3.0v7 M-2.5,-0.5L0,-3.0L2.5,-0.5"/>
                </g>
                <g id="arrowRight" xlink:href="#dirArrow" transform="rotate(90) translate(36 -43)" onmousedown="handlePan(1,0)">
                  <use xlink:href="#rim" fill="#404040">
                        <set attributeName="fill" to="#808080" begin="arrowRight.mouseover" end="arrowRight.mouseout"/>
                  </use>
                  <path fill="none" stroke="white" stroke-width="1.5" d="M0,-3.0v7 M-2.5,-0.5L0,-3.0L2.5,-0.5"/>
                </g>
                <g id="arrowDown" xlink:href="#dirArrow" transform="rotate(180) translate(-30 -48)" onmousedown="handlePan(0,1)">
                  <use xlink:href="#rim" fill="#404040">
                        <set attributeName="fill" to="#808080" begin="arrowDown.mouseover" end="arrowDown.mouseout"/>
                  </use>
                  <path fill="none" stroke="white" stroke-width="1.5" d="M0,-3.0v7 M-2.5,-0.5L0,-3.0L2.5,-0.5"/>
                </g>
                <g id="arrowLeft" xlink:href="#dirArrow" transform="rotate(270) translate(-36 17)" onmousedown="handlePan(-1,0)">
                  <use xlink:href="#rim" fill="#404040">
                        <set attributeName="fill" to="#808080" begin="arrowLeft.mouseover" end="arrowLeft.mouseout"/>
                  </use>
                  <path fill="none" stroke="white" stroke-width="1.5" d="M0,-3.0v7 M-2.5,-0.5L0,-3.0L2.5,-0.5"/>
                </g>
        </g>
        <svg viewBox="0 0 15 15" width="100%" height="30px" preserveAspectRatio="xMaxYMin meet">
         <g id="arrow_out" transform="scale(0.3 0.3)">
          <a xlink:href="_config_8h__dep__incl_org.svg" target="_base">
           <rect id="button" ry="5" rx="5" y="6" x="6" height="38" width="38"
                fill="#f2f5e9" fill-opacity="0.5" stroke="#606060" stroke-width="1.0"/>
           <path id="arrow"
             d="M 11.500037,31.436501 C 11.940474,20.09759 22.043105,11.32322 32.158766,21.979434 L 37.068811,17.246167 C 37.068811,17.246167 37.088388,32 37.088388,32 L 22.160133,31.978069 C 22.160133,31.978069 26.997745,27.140456 26.997745,27.140456 C 18.528582,18.264221 13.291696,25.230495 11.500037,31.436501 z"
             style="fill:#404040;"/>
          </a>
         </g>
        </svg>
</svg>
