<?xml version="1.0" encoding="UTF-8" standalone="no"?>
<!DOCTYPE svg PUBLIC "-//W3C//DTD SVG 1.1//EN"
 "http://www.w3.org/Graphics/SVG/1.1/DTD/svg11.dtd">
<!-- Generated by graphviz version 2.30.1 (20130214.1330)
 -->
<!-- Title: Framework/ConfigManager.h Pages: 1 -->
<svg width="1029pt" height="364pt"
 viewBox="0.00 0.00 1028.86 364.00" xmlns="http://www.w3.org/2000/svg" xmlns:xlink="http://www.w3.org/1999/xlink">
<g id="graph0" class="graph" transform="scale(1 1) rotate(0) translate(4 360)">
<title>Framework/ConfigManager.h</title>
<polygon fill="white" stroke="white" points="-4,5 -4,-360 1025.86,-360 1025.86,5 -4,5"/>
<!-- Node1 -->
<g id="node1" class="node"><title>Node1</title>
<polygon fill="#bfbfbf" stroke="black" points="303,-336.5 303,-355.5 443,-355.5 443,-336.5 303,-336.5"/>
<text text-anchor="middle" x="373" y="-343.5" font-family="Helvetica,sans-Serif" font-size="10.00">Framework/ConfigManager.h</text>
</g>
<!-- Node2 -->
<g id="node2" class="node"><title>Node2</title>
<polygon fill="white" stroke="#bfbfbf" points="452,-56.5 452,-75.5 510,-75.5 510,-56.5 452,-56.5"/>
<text text-anchor="middle" x="481" y="-63.5" font-family="Helvetica,sans-Serif" font-size="10.00">Arduino.h</text>
</g>
<!-- Node1&#45;&gt;Node2 -->
<g id="edge1" class="edge"><title>Node1&#45;&gt;Node2</title>
<path fill="none" stroke="midnightblue" d="M443.188,-344.559C591.008,-341.983 926.587,-326.92 997,-244 1130.68,-86.5747 662.196,-68.9149 520.432,-67.1377"/>
<polygon fill="midnightblue" stroke="midnightblue" points="520.07,-63.6338 510.034,-67.029 519.997,-70.6334 520.07,-63.6338"/>
</g>
<!-- Node3 -->
<g id="node3" class="node"><title>Node3</title>
<g id="a_node3"><a xlink:href="_aquaduino_8h.html" target="_top" xlink:title="Aquaduino.h">
<polygon fill="white" stroke="black" points="388.5,-280.5 388.5,-299.5 459.5,-299.5 459.5,-280.5 388.5,-280.5"/>
<text text-anchor="middle" x="424" y="-287.5" font-family="Helvetica,sans-Serif" font-size="10.00">Aquaduino.h</text>
</a>
</g>
</g>
<!-- Node1&#45;&gt;Node3 -->
<g id="edge2" class="edge"><title>Node1&#45;&gt;Node3</title>
<path fill="none" stroke="midnightblue" d="M381.422,-336.083C388.848,-328.22 399.852,-316.569 408.812,-307.081"/>
<polygon fill="midnightblue" stroke="midnightblue" points="411.413,-309.424 415.735,-299.751 406.324,-304.618 411.413,-309.424"/>
</g>
<!-- Node14 -->
<g id="node14" class="node"><title>Node14</title>
<g id="a_node14"><a xlink:href="_actuator_8h.html" target="_top" xlink:title="Framework/Actuator.h">
<polygon fill="white" stroke="black" points="100.5,-224.5 100.5,-243.5 213.5,-243.5 213.5,-224.5 100.5,-224.5"/>
<text text-anchor="middle" x="157" y="-231.5" font-family="Helvetica,sans-Serif" font-size="10.00">Framework/Actuator.h</text>
</a>
</g>
</g>
<!-- Node1&#45;&gt;Node14 -->
<g id="edge33" class="edge"><title>Node1&#45;&gt;Node14</title>
<path fill="none" stroke="midnightblue" d="M356.051,-336.368C318.433,-317.211 227.761,-271.036 182.954,-248.217"/>
<polygon fill="midnightblue" stroke="midnightblue" points="184.37,-245.011 173.87,-243.591 181.193,-251.248 184.37,-245.011"/>
</g>
<!-- Node8 -->
<g id="node8" class="node"><title>Node8</title>
<g id="a_node8"><a xlink:href="_controller_8h.html" target="_top" xlink:title="Framework/Controller.h">
<polygon fill="white" stroke="black" points="61.5,-168.5 61.5,-187.5 178.5,-187.5 178.5,-168.5 61.5,-168.5"/>
<text text-anchor="middle" x="120" y="-175.5" font-family="Helvetica,sans-Serif" font-size="10.00">Framework/Controller.h</text>
</a>
</g>
</g>
<!-- Node1&#45;&gt;Node8 -->
<g id="edge34" class="edge"><title>Node1&#45;&gt;Node8</title>
<path fill="none" stroke="midnightblue" d="M302.781,-342.576C233.756,-335.997 131.743,-314.111 82,-244 70.5125,-227.809 86.0296,-207.951 100.553,-194.476"/>
<polygon fill="midnightblue" stroke="midnightblue" points="103.087,-196.911 108.341,-187.711 98.4966,-191.627 103.087,-196.911"/>
</g>
<!-- Node15 -->
<g id="node15" class="node"><title>Node15</title>
<g id="a_node15"><a xlink:href="_sensor_8h.html" target="_top" xlink:title="Framework/Sensor.h">
<polygon fill="white" stroke="black" points="231.5,-224.5 231.5,-243.5 338.5,-243.5 338.5,-224.5 231.5,-224.5"/>
<text text-anchor="middle" x="285" y="-231.5" font-family="Helvetica,sans-Serif" font-size="10.00">Framework/Sensor.h</text>
</a>
</g>
</g>
<!-- Node1&#45;&gt;Node15 -->
<g id="edge35" class="edge"><title>Node1&#45;&gt;Node15</title>
<path fill="none" stroke="midnightblue" d="M366.095,-336.368C351.508,-318.135 317.341,-275.426 298.34,-251.675"/>
<polygon fill="midnightblue" stroke="midnightblue" points="300.853,-249.214 291.873,-243.591 295.387,-253.587 300.853,-249.214"/>
</g>
<!-- Node3&#45;&gt;Node2 -->
<g id="edge3" class="edge"><title>Node3&#45;&gt;Node2</title>
<path fill="none" stroke="midnightblue" d="M432.582,-280.18C440.325,-271.659 451.341,-258.014 457,-244 478.915,-189.726 481.561,-119.267 481.439,-85.992"/>
<polygon fill="midnightblue" stroke="midnightblue" points="484.937,-85.8141 481.307,-75.8605 477.937,-85.9051 484.937,-85.8141"/>
</g>
<!-- Node4 -->
<g id="node4" class="node"><title>Node4</title>
<polygon fill="white" stroke="#bfbfbf" points="509,-224.5 509,-243.5 571,-243.5 571,-224.5 509,-224.5"/>
<text text-anchor="middle" x="540" y="-231.5" font-family="Helvetica,sans-Serif" font-size="10.00">Ethernet.h</text>
</g>
<!-- Node3&#45;&gt;Node4 -->
<g id="edge4" class="edge"><title>Node3&#45;&gt;Node4</title>
<path fill="none" stroke="midnightblue" d="M442.381,-280.444C461.216,-271.675 490.731,-257.935 512.379,-247.858"/>
<polygon fill="midnightblue" stroke="midnightblue" points="514.117,-250.91 521.705,-243.516 511.162,-244.564 514.117,-250.91"/>
</g>
<!-- Node5 -->
<g id="node5" class="node"><title>Node5</title>
<polygon fill="white" stroke="#bfbfbf" points="589.5,-224.5 589.5,-243.5 682.5,-243.5 682.5,-224.5 589.5,-224.5"/>
<text text-anchor="middle" x="636" y="-231.5" font-family="Helvetica,sans-Serif" font-size="10.00">TemplateParser.h</text>
</g>
<!-- Node3&#45;&gt;Node5 -->
<g id="edge5" class="edge"><title>Node3&#45;&gt;Node5</title>
<path fill="none" stroke="midnightblue" d="M457.592,-280.444C494.187,-271.122 552.838,-256.183 592.826,-245.997"/>
<polygon fill="midnightblue" stroke="midnightblue" points="593.739,-249.377 602.565,-243.516 592.011,-242.593 593.739,-249.377"/>
</g>
<!-- Node6 -->
<g id="node6" class="node"><title>Node6</title>
<g id="a_node6"><a xlink:href="_config_8h.html" target="_top" xlink:title="Framework/Config.h">
<polygon fill="white" stroke="black" points="265.5,-56.5 265.5,-75.5 368.5,-75.5 368.5,-56.5 265.5,-56.5"/>
<text text-anchor="middle" x="317" y="-63.5" font-family="Helvetica,sans-Serif" font-size="10.00">Framework/Config.h</text>
</a>
</g>
</g>
<!-- Node3&#45;&gt;Node6 -->
<g id="edge6" class="edge"><title>Node3&#45;&gt;Node6</title>
<path fill="none" stroke="midnightblue" d="M425.443,-280.198C429.492,-252.401 438.249,-165.189 399,-112 388.061,-97.1755 370.713,-86.6526 354.784,-79.53"/>
<polygon fill="midnightblue" stroke="midnightblue" points="355.698,-76.1203 345.12,-75.5266 353.019,-82.5873 355.698,-76.1203"/>
</g>
<!-- Node3&#45;&gt;Node8 -->
<g id="edge8" class="edge"><title>Node3&#45;&gt;Node8</title>
<path fill="none" stroke="midnightblue" d="M388.387,-289.791C310.589,-290.677 129.342,-287.872 91,-244 78.6286,-229.844 91.2044,-209.557 103.445,-195.425"/>
<polygon fill="midnightblue" stroke="midnightblue" points="106.183,-197.619 110.422,-187.909 101.053,-192.857 106.183,-197.619"/>
</g>
<!-- Node3&#45;&gt;Node14 -->
<g id="edge18" class="edge"><title>Node3&#45;&gt;Node14</title>
<path fill="none" stroke="midnightblue" d="M388.268,-281.773C342.212,-272.459 261.79,-256.194 208.968,-245.51"/>
<polygon fill="midnightblue" stroke="midnightblue" points="209.611,-242.07 199.115,-243.518 208.223,-248.931 209.611,-242.07"/>
</g>
<!-- Node3&#45;&gt;Node15 -->
<g id="edge24" class="edge"><title>Node3&#45;&gt;Node15</title>
<path fill="none" stroke="midnightblue" d="M401.975,-280.444C378.896,-271.478 342.438,-257.314 316.359,-247.183"/>
<polygon fill="midnightblue" stroke="midnightblue" points="317.511,-243.875 306.922,-243.516 314.976,-250.4 317.511,-243.875"/>
</g>
<!-- Node16 -->
<g id="node16" class="node"><title>Node16</title>
<g id="a_node16"><a xlink:href="_array_list_8h.html" target="_top" xlink:title="Framework/ArrayList.h">
<polygon fill="white" stroke="black" points="700.5,-224.5 700.5,-243.5 815.5,-243.5 815.5,-224.5 700.5,-224.5"/>
<text text-anchor="middle" x="758" y="-231.5" font-family="Helvetica,sans-Serif" font-size="10.00">Framework/ArrayList.h</text>
</a>
</g>
</g>
<!-- Node3&#45;&gt;Node16 -->
<g id="edge26" class="edge"><title>Node3&#45;&gt;Node16</title>
<path fill="none" stroke="midnightblue" d="M459.744,-283.221C515.964,-274.132 625.796,-256.374 695.344,-245.13"/>
<polygon fill="midnightblue" stroke="midnightblue" points="695.988,-248.571 705.301,-243.52 694.871,-241.661 695.988,-248.571"/>
</g>
<!-- Node18 -->
<g id="node18" class="node"><title>Node18</title>
<g id="a_node18"><a xlink:href="_s_d_config_manager_8h.html" target="_top" xlink:title="Framework/SDConfigManager.h">
<polygon fill="white" stroke="black" points="834,-224.5 834,-243.5 988,-243.5 988,-224.5 834,-224.5"/>
<text text-anchor="middle" x="911" y="-231.5" font-family="Helvetica,sans-Serif" font-size="10.00">Framework/SDConfigManager.h</text>
</a>
</g>
</g>
<!-- Node3&#45;&gt;Node18 -->
<g id="edge29" class="edge"><title>Node3&#45;&gt;Node18</title>
<path fill="none" stroke="midnightblue" d="M459.81,-285.029C535.885,-276.594 715.483,-256.679 823.746,-244.675"/>
<polygon fill="midnightblue" stroke="midnightblue" points="824.441,-248.119 833.994,-243.539 823.669,-241.162 824.441,-248.119"/>
</g>
<!-- Node9 -->
<g id="node9" class="node"><title>Node9</title>
<g id="a_node9"><a xlink:href="_object_8h.html" target="_top" xlink:title="Object.h">
<polygon fill="white" stroke="black" points="176.5,-112.5 176.5,-131.5 229.5,-131.5 229.5,-112.5 176.5,-112.5"/>
<text text-anchor="middle" x="203" y="-119.5" font-family="Helvetica,sans-Serif" font-size="10.00">Object.h</text>
</a>
</g>
</g>
<!-- Node3&#45;&gt;Node9 -->
<g id="edge31" class="edge"><title>Node3&#45;&gt;Node9</title>
<path fill="none" stroke="midnightblue" d="M414.266,-280.296C399.88,-267.545 371.946,-243.217 347,-224 304.652,-191.379 252.887,-156.144 224.385,-137.123"/>
<polygon fill="midnightblue" stroke="midnightblue" points="226.255,-134.164 215.99,-131.542 222.379,-139.993 226.255,-134.164"/>
</g>
<!-- Node11 -->
<g id="node11" class="node"><title>Node11</title>
<g id="a_node11"><a xlink:href="_serializable_8h.html" target="_top" xlink:title="Serializable.h">
<polygon fill="white" stroke="black" points="315.5,-112.5 315.5,-131.5 390.5,-131.5 390.5,-112.5 315.5,-112.5"/>
<text text-anchor="middle" x="353" y="-119.5" font-family="Helvetica,sans-Serif" font-size="10.00">Serializable.h</text>
</a>
</g>
</g>
<!-- Node3&#45;&gt;Node11 -->
<g id="edge32" class="edge"><title>Node3&#45;&gt;Node11</title>
<path fill="none" stroke="midnightblue" d="M421.592,-280.235C415.866,-259.939 400.452,-208.369 381,-168 376.357,-158.364 370.157,-148.2 364.771,-139.974"/>
<polygon fill="midnightblue" stroke="midnightblue" points="367.651,-137.984 359.163,-131.643 361.844,-141.893 367.651,-137.984"/>
</g>
<!-- Node7 -->
<g id="node7" class="node"><title>Node7</title>
<polygon fill="white" stroke="#bfbfbf" points="622.5,-0.5 622.5,-19.5 671.5,-19.5 671.5,-0.5 622.5,-0.5"/>
<text text-anchor="middle" x="647" y="-7.5" font-family="Helvetica,sans-Serif" font-size="10.00">stdint.h</text>
</g>
<!-- Node6&#45;&gt;Node7 -->
<g id="edge7" class="edge"><title>Node6&#45;&gt;Node7</title>
<path fill="none" stroke="midnightblue" d="M368.563,-56.5625C436.482,-45.4483 554.106,-26.2009 612.314,-16.6759"/>
<polygon fill="midnightblue" stroke="midnightblue" points="613.162,-20.0837 622.466,-15.0147 612.032,-13.1756 613.162,-20.0837"/>
</g>
<!-- Node8&#45;&gt;Node9 -->
<g id="edge9" class="edge"><title>Node8&#45;&gt;Node9</title>
<path fill="none" stroke="midnightblue" d="M133.335,-168.324C146.162,-159.979 165.785,-147.212 180.94,-137.352"/>
<polygon fill="midnightblue" stroke="midnightblue" points="183.224,-140.042 189.698,-131.655 179.407,-134.174 183.224,-140.042"/>
</g>
<!-- Node8&#45;&gt;Node11 -->
<g id="edge12" class="edge"><title>Node8&#45;&gt;Node11</title>
<path fill="none" stroke="midnightblue" d="M156.92,-168.444C197.395,-159.063 262.421,-143.993 306.384,-133.804"/>
<polygon fill="midnightblue" stroke="midnightblue" points="307.302,-137.184 316.253,-131.516 305.721,-130.365 307.302,-137.184"/>
</g>
<!-- Node12 -->
<g id="node12" class="node"><title>Node12</title>
<g id="a_node12"><a xlink:href="_web_interface_8h.html" target="_top" xlink:title="WebInterface.h">
<polygon fill="white" stroke="black" points="0,-112.5 0,-131.5 82,-131.5 82,-112.5 0,-112.5"/>
<text text-anchor="middle" x="41" y="-119.5" font-family="Helvetica,sans-Serif" font-size="10.00">WebInterface.h</text>
</a>
</g>
</g>
<!-- Node8&#45;&gt;Node12 -->
<g id="edge14" class="edge"><title>Node8&#45;&gt;Node12</title>
<path fill="none" stroke="midnightblue" d="M107.307,-168.324C95.0989,-159.979 76.4215,-147.212 61.9971,-137.352"/>
<polygon fill="midnightblue" stroke="midnightblue" points="63.892,-134.408 53.6612,-131.655 59.9418,-140.187 63.892,-134.408"/>
</g>
<!-- Node8&#45;&gt;Node6 -->
<g id="edge16" class="edge"><title>Node8&#45;&gt;Node6</title>
<path fill="none" stroke="midnightblue" d="M123.886,-168.445C130.645,-154.522 145.891,-127.01 167,-112 183.456,-100.299 231.314,-87.0268 268.593,-77.946"/>
<polygon fill="midnightblue" stroke="midnightblue" points="269.884,-81.2358 278.793,-75.5007 268.252,-74.4287 269.884,-81.2358"/>
</g>
<!-- Node13 -->
<g id="node13" class="node"><title>Node13</title>
<polygon fill="white" stroke="#bfbfbf" points="16,-56.5 16,-75.5 88,-75.5 88,-56.5 16,-56.5"/>
<text text-anchor="middle" x="52" y="-63.5" font-family="Helvetica,sans-Serif" font-size="10.00">WebServer.h</text>
</g>
<!-- Node8&#45;&gt;Node13 -->
<g id="edge17" class="edge"><title>Node8&#45;&gt;Node13</title>
<path fill="none" stroke="midnightblue" d="M117.008,-168.176C112.429,-155.276 102.944,-130.763 91,-112 84.4214,-101.665 75.5767,-91.2563 67.9734,-83.0561"/>
<polygon fill="midnightblue" stroke="midnightblue" points="70.3557,-80.4832 60.9138,-75.6767 65.2975,-85.3221 70.3557,-80.4832"/>
</g>
<!-- Node9&#45;&gt;Node6 -->
<g id="edge10" class="edge"><title>Node9&#45;&gt;Node6</title>
<path fill="none" stroke="midnightblue" d="M221.064,-112.444C239.575,-103.675 268.581,-89.9355 289.855,-79.8579"/>
<polygon fill="midnightblue" stroke="midnightblue" points="291.482,-82.9604 299.021,-75.5164 288.485,-76.6343 291.482,-82.9604"/>
</g>
<!-- Node10 -->
<g id="node10" class="node"><title>Node10</title>
<g id="a_node10"><a xlink:href="_object_types_8h.html" target="_top" xlink:title="Framework/ObjectTypes.h">
<polygon fill="white" stroke="black" points="116.5,-56.5 116.5,-75.5 247.5,-75.5 247.5,-56.5 116.5,-56.5"/>
<text text-anchor="middle" x="182" y="-63.5" font-family="Helvetica,sans-Serif" font-size="10.00">Framework/ObjectTypes.h</text>
</a>
</g>
</g>
<!-- Node9&#45;&gt;Node10 -->
<g id="edge11" class="edge"><title>Node9&#45;&gt;Node10</title>
<path fill="none" stroke="midnightblue" d="M199.532,-112.083C196.688,-104.77 192.571,-94.1814 189.04,-85.1034"/>
<polygon fill="midnightblue" stroke="midnightblue" points="192.29,-83.8025 185.403,-75.7511 185.766,-86.3397 192.29,-83.8025"/>
</g>
<!-- Node11&#45;&gt;Node2 -->
<g id="edge13" class="edge"><title>Node11&#45;&gt;Node2</title>
<path fill="none" stroke="midnightblue" d="M373.282,-112.444C394.347,-103.557 427.517,-89.5632 451.486,-79.4514"/>
<polygon fill="midnightblue" stroke="midnightblue" points="452.96,-82.6283 460.813,-75.5164 450.239,-76.1787 452.96,-82.6283"/>
</g>
<!-- Node12&#45;&gt;Node13 -->
<g id="edge15" class="edge"><title>Node12&#45;&gt;Node13</title>
<path fill="none" stroke="midnightblue" d="M42.8164,-112.083C44.2741,-104.927 46.3706,-94.6353 48.1925,-85.6911"/>
<polygon fill="midnightblue" stroke="midnightblue" points="51.6508,-86.2485 50.2174,-75.7511 44.7917,-84.8512 51.6508,-86.2485"/>
</g>
<!-- Node14&#45;&gt;Node9 -->
<g id="edge19" class="edge"><title>Node14&#45;&gt;Node9</title>
<path fill="none" stroke="midnightblue" d="M164.195,-224.235C170.996,-215.537 181.023,-201.578 187,-188 193.584,-173.042 197.763,-154.904 200.192,-141.593"/>
<polygon fill="midnightblue" stroke="midnightblue" points="203.645,-142.162 201.835,-131.723 196.74,-141.012 203.645,-142.162"/>
</g>
<!-- Node14&#45;&gt;Node6 -->
<g id="edge20" class="edge"><title>Node14&#45;&gt;Node6</title>
<path fill="none" stroke="midnightblue" d="M166.753,-224.231C176.588,-215.301 192.118,-200.964 205,-188 241.119,-151.651 281.49,-106.97 302.505,-83.3844"/>
<polygon fill="midnightblue" stroke="midnightblue" points="305.303,-85.5046 309.328,-75.7039 300.07,-80.8557 305.303,-85.5046"/>
</g>
<!-- Node14&#45;&gt;Node8 -->
<g id="edge21" class="edge"><title>Node14&#45;&gt;Node8</title>
<path fill="none" stroke="midnightblue" d="M150.89,-224.083C145.718,-216.534 138.154,-205.495 131.806,-196.23"/>
<polygon fill="midnightblue" stroke="midnightblue" points="134.536,-194.022 125.996,-187.751 128.761,-197.979 134.536,-194.022"/>
</g>
<!-- Node14&#45;&gt;Node11 -->
<g id="edge22" class="edge"><title>Node14&#45;&gt;Node11</title>
<path fill="none" stroke="midnightblue" d="M183.22,-224.44C206.078,-216.476 239.748,-203.523 267,-188 292.343,-173.565 318.699,-152.618 335.445,-138.436"/>
<polygon fill="midnightblue" stroke="midnightblue" points="337.969,-140.881 343.269,-131.707 333.405,-135.574 337.969,-140.881"/>
</g>
<!-- Node14&#45;&gt;Node12 -->
<g id="edge23" class="edge"><title>Node14&#45;&gt;Node12</title>
<path fill="none" stroke="midnightblue" d="M112.845,-224.468C91.3112,-218.034 66.9027,-206.936 52,-188 41.7232,-174.942 39.565,-155.788 39.6222,-141.653"/>
<polygon fill="midnightblue" stroke="midnightblue" points="43.1215,-141.739 40.0302,-131.606 36.1273,-141.455 43.1215,-141.739"/>
</g>
<!-- Node15&#45;&gt;Node9 -->
<g id="edge25" class="edge"><title>Node15&#45;&gt;Node9</title>
<path fill="none" stroke="midnightblue" d="M278.566,-224.368C264.973,-206.135 233.136,-163.426 215.431,-139.675"/>
<polygon fill="midnightblue" stroke="midnightblue" points="218.187,-137.517 209.405,-131.591 212.575,-141.701 218.187,-137.517"/>
</g>
<!-- Node17 -->
<g id="node17" class="node"><title>Node17</title>
<polygon fill="white" stroke="#bfbfbf" points="732.5,-168.5 732.5,-187.5 783.5,-187.5 783.5,-168.5 732.5,-168.5"/>
<text text-anchor="middle" x="758" y="-175.5" font-family="Helvetica,sans-Serif" font-size="10.00">stddef.h</text>
</g>
<!-- Node16&#45;&gt;Node17 -->
<g id="edge27" class="edge"><title>Node16&#45;&gt;Node17</title>
<path fill="none" stroke="midnightblue" d="M758,-224.083C758,-217.006 758,-206.861 758,-197.986"/>
<polygon fill="midnightblue" stroke="midnightblue" points="761.5,-197.751 758,-187.751 754.5,-197.751 761.5,-197.751"/>
</g>
<!-- Node16&#45;&gt;Node7 -->
<g id="edge28" class="edge"><title>Node16&#45;&gt;Node7</title>
<path fill="none" stroke="midnightblue" d="M767.845,-224.454C780.594,-212.29 800.257,-189.111 792,-168 766.938,-103.926 702.107,-50.3025 668.268,-25.6071"/>
<polygon fill="midnightblue" stroke="midnightblue" points="670.161,-22.6578 659.989,-19.6928 666.092,-28.3537 670.161,-22.6578"/>
</g>
<!-- Node18&#45;&gt;Node1 -->
<g id="edge30" class="edge"><title>Node18&#45;&gt;Node1</title>
<path fill="none" stroke="midnightblue" d="M869.258,-243.535C772.062,-263.407 530.84,-312.728 424.617,-334.446"/>
<polygon fill="midnightblue" stroke="midnightblue" points="423.864,-331.028 414.768,-336.46 425.267,-337.886 423.864,-331.028"/>
</g>
</g>
</svg>
