<?xml version="1.0" encoding="UTF-8" standalone="no"?>
<!DOCTYPE svg PUBLIC "-//W3C//DTD SVG 1.1//EN"
 "http://www.w3.org/Graphics/SVG/1.1/DTD/svg11.dtd">
<!-- Generated by graphviz version 2.30.1 (20130214.1330)
 -->
<!-- Title: Framework/Controller.cpp Pages: 1 -->
<svg width="885pt" height="476pt"
 viewBox="0.00 0.00 885.00 476.00" xmlns="http://www.w3.org/2000/svg" xmlns:xlink="http://www.w3.org/1999/xlink">
<g id="graph0" class="graph" transform="scale(1 1) rotate(0) translate(4 472)">
<title>Framework/Controller.cpp</title>
<polygon fill="white" stroke="white" points="-4,5 -4,-472 882,-472 882,5 -4,5"/>
<!-- Node1 -->
<g id="node1" class="node"><title>Node1</title>
<polygon fill="#bfbfbf" stroke="black" points="737,-448.5 737,-467.5 865,-467.5 865,-448.5 737,-448.5"/>
<text text-anchor="middle" x="801" y="-455.5" font-family="Helvetica,sans-Serif" font-size="10.00">Framework/Controller.cpp</text>
</g>
<!-- Node2 -->
<g id="node2" class="node"><title>Node2</title>
<g id="a_node2"><a xlink:href="_controller_8h.html" target="_top" xlink:title="Controller.h">
<polygon fill="white" stroke="black" points="522,-168.5 522,-187.5 588,-187.5 588,-168.5 522,-168.5"/>
<text text-anchor="middle" x="555" y="-175.5" font-family="Helvetica,sans-Serif" font-size="10.00">Controller.h</text>
</a>
</g>
</g>
<!-- Node1&#45;&gt;Node2 -->
<g id="edge1" class="edge"><title>Node1&#45;&gt;Node2</title>
<path fill="none" stroke="midnightblue" d="M812.543,-448.433C833.804,-431.571 877,-391.799 877,-347 877,-347 877,-347 877,-289 877,-230.755 685.946,-196.973 598.169,-184.526"/>
<polygon fill="midnightblue" stroke="midnightblue" points="598.633,-181.057 588.247,-183.148 597.67,-187.991 598.633,-181.057"/>
</g>
<!-- Node11 -->
<g id="node11" class="node"><title>Node11</title>
<g id="a_node11"><a xlink:href="_aquaduino_8h.html" target="_top" xlink:title="Aquaduino.h">
<polygon fill="white" stroke="black" points="399.5,-392.5 399.5,-411.5 470.5,-411.5 470.5,-392.5 399.5,-392.5"/>
<text text-anchor="middle" x="435" y="-399.5" font-family="Helvetica,sans-Serif" font-size="10.00">Aquaduino.h</text>
</a>
</g>
</g>
<!-- Node1&#45;&gt;Node11 -->
<g id="edge12" class="edge"><title>Node1&#45;&gt;Node11</title>
<path fill="none" stroke="midnightblue" d="M743.006,-448.444C670.301,-437.716 547.168,-419.549 480.745,-409.749"/>
<polygon fill="midnightblue" stroke="midnightblue" points="480.992,-406.248 470.588,-408.251 479.97,-413.173 480.992,-406.248"/>
</g>
<!-- Node14 -->
<g id="node14" class="node"><title>Node14</title>
<g id="a_node14"><a xlink:href="_actuator_8h.html" target="_top" xlink:title="Framework/Actuator.h">
<polygon fill="white" stroke="black" points="568.5,-224.5 568.5,-243.5 681.5,-243.5 681.5,-224.5 568.5,-224.5"/>
<text text-anchor="middle" x="625" y="-231.5" font-family="Helvetica,sans-Serif" font-size="10.00">Framework/Actuator.h</text>
</a>
</g>
</g>
<!-- Node1&#45;&gt;Node14 -->
<g id="edge38" class="edge"><title>Node1&#45;&gt;Node14</title>
<path fill="none" stroke="midnightblue" d="M798.406,-448.15C789.83,-420.21 759.94,-332.622 708,-280 694.043,-265.86 674.695,-255.022 658.191,-247.529"/>
<polygon fill="midnightblue" stroke="midnightblue" points="659.433,-244.252 648.864,-243.504 656.659,-250.679 659.433,-244.252"/>
</g>
<!-- Node3 -->
<g id="node3" class="node"><title>Node3</title>
<g id="a_node3"><a xlink:href="_object_8h.html" target="_top" xlink:title="Object.h">
<polygon fill="white" stroke="black" points="387.5,-112.5 387.5,-131.5 440.5,-131.5 440.5,-112.5 387.5,-112.5"/>
<text text-anchor="middle" x="414" y="-119.5" font-family="Helvetica,sans-Serif" font-size="10.00">Object.h</text>
</a>
</g>
</g>
<!-- Node2&#45;&gt;Node3 -->
<g id="edge2" class="edge"><title>Node2&#45;&gt;Node3</title>
<path fill="none" stroke="midnightblue" d="M532.658,-168.444C509.247,-159.478 472.264,-145.314 445.81,-135.183"/>
<polygon fill="midnightblue" stroke="midnightblue" points="446.828,-131.824 436.237,-131.516 444.324,-138.361 446.828,-131.824"/>
</g>
<!-- Node7 -->
<g id="node7" class="node"><title>Node7</title>
<g id="a_node7"><a xlink:href="_serializable_8h.html" target="_top" xlink:title="Serializable.h">
<polygon fill="white" stroke="black" points="683.5,-112.5 683.5,-131.5 758.5,-131.5 758.5,-112.5 683.5,-112.5"/>
<text text-anchor="middle" x="721" y="-119.5" font-family="Helvetica,sans-Serif" font-size="10.00">Serializable.h</text>
</a>
</g>
</g>
<!-- Node2&#45;&gt;Node7 -->
<g id="edge6" class="edge"><title>Node2&#45;&gt;Node7</title>
<path fill="none" stroke="midnightblue" d="M581.303,-168.444C609.351,-159.32 653.944,-144.813 685.184,-134.651"/>
<polygon fill="midnightblue" stroke="midnightblue" points="686.393,-137.938 694.82,-131.516 684.228,-131.282 686.393,-137.938"/>
</g>
<!-- Node9 -->
<g id="node9" class="node"><title>Node9</title>
<g id="a_node9"><a xlink:href="_web_interface_8h.html" target="_top" xlink:title="WebInterface.h">
<polygon fill="white" stroke="black" points="583,-112.5 583,-131.5 665,-131.5 665,-112.5 583,-112.5"/>
<text text-anchor="middle" x="624" y="-119.5" font-family="Helvetica,sans-Serif" font-size="10.00">WebInterface.h</text>
</a>
</g>
</g>
<!-- Node2&#45;&gt;Node9 -->
<g id="edge8" class="edge"><title>Node2&#45;&gt;Node9</title>
<path fill="none" stroke="midnightblue" d="M566.086,-168.324C576.486,-160.185 592.261,-147.839 604.722,-138.087"/>
<polygon fill="midnightblue" stroke="midnightblue" points="606.994,-140.753 612.712,-131.834 602.68,-135.241 606.994,-140.753"/>
</g>
<!-- Node4 -->
<g id="node4" class="node"><title>Node4</title>
<g id="a_node4"><a xlink:href="_config_8h.html" target="_top" xlink:title="Framework/Config.h">
<polygon fill="white" stroke="black" points="403.5,-56.5 403.5,-75.5 506.5,-75.5 506.5,-56.5 403.5,-56.5"/>
<text text-anchor="middle" x="455" y="-63.5" font-family="Helvetica,sans-Serif" font-size="10.00">Framework/Config.h</text>
</a>
</g>
</g>
<!-- Node2&#45;&gt;Node4 -->
<g id="edge10" class="edge"><title>Node2&#45;&gt;Node4</title>
<path fill="none" stroke="midnightblue" d="M547.153,-168.368C530.431,-149.974 491.065,-106.671 469.593,-83.0519"/>
<polygon fill="midnightblue" stroke="midnightblue" points="472.127,-80.6365 462.81,-75.5914 466.947,-85.3452 472.127,-80.6365"/>
</g>
<!-- Node10 -->
<g id="node10" class="node"><title>Node10</title>
<polygon fill="white" stroke="#bfbfbf" points="542,-56.5 542,-75.5 614,-75.5 614,-56.5 542,-56.5"/>
<text text-anchor="middle" x="578" y="-63.5" font-family="Helvetica,sans-Serif" font-size="10.00">WebServer.h</text>
</g>
<!-- Node2&#45;&gt;Node10 -->
<g id="edge11" class="edge"><title>Node2&#45;&gt;Node10</title>
<path fill="none" stroke="midnightblue" d="M556.805,-168.368C560.516,-150.617 569.079,-109.666 574.111,-85.5974"/>
<polygon fill="midnightblue" stroke="midnightblue" points="577.583,-86.0961 576.204,-75.5914 570.731,-84.6634 577.583,-86.0961"/>
</g>
<!-- Node3&#45;&gt;Node4 -->
<g id="edge3" class="edge"><title>Node3&#45;&gt;Node4</title>
<path fill="none" stroke="midnightblue" d="M420.77,-112.083C426.562,-104.455 435.058,-93.2645 442.138,-83.9408"/>
<polygon fill="midnightblue" stroke="midnightblue" points="445.096,-85.8321 448.356,-75.7511 439.521,-81.5991 445.096,-85.8321"/>
</g>
<!-- Node6 -->
<g id="node6" class="node"><title>Node6</title>
<g id="a_node6"><a xlink:href="_object_types_8h.html" target="_top" xlink:title="Framework/ObjectTypes.h">
<polygon fill="white" stroke="black" points="254.5,-56.5 254.5,-75.5 385.5,-75.5 385.5,-56.5 254.5,-56.5"/>
<text text-anchor="middle" x="320" y="-63.5" font-family="Helvetica,sans-Serif" font-size="10.00">Framework/ObjectTypes.h</text>
</a>
</g>
</g>
<!-- Node3&#45;&gt;Node6 -->
<g id="edge5" class="edge"><title>Node3&#45;&gt;Node6</title>
<path fill="none" stroke="midnightblue" d="M398.897,-112.324C384.097,-103.822 361.306,-90.7288 344.018,-80.7975"/>
<polygon fill="midnightblue" stroke="midnightblue" points="345.48,-77.6009 335.065,-75.6545 341.993,-83.6707 345.48,-77.6009"/>
</g>
<!-- Node5 -->
<g id="node5" class="node"><title>Node5</title>
<polygon fill="white" stroke="#bfbfbf" points="191.5,-0.5 191.5,-19.5 240.5,-19.5 240.5,-0.5 191.5,-0.5"/>
<text text-anchor="middle" x="216" y="-7.5" font-family="Helvetica,sans-Serif" font-size="10.00">stdint.h</text>
</g>
<!-- Node4&#45;&gt;Node5 -->
<g id="edge4" class="edge"><title>Node4&#45;&gt;Node5</title>
<path fill="none" stroke="midnightblue" d="M417.13,-56.4435C371.312,-46.0915 294.828,-28.8104 250.553,-18.807"/>
<polygon fill="midnightblue" stroke="midnightblue" points="251.084,-15.3388 240.558,-16.5488 249.541,-22.1667 251.084,-15.3388"/>
</g>
<!-- Node8 -->
<g id="node8" class="node"><title>Node8</title>
<polygon fill="white" stroke="#bfbfbf" points="758,-56.5 758,-75.5 816,-75.5 816,-56.5 758,-56.5"/>
<text text-anchor="middle" x="787" y="-63.5" font-family="Helvetica,sans-Serif" font-size="10.00">Arduino.h</text>
</g>
<!-- Node7&#45;&gt;Node8 -->
<g id="edge7" class="edge"><title>Node7&#45;&gt;Node8</title>
<path fill="none" stroke="midnightblue" d="M731.604,-112.324C741.456,-104.263 756.351,-92.0765 768.215,-82.3695"/>
<polygon fill="midnightblue" stroke="midnightblue" points="770.68,-84.8752 776.203,-75.8339 766.247,-79.4575 770.68,-84.8752"/>
</g>
<!-- Node9&#45;&gt;Node10 -->
<g id="edge9" class="edge"><title>Node9&#45;&gt;Node10</title>
<path fill="none" stroke="midnightblue" d="M616.404,-112.083C609.773,-104.298 599.979,-92.8015 591.942,-83.3665"/>
<polygon fill="midnightblue" stroke="midnightblue" points="594.604,-81.0939 585.455,-75.7511 589.275,-85.6332 594.604,-81.0939"/>
</g>
<!-- Node11&#45;&gt;Node8 -->
<g id="edge13" class="edge"><title>Node11&#45;&gt;Node8</title>
<path fill="none" stroke="midnightblue" d="M470.616,-398.369C538.018,-392.921 681.381,-378.962 725,-356 790.38,-321.582 839,-308.886 839,-235 839,-235 839,-235 839,-177 839,-141.119 816.106,-104.424 800.7,-83.7932"/>
<polygon fill="midnightblue" stroke="midnightblue" points="803.348,-81.4965 794.45,-75.7441 797.818,-85.7894 803.348,-81.4965"/>
</g>
<!-- Node12 -->
<g id="node12" class="node"><title>Node12</title>
<polygon fill="white" stroke="#bfbfbf" points="635,-336.5 635,-355.5 697,-355.5 697,-336.5 635,-336.5"/>
<text text-anchor="middle" x="666" y="-343.5" font-family="Helvetica,sans-Serif" font-size="10.00">Ethernet.h</text>
</g>
<!-- Node11&#45;&gt;Node12 -->
<g id="edge14" class="edge"><title>Node11&#45;&gt;Node12</title>
<path fill="none" stroke="midnightblue" d="M470.588,-392.681C512.269,-382.937 581.183,-366.827 625.049,-356.573"/>
<polygon fill="midnightblue" stroke="midnightblue" points="625.878,-359.974 634.819,-354.289 624.285,-353.157 625.878,-359.974"/>
</g>
<!-- Node13 -->
<g id="node13" class="node"><title>Node13</title>
<polygon fill="white" stroke="#bfbfbf" points="199.5,-336.5 199.5,-355.5 292.5,-355.5 292.5,-336.5 199.5,-336.5"/>
<text text-anchor="middle" x="246" y="-343.5" font-family="Helvetica,sans-Serif" font-size="10.00">TemplateParser.h</text>
</g>
<!-- Node11&#45;&gt;Node13 -->
<g id="edge15" class="edge"><title>Node11&#45;&gt;Node13</title>
<path fill="none" stroke="midnightblue" d="M405.052,-392.444C372.842,-383.241 321.466,-368.562 285.858,-358.388"/>
<polygon fill="midnightblue" stroke="midnightblue" points="286.384,-354.898 275.808,-355.516 284.461,-361.629 286.384,-354.898"/>
</g>
<!-- Node11&#45;&gt;Node4 -->
<g id="edge16" class="edge"><title>Node11&#45;&gt;Node4</title>
<path fill="none" stroke="midnightblue" d="M399.376,-401.588C315.375,-402.234 108.136,-399.286 57,-356 34.0275,-336.554 38,-321.098 38,-291 38,-291 38,-291 38,-177 38,-140.706 277.223,-96.2868 393.287,-76.8717"/>
<polygon fill="midnightblue" stroke="midnightblue" points="394.158,-80.275 403.449,-75.183 393.011,-73.3697 394.158,-80.275"/>
</g>
<!-- Node11&#45;&gt;Node2 -->
<g id="edge17" class="edge"><title>Node11&#45;&gt;Node2</title>
<path fill="none" stroke="midnightblue" d="M434.191,-392.267C433.329,-379.479 432.929,-355.106 440,-336 461.681,-277.42 512.023,-221.57 538.323,-195.057"/>
<polygon fill="midnightblue" stroke="midnightblue" points="541.009,-197.323 545.654,-187.801 536.085,-192.348 541.009,-197.323"/>
</g>
<!-- Node11&#45;&gt;Node14 -->
<g id="edge18" class="edge"><title>Node11&#45;&gt;Node14</title>
<path fill="none" stroke="midnightblue" d="M470.752,-400.544C537.323,-398.857 676.241,-391.108 706,-356 736.31,-320.242 680.213,-272.802 646.982,-249.364"/>
<polygon fill="midnightblue" stroke="midnightblue" points="648.925,-246.452 638.699,-243.681 644.965,-252.224 648.925,-246.452"/>
</g>
<!-- Node15 -->
<g id="node15" class="node"><title>Node15</title>
<g id="a_node15"><a xlink:href="_sensor_8h.html" target="_top" xlink:title="Framework/Sensor.h">
<polygon fill="white" stroke="black" points="349.5,-224.5 349.5,-243.5 456.5,-243.5 456.5,-224.5 349.5,-224.5"/>
<text text-anchor="middle" x="403" y="-231.5" font-family="Helvetica,sans-Serif" font-size="10.00">Framework/Sensor.h</text>
</a>
</g>
</g>
<!-- Node11&#45;&gt;Node15 -->
<g id="edge24" class="edge"><title>Node11&#45;&gt;Node15</title>
<path fill="none" stroke="midnightblue" d="M419.217,-392.467C406.797,-384.769 390.395,-372.179 383,-356 367.355,-321.772 382.848,-277.128 393.939,-252.768"/>
<polygon fill="midnightblue" stroke="midnightblue" points="397.14,-254.188 398.319,-243.659 390.831,-251.154 397.14,-254.188"/>
</g>
<!-- Node16 -->
<g id="node16" class="node"><title>Node16</title>
<g id="a_node16"><a xlink:href="_array_list_8h.html" target="_top" xlink:title="Framework/ArrayList.h">
<polygon fill="white" stroke="black" points="66.5,-336.5 66.5,-355.5 181.5,-355.5 181.5,-336.5 66.5,-336.5"/>
<text text-anchor="middle" x="124" y="-343.5" font-family="Helvetica,sans-Serif" font-size="10.00">Framework/ArrayList.h</text>
</a>
</g>
</g>
<!-- Node11&#45;&gt;Node16 -->
<g id="edge26" class="edge"><title>Node11&#45;&gt;Node16</title>
<path fill="none" stroke="midnightblue" d="M399.324,-394.806C346.469,-385.628 246.749,-368.313 182.937,-357.233"/>
<polygon fill="midnightblue" stroke="midnightblue" points="183.468,-353.773 173.016,-355.511 182.27,-360.67 183.468,-353.773"/>
</g>
<!-- Node18 -->
<g id="node18" class="node"><title>Node18</title>
<g id="a_node18"><a xlink:href="_s_d_config_manager_8h.html" target="_top" xlink:title="Framework/SDConfigManager.h">
<polygon fill="white" stroke="black" points="463,-336.5 463,-355.5 617,-355.5 617,-336.5 463,-336.5"/>
<text text-anchor="middle" x="540" y="-343.5" font-family="Helvetica,sans-Serif" font-size="10.00">Framework/SDConfigManager.h</text>
</a>
</g>
</g>
<!-- Node11&#45;&gt;Node18 -->
<g id="edge29" class="edge"><title>Node11&#45;&gt;Node18</title>
<path fill="none" stroke="midnightblue" d="M451.87,-392.324C468.709,-383.664 494.807,-370.242 514.238,-360.249"/>
<polygon fill="midnightblue" stroke="midnightblue" points="515.88,-363.341 523.172,-355.655 512.678,-357.116 515.88,-363.341"/>
</g>
<!-- Node11&#45;&gt;Node3 -->
<g id="edge36" class="edge"><title>Node11&#45;&gt;Node3</title>
<path fill="none" stroke="midnightblue" d="M414.355,-392.421C381.504,-377.231 321,-342.293 321,-291 321,-291 321,-291 321,-233 321,-190.311 362.351,-155.643 389.907,-137.28"/>
<polygon fill="midnightblue" stroke="midnightblue" points="392.106,-140.028 398.643,-131.69 388.333,-134.132 392.106,-140.028"/>
</g>
<!-- Node11&#45;&gt;Node7 -->
<g id="edge37" class="edge"><title>Node11&#45;&gt;Node7</title>
<path fill="none" stroke="midnightblue" d="M470.505,-400.985C540.558,-400.12 692.596,-393.82 725,-356 778.387,-293.69 744.673,-183.869 728.36,-140.925"/>
<polygon fill="midnightblue" stroke="midnightblue" points="731.575,-139.537 724.651,-131.517 725.062,-142.104 731.575,-139.537"/>
</g>
<!-- Node14&#45;&gt;Node3 -->
<g id="edge19" class="edge"><title>Node14&#45;&gt;Node3</title>
<path fill="none" stroke="midnightblue" d="M568.399,-225.98C536.007,-219.882 495.814,-208.624 465,-188 446.813,-175.827 432.188,-155.075 423.341,-140.294"/>
<polygon fill="midnightblue" stroke="midnightblue" points="426.374,-138.548 418.381,-131.593 420.293,-142.014 426.374,-138.548"/>
</g>
<!-- Node14&#45;&gt;Node4 -->
<g id="edge20" class="edge"><title>Node14&#45;&gt;Node4</title>
<path fill="none" stroke="midnightblue" d="M584.489,-224.488C561.23,-217.853 532.802,-206.556 513,-188 482.509,-159.427 466.271,-111.49 459.283,-85.3523"/>
<polygon fill="midnightblue" stroke="midnightblue" points="462.666,-84.4542 456.84,-75.6054 455.876,-86.1563 462.666,-84.4542"/>
</g>
<!-- Node14&#45;&gt;Node2 -->
<g id="edge21" class="edge"><title>Node14&#45;&gt;Node2</title>
<path fill="none" stroke="midnightblue" d="M613.753,-224.324C603.203,-216.185 587.199,-203.839 574.558,-194.087"/>
<polygon fill="midnightblue" stroke="midnightblue" points="576.507,-191.171 566.451,-187.834 572.231,-196.713 576.507,-191.171"/>
</g>
<!-- Node14&#45;&gt;Node7 -->
<g id="edge22" class="edge"><title>Node14&#45;&gt;Node7</title>
<path fill="none" stroke="midnightblue" d="M632.533,-224.368C648.516,-206.055 686.048,-163.049 706.72,-139.362"/>
<polygon fill="midnightblue" stroke="midnightblue" points="709.564,-141.427 713.502,-131.591 704.29,-136.824 709.564,-141.427"/>
</g>
<!-- Node14&#45;&gt;Node9 -->
<g id="edge23" class="edge"><title>Node14&#45;&gt;Node9</title>
<path fill="none" stroke="midnightblue" d="M624.922,-224.368C624.76,-206.617 624.388,-165.666 624.169,-141.597"/>
<polygon fill="midnightblue" stroke="midnightblue" points="627.669,-141.559 624.078,-131.591 620.669,-141.623 627.669,-141.559"/>
</g>
<!-- Node15&#45;&gt;Node3 -->
<g id="edge25" class="edge"><title>Node15&#45;&gt;Node3</title>
<path fill="none" stroke="midnightblue" d="M403.863,-224.368C405.638,-206.617 409.733,-165.666 412.14,-141.597"/>
<polygon fill="midnightblue" stroke="midnightblue" points="415.628,-141.89 413.141,-131.591 408.663,-141.193 415.628,-141.89"/>
</g>
<!-- Node17 -->
<g id="node17" class="node"><title>Node17</title>
<polygon fill="white" stroke="#bfbfbf" points="98.5,-280.5 98.5,-299.5 149.5,-299.5 149.5,-280.5 98.5,-280.5"/>
<text text-anchor="middle" x="124" y="-287.5" font-family="Helvetica,sans-Serif" font-size="10.00">stddef.h</text>
</g>
<!-- Node16&#45;&gt;Node17 -->
<g id="edge27" class="edge"><title>Node16&#45;&gt;Node17</title>
<path fill="none" stroke="midnightblue" d="M124,-336.083C124,-329.006 124,-318.861 124,-309.986"/>
<polygon fill="midnightblue" stroke="midnightblue" points="127.5,-309.751 124,-299.751 120.5,-309.751 127.5,-309.751"/>
</g>
<!-- Node16&#45;&gt;Node5 -->
<g id="edge28" class="edge"><title>Node16&#45;&gt;Node5</title>
<path fill="none" stroke="midnightblue" d="M100.385,-336.476C64.4072,-321.794 0,-288.095 0,-235 0,-235 0,-235 0,-121 0,-40.6418 120.179,-18.9616 181.251,-13.1322"/>
<polygon fill="midnightblue" stroke="midnightblue" points="181.56,-16.6186 191.222,-12.2713 180.958,-9.64453 181.56,-16.6186"/>
</g>
<!-- Node19 -->
<g id="node19" class="node"><title>Node19</title>
<g id="a_node19"><a xlink:href="_config_manager_8h.html" target="_top" xlink:title="ConfigManager.h">
<polygon fill="white" stroke="black" points="495.5,-280.5 495.5,-299.5 584.5,-299.5 584.5,-280.5 495.5,-280.5"/>
<text text-anchor="middle" x="540" y="-287.5" font-family="Helvetica,sans-Serif" font-size="10.00">ConfigManager.h</text>
</a>
</g>
</g>
<!-- Node18&#45;&gt;Node19 -->
<g id="edge30" class="edge"><title>Node18&#45;&gt;Node19</title>
<path fill="none" stroke="midnightblue" d="M540,-336.083C540,-329.006 540,-318.861 540,-309.986"/>
<polygon fill="midnightblue" stroke="midnightblue" points="543.5,-309.751 540,-299.751 536.5,-309.751 543.5,-309.751"/>
</g>
<!-- Node19&#45;&gt;Node8 -->
<g id="edge31" class="edge"><title>Node19&#45;&gt;Node8</title>
<path fill="none" stroke="midnightblue" d="M584.523,-283.648C616.365,-278.022 658.914,-266.665 690,-244 745.169,-203.777 772.55,-122.248 782.483,-85.591"/>
<polygon fill="midnightblue" stroke="midnightblue" points="785.913,-86.3075 785.017,-75.7506 779.134,-84.5617 785.913,-86.3075"/>
</g>
<!-- Node19&#45;&gt;Node11 -->
<g id="edge32" class="edge"><title>Node19&#45;&gt;Node11</title>
<path fill="none" stroke="midnightblue" d="M511.014,-299.556C492.234,-306.512 468.634,-318.145 454,-336 443.18,-349.202 438.522,-368.337 436.516,-382.428"/>
<polygon fill="midnightblue" stroke="midnightblue" points="433.03,-382.114 435.409,-392.438 439.987,-382.883 433.03,-382.114"/>
</g>
<!-- Node19&#45;&gt;Node14 -->
<g id="edge33" class="edge"><title>Node19&#45;&gt;Node14</title>
<path fill="none" stroke="midnightblue" d="M553.657,-280.324C566.916,-271.9 587.268,-258.971 602.846,-249.074"/>
<polygon fill="midnightblue" stroke="midnightblue" points="604.813,-251.971 611.377,-243.655 601.06,-246.063 604.813,-251.971"/>
</g>
<!-- Node19&#45;&gt;Node2 -->
<g id="edge34" class="edge"><title>Node19&#45;&gt;Node2</title>
<path fill="none" stroke="midnightblue" d="M541.177,-280.368C543.598,-262.617 549.182,-221.666 552.464,-197.597"/>
<polygon fill="midnightblue" stroke="midnightblue" points="555.945,-197.973 553.828,-187.591 549.009,-197.027 555.945,-197.973"/>
</g>
<!-- Node19&#45;&gt;Node15 -->
<g id="edge35" class="edge"><title>Node19&#45;&gt;Node15</title>
<path fill="none" stroke="midnightblue" d="M518.292,-280.444C495.645,-271.517 459.928,-257.439 434.248,-247.317"/>
<polygon fill="midnightblue" stroke="midnightblue" points="435.193,-243.927 424.606,-243.516 432.626,-250.44 435.193,-243.927"/>
</g>
</g>
</svg>
