<?xml version="1.0" encoding="UTF-8" standalone="no"?>
<!DOCTYPE svg PUBLIC "-//W3C//DTD SVG 1.1//EN"
 "http://www.w3.org/Graphics/SVG/1.1/DTD/svg11.dtd">
<!-- Generated by graphviz version 2.30.1 (20130214.1330)
 -->
<!-- Title: Framework/Controller.h Pages: 1 -->
<!--zoomable 308 -->
<svg id="main" version="1.1" xmlns="http://www.w3.org/2000/svg" xmlns:xlink="http://www.w3.org/1999/xlink" xml:space="preserve" onload="init(evt)">
<style type="text/css"><![CDATA[
.edge:hover path { stroke: red; }
.edge:hover polygon { stroke: red; fill: red; }
]]></style>
<script type="text/javascript"><![CDATA[
var edges = document.getElementsByTagName('g');
if (edges && edges.length) {
  for (var i=0;i<edges.length;i++) {
    if (edges[i].id.substr(0,4)=='edge') {
      edges[i].setAttribute('class','edge');
    }
  }
}
]]></script>
        <defs>
                <circle id="rim" cx="0" cy="0" r="7"/>
                <circle id="rim2" cx="0" cy="0" r="3.5"/>
                <g id="zoomPlus">
                        <use xlink:href="#rim" fill="#404040">
                                <set attributeName="fill" to="#808080" begin="zoomplus.mouseover" end="zoomplus.mouseout"/>
                        </use>
                        <path d="M-4,0h8M0,-4v8" fill="none" stroke="white" stroke-width="1.5" pointer-events="none"/>
                </g>
                <g id="zoomMin">
                        <use xlink:href="#rim" fill="#404040">
                                <set attributeName="fill" to="#808080" begin="zoomminus.mouseover" end="zoomminus.mouseout"/>
                        </use>
                        <path d="M-4,0h8" fill="none" stroke="white" stroke-width="1.5" pointer-events="none"/>
                </g>
                <g id="dirArrow">
                        <path fill="none" stroke="white" stroke-width="1.5" d="M0,-3.0v7 M-2.5,-0.5L0,-3.0L2.5,-0.5"/>
                </g>
               <g id="resetDef">
                       <use xlink:href="#rim2" fill="#404040">
                               <set attributeName="fill" to="#808080" begin="reset.mouseover" end="reset.mouseout"/>
                       </use>
               </g>
        </defs>

<script type="text/javascript">
var viewWidth = 1923;
var viewHeight = 308;
var sectionId = 'dynsection-1';
</script>
<script xlink:href="svgpan.js"/>
<svg id="graph" class="graph">
<g id="viewport">
<title>Framework/Controller.h</title>
<polygon fill="white" stroke="white" points="-4,5 -4,-304 1920,-304 1920,5 -4,5"/>
<!-- Node1 -->
<g id="node1" class="node"><title>Node1</title>
<polygon fill="#bfbfbf" stroke="black" points="942.5,-280.5 942.5,-299.5 1059.5,-299.5 1059.5,-280.5 942.5,-280.5"/>
<text text-anchor="middle" x="1001" y="-287.5" font-family="Helvetica,sans-Serif" font-size="10.00">Framework/Controller.h</text>
</g>
<!-- Node2 -->
<g id="node2" class="node"><title>Node2</title>
<g id="a_node2"><a xlink:href="_aquaduino_8h.html" target="_top" xlink:title="Aquaduino.h">
<polygon fill="white" stroke="black" points="1179.5,-168.5 1179.5,-187.5 1250.5,-187.5 1250.5,-168.5 1179.5,-168.5"/>
<text text-anchor="middle" x="1215" y="-175.5" font-family="Helvetica,sans-Serif" font-size="10.00">Aquaduino.h</text>
</a>
</g>
</g>
<!-- Node1&#45;&gt;Node2 -->
<g id="edge1" class="edge"><title>Node1&#45;&gt;Node2</title>
<path fill="none" stroke="midnightblue" d="M1026.81,-275.735C1071.26,-252.884 1161.09,-206.711 1198.29,-187.591"/>
<polygon fill="midnightblue" stroke="midnightblue" points="1025.09,-272.684 1017.79,-280.368 1028.29,-278.91 1025.09,-272.684"/>
</g>
<!-- Node16 -->
<g id="node16" class="node"><title>Node16</title>
<g id="a_node16"><a xlink:href="_actuator_8h.html" target="_top" xlink:title="Framework/Actuator.h">
<polygon fill="white" stroke="black" points="944.5,-224.5 944.5,-243.5 1057.5,-243.5 1057.5,-224.5 944.5,-224.5"/>
<text text-anchor="middle" x="1001" y="-231.5" font-family="Helvetica,sans-Serif" font-size="10.00">Framework/Actuator.h</text>
</a>
</g>
</g>
<!-- Node1&#45;&gt;Node16 -->
<g id="edge17" class="edge"><title>Node1&#45;&gt;Node16</title>
<path fill="none" stroke="midnightblue" d="M1001,-269.805C1001,-260.91 1001,-250.78 1001,-243.751"/>
<polygon fill="midnightblue" stroke="midnightblue" points="997.5,-270.083 1001,-280.083 1004.5,-270.083 997.5,-270.083"/>
</g>
<!-- Node4 -->
<g id="node4" class="node"><title>Node4</title>
<g id="a_node4"><a xlink:href="_config_manager_8h.html" target="_top" xlink:title="Framework/ConfigManager.h">
<polygon fill="white" stroke="black" points="1775,-112.5 1775,-131.5 1915,-131.5 1915,-112.5 1775,-112.5"/>
<text text-anchor="middle" x="1845" y="-119.5" font-family="Helvetica,sans-Serif" font-size="10.00">Framework/ConfigManager.h</text>
</a>
</g>
</g>
<!-- Node1&#45;&gt;Node4 -->
<g id="edge33" class="edge"><title>Node1&#45;&gt;Node4</title>
<path fill="none" stroke="midnightblue" d="M1057.03,-278.573C1105.28,-269.554 1176.76,-256.097 1239,-244 1451.21,-202.754 1704.8,-151.474 1803.15,-131.509"/>
<polygon fill="midnightblue" stroke="midnightblue" points="1056.28,-275.152 1047.1,-280.428 1057.57,-282.033 1056.28,-275.152"/>
</g>
<!-- Node20 -->
<g id="node20" class="node"><title>Node20</title>
<g id="a_node20"><a xlink:href="_temperature_controller_8h.html" target="_top" xlink:title="Controller/TemperatureController.h">
<polygon fill="white" stroke="black" points="420,-168.5 420,-187.5 584,-187.5 584,-168.5 420,-168.5"/>
<text text-anchor="middle" x="502" y="-175.5" font-family="Helvetica,sans-Serif" font-size="10.00">Controller/TemperatureController.h</text>
</a>
</g>
</g>
<!-- Node1&#45;&gt;Node20 -->
<g id="edge34" class="edge"><title>Node1&#45;&gt;Node20</title>
<path fill="none" stroke="midnightblue" d="M952.227,-278.249C853.25,-256.43 630.594,-207.347 540.716,-187.535"/>
<polygon fill="midnightblue" stroke="midnightblue" points="951.741,-281.725 962.26,-280.46 953.247,-274.889 951.741,-281.725"/>
</g>
<!-- Node21 -->
<g id="node21" class="node"><title>Node21</title>
<g id="a_node21"><a xlink:href="_level_controller_8h.html" target="_top" xlink:title="Controller/LevelController.h">
<polygon fill="white" stroke="black" points="602,-168.5 602,-187.5 734,-187.5 734,-168.5 602,-168.5"/>
<text text-anchor="middle" x="668" y="-175.5" font-family="Helvetica,sans-Serif" font-size="10.00">Controller/LevelController.h</text>
</a>
</g>
</g>
<!-- Node1&#45;&gt;Node21 -->
<g id="edge35" class="edge"><title>Node1&#45;&gt;Node21</title>
<path fill="none" stroke="midnightblue" d="M965.403,-277.241C898.02,-254.983 753.284,-207.172 694.066,-187.61"/>
<polygon fill="midnightblue" stroke="midnightblue" points="964.554,-280.647 975.147,-280.46 966.75,-274 964.554,-280.647"/>
</g>
<!-- Node23 -->
<g id="node23" class="node"><title>Node23</title>
<g id="a_node23"><a xlink:href="_clock_timer_controller_8h.html" target="_top" xlink:title="Controller/ClockTimerController.h">
<polygon fill="white" stroke="black" points="242.5,-168.5 242.5,-187.5 401.5,-187.5 401.5,-168.5 242.5,-168.5"/>
<text text-anchor="middle" x="322" y="-175.5" font-family="Helvetica,sans-Serif" font-size="10.00">Controller/ClockTimerController.h</text>
</a>
</g>
</g>
<!-- Node1&#45;&gt;Node23 -->
<g id="edge36" class="edge"><title>Node1&#45;&gt;Node23</title>
<path fill="none" stroke="midnightblue" d="M932.244,-278.998C871.807,-270.115 781.501,-256.622 703,-244 583.086,-224.719 442.279,-200.21 370.067,-187.503"/>
<polygon fill="midnightblue" stroke="midnightblue" points="932.023,-282.503 942.425,-280.492 933.039,-275.577 932.023,-282.503"/>
</g>
<!-- Node11 -->
<g id="node11" class="node"><title>Node11</title>
<g id="a_node11"><a xlink:href="_controller_8cpp.html" target="_top" xlink:title="Framework/Controller.cpp">
<polygon fill="white" stroke="black" points="1629,-112.5 1629,-131.5 1757,-131.5 1757,-112.5 1629,-112.5"/>
<text text-anchor="middle" x="1693" y="-119.5" font-family="Helvetica,sans-Serif" font-size="10.00">Framework/Controller.cpp</text>
</a>
</g>
</g>
<!-- Node1&#45;&gt;Node11 -->
<g id="edge39" class="edge"><title>Node1&#45;&gt;Node11</title>
<path fill="none" stroke="midnightblue" d="M1046.71,-278.034C1175.89,-247.046 1541.77,-159.278 1657.47,-131.524"/>
<polygon fill="midnightblue" stroke="midnightblue" points="1045.66,-274.688 1036.75,-280.425 1047.29,-281.495 1045.66,-274.688"/>
</g>
<!-- Node3 -->
<g id="node3" class="node"><title>Node3</title>
<g id="a_node3"><a xlink:href="_digital_output_8cpp.html" target="_top" xlink:title="Actuators/DigitalOutput.cpp">
<polygon fill="white" stroke="black" points="793.5,-112.5 793.5,-131.5 930.5,-131.5 930.5,-112.5 793.5,-112.5"/>
<text text-anchor="middle" x="862" y="-119.5" font-family="Helvetica,sans-Serif" font-size="10.00">Actuators/DigitalOutput.cpp</text>
</a>
</g>
</g>
<!-- Node2&#45;&gt;Node3 -->
<g id="edge2" class="edge"><title>Node2&#45;&gt;Node3</title>
<path fill="none" stroke="midnightblue" d="M1169.11,-167.924C1079.59,-152.588 987.548,-139.633 927.35,-131.538"/>
<polygon fill="midnightblue" stroke="midnightblue" points="1168.72,-171.407 1179.17,-169.658 1169.91,-164.509 1168.72,-171.407"/>
</g>
<!-- Node2&#45;&gt;Node4 -->
<g id="edge3" class="edge"><title>Node2&#45;&gt;Node4</title>
<path fill="none" stroke="midnightblue" d="M1260.9,-173.75C1355.47,-166.943 1578.87,-150.296 1766,-132 1768.89,-131.718 1771.83,-131.422 1774.8,-131.115"/>
<polygon fill="midnightblue" stroke="midnightblue" points="1260.54,-170.267 1250.81,-174.473 1261.04,-177.249 1260.54,-170.267"/>
</g>
<!-- Node7 -->
<g id="node7" class="node"><title>Node7</title>
<g id="a_node7"><a xlink:href="_aquaduino_8cpp.html" target="_top" xlink:title="Aquaduino.cpp">
<polygon fill="white" stroke="black" points="-0.5,-112.5 -0.5,-131.5 80.5,-131.5 80.5,-112.5 -0.5,-112.5"/>
<text text-anchor="middle" x="40" y="-119.5" font-family="Helvetica,sans-Serif" font-size="10.00">Aquaduino.cpp</text>
</a>
</g>
</g>
<!-- Node2&#45;&gt;Node7 -->
<g id="edge7" class="edge"><title>Node2&#45;&gt;Node7</title>
<path fill="none" stroke="midnightblue" d="M1168.95,-168.111C691.133,-113.705 564.205,-182.314 90,-132 86.9302,-131.674 83.7652,-131.269 80.5884,-130.813"/>
<polygon fill="midnightblue" stroke="midnightblue" points="1168.89,-171.628 1179.22,-169.294 1169.69,-164.674 1168.89,-171.628"/>
</g>
<!-- Node8 -->
<g id="node8" class="node"><title>Node8</title>
<g id="a_node8"><a xlink:href="_clock_timer_controller_8cpp.html" target="_top" xlink:title="Controller/ClockTimerController.cpp">
<polygon fill="white" stroke="black" points="251,-112.5 251,-131.5 421,-131.5 421,-112.5 251,-112.5"/>
<text text-anchor="middle" x="336" y="-119.5" font-family="Helvetica,sans-Serif" font-size="10.00">Controller/ClockTimerController.cpp</text>
</a>
</g>
</g>
<!-- Node2&#45;&gt;Node8 -->
<g id="edge8" class="edge"><title>Node2&#45;&gt;Node8</title>
<path fill="none" stroke="midnightblue" d="M1168.96,-168.082C841.446,-128.171 755.056,-155.455 430,-132 427.057,-131.788 424.063,-131.561 421.039,-131.322"/>
<polygon fill="midnightblue" stroke="midnightblue" points="1168.86,-171.597 1179.22,-169.344 1169.72,-164.649 1168.86,-171.597"/>
</g>
<!-- Node9 -->
<g id="node9" class="node"><title>Node9</title>
<g id="a_node9"><a xlink:href="_level_controller_8cpp.html" target="_top" xlink:title="Controller/LevelController.cpp">
<polygon fill="white" stroke="black" points="632.5,-112.5 632.5,-131.5 775.5,-131.5 775.5,-112.5 632.5,-112.5"/>
<text text-anchor="middle" x="704" y="-119.5" font-family="Helvetica,sans-Serif" font-size="10.00">Controller/LevelController.cpp</text>
</a>
</g>
</g>
<!-- Node2&#45;&gt;Node9 -->
<g id="edge9" class="edge"><title>Node2&#45;&gt;Node9</title>
<path fill="none" stroke="midnightblue" d="M1169.08,-168.015C997.787,-143.312 952.132,-149.296 784,-132 781.219,-131.714 778.385,-131.418 775.522,-131.114"/>
<polygon fill="midnightblue" stroke="midnightblue" points="1168.8,-171.511 1179.2,-169.489 1169.81,-164.584 1168.8,-171.511"/>
</g>
<!-- Node10 -->
<g id="node10" class="node"><title>Node10</title>
<g id="a_node10"><a xlink:href="_temperature_controller_8cpp.html" target="_top" xlink:title="Controller/TemperatureController.cpp">
<polygon fill="white" stroke="black" points="439.5,-112.5 439.5,-131.5 614.5,-131.5 614.5,-112.5 439.5,-112.5"/>
<text text-anchor="middle" x="527" y="-119.5" font-family="Helvetica,sans-Serif" font-size="10.00">Controller/TemperatureController.cpp</text>
</a>
</g>
</g>
<!-- Node2&#45;&gt;Node10 -->
<g id="edge10" class="edge"><title>Node2&#45;&gt;Node10</title>
<path fill="none" stroke="midnightblue" d="M1169.03,-168.059C926.723,-136.453 862.545,-151.108 623,-132 620.247,-131.78 617.449,-131.552 614.626,-131.316"/>
<polygon fill="midnightblue" stroke="midnightblue" points="1168.84,-171.564 1179.21,-169.4 1169.75,-164.624 1168.84,-171.564"/>
</g>
<!-- Node2&#45;&gt;Node11 -->
<g id="edge11" class="edge"><title>Node2&#45;&gt;Node11</title>
<path fill="none" stroke="midnightblue" d="M1260.54,-171.919C1334.78,-163.627 1486.52,-146.64 1615,-132 1619.47,-131.491 1624.08,-130.963 1628.73,-130.431"/>
<polygon fill="midnightblue" stroke="midnightblue" points="1260.14,-168.442 1250.59,-173.031 1260.92,-175.399 1260.14,-168.442"/>
</g>
<!-- Node12 -->
<g id="node12" class="node"><title>Node12</title>
<g id="a_node12"><a xlink:href="_n_t_p_sync_8cpp.html" target="_top" xlink:title="Framework/NTPSync.cpp">
<polygon fill="white" stroke="black" points="949,-112.5 949,-131.5 1077,-131.5 1077,-112.5 949,-112.5"/>
<text text-anchor="middle" x="1013" y="-119.5" font-family="Helvetica,sans-Serif" font-size="10.00">Framework/NTPSync.cpp</text>
</a>
</g>
</g>
<!-- Node2&#45;&gt;Node12 -->
<g id="edge12" class="edge"><title>Node2&#45;&gt;Node12</title>
<path fill="none" stroke="midnightblue" d="M1173.21,-165.829C1135.07,-155.633 1079.52,-140.782 1044.86,-131.516"/>
<polygon fill="midnightblue" stroke="midnightblue" points="1172.43,-169.242 1182.99,-168.444 1174.24,-162.48 1172.43,-169.242"/>
</g>
<!-- Node6 -->
<g id="node6" class="node"><title>Node6</title>
<g id="a_node6"><a xlink:href="_s_d_config_manager_8cpp.html" target="_top" xlink:title="Framework/SDConfigManager.cpp">
<polygon fill="white" stroke="black" points="1271,-0.5 1271,-19.5 1435,-19.5 1435,-0.5 1271,-0.5"/>
<text text-anchor="middle" x="1353" y="-7.5" font-family="Helvetica,sans-Serif" font-size="10.00">Framework/SDConfigManager.cpp</text>
</a>
</g>
</g>
<!-- Node2&#45;&gt;Node6 -->
<g id="edge13" class="edge"><title>Node2&#45;&gt;Node6</title>
<path fill="none" stroke="midnightblue" d="M1172.53,-165.201C1141.77,-154.359 1108.17,-136.289 1124,-112 1160.66,-55.7611 1236.48,-30.617 1290.84,-19.5192"/>
<polygon fill="midnightblue" stroke="midnightblue" points="1171.75,-168.631 1182.34,-168.465 1173.96,-161.989 1171.75,-168.631"/>
</g>
<!-- Node13 -->
<g id="node13" class="node"><title>Node13</title>
<g id="a_node13"><a xlink:href="configweb_8cpp.html" target="_top" xlink:title="Webinterface/configweb.cpp">
<polygon fill="white" stroke="black" points="1133,-112.5 1133,-131.5 1271,-131.5 1271,-112.5 1133,-112.5"/>
<text text-anchor="middle" x="1202" y="-119.5" font-family="Helvetica,sans-Serif" font-size="10.00">Webinterface/configweb.cpp</text>
</a>
</g>
</g>
<!-- Node2&#45;&gt;Node13 -->
<g id="edge14" class="edge"><title>Node2&#45;&gt;Node13</title>
<path fill="none" stroke="midnightblue" d="M1210.45,-158.101C1208.29,-149.136 1205.82,-138.858 1204.11,-131.751"/>
<polygon fill="midnightblue" stroke="midnightblue" points="1207.11,-159.18 1212.85,-168.083 1213.92,-157.542 1207.11,-159.18"/>
</g>
<!-- Node14 -->
<g id="node14" class="node"><title>Node14</title>
<g id="a_node14"><a xlink:href="dispatch_8cpp.html" target="_top" xlink:title="Webinterface/dispatch.cpp">
<polygon fill="white" stroke="black" points="1289,-112.5 1289,-131.5 1421,-131.5 1421,-112.5 1289,-112.5"/>
<text text-anchor="middle" x="1355" y="-119.5" font-family="Helvetica,sans-Serif" font-size="10.00">Webinterface/dispatch.cpp</text>
</a>
</g>
</g>
<!-- Node2&#45;&gt;Node14 -->
<g id="edge15" class="edge"><title>Node2&#45;&gt;Node14</title>
<path fill="none" stroke="midnightblue" d="M1246.7,-164.772C1273,-154.629 1309.72,-140.467 1332.92,-131.516"/>
<polygon fill="midnightblue" stroke="midnightblue" points="1245.25,-161.579 1237.18,-168.444 1247.77,-168.11 1245.25,-161.579"/>
</g>
<!-- Node15 -->
<g id="node15" class="node"><title>Node15</title>
<g id="a_node15"><a xlink:href="mainweb_8cpp.html" target="_top" xlink:title="Webinterface/mainweb.cpp">
<polygon fill="white" stroke="black" points="1439,-112.5 1439,-131.5 1573,-131.5 1573,-112.5 1439,-112.5"/>
<text text-anchor="middle" x="1506" y="-119.5" font-family="Helvetica,sans-Serif" font-size="10.00">Webinterface/mainweb.cpp</text>
</a>
</g>
</g>
<!-- Node2&#45;&gt;Node15 -->
<g id="edge16" class="edge"><title>Node2&#45;&gt;Node15</title>
<path fill="none" stroke="midnightblue" d="M1260.73,-168.513C1315.13,-158.419 1405.41,-141.665 1459.95,-131.545"/>
<polygon fill="midnightblue" stroke="midnightblue" points="1259.88,-165.113 1250.68,-170.379 1261.15,-171.995 1259.88,-165.113"/>
</g>
<!-- Node5 -->
<g id="node5" class="node"><title>Node5</title>
<g id="a_node5"><a xlink:href="_s_d_config_manager_8h.html" target="_top" xlink:title="Framework/SDConfigManager.h">
<polygon fill="white" stroke="black" points="1524,-56.5 1524,-75.5 1678,-75.5 1678,-56.5 1524,-56.5"/>
<text text-anchor="middle" x="1601" y="-63.5" font-family="Helvetica,sans-Serif" font-size="10.00">Framework/SDConfigManager.h</text>
</a>
</g>
</g>
<!-- Node4&#45;&gt;Node5 -->
<g id="edge4" class="edge"><title>Node4&#45;&gt;Node5</title>
<path fill="none" stroke="midnightblue" d="M1796.57,-110.281C1750.46,-100.077 1681.97,-84.9203 1639.48,-75.5164"/>
<polygon fill="midnightblue" stroke="midnightblue" points="1795.82,-113.7 1806.34,-112.444 1797.33,-106.865 1795.82,-113.7"/>
</g>
<!-- Node5&#45;&gt;Node2 -->
<g id="edge5" class="edge"><title>Node5&#45;&gt;Node2</title>
<path fill="none" stroke="midnightblue" d="M1600.79,-85.864C1599.55,-100.711 1595.28,-120.718 1582,-132 1532.59,-173.976 1332.65,-177.726 1250.5,-177.441"/>
<polygon fill="midnightblue" stroke="midnightblue" points="1604.3,-85.8946 1601.25,-75.7463 1597.3,-85.5775 1604.3,-85.8946"/>
</g>
<!-- Node5&#45;&gt;Node6 -->
<g id="edge6" class="edge"><title>Node5&#45;&gt;Node6</title>
<path fill="none" stroke="midnightblue" d="M1551.77,-54.2815C1504.91,-44.0769 1435.3,-28.9203 1392.11,-19.5164"/>
<polygon fill="midnightblue" stroke="midnightblue" points="1551.19,-57.7358 1561.7,-56.4435 1552.68,-50.896 1551.19,-57.7358"/>
</g>
<!-- Node16&#45;&gt;Node2 -->
<g id="edge18" class="edge"><title>Node16&#45;&gt;Node2</title>
<path fill="none" stroke="midnightblue" d="M1044.76,-221.959C1085.17,-211.76 1144.37,-196.822 1181.25,-187.516"/>
<polygon fill="midnightblue" stroke="midnightblue" points="1043.75,-218.603 1034.91,-224.444 1045.46,-225.39 1043.75,-218.603"/>
</g>
<!-- Node16&#45;&gt;Node4 -->
<g id="edge19" class="edge"><title>Node16&#45;&gt;Node4</title>
<path fill="none" stroke="midnightblue" d="M1067.96,-224.852C1140.45,-215.983 1259.47,-201.289 1362,-188 1513.45,-168.37 1691.45,-144.107 1783.27,-131.504"/>
<polygon fill="midnightblue" stroke="midnightblue" points="1067.11,-221.429 1057.61,-226.117 1067.96,-228.377 1067.11,-221.429"/>
</g>
<!-- Node17 -->
<g id="node17" class="node"><title>Node17</title>
<g id="a_node17"><a xlink:href="_digital_output_8h.html" target="_top" xlink:title="Actuators/DigitalOutput.h">
<polygon fill="white" stroke="black" points="752,-168.5 752,-187.5 878,-187.5 878,-168.5 752,-168.5"/>
<text text-anchor="middle" x="815" y="-175.5" font-family="Helvetica,sans-Serif" font-size="10.00">Actuators/DigitalOutput.h</text>
</a>
</g>
</g>
<!-- Node16&#45;&gt;Node17 -->
<g id="edge20" class="edge"><title>Node16&#45;&gt;Node17</title>
<path fill="none" stroke="midnightblue" d="M961.622,-221.568C926.534,-211.381 875.979,-196.703 844.334,-187.516"/>
<polygon fill="midnightblue" stroke="midnightblue" points="960.948,-225.017 971.528,-224.444 962.9,-218.294 960.948,-225.017"/>
</g>
<!-- Node18 -->
<g id="node18" class="node"><title>Node18</title>
<g id="a_node18"><a xlink:href="_p_w_m_output_8h.html" target="_top" xlink:title="Actuators/PWMOutput.h">
<polygon fill="white" stroke="black" points="896,-168.5 896,-187.5 1020,-187.5 1020,-168.5 896,-168.5"/>
<text text-anchor="middle" x="958" y="-175.5" font-family="Helvetica,sans-Serif" font-size="10.00">Actuators/PWMOutput.h</text>
</a>
</g>
</g>
<!-- Node16&#45;&gt;Node18 -->
<g id="edge23" class="edge"><title>Node16&#45;&gt;Node18</title>
<path fill="none" stroke="midnightblue" d="M987.578,-216.144C980.086,-206.736 971.063,-195.405 964.968,-187.751"/>
<polygon fill="midnightblue" stroke="midnightblue" points="984.932,-218.44 993.899,-224.083 990.408,-214.08 984.932,-218.44"/>
</g>
<!-- Node16&#45;&gt;Node20 -->
<g id="edge25" class="edge"><title>Node16&#45;&gt;Node20</title>
<path fill="none" stroke="midnightblue" d="M934.259,-225.778C842.679,-215.867 678.343,-198.083 580.822,-187.53"/>
<polygon fill="midnightblue" stroke="midnightblue" points="933.926,-229.262 944.244,-226.858 934.679,-222.302 933.926,-229.262"/>
</g>
<!-- Node16&#45;&gt;Node21 -->
<g id="edge28" class="edge"><title>Node16&#45;&gt;Node21</title>
<path fill="none" stroke="midnightblue" d="M938.043,-222.791C875.12,-212.587 779.481,-197.078 720.518,-187.516"/>
<polygon fill="midnightblue" stroke="midnightblue" points="937.804,-226.298 948.235,-224.444 938.924,-219.388 937.804,-226.298"/>
</g>
<!-- Node22 -->
<g id="node22" class="node"><title>Node22</title>
<g id="a_node22"><a xlink:href="_actuator_8cpp.html" target="_top" xlink:title="Framework/Actuator.cpp">
<polygon fill="white" stroke="black" points="1038.5,-168.5 1038.5,-187.5 1161.5,-187.5 1161.5,-168.5 1038.5,-168.5"/>
<text text-anchor="middle" x="1100" y="-175.5" font-family="Helvetica,sans-Serif" font-size="10.00">Framework/Actuator.cpp</text>
</a>
</g>
</g>
<!-- Node16&#45;&gt;Node22 -->
<g id="edge31" class="edge"><title>Node16&#45;&gt;Node22</title>
<path fill="none" stroke="midnightblue" d="M1025.84,-219.453C1044.11,-209.483 1068.42,-196.228 1084.13,-187.655"/>
<polygon fill="midnightblue" stroke="midnightblue" points="1024.01,-216.463 1016.91,-224.324 1027.36,-222.608 1024.01,-216.463"/>
</g>
<!-- Node16&#45;&gt;Node11 -->
<g id="edge32" class="edge"><title>Node16&#45;&gt;Node11</title>
<path fill="none" stroke="midnightblue" d="M1064.93,-222.837C1200.26,-201.326 1513.54,-151.528 1639.31,-131.535"/>
<polygon fill="midnightblue" stroke="midnightblue" points="1064.05,-219.433 1054.72,-224.46 1065.15,-226.347 1064.05,-219.433"/>
</g>
<!-- Node17&#45;&gt;Node3 -->
<g id="edge21" class="edge"><title>Node17&#45;&gt;Node3</title>
<path fill="none" stroke="midnightblue" d="M829.421,-160.431C837.658,-150.967 847.654,-139.483 854.383,-131.751"/>
<polygon fill="midnightblue" stroke="midnightblue" points="826.686,-158.242 822.761,-168.083 831.966,-162.838 826.686,-158.242"/>
</g>
<!-- Node17&#45;&gt;Node7 -->
<g id="edge22" class="edge"><title>Node17&#45;&gt;Node7</title>
<path fill="none" stroke="midnightblue" d="M741.844,-167.963C451.799,-142.487 375.448,-165.43 90,-132 86.9339,-131.641 83.7716,-131.212 80.5968,-130.738"/>
<polygon fill="midnightblue" stroke="midnightblue" points="741.54,-171.45 751.811,-168.85 742.16,-164.477 741.54,-171.45"/>
</g>
<!-- Node19 -->
<g id="node19" class="node"><title>Node19</title>
<g id="a_node19"><a xlink:href="_p_w_m_output_8cpp.html" target="_top" xlink:title="Actuators/PWMOutput.cpp">
<polygon fill="white" stroke="black" points="99,-112.5 99,-131.5 233,-131.5 233,-112.5 99,-112.5"/>
<text text-anchor="middle" x="166" y="-119.5" font-family="Helvetica,sans-Serif" font-size="10.00">Actuators/PWMOutput.cpp</text>
</a>
</g>
</g>
<!-- Node18&#45;&gt;Node19 -->
<g id="edge24" class="edge"><title>Node18&#45;&gt;Node19</title>
<path fill="none" stroke="midnightblue" d="M885.422,-167.92C599.332,-142.276 524.68,-156.602 242,-132 239.088,-131.747 236.115,-131.47 233.113,-131.177"/>
<polygon fill="midnightblue" stroke="midnightblue" points="885.414,-171.434 895.689,-168.85 886.045,-164.462 885.414,-171.434"/>
</g>
<!-- Node20&#45;&gt;Node7 -->
<g id="edge26" class="edge"><title>Node20&#45;&gt;Node7</title>
<path fill="none" stroke="midnightblue" d="M409.575,-167.659C307.474,-157.206 149.615,-140.61 90,-132 86.9447,-131.559 83.7902,-131.07 80.6208,-130.555"/>
<polygon fill="midnightblue" stroke="midnightblue" points="409.279,-171.147 419.583,-168.682 409.991,-164.183 409.279,-171.147"/>
</g>
<!-- Node20&#45;&gt;Node10 -->
<g id="edge27" class="edge"><title>Node20&#45;&gt;Node10</title>
<path fill="none" stroke="midnightblue" d="M510.341,-158.983C514.585,-149.817 519.55,-139.092 522.949,-131.751"/>
<polygon fill="midnightblue" stroke="midnightblue" points="507.153,-157.538 506.128,-168.083 513.506,-160.479 507.153,-157.538"/>
</g>
<!-- Node21&#45;&gt;Node7 -->
<g id="edge29" class="edge"><title>Node21&#45;&gt;Node7</title>
<path fill="none" stroke="midnightblue" d="M591.687,-167.923C368.172,-147.021 309.127,-159.483 90,-132 86.937,-131.616 83.7769,-131.168 80.6036,-130.682"/>
<polygon fill="midnightblue" stroke="midnightblue" points="591.48,-171.419 601.765,-168.877 592.14,-164.45 591.48,-171.419"/>
</g>
<!-- Node21&#45;&gt;Node9 -->
<g id="edge30" class="edge"><title>Node21&#45;&gt;Node9</title>
<path fill="none" stroke="midnightblue" d="M679.623,-159.566C685.817,-150.275 693.168,-139.248 698.166,-131.751"/>
<polygon fill="midnightblue" stroke="midnightblue" points="676.58,-157.821 673.945,-168.083 682.404,-161.704 676.58,-157.821"/>
</g>
<!-- Node23&#45;&gt;Node7 -->
<g id="edge37" class="edge"><title>Node23&#45;&gt;Node7</title>
<path fill="none" stroke="midnightblue" d="M267.458,-166.556C212.829,-156.095 129.997,-140.234 80.8122,-130.815"/>
<polygon fill="midnightblue" stroke="midnightblue" points="266.836,-170 277.316,-168.444 268.153,-163.125 266.836,-170"/>
</g>
<!-- Node23&#45;&gt;Node8 -->
<g id="edge38" class="edge"><title>Node23&#45;&gt;Node8</title>
<path fill="none" stroke="midnightblue" d="M326.823,-158.396C329.165,-149.362 331.868,-138.936 333.731,-131.751"/>
<polygon fill="midnightblue" stroke="midnightblue" points="323.434,-157.525 324.312,-168.083 330.21,-159.281 323.434,-157.525"/>
</g>
</g>
</svg>
        <g id="navigator" transform="translate(0 0)" fill="#404254">
                <rect fill="#f2f5e9" fill-opacity="0.5" stroke="#606060" stroke-width=".5" x="0" y="0" width="60" height="60"/>
                <use id="zoomplus" xlink:href="#zoomPlus" x="17" y="9" onmousedown="handleZoom(evt,'in')"/>
                <use id="zoomminus" xlink:href="#zoomMin" x="42" y="9" onmousedown="handleZoom(evt,'out')"/>
                <use id="reset" xlink:href="#resetDef" x="30" y="36" onmousedown="handleReset()"/>
                <g id="arrowUp" xlink:href="#dirArrow" transform="translate(30 24)" onmousedown="handlePan(0,-1)">
                  <use xlink:href="#rim" fill="#404040">
                        <set attributeName="fill" to="#808080" begin="arrowUp.mouseover" end="arrowUp.mouseout"/>
                  </use>
                  <path fill="none" stroke="white" stroke-width="1.5" d="M0,-3.0v7 M-2.5,-0.5L0,-3.0L2.5,-0.5"/>
                </g>
                <g id="arrowRight" xlink:href="#dirArrow" transform="rotate(90) translate(36 -43)" onmousedown="handlePan(1,0)">
                  <use xlink:href="#rim" fill="#404040">
                        <set attributeName="fill" to="#808080" begin="arrowRight.mouseover" end="arrowRight.mouseout"/>
                  </use>
                  <path fill="none" stroke="white" stroke-width="1.5" d="M0,-3.0v7 M-2.5,-0.5L0,-3.0L2.5,-0.5"/>
                </g>
                <g id="arrowDown" xlink:href="#dirArrow" transform="rotate(180) translate(-30 -48)" onmousedown="handlePan(0,1)">
                  <use xlink:href="#rim" fill="#404040">
                        <set attributeName="fill" to="#808080" begin="arrowDown.mouseover" end="arrowDown.mouseout"/>
                  </use>
                  <path fill="none" stroke="white" stroke-width="1.5" d="M0,-3.0v7 M-2.5,-0.5L0,-3.0L2.5,-0.5"/>
                </g>
                <g id="arrowLeft" xlink:href="#dirArrow" transform="rotate(270) translate(-36 17)" onmousedown="handlePan(-1,0)">
                  <use xlink:href="#rim" fill="#404040">
                        <set attributeName="fill" to="#808080" begin="arrowLeft.mouseover" end="arrowLeft.mouseout"/>
                  </use>
                  <path fill="none" stroke="white" stroke-width="1.5" d="M0,-3.0v7 M-2.5,-0.5L0,-3.0L2.5,-0.5"/>
                </g>
        </g>
        <svg viewBox="0 0 15 15" width="100%" height="30px" preserveAspectRatio="xMaxYMin meet">
         <g id="arrow_out" transform="scale(0.3 0.3)">
          <a xlink:href="_controller_8h__dep__incl_org.svg" target="_base">
           <rect id="button" ry="5" rx="5" y="6" x="6" height="38" width="38"
                fill="#f2f5e9" fill-opacity="0.5" stroke="#606060" stroke-width="1.0"/>
           <path id="arrow"
             d="M 11.500037,31.436501 C 11.940474,20.09759 22.043105,11.32322 32.158766,21.979434 L 37.068811,17.246167 C 37.068811,17.246167 37.088388,32 37.088388,32 L 22.160133,31.978069 C 22.160133,31.978069 26.997745,27.140456 26.997745,27.140456 C 18.528582,18.264221 13.291696,25.230495 11.500037,31.436501 z"
             style="fill:#404040;"/>
          </a>
         </g>
        </svg>
</svg>
