<?xml version="1.0" encoding="UTF-8" standalone="no"?>
<!DOCTYPE svg PUBLIC "-//W3C//DTD SVG 1.1//EN"
 "http://www.w3.org/Graphics/SVG/1.1/DTD/svg11.dtd">
<!-- Generated by graphviz version 2.30.1 (20130214.1330)
 -->
<!-- Title: Framework/Controller.h Pages: 1 -->
<svg width="451pt" height="196pt"
 viewBox="0.00 0.00 451.00 196.00" xmlns="http://www.w3.org/2000/svg" xmlns:xlink="http://www.w3.org/1999/xlink">
<g id="graph0" class="graph" transform="scale(1 1) rotate(0) translate(4 192)">
<title>Framework/Controller.h</title>
<polygon fill="white" stroke="white" points="-4,5 -4,-192 448,-192 448,5 -4,5"/>
<!-- Node1 -->
<g id="node1" class="node"><title>Node1</title>
<polygon fill="#bfbfbf" stroke="black" points="223.5,-168.5 223.5,-187.5 340.5,-187.5 340.5,-168.5 223.5,-168.5"/>
<text text-anchor="middle" x="282" y="-175.5" font-family="Helvetica,sans-Serif" font-size="10.00">Framework/Controller.h</text>
</g>
<!-- Node2 -->
<g id="node2" class="node"><title>Node2</title>
<g id="a_node2"><a xlink:href="_object_8h.html" target="_top" xlink:title="Object.h">
<polygon fill="white" stroke="black" points="134.5,-112.5 134.5,-131.5 187.5,-131.5 187.5,-112.5 134.5,-112.5"/>
<text text-anchor="middle" x="161" y="-119.5" font-family="Helvetica,sans-Serif" font-size="10.00">Object.h</text>
</a>
</g>
</g>
<!-- Node1&#45;&gt;Node2 -->
<g id="edge1" class="edge"><title>Node1&#45;&gt;Node2</title>
<path fill="none" stroke="midnightblue" d="M262.827,-168.444C243.091,-159.636 212.115,-145.812 189.507,-135.722"/>
<polygon fill="midnightblue" stroke="midnightblue" points="190.641,-132.396 180.083,-131.516 187.789,-138.788 190.641,-132.396"/>
</g>
<!-- Node6 -->
<g id="node6" class="node"><title>Node6</title>
<g id="a_node6"><a xlink:href="_serializable_8h.html" target="_top" xlink:title="Serializable.h">
<polygon fill="white" stroke="black" points="244.5,-112.5 244.5,-131.5 319.5,-131.5 319.5,-112.5 244.5,-112.5"/>
<text text-anchor="middle" x="282" y="-119.5" font-family="Helvetica,sans-Serif" font-size="10.00">Serializable.h</text>
</a>
</g>
</g>
<!-- Node1&#45;&gt;Node6 -->
<g id="edge5" class="edge"><title>Node1&#45;&gt;Node6</title>
<path fill="none" stroke="midnightblue" d="M282,-168.083C282,-161.006 282,-150.861 282,-141.986"/>
<polygon fill="midnightblue" stroke="midnightblue" points="285.5,-141.751 282,-131.751 278.5,-141.751 285.5,-141.751"/>
</g>
<!-- Node8 -->
<g id="node8" class="node"><title>Node8</title>
<g id="a_node8"><a xlink:href="_web_interface_8h.html" target="_top" xlink:title="WebInterface.h">
<polygon fill="white" stroke="black" points="338,-112.5 338,-131.5 420,-131.5 420,-112.5 338,-112.5"/>
<text text-anchor="middle" x="379" y="-119.5" font-family="Helvetica,sans-Serif" font-size="10.00">WebInterface.h</text>
</a>
</g>
</g>
<!-- Node1&#45;&gt;Node8 -->
<g id="edge7" class="edge"><title>Node1&#45;&gt;Node8</title>
<path fill="none" stroke="midnightblue" d="M297.585,-168.324C312.999,-159.743 336.812,-146.486 354.71,-136.522"/>
<polygon fill="midnightblue" stroke="midnightblue" points="356.419,-139.577 363.454,-131.655 353.014,-133.461 356.419,-139.577"/>
</g>
<!-- Node3 -->
<g id="node3" class="node"><title>Node3</title>
<g id="a_node3"><a xlink:href="_config_8h.html" target="_top" xlink:title="Framework/Config.h">
<polygon fill="white" stroke="black" points="148.5,-56.5 148.5,-75.5 251.5,-75.5 251.5,-56.5 148.5,-56.5"/>
<text text-anchor="middle" x="200" y="-63.5" font-family="Helvetica,sans-Serif" font-size="10.00">Framework/Config.h</text>
</a>
</g>
</g>
<!-- Node1&#45;&gt;Node3 -->
<g id="edge9" class="edge"><title>Node1&#45;&gt;Node3</title>
<path fill="none" stroke="midnightblue" d="M270.974,-168.185C260.791,-159.666 245.673,-146.024 235,-132 223.743,-117.208 214.007,-98.3144 207.682,-84.7138"/>
<polygon fill="midnightblue" stroke="midnightblue" points="210.833,-83.1871 203.542,-75.5007 204.449,-86.0567 210.833,-83.1871"/>
</g>
<!-- Node9 -->
<g id="node9" class="node"><title>Node9</title>
<polygon fill="white" stroke="#bfbfbf" points="371,-56.5 371,-75.5 443,-75.5 443,-56.5 371,-56.5"/>
<text text-anchor="middle" x="407" y="-63.5" font-family="Helvetica,sans-Serif" font-size="10.00">WebServer.h</text>
</g>
<!-- Node1&#45;&gt;Node9 -->
<g id="edge10" class="edge"><title>Node1&#45;&gt;Node9</title>
<path fill="none" stroke="midnightblue" d="M340.634,-175.048C372.221,-170.628 408.763,-159.359 429,-132 439.577,-117.7 430.335,-97.9722 420.793,-84.0108"/>
<polygon fill="midnightblue" stroke="midnightblue" points="423.456,-81.7262 414.684,-75.784 417.836,-85.8993 423.456,-81.7262"/>
</g>
<!-- Node2&#45;&gt;Node3 -->
<g id="edge2" class="edge"><title>Node2&#45;&gt;Node3</title>
<path fill="none" stroke="midnightblue" d="M167.44,-112.083C172.949,-104.455 181.031,-93.2645 187.765,-83.9408"/>
<polygon fill="midnightblue" stroke="midnightblue" points="190.662,-85.9071 193.68,-75.7511 184.987,-81.8087 190.662,-85.9071"/>
</g>
<!-- Node5 -->
<g id="node5" class="node"><title>Node5</title>
<g id="a_node5"><a xlink:href="_object_types_8h.html" target="_top" xlink:title="Framework/ObjectTypes.h">
<polygon fill="white" stroke="black" points="-0.5,-56.5 -0.5,-75.5 130.5,-75.5 130.5,-56.5 -0.5,-56.5"/>
<text text-anchor="middle" x="65" y="-63.5" font-family="Helvetica,sans-Serif" font-size="10.00">Framework/ObjectTypes.h</text>
</a>
</g>
</g>
<!-- Node2&#45;&gt;Node5 -->
<g id="edge4" class="edge"><title>Node2&#45;&gt;Node5</title>
<path fill="none" stroke="midnightblue" d="M145.576,-112.324C130.46,-103.822 107.185,-90.7288 89.5288,-80.7975"/>
<polygon fill="midnightblue" stroke="midnightblue" points="90.8175,-77.5066 80.3858,-75.6545 87.3856,-83.6077 90.8175,-77.5066"/>
</g>
<!-- Node4 -->
<g id="node4" class="node"><title>Node4</title>
<polygon fill="white" stroke="#bfbfbf" points="175.5,-0.5 175.5,-19.5 224.5,-19.5 224.5,-0.5 175.5,-0.5"/>
<text text-anchor="middle" x="200" y="-7.5" font-family="Helvetica,sans-Serif" font-size="10.00">stdint.h</text>
</g>
<!-- Node3&#45;&gt;Node4 -->
<g id="edge3" class="edge"><title>Node3&#45;&gt;Node4</title>
<path fill="none" stroke="midnightblue" d="M200,-56.083C200,-49.0059 200,-38.8611 200,-29.9865"/>
<polygon fill="midnightblue" stroke="midnightblue" points="203.5,-29.751 200,-19.7511 196.5,-29.7511 203.5,-29.751"/>
</g>
<!-- Node7 -->
<g id="node7" class="node"><title>Node7</title>
<polygon fill="white" stroke="#bfbfbf" points="270,-56.5 270,-75.5 328,-75.5 328,-56.5 270,-56.5"/>
<text text-anchor="middle" x="299" y="-63.5" font-family="Helvetica,sans-Serif" font-size="10.00">Arduino.h</text>
</g>
<!-- Node6&#45;&gt;Node7 -->
<g id="edge6" class="edge"><title>Node6&#45;&gt;Node7</title>
<path fill="none" stroke="midnightblue" d="M284.807,-112.083C287.085,-104.849 290.371,-94.4087 293.208,-85.3968"/>
<polygon fill="midnightblue" stroke="midnightblue" points="296.581,-86.3406 296.245,-75.7511 289.904,-84.2385 296.581,-86.3406"/>
</g>
<!-- Node8&#45;&gt;Node9 -->
<g id="edge8" class="edge"><title>Node8&#45;&gt;Node9</title>
<path fill="none" stroke="midnightblue" d="M383.624,-112.083C387.456,-104.691 393.024,-93.9533 397.765,-84.8111"/>
<polygon fill="midnightblue" stroke="midnightblue" points="400.966,-86.2398 402.462,-75.7511 394.752,-83.0175 400.966,-86.2398"/>
</g>
</g>
</svg>
