<?xml version="1.0" encoding="UTF-8" standalone="no"?>
<!DOCTYPE svg PUBLIC "-//W3C//DTD SVG 1.1//EN"
 "http://www.w3.org/Graphics/SVG/1.1/DTD/svg11.dtd">
<!-- Generated by graphviz version 2.30.1 (20130214.1330)
 -->
<!-- Title: Framework/ConfigManager.h Pages: 1 -->
<!--zoomable 196 -->
<svg id="main" version="1.1" xmlns="http://www.w3.org/2000/svg" xmlns:xlink="http://www.w3.org/1999/xlink" xml:space="preserve" onload="init(evt)">
<style type="text/css"><![CDATA[
.edge:hover path { stroke: red; }
.edge:hover polygon { stroke: red; fill: red; }
]]></style>
<script type="text/javascript"><![CDATA[
var edges = document.getElementsByTagName('g');
if (edges && edges.length) {
  for (var i=0;i<edges.length;i++) {
    if (edges[i].id.substr(0,4)=='edge') {
      edges[i].setAttribute('class','edge');
    }
  }
}
]]></script>
        <defs>
                <circle id="rim" cx="0" cy="0" r="7"/>
                <circle id="rim2" cx="0" cy="0" r="3.5"/>
                <g id="zoomPlus">
                        <use xlink:href="#rim" fill="#404040">
                                <set attributeName="fill" to="#808080" begin="zoomplus.mouseover" end="zoomplus.mouseout"/>
                        </use>
                        <path d="M-4,0h8M0,-4v8" fill="none" stroke="white" stroke-width="1.5" pointer-events="none"/>
                </g>
                <g id="zoomMin">
                        <use xlink:href="#rim" fill="#404040">
                                <set attributeName="fill" to="#808080" begin="zoomminus.mouseover" end="zoomminus.mouseout"/>
                        </use>
                        <path d="M-4,0h8" fill="none" stroke="white" stroke-width="1.5" pointer-events="none"/>
                </g>
                <g id="dirArrow">
                        <path fill="none" stroke="white" stroke-width="1.5" d="M0,-3.0v7 M-2.5,-0.5L0,-3.0L2.5,-0.5"/>
                </g>
               <g id="resetDef">
                       <use xlink:href="#rim2" fill="#404040">
                               <set attributeName="fill" to="#808080" begin="reset.mouseover" end="reset.mouseout"/>
                       </use>
               </g>
        </defs>

<script type="text/javascript">
var viewWidth = 1719;
var viewHeight = 196;
var sectionId = 'dynsection-1';
</script>
<script xlink:href="svgpan.js"/>
<svg id="graph" class="graph">
<g id="viewport">
<title>Framework/ConfigManager.h</title>
<polygon fill="white" stroke="white" points="-4,5 -4,-192 1716,-192 1716,5 -4,5"/>
<!-- Node1 -->
<g id="node1" class="node"><title>Node1</title>
<polygon fill="#bfbfbf" stroke="black" points="916,-168.5 916,-187.5 1056,-187.5 1056,-168.5 916,-168.5"/>
<text text-anchor="middle" x="986" y="-175.5" font-family="Helvetica,sans-Serif" font-size="10.00">Framework/ConfigManager.h</text>
</g>
<!-- Node2 -->
<g id="node2" class="node"><title>Node2</title>
<g id="a_node2"><a xlink:href="_s_d_config_manager_8h.html" target="_top" xlink:title="Framework/SDConfigManager.h">
<polygon fill="white" stroke="black" points="962,-112.5 962,-131.5 1116,-131.5 1116,-112.5 962,-112.5"/>
<text text-anchor="middle" x="1039" y="-119.5" font-family="Helvetica,sans-Serif" font-size="10.00">Framework/SDConfigManager.h</text>
</a>
</g>
</g>
<!-- Node1&#45;&gt;Node2 -->
<g id="edge1" class="edge"><title>Node1&#45;&gt;Node2</title>
<path fill="none" stroke="midnightblue" d="M1001.98,-160.718C1011.32,-151.2 1022.75,-139.561 1030.41,-131.751"/>
<polygon fill="midnightblue" stroke="midnightblue" points="999.259,-158.494 994.752,-168.083 1004.25,-163.398 999.259,-158.494"/>
</g>
<!-- Node3 -->
<g id="node3" class="node"><title>Node3</title>
<g id="a_node3"><a xlink:href="_aquaduino_8h.html" target="_top" xlink:title="Aquaduino.h">
<polygon fill="white" stroke="black" points="898.5,-56.5 898.5,-75.5 969.5,-75.5 969.5,-56.5 898.5,-56.5"/>
<text text-anchor="middle" x="934" y="-63.5" font-family="Helvetica,sans-Serif" font-size="10.00">Aquaduino.h</text>
</a>
</g>
</g>
<!-- Node2&#45;&gt;Node3 -->
<g id="edge2" class="edge"><title>Node2&#45;&gt;Node3</title>
<path fill="none" stroke="midnightblue" d="M1013.19,-107.726C993.747,-97.7271 967.652,-84.3065 950.828,-75.6545"/>
<polygon fill="midnightblue" stroke="midnightblue" points="1011.64,-110.863 1022.13,-112.324 1014.84,-104.638 1011.64,-110.863"/>
</g>
<!-- Node11 -->
<g id="node11" class="node"><title>Node11</title>
<g id="a_node11"><a xlink:href="_s_d_config_manager_8cpp.html" target="_top" xlink:title="Framework/SDConfigManager.cpp">
<polygon fill="white" stroke="black" points="1547,-0.5 1547,-19.5 1711,-19.5 1711,-0.5 1547,-0.5"/>
<text text-anchor="middle" x="1629" y="-7.5" font-family="Helvetica,sans-Serif" font-size="10.00">Framework/SDConfigManager.cpp</text>
</a>
</g>
</g>
<!-- Node2&#45;&gt;Node11 -->
<g id="edge15" class="edge"><title>Node2&#45;&gt;Node11</title>
<path fill="none" stroke="midnightblue" d="M1094.9,-110.577C1211.03,-88.9269 1476.42,-39.4475 1583.22,-19.5345"/>
<polygon fill="midnightblue" stroke="midnightblue" points="1093.99,-107.186 1084.81,-112.46 1095.28,-114.068 1093.99,-107.186"/>
</g>
<!-- Node4 -->
<g id="node4" class="node"><title>Node4</title>
<g id="a_node4"><a xlink:href="_digital_output_8cpp.html" target="_top" xlink:title="Actuators/DigitalOutput.cpp">
<polygon fill="white" stroke="black" points="-0.5,-0.5 -0.5,-19.5 136.5,-19.5 136.5,-0.5 -0.5,-0.5"/>
<text text-anchor="middle" x="68" y="-7.5" font-family="Helvetica,sans-Serif" font-size="10.00">Actuators/DigitalOutput.cpp</text>
</a>
</g>
</g>
<!-- Node3&#45;&gt;Node4 -->
<g id="edge3" class="edge"><title>Node3&#45;&gt;Node4</title>
<path fill="none" stroke="midnightblue" d="M888.11,-63.3364C766.673,-58.7276 426.902,-44.492 145,-20 142.318,-19.767 139.586,-19.5155 136.826,-19.2498"/>
<polygon fill="midnightblue" stroke="midnightblue" points="888.04,-66.8362 898.165,-63.7149 888.304,-59.8411 888.04,-66.8362"/>
</g>
<!-- Node3&#45;&gt;Node1 -->
<g id="edge4" class="edge"><title>Node3&#45;&gt;Node1</title>
<path fill="none" stroke="midnightblue" d="M937.639,-85.6736C940.67,-99.0235 945.681,-117.175 953,-132 959.776,-145.726 970.758,-159.65 978.174,-168.3"/>
<polygon fill="midnightblue" stroke="midnightblue" points="941.039,-84.8311 935.553,-75.7675 934.189,-86.2742 941.039,-84.8311"/>
</g>
<!-- Node5 -->
<g id="node5" class="node"><title>Node5</title>
<g id="a_node5"><a xlink:href="_aquaduino_8cpp.html" target="_top" xlink:title="Aquaduino.cpp">
<polygon fill="white" stroke="black" points="154.5,-0.5 154.5,-19.5 235.5,-19.5 235.5,-0.5 154.5,-0.5"/>
<text text-anchor="middle" x="195" y="-7.5" font-family="Helvetica,sans-Serif" font-size="10.00">Aquaduino.cpp</text>
</a>
</g>
</g>
<!-- Node3&#45;&gt;Node5 -->
<g id="edge5" class="edge"><title>Node3&#45;&gt;Node5</title>
<path fill="none" stroke="midnightblue" d="M888.219,-63.7955C777.426,-60.4923 486.2,-49.489 245,-20 241.936,-19.6254 238.775,-19.185 235.601,-18.7037"/>
<polygon fill="midnightblue" stroke="midnightblue" points="888.272,-67.2984 898.369,-64.0915 888.476,-60.3014 888.272,-67.2984"/>
</g>
<!-- Node6 -->
<g id="node6" class="node"><title>Node6</title>
<g id="a_node6"><a xlink:href="_clock_timer_controller_8cpp.html" target="_top" xlink:title="Controller/ClockTimerController.cpp">
<polygon fill="white" stroke="black" points="254,-0.5 254,-19.5 424,-19.5 424,-0.5 254,-0.5"/>
<text text-anchor="middle" x="339" y="-7.5" font-family="Helvetica,sans-Serif" font-size="10.00">Controller/ClockTimerController.cpp</text>
</a>
</g>
</g>
<!-- Node3&#45;&gt;Node6 -->
<g id="edge6" class="edge"><title>Node3&#45;&gt;Node6</title>
<path fill="none" stroke="midnightblue" d="M888.275,-60.9834C800.167,-53.2239 600.745,-35.5637 433,-20 430.062,-19.7274 427.072,-19.4486 424.052,-19.1659"/>
<polygon fill="midnightblue" stroke="midnightblue" points="888.19,-64.4894 898.458,-61.8798 888.803,-57.5164 888.19,-64.4894"/>
</g>
<!-- Node7 -->
<g id="node7" class="node"><title>Node7</title>
<g id="a_node7"><a xlink:href="_level_controller_8cpp.html" target="_top" xlink:title="Controller/LevelController.cpp">
<polygon fill="white" stroke="black" points="442.5,-0.5 442.5,-19.5 585.5,-19.5 585.5,-0.5 442.5,-0.5"/>
<text text-anchor="middle" x="514" y="-7.5" font-family="Helvetica,sans-Serif" font-size="10.00">Controller/LevelController.cpp</text>
</a>
</g>
</g>
<!-- Node3&#45;&gt;Node7 -->
<g id="edge7" class="edge"><title>Node3&#45;&gt;Node7</title>
<path fill="none" stroke="midnightblue" d="M888.188,-59.1098C813.757,-49.5402 666.263,-30.5766 580.355,-19.5313"/>
<polygon fill="midnightblue" stroke="midnightblue" points="887.826,-62.5921 898.191,-60.396 888.719,-55.6493 887.826,-62.5921"/>
</g>
<!-- Node8 -->
<g id="node8" class="node"><title>Node8</title>
<g id="a_node8"><a xlink:href="_temperature_controller_8cpp.html" target="_top" xlink:title="Controller/TemperatureController.cpp">
<polygon fill="white" stroke="black" points="603.5,-0.5 603.5,-19.5 778.5,-19.5 778.5,-0.5 603.5,-0.5"/>
<text text-anchor="middle" x="691" y="-7.5" font-family="Helvetica,sans-Serif" font-size="10.00">Controller/TemperatureController.cpp</text>
</a>
</g>
</g>
<!-- Node3&#45;&gt;Node8 -->
<g id="edge8" class="edge"><title>Node3&#45;&gt;Node8</title>
<path fill="none" stroke="midnightblue" d="M888.438,-54.8751C842.59,-44.6867 772.661,-29.147 729.501,-19.5558"/>
<polygon fill="midnightblue" stroke="midnightblue" points="887.884,-58.3374 898.405,-57.0901 889.403,-51.5041 887.884,-58.3374"/>
</g>
<!-- Node9 -->
<g id="node9" class="node"><title>Node9</title>
<g id="a_node9"><a xlink:href="_controller_8cpp.html" target="_top" xlink:title="Framework/Controller.cpp">
<polygon fill="white" stroke="black" points="797,-0.5 797,-19.5 925,-19.5 925,-0.5 797,-0.5"/>
<text text-anchor="middle" x="861" y="-7.5" font-family="Helvetica,sans-Serif" font-size="10.00">Framework/Controller.cpp</text>
</a>
</g>
</g>
<!-- Node3&#45;&gt;Node9 -->
<g id="edge9" class="edge"><title>Node3&#45;&gt;Node9</title>
<path fill="none" stroke="midnightblue" d="M913.858,-50.1008C900.721,-40.3824 884.018,-28.0269 872.942,-19.8339"/>
<polygon fill="midnightblue" stroke="midnightblue" points="912.15,-53.1907 922.271,-56.324 916.313,-47.5631 912.15,-53.1907"/>
</g>
<!-- Node10 -->
<g id="node10" class="node"><title>Node10</title>
<g id="a_node10"><a xlink:href="_n_t_p_sync_8cpp.html" target="_top" xlink:title="Framework/NTPSync.cpp">
<polygon fill="white" stroke="black" points="943,-0.5 943,-19.5 1071,-19.5 1071,-0.5 943,-0.5"/>
<text text-anchor="middle" x="1007" y="-7.5" font-family="Helvetica,sans-Serif" font-size="10.00">Framework/NTPSync.cpp</text>
</a>
</g>
</g>
<!-- Node3&#45;&gt;Node10 -->
<g id="edge10" class="edge"><title>Node3&#45;&gt;Node10</title>
<path fill="none" stroke="midnightblue" d="M954.142,-50.1008C967.279,-40.3824 983.982,-28.0269 995.058,-19.8339"/>
<polygon fill="midnightblue" stroke="midnightblue" points="951.687,-47.5631 945.729,-56.324 955.85,-53.1907 951.687,-47.5631"/>
</g>
<!-- Node3&#45;&gt;Node11 -->
<g id="edge11" class="edge"><title>Node3&#45;&gt;Node11</title>
<path fill="none" stroke="midnightblue" d="M979.922,-61.9597C1080.9,-55.1909 1329.83,-38.0465 1538,-20 1540.85,-19.7532 1543.74,-19.4966 1546.67,-19.2328"/>
<polygon fill="midnightblue" stroke="midnightblue" points="979.509,-58.4794 969.765,-62.639 979.977,-65.4638 979.509,-58.4794"/>
</g>
<!-- Node12 -->
<g id="node12" class="node"><title>Node12</title>
<g id="a_node12"><a xlink:href="configweb_8cpp.html" target="_top" xlink:title="Webinterface/configweb.cpp">
<polygon fill="white" stroke="black" points="1089,-0.5 1089,-19.5 1227,-19.5 1227,-0.5 1089,-0.5"/>
<text text-anchor="middle" x="1158" y="-7.5" font-family="Helvetica,sans-Serif" font-size="10.00">Webinterface/configweb.cpp</text>
</a>
</g>
</g>
<!-- Node3&#45;&gt;Node12 -->
<g id="edge12" class="edge"><title>Node3&#45;&gt;Node12</title>
<path fill="none" stroke="midnightblue" d="M979.263,-54.0884C1021.58,-43.8865 1083.91,-28.8612 1122.67,-19.5164"/>
<polygon fill="midnightblue" stroke="midnightblue" points="978.395,-50.6974 969.493,-56.4435 980.035,-57.5024 978.395,-50.6974"/>
</g>
<!-- Node13 -->
<g id="node13" class="node"><title>Node13</title>
<g id="a_node13"><a xlink:href="dispatch_8cpp.html" target="_top" xlink:title="Webinterface/dispatch.cpp">
<polygon fill="white" stroke="black" points="1245,-0.5 1245,-19.5 1377,-19.5 1377,-0.5 1245,-0.5"/>
<text text-anchor="middle" x="1311" y="-7.5" font-family="Helvetica,sans-Serif" font-size="10.00">Webinterface/dispatch.cpp</text>
</a>
</g>
</g>
<!-- Node3&#45;&gt;Node13 -->
<g id="edge13" class="edge"><title>Node3&#45;&gt;Node13</title>
<path fill="none" stroke="midnightblue" d="M979.816,-58.4375C1047.99,-48.673 1176.16,-30.3144 1251.49,-19.5233"/>
<polygon fill="midnightblue" stroke="midnightblue" points="979.21,-54.9885 969.807,-59.8711 980.202,-61.9178 979.21,-54.9885"/>
</g>
<!-- Node14 -->
<g id="node14" class="node"><title>Node14</title>
<g id="a_node14"><a xlink:href="mainweb_8cpp.html" target="_top" xlink:title="Webinterface/mainweb.cpp">
<polygon fill="white" stroke="black" points="1395,-0.5 1395,-19.5 1529,-19.5 1529,-0.5 1395,-0.5"/>
<text text-anchor="middle" x="1462" y="-7.5" font-family="Helvetica,sans-Serif" font-size="10.00">Webinterface/mainweb.cpp</text>
</a>
</g>
</g>
<!-- Node3&#45;&gt;Node14 -->
<g id="edge14" class="edge"><title>Node3&#45;&gt;Node14</title>
<path fill="none" stroke="midnightblue" d="M980.211,-60.6862C1062.05,-52.9822 1237.82,-36.1485 1386,-20 1388.91,-19.6833 1391.87,-19.3546 1394.87,-19.0183"/>
<polygon fill="midnightblue" stroke="midnightblue" points="979.395,-57.2473 969.766,-61.6677 980.05,-64.2166 979.395,-57.2473"/>
</g>
</g>
</svg>
        <g id="navigator" transform="translate(0 0)" fill="#404254">
                <rect fill="#f2f5e9" fill-opacity="0.5" stroke="#606060" stroke-width=".5" x="0" y="0" width="60" height="60"/>
                <use id="zoomplus" xlink:href="#zoomPlus" x="17" y="9" onmousedown="handleZoom(evt,'in')"/>
                <use id="zoomminus" xlink:href="#zoomMin" x="42" y="9" onmousedown="handleZoom(evt,'out')"/>
                <use id="reset" xlink:href="#resetDef" x="30" y="36" onmousedown="handleReset()"/>
                <g id="arrowUp" xlink:href="#dirArrow" transform="translate(30 24)" onmousedown="handlePan(0,-1)">
                  <use xlink:href="#rim" fill="#404040">
                        <set attributeName="fill" to="#808080" begin="arrowUp.mouseover" end="arrowUp.mouseout"/>
                  </use>
                  <path fill="none" stroke="white" stroke-width="1.5" d="M0,-3.0v7 M-2.5,-0.5L0,-3.0L2.5,-0.5"/>
                </g>
                <g id="arrowRight" xlink:href="#dirArrow" transform="rotate(90) translate(36 -43)" onmousedown="handlePan(1,0)">
                  <use xlink:href="#rim" fill="#404040">
                        <set attributeName="fill" to="#808080" begin="arrowRight.mouseover" end="arrowRight.mouseout"/>
                  </use>
                  <path fill="none" stroke="white" stroke-width="1.5" d="M0,-3.0v7 M-2.5,-0.5L0,-3.0L2.5,-0.5"/>
                </g>
                <g id="arrowDown" xlink:href="#dirArrow" transform="rotate(180) translate(-30 -48)" onmousedown="handlePan(0,1)">
                  <use xlink:href="#rim" fill="#404040">
                        <set attributeName="fill" to="#808080" begin="arrowDown.mouseover" end="arrowDown.mouseout"/>
                  </use>
                  <path fill="none" stroke="white" stroke-width="1.5" d="M0,-3.0v7 M-2.5,-0.5L0,-3.0L2.5,-0.5"/>
                </g>
                <g id="arrowLeft" xlink:href="#dirArrow" transform="rotate(270) translate(-36 17)" onmousedown="handlePan(-1,0)">
                  <use xlink:href="#rim" fill="#404040">
                        <set attributeName="fill" to="#808080" begin="arrowLeft.mouseover" end="arrowLeft.mouseout"/>
                  </use>
                  <path fill="none" stroke="white" stroke-width="1.5" d="M0,-3.0v7 M-2.5,-0.5L0,-3.0L2.5,-0.5"/>
                </g>
        </g>
        <svg viewBox="0 0 15 15" width="100%" height="30px" preserveAspectRatio="xMaxYMin meet">
         <g id="arrow_out" transform="scale(0.3 0.3)">
          <a xlink:href="_config_manager_8h__dep__incl_org.svg" target="_base">
           <rect id="button" ry="5" rx="5" y="6" x="6" height="38" width="38"
                fill="#f2f5e9" fill-opacity="0.5" stroke="#606060" stroke-width="1.0"/>
           <path id="arrow"
             d="M 11.500037,31.436501 C 11.940474,20.09759 22.043105,11.32322 32.158766,21.979434 L 37.068811,17.246167 C 37.068811,17.246167 37.088388,32 37.088388,32 L 22.160133,31.978069 C 22.160133,31.978069 26.997745,27.140456 26.997745,27.140456 C 18.528582,18.264221 13.291696,25.230495 11.500037,31.436501 z"
             style="fill:#404040;"/>
          </a>
         </g>
        </svg>
</svg>
