<?xml version="1.0" encoding="UTF-8" standalone="no"?>
<!DOCTYPE svg PUBLIC "-//W3C//DTD SVG 1.1//EN"
 "http://www.w3.org/Graphics/SVG/1.1/DTD/svg11.dtd">
<!-- Generated by graphviz version 2.30.1 (20130214.1330)
 -->
<!-- Title: Sensors/DS18S20.h Pages: 1 -->
<svg width="223pt" height="84pt"
 viewBox="0.00 0.00 223.00 84.00" xmlns="http://www.w3.org/2000/svg" xmlns:xlink="http://www.w3.org/1999/xlink">
<g id="graph0" class="graph" transform="scale(1 1) rotate(0) translate(4 80)">
<title>Sensors/DS18S20.h</title>
<polygon fill="white" stroke="white" points="-4,5 -4,-80 220,-80 220,5 -4,5"/>
<!-- Node1 -->
<g id="node1" class="node"><title>Node1</title>
<polygon fill="#bfbfbf" stroke="black" points="45.5,-56.5 45.5,-75.5 150.5,-75.5 150.5,-56.5 45.5,-56.5"/>
<text text-anchor="middle" x="98" y="-63.5" font-family="Helvetica,sans-Serif" font-size="10.00">Sensors/DS18S20.h</text>
</g>
<!-- Node2 -->
<g id="node2" class="node"><title>Node2</title>
<g id="a_node2"><a xlink:href="_aquaduino_8cpp.html" target="_top" xlink:title="Aquaduino.cpp">
<polygon fill="white" stroke="black" points="-0.5,-0.5 -0.5,-19.5 80.5,-19.5 80.5,-0.5 -0.5,-0.5"/>
<text text-anchor="middle" x="40" y="-7.5" font-family="Helvetica,sans-Serif" font-size="10.00">Aquaduino.cpp</text>
</a>
</g>
</g>
<!-- Node1&#45;&gt;Node2 -->
<g id="edge1" class="edge"><title>Node1&#45;&gt;Node2</title>
<path fill="none" stroke="midnightblue" d="M81.0869,-49.2533C70.797,-39.6731 58.0343,-27.7906 49.4883,-19.8339"/>
<polygon fill="midnightblue" stroke="midnightblue" points="78.9774,-52.0714 88.6813,-56.324 83.7473,-46.9481 78.9774,-52.0714"/>
</g>
<!-- Node3 -->
<g id="node3" class="node"><title>Node3</title>
<g id="a_node3"><a xlink:href="_d_s18_s20_8cpp.html" target="_top" xlink:title="Sensors/DS18S20.cpp">
<polygon fill="white" stroke="black" points="99,-0.5 99,-19.5 215,-19.5 215,-0.5 99,-0.5"/>
<text text-anchor="middle" x="157" y="-7.5" font-family="Helvetica,sans-Serif" font-size="10.00">Sensors/DS18S20.cpp</text>
</a>
</g>
</g>
<!-- Node1&#45;&gt;Node3 -->
<g id="edge2" class="edge"><title>Node1&#45;&gt;Node3</title>
<path fill="none" stroke="midnightblue" d="M114.895,-49.5372C125.415,-39.9087 138.569,-27.8694 147.348,-19.8339"/>
<polygon fill="midnightblue" stroke="midnightblue" points="112.493,-46.9905 107.479,-56.324 117.219,-52.1542 112.493,-46.9905"/>
</g>
</g>
</svg>
