<?xml version="1.0" encoding="UTF-8" standalone="no"?>
<!DOCTYPE svg PUBLIC "-//W3C//DTD SVG 1.1//EN"
 "http://www.w3.org/Graphics/SVG/1.1/DTD/svg11.dtd">
<!-- Generated by graphviz version 2.30.1 (20130214.1330)
 -->
<!-- Title: Actuators/DigitalOutput.h Pages: 1 -->
<svg width="243pt" height="84pt"
 viewBox="0.00 0.00 243.00 84.00" xmlns="http://www.w3.org/2000/svg" xmlns:xlink="http://www.w3.org/1999/xlink">
<g id="graph0" class="graph" transform="scale(1 1) rotate(0) translate(4 80)">
<title>Actuators/DigitalOutput.h</title>
<polygon fill="white" stroke="white" points="-4,5 -4,-80 240,-80 240,5 -4,5"/>
<!-- Node1 -->
<g id="node1" class="node"><title>Node1</title>
<polygon fill="#bfbfbf" stroke="black" points="68,-56.5 68,-75.5 194,-75.5 194,-56.5 68,-56.5"/>
<text text-anchor="middle" x="131" y="-63.5" font-family="Helvetica,sans-Serif" font-size="10.00">Actuators/DigitalOutput.h</text>
</g>
<!-- Node2 -->
<g id="node2" class="node"><title>Node2</title>
<g id="a_node2"><a xlink:href="_digital_output_8cpp.html" target="_top" xlink:title="Actuators/DigitalOutput.cpp">
<polygon fill="white" stroke="black" points="-0.5,-0.5 -0.5,-19.5 136.5,-19.5 136.5,-0.5 -0.5,-0.5"/>
<text text-anchor="middle" x="68" y="-7.5" font-family="Helvetica,sans-Serif" font-size="10.00">Actuators/DigitalOutput.cpp</text>
</a>
</g>
</g>
<!-- Node1&#45;&gt;Node2 -->
<g id="edge1" class="edge"><title>Node1&#45;&gt;Node2</title>
<path fill="none" stroke="midnightblue" d="M112.96,-49.5372C101.727,-39.9087 87.6809,-27.8694 78.3062,-19.8339"/>
<polygon fill="midnightblue" stroke="midnightblue" points="111.008,-52.4734 120.878,-56.324 115.563,-47.1586 111.008,-52.4734"/>
</g>
<!-- Node3 -->
<g id="node3" class="node"><title>Node3</title>
<g id="a_node3"><a xlink:href="_aquaduino_8cpp.html" target="_top" xlink:title="Aquaduino.cpp">
<polygon fill="white" stroke="black" points="154.5,-0.5 154.5,-19.5 235.5,-19.5 235.5,-0.5 154.5,-0.5"/>
<text text-anchor="middle" x="195" y="-7.5" font-family="Helvetica,sans-Serif" font-size="10.00">Aquaduino.cpp</text>
</a>
</g>
</g>
<!-- Node1&#45;&gt;Node3 -->
<g id="edge2" class="edge"><title>Node1&#45;&gt;Node3</title>
<path fill="none" stroke="midnightblue" d="M148.991,-49.8197C160.458,-40.1452 174.913,-27.9481 184.53,-19.8339"/>
<polygon fill="midnightblue" stroke="midnightblue" points="146.669,-47.2002 141.283,-56.324 151.183,-52.5502 146.669,-47.2002"/>
</g>
</g>
</svg>
