<?xml version="1.0" encoding="UTF-8" standalone="no"?>
<!DOCTYPE svg PUBLIC "-//W3C//DTD SVG 1.1//EN"
 "http://www.w3.org/Graphics/SVG/1.1/DTD/svg11.dtd">
<!-- Generated by graphviz version 2.30.1 (20130214.1330)
 -->
<!-- Title: Sensors/DigitalInput.cpp Pages: 1 -->
<svg width="259pt" height="308pt"
 viewBox="0.00 0.00 259.00 308.00" xmlns="http://www.w3.org/2000/svg" xmlns:xlink="http://www.w3.org/1999/xlink">
<g id="graph0" class="graph" transform="scale(1 1) rotate(0) translate(4 304)">
<title>Sensors/DigitalInput.cpp</title>
<polygon fill="white" stroke="white" points="-4,5 -4,-304 256,-304 256,5 -4,5"/>
<!-- Node1 -->
<g id="node1" class="node"><title>Node1</title>
<polygon fill="#bfbfbf" stroke="black" points="99,-280.5 99,-299.5 221,-299.5 221,-280.5 99,-280.5"/>
<text text-anchor="middle" x="160" y="-287.5" font-family="Helvetica,sans-Serif" font-size="10.00">Sensors/DigitalInput.cpp</text>
</g>
<!-- Node2 -->
<g id="node2" class="node"><title>Node2</title>
<g id="a_node2"><a xlink:href="_digital_input_8h.html" target="_top" xlink:title="DigitalInput.h">
<polygon fill="white" stroke="black" points="81.5,-224.5 81.5,-243.5 154.5,-243.5 154.5,-224.5 81.5,-224.5"/>
<text text-anchor="middle" x="118" y="-231.5" font-family="Helvetica,sans-Serif" font-size="10.00">DigitalInput.h</text>
</a>
</g>
</g>
<!-- Node1&#45;&gt;Node2 -->
<g id="edge1" class="edge"><title>Node1&#45;&gt;Node2</title>
<path fill="none" stroke="midnightblue" d="M153.065,-280.083C147.071,-272.377 138.248,-261.033 130.952,-251.653"/>
<polygon fill="midnightblue" stroke="midnightblue" points="133.709,-249.496 124.806,-243.751 128.183,-253.793 133.709,-249.496"/>
</g>
<!-- Node8 -->
<g id="node8" class="node"><title>Node8</title>
<polygon fill="white" stroke="#bfbfbf" points="173,-224.5 173,-243.5 231,-243.5 231,-224.5 173,-224.5"/>
<text text-anchor="middle" x="202" y="-231.5" font-family="Helvetica,sans-Serif" font-size="10.00">Arduino.h</text>
</g>
<!-- Node1&#45;&gt;Node8 -->
<g id="edge7" class="edge"><title>Node1&#45;&gt;Node8</title>
<path fill="none" stroke="midnightblue" d="M166.935,-280.083C172.929,-272.377 181.752,-261.033 189.048,-251.653"/>
<polygon fill="midnightblue" stroke="midnightblue" points="191.817,-253.793 195.194,-243.751 186.291,-249.496 191.817,-253.793"/>
</g>
<!-- Node3 -->
<g id="node3" class="node"><title>Node3</title>
<g id="a_node3"><a xlink:href="_sensor_8h.html" target="_top" xlink:title="Framework/Sensor.h">
<polygon fill="white" stroke="black" points="64.5,-168.5 64.5,-187.5 171.5,-187.5 171.5,-168.5 64.5,-168.5"/>
<text text-anchor="middle" x="118" y="-175.5" font-family="Helvetica,sans-Serif" font-size="10.00">Framework/Sensor.h</text>
</a>
</g>
</g>
<!-- Node2&#45;&gt;Node3 -->
<g id="edge2" class="edge"><title>Node2&#45;&gt;Node3</title>
<path fill="none" stroke="midnightblue" d="M118,-224.083C118,-217.006 118,-206.861 118,-197.986"/>
<polygon fill="midnightblue" stroke="midnightblue" points="121.5,-197.751 118,-187.751 114.5,-197.751 121.5,-197.751"/>
</g>
<!-- Node4 -->
<g id="node4" class="node"><title>Node4</title>
<g id="a_node4"><a xlink:href="_object_8h.html" target="_top" xlink:title="Object.h">
<polygon fill="white" stroke="black" points="91.5,-112.5 91.5,-131.5 144.5,-131.5 144.5,-112.5 91.5,-112.5"/>
<text text-anchor="middle" x="118" y="-119.5" font-family="Helvetica,sans-Serif" font-size="10.00">Object.h</text>
</a>
</g>
</g>
<!-- Node3&#45;&gt;Node4 -->
<g id="edge3" class="edge"><title>Node3&#45;&gt;Node4</title>
<path fill="none" stroke="midnightblue" d="M118,-168.083C118,-161.006 118,-150.861 118,-141.986"/>
<polygon fill="midnightblue" stroke="midnightblue" points="121.5,-141.751 118,-131.751 114.5,-141.751 121.5,-141.751"/>
</g>
<!-- Node5 -->
<g id="node5" class="node"><title>Node5</title>
<g id="a_node5"><a xlink:href="_config_8h.html" target="_top" xlink:title="Framework/Config.h">
<polygon fill="white" stroke="black" points="-0.5,-56.5 -0.5,-75.5 102.5,-75.5 102.5,-56.5 -0.5,-56.5"/>
<text text-anchor="middle" x="51" y="-63.5" font-family="Helvetica,sans-Serif" font-size="10.00">Framework/Config.h</text>
</a>
</g>
</g>
<!-- Node4&#45;&gt;Node5 -->
<g id="edge4" class="edge"><title>Node4&#45;&gt;Node5</title>
<path fill="none" stroke="midnightblue" d="M107.235,-112.324C97.2339,-104.263 82.1135,-92.0765 70.0695,-82.3695"/>
<polygon fill="midnightblue" stroke="midnightblue" points="71.9429,-79.3841 61.9606,-75.8339 67.5502,-84.8343 71.9429,-79.3841"/>
</g>
<!-- Node7 -->
<g id="node7" class="node"><title>Node7</title>
<g id="a_node7"><a xlink:href="_object_types_8h.html" target="_top" xlink:title="Framework/ObjectTypes.h">
<polygon fill="white" stroke="black" points="120.5,-56.5 120.5,-75.5 251.5,-75.5 251.5,-56.5 120.5,-56.5"/>
<text text-anchor="middle" x="186" y="-63.5" font-family="Helvetica,sans-Serif" font-size="10.00">Framework/ObjectTypes.h</text>
</a>
</g>
</g>
<!-- Node4&#45;&gt;Node7 -->
<g id="edge6" class="edge"><title>Node4&#45;&gt;Node7</title>
<path fill="none" stroke="midnightblue" d="M128.925,-112.324C139.175,-104.185 154.721,-91.8395 167.001,-82.0874"/>
<polygon fill="midnightblue" stroke="midnightblue" points="169.221,-84.7937 174.876,-75.8339 164.868,-79.3119 169.221,-84.7937"/>
</g>
<!-- Node6 -->
<g id="node6" class="node"><title>Node6</title>
<polygon fill="white" stroke="#bfbfbf" points="26.5,-0.5 26.5,-19.5 75.5,-19.5 75.5,-0.5 26.5,-0.5"/>
<text text-anchor="middle" x="51" y="-7.5" font-family="Helvetica,sans-Serif" font-size="10.00">stdint.h</text>
</g>
<!-- Node5&#45;&gt;Node6 -->
<g id="edge5" class="edge"><title>Node5&#45;&gt;Node6</title>
<path fill="none" stroke="midnightblue" d="M51,-56.083C51,-49.0059 51,-38.8611 51,-29.9865"/>
<polygon fill="midnightblue" stroke="midnightblue" points="54.5001,-29.751 51,-19.7511 47.5001,-29.7511 54.5001,-29.751"/>
</g>
</g>
</svg>
