<?xml version="1.0" encoding="UTF-8" standalone="no"?>
<!DOCTYPE svg PUBLIC "-//W3C//DTD SVG 1.1//EN"
 "http://www.w3.org/Graphics/SVG/1.1/DTD/svg11.dtd">
<!-- Generated by graphviz version 2.30.1 (20130214.1330)
 -->
<!-- Title: Sensors/DigitalInput.h Pages: 1 -->
<svg width="229pt" height="84pt"
 viewBox="0.00 0.00 229.00 84.00" xmlns="http://www.w3.org/2000/svg" xmlns:xlink="http://www.w3.org/1999/xlink">
<g id="graph0" class="graph" transform="scale(1 1) rotate(0) translate(4 80)">
<title>Sensors/DigitalInput.h</title>
<polygon fill="white" stroke="white" points="-4,5 -4,-80 226,-80 226,5 -4,5"/>
<!-- Node1 -->
<g id="node1" class="node"><title>Node1</title>
<polygon fill="#bfbfbf" stroke="black" points="44,-56.5 44,-75.5 156,-75.5 156,-56.5 44,-56.5"/>
<text text-anchor="middle" x="100" y="-63.5" font-family="Helvetica,sans-Serif" font-size="10.00">Sensors/DigitalInput.h</text>
</g>
<!-- Node2 -->
<g id="node2" class="node"><title>Node2</title>
<g id="a_node2"><a xlink:href="_aquaduino_8cpp.html" target="_top" xlink:title="Aquaduino.cpp">
<polygon fill="white" stroke="black" points="-0.5,-0.5 -0.5,-19.5 80.5,-19.5 80.5,-0.5 -0.5,-0.5"/>
<text text-anchor="middle" x="40" y="-7.5" font-family="Helvetica,sans-Serif" font-size="10.00">Aquaduino.cpp</text>
</a>
</g>
</g>
<!-- Node1&#45;&gt;Node2 -->
<g id="edge1" class="edge"><title>Node1&#45;&gt;Node2</title>
<path fill="none" stroke="midnightblue" d="M82.8191,-49.5372C72.1208,-39.9087 58.7437,-27.8694 49.8154,-19.8339"/>
<polygon fill="midnightblue" stroke="midnightblue" points="80.5856,-52.2358 90.36,-56.324 85.2684,-47.0327 80.5856,-52.2358"/>
</g>
<!-- Node3 -->
<g id="node3" class="node"><title>Node3</title>
<g id="a_node3"><a xlink:href="_digital_input_8cpp.html" target="_top" xlink:title="Sensors/DigitalInput.cpp">
<polygon fill="white" stroke="black" points="99,-0.5 99,-19.5 221,-19.5 221,-0.5 99,-0.5"/>
<text text-anchor="middle" x="160" y="-7.5" font-family="Helvetica,sans-Serif" font-size="10.00">Sensors/DigitalInput.cpp</text>
</a>
</g>
</g>
<!-- Node1&#45;&gt;Node3 -->
<g id="edge2" class="edge"><title>Node1&#45;&gt;Node3</title>
<path fill="none" stroke="midnightblue" d="M117.181,-49.5372C127.879,-39.9087 141.256,-27.8694 150.185,-19.8339"/>
<polygon fill="midnightblue" stroke="midnightblue" points="114.732,-47.0327 109.64,-56.324 119.414,-52.2358 114.732,-47.0327"/>
</g>
</g>
</svg>
