<?xml version="1.0" encoding="UTF-8" standalone="no"?>
<!DOCTYPE svg PUBLIC "-//W3C//DTD SVG 1.1//EN"
 "http://www.w3.org/Graphics/SVG/1.1/DTD/svg11.dtd">
<!-- Generated by graphviz version 2.30.1 (20130214.1330)
 -->
<!-- Title: Actuators/DigitalOutput.h Pages: 1 -->
<svg width="468pt" height="308pt"
 viewBox="0.00 0.00 468.00 308.00" xmlns="http://www.w3.org/2000/svg" xmlns:xlink="http://www.w3.org/1999/xlink">
<g id="graph0" class="graph" transform="scale(1 1) rotate(0) translate(4 304)">
<title>Actuators/DigitalOutput.h</title>
<polygon fill="white" stroke="white" points="-4,5 -4,-304 465,-304 465,5 -4,5"/>
<!-- Node1 -->
<g id="node1" class="node"><title>Node1</title>
<polygon fill="#bfbfbf" stroke="black" points="194,-280.5 194,-299.5 320,-299.5 320,-280.5 194,-280.5"/>
<text text-anchor="middle" x="257" y="-287.5" font-family="Helvetica,sans-Serif" font-size="10.00">Actuators/DigitalOutput.h</text>
</g>
<!-- Node2 -->
<g id="node2" class="node"><title>Node2</title>
<g id="a_node2"><a xlink:href="_actuator_8h.html" target="_top" xlink:title="Framework/Actuator.h">
<polygon fill="white" stroke="black" points="200.5,-224.5 200.5,-243.5 313.5,-243.5 313.5,-224.5 200.5,-224.5"/>
<text text-anchor="middle" x="257" y="-231.5" font-family="Helvetica,sans-Serif" font-size="10.00">Framework/Actuator.h</text>
</a>
</g>
</g>
<!-- Node1&#45;&gt;Node2 -->
<g id="edge1" class="edge"><title>Node1&#45;&gt;Node2</title>
<path fill="none" stroke="midnightblue" d="M257,-280.083C257,-273.006 257,-262.861 257,-253.986"/>
<polygon fill="midnightblue" stroke="midnightblue" points="260.5,-253.751 257,-243.751 253.5,-253.751 260.5,-253.751"/>
</g>
<!-- Node3 -->
<g id="node3" class="node"><title>Node3</title>
<g id="a_node3"><a xlink:href="_object_8h.html" target="_top" xlink:title="Object.h">
<polygon fill="white" stroke="black" points="99.5,-112.5 99.5,-131.5 152.5,-131.5 152.5,-112.5 99.5,-112.5"/>
<text text-anchor="middle" x="126" y="-119.5" font-family="Helvetica,sans-Serif" font-size="10.00">Object.h</text>
</a>
</g>
</g>
<!-- Node2&#45;&gt;Node3 -->
<g id="edge2" class="edge"><title>Node2&#45;&gt;Node3</title>
<path fill="none" stroke="midnightblue" d="M231.101,-224.392C211.793,-217.013 185.647,-204.885 167,-188 152.357,-174.74 140.937,-155.075 133.91,-140.85"/>
<polygon fill="midnightblue" stroke="midnightblue" points="136.999,-139.193 129.587,-131.622 130.66,-142.163 136.999,-139.193"/>
</g>
<!-- Node4 -->
<g id="node4" class="node"><title>Node4</title>
<g id="a_node4"><a xlink:href="_config_8h.html" target="_top" xlink:title="Framework/Config.h">
<polygon fill="white" stroke="black" points="148.5,-56.5 148.5,-75.5 251.5,-75.5 251.5,-56.5 148.5,-56.5"/>
<text text-anchor="middle" x="200" y="-63.5" font-family="Helvetica,sans-Serif" font-size="10.00">Framework/Config.h</text>
</a>
</g>
</g>
<!-- Node2&#45;&gt;Node4 -->
<g id="edge6" class="edge"><title>Node2&#45;&gt;Node4</title>
<path fill="none" stroke="midnightblue" d="M245.629,-224.362C235.751,-216.166 221.967,-202.91 215,-188 199.373,-154.558 198.076,-110.531 198.837,-85.8571"/>
<polygon fill="midnightblue" stroke="midnightblue" points="202.34,-85.8599 199.304,-75.7093 195.348,-85.5375 202.34,-85.8599"/>
</g>
<!-- Node7 -->
<g id="node7" class="node"><title>Node7</title>
<g id="a_node7"><a xlink:href="_controller_8h.html" target="_top" xlink:title="Controller.h">
<polygon fill="white" stroke="black" points="224,-168.5 224,-187.5 290,-187.5 290,-168.5 224,-168.5"/>
<text text-anchor="middle" x="257" y="-175.5" font-family="Helvetica,sans-Serif" font-size="10.00">Controller.h</text>
</a>
</g>
</g>
<!-- Node2&#45;&gt;Node7 -->
<g id="edge7" class="edge"><title>Node2&#45;&gt;Node7</title>
<path fill="none" stroke="midnightblue" d="M257,-224.083C257,-217.006 257,-206.861 257,-197.986"/>
<polygon fill="midnightblue" stroke="midnightblue" points="260.5,-197.751 257,-187.751 253.5,-197.751 260.5,-197.751"/>
</g>
<!-- Node8 -->
<g id="node8" class="node"><title>Node8</title>
<g id="a_node8"><a xlink:href="_serializable_8h.html" target="_top" xlink:title="Serializable.h">
<polygon fill="white" stroke="black" points="385.5,-112.5 385.5,-131.5 460.5,-131.5 460.5,-112.5 385.5,-112.5"/>
<text text-anchor="middle" x="423" y="-119.5" font-family="Helvetica,sans-Serif" font-size="10.00">Serializable.h</text>
</a>
</g>
</g>
<!-- Node2&#45;&gt;Node8 -->
<g id="edge15" class="edge"><title>Node2&#45;&gt;Node8</title>
<path fill="none" stroke="midnightblue" d="M270.026,-224.368C298.511,-205.492 366.583,-160.385 401.516,-137.237"/>
<polygon fill="midnightblue" stroke="midnightblue" points="403.632,-140.033 410.035,-131.591 399.765,-134.198 403.632,-140.033"/>
</g>
<!-- Node10 -->
<g id="node10" class="node"><title>Node10</title>
<g id="a_node10"><a xlink:href="_web_interface_8h.html" target="_top" xlink:title="WebInterface.h">
<polygon fill="white" stroke="black" points="285,-112.5 285,-131.5 367,-131.5 367,-112.5 285,-112.5"/>
<text text-anchor="middle" x="326" y="-119.5" font-family="Helvetica,sans-Serif" font-size="10.00">WebInterface.h</text>
</a>
</g>
</g>
<!-- Node2&#45;&gt;Node10 -->
<g id="edge16" class="edge"><title>Node2&#45;&gt;Node10</title>
<path fill="none" stroke="midnightblue" d="M267.086,-224.18C276.35,-215.659 289.971,-202.015 299,-188 308.399,-173.41 315.68,-155.001 320.3,-141.503"/>
<polygon fill="midnightblue" stroke="midnightblue" points="323.659,-142.488 323.424,-131.896 317.003,-140.323 323.659,-142.488"/>
</g>
<!-- Node3&#45;&gt;Node4 -->
<g id="edge3" class="edge"><title>Node3&#45;&gt;Node4</title>
<path fill="none" stroke="midnightblue" d="M137.889,-112.324C149.15,-104.107 166.287,-91.6017 179.709,-81.8069"/>
<polygon fill="midnightblue" stroke="midnightblue" points="181.88,-84.5559 187.894,-75.8339 177.753,-78.9014 181.88,-84.5559"/>
</g>
<!-- Node6 -->
<g id="node6" class="node"><title>Node6</title>
<g id="a_node6"><a xlink:href="_object_types_8h.html" target="_top" xlink:title="Framework/ObjectTypes.h">
<polygon fill="white" stroke="black" points="-0.5,-56.5 -0.5,-75.5 130.5,-75.5 130.5,-56.5 -0.5,-56.5"/>
<text text-anchor="middle" x="65" y="-63.5" font-family="Helvetica,sans-Serif" font-size="10.00">Framework/ObjectTypes.h</text>
</a>
</g>
</g>
<!-- Node3&#45;&gt;Node6 -->
<g id="edge5" class="edge"><title>Node3&#45;&gt;Node6</title>
<path fill="none" stroke="midnightblue" d="M116.199,-112.324C107.182,-104.341 93.594,-92.3128 82.682,-82.6529"/>
<polygon fill="midnightblue" stroke="midnightblue" points="84.7866,-79.8416 74.979,-75.8339 80.1467,-85.083 84.7866,-79.8416"/>
</g>
<!-- Node5 -->
<g id="node5" class="node"><title>Node5</title>
<polygon fill="white" stroke="#bfbfbf" points="175.5,-0.5 175.5,-19.5 224.5,-19.5 224.5,-0.5 175.5,-0.5"/>
<text text-anchor="middle" x="200" y="-7.5" font-family="Helvetica,sans-Serif" font-size="10.00">stdint.h</text>
</g>
<!-- Node4&#45;&gt;Node5 -->
<g id="edge4" class="edge"><title>Node4&#45;&gt;Node5</title>
<path fill="none" stroke="midnightblue" d="M200,-56.083C200,-49.0059 200,-38.8611 200,-29.9865"/>
<polygon fill="midnightblue" stroke="midnightblue" points="203.5,-29.751 200,-19.7511 196.5,-29.7511 203.5,-29.751"/>
</g>
<!-- Node7&#45;&gt;Node3 -->
<g id="edge8" class="edge"><title>Node7&#45;&gt;Node3</title>
<path fill="none" stroke="midnightblue" d="M236.243,-168.444C214.684,-159.557 180.737,-145.563 156.206,-135.451"/>
<polygon fill="midnightblue" stroke="midnightblue" points="157.239,-132.092 146.66,-131.516 154.572,-138.563 157.239,-132.092"/>
</g>
<!-- Node7&#45;&gt;Node8 -->
<g id="edge9" class="edge"><title>Node7&#45;&gt;Node8</title>
<path fill="none" stroke="midnightblue" d="M283.303,-168.444C311.351,-159.32 355.944,-144.813 387.184,-134.651"/>
<polygon fill="midnightblue" stroke="midnightblue" points="388.393,-137.938 396.82,-131.516 386.228,-131.282 388.393,-137.938"/>
</g>
<!-- Node7&#45;&gt;Node10 -->
<g id="edge11" class="edge"><title>Node7&#45;&gt;Node10</title>
<path fill="none" stroke="midnightblue" d="M268.086,-168.324C278.486,-160.185 294.261,-147.839 306.722,-138.087"/>
<polygon fill="midnightblue" stroke="midnightblue" points="308.994,-140.753 314.712,-131.834 304.68,-135.241 308.994,-140.753"/>
</g>
<!-- Node7&#45;&gt;Node4 -->
<g id="edge13" class="edge"><title>Node7&#45;&gt;Node4</title>
<path fill="none" stroke="midnightblue" d="M252.527,-168.368C243.204,-150.376 221.531,-108.55 209.134,-84.6267"/>
<polygon fill="midnightblue" stroke="midnightblue" points="212.16,-82.8599 204.452,-75.5914 205.945,-86.0805 212.16,-82.8599"/>
</g>
<!-- Node11 -->
<g id="node11" class="node"><title>Node11</title>
<polygon fill="white" stroke="#bfbfbf" points="280,-56.5 280,-75.5 352,-75.5 352,-56.5 280,-56.5"/>
<text text-anchor="middle" x="316" y="-63.5" font-family="Helvetica,sans-Serif" font-size="10.00">WebServer.h</text>
</g>
<!-- Node7&#45;&gt;Node11 -->
<g id="edge14" class="edge"><title>Node7&#45;&gt;Node11</title>
<path fill="none" stroke="midnightblue" d="M258.32,-168.111C260.522,-155.129 265.752,-130.516 276,-112 281.922,-101.3 290.786,-90.9808 298.666,-82.9296"/>
<polygon fill="midnightblue" stroke="midnightblue" points="301.359,-85.1926 306.073,-75.7041 296.47,-80.182 301.359,-85.1926"/>
</g>
<!-- Node9 -->
<g id="node9" class="node"><title>Node9</title>
<polygon fill="white" stroke="#bfbfbf" points="394,-56.5 394,-75.5 452,-75.5 452,-56.5 394,-56.5"/>
<text text-anchor="middle" x="423" y="-63.5" font-family="Helvetica,sans-Serif" font-size="10.00">Arduino.h</text>
</g>
<!-- Node8&#45;&gt;Node9 -->
<g id="edge10" class="edge"><title>Node8&#45;&gt;Node9</title>
<path fill="none" stroke="midnightblue" d="M423,-112.083C423,-105.006 423,-94.8611 423,-85.9865"/>
<polygon fill="midnightblue" stroke="midnightblue" points="426.5,-85.751 423,-75.7511 419.5,-85.7511 426.5,-85.751"/>
</g>
<!-- Node10&#45;&gt;Node11 -->
<g id="edge12" class="edge"><title>Node10&#45;&gt;Node11</title>
<path fill="none" stroke="midnightblue" d="M324.349,-112.083C323.024,-104.927 321.118,-94.6353 319.461,-85.6911"/>
<polygon fill="midnightblue" stroke="midnightblue" points="322.883,-84.9466 317.621,-75.7511 316,-86.2212 322.883,-84.9466"/>
</g>
</g>
</svg>
