<?xml version="1.0" encoding="UTF-8" standalone="no"?>
<!DOCTYPE svg PUBLIC "-//W3C//DTD SVG 1.1//EN"
 "http://www.w3.org/Graphics/SVG/1.1/DTD/svg11.dtd">
<!-- Generated by graphviz version 2.30.1 (20130214.1330)
 -->
<!-- Title: Actuators/DigitalOutput.cpp Pages: 1 -->
<!--zoomable 476 -->
<svg id="main" version="1.1" xmlns="http://www.w3.org/2000/svg" xmlns:xlink="http://www.w3.org/1999/xlink" xml:space="preserve" onload="init(evt)">
<style type="text/css"><![CDATA[
.edge:hover path { stroke: red; }
.edge:hover polygon { stroke: red; fill: red; }
]]></style>
<script type="text/javascript"><![CDATA[
var edges = document.getElementsByTagName('g');
if (edges && edges.length) {
  for (var i=0;i<edges.length;i++) {
    if (edges[i].id.substr(0,4)=='edge') {
      edges[i].setAttribute('class','edge');
    }
  }
}
]]></script>
        <defs>
                <circle id="rim" cx="0" cy="0" r="7"/>
                <circle id="rim2" cx="0" cy="0" r="3.5"/>
                <g id="zoomPlus">
                        <use xlink:href="#rim" fill="#404040">
                                <set attributeName="fill" to="#808080" begin="zoomplus.mouseover" end="zoomplus.mouseout"/>
                        </use>
                        <path d="M-4,0h8M0,-4v8" fill="none" stroke="white" stroke-width="1.5" pointer-events="none"/>
                </g>
                <g id="zoomMin">
                        <use xlink:href="#rim" fill="#404040">
                                <set attributeName="fill" to="#808080" begin="zoomminus.mouseover" end="zoomminus.mouseout"/>
                        </use>
                        <path d="M-4,0h8" fill="none" stroke="white" stroke-width="1.5" pointer-events="none"/>
                </g>
                <g id="dirArrow">
                        <path fill="none" stroke="white" stroke-width="1.5" d="M0,-3.0v7 M-2.5,-0.5L0,-3.0L2.5,-0.5"/>
                </g>
               <g id="resetDef">
                       <use xlink:href="#rim2" fill="#404040">
                               <set attributeName="fill" to="#808080" begin="reset.mouseover" end="reset.mouseout"/>
                       </use>
               </g>
        </defs>

<script type="text/javascript">
var viewWidth = 857;
var viewHeight = 476;
var sectionId = 'dynsection-0';
</script>
<script xlink:href="svgpan.js"/>
<svg id="graph" class="graph">
<g id="viewport">
<title>Actuators/DigitalOutput.cpp</title>
<polygon fill="white" stroke="white" points="-4,5 -4,-472 854,-472 854,5 -4,5"/>
<!-- Node1 -->
<g id="node1" class="node"><title>Node1</title>
<polygon fill="#bfbfbf" stroke="black" points="224.5,-448.5 224.5,-467.5 361.5,-467.5 361.5,-448.5 224.5,-448.5"/>
<text text-anchor="middle" x="293" y="-455.5" font-family="Helvetica,sans-Serif" font-size="10.00">Actuators/DigitalOutput.cpp</text>
</g>
<!-- Node2 -->
<g id="node2" class="node"><title>Node2</title>
<g id="a_node2"><a xlink:href="_aquaduino_8h.html" target="_top" xlink:title="Aquaduino.h">
<polygon fill="white" stroke="black" points="364.5,-392.5 364.5,-411.5 435.5,-411.5 435.5,-392.5 364.5,-392.5"/>
<text text-anchor="middle" x="400" y="-399.5" font-family="Helvetica,sans-Serif" font-size="10.00">Aquaduino.h</text>
</a>
</g>
</g>
<!-- Node1&#45;&gt;Node2 -->
<g id="edge1" class="edge"><title>Node1&#45;&gt;Node2</title>
<path fill="none" stroke="midnightblue" d="M310.191,-448.324C327.351,-439.664 353.946,-426.242 373.747,-416.249"/>
<polygon fill="midnightblue" stroke="midnightblue" points="375.501,-419.285 382.851,-411.655 372.347,-413.035 375.501,-419.285"/>
</g>
<!-- Node20 -->
<g id="node20" class="node"><title>Node20</title>
<g id="a_node20"><a xlink:href="_digital_output_8h.html" target="_top" xlink:title="DigitalOutput.h">
<polygon fill="white" stroke="black" points="146.5,-392.5 146.5,-411.5 227.5,-411.5 227.5,-392.5 146.5,-392.5"/>
<text text-anchor="middle" x="187" y="-399.5" font-family="Helvetica,sans-Serif" font-size="10.00">DigitalOutput.h</text>
</a>
</g>
</g>
<!-- Node1&#45;&gt;Node20 -->
<g id="edge37" class="edge"><title>Node1&#45;&gt;Node20</title>
<path fill="none" stroke="midnightblue" d="M275.969,-448.324C258.97,-439.664 232.624,-426.242 213.007,-416.249"/>
<polygon fill="midnightblue" stroke="midnightblue" points="214.488,-413.075 203.988,-411.655 211.31,-419.312 214.488,-413.075"/>
</g>
<!-- Node3 -->
<g id="node3" class="node"><title>Node3</title>
<polygon fill="white" stroke="#bfbfbf" points="66,-56.5 66,-75.5 124,-75.5 124,-56.5 66,-56.5"/>
<text text-anchor="middle" x="95" y="-63.5" font-family="Helvetica,sans-Serif" font-size="10.00">Arduino.h</text>
</g>
<!-- Node1&#45;&gt;Node3 -->
<g id="edge39" class="edge"><title>Node1&#45;&gt;Node3</title>
<path fill="none" stroke="midnightblue" d="M240.955,-448.468C156.759,-433.175 0,-397.871 0,-347 0,-347 0,-347 0,-177 0,-133.739 42.6084,-99.0862 70.7548,-80.9149"/>
<polygon fill="midnightblue" stroke="midnightblue" points="72.6613,-83.851 79.3127,-75.6042 68.9703,-77.9032 72.6613,-83.851"/>
</g>
<!-- Node5 -->
<g id="node5" class="node"><title>Node5</title>
<polygon fill="white" stroke="#bfbfbf" points="755.5,-336.5 755.5,-355.5 848.5,-355.5 848.5,-336.5 755.5,-336.5"/>
<text text-anchor="middle" x="802" y="-343.5" font-family="Helvetica,sans-Serif" font-size="10.00">TemplateParser.h</text>
</g>
<!-- Node1&#45;&gt;Node5 -->
<g id="edge40" class="edge"><title>Node1&#45;&gt;Node5</title>
<path fill="none" stroke="midnightblue" d="M332.517,-448.46C424.314,-428.622 651.799,-379.46 752.583,-357.679"/>
<polygon fill="midnightblue" stroke="midnightblue" points="753.473,-361.068 762.508,-355.535 751.995,-354.226 753.473,-361.068"/>
</g>
<!-- Node2&#45;&gt;Node3 -->
<g id="edge2" class="edge"><title>Node2&#45;&gt;Node3</title>
<path fill="none" stroke="midnightblue" d="M364.4,-396.603C280.233,-385.217 76,-351.369 76,-291 76,-291 76,-291 76,-177 76,-144.489 84.159,-107.35 89.7838,-85.6103"/>
<polygon fill="midnightblue" stroke="midnightblue" points="93.218,-86.3175 92.4376,-75.7514 86.4586,-84.498 93.218,-86.3175"/>
</g>
<!-- Node4 -->
<g id="node4" class="node"><title>Node4</title>
<polygon fill="white" stroke="#bfbfbf" points="466,-336.5 466,-355.5 528,-355.5 528,-336.5 466,-336.5"/>
<text text-anchor="middle" x="497" y="-343.5" font-family="Helvetica,sans-Serif" font-size="10.00">Ethernet.h</text>
</g>
<!-- Node2&#45;&gt;Node4 -->
<g id="edge3" class="edge"><title>Node2&#45;&gt;Node4</title>
<path fill="none" stroke="midnightblue" d="M415.585,-392.324C430.999,-383.743 454.812,-370.486 472.71,-360.522"/>
<polygon fill="midnightblue" stroke="midnightblue" points="474.419,-363.577 481.454,-355.655 471.014,-357.461 474.419,-363.577"/>
</g>
<!-- Node2&#45;&gt;Node5 -->
<g id="edge4" class="edge"><title>Node2&#45;&gt;Node5</title>
<path fill="none" stroke="midnightblue" d="M435.912,-396.69C497.098,-389.268 625.718,-373.327 745.211,-356.076"/>
<polygon fill="midnightblue" stroke="midnightblue" points="745.871,-359.517 755.265,-354.618 744.866,-352.59 745.871,-359.517"/>
</g>
<!-- Node6 -->
<g id="node6" class="node"><title>Node6</title>
<g id="a_node6"><a xlink:href="_config_8h.html" target="_top" xlink:title="Framework/Config.h">
<polygon fill="white" stroke="black" points="522.5,-56.5 522.5,-75.5 625.5,-75.5 625.5,-56.5 522.5,-56.5"/>
<text text-anchor="middle" x="574" y="-63.5" font-family="Helvetica,sans-Serif" font-size="10.00">Framework/Config.h</text>
</a>
</g>
</g>
<!-- Node2&#45;&gt;Node6 -->
<g id="edge5" class="edge"><title>Node2&#45;&gt;Node6</title>
<path fill="none" stroke="midnightblue" d="M435.586,-400.098C472.336,-397.353 529.342,-387.789 566,-356 589.764,-335.392 594,-322.455 594,-291 594,-291 594,-291 594,-177 594,-144.438 585.412,-107.315 579.491,-85.5922"/>
<polygon fill="midnightblue" stroke="midnightblue" points="582.793,-84.4076 576.697,-75.7419 576.058,-86.3175 582.793,-84.4076"/>
</g>
<!-- Node8 -->
<g id="node8" class="node"><title>Node8</title>
<g id="a_node8"><a xlink:href="_controller_8h.html" target="_top" xlink:title="Framework/Controller.h">
<polygon fill="white" stroke="black" points="290.5,-168.5 290.5,-187.5 407.5,-187.5 407.5,-168.5 290.5,-168.5"/>
<text text-anchor="middle" x="349" y="-175.5" font-family="Helvetica,sans-Serif" font-size="10.00">Framework/Controller.h</text>
</a>
</g>
</g>
<!-- Node2&#45;&gt;Node8 -->
<g id="edge7" class="edge"><title>Node2&#45;&gt;Node8</title>
<path fill="none" stroke="midnightblue" d="M398.001,-392.297C390.481,-359.563 363.789,-243.375 353.288,-197.666"/>
<polygon fill="midnightblue" stroke="midnightblue" points="356.691,-196.846 351.041,-187.884 349.869,-198.414 356.691,-196.846"/>
</g>
<!-- Node14 -->
<g id="node14" class="node"><title>Node14</title>
<g id="a_node14"><a xlink:href="_actuator_8h.html" target="_top" xlink:title="Framework/Actuator.h">
<polygon fill="white" stroke="black" points="206.5,-224.5 206.5,-243.5 319.5,-243.5 319.5,-224.5 206.5,-224.5"/>
<text text-anchor="middle" x="263" y="-231.5" font-family="Helvetica,sans-Serif" font-size="10.00">Framework/Actuator.h</text>
</a>
</g>
</g>
<!-- Node2&#45;&gt;Node14 -->
<g id="edge17" class="edge"><title>Node2&#45;&gt;Node14</title>
<path fill="none" stroke="midnightblue" d="M364.348,-398.165C312.709,-393.235 221.067,-381.111 201,-356 173.891,-322.077 217.763,-274.422 244.598,-250.291"/>
<polygon fill="midnightblue" stroke="midnightblue" points="247.04,-252.805 252.282,-243.598 242.442,-247.527 247.04,-252.805"/>
</g>
<!-- Node15 -->
<g id="node15" class="node"><title>Node15</title>
<g id="a_node15"><a xlink:href="_sensor_8h.html" target="_top" xlink:title="Framework/Sensor.h">
<polygon fill="white" stroke="black" points="420.5,-224.5 420.5,-243.5 527.5,-243.5 527.5,-224.5 420.5,-224.5"/>
<text text-anchor="middle" x="474" y="-231.5" font-family="Helvetica,sans-Serif" font-size="10.00">Framework/Sensor.h</text>
</a>
</g>
</g>
<!-- Node2&#45;&gt;Node15 -->
<g id="edge23" class="edge"><title>Node2&#45;&gt;Node15</title>
<path fill="none" stroke="midnightblue" d="M403.979,-392.075C415.677,-365.832 450.13,-288.545 465.924,-253.117"/>
<polygon fill="midnightblue" stroke="midnightblue" points="469.306,-254.127 470.18,-243.568 462.912,-251.277 469.306,-254.127"/>
</g>
<!-- Node16 -->
<g id="node16" class="node"><title>Node16</title>
<g id="a_node16"><a xlink:href="_array_list_8h.html" target="_top" xlink:title="Framework/ArrayList.h">
<polygon fill="white" stroke="black" points="622.5,-336.5 622.5,-355.5 737.5,-355.5 737.5,-336.5 622.5,-336.5"/>
<text text-anchor="middle" x="680" y="-343.5" font-family="Helvetica,sans-Serif" font-size="10.00">Framework/ArrayList.h</text>
</a>
</g>
</g>
<!-- Node2&#45;&gt;Node16 -->
<g id="edge25" class="edge"><title>Node2&#45;&gt;Node16</title>
<path fill="none" stroke="midnightblue" d="M435.747,-394.106C483.769,-384.845 569.546,-368.302 625.604,-357.491"/>
<polygon fill="midnightblue" stroke="midnightblue" points="626.553,-360.872 635.709,-355.542 625.227,-353.999 626.553,-360.872"/>
</g>
<!-- Node18 -->
<g id="node18" class="node"><title>Node18</title>
<g id="a_node18"><a xlink:href="_s_d_config_manager_8h.html" target="_top" xlink:title="Framework/SDConfigManager.h">
<polygon fill="white" stroke="black" points="218,-336.5 218,-355.5 372,-355.5 372,-336.5 218,-336.5"/>
<text text-anchor="middle" x="295" y="-343.5" font-family="Helvetica,sans-Serif" font-size="10.00">Framework/SDConfigManager.h</text>
</a>
</g>
</g>
<!-- Node2&#45;&gt;Node18 -->
<g id="edge28" class="edge"><title>Node2&#45;&gt;Node18</title>
<path fill="none" stroke="midnightblue" d="M383.13,-392.324C366.291,-383.664 340.193,-370.242 320.762,-360.249"/>
<polygon fill="midnightblue" stroke="midnightblue" points="322.322,-357.116 311.828,-355.655 319.12,-363.341 322.322,-357.116"/>
</g>
<!-- Node9 -->
<g id="node9" class="node"><title>Node9</title>
<g id="a_node9"><a xlink:href="_object_8h.html" target="_top" xlink:title="Object.h">
<polygon fill="white" stroke="black" points="431.5,-112.5 431.5,-131.5 484.5,-131.5 484.5,-112.5 431.5,-112.5"/>
<text text-anchor="middle" x="458" y="-119.5" font-family="Helvetica,sans-Serif" font-size="10.00">Object.h</text>
</a>
</g>
</g>
<!-- Node2&#45;&gt;Node9 -->
<g id="edge35" class="edge"><title>Node2&#45;&gt;Node9</title>
<path fill="none" stroke="midnightblue" d="M435.586,-400.272C467.938,-397.486 514.022,-387.734 537,-356 548.458,-340.176 598.755,-405.278 536,-224 523.951,-189.194 494.656,-156.999 475.596,-138.703"/>
<polygon fill="midnightblue" stroke="midnightblue" points="477.835,-136.006 468.134,-131.746 473.061,-141.126 477.835,-136.006"/>
</g>
<!-- Node11 -->
<g id="node11" class="node"><title>Node11</title>
<g id="a_node11"><a xlink:href="_serializable_8h.html" target="_top" xlink:title="Serializable.h">
<polygon fill="white" stroke="black" points="144.5,-112.5 144.5,-131.5 219.5,-131.5 219.5,-112.5 144.5,-112.5"/>
<text text-anchor="middle" x="182" y="-119.5" font-family="Helvetica,sans-Serif" font-size="10.00">Serializable.h</text>
</a>
</g>
</g>
<!-- Node2&#45;&gt;Node11 -->
<g id="edge36" class="edge"><title>Node2&#45;&gt;Node11</title>
<path fill="none" stroke="midnightblue" d="M364.114,-398.566C309.882,-394.067 211.017,-382.387 189,-356 136.766,-293.398 162.41,-185.027 175.706,-141.695"/>
<polygon fill="midnightblue" stroke="midnightblue" points="179.116,-142.521 178.838,-131.93 172.451,-140.383 179.116,-142.521"/>
</g>
<!-- Node7 -->
<g id="node7" class="node"><title>Node7</title>
<polygon fill="white" stroke="#bfbfbf" points="622.5,-0.5 622.5,-19.5 671.5,-19.5 671.5,-0.5 622.5,-0.5"/>
<text text-anchor="middle" x="647" y="-7.5" font-family="Helvetica,sans-Serif" font-size="10.00">stdint.h</text>
</g>
<!-- Node6&#45;&gt;Node7 -->
<g id="edge6" class="edge"><title>Node6&#45;&gt;Node7</title>
<path fill="none" stroke="midnightblue" d="M585.729,-56.324C596.837,-48.1066 613.742,-35.6017 626.983,-25.8069"/>
<polygon fill="midnightblue" stroke="midnightblue" points="629.1,-28.5948 635.058,-19.8339 624.937,-22.9671 629.1,-28.5948"/>
</g>
<!-- Node8&#45;&gt;Node9 -->
<g id="edge8" class="edge"><title>Node8&#45;&gt;Node9</title>
<path fill="none" stroke="midnightblue" d="M366.513,-168.324C384.072,-159.625 411.331,-146.12 431.531,-136.113"/>
<polygon fill="midnightblue" stroke="midnightblue" points="433.124,-139.23 440.531,-131.655 430.016,-132.958 433.124,-139.23"/>
</g>
<!-- Node8&#45;&gt;Node11 -->
<g id="edge11" class="edge"><title>Node8&#45;&gt;Node11</title>
<path fill="none" stroke="midnightblue" d="M322.538,-168.444C294.322,-159.32 249.46,-144.813 218.032,-134.651"/>
<polygon fill="midnightblue" stroke="midnightblue" points="218.93,-131.263 208.338,-131.516 216.776,-137.923 218.93,-131.263"/>
</g>
<!-- Node12 -->
<g id="node12" class="node"><title>Node12</title>
<g id="a_node12"><a xlink:href="_web_interface_8h.html" target="_top" xlink:title="WebInterface.h">
<polygon fill="white" stroke="black" points="239,-112.5 239,-131.5 321,-131.5 321,-112.5 239,-112.5"/>
<text text-anchor="middle" x="280" y="-119.5" font-family="Helvetica,sans-Serif" font-size="10.00">WebInterface.h</text>
</a>
</g>
</g>
<!-- Node8&#45;&gt;Node12 -->
<g id="edge13" class="edge"><title>Node8&#45;&gt;Node12</title>
<path fill="none" stroke="midnightblue" d="M337.914,-168.324C327.514,-160.185 311.739,-147.839 299.278,-138.087"/>
<polygon fill="midnightblue" stroke="midnightblue" points="301.32,-135.241 291.288,-131.834 297.006,-140.753 301.32,-135.241"/>
</g>
<!-- Node8&#45;&gt;Node6 -->
<g id="edge15" class="edge"><title>Node8&#45;&gt;Node6</title>
<path fill="none" stroke="midnightblue" d="M356.6,-168.069C368.94,-154.117 394.714,-127.179 422,-112 451.043,-95.8433 486.51,-84.9161 515.876,-77.8798"/>
<polygon fill="midnightblue" stroke="midnightblue" points="517.029,-81.206 525.988,-75.551 515.458,-74.3845 517.029,-81.206"/>
</g>
<!-- Node13 -->
<g id="node13" class="node"><title>Node13</title>
<polygon fill="white" stroke="#bfbfbf" points="263,-56.5 263,-75.5 335,-75.5 335,-56.5 263,-56.5"/>
<text text-anchor="middle" x="299" y="-63.5" font-family="Helvetica,sans-Serif" font-size="10.00">WebServer.h</text>
</g>
<!-- Node8&#45;&gt;Node13 -->
<g id="edge16" class="edge"><title>Node8&#45;&gt;Node13</title>
<path fill="none" stroke="midnightblue" d="M347.373,-168.269C344.789,-155.483 339.087,-131.112 330,-112 325.273,-102.059 318.463,-91.8846 312.429,-83.7311"/>
<polygon fill="midnightblue" stroke="midnightblue" points="315.19,-81.5796 306.321,-75.7833 309.639,-85.8451 315.19,-81.5796"/>
</g>
<!-- Node9&#45;&gt;Node6 -->
<g id="edge9" class="edge"><title>Node9&#45;&gt;Node6</title>
<path fill="none" stroke="midnightblue" d="M476.381,-112.444C495.216,-103.675 524.731,-89.9355 546.379,-79.8579"/>
<polygon fill="midnightblue" stroke="midnightblue" points="548.117,-82.9098 555.705,-75.5164 545.162,-76.5637 548.117,-82.9098"/>
</g>
<!-- Node10 -->
<g id="node10" class="node"><title>Node10</title>
<g id="a_node10"><a xlink:href="_object_types_8h.html" target="_top" xlink:title="Framework/ObjectTypes.h">
<polygon fill="white" stroke="black" points="373.5,-56.5 373.5,-75.5 504.5,-75.5 504.5,-56.5 373.5,-56.5"/>
<text text-anchor="middle" x="439" y="-63.5" font-family="Helvetica,sans-Serif" font-size="10.00">Framework/ObjectTypes.h</text>
</a>
</g>
</g>
<!-- Node9&#45;&gt;Node10 -->
<g id="edge10" class="edge"><title>Node9&#45;&gt;Node10</title>
<path fill="none" stroke="midnightblue" d="M454.863,-112.083C452.317,-104.849 448.644,-94.4087 445.473,-85.3968"/>
<polygon fill="midnightblue" stroke="midnightblue" points="448.7,-84.0225 442.079,-75.7511 442.097,-86.3459 448.7,-84.0225"/>
</g>
<!-- Node11&#45;&gt;Node3 -->
<g id="edge12" class="edge"><title>Node11&#45;&gt;Node3</title>
<path fill="none" stroke="midnightblue" d="M168.022,-112.324C154.45,-103.9 133.62,-90.9709 117.675,-81.0741"/>
<polygon fill="midnightblue" stroke="midnightblue" points="119.286,-77.9544 108.943,-75.6545 115.594,-83.9019 119.286,-77.9544"/>
</g>
<!-- Node12&#45;&gt;Node13 -->
<g id="edge14" class="edge"><title>Node12&#45;&gt;Node13</title>
<path fill="none" stroke="midnightblue" d="M283.137,-112.083C285.683,-104.849 289.356,-94.4087 292.527,-85.3968"/>
<polygon fill="midnightblue" stroke="midnightblue" points="295.903,-86.3459 295.921,-75.7511 289.3,-84.0225 295.903,-86.3459"/>
</g>
<!-- Node14&#45;&gt;Node9 -->
<g id="edge18" class="edge"><title>Node14&#45;&gt;Node9</title>
<path fill="none" stroke="midnightblue" d="M319.671,-226.125C350.55,-220.106 388.051,-208.878 416,-188 432.11,-175.965 443.739,-155.784 450.62,-141.097"/>
<polygon fill="midnightblue" stroke="midnightblue" points="453.987,-142.132 454.787,-131.567 447.574,-139.327 453.987,-142.132"/>
</g>
<!-- Node14&#45;&gt;Node6 -->
<g id="edge19" class="edge"><title>Node14&#45;&gt;Node6</title>
<path fill="none" stroke="midnightblue" d="M319.764,-225.748C355.807,-219.449 402.547,-208.06 440,-188 491.139,-160.61 538.373,-109.58 560.62,-83.4083"/>
<polygon fill="midnightblue" stroke="midnightblue" points="563.454,-85.475 567.176,-75.5555 558.08,-80.9888 563.454,-85.475"/>
</g>
<!-- Node14&#45;&gt;Node8 -->
<g id="edge20" class="edge"><title>Node14&#45;&gt;Node8</title>
<path fill="none" stroke="midnightblue" d="M276.817,-224.324C290.233,-215.9 310.824,-202.971 326.586,-193.074"/>
<polygon fill="midnightblue" stroke="midnightblue" points="328.609,-195.936 335.217,-187.655 324.887,-190.008 328.609,-195.936"/>
</g>
<!-- Node14&#45;&gt;Node11 -->
<g id="edge21" class="edge"><title>Node14&#45;&gt;Node11</title>
<path fill="none" stroke="midnightblue" d="M256.644,-224.368C243.218,-206.135 211.768,-163.426 194.279,-139.675"/>
<polygon fill="midnightblue" stroke="midnightblue" points="197.074,-137.568 188.326,-131.591 191.438,-141.719 197.074,-137.568"/>
</g>
<!-- Node14&#45;&gt;Node12 -->
<g id="edge22" class="edge"><title>Node14&#45;&gt;Node12</title>
<path fill="none" stroke="midnightblue" d="M264.334,-224.368C267.077,-206.617 273.406,-165.666 277.126,-141.597"/>
<polygon fill="midnightblue" stroke="midnightblue" points="280.604,-142.009 278.672,-131.591 273.686,-140.94 280.604,-142.009"/>
</g>
<!-- Node15&#45;&gt;Node9 -->
<g id="edge24" class="edge"><title>Node15&#45;&gt;Node9</title>
<path fill="none" stroke="midnightblue" d="M472.745,-224.368C470.162,-206.617 464.206,-165.666 460.705,-141.597"/>
<polygon fill="midnightblue" stroke="midnightblue" points="464.153,-140.983 459.25,-131.591 457.226,-141.991 464.153,-140.983"/>
</g>
<!-- Node17 -->
<g id="node17" class="node"><title>Node17</title>
<polygon fill="white" stroke="#bfbfbf" points="622.5,-280.5 622.5,-299.5 673.5,-299.5 673.5,-280.5 622.5,-280.5"/>
<text text-anchor="middle" x="648" y="-287.5" font-family="Helvetica,sans-Serif" font-size="10.00">stddef.h</text>
</g>
<!-- Node16&#45;&gt;Node17 -->
<g id="edge26" class="edge"><title>Node16&#45;&gt;Node17</title>
<path fill="none" stroke="midnightblue" d="M674.716,-336.083C670.289,-328.613 663.837,-317.724 658.382,-308.52"/>
<polygon fill="midnightblue" stroke="midnightblue" points="661.295,-306.57 653.186,-299.751 655.273,-310.138 661.295,-306.57"/>
</g>
<!-- Node16&#45;&gt;Node7 -->
<g id="edge27" class="edge"><title>Node16&#45;&gt;Node7</title>
<path fill="none" stroke="midnightblue" d="M682.967,-336.279C688.972,-317.824 702,-273.367 702,-235 702,-235 702,-235 702,-121 702,-84.5693 677.567,-47.836 661.271,-27.387"/>
<polygon fill="midnightblue" stroke="midnightblue" points="663.954,-25.1386 654.88,-19.6684 658.562,-29.603 663.954,-25.1386"/>
</g>
<!-- Node19 -->
<g id="node19" class="node"><title>Node19</title>
<g id="a_node19"><a xlink:href="_config_manager_8h.html" target="_top" xlink:title="ConfigManager.h">
<polygon fill="white" stroke="black" points="235.5,-280.5 235.5,-299.5 324.5,-299.5 324.5,-280.5 235.5,-280.5"/>
<text text-anchor="middle" x="280" y="-287.5" font-family="Helvetica,sans-Serif" font-size="10.00">ConfigManager.h</text>
</a>
</g>
</g>
<!-- Node18&#45;&gt;Node19 -->
<g id="edge29" class="edge"><title>Node18&#45;&gt;Node19</title>
<path fill="none" stroke="midnightblue" d="M292.523,-336.083C290.514,-328.849 287.614,-318.409 285.11,-309.397"/>
<polygon fill="midnightblue" stroke="midnightblue" points="288.48,-308.449 282.431,-299.751 281.735,-310.323 288.48,-308.449"/>
</g>
<!-- Node19&#45;&gt;Node3 -->
<g id="edge30" class="edge"><title>Node19&#45;&gt;Node3</title>
<path fill="none" stroke="midnightblue" d="M256.69,-280.465C238.726,-272.989 214.14,-260.701 197,-244 148.177,-196.429 115.17,-120.52 101.751,-85.6374"/>
<polygon fill="midnightblue" stroke="midnightblue" points="104.869,-83.9817 98.087,-75.8416 98.3121,-86.4341 104.869,-83.9817"/>
</g>
<!-- Node19&#45;&gt;Node2 -->
<g id="edge31" class="edge"><title>Node19&#45;&gt;Node2</title>
<path fill="none" stroke="midnightblue" d="M257.722,-299.518C230.69,-311.116 190.846,-333.071 209,-356 226.757,-378.426 303.406,-390.794 354.043,-396.65"/>
<polygon fill="midnightblue" stroke="midnightblue" points="353.785,-400.142 364.11,-397.768 354.558,-393.185 353.785,-400.142"/>
</g>
<!-- Node19&#45;&gt;Node14 -->
<g id="edge32" class="edge"><title>Node19&#45;&gt;Node14</title>
<path fill="none" stroke="midnightblue" d="M277.193,-280.083C274.915,-272.849 271.629,-262.409 268.792,-253.397"/>
<polygon fill="midnightblue" stroke="midnightblue" points="272.096,-252.239 265.755,-243.751 265.419,-254.341 272.096,-252.239"/>
</g>
<!-- Node19&#45;&gt;Node8 -->
<g id="edge33" class="edge"><title>Node19&#45;&gt;Node8</title>
<path fill="none" stroke="midnightblue" d="M292.302,-280.337C303.124,-272.123 318.58,-258.857 328,-244 337.029,-229.759 342.507,-211.286 345.592,-197.674"/>
<polygon fill="midnightblue" stroke="midnightblue" points="349.081,-198.082 347.647,-187.584 342.222,-196.685 349.081,-198.082"/>
</g>
<!-- Node19&#45;&gt;Node15 -->
<g id="edge34" class="edge"><title>Node19&#45;&gt;Node15</title>
<path fill="none" stroke="midnightblue" d="M310.74,-280.444C343.944,-271.201 396.991,-256.436 433.557,-246.257"/>
<polygon fill="midnightblue" stroke="midnightblue" points="434.709,-249.57 443.404,-243.516 432.832,-242.826 434.709,-249.57"/>
</g>
<!-- Node20&#45;&gt;Node14 -->
<g id="edge38" class="edge"><title>Node20&#45;&gt;Node14</title>
<path fill="none" stroke="midnightblue" d="M172.339,-392.402C160.594,-384.585 144.969,-371.862 138,-356 134.425,-347.862 135.389,-344.497 138,-336 146.834,-307.248 153.506,-299.968 176,-280 191.773,-265.998 212.685,-255.001 230.053,-247.383"/>
<polygon fill="midnightblue" stroke="midnightblue" points="231.421,-250.605 239.282,-243.502 228.707,-244.152 231.421,-250.605"/>
</g>
</g>
</svg>
        <g id="navigator" transform="translate(0 0)" fill="#404254">
                <rect fill="#f2f5e9" fill-opacity="0.5" stroke="#606060" stroke-width=".5" x="0" y="0" width="60" height="60"/>
                <use id="zoomplus" xlink:href="#zoomPlus" x="17" y="9" onmousedown="handleZoom(evt,'in')"/>
                <use id="zoomminus" xlink:href="#zoomMin" x="42" y="9" onmousedown="handleZoom(evt,'out')"/>
                <use id="reset" xlink:href="#resetDef" x="30" y="36" onmousedown="handleReset()"/>
                <g id="arrowUp" xlink:href="#dirArrow" transform="translate(30 24)" onmousedown="handlePan(0,-1)">
                  <use xlink:href="#rim" fill="#404040">
                        <set attributeName="fill" to="#808080" begin="arrowUp.mouseover" end="arrowUp.mouseout"/>
                  </use>
                  <path fill="none" stroke="white" stroke-width="1.5" d="M0,-3.0v7 M-2.5,-0.5L0,-3.0L2.5,-0.5"/>
                </g>
                <g id="arrowRight" xlink:href="#dirArrow" transform="rotate(90) translate(36 -43)" onmousedown="handlePan(1,0)">
                  <use xlink:href="#rim" fill="#404040">
                        <set attributeName="fill" to="#808080" begin="arrowRight.mouseover" end="arrowRight.mouseout"/>
                  </use>
                  <path fill="none" stroke="white" stroke-width="1.5" d="M0,-3.0v7 M-2.5,-0.5L0,-3.0L2.5,-0.5"/>
                </g>
                <g id="arrowDown" xlink:href="#dirArrow" transform="rotate(180) translate(-30 -48)" onmousedown="handlePan(0,1)">
                  <use xlink:href="#rim" fill="#404040">
                        <set attributeName="fill" to="#808080" begin="arrowDown.mouseover" end="arrowDown.mouseout"/>
                  </use>
                  <path fill="none" stroke="white" stroke-width="1.5" d="M0,-3.0v7 M-2.5,-0.5L0,-3.0L2.5,-0.5"/>
                </g>
                <g id="arrowLeft" xlink:href="#dirArrow" transform="rotate(270) translate(-36 17)" onmousedown="handlePan(-1,0)">
                  <use xlink:href="#rim" fill="#404040">
                        <set attributeName="fill" to="#808080" begin="arrowLeft.mouseover" end="arrowLeft.mouseout"/>
                  </use>
                  <path fill="none" stroke="white" stroke-width="1.5" d="M0,-3.0v7 M-2.5,-0.5L0,-3.0L2.5,-0.5"/>
                </g>
        </g>
        <svg viewBox="0 0 15 15" width="100%" height="30px" preserveAspectRatio="xMaxYMin meet">
         <g id="arrow_out" transform="scale(0.3 0.3)">
          <a xlink:href="_digital_output_8cpp__incl_org.svg" target="_base">
           <rect id="button" ry="5" rx="5" y="6" x="6" height="38" width="38"
                fill="#f2f5e9" fill-opacity="0.5" stroke="#606060" stroke-width="1.0"/>
           <path id="arrow"
             d="M 11.500037,31.436501 C 11.940474,20.09759 22.043105,11.32322 32.158766,21.979434 L 37.068811,17.246167 C 37.068811,17.246167 37.088388,32 37.088388,32 L 22.160133,31.978069 C 22.160133,31.978069 26.997745,27.140456 26.997745,27.140456 C 18.528582,18.264221 13.291696,25.230495 11.500037,31.436501 z"
             style="fill:#404040;"/>
          </a>
         </g>
        </svg>
</svg>
