<?xml version="1.0" encoding="UTF-8" standalone="no"?>
<!DOCTYPE svg PUBLIC "-//W3C//DTD SVG 1.1//EN"
 "http://www.w3.org/Graphics/SVG/1.1/DTD/svg11.dtd">
<!-- Generated by graphviz version 2.30.1 (20130214.1330)
 -->
<!-- Title: Controller/LevelController.cpp Pages: 1 -->
<!--zoomable 476 -->
<svg id="main" version="1.1" xmlns="http://www.w3.org/2000/svg" xmlns:xlink="http://www.w3.org/1999/xlink" xml:space="preserve" onload="init(evt)">
<style type="text/css"><![CDATA[
.edge:hover path { stroke: red; }
.edge:hover polygon { stroke: red; fill: red; }
]]></style>
<script type="text/javascript"><![CDATA[
var edges = document.getElementsByTagName('g');
if (edges && edges.length) {
  for (var i=0;i<edges.length;i++) {
    if (edges[i].id.substr(0,4)=='edge') {
      edges[i].setAttribute('class','edge');
    }
  }
}
]]></script>
        <defs>
                <circle id="rim" cx="0" cy="0" r="7"/>
                <circle id="rim2" cx="0" cy="0" r="3.5"/>
                <g id="zoomPlus">
                        <use xlink:href="#rim" fill="#404040">
                                <set attributeName="fill" to="#808080" begin="zoomplus.mouseover" end="zoomplus.mouseout"/>
                        </use>
                        <path d="M-4,0h8M0,-4v8" fill="none" stroke="white" stroke-width="1.5" pointer-events="none"/>
                </g>
                <g id="zoomMin">
                        <use xlink:href="#rim" fill="#404040">
                                <set attributeName="fill" to="#808080" begin="zoomminus.mouseover" end="zoomminus.mouseout"/>
                        </use>
                        <path d="M-4,0h8" fill="none" stroke="white" stroke-width="1.5" pointer-events="none"/>
                </g>
                <g id="dirArrow">
                        <path fill="none" stroke="white" stroke-width="1.5" d="M0,-3.0v7 M-2.5,-0.5L0,-3.0L2.5,-0.5"/>
                </g>
               <g id="resetDef">
                       <use xlink:href="#rim2" fill="#404040">
                               <set attributeName="fill" to="#808080" begin="reset.mouseover" end="reset.mouseout"/>
                       </use>
               </g>
        </defs>

<script type="text/javascript">
var viewWidth = 818;
var viewHeight = 476;
var sectionId = 'dynsection-0';
</script>
<script xlink:href="svgpan.js"/>
<svg id="graph" class="graph">
<g id="viewport">
<title>Controller/LevelController.cpp</title>
<polygon fill="white" stroke="white" points="-4,5 -4,-472 815,-472 815,5 -4,5"/>
<!-- Node1 -->
<g id="node1" class="node"><title>Node1</title>
<polygon fill="#bfbfbf" stroke="black" points="265.5,-448.5 265.5,-467.5 408.5,-467.5 408.5,-448.5 265.5,-448.5"/>
<text text-anchor="middle" x="337" y="-455.5" font-family="Helvetica,sans-Serif" font-size="10.00">Controller/LevelController.cpp</text>
</g>
<!-- Node2 -->
<g id="node2" class="node"><title>Node2</title>
<g id="a_node2"><a xlink:href="_level_controller_8h.html" target="_top" xlink:title="Controller/LevelController.h">
<polygon fill="white" stroke="black" points="260,-280.5 260,-299.5 392,-299.5 392,-280.5 260,-280.5"/>
<text text-anchor="middle" x="326" y="-287.5" font-family="Helvetica,sans-Serif" font-size="10.00">Controller/LevelController.h</text>
</a>
</g>
</g>
<!-- Node1&#45;&gt;Node2 -->
<g id="edge1" class="edge"><title>Node1&#45;&gt;Node2</title>
<path fill="none" stroke="midnightblue" d="M333.757,-448.248C326.782,-428.397 311.347,-378.387 316,-336 316.973,-327.14 318.992,-317.472 320.963,-309.375"/>
<polygon fill="midnightblue" stroke="midnightblue" points="324.393,-310.092 323.518,-299.533 317.617,-308.333 324.393,-310.092"/>
</g>
<!-- Node13 -->
<g id="node13" class="node"><title>Node13</title>
<g id="a_node13"><a xlink:href="_aquaduino_8h.html" target="_top" xlink:title="Aquaduino.h">
<polygon fill="white" stroke="black" points="384.5,-392.5 384.5,-411.5 455.5,-411.5 455.5,-392.5 384.5,-392.5"/>
<text text-anchor="middle" x="420" y="-399.5" font-family="Helvetica,sans-Serif" font-size="10.00">Aquaduino.h</text>
</a>
</g>
</g>
<!-- Node1&#45;&gt;Node13 -->
<g id="edge19" class="edge"><title>Node1&#45;&gt;Node13</title>
<path fill="none" stroke="midnightblue" d="M350.335,-448.324C363.162,-439.979 382.785,-427.212 397.94,-417.352"/>
<polygon fill="midnightblue" stroke="midnightblue" points="400.224,-420.042 406.698,-411.655 396.407,-414.174 400.224,-420.042"/>
</g>
<!-- Node15 -->
<g id="node15" class="node"><title>Node15</title>
<polygon fill="white" stroke="#bfbfbf" points="-0.5,-336.5 -0.5,-355.5 92.5,-355.5 92.5,-336.5 -0.5,-336.5"/>
<text text-anchor="middle" x="46" y="-343.5" font-family="Helvetica,sans-Serif" font-size="10.00">TemplateParser.h</text>
</g>
<!-- Node1&#45;&gt;Node15 -->
<g id="edge40" class="edge"><title>Node1&#45;&gt;Node15</title>
<path fill="none" stroke="midnightblue" d="M314.166,-448.368C262.743,-428.93 137.73,-381.674 78.3482,-359.228"/>
<polygon fill="midnightblue" stroke="midnightblue" points="79.3198,-355.853 68.7282,-355.591 76.8446,-362.401 79.3198,-355.853"/>
</g>
<!-- Node21 -->
<g id="node21" class="node"><title>Node21</title>
<polygon fill="white" stroke="#bfbfbf" points="474,-392.5 474,-411.5 512,-411.5 512,-392.5 474,-392.5"/>
<text text-anchor="middle" x="493" y="-399.5" font-family="Helvetica,sans-Serif" font-size="10.00">SD.h</text>
</g>
<!-- Node1&#45;&gt;Node21 -->
<g id="edge41" class="edge"><title>Node1&#45;&gt;Node21</title>
<path fill="none" stroke="midnightblue" d="M361.719,-448.444C389.539,-438.813 434.682,-423.187 464.108,-413.001"/>
<polygon fill="midnightblue" stroke="midnightblue" points="465.502,-416.222 473.807,-409.644 463.212,-409.608 465.502,-416.222"/>
</g>
<!-- Node3 -->
<g id="node3" class="node"><title>Node3</title>
<g id="a_node3"><a xlink:href="_controller_8h.html" target="_top" xlink:title="Framework/Controller.h">
<polygon fill="white" stroke="black" points="424.5,-168.5 424.5,-187.5 541.5,-187.5 541.5,-168.5 424.5,-168.5"/>
<text text-anchor="middle" x="483" y="-175.5" font-family="Helvetica,sans-Serif" font-size="10.00">Framework/Controller.h</text>
</a>
</g>
</g>
<!-- Node2&#45;&gt;Node3 -->
<g id="edge2" class="edge"><title>Node2&#45;&gt;Node3</title>
<path fill="none" stroke="midnightblue" d="M324.02,-280.294C321.465,-266.651 318.781,-240.127 332,-224 351.942,-199.67 384.438,-188.119 414.186,-182.774"/>
<polygon fill="midnightblue" stroke="midnightblue" points="414.821,-186.217 424.147,-181.19 413.721,-179.304 414.821,-186.217"/>
</g>
<!-- Node12 -->
<g id="node12" class="node"><title>Node12</title>
<g id="a_node12"><a xlink:href="_actuator_8h.html" target="_top" xlink:title="Framework/Actuator.h">
<polygon fill="white" stroke="black" points="341.5,-224.5 341.5,-243.5 454.5,-243.5 454.5,-224.5 341.5,-224.5"/>
<text text-anchor="middle" x="398" y="-231.5" font-family="Helvetica,sans-Serif" font-size="10.00">Framework/Actuator.h</text>
</a>
</g>
</g>
<!-- Node2&#45;&gt;Node12 -->
<g id="edge13" class="edge"><title>Node2&#45;&gt;Node12</title>
<path fill="none" stroke="midnightblue" d="M337.568,-280.324C348.42,-272.185 364.881,-259.839 377.883,-250.087"/>
<polygon fill="midnightblue" stroke="midnightblue" points="380.321,-252.634 386.221,-243.834 376.121,-247.034 380.321,-252.634"/>
</g>
<!-- Node4 -->
<g id="node4" class="node"><title>Node4</title>
<g id="a_node4"><a xlink:href="_object_8h.html" target="_top" xlink:title="Object.h">
<polygon fill="white" stroke="black" points="543.5,-112.5 543.5,-131.5 596.5,-131.5 596.5,-112.5 543.5,-112.5"/>
<text text-anchor="middle" x="570" y="-119.5" font-family="Helvetica,sans-Serif" font-size="10.00">Object.h</text>
</a>
</g>
</g>
<!-- Node3&#45;&gt;Node4 -->
<g id="edge3" class="edge"><title>Node3&#45;&gt;Node4</title>
<path fill="none" stroke="midnightblue" d="M496.978,-168.324C510.55,-159.9 531.38,-146.971 547.325,-137.074"/>
<polygon fill="midnightblue" stroke="midnightblue" points="549.406,-139.902 556.057,-131.655 545.714,-133.954 549.406,-139.902"/>
</g>
<!-- Node8 -->
<g id="node8" class="node"><title>Node8</title>
<g id="a_node8"><a xlink:href="_serializable_8h.html" target="_top" xlink:title="Serializable.h">
<polygon fill="white" stroke="black" points="635.5,-112.5 635.5,-131.5 710.5,-131.5 710.5,-112.5 635.5,-112.5"/>
<text text-anchor="middle" x="673" y="-119.5" font-family="Helvetica,sans-Serif" font-size="10.00">Serializable.h</text>
</a>
</g>
</g>
<!-- Node3&#45;&gt;Node8 -->
<g id="edge7" class="edge"><title>Node3&#45;&gt;Node8</title>
<path fill="none" stroke="midnightblue" d="M513.106,-168.444C545.626,-159.201 597.579,-144.436 633.391,-134.257"/>
<polygon fill="midnightblue" stroke="midnightblue" points="634.373,-137.617 643.035,-131.516 632.459,-130.884 634.373,-137.617"/>
</g>
<!-- Node10 -->
<g id="node10" class="node"><title>Node10</title>
<g id="a_node10"><a xlink:href="_web_interface_8h.html" target="_top" xlink:title="WebInterface.h">
<polygon fill="white" stroke="black" points="361,-112.5 361,-131.5 443,-131.5 443,-112.5 361,-112.5"/>
<text text-anchor="middle" x="402" y="-119.5" font-family="Helvetica,sans-Serif" font-size="10.00">WebInterface.h</text>
</a>
</g>
</g>
<!-- Node3&#45;&gt;Node10 -->
<g id="edge9" class="edge"><title>Node3&#45;&gt;Node10</title>
<path fill="none" stroke="midnightblue" d="M469.986,-168.324C457.468,-159.979 438.318,-147.212 423.529,-137.352"/>
<polygon fill="midnightblue" stroke="midnightblue" points="425.244,-134.289 414.982,-131.655 421.361,-140.114 425.244,-134.289"/>
</g>
<!-- Node5 -->
<g id="node5" class="node"><title>Node5</title>
<g id="a_node5"><a xlink:href="_config_8h.html" target="_top" xlink:title="Framework/Config.h">
<polygon fill="white" stroke="black" points="281.5,-56.5 281.5,-75.5 384.5,-75.5 384.5,-56.5 281.5,-56.5"/>
<text text-anchor="middle" x="333" y="-63.5" font-family="Helvetica,sans-Serif" font-size="10.00">Framework/Config.h</text>
</a>
</g>
</g>
<!-- Node3&#45;&gt;Node5 -->
<g id="edge11" class="edge"><title>Node3&#45;&gt;Node5</title>
<path fill="none" stroke="midnightblue" d="M481.041,-168.163C477.538,-154.339 468.931,-127.574 452,-112 434.308,-95.7265 410.151,-85.1566 388.224,-78.382"/>
<polygon fill="midnightblue" stroke="midnightblue" points="388.916,-74.9389 378.338,-75.5295 386.976,-81.6646 388.916,-74.9389"/>
</g>
<!-- Node11 -->
<g id="node11" class="node"><title>Node11</title>
<polygon fill="white" stroke="#bfbfbf" points="412,-56.5 412,-75.5 484,-75.5 484,-56.5 412,-56.5"/>
<text text-anchor="middle" x="448" y="-63.5" font-family="Helvetica,sans-Serif" font-size="10.00">WebServer.h</text>
</g>
<!-- Node3&#45;&gt;Node11 -->
<g id="edge12" class="edge"><title>Node3&#45;&gt;Node11</title>
<path fill="none" stroke="midnightblue" d="M485.237,-168.273C488.081,-155.494 491.855,-131.131 485,-112 481.059,-101.003 473.143,-90.7688 465.64,-82.8479"/>
<polygon fill="midnightblue" stroke="midnightblue" points="468.019,-80.2784 458.438,-75.7555 463.108,-85.2659 468.019,-80.2784"/>
</g>
<!-- Node4&#45;&gt;Node5 -->
<g id="edge4" class="edge"><title>Node4&#45;&gt;Node5</title>
<path fill="none" stroke="midnightblue" d="M543.274,-114.91C503.83,-105.923 429.433,-88.9721 380.543,-77.8326"/>
<polygon fill="midnightblue" stroke="midnightblue" points="381.047,-74.3579 370.52,-75.5488 379.492,-81.1829 381.047,-74.3579"/>
</g>
<!-- Node7 -->
<g id="node7" class="node"><title>Node7</title>
<g id="a_node7"><a xlink:href="_object_types_8h.html" target="_top" xlink:title="Framework/ObjectTypes.h">
<polygon fill="white" stroke="black" points="504.5,-56.5 504.5,-75.5 635.5,-75.5 635.5,-56.5 504.5,-56.5"/>
<text text-anchor="middle" x="570" y="-63.5" font-family="Helvetica,sans-Serif" font-size="10.00">Framework/ObjectTypes.h</text>
</a>
</g>
</g>
<!-- Node4&#45;&gt;Node7 -->
<g id="edge6" class="edge"><title>Node4&#45;&gt;Node7</title>
<path fill="none" stroke="midnightblue" d="M570,-112.083C570,-105.006 570,-94.8611 570,-85.9865"/>
<polygon fill="midnightblue" stroke="midnightblue" points="573.5,-85.751 570,-75.7511 566.5,-85.7511 573.5,-85.751"/>
</g>
<!-- Node6 -->
<g id="node6" class="node"><title>Node6</title>
<polygon fill="white" stroke="#bfbfbf" points="194.5,-0.5 194.5,-19.5 243.5,-19.5 243.5,-0.5 194.5,-0.5"/>
<text text-anchor="middle" x="219" y="-7.5" font-family="Helvetica,sans-Serif" font-size="10.00">stdint.h</text>
</g>
<!-- Node5&#45;&gt;Node6 -->
<g id="edge5" class="edge"><title>Node5&#45;&gt;Node6</title>
<path fill="none" stroke="midnightblue" d="M314.936,-56.4435C296.425,-47.6751 267.419,-33.9355 246.145,-23.8579"/>
<polygon fill="midnightblue" stroke="midnightblue" points="247.515,-20.6343 236.979,-19.5164 244.518,-26.9604 247.515,-20.6343"/>
</g>
<!-- Node9 -->
<g id="node9" class="node"><title>Node9</title>
<polygon fill="white" stroke="#bfbfbf" points="731,-56.5 731,-75.5 789,-75.5 789,-56.5 731,-56.5"/>
<text text-anchor="middle" x="760" y="-63.5" font-family="Helvetica,sans-Serif" font-size="10.00">Arduino.h</text>
</g>
<!-- Node8&#45;&gt;Node9 -->
<g id="edge8" class="edge"><title>Node8&#45;&gt;Node9</title>
<path fill="none" stroke="midnightblue" d="M686.978,-112.324C700.55,-103.9 721.38,-90.9709 737.325,-81.0741"/>
<polygon fill="midnightblue" stroke="midnightblue" points="739.406,-83.9019 746.057,-75.6545 735.714,-77.9544 739.406,-83.9019"/>
</g>
<!-- Node10&#45;&gt;Node11 -->
<g id="edge10" class="edge"><title>Node10&#45;&gt;Node11</title>
<path fill="none" stroke="midnightblue" d="M409.596,-112.083C416.227,-104.298 426.021,-92.8015 434.058,-83.3665"/>
<polygon fill="midnightblue" stroke="midnightblue" points="436.725,-85.6332 440.545,-75.7511 431.396,-81.0939 436.725,-85.6332"/>
</g>
<!-- Node12&#45;&gt;Node4 -->
<g id="edge14" class="edge"><title>Node12&#45;&gt;Node4</title>
<path fill="none" stroke="midnightblue" d="M454.847,-229.141C486.661,-224.114 524.86,-212.873 550,-188 562.186,-175.944 566.982,-156.655 568.852,-142.216"/>
<polygon fill="midnightblue" stroke="midnightblue" points="572.369,-142.187 569.809,-131.907 565.399,-141.541 572.369,-142.187"/>
</g>
<!-- Node12&#45;&gt;Node5 -->
<g id="edge15" class="edge"><title>Node12&#45;&gt;Node5</title>
<path fill="none" stroke="midnightblue" d="M393.504,-224.262C384.725,-206.973 365.024,-167.037 352,-132 346.24,-116.503 341.075,-98.4176 337.589,-85.264"/>
<polygon fill="midnightblue" stroke="midnightblue" points="340.967,-84.3484 335.08,-75.54 334.189,-86.0973 340.967,-84.3484"/>
</g>
<!-- Node12&#45;&gt;Node3 -->
<g id="edge16" class="edge"><title>Node12&#45;&gt;Node3</title>
<path fill="none" stroke="midnightblue" d="M411.657,-224.324C424.916,-215.9 445.268,-202.971 460.846,-193.074"/>
<polygon fill="midnightblue" stroke="midnightblue" points="462.813,-195.971 469.377,-187.655 459.06,-190.063 462.813,-195.971"/>
</g>
<!-- Node12&#45;&gt;Node8 -->
<g id="edge17" class="edge"><title>Node12&#45;&gt;Node8</title>
<path fill="none" stroke="midnightblue" d="M447.082,-224.498C482.477,-217.355 530.885,-205.479 571,-188 601.883,-174.543 634.117,-152.426 653.88,-137.787"/>
<polygon fill="midnightblue" stroke="midnightblue" points="656.151,-140.458 662.033,-131.645 651.939,-134.866 656.151,-140.458"/>
</g>
<!-- Node12&#45;&gt;Node10 -->
<g id="edge18" class="edge"><title>Node12&#45;&gt;Node10</title>
<path fill="none" stroke="midnightblue" d="M398.314,-224.368C398.959,-206.617 400.448,-165.666 401.324,-141.597"/>
<polygon fill="midnightblue" stroke="midnightblue" points="404.822,-141.712 401.688,-131.591 397.826,-141.458 404.822,-141.712"/>
</g>
<!-- Node13&#45;&gt;Node9 -->
<g id="edge20" class="edge"><title>Node13&#45;&gt;Node9</title>
<path fill="none" stroke="midnightblue" d="M455.819,-393.591C458.919,-393.024 462.012,-392.485 465,-392 592.33,-371.337 639.038,-416.437 753,-356 786.945,-337.998 810,-329.423 810,-291 810,-291 810,-291 810,-177 810,-141.184 787.76,-104.214 772.945,-83.5601"/>
<polygon fill="midnightblue" stroke="midnightblue" points="775.735,-81.4456 766.952,-75.5193 770.122,-85.6289 775.735,-81.4456"/>
</g>
<!-- Node14 -->
<g id="node14" class="node"><title>Node14</title>
<polygon fill="white" stroke="#bfbfbf" points="606,-336.5 606,-355.5 668,-355.5 668,-336.5 606,-336.5"/>
<text text-anchor="middle" x="637" y="-343.5" font-family="Helvetica,sans-Serif" font-size="10.00">Ethernet.h</text>
</g>
<!-- Node13&#45;&gt;Node14 -->
<g id="edge21" class="edge"><title>Node13&#45;&gt;Node14</title>
<path fill="none" stroke="midnightblue" d="M454.384,-392.444C492.834,-382.875 555.071,-367.388 596.017,-357.199"/>
<polygon fill="midnightblue" stroke="midnightblue" points="597.082,-360.54 605.941,-354.729 595.391,-353.748 597.082,-360.54"/>
</g>
<!-- Node13&#45;&gt;Node15 -->
<g id="edge22" class="edge"><title>Node13&#45;&gt;Node15</title>
<path fill="none" stroke="midnightblue" d="M384.082,-396.196C326.775,-388.474 210.862,-372.622 102.884,-356.263"/>
<polygon fill="midnightblue" stroke="midnightblue" points="103.209,-352.772 92.7967,-354.73 102.157,-359.693 103.209,-352.772"/>
</g>
<!-- Node13&#45;&gt;Node5 -->
<g id="edge23" class="edge"><title>Node13&#45;&gt;Node5</title>
<path fill="none" stroke="midnightblue" d="M394.111,-392.449C356.898,-378.831 288.637,-348.67 251,-300 232.588,-276.191 232,-265.098 232,-235 232,-235 232,-235 232,-177 232,-132.593 277.213,-98.3671 307.138,-80.5772"/>
<polygon fill="midnightblue" stroke="midnightblue" points="308.92,-83.5901 315.867,-75.5909 305.447,-77.5119 308.92,-83.5901"/>
</g>
<!-- Node13&#45;&gt;Node3 -->
<g id="edge24" class="edge"><title>Node13&#45;&gt;Node3</title>
<path fill="none" stroke="midnightblue" d="M410.493,-392.456C398.177,-380.294 379.16,-357.119 387,-336 394.348,-316.205 404.496,-316.232 418,-300 438.42,-275.455 448.038,-272.206 463,-244 470.78,-229.332 476.048,-211.165 479.216,-197.77"/>
<polygon fill="midnightblue" stroke="midnightblue" points="482.674,-198.338 481.392,-187.821 475.836,-196.842 482.674,-198.338"/>
</g>
<!-- Node13&#45;&gt;Node12 -->
<g id="edge25" class="edge"><title>Node13&#45;&gt;Node12</title>
<path fill="none" stroke="midnightblue" d="M397.541,-392.382C382.231,-385.184 363.137,-373.288 354,-356 349.847,-348.141 350.065,-343.971 354,-336 365.648,-312.406 389.352,-323.594 401,-300 408.11,-285.597 406.397,-267.141 403.468,-253.578"/>
<polygon fill="midnightblue" stroke="midnightblue" points="406.765,-252.348 400.889,-243.532 399.985,-254.089 406.765,-252.348"/>
</g>
<!-- Node16 -->
<g id="node16" class="node"><title>Node16</title>
<g id="a_node16"><a xlink:href="_sensor_8h.html" target="_top" xlink:title="Framework/Sensor.h">
<polygon fill="white" stroke="black" points="636.5,-224.5 636.5,-243.5 743.5,-243.5 743.5,-224.5 636.5,-224.5"/>
<text text-anchor="middle" x="690" y="-231.5" font-family="Helvetica,sans-Serif" font-size="10.00">Framework/Sensor.h</text>
</a>
</g>
</g>
<!-- Node13&#45;&gt;Node16 -->
<g id="edge26" class="edge"><title>Node13&#45;&gt;Node16</title>
<path fill="none" stroke="midnightblue" d="M455.83,-393.661C458.928,-393.079 462.017,-392.517 465,-392 519.22,-382.601 674.028,-397.644 710,-356 735.3,-326.71 714.587,-278.008 700.449,-252.23"/>
<polygon fill="midnightblue" stroke="midnightblue" points="703.482,-250.483 695.462,-243.561 697.415,-253.974 703.482,-250.483"/>
</g>
<!-- Node17 -->
<g id="node17" class="node"><title>Node17</title>
<g id="a_node17"><a xlink:href="_array_list_8h.html" target="_top" xlink:title="Framework/ArrayList.h">
<polygon fill="white" stroke="black" points="110.5,-336.5 110.5,-355.5 225.5,-355.5 225.5,-336.5 110.5,-336.5"/>
<text text-anchor="middle" x="168" y="-343.5" font-family="Helvetica,sans-Serif" font-size="10.00">Framework/ArrayList.h</text>
</a>
</g>
</g>
<!-- Node13&#45;&gt;Node17 -->
<g id="edge28" class="edge"><title>Node13&#45;&gt;Node17</title>
<path fill="none" stroke="midnightblue" d="M384.429,-393.378C340.893,-384.048 266.914,-368.196 217.753,-357.661"/>
<polygon fill="midnightblue" stroke="midnightblue" points="218.475,-354.237 207.964,-355.564 217.009,-361.081 218.475,-354.237"/>
</g>
<!-- Node19 -->
<g id="node19" class="node"><title>Node19</title>
<g id="a_node19"><a xlink:href="_s_d_config_manager_8h.html" target="_top" xlink:title="Framework/SDConfigManager.h">
<polygon fill="white" stroke="black" points="396,-336.5 396,-355.5 550,-355.5 550,-336.5 396,-336.5"/>
<text text-anchor="middle" x="473" y="-343.5" font-family="Helvetica,sans-Serif" font-size="10.00">Framework/SDConfigManager.h</text>
</a>
</g>
</g>
<!-- Node13&#45;&gt;Node19 -->
<g id="edge31" class="edge"><title>Node13&#45;&gt;Node19</title>
<path fill="none" stroke="midnightblue" d="M428.752,-392.083C436.47,-384.22 447.905,-372.569 457.217,-363.081"/>
<polygon fill="midnightblue" stroke="midnightblue" points="459.904,-365.34 464.411,-355.751 454.908,-360.436 459.904,-365.34"/>
</g>
<!-- Node13&#45;&gt;Node4 -->
<g id="edge38" class="edge"><title>Node13&#45;&gt;Node4</title>
<path fill="none" stroke="midnightblue" d="M455.843,-393.733C458.938,-393.136 462.023,-392.55 465,-392 511.989,-383.313 646.168,-392.508 677,-356 682.735,-349.209 679.19,-344.615 677,-336 665.536,-290.897 648.036,-285.512 627,-244 608.622,-207.733 588.719,-164.474 577.975,-140.752"/>
<polygon fill="midnightblue" stroke="midnightblue" points="581.144,-139.266 573.841,-131.59 574.764,-142.145 581.144,-139.266"/>
</g>
<!-- Node13&#45;&gt;Node8 -->
<g id="edge39" class="edge"><title>Node13&#45;&gt;Node8</title>
<path fill="none" stroke="midnightblue" d="M455.824,-393.626C458.923,-393.051 462.014,-392.501 465,-392 523.611,-382.168 686.757,-396.767 730,-356 773.277,-315.202 771.379,-280.23 752,-224 739.941,-189.01 710.227,-156.87 690.875,-138.636"/>
<polygon fill="midnightblue" stroke="midnightblue" points="693.038,-135.871 683.297,-131.704 688.314,-141.036 693.038,-135.871"/>
</g>
<!-- Node16&#45;&gt;Node4 -->
<g id="edge27" class="edge"><title>Node16&#45;&gt;Node4</title>
<path fill="none" stroke="midnightblue" d="M681.329,-224.445C668.53,-211.88 643.746,-187.781 622,-168 610.96,-157.958 598.304,-146.994 588.241,-138.402"/>
<polygon fill="midnightblue" stroke="midnightblue" points="590.378,-135.625 580.492,-131.816 585.845,-140.959 590.378,-135.625"/>
</g>
<!-- Node18 -->
<g id="node18" class="node"><title>Node18</title>
<polygon fill="white" stroke="#bfbfbf" points="152.5,-280.5 152.5,-299.5 203.5,-299.5 203.5,-280.5 152.5,-280.5"/>
<text text-anchor="middle" x="178" y="-287.5" font-family="Helvetica,sans-Serif" font-size="10.00">stddef.h</text>
</g>
<!-- Node17&#45;&gt;Node18 -->
<g id="edge29" class="edge"><title>Node17&#45;&gt;Node18</title>
<path fill="none" stroke="midnightblue" d="M169.651,-336.083C170.976,-328.927 172.882,-318.635 174.539,-309.691"/>
<polygon fill="midnightblue" stroke="midnightblue" points="178,-310.221 176.379,-299.751 171.117,-308.947 178,-310.221"/>
</g>
<!-- Node17&#45;&gt;Node6 -->
<g id="edge30" class="edge"><title>Node17&#45;&gt;Node6</title>
<path fill="none" stroke="midnightblue" d="M161.882,-336.349C149.792,-318.377 124,-275.314 124,-235 124,-235 124,-235 124,-121 124,-77.7385 166.608,-43.0862 194.755,-24.9149"/>
<polygon fill="midnightblue" stroke="midnightblue" points="196.661,-27.851 203.313,-19.6042 192.97,-21.9032 196.661,-27.851"/>
</g>
<!-- Node20 -->
<g id="node20" class="node"><title>Node20</title>
<g id="a_node20"><a xlink:href="_config_manager_8h.html" target="_top" xlink:title="ConfigManager.h">
<polygon fill="white" stroke="black" points="510.5,-280.5 510.5,-299.5 599.5,-299.5 599.5,-280.5 510.5,-280.5"/>
<text text-anchor="middle" x="555" y="-287.5" font-family="Helvetica,sans-Serif" font-size="10.00">ConfigManager.h</text>
</a>
</g>
</g>
<!-- Node19&#45;&gt;Node20 -->
<g id="edge32" class="edge"><title>Node19&#45;&gt;Node20</title>
<path fill="none" stroke="midnightblue" d="M486.175,-336.324C498.847,-327.979 518.233,-315.212 533.206,-305.352"/>
<polygon fill="midnightblue" stroke="midnightblue" points="535.431,-308.078 541.858,-299.655 531.581,-302.231 535.431,-308.078"/>
</g>
<!-- Node20&#45;&gt;Node9 -->
<g id="edge33" class="edge"><title>Node20&#45;&gt;Node9</title>
<path fill="none" stroke="midnightblue" d="M564.64,-280.346C595.643,-252.427 692.318,-164.662 719,-132 731.226,-117.034 742.742,-98.1951 750.438,-84.6571"/>
<polygon fill="midnightblue" stroke="midnightblue" points="753.525,-86.3085 755.322,-75.8672 747.406,-82.9085 753.525,-86.3085"/>
</g>
<!-- Node20&#45;&gt;Node13 -->
<g id="edge34" class="edge"><title>Node20&#45;&gt;Node13</title>
<path fill="none" stroke="midnightblue" d="M558.675,-299.54C563.817,-312.958 571.237,-339.176 559,-356 553.111,-364.097 501.611,-379.324 463.003,-389.806"/>
<polygon fill="midnightblue" stroke="midnightblue" points="461.752,-386.518 453.003,-392.494 463.569,-393.278 461.752,-386.518"/>
</g>
<!-- Node20&#45;&gt;Node12 -->
<g id="edge35" class="edge"><title>Node20&#45;&gt;Node12</title>
<path fill="none" stroke="midnightblue" d="M530.123,-280.444C503.711,-271.359 461.785,-256.939 432.258,-246.783"/>
<polygon fill="midnightblue" stroke="midnightblue" points="433.355,-243.459 422.761,-243.516 431.079,-250.079 433.355,-243.459"/>
</g>
<!-- Node20&#45;&gt;Node3 -->
<g id="edge36" class="edge"><title>Node20&#45;&gt;Node3</title>
<path fill="none" stroke="midnightblue" d="M549.35,-280.368C537.468,-262.215 509.706,-219.802 494.121,-195.99"/>
<polygon fill="midnightblue" stroke="midnightblue" points="497.029,-194.042 488.623,-187.591 491.172,-197.875 497.029,-194.042"/>
</g>
<!-- Node20&#45;&gt;Node16 -->
<g id="edge37" class="edge"><title>Node20&#45;&gt;Node16</title>
<path fill="none" stroke="midnightblue" d="M576.391,-280.444C598.707,-271.517 633.903,-257.439 659.208,-247.317"/>
<polygon fill="midnightblue" stroke="midnightblue" points="660.724,-250.48 668.709,-243.516 658.124,-243.981 660.724,-250.48"/>
</g>
</g>
</svg>
        <g id="navigator" transform="translate(0 0)" fill="#404254">
                <rect fill="#f2f5e9" fill-opacity="0.5" stroke="#606060" stroke-width=".5" x="0" y="0" width="60" height="60"/>
                <use id="zoomplus" xlink:href="#zoomPlus" x="17" y="9" onmousedown="handleZoom(evt,'in')"/>
                <use id="zoomminus" xlink:href="#zoomMin" x="42" y="9" onmousedown="handleZoom(evt,'out')"/>
                <use id="reset" xlink:href="#resetDef" x="30" y="36" onmousedown="handleReset()"/>
                <g id="arrowUp" xlink:href="#dirArrow" transform="translate(30 24)" onmousedown="handlePan(0,-1)">
                  <use xlink:href="#rim" fill="#404040">
                        <set attributeName="fill" to="#808080" begin="arrowUp.mouseover" end="arrowUp.mouseout"/>
                  </use>
                  <path fill="none" stroke="white" stroke-width="1.5" d="M0,-3.0v7 M-2.5,-0.5L0,-3.0L2.5,-0.5"/>
                </g>
                <g id="arrowRight" xlink:href="#dirArrow" transform="rotate(90) translate(36 -43)" onmousedown="handlePan(1,0)">
                  <use xlink:href="#rim" fill="#404040">
                        <set attributeName="fill" to="#808080" begin="arrowRight.mouseover" end="arrowRight.mouseout"/>
                  </use>
                  <path fill="none" stroke="white" stroke-width="1.5" d="M0,-3.0v7 M-2.5,-0.5L0,-3.0L2.5,-0.5"/>
                </g>
                <g id="arrowDown" xlink:href="#dirArrow" transform="rotate(180) translate(-30 -48)" onmousedown="handlePan(0,1)">
                  <use xlink:href="#rim" fill="#404040">
                        <set attributeName="fill" to="#808080" begin="arrowDown.mouseover" end="arrowDown.mouseout"/>
                  </use>
                  <path fill="none" stroke="white" stroke-width="1.5" d="M0,-3.0v7 M-2.5,-0.5L0,-3.0L2.5,-0.5"/>
                </g>
                <g id="arrowLeft" xlink:href="#dirArrow" transform="rotate(270) translate(-36 17)" onmousedown="handlePan(-1,0)">
                  <use xlink:href="#rim" fill="#404040">
                        <set attributeName="fill" to="#808080" begin="arrowLeft.mouseover" end="arrowLeft.mouseout"/>
                  </use>
                  <path fill="none" stroke="white" stroke-width="1.5" d="M0,-3.0v7 M-2.5,-0.5L0,-3.0L2.5,-0.5"/>
                </g>
        </g>
        <svg viewBox="0 0 15 15" width="100%" height="30px" preserveAspectRatio="xMaxYMin meet">
         <g id="arrow_out" transform="scale(0.3 0.3)">
          <a xlink:href="_level_controller_8cpp__incl_org.svg" target="_base">
           <rect id="button" ry="5" rx="5" y="6" x="6" height="38" width="38"
                fill="#f2f5e9" fill-opacity="0.5" stroke="#606060" stroke-width="1.0"/>
           <path id="arrow"
             d="M 11.500037,31.436501 C 11.940474,20.09759 22.043105,11.32322 32.158766,21.979434 L 37.068811,17.246167 C 37.068811,17.246167 37.088388,32 37.088388,32 L 22.160133,31.978069 C 22.160133,31.978069 26.997745,27.140456 26.997745,27.140456 C 18.528582,18.264221 13.291696,25.230495 11.500037,31.436501 z"
             style="fill:#404040;"/>
          </a>
         </g>
        </svg>
</svg>
