<?xml version="1.0" encoding="UTF-8" standalone="no"?>
<!DOCTYPE svg PUBLIC "-//W3C//DTD SVG 1.1//EN"
 "http://www.w3.org/Graphics/SVG/1.1/DTD/svg11.dtd">
<!-- Generated by graphviz version 2.30.1 (20130214.1330)
 -->
<!-- Title: NTPSync Pages: 1 -->
<svg width="734pt" height="47pt"
 viewBox="0.00 0.00 734.00 47.00" xmlns="http://www.w3.org/2000/svg" xmlns:xlink="http://www.w3.org/1999/xlink">
<g id="graph0" class="graph" transform="scale(1 1) rotate(0) translate(4 43)">
<title>NTPSync</title>
<polygon fill="white" stroke="white" points="-4,5 -4,-43 731,-43 731,5 -4,5"/>
<!-- Node1 -->
<g id="node1" class="node"><title>Node1</title>
<polygon fill="#bfbfbf" stroke="black" points="0,-19.5 0,-38.5 58,-38.5 58,-19.5 0,-19.5"/>
<text text-anchor="middle" x="29" y="-26.5" font-family="Helvetica,sans-Serif" font-size="10.00">NTPSync</text>
</g>
<!-- Node2 -->
<g id="node2" class="node"><title>Node2</title>
<g id="a_node2"><a xlink:href="class_aquaduino.html#a2636dfe3b0c322dbbf46b70ab3929930" target="_top" xlink:title="Aquaduino::enableNTP">
<polygon fill="white" stroke="black" points="94,-19.5 94,-38.5 210,-38.5 210,-19.5 94,-19.5"/>
<text text-anchor="middle" x="152" y="-26.5" font-family="Helvetica,sans-Serif" font-size="10.00">Aquaduino::enableNTP</text>
</a>
</g>
</g>
<!-- Node1&#45;&gt;Node2 -->
<g id="edge1" class="edge"><title>Node1&#45;&gt;Node2</title>
<path fill="none" stroke="midnightblue" d="M68.0964,-29C76.3333,-29 85.2154,-29 93.9989,-29"/>
<polygon fill="midnightblue" stroke="midnightblue" points="68.064,-25.5001 58.064,-29 68.0639,-32.5001 68.064,-25.5001"/>
</g>
<!-- Node3 -->
<g id="node3" class="node"><title>Node3</title>
<g id="a_node3"><a xlink:href="_aquaduino_8cpp.html#a4fc01d736fe50cf5b977f755b675f11d" target="_top" xlink:title="setup">
<polygon fill="white" stroke="black" points="684.5,-19.5 684.5,-38.5 725.5,-38.5 725.5,-19.5 684.5,-19.5"/>
<text text-anchor="middle" x="705" y="-26.5" font-family="Helvetica,sans-Serif" font-size="10.00">setup</text>
</a>
</g>
</g>
<!-- Node2&#45;&gt;Node3 -->
<g id="edge2" class="edge"><title>Node2&#45;&gt;Node3</title>
<path fill="none" stroke="midnightblue" d="M220.417,-29C346.15,-29 610.388,-29 684.376,-29"/>
<polygon fill="midnightblue" stroke="midnightblue" points="220.149,-25.5001 210.149,-29 220.149,-32.5001 220.149,-25.5001"/>
</g>
<!-- Node4 -->
<g id="node4" class="node"><title>Node4</title>
<g id="a_node4"><a xlink:href="dispatch_8cpp.html#a57a05a1aa70f5b076936a72ec80f9db3" target="_top" xlink:title="configCmd">
<polygon fill="white" stroke="black" points="246,-0.5 246,-19.5 308,-19.5 308,-0.5 246,-0.5"/>
<text text-anchor="middle" x="277" y="-7.5" font-family="Helvetica,sans-Serif" font-size="10.00">configCmd</text>
</a>
</g>
</g>
<!-- Node2&#45;&gt;Node4 -->
<g id="edge3" class="edge"><title>Node2&#45;&gt;Node4</title>
<path fill="none" stroke="midnightblue" d="M220.277,-18.6076C229.196,-17.23 237.95,-15.8776 245.783,-14.6677"/>
<polygon fill="midnightblue" stroke="midnightblue" points="219.527,-15.1818 210.179,-20.1675 220.596,-22.0998 219.527,-15.1818"/>
</g>
<!-- Node5 -->
<g id="node5" class="node"><title>Node5</title>
<g id="a_node5"><a xlink:href="dispatch_8cpp.html#a0c9bf0c5f9946202d30b8743843e361a" target="_top" xlink:title="controllerDispatchCommand">
<polygon fill="white" stroke="black" points="344.5,-0.5 344.5,-19.5 483.5,-19.5 483.5,-0.5 344.5,-0.5"/>
<text text-anchor="middle" x="414" y="-7.5" font-family="Helvetica,sans-Serif" font-size="10.00">controllerDispatchCommand</text>
</a>
</g>
</g>
<!-- Node4&#45;&gt;Node5 -->
<g id="edge4" class="edge"><title>Node4&#45;&gt;Node5</title>
<path fill="none" stroke="midnightblue" d="M318.362,-10C326.621,-10 335.53,-10 344.463,-10"/>
<polygon fill="midnightblue" stroke="midnightblue" points="318.297,-6.5001 308.297,-10 318.297,-13.5001 318.297,-6.5001"/>
</g>
<!-- Node6 -->
<g id="node6" class="node"><title>Node6</title>
<g id="a_node6"><a xlink:href="class_aquaduino.html#a6f21b3e1fe7fd8b1c13d1e78372abed6" target="_top" xlink:title="Aquaduino::setWebserver">
<polygon fill="white" stroke="black" points="520,-0.5 520,-19.5 648,-19.5 648,-0.5 520,-0.5"/>
<text text-anchor="middle" x="584" y="-7.5" font-family="Helvetica,sans-Serif" font-size="10.00">Aquaduino::setWebserver</text>
</a>
</g>
</g>
<!-- Node5&#45;&gt;Node6 -->
<g id="edge5" class="edge"><title>Node5&#45;&gt;Node6</title>
<path fill="none" stroke="midnightblue" d="M493.987,-10C502.699,-10 511.482,-10 519.961,-10"/>
<polygon fill="midnightblue" stroke="midnightblue" points="493.817,-6.5001 483.817,-10 493.817,-13.5001 493.817,-6.5001"/>
</g>
<!-- Node6&#45;&gt;Node3 -->
<g id="edge6" class="edge"><title>Node6&#45;&gt;Node3</title>
<path fill="none" stroke="midnightblue" d="M654.894,-21.1595C665.733,-22.8901 676.097,-24.5449 684.487,-25.8845"/>
<polygon fill="midnightblue" stroke="midnightblue" points="655.275,-17.6762 644.849,-19.5557 654.172,-24.5886 655.275,-17.6762"/>
</g>
</g>
</svg>
