<?xml version="1.0" encoding="UTF-8" standalone="no"?>
<!DOCTYPE svg PUBLIC "-//W3C//DTD SVG 1.1//EN"
 "http://www.w3.org/Graphics/SVG/1.1/DTD/svg11.dtd">
<!-- Generated by graphviz version 2.30.1 (20130214.1330)
 -->
<!-- Title: Framework/ObjectTypes.h Pages: 1 -->
<!--zoomable 420 -->
<svg id="main" version="1.1" xmlns="http://www.w3.org/2000/svg" xmlns:xlink="http://www.w3.org/1999/xlink" xml:space="preserve" onload="init(evt)">
<style type="text/css"><![CDATA[
.edge:hover path { stroke: red; }
.edge:hover polygon { stroke: red; fill: red; }
]]></style>
<script type="text/javascript"><![CDATA[
var edges = document.getElementsByTagName('g');
if (edges && edges.length) {
  for (var i=0;i<edges.length;i++) {
    if (edges[i].id.substr(0,4)=='edge') {
      edges[i].setAttribute('class','edge');
    }
  }
}
]]></script>
        <defs>
                <circle id="rim" cx="0" cy="0" r="7"/>
                <circle id="rim2" cx="0" cy="0" r="3.5"/>
                <g id="zoomPlus">
                        <use xlink:href="#rim" fill="#404040">
                                <set attributeName="fill" to="#808080" begin="zoomplus.mouseover" end="zoomplus.mouseout"/>
                        </use>
                        <path d="M-4,0h8M0,-4v8" fill="none" stroke="white" stroke-width="1.5" pointer-events="none"/>
                </g>
                <g id="zoomMin">
                        <use xlink:href="#rim" fill="#404040">
                                <set attributeName="fill" to="#808080" begin="zoomminus.mouseover" end="zoomminus.mouseout"/>
                        </use>
                        <path d="M-4,0h8" fill="none" stroke="white" stroke-width="1.5" pointer-events="none"/>
                </g>
                <g id="dirArrow">
                        <path fill="none" stroke="white" stroke-width="1.5" d="M0,-3.0v7 M-2.5,-0.5L0,-3.0L2.5,-0.5"/>
                </g>
               <g id="resetDef">
                       <use xlink:href="#rim2" fill="#404040">
                               <set attributeName="fill" to="#808080" begin="reset.mouseover" end="reset.mouseout"/>
                       </use>
               </g>
        </defs>

<script type="text/javascript">
var viewWidth = 2209;
var viewHeight = 420;
var sectionId = 'dynsection-0';
</script>
<script xlink:href="svgpan.js"/>
<svg id="graph" class="graph">
<g id="viewport">
<title>Framework/ObjectTypes.h</title>
<polygon fill="white" stroke="white" points="-4,5 -4,-416 2206,-416 2206,5 -4,5"/>
<!-- Node1 -->
<g id="node1" class="node"><title>Node1</title>
<polygon fill="#bfbfbf" stroke="black" points="999.5,-392.5 999.5,-411.5 1130.5,-411.5 1130.5,-392.5 999.5,-392.5"/>
<text text-anchor="middle" x="1065" y="-399.5" font-family="Helvetica,sans-Serif" font-size="10.00">Framework/ObjectTypes.h</text>
</g>
<!-- Node2 -->
<g id="node2" class="node"><title>Node2</title>
<g id="a_node2"><a xlink:href="_object_8h.html" target="_top" xlink:title="Framework/Object.h">
<polygon fill="white" stroke="black" points="1013,-336.5 1013,-355.5 1117,-355.5 1117,-336.5 1013,-336.5"/>
<text text-anchor="middle" x="1065" y="-343.5" font-family="Helvetica,sans-Serif" font-size="10.00">Framework/Object.h</text>
</a>
</g>
</g>
<!-- Node1&#45;&gt;Node2 -->
<g id="edge1" class="edge"><title>Node1&#45;&gt;Node2</title>
<path fill="none" stroke="midnightblue" d="M1065,-381.805C1065,-372.91 1065,-362.78 1065,-355.751"/>
<polygon fill="midnightblue" stroke="midnightblue" points="1061.5,-382.083 1065,-392.083 1068.5,-382.083 1061.5,-382.083"/>
</g>
<!-- Node3 -->
<g id="node3" class="node"><title>Node3</title>
<g id="a_node3"><a xlink:href="_controller_8h.html" target="_top" xlink:title="Framework/Controller.h">
<polygon fill="white" stroke="black" points="713.5,-280.5 713.5,-299.5 830.5,-299.5 830.5,-280.5 713.5,-280.5"/>
<text text-anchor="middle" x="772" y="-287.5" font-family="Helvetica,sans-Serif" font-size="10.00">Framework/Controller.h</text>
</a>
</g>
</g>
<!-- Node2&#45;&gt;Node3 -->
<g id="edge2" class="edge"><title>Node2&#45;&gt;Node3</title>
<path fill="none" stroke="midnightblue" d="M1008.57,-334.601C953.201,-324.395 869.769,-309.019 818.21,-299.516"/>
<polygon fill="midnightblue" stroke="midnightblue" points="1008.1,-338.073 1018.57,-336.444 1009.37,-331.189 1008.1,-338.073"/>
</g>
<!-- Node18 -->
<g id="node18" class="node"><title>Node18</title>
<g id="a_node18"><a xlink:href="_actuator_8h.html" target="_top" xlink:title="Framework/Actuator.h">
<polygon fill="white" stroke="black" points="318.5,-224.5 318.5,-243.5 431.5,-243.5 431.5,-224.5 318.5,-224.5"/>
<text text-anchor="middle" x="375" y="-231.5" font-family="Helvetica,sans-Serif" font-size="10.00">Framework/Actuator.h</text>
</a>
</g>
</g>
<!-- Node2&#45;&gt;Node18 -->
<g id="edge42" class="edge"><title>Node2&#45;&gt;Node18</title>
<path fill="none" stroke="midnightblue" d="M1002.55,-338.578C930.43,-330.846 808.306,-316.783 704,-300 598.375,-283.005 474.879,-256.919 413.585,-243.549"/>
<polygon fill="midnightblue" stroke="midnightblue" points="1002.51,-342.094 1012.82,-339.673 1003.25,-335.133 1002.51,-342.094"/>
</g>
<!-- Node26 -->
<g id="node26" class="node"><title>Node26</title>
<g id="a_node26"><a xlink:href="_sensor_8h.html" target="_top" xlink:title="Framework/Sensor.h">
<polygon fill="white" stroke="black" points="1170.5,-224.5 1170.5,-243.5 1277.5,-243.5 1277.5,-224.5 1170.5,-224.5"/>
<text text-anchor="middle" x="1224" y="-231.5" font-family="Helvetica,sans-Serif" font-size="10.00">Framework/Sensor.h</text>
</a>
</g>
</g>
<!-- Node2&#45;&gt;Node26 -->
<g id="edge43" class="edge"><title>Node2&#45;&gt;Node26</title>
<path fill="none" stroke="midnightblue" d="M1076.69,-327.916C1087.2,-313.599 1103.74,-293.405 1122,-280 1144.78,-263.279 1174.75,-250.994 1196.3,-243.524"/>
<polygon fill="midnightblue" stroke="midnightblue" points="1073.64,-326.165 1070.71,-336.345 1079.35,-330.219 1073.64,-326.165"/>
</g>
<!-- Node4 -->
<g id="node4" class="node"><title>Node4</title>
<g id="a_node4"><a xlink:href="_aquaduino_8h.html" target="_top" xlink:title="Aquaduino.h">
<polygon fill="white" stroke="black" points="1132.5,-168.5 1132.5,-187.5 1203.5,-187.5 1203.5,-168.5 1132.5,-168.5"/>
<text text-anchor="middle" x="1168" y="-175.5" font-family="Helvetica,sans-Serif" font-size="10.00">Aquaduino.h</text>
</a>
</g>
</g>
<!-- Node2&#45;&gt;Node4 -->
<g id="edge53" class="edge"><title>Node2&#45;&gt;Node4</title>
<path fill="none" stroke="midnightblue" d="M1072.96,-326.96C1079.04,-313.691 1087.89,-295.368 1097,-280 1118.2,-244.231 1148.04,-204.672 1161.25,-187.609"/>
<polygon fill="midnightblue" stroke="midnightblue" points="1069.64,-325.809 1068.73,-336.365 1076.03,-328.68 1069.64,-325.809"/>
</g>
<!-- Node32 -->
<g id="node32" class="node"><title>Node32</title>
<g id="a_node32"><a xlink:href="_object_8cpp.html" target="_top" xlink:title="Framework/Object.cpp">
<polygon fill="white" stroke="black" points="1131.5,-280.5 1131.5,-299.5 1246.5,-299.5 1246.5,-280.5 1131.5,-280.5"/>
<text text-anchor="middle" x="1189" y="-287.5" font-family="Helvetica,sans-Serif" font-size="10.00">Framework/Object.cpp</text>
</a>
</g>
</g>
<!-- Node2&#45;&gt;Node32 -->
<g id="edge54" class="edge"><title>Node2&#45;&gt;Node32</title>
<path fill="none" stroke="midnightblue" d="M1094.01,-332.368C1117.23,-322.255 1149.16,-308.349 1169.44,-299.516"/>
<polygon fill="midnightblue" stroke="midnightblue" points="1092.42,-329.242 1084.65,-336.444 1095.21,-335.66 1092.42,-329.242"/>
</g>
<!-- Node3&#45;&gt;Node4 -->
<g id="edge3" class="edge"><title>Node3&#45;&gt;Node4</title>
<path fill="none" stroke="midnightblue" d="M812.388,-277.781C891.748,-255.737 1066.45,-207.207 1137.28,-187.535"/>
<polygon fill="midnightblue" stroke="midnightblue" points="811.442,-274.411 802.744,-280.46 813.316,-281.156 811.442,-274.411"/>
</g>
<!-- Node3&#45;&gt;Node18 -->
<g id="edge19" class="edge"><title>Node3&#45;&gt;Node18</title>
<path fill="none" stroke="midnightblue" d="M703.35,-279.662C626.434,-269.2 503.172,-252.434 431.567,-242.694"/>
<polygon fill="midnightblue" stroke="midnightblue" points="703.041,-283.152 713.421,-281.032 703.984,-276.216 703.041,-283.152"/>
</g>
<!-- Node6 -->
<g id="node6" class="node"><title>Node6</title>
<g id="a_node6"><a xlink:href="_config_manager_8h.html" target="_top" xlink:title="Framework/ConfigManager.h">
<polygon fill="white" stroke="black" points="310,-112.5 310,-131.5 450,-131.5 450,-112.5 310,-112.5"/>
<text text-anchor="middle" x="380" y="-119.5" font-family="Helvetica,sans-Serif" font-size="10.00">Framework/ConfigManager.h</text>
</a>
</g>
</g>
<!-- Node3&#45;&gt;Node6 -->
<g id="edge35" class="edge"><title>Node3&#45;&gt;Node6</title>
<path fill="none" stroke="midnightblue" d="M703.42,-281.704C629.977,-271.115 512.718,-245.966 429,-188 407.389,-173.037 391.315,-145.504 384.14,-131.566"/>
<polygon fill="midnightblue" stroke="midnightblue" points="703.098,-285.193 713.485,-283.103 704.062,-278.259 703.098,-285.193"/>
</g>
<!-- Node22 -->
<g id="node22" class="node"><title>Node22</title>
<g id="a_node22"><a xlink:href="_temperature_controller_8h.html" target="_top" xlink:title="Controller/TemperatureController.h">
<polygon fill="white" stroke="black" points="623,-168.5 623,-187.5 787,-187.5 787,-168.5 623,-168.5"/>
<text text-anchor="middle" x="705" y="-175.5" font-family="Helvetica,sans-Serif" font-size="10.00">Controller/TemperatureController.h</text>
</a>
</g>
</g>
<!-- Node3&#45;&gt;Node22 -->
<g id="edge36" class="edge"><title>Node3&#45;&gt;Node22</title>
<path fill="none" stroke="midnightblue" d="M761.426,-271.64C746.871,-247.744 721.219,-205.629 710.233,-187.591"/>
<polygon fill="midnightblue" stroke="midnightblue" points="758.551,-273.649 766.743,-280.368 764.53,-270.007 758.551,-273.649"/>
</g>
<!-- Node23 -->
<g id="node23" class="node"><title>Node23</title>
<g id="a_node23"><a xlink:href="_level_controller_8h.html" target="_top" xlink:title="Controller/LevelController.h">
<polygon fill="white" stroke="black" points="805,-168.5 805,-187.5 937,-187.5 937,-168.5 805,-168.5"/>
<text text-anchor="middle" x="871" y="-175.5" font-family="Helvetica,sans-Serif" font-size="10.00">Controller/LevelController.h</text>
</a>
</g>
</g>
<!-- Node3&#45;&gt;Node23 -->
<g id="edge37" class="edge"><title>Node3&#45;&gt;Node23</title>
<path fill="none" stroke="midnightblue" d="M786.493,-272.897C807.776,-249.249 846.746,-205.949 863.268,-187.591"/>
<polygon fill="midnightblue" stroke="midnightblue" points="783.857,-270.594 779.768,-280.368 789.06,-275.277 783.857,-270.594"/>
</g>
<!-- Node25 -->
<g id="node25" class="node"><title>Node25</title>
<g id="a_node25"><a xlink:href="_clock_timer_controller_8h.html" target="_top" xlink:title="Controller/ClockTimerController.h">
<polygon fill="white" stroke="black" points="955.5,-168.5 955.5,-187.5 1114.5,-187.5 1114.5,-168.5 955.5,-168.5"/>
<text text-anchor="middle" x="1035" y="-175.5" font-family="Helvetica,sans-Serif" font-size="10.00">Controller/ClockTimerController.h</text>
</a>
</g>
</g>
<!-- Node3&#45;&gt;Node25 -->
<g id="edge38" class="edge"><title>Node3&#45;&gt;Node25</title>
<path fill="none" stroke="midnightblue" d="M802.016,-276.446C856.028,-253.855 968.267,-206.911 1014.46,-187.591"/>
<polygon fill="midnightblue" stroke="midnightblue" points="800.512,-273.281 792.637,-280.368 803.213,-279.739 800.512,-273.281"/>
</g>
<!-- Node13 -->
<g id="node13" class="node"><title>Node13</title>
<g id="a_node13"><a xlink:href="_controller_8cpp.html" target="_top" xlink:title="Framework/Controller.cpp">
<polygon fill="white" stroke="black" points="164,-112.5 164,-131.5 292,-131.5 292,-112.5 164,-112.5"/>
<text text-anchor="middle" x="228" y="-119.5" font-family="Helvetica,sans-Serif" font-size="10.00">Framework/Controller.cpp</text>
</a>
</g>
</g>
<!-- Node3&#45;&gt;Node13 -->
<g id="edge41" class="edge"><title>Node3&#45;&gt;Node13</title>
<path fill="none" stroke="midnightblue" d="M703.058,-288.736C611.62,-286.934 445.833,-278.605 309,-244 246.82,-228.275 211.477,-241.432 176,-188 161.851,-166.69 192.126,-143.775 212.158,-131.662"/>
<polygon fill="midnightblue" stroke="midnightblue" points="703.233,-292.239 713.293,-288.916 703.356,-285.24 703.233,-292.239"/>
</g>
<!-- Node5 -->
<g id="node5" class="node"><title>Node5</title>
<g id="a_node5"><a xlink:href="_digital_output_8cpp.html" target="_top" xlink:title="Actuators/DigitalOutput.cpp">
<polygon fill="white" stroke="black" points="468.5,-112.5 468.5,-131.5 605.5,-131.5 605.5,-112.5 468.5,-112.5"/>
<text text-anchor="middle" x="537" y="-119.5" font-family="Helvetica,sans-Serif" font-size="10.00">Actuators/DigitalOutput.cpp</text>
</a>
</g>
</g>
<!-- Node4&#45;&gt;Node5 -->
<g id="edge4" class="edge"><title>Node4&#45;&gt;Node5</title>
<path fill="none" stroke="midnightblue" d="M1122.04,-168.052C896.498,-138.146 836.49,-152.86 614,-132 611.32,-131.749 608.589,-131.482 605.831,-131.203"/>
<polygon fill="midnightblue" stroke="midnightblue" points="1121.83,-171.556 1132.21,-169.416 1122.76,-164.618 1121.83,-171.556"/>
</g>
<!-- Node4&#45;&gt;Node6 -->
<g id="edge5" class="edge"><title>Node4&#45;&gt;Node6</title>
<path fill="none" stroke="midnightblue" d="M1122.11,-168.091C828.049,-131.498 750.2,-156.46 459,-132 456.111,-131.757 453.165,-131.494 450.19,-131.215"/>
<polygon fill="midnightblue" stroke="midnightblue" points="1121.86,-171.587 1132.21,-169.362 1122.73,-164.642 1121.86,-171.587"/>
</g>
<!-- Node9 -->
<g id="node9" class="node"><title>Node9</title>
<g id="a_node9"><a xlink:href="_aquaduino_8cpp.html" target="_top" xlink:title="Aquaduino.cpp">
<polygon fill="white" stroke="black" points="816.5,-112.5 816.5,-131.5 897.5,-131.5 897.5,-112.5 816.5,-112.5"/>
<text text-anchor="middle" x="857" y="-119.5" font-family="Helvetica,sans-Serif" font-size="10.00">Aquaduino.cpp</text>
</a>
</g>
</g>
<!-- Node4&#45;&gt;Node9 -->
<g id="edge9" class="edge"><title>Node4&#45;&gt;Node9</title>
<path fill="none" stroke="midnightblue" d="M1122.22,-167.908C1025.18,-150.294 999.199,-148.289 906,-132 903.274,-131.523 900.463,-131.025 897.632,-130.519"/>
<polygon fill="midnightblue" stroke="midnightblue" points="1121.69,-171.369 1132.16,-169.721 1122.95,-164.483 1121.69,-171.369"/>
</g>
<!-- Node10 -->
<g id="node10" class="node"><title>Node10</title>
<g id="a_node10"><a xlink:href="_clock_timer_controller_8cpp.html" target="_top" xlink:title="Controller/ClockTimerController.cpp">
<polygon fill="white" stroke="black" points="1077,-112.5 1077,-131.5 1247,-131.5 1247,-112.5 1077,-112.5"/>
<text text-anchor="middle" x="1162" y="-119.5" font-family="Helvetica,sans-Serif" font-size="10.00">Controller/ClockTimerController.cpp</text>
</a>
</g>
</g>
<!-- Node4&#45;&gt;Node10 -->
<g id="edge10" class="edge"><title>Node4&#45;&gt;Node10</title>
<path fill="none" stroke="midnightblue" d="M1165.9,-158.101C1164.9,-149.136 1163.76,-138.858 1162.97,-131.751"/>
<polygon fill="midnightblue" stroke="midnightblue" points="1162.43,-158.531 1167.01,-168.083 1169.38,-157.758 1162.43,-158.531"/>
</g>
<!-- Node11 -->
<g id="node11" class="node"><title>Node11</title>
<g id="a_node11"><a xlink:href="_level_controller_8cpp.html" target="_top" xlink:title="Controller/LevelController.cpp">
<polygon fill="white" stroke="black" points="915.5,-112.5 915.5,-131.5 1058.5,-131.5 1058.5,-112.5 915.5,-112.5"/>
<text text-anchor="middle" x="987" y="-119.5" font-family="Helvetica,sans-Serif" font-size="10.00">Controller/LevelController.cpp</text>
</a>
</g>
</g>
<!-- Node4&#45;&gt;Node11 -->
<g id="edge11" class="edge"><title>Node4&#45;&gt;Node11</title>
<path fill="none" stroke="midnightblue" d="M1129.68,-165.568C1095.54,-155.381 1046.34,-140.703 1015.55,-131.516"/>
<polygon fill="midnightblue" stroke="midnightblue" points="1128.74,-168.938 1139.32,-168.444 1130.74,-162.231 1128.74,-168.938"/>
</g>
<!-- Node12 -->
<g id="node12" class="node"><title>Node12</title>
<g id="a_node12"><a xlink:href="_temperature_controller_8cpp.html" target="_top" xlink:title="Controller/TemperatureController.cpp">
<polygon fill="white" stroke="black" points="623.5,-112.5 623.5,-131.5 798.5,-131.5 798.5,-112.5 623.5,-112.5"/>
<text text-anchor="middle" x="711" y="-119.5" font-family="Helvetica,sans-Serif" font-size="10.00">Controller/TemperatureController.cpp</text>
</a>
</g>
</g>
<!-- Node4&#45;&gt;Node12 -->
<g id="edge12" class="edge"><title>Node4&#45;&gt;Node12</title>
<path fill="none" stroke="midnightblue" d="M1122.22,-168.035C1047.77,-157.128 894.7,-141.283 797.438,-131.531"/>
<polygon fill="midnightblue" stroke="midnightblue" points="1121.78,-171.508 1132.19,-169.54 1122.82,-164.587 1121.78,-171.508"/>
</g>
<!-- Node4&#45;&gt;Node13 -->
<g id="edge13" class="edge"><title>Node4&#45;&gt;Node13</title>
<path fill="none" stroke="midnightblue" d="M1122.2,-168.121C758.241,-124.7 662.126,-162.122 301,-132 298.073,-131.756 295.083,-131.483 292.064,-131.188"/>
<polygon fill="midnightblue" stroke="midnightblue" points="1121.87,-171.606 1132.22,-169.328 1122.71,-164.657 1121.87,-171.606"/>
</g>
<!-- Node14 -->
<g id="node14" class="node"><title>Node14</title>
<g id="a_node14"><a xlink:href="_n_t_p_sync_8cpp.html" target="_top" xlink:title="Framework/NTPSync.cpp">
<polygon fill="white" stroke="black" points="1455,-112.5 1455,-131.5 1583,-131.5 1583,-112.5 1455,-112.5"/>
<text text-anchor="middle" x="1519" y="-119.5" font-family="Helvetica,sans-Serif" font-size="10.00">Framework/NTPSync.cpp</text>
</a>
</g>
</g>
<!-- Node4&#45;&gt;Node14 -->
<g id="edge14" class="edge"><title>Node4&#45;&gt;Node14</title>
<path fill="none" stroke="midnightblue" d="M1213.51,-167.811C1302.53,-152.361 1394.76,-139.385 1454.74,-131.349"/>
<polygon fill="midnightblue" stroke="midnightblue" points="1212.76,-164.388 1203.51,-169.558 1213.96,-171.284 1212.76,-164.388"/>
</g>
<!-- Node8 -->
<g id="node8" class="node"><title>Node8</title>
<g id="a_node8"><a xlink:href="_s_d_config_manager_8cpp.html" target="_top" xlink:title="Framework/SDConfigManager.cpp">
<polygon fill="white" stroke="black" points="1437,-0.5 1437,-19.5 1601,-19.5 1601,-0.5 1437,-0.5"/>
<text text-anchor="middle" x="1519" y="-7.5" font-family="Helvetica,sans-Serif" font-size="10.00">Framework/SDConfigManager.cpp</text>
</a>
</g>
</g>
<!-- Node4&#45;&gt;Node8 -->
<g id="edge15" class="edge"><title>Node4&#45;&gt;Node8</title>
<path fill="none" stroke="midnightblue" d="M1213.96,-168.189C1285.81,-161.822 1564.96,-161.717 1592,-132 1625.51,-95.1601 1559.97,-40.6612 1531.4,-19.6743"/>
<polygon fill="midnightblue" stroke="midnightblue" points="1213.51,-164.717 1203.96,-169.317 1214.29,-171.673 1213.51,-164.717"/>
</g>
<!-- Node15 -->
<g id="node15" class="node"><title>Node15</title>
<g id="a_node15"><a xlink:href="configweb_8cpp.html" target="_top" xlink:title="Webinterface/configweb.cpp">
<polygon fill="white" stroke="black" points="1639,-112.5 1639,-131.5 1777,-131.5 1777,-112.5 1639,-112.5"/>
<text text-anchor="middle" x="1708" y="-119.5" font-family="Helvetica,sans-Serif" font-size="10.00">Webinterface/configweb.cpp</text>
</a>
</g>
</g>
<!-- Node4&#45;&gt;Node15 -->
<g id="edge16" class="edge"><title>Node4&#45;&gt;Node15</title>
<path fill="none" stroke="midnightblue" d="M1213.87,-167.862C1396.04,-141.783 1444.85,-149.617 1625,-132 1629.47,-131.563 1634.08,-131.099 1638.72,-130.623"/>
<polygon fill="midnightblue" stroke="midnightblue" points="1213.36,-164.399 1203.96,-169.294 1214.36,-171.327 1213.36,-164.399"/>
</g>
<!-- Node16 -->
<g id="node16" class="node"><title>Node16</title>
<g id="a_node16"><a xlink:href="dispatch_8cpp.html" target="_top" xlink:title="Webinterface/dispatch.cpp">
<polygon fill="white" stroke="black" points="1795,-112.5 1795,-131.5 1927,-131.5 1927,-112.5 1795,-112.5"/>
<text text-anchor="middle" x="1861" y="-119.5" font-family="Helvetica,sans-Serif" font-size="10.00">Webinterface/dispatch.cpp</text>
</a>
</g>
</g>
<!-- Node4&#45;&gt;Node16 -->
<g id="edge17" class="edge"><title>Node4&#45;&gt;Node16</title>
<path fill="none" stroke="midnightblue" d="M1214.19,-167.87C1467.16,-134.851 1534.8,-154.931 1786,-132 1788.87,-131.738 1791.81,-131.454 1794.77,-131.155"/>
<polygon fill="midnightblue" stroke="midnightblue" points="1213.4,-164.443 1203.95,-169.222 1214.32,-171.383 1213.4,-164.443"/>
</g>
<!-- Node17 -->
<g id="node17" class="node"><title>Node17</title>
<g id="a_node17"><a xlink:href="mainweb_8cpp.html" target="_top" xlink:title="Webinterface/mainweb.cpp">
<polygon fill="white" stroke="black" points="1265,-112.5 1265,-131.5 1399,-131.5 1399,-112.5 1265,-112.5"/>
<text text-anchor="middle" x="1332" y="-119.5" font-family="Helvetica,sans-Serif" font-size="10.00">Webinterface/mainweb.cpp</text>
</a>
</g>
</g>
<!-- Node4&#45;&gt;Node17 -->
<g id="edge18" class="edge"><title>Node4&#45;&gt;Node17</title>
<path fill="none" stroke="midnightblue" d="M1203.52,-165.304C1234.42,-155.129 1278.47,-140.625 1306.14,-131.516"/>
<polygon fill="midnightblue" stroke="midnightblue" points="1202.39,-161.992 1193.99,-168.444 1204.58,-168.64 1202.39,-161.992"/>
</g>
<!-- Node7 -->
<g id="node7" class="node"><title>Node7</title>
<g id="a_node7"><a xlink:href="_s_d_config_manager_8h.html" target="_top" xlink:title="Framework/SDConfigManager.h">
<polygon fill="white" stroke="black" points="1350,-56.5 1350,-75.5 1504,-75.5 1504,-56.5 1350,-56.5"/>
<text text-anchor="middle" x="1427" y="-63.5" font-family="Helvetica,sans-Serif" font-size="10.00">Framework/SDConfigManager.h</text>
</a>
</g>
</g>
<!-- Node6&#45;&gt;Node7 -->
<g id="edge6" class="edge"><title>Node6&#45;&gt;Node7</title>
<path fill="none" stroke="midnightblue" d="M460.652,-111.923C797.879,-85.2458 1187.19,-73.0767 1349.72,-68.835"/>
<polygon fill="midnightblue" stroke="midnightblue" points="459.878,-108.474 450.188,-112.757 460.434,-115.452 459.878,-108.474"/>
</g>
<!-- Node7&#45;&gt;Node4 -->
<g id="edge7" class="edge"><title>Node7&#45;&gt;Node4</title>
<path fill="none" stroke="midnightblue" d="M1426.61,-85.6561C1425.26,-100.382 1420.94,-120.327 1408,-132 1342.24,-191.329 1298.95,-151.125 1212,-168 1209.24,-168.535 1206.39,-169.097 1203.53,-169.669"/>
<polygon fill="midnightblue" stroke="midnightblue" points="1430.11,-85.8115 1427.16,-75.6363 1423.12,-85.4316 1430.11,-85.8115"/>
</g>
<!-- Node7&#45;&gt;Node8 -->
<g id="edge8" class="edge"><title>Node7&#45;&gt;Node8</title>
<path fill="none" stroke="midnightblue" d="M1450.55,-51.1774C1467.48,-41.2407 1489.78,-28.1492 1504.26,-19.6545"/>
<polygon fill="midnightblue" stroke="midnightblue" points="1448.63,-48.2435 1441.78,-56.324 1452.18,-54.2804 1448.63,-48.2435"/>
</g>
<!-- Node18&#45;&gt;Node4 -->
<g id="edge20" class="edge"><title>Node18&#45;&gt;Node4</title>
<path fill="none" stroke="midnightblue" d="M441.827,-232.052C572.966,-229.514 873.021,-220.362 1123,-188 1126,-187.611 1129.11,-187.14 1132.21,-186.618"/>
<polygon fill="midnightblue" stroke="midnightblue" points="441.482,-228.558 431.549,-232.244 441.613,-235.557 441.482,-228.558"/>
</g>
<!-- Node18&#45;&gt;Node6 -->
<g id="edge21" class="edge"><title>Node18&#45;&gt;Node6</title>
<path fill="none" stroke="midnightblue" d="M375.848,-214.348C376.943,-190.254 378.804,-149.308 379.609,-131.591"/>
<polygon fill="midnightblue" stroke="midnightblue" points="372.35,-214.22 375.392,-224.368 379.343,-214.538 372.35,-214.22"/>
</g>
<!-- Node19 -->
<g id="node19" class="node"><title>Node19</title>
<g id="a_node19"><a xlink:href="_digital_output_8h.html" target="_top" xlink:title="Actuators/DigitalOutput.h">
<polygon fill="white" stroke="black" points="479,-168.5 479,-187.5 605,-187.5 605,-168.5 479,-168.5"/>
<text text-anchor="middle" x="542" y="-175.5" font-family="Helvetica,sans-Serif" font-size="10.00">Actuators/DigitalOutput.h</text>
</a>
</g>
</g>
<!-- Node18&#45;&gt;Node19 -->
<g id="edge22" class="edge"><title>Node18&#45;&gt;Node19</title>
<path fill="none" stroke="midnightblue" d="M411.17,-221.304C442.637,-211.129 487.494,-196.625 515.662,-187.516"/>
<polygon fill="midnightblue" stroke="midnightblue" points="409.9,-218.037 401.462,-224.444 412.053,-224.697 409.9,-218.037"/>
</g>
<!-- Node20 -->
<g id="node20" class="node"><title>Node20</title>
<g id="a_node20"><a xlink:href="_p_w_m_output_8h.html" target="_top" xlink:title="Actuators/PWMOutput.h">
<polygon fill="white" stroke="black" points="5,-168.5 5,-187.5 129,-187.5 129,-168.5 5,-168.5"/>
<text text-anchor="middle" x="67" y="-175.5" font-family="Helvetica,sans-Serif" font-size="10.00">Actuators/PWMOutput.h</text>
</a>
</g>
</g>
<!-- Node18&#45;&gt;Node20 -->
<g id="edge25" class="edge"><title>Node18&#45;&gt;Node20</title>
<path fill="none" stroke="midnightblue" d="M316.048,-222.664C257.841,-212.459 169.887,-197.039 115.575,-187.516"/>
<polygon fill="midnightblue" stroke="midnightblue" points="315.742,-226.164 326.196,-224.444 316.951,-219.269 315.742,-226.164"/>
</g>
<!-- Node18&#45;&gt;Node22 -->
<g id="edge27" class="edge"><title>Node18&#45;&gt;Node22</title>
<path fill="none" stroke="midnightblue" d="M437.39,-222.791C499.746,-212.587 594.523,-197.078 652.955,-187.516"/>
<polygon fill="midnightblue" stroke="midnightblue" points="436.593,-219.375 427.289,-224.444 437.723,-226.283 436.593,-219.375"/>
</g>
<!-- Node18&#45;&gt;Node23 -->
<g id="edge30" class="edge"><title>Node18&#45;&gt;Node23</title>
<path fill="none" stroke="midnightblue" d="M441.597,-226.15C524.617,-217.55 670.847,-202.197 796,-188 798.867,-187.675 801.795,-187.339 804.752,-186.997"/>
<polygon fill="midnightblue" stroke="midnightblue" points="441.131,-222.68 431.545,-227.191 441.852,-229.643 441.131,-222.68"/>
</g>
<!-- Node24 -->
<g id="node24" class="node"><title>Node24</title>
<g id="a_node24"><a xlink:href="_actuator_8cpp.html" target="_top" xlink:title="Framework/Actuator.cpp">
<polygon fill="white" stroke="black" points="185.5,-168.5 185.5,-187.5 308.5,-187.5 308.5,-168.5 185.5,-168.5"/>
<text text-anchor="middle" x="247" y="-175.5" font-family="Helvetica,sans-Serif" font-size="10.00">Framework/Actuator.cpp</text>
</a>
</g>
</g>
<!-- Node18&#45;&gt;Node24 -->
<g id="edge33" class="edge"><title>Node18&#45;&gt;Node24</title>
<path fill="none" stroke="midnightblue" d="M345.377,-220.503C321.381,-210.38 288.216,-196.388 267.187,-187.516"/>
<polygon fill="midnightblue" stroke="midnightblue" points="344.144,-223.781 354.718,-224.444 346.865,-217.332 344.144,-223.781"/>
</g>
<!-- Node18&#45;&gt;Node13 -->
<g id="edge34" class="edge"><title>Node18&#45;&gt;Node13</title>
<path fill="none" stroke="midnightblue" d="M362.858,-216.171C352.02,-202.013 335.101,-181.909 317,-168 296.407,-152.175 269.39,-139.446 250.548,-131.617"/>
<polygon fill="midnightblue" stroke="midnightblue" points="360.274,-218.561 369.053,-224.491 365.888,-214.38 360.274,-218.561"/>
</g>
<!-- Node19&#45;&gt;Node5 -->
<g id="edge23" class="edge"><title>Node19&#45;&gt;Node5</title>
<path fill="none" stroke="midnightblue" d="M540.25,-158.101C539.42,-149.136 538.468,-138.858 537.81,-131.751"/>
<polygon fill="midnightblue" stroke="midnightblue" points="536.767,-158.448 541.174,-168.083 543.737,-157.803 536.767,-158.448"/>
</g>
<!-- Node19&#45;&gt;Node9 -->
<g id="edge24" class="edge"><title>Node19&#45;&gt;Node9</title>
<path fill="none" stroke="midnightblue" d="M603.372,-166.755C657.101,-157.744 737.257,-144.198 807,-132 810.041,-131.468 813.185,-130.913 816.347,-130.352"/>
<polygon fill="midnightblue" stroke="midnightblue" points="602.607,-163.334 593.323,-168.439 603.764,-170.238 602.607,-163.334"/>
</g>
<!-- Node21 -->
<g id="node21" class="node"><title>Node21</title>
<g id="a_node21"><a xlink:href="_p_w_m_output_8cpp.html" target="_top" xlink:title="Actuators/PWMOutput.cpp">
<polygon fill="white" stroke="black" points="0,-112.5 0,-131.5 134,-131.5 134,-112.5 0,-112.5"/>
<text text-anchor="middle" x="67" y="-119.5" font-family="Helvetica,sans-Serif" font-size="10.00">Actuators/PWMOutput.cpp</text>
</a>
</g>
</g>
<!-- Node20&#45;&gt;Node21 -->
<g id="edge26" class="edge"><title>Node20&#45;&gt;Node21</title>
<path fill="none" stroke="midnightblue" d="M67,-157.805C67,-148.91 67,-138.78 67,-131.751"/>
<polygon fill="midnightblue" stroke="midnightblue" points="63.5001,-158.083 67,-168.083 70.5001,-158.083 63.5001,-158.083"/>
</g>
<!-- Node22&#45;&gt;Node9 -->
<g id="edge28" class="edge"><title>Node22&#45;&gt;Node9</title>
<path fill="none" stroke="midnightblue" d="M738.668,-165.039C767.268,-154.879 807.612,-140.546 833.028,-131.516"/>
<polygon fill="midnightblue" stroke="midnightblue" points="737.336,-161.798 729.085,-168.444 739.68,-168.394 737.336,-161.798"/>
</g>
<!-- Node22&#45;&gt;Node12 -->
<g id="edge29" class="edge"><title>Node22&#45;&gt;Node12</title>
<path fill="none" stroke="midnightblue" d="M707.1,-158.101C708.096,-149.136 709.238,-138.858 710.028,-131.751"/>
<polygon fill="midnightblue" stroke="midnightblue" points="703.617,-157.758 705.991,-168.083 710.574,-158.531 703.617,-157.758"/>
</g>
<!-- Node23&#45;&gt;Node9 -->
<g id="edge31" class="edge"><title>Node23&#45;&gt;Node9</title>
<path fill="none" stroke="midnightblue" d="M866.177,-158.396C863.835,-149.362 861.132,-138.936 859.269,-131.751"/>
<polygon fill="midnightblue" stroke="midnightblue" points="862.79,-159.281 868.688,-168.083 869.566,-157.525 862.79,-159.281"/>
</g>
<!-- Node23&#45;&gt;Node11 -->
<g id="edge32" class="edge"><title>Node23&#45;&gt;Node11</title>
<path fill="none" stroke="midnightblue" d="M898.72,-164.096C920.392,-154.007 949.902,-140.27 968.705,-131.516"/>
<polygon fill="midnightblue" stroke="midnightblue" points="896.969,-161.05 889.381,-168.444 899.923,-167.396 896.969,-161.05"/>
</g>
<!-- Node25&#45;&gt;Node9 -->
<g id="edge39" class="edge"><title>Node25&#45;&gt;Node9</title>
<path fill="none" stroke="midnightblue" d="M996.883,-165.436C963.322,-155.255 915.226,-140.664 885.073,-131.516"/>
<polygon fill="midnightblue" stroke="midnightblue" points="996.21,-168.89 1006.8,-168.444 998.242,-162.191 996.21,-168.89"/>
</g>
<!-- Node25&#45;&gt;Node10 -->
<g id="edge40" class="edge"><title>Node25&#45;&gt;Node10</title>
<path fill="none" stroke="midnightblue" d="M1064.39,-164.503C1088.2,-154.38 1121.11,-140.388 1141.97,-131.516"/>
<polygon fill="midnightblue" stroke="midnightblue" points="1062.96,-161.31 1055.12,-168.444 1065.7,-167.751 1062.96,-161.31"/>
</g>
<!-- Node26&#45;&gt;Node4 -->
<g id="edge44" class="edge"><title>Node26&#45;&gt;Node4</title>
<path fill="none" stroke="midnightblue" d="M1207.67,-217.253C1197.74,-207.673 1185.41,-195.791 1177.16,-187.834"/>
<polygon fill="midnightblue" stroke="midnightblue" points="1205.37,-219.902 1215,-224.324 1210.23,-214.863 1205.37,-219.902"/>
</g>
<!-- Node26&#45;&gt;Node6 -->
<g id="edge45" class="edge"><title>Node26&#45;&gt;Node6</title>
<path fill="none" stroke="midnightblue" d="M1160.37,-233.735C1002.49,-234.839 596.378,-233.067 470,-188 435.87,-175.829 403.331,-146.479 388.453,-131.746"/>
<polygon fill="midnightblue" stroke="midnightblue" points="1160.44,-237.235 1170.41,-233.659 1160.38,-230.235 1160.44,-237.235"/>
</g>
<!-- Node27 -->
<g id="node27" class="node"><title>Node27</title>
<g id="a_node27"><a xlink:href="_d_s18_s20_8h.html" target="_top" xlink:title="Sensors/DS18S20.h">
<polygon fill="white" stroke="black" points="1356.5,-168.5 1356.5,-187.5 1461.5,-187.5 1461.5,-168.5 1356.5,-168.5"/>
<text text-anchor="middle" x="1409" y="-175.5" font-family="Helvetica,sans-Serif" font-size="10.00">Sensors/DS18S20.h</text>
</a>
</g>
</g>
<!-- Node26&#45;&gt;Node27 -->
<g id="edge46" class="edge"><title>Node26&#45;&gt;Node27</title>
<path fill="none" stroke="midnightblue" d="M1263.17,-221.568C1298.07,-211.381 1348.35,-196.703 1379.82,-187.516"/>
<polygon fill="midnightblue" stroke="midnightblue" points="1261.93,-218.282 1253.31,-224.444 1263.89,-225.001 1261.93,-218.282"/>
</g>
<!-- Node29 -->
<g id="node29" class="node"><title>Node29</title>
<g id="a_node29"><a xlink:href="_digital_input_8h.html" target="_top" xlink:title="Sensors/DigitalInput.h">
<polygon fill="white" stroke="black" points="1480,-168.5 1480,-187.5 1592,-187.5 1592,-168.5 1480,-168.5"/>
<text text-anchor="middle" x="1536" y="-175.5" font-family="Helvetica,sans-Serif" font-size="10.00">Sensors/DigitalInput.h</text>
</a>
</g>
</g>
<!-- Node26&#45;&gt;Node29 -->
<g id="edge49" class="edge"><title>Node26&#45;&gt;Node29</title>
<path fill="none" stroke="midnightblue" d="M1283.35,-222.727C1342.31,-212.523 1431.66,-197.058 1486.79,-187.516"/>
<polygon fill="midnightblue" stroke="midnightblue" points="1282.69,-219.289 1273.44,-224.444 1283.89,-226.187 1282.69,-219.289"/>
</g>
<!-- Node31 -->
<g id="node31" class="node"><title>Node31</title>
<g id="a_node31"><a xlink:href="_sensor_8cpp.html" target="_top" xlink:title="Framework/Sensor.cpp">
<polygon fill="white" stroke="black" points="1221.5,-168.5 1221.5,-187.5 1338.5,-187.5 1338.5,-168.5 1221.5,-168.5"/>
<text text-anchor="middle" x="1280" y="-175.5" font-family="Helvetica,sans-Serif" font-size="10.00">Framework/Sensor.cpp</text>
</a>
</g>
</g>
<!-- Node26&#45;&gt;Node31 -->
<g id="edge52" class="edge"><title>Node26&#45;&gt;Node31</title>
<path fill="none" stroke="midnightblue" d="M1240.33,-217.253C1250.26,-207.673 1262.59,-195.791 1270.84,-187.834"/>
<polygon fill="midnightblue" stroke="midnightblue" points="1237.77,-214.863 1233,-224.324 1242.63,-219.902 1237.77,-214.863"/>
</g>
<!-- Node27&#45;&gt;Node9 -->
<g id="edge47" class="edge"><title>Node27&#45;&gt;Node9</title>
<path fill="none" stroke="midnightblue" d="M1346.2,-167.986C1149.88,-146.25 1097.72,-157.367 906,-132 903.256,-131.637 900.433,-131.224 897.592,-130.779"/>
<polygon fill="midnightblue" stroke="midnightblue" points="1345.94,-171.479 1356.26,-169.115 1346.72,-164.522 1345.94,-171.479"/>
</g>
<!-- Node28 -->
<g id="node28" class="node"><title>Node28</title>
<g id="a_node28"><a xlink:href="_d_s18_s20_8cpp.html" target="_top" xlink:title="Sensors/DS18S20.cpp">
<polygon fill="white" stroke="black" points="1945,-112.5 1945,-131.5 2061,-131.5 2061,-112.5 1945,-112.5"/>
<text text-anchor="middle" x="2003" y="-119.5" font-family="Helvetica,sans-Serif" font-size="10.00">Sensors/DS18S20.cpp</text>
</a>
</g>
</g>
<!-- Node27&#45;&gt;Node28 -->
<g id="edge48" class="edge"><title>Node27&#45;&gt;Node28</title>
<path fill="none" stroke="midnightblue" d="M1471.71,-167.999C1678.71,-145.363 1733.09,-153.466 1936,-132 1938.92,-131.691 1941.9,-131.357 1944.92,-131.005"/>
<polygon fill="midnightblue" stroke="midnightblue" points="1471.29,-164.524 1461.73,-169.1 1472.06,-171.481 1471.29,-164.524"/>
</g>
<!-- Node29&#45;&gt;Node9 -->
<g id="edge50" class="edge"><title>Node29&#45;&gt;Node9</title>
<path fill="none" stroke="midnightblue" d="M1469.69,-168.059C1218.33,-143.527 1152,-162.336 906,-132 903.253,-131.661 900.427,-131.267 897.585,-130.835"/>
<polygon fill="midnightblue" stroke="midnightblue" points="1469.57,-171.564 1479.86,-169.066 1470.26,-164.598 1469.57,-171.564"/>
</g>
<!-- Node30 -->
<g id="node30" class="node"><title>Node30</title>
<g id="a_node30"><a xlink:href="_digital_input_8cpp.html" target="_top" xlink:title="Sensors/DigitalInput.cpp">
<polygon fill="white" stroke="black" points="2079,-112.5 2079,-131.5 2201,-131.5 2201,-112.5 2079,-112.5"/>
<text text-anchor="middle" x="2140" y="-119.5" font-family="Helvetica,sans-Serif" font-size="10.00">Sensors/DigitalInput.cpp</text>
</a>
</g>
</g>
<!-- Node29&#45;&gt;Node30 -->
<g id="edge51" class="edge"><title>Node29&#45;&gt;Node30</title>
<path fill="none" stroke="midnightblue" d="M1602.26,-172.354C1703.29,-165.058 1901.85,-149.886 2070,-132 2072.92,-131.689 2075.92,-131.357 2078.94,-131.011"/>
<polygon fill="midnightblue" stroke="midnightblue" points="1601.92,-168.869 1592.2,-173.078 1602.43,-175.851 1601.92,-168.869"/>
</g>
</g>
</svg>
        <g id="navigator" transform="translate(0 0)" fill="#404254">
                <rect fill="#f2f5e9" fill-opacity="0.5" stroke="#606060" stroke-width=".5" x="0" y="0" width="60" height="60"/>
                <use id="zoomplus" xlink:href="#zoomPlus" x="17" y="9" onmousedown="handleZoom(evt,'in')"/>
                <use id="zoomminus" xlink:href="#zoomMin" x="42" y="9" onmousedown="handleZoom(evt,'out')"/>
                <use id="reset" xlink:href="#resetDef" x="30" y="36" onmousedown="handleReset()"/>
                <g id="arrowUp" xlink:href="#dirArrow" transform="translate(30 24)" onmousedown="handlePan(0,-1)">
                  <use xlink:href="#rim" fill="#404040">
                        <set attributeName="fill" to="#808080" begin="arrowUp.mouseover" end="arrowUp.mouseout"/>
                  </use>
                  <path fill="none" stroke="white" stroke-width="1.5" d="M0,-3.0v7 M-2.5,-0.5L0,-3.0L2.5,-0.5"/>
                </g>
                <g id="arrowRight" xlink:href="#dirArrow" transform="rotate(90) translate(36 -43)" onmousedown="handlePan(1,0)">
                  <use xlink:href="#rim" fill="#404040">
                        <set attributeName="fill" to="#808080" begin="arrowRight.mouseover" end="arrowRight.mouseout"/>
                  </use>
                  <path fill="none" stroke="white" stroke-width="1.5" d="M0,-3.0v7 M-2.5,-0.5L0,-3.0L2.5,-0.5"/>
                </g>
                <g id="arrowDown" xlink:href="#dirArrow" transform="rotate(180) translate(-30 -48)" onmousedown="handlePan(0,1)">
                  <use xlink:href="#rim" fill="#404040">
                        <set attributeName="fill" to="#808080" begin="arrowDown.mouseover" end="arrowDown.mouseout"/>
                  </use>
                  <path fill="none" stroke="white" stroke-width="1.5" d="M0,-3.0v7 M-2.5,-0.5L0,-3.0L2.5,-0.5"/>
                </g>
                <g id="arrowLeft" xlink:href="#dirArrow" transform="rotate(270) translate(-36 17)" onmousedown="handlePan(-1,0)">
                  <use xlink:href="#rim" fill="#404040">
                        <set attributeName="fill" to="#808080" begin="arrowLeft.mouseover" end="arrowLeft.mouseout"/>
                  </use>
                  <path fill="none" stroke="white" stroke-width="1.5" d="M0,-3.0v7 M-2.5,-0.5L0,-3.0L2.5,-0.5"/>
                </g>
        </g>
        <svg viewBox="0 0 15 15" width="100%" height="30px" preserveAspectRatio="xMaxYMin meet">
         <g id="arrow_out" transform="scale(0.3 0.3)">
          <a xlink:href="_object_types_8h__dep__incl_org.svg" target="_base">
           <rect id="button" ry="5" rx="5" y="6" x="6" height="38" width="38"
                fill="#f2f5e9" fill-opacity="0.5" stroke="#606060" stroke-width="1.0"/>
           <path id="arrow"
             d="M 11.500037,31.436501 C 11.940474,20.09759 22.043105,11.32322 32.158766,21.979434 L 37.068811,17.246167 C 37.068811,17.246167 37.088388,32 37.088388,32 L 22.160133,31.978069 C 22.160133,31.978069 26.997745,27.140456 26.997745,27.140456 C 18.528582,18.264221 13.291696,25.230495 11.500037,31.436501 z"
             style="fill:#404040;"/>
          </a>
         </g>
        </svg>
</svg>
