<?xml version="1.0" encoding="UTF-8" standalone="no"?>
<!DOCTYPE svg PUBLIC "-//W3C//DTD SVG 1.1//EN"
 "http://www.w3.org/Graphics/SVG/1.1/DTD/svg11.dtd">
<!-- Generated by graphviz version 2.30.1 (20130214.1330)
 -->
<!-- Title: Actuators/PWMOutput.cpp Pages: 1 -->
<svg width="497pt" height="364pt"
 viewBox="0.00 0.00 497.00 364.00" xmlns="http://www.w3.org/2000/svg" xmlns:xlink="http://www.w3.org/1999/xlink">
<g id="graph0" class="graph" transform="scale(1 1) rotate(0) translate(4 360)">
<title>Actuators/PWMOutput.cpp</title>
<polygon fill="white" stroke="white" points="-4,5 -4,-360 494,-360 494,5 -4,5"/>
<!-- Node1 -->
<g id="node1" class="node"><title>Node1</title>
<polygon fill="#bfbfbf" stroke="black" points="347,-336.5 347,-355.5 481,-355.5 481,-336.5 347,-336.5"/>
<text text-anchor="middle" x="414" y="-343.5" font-family="Helvetica,sans-Serif" font-size="10.00">Actuators/PWMOutput.cpp</text>
</g>
<!-- Node2 -->
<g id="node2" class="node"><title>Node2</title>
<g id="a_node2"><a xlink:href="_p_w_m_output_8h.html" target="_top" xlink:title="PWMOutput.h">
<polygon fill="white" stroke="black" points="299.5,-280.5 299.5,-299.5 378.5,-299.5 378.5,-280.5 299.5,-280.5"/>
<text text-anchor="middle" x="339" y="-287.5" font-family="Helvetica,sans-Serif" font-size="10.00">PWMOutput.h</text>
</a>
</g>
</g>
<!-- Node1&#45;&gt;Node2 -->
<g id="edge1" class="edge"><title>Node1&#45;&gt;Node2</title>
<path fill="none" stroke="midnightblue" d="M401.95,-336.324C390.537,-328.107 373.169,-315.602 359.565,-305.807"/>
<polygon fill="midnightblue" stroke="midnightblue" points="361.43,-302.837 351.269,-299.834 357.34,-308.517 361.43,-302.837"/>
</g>
<!-- Node10 -->
<g id="node10" class="node"><title>Node10</title>
<polygon fill="white" stroke="#bfbfbf" points="427,-56.5 427,-75.5 485,-75.5 485,-56.5 427,-56.5"/>
<text text-anchor="middle" x="456" y="-63.5" font-family="Helvetica,sans-Serif" font-size="10.00">Arduino.h</text>
</g>
<!-- Node1&#45;&gt;Node10 -->
<g id="edge18" class="edge"><title>Node1&#45;&gt;Node10</title>
<path fill="none" stroke="midnightblue" d="M425.391,-336.398C446.372,-319.477 489,-279.61 489,-235 489,-235 489,-235 489,-177 489,-143.245 474.568,-106.028 464.792,-84.6908"/>
<polygon fill="midnightblue" stroke="midnightblue" points="467.911,-83.0993 460.451,-75.5762 461.591,-86.1095 467.911,-83.0993"/>
</g>
<!-- Node3 -->
<g id="node3" class="node"><title>Node3</title>
<g id="a_node3"><a xlink:href="_actuator_8h.html" target="_top" xlink:title="Framework/Actuator.h">
<polygon fill="white" stroke="black" points="234.5,-224.5 234.5,-243.5 347.5,-243.5 347.5,-224.5 234.5,-224.5"/>
<text text-anchor="middle" x="291" y="-231.5" font-family="Helvetica,sans-Serif" font-size="10.00">Framework/Actuator.h</text>
</a>
</g>
</g>
<!-- Node2&#45;&gt;Node3 -->
<g id="edge2" class="edge"><title>Node2&#45;&gt;Node3</title>
<path fill="none" stroke="midnightblue" d="M331.074,-280.083C324.154,-272.298 313.935,-260.801 305.548,-251.367"/>
<polygon fill="midnightblue" stroke="midnightblue" points="308.038,-248.9 298.779,-243.751 302.806,-253.55 308.038,-248.9"/>
</g>
<!-- Node4 -->
<g id="node4" class="node"><title>Node4</title>
<g id="a_node4"><a xlink:href="_object_8h.html" target="_top" xlink:title="Object.h">
<polygon fill="white" stroke="black" points="99.5,-112.5 99.5,-131.5 152.5,-131.5 152.5,-112.5 99.5,-112.5"/>
<text text-anchor="middle" x="126" y="-119.5" font-family="Helvetica,sans-Serif" font-size="10.00">Object.h</text>
</a>
</g>
</g>
<!-- Node3&#45;&gt;Node4 -->
<g id="edge3" class="edge"><title>Node3&#45;&gt;Node4</title>
<path fill="none" stroke="midnightblue" d="M246.713,-224.447C221.314,-217.814 190.007,-206.533 167,-188 151.616,-175.608 140.312,-155.807 133.515,-141.313"/>
<polygon fill="midnightblue" stroke="midnightblue" points="136.596,-139.625 129.368,-131.878 130.188,-142.441 136.596,-139.625"/>
</g>
<!-- Node5 -->
<g id="node5" class="node"><title>Node5</title>
<g id="a_node5"><a xlink:href="_config_8h.html" target="_top" xlink:title="Framework/Config.h">
<polygon fill="white" stroke="black" points="148.5,-56.5 148.5,-75.5 251.5,-75.5 251.5,-56.5 148.5,-56.5"/>
<text text-anchor="middle" x="200" y="-63.5" font-family="Helvetica,sans-Serif" font-size="10.00">Framework/Config.h</text>
</a>
</g>
</g>
<!-- Node3&#45;&gt;Node5 -->
<g id="edge7" class="edge"><title>Node3&#45;&gt;Node5</title>
<path fill="none" stroke="midnightblue" d="M266.316,-224.486C249.618,-217.395 228.572,-205.585 217,-188 196.472,-156.805 196.138,-111.296 197.931,-85.9098"/>
<polygon fill="midnightblue" stroke="midnightblue" points="201.432,-86.0588 198.84,-75.7858 194.46,-85.4327 201.432,-86.0588"/>
</g>
<!-- Node8 -->
<g id="node8" class="node"><title>Node8</title>
<g id="a_node8"><a xlink:href="_controller_8h.html" target="_top" xlink:title="Controller.h">
<polygon fill="white" stroke="black" points="226,-168.5 226,-187.5 292,-187.5 292,-168.5 226,-168.5"/>
<text text-anchor="middle" x="259" y="-175.5" font-family="Helvetica,sans-Serif" font-size="10.00">Controller.h</text>
</a>
</g>
</g>
<!-- Node3&#45;&gt;Node8 -->
<g id="edge8" class="edge"><title>Node3&#45;&gt;Node8</title>
<path fill="none" stroke="midnightblue" d="M285.716,-224.083C281.289,-216.613 274.837,-205.724 269.382,-196.52"/>
<polygon fill="midnightblue" stroke="midnightblue" points="272.295,-194.57 264.186,-187.751 266.273,-198.138 272.295,-194.57"/>
</g>
<!-- Node9 -->
<g id="node9" class="node"><title>Node9</title>
<g id="a_node9"><a xlink:href="_serializable_8h.html" target="_top" xlink:title="Serializable.h">
<polygon fill="white" stroke="black" points="385.5,-112.5 385.5,-131.5 460.5,-131.5 460.5,-112.5 385.5,-112.5"/>
<text text-anchor="middle" x="423" y="-119.5" font-family="Helvetica,sans-Serif" font-size="10.00">Serializable.h</text>
</a>
</g>
</g>
<!-- Node3&#45;&gt;Node9 -->
<g id="edge16" class="edge"><title>Node3&#45;&gt;Node9</title>
<path fill="none" stroke="midnightblue" d="M301.358,-224.368C323.72,-205.733 376.761,-161.532 404.839,-138.134"/>
<polygon fill="midnightblue" stroke="midnightblue" points="407.249,-140.682 412.69,-131.591 402.767,-135.305 407.249,-140.682"/>
</g>
<!-- Node11 -->
<g id="node11" class="node"><title>Node11</title>
<g id="a_node11"><a xlink:href="_web_interface_8h.html" target="_top" xlink:title="WebInterface.h">
<polygon fill="white" stroke="black" points="285,-112.5 285,-131.5 367,-131.5 367,-112.5 285,-112.5"/>
<text text-anchor="middle" x="326" y="-119.5" font-family="Helvetica,sans-Serif" font-size="10.00">WebInterface.h</text>
</a>
</g>
</g>
<!-- Node3&#45;&gt;Node11 -->
<g id="edge17" class="edge"><title>Node3&#45;&gt;Node11</title>
<path fill="none" stroke="midnightblue" d="M293.746,-224.368C299.42,-206.537 312.542,-165.295 320.186,-141.272"/>
<polygon fill="midnightblue" stroke="midnightblue" points="323.57,-142.182 323.266,-131.591 316.899,-140.059 323.57,-142.182"/>
</g>
<!-- Node4&#45;&gt;Node5 -->
<g id="edge4" class="edge"><title>Node4&#45;&gt;Node5</title>
<path fill="none" stroke="midnightblue" d="M137.889,-112.324C149.15,-104.107 166.287,-91.6017 179.709,-81.8069"/>
<polygon fill="midnightblue" stroke="midnightblue" points="181.88,-84.5559 187.894,-75.8339 177.753,-78.9014 181.88,-84.5559"/>
</g>
<!-- Node7 -->
<g id="node7" class="node"><title>Node7</title>
<g id="a_node7"><a xlink:href="_object_types_8h.html" target="_top" xlink:title="Framework/ObjectTypes.h">
<polygon fill="white" stroke="black" points="-0.5,-56.5 -0.5,-75.5 130.5,-75.5 130.5,-56.5 -0.5,-56.5"/>
<text text-anchor="middle" x="65" y="-63.5" font-family="Helvetica,sans-Serif" font-size="10.00">Framework/ObjectTypes.h</text>
</a>
</g>
</g>
<!-- Node4&#45;&gt;Node7 -->
<g id="edge6" class="edge"><title>Node4&#45;&gt;Node7</title>
<path fill="none" stroke="midnightblue" d="M116.199,-112.324C107.182,-104.341 93.594,-92.3128 82.682,-82.6529"/>
<polygon fill="midnightblue" stroke="midnightblue" points="84.7866,-79.8416 74.979,-75.8339 80.1467,-85.083 84.7866,-79.8416"/>
</g>
<!-- Node6 -->
<g id="node6" class="node"><title>Node6</title>
<polygon fill="white" stroke="#bfbfbf" points="175.5,-0.5 175.5,-19.5 224.5,-19.5 224.5,-0.5 175.5,-0.5"/>
<text text-anchor="middle" x="200" y="-7.5" font-family="Helvetica,sans-Serif" font-size="10.00">stdint.h</text>
</g>
<!-- Node5&#45;&gt;Node6 -->
<g id="edge5" class="edge"><title>Node5&#45;&gt;Node6</title>
<path fill="none" stroke="midnightblue" d="M200,-56.083C200,-49.0059 200,-38.8611 200,-29.9865"/>
<polygon fill="midnightblue" stroke="midnightblue" points="203.5,-29.751 200,-19.7511 196.5,-29.7511 203.5,-29.751"/>
</g>
<!-- Node8&#45;&gt;Node4 -->
<g id="edge9" class="edge"><title>Node8&#45;&gt;Node4</title>
<path fill="none" stroke="midnightblue" d="M237.926,-168.444C215.94,-159.517 181.266,-145.439 156.336,-135.317"/>
<polygon fill="midnightblue" stroke="midnightblue" points="157.558,-132.035 146.976,-131.516 154.924,-138.521 157.558,-132.035"/>
</g>
<!-- Node8&#45;&gt;Node9 -->
<g id="edge10" class="edge"><title>Node8&#45;&gt;Node9</title>
<path fill="none" stroke="midnightblue" d="M284.986,-168.444C312.696,-159.32 356.752,-144.813 387.616,-134.651"/>
<polygon fill="midnightblue" stroke="midnightblue" points="388.732,-137.968 397.135,-131.516 386.542,-131.32 388.732,-137.968"/>
</g>
<!-- Node8&#45;&gt;Node11 -->
<g id="edge12" class="edge"><title>Node8&#45;&gt;Node11</title>
<path fill="none" stroke="midnightblue" d="M269.765,-168.324C279.766,-160.263 294.887,-148.077 306.93,-138.369"/>
<polygon fill="midnightblue" stroke="midnightblue" points="309.45,-140.834 315.039,-131.834 305.057,-135.384 309.45,-140.834"/>
</g>
<!-- Node8&#45;&gt;Node5 -->
<g id="edge14" class="edge"><title>Node8&#45;&gt;Node5</title>
<path fill="none" stroke="midnightblue" d="M254.37,-168.368C244.72,-150.376 222.286,-108.55 209.454,-84.6267"/>
<polygon fill="midnightblue" stroke="midnightblue" points="212.419,-82.7495 204.608,-75.5914 206.25,-86.0582 212.419,-82.7495"/>
</g>
<!-- Node12 -->
<g id="node12" class="node"><title>Node12</title>
<polygon fill="white" stroke="#bfbfbf" points="280,-56.5 280,-75.5 352,-75.5 352,-56.5 280,-56.5"/>
<text text-anchor="middle" x="316" y="-63.5" font-family="Helvetica,sans-Serif" font-size="10.00">WebServer.h</text>
</g>
<!-- Node8&#45;&gt;Node12 -->
<g id="edge15" class="edge"><title>Node8&#45;&gt;Node12</title>
<path fill="none" stroke="midnightblue" d="M259.987,-168.11C261.715,-155.127 266.096,-130.513 276,-112 281.769,-101.216 290.62,-90.8901 298.53,-82.8557"/>
<polygon fill="midnightblue" stroke="midnightblue" points="301.223,-85.1207 305.979,-75.6531 296.357,-80.0886 301.223,-85.1207"/>
</g>
<!-- Node9&#45;&gt;Node10 -->
<g id="edge11" class="edge"><title>Node9&#45;&gt;Node10</title>
<path fill="none" stroke="midnightblue" d="M428.449,-112.083C433.014,-104.613 439.668,-93.7244 445.293,-84.5199"/>
<polygon fill="midnightblue" stroke="midnightblue" points="448.424,-86.109 450.652,-75.7511 442.451,-82.4588 448.424,-86.109"/>
</g>
<!-- Node11&#45;&gt;Node12 -->
<g id="edge13" class="edge"><title>Node11&#45;&gt;Node12</title>
<path fill="none" stroke="midnightblue" d="M324.349,-112.083C323.024,-104.927 321.118,-94.6353 319.461,-85.6911"/>
<polygon fill="midnightblue" stroke="midnightblue" points="322.883,-84.9466 317.621,-75.7511 316,-86.2212 322.883,-84.9466"/>
</g>
</g>
</svg>
