<?xml version="1.0" encoding="UTF-8" standalone="no"?>
<!DOCTYPE svg PUBLIC "-//W3C//DTD SVG 1.1//EN"
 "http://www.w3.org/Graphics/SVG/1.1/DTD/svg11.dtd">
<!-- Generated by graphviz version 2.30.1 (20130214.1330)
 -->
<!-- Title: Framework/SDConfigManager.cpp Pages: 1 -->
<svg width="898pt" height="476pt"
 viewBox="0.00 0.00 898.00 476.00" xmlns="http://www.w3.org/2000/svg" xmlns:xlink="http://www.w3.org/1999/xlink">
<g id="graph0" class="graph" transform="scale(1 1) rotate(0) translate(4 472)">
<title>Framework/SDConfigManager.cpp</title>
<polygon fill="white" stroke="white" points="-4,5 -4,-472 895,-472 895,5 -4,5"/>
<!-- Node1 -->
<g id="node1" class="node"><title>Node1</title>
<polygon fill="#bfbfbf" stroke="black" points="391,-448.5 391,-467.5 555,-467.5 555,-448.5 391,-448.5"/>
<text text-anchor="middle" x="473" y="-455.5" font-family="Helvetica,sans-Serif" font-size="10.00">Framework/SDConfigManager.cpp</text>
</g>
<!-- Node2 -->
<g id="node2" class="node"><title>Node2</title>
<g id="a_node2"><a xlink:href="_s_d_config_manager_8h.html" target="_top" xlink:title="SDConfigManager.h">
<polygon fill="white" stroke="black" points="510.5,-392.5 510.5,-411.5 613.5,-411.5 613.5,-392.5 510.5,-392.5"/>
<text text-anchor="middle" x="562" y="-399.5" font-family="Helvetica,sans-Serif" font-size="10.00">SDConfigManager.h</text>
</a>
</g>
</g>
<!-- Node1&#45;&gt;Node2 -->
<g id="edge1" class="edge"><title>Node1&#45;&gt;Node2</title>
<path fill="none" stroke="midnightblue" d="M487.299,-448.324C501.183,-439.9 522.492,-426.971 538.804,-417.074"/>
<polygon fill="midnightblue" stroke="midnightblue" points="541.002,-419.834 547.736,-411.655 537.371,-413.85 541.002,-419.834"/>
</g>
<!-- Node20 -->
<g id="node20" class="node"><title>Node20</title>
<polygon fill="white" stroke="#bfbfbf" points="454,-392.5 454,-411.5 492,-411.5 492,-392.5 454,-392.5"/>
<text text-anchor="middle" x="473" y="-399.5" font-family="Helvetica,sans-Serif" font-size="10.00">SD.h</text>
</g>
<!-- Node1&#45;&gt;Node20 -->
<g id="edge37" class="edge"><title>Node1&#45;&gt;Node20</title>
<path fill="none" stroke="midnightblue" d="M473,-448.083C473,-441.006 473,-430.861 473,-421.986"/>
<polygon fill="midnightblue" stroke="midnightblue" points="476.5,-421.751 473,-411.751 469.5,-421.751 476.5,-421.751"/>
</g>
<!-- Node5 -->
<g id="node5" class="node"><title>Node5</title>
<g id="a_node5"><a xlink:href="_aquaduino_8h.html" target="_top" xlink:title="Aquaduino.h">
<polygon fill="white" stroke="black" points="403.5,-280.5 403.5,-299.5 474.5,-299.5 474.5,-280.5 403.5,-280.5"/>
<text text-anchor="middle" x="439" y="-287.5" font-family="Helvetica,sans-Serif" font-size="10.00">Aquaduino.h</text>
</a>
</g>
</g>
<!-- Node1&#45;&gt;Node5 -->
<g id="edge38" class="edge"><title>Node1&#45;&gt;Node5</title>
<path fill="none" stroke="midnightblue" d="M465.739,-448.366C458.988,-439.765 449.339,-425.876 445,-412 434.108,-377.167 435.225,-333.964 437.075,-309.74"/>
<polygon fill="midnightblue" stroke="midnightblue" points="440.562,-310.04 437.965,-299.768 433.59,-309.418 440.562,-310.04"/>
</g>
<!-- Node3 -->
<g id="node3" class="node"><title>Node3</title>
<g id="a_node3"><a xlink:href="_config_manager_8h.html" target="_top" xlink:title="ConfigManager.h">
<polygon fill="white" stroke="black" points="517.5,-336.5 517.5,-355.5 606.5,-355.5 606.5,-336.5 517.5,-336.5"/>
<text text-anchor="middle" x="562" y="-343.5" font-family="Helvetica,sans-Serif" font-size="10.00">ConfigManager.h</text>
</a>
</g>
</g>
<!-- Node2&#45;&gt;Node3 -->
<g id="edge2" class="edge"><title>Node2&#45;&gt;Node3</title>
<path fill="none" stroke="midnightblue" d="M562,-392.083C562,-385.006 562,-374.861 562,-365.986"/>
<polygon fill="midnightblue" stroke="midnightblue" points="565.5,-365.751 562,-355.751 558.5,-365.751 565.5,-365.751"/>
</g>
<!-- Node4 -->
<g id="node4" class="node"><title>Node4</title>
<polygon fill="white" stroke="#bfbfbf" points="9,-56.5 9,-75.5 67,-75.5 67,-56.5 9,-56.5"/>
<text text-anchor="middle" x="38" y="-63.5" font-family="Helvetica,sans-Serif" font-size="10.00">Arduino.h</text>
</g>
<!-- Node3&#45;&gt;Node4 -->
<g id="edge3" class="edge"><title>Node3&#45;&gt;Node4</title>
<path fill="none" stroke="midnightblue" d="M517.431,-345.711C384.506,-346.649 0,-340.262 0,-235 0,-235 0,-235 0,-177 0,-142.813 16.6005,-105.764 27.8573,-84.5707"/>
<polygon fill="midnightblue" stroke="midnightblue" points="30.9473,-86.2151 32.7163,-75.769 24.8191,-82.832 30.9473,-86.2151"/>
</g>
<!-- Node3&#45;&gt;Node5 -->
<g id="edge4" class="edge"><title>Node3&#45;&gt;Node5</title>
<path fill="none" stroke="midnightblue" d="M542.51,-336.444C522.358,-327.596 490.677,-313.687 467.669,-303.586"/>
<polygon fill="midnightblue" stroke="midnightblue" points="468.962,-300.332 458.399,-299.516 466.148,-306.741 468.962,-300.332"/>
</g>
<!-- Node16 -->
<g id="node16" class="node"><title>Node16</title>
<g id="a_node16"><a xlink:href="_actuator_8h.html" target="_top" xlink:title="Framework/Actuator.h">
<polygon fill="white" stroke="black" points="505.5,-224.5 505.5,-243.5 618.5,-243.5 618.5,-224.5 505.5,-224.5"/>
<text text-anchor="middle" x="562" y="-231.5" font-family="Helvetica,sans-Serif" font-size="10.00">Framework/Actuator.h</text>
</a>
</g>
</g>
<!-- Node3&#45;&gt;Node16 -->
<g id="edge34" class="edge"><title>Node3&#45;&gt;Node16</title>
<path fill="none" stroke="midnightblue" d="M562,-336.368C562,-318.617 562,-277.666 562,-253.597"/>
<polygon fill="midnightblue" stroke="midnightblue" points="565.5,-253.591 562,-243.591 558.5,-253.591 565.5,-253.591"/>
</g>
<!-- Node10 -->
<g id="node10" class="node"><title>Node10</title>
<g id="a_node10"><a xlink:href="_controller_8h.html" target="_top" xlink:title="Framework/Controller.h">
<polygon fill="white" stroke="black" points="543.5,-168.5 543.5,-187.5 660.5,-187.5 660.5,-168.5 543.5,-168.5"/>
<text text-anchor="middle" x="602" y="-175.5" font-family="Helvetica,sans-Serif" font-size="10.00">Framework/Controller.h</text>
</a>
</g>
</g>
<!-- Node3&#45;&gt;Node10 -->
<g id="edge35" class="edge"><title>Node3&#45;&gt;Node10</title>
<path fill="none" stroke="midnightblue" d="M570.039,-336.421C584.792,-320.018 615.708,-282.411 627,-244 631.884,-227.385 623.477,-209.014 615.122,-196.054"/>
<polygon fill="midnightblue" stroke="midnightblue" points="617.85,-193.848 609.239,-187.675 612.121,-197.87 617.85,-193.848"/>
</g>
<!-- Node17 -->
<g id="node17" class="node"><title>Node17</title>
<g id="a_node17"><a xlink:href="_sensor_8h.html" target="_top" xlink:title="Framework/Sensor.h">
<polygon fill="white" stroke="black" points="782.5,-224.5 782.5,-243.5 889.5,-243.5 889.5,-224.5 782.5,-224.5"/>
<text text-anchor="middle" x="836" y="-231.5" font-family="Helvetica,sans-Serif" font-size="10.00">Framework/Sensor.h</text>
</a>
</g>
</g>
<!-- Node3&#45;&gt;Node17 -->
<g id="edge36" class="edge"><title>Node3&#45;&gt;Node17</title>
<path fill="none" stroke="midnightblue" d="M583.5,-336.368C631.819,-316.97 749.143,-269.87 805.194,-247.367"/>
<polygon fill="midnightblue" stroke="midnightblue" points="806.623,-250.565 814.6,-243.591 804.015,-244.069 806.623,-250.565"/>
</g>
<!-- Node5&#45;&gt;Node4 -->
<g id="edge5" class="edge"><title>Node5&#45;&gt;Node4</title>
<path fill="none" stroke="midnightblue" d="M403.416,-287.301C313.239,-282.652 81.1627,-268.413 57,-244 14.8225,-201.385 25.6598,-121.708 33.3824,-85.6162"/>
<polygon fill="midnightblue" stroke="midnightblue" points="36.8713,-86.0627 35.7091,-75.5318 30.0505,-84.4889 36.8713,-86.0627"/>
</g>
<!-- Node6 -->
<g id="node6" class="node"><title>Node6</title>
<polygon fill="white" stroke="#bfbfbf" points="311,-224.5 311,-243.5 373,-243.5 373,-224.5 311,-224.5"/>
<text text-anchor="middle" x="342" y="-231.5" font-family="Helvetica,sans-Serif" font-size="10.00">Ethernet.h</text>
</g>
<!-- Node5&#45;&gt;Node6 -->
<g id="edge6" class="edge"><title>Node5&#45;&gt;Node6</title>
<path fill="none" stroke="midnightblue" d="M423.415,-280.324C408.001,-271.743 384.188,-258.486 366.29,-248.522"/>
<polygon fill="midnightblue" stroke="midnightblue" points="367.986,-245.461 357.546,-243.655 364.581,-251.577 367.986,-245.461"/>
</g>
<!-- Node7 -->
<g id="node7" class="node"><title>Node7</title>
<polygon fill="white" stroke="#bfbfbf" points="66.5,-224.5 66.5,-243.5 159.5,-243.5 159.5,-224.5 66.5,-224.5"/>
<text text-anchor="middle" x="113" y="-231.5" font-family="Helvetica,sans-Serif" font-size="10.00">TemplateParser.h</text>
</g>
<!-- Node5&#45;&gt;Node7 -->
<g id="edge7" class="edge"><title>Node5&#45;&gt;Node7</title>
<path fill="none" stroke="midnightblue" d="M403.492,-283.118C347.219,-273.797 237.051,-255.548 169.737,-244.398"/>
<polygon fill="midnightblue" stroke="midnightblue" points="170.16,-240.921 159.722,-242.739 169.016,-247.826 170.16,-240.921"/>
</g>
<!-- Node8 -->
<g id="node8" class="node"><title>Node8</title>
<g id="a_node8"><a xlink:href="_config_8h.html" target="_top" xlink:title="Framework/Config.h">
<polygon fill="white" stroke="black" points="474.5,-56.5 474.5,-75.5 577.5,-75.5 577.5,-56.5 474.5,-56.5"/>
<text text-anchor="middle" x="526" y="-63.5" font-family="Helvetica,sans-Serif" font-size="10.00">Framework/Config.h</text>
</a>
</g>
</g>
<!-- Node5&#45;&gt;Node8 -->
<g id="edge8" class="edge"><title>Node5&#45;&gt;Node8</title>
<path fill="none" stroke="midnightblue" d="M433.903,-280.331C418.526,-252.926 375.87,-166.753 413,-112 424.917,-94.4276 444.904,-83.717 464.784,-77.1888"/>
<polygon fill="midnightblue" stroke="midnightblue" points="465.907,-80.5067 474.499,-74.3083 463.917,-73.7955 465.907,-80.5067"/>
</g>
<!-- Node5&#45;&gt;Node10 -->
<g id="edge10" class="edge"><title>Node5&#45;&gt;Node10</title>
<path fill="none" stroke="midnightblue" d="M444.68,-280.308C453.967,-266.683 473.623,-240.185 496,-224 516.138,-209.435 541.713,-198.404 562.696,-190.91"/>
<polygon fill="midnightblue" stroke="midnightblue" points="563.962,-194.176 572.281,-187.615 561.686,-187.556 563.962,-194.176"/>
</g>
<!-- Node5&#45;&gt;Node16 -->
<g id="edge20" class="edge"><title>Node5&#45;&gt;Node16</title>
<path fill="none" stroke="midnightblue" d="M458.49,-280.444C478.642,-271.596 510.323,-257.687 533.331,-247.586"/>
<polygon fill="midnightblue" stroke="midnightblue" points="534.852,-250.741 542.601,-243.516 532.038,-244.332 534.852,-250.741"/>
</g>
<!-- Node5&#45;&gt;Node17 -->
<g id="edge26" class="edge"><title>Node5&#45;&gt;Node17</title>
<path fill="none" stroke="midnightblue" d="M474.58,-284.16C541.7,-275.031 687.828,-255.154 772.279,-243.667"/>
<polygon fill="midnightblue" stroke="midnightblue" points="772.826,-247.125 782.263,-242.309 771.882,-240.189 772.826,-247.125"/>
</g>
<!-- Node18 -->
<g id="node18" class="node"><title>Node18</title>
<g id="a_node18"><a xlink:href="_array_list_8h.html" target="_top" xlink:title="Framework/ArrayList.h">
<polygon fill="white" stroke="black" points="177.5,-224.5 177.5,-243.5 292.5,-243.5 292.5,-224.5 177.5,-224.5"/>
<text text-anchor="middle" x="235" y="-231.5" font-family="Helvetica,sans-Serif" font-size="10.00">Framework/ArrayList.h</text>
</a>
</g>
</g>
<!-- Node5&#45;&gt;Node18 -->
<g id="edge28" class="edge"><title>Node5&#45;&gt;Node18</title>
<path fill="none" stroke="midnightblue" d="M406.676,-280.444C371.611,-271.162 315.502,-256.309 277.035,-246.127"/>
<polygon fill="midnightblue" stroke="midnightblue" points="277.736,-242.692 267.173,-243.516 275.945,-249.459 277.736,-242.692"/>
</g>
<!-- Node5&#45;&gt;Node2 -->
<g id="edge31" class="edge"><title>Node5&#45;&gt;Node2</title>
<path fill="none" stroke="midnightblue" d="M447.771,-299.59C460.724,-312.199 485.83,-336.352 508,-356 519.416,-366.117 532.559,-377.083 543.019,-385.657"/>
<polygon fill="midnightblue" stroke="midnightblue" points="541.116,-388.621 551.079,-392.225 545.538,-383.195 541.116,-388.621"/>
</g>
<!-- Node11 -->
<g id="node11" class="node"><title>Node11</title>
<g id="a_node11"><a xlink:href="_object_8h.html" target="_top" xlink:title="Object.h">
<polygon fill="white" stroke="black" points="730.5,-112.5 730.5,-131.5 783.5,-131.5 783.5,-112.5 730.5,-112.5"/>
<text text-anchor="middle" x="757" y="-119.5" font-family="Helvetica,sans-Serif" font-size="10.00">Object.h</text>
</a>
</g>
</g>
<!-- Node5&#45;&gt;Node11 -->
<g id="edge32" class="edge"><title>Node5&#45;&gt;Node11</title>
<path fill="none" stroke="midnightblue" d="M474.776,-284.114C513.461,-277.998 576.379,-265.607 627,-244 669.293,-225.948 681.281,-220.312 714,-188 728.099,-174.076 740.14,-154.81 747.862,-140.872"/>
<polygon fill="midnightblue" stroke="midnightblue" points="751.074,-142.287 752.69,-131.816 744.897,-138.994 751.074,-142.287"/>
</g>
<!-- Node13 -->
<g id="node13" class="node"><title>Node13</title>
<g id="a_node13"><a xlink:href="_serializable_8h.html" target="_top" xlink:title="Serializable.h">
<polygon fill="white" stroke="black" points="422.5,-112.5 422.5,-131.5 497.5,-131.5 497.5,-112.5 422.5,-112.5"/>
<text text-anchor="middle" x="460" y="-119.5" font-family="Helvetica,sans-Serif" font-size="10.00">Serializable.h</text>
</a>
</g>
</g>
<!-- Node5&#45;&gt;Node13 -->
<g id="edge33" class="edge"><title>Node5&#45;&gt;Node13</title>
<path fill="none" stroke="midnightblue" d="M440.129,-280.075C443.435,-253.945 453.142,-177.211 457.65,-141.577"/>
<polygon fill="midnightblue" stroke="midnightblue" points="461.133,-141.928 458.916,-131.568 454.189,-141.05 461.133,-141.928"/>
</g>
<!-- Node9 -->
<g id="node9" class="node"><title>Node9</title>
<polygon fill="white" stroke="#bfbfbf" points="355.5,-0.5 355.5,-19.5 404.5,-19.5 404.5,-0.5 355.5,-0.5"/>
<text text-anchor="middle" x="380" y="-7.5" font-family="Helvetica,sans-Serif" font-size="10.00">stdint.h</text>
</g>
<!-- Node8&#45;&gt;Node9 -->
<g id="edge9" class="edge"><title>Node8&#45;&gt;Node9</title>
<path fill="none" stroke="midnightblue" d="M502.866,-56.4435C478.518,-47.4381 439.993,-33.1891 412.577,-23.049"/>
<polygon fill="midnightblue" stroke="midnightblue" points="413.619,-19.7028 403.026,-19.5164 411.191,-26.2681 413.619,-19.7028"/>
</g>
<!-- Node10&#45;&gt;Node11 -->
<g id="edge11" class="edge"><title>Node10&#45;&gt;Node11</title>
<path fill="none" stroke="midnightblue" d="M626.56,-168.444C652.523,-159.399 693.668,-145.064 722.797,-134.916"/>
<polygon fill="midnightblue" stroke="midnightblue" points="724.263,-138.112 732.555,-131.516 721.96,-131.501 724.263,-138.112"/>
</g>
<!-- Node10&#45;&gt;Node13 -->
<g id="edge14" class="edge"><title>Node10&#45;&gt;Node13</title>
<path fill="none" stroke="midnightblue" d="M579.5,-168.444C555.923,-159.478 518.678,-145.314 492.036,-135.183"/>
<polygon fill="midnightblue" stroke="midnightblue" points="492.986,-131.8 482.395,-131.516 490.498,-138.342 492.986,-131.8"/>
</g>
<!-- Node14 -->
<g id="node14" class="node"><title>Node14</title>
<g id="a_node14"><a xlink:href="_web_interface_8h.html" target="_top" xlink:title="WebInterface.h">
<polygon fill="white" stroke="black" points="630,-112.5 630,-131.5 712,-131.5 712,-112.5 630,-112.5"/>
<text text-anchor="middle" x="671" y="-119.5" font-family="Helvetica,sans-Serif" font-size="10.00">WebInterface.h</text>
</a>
</g>
</g>
<!-- Node10&#45;&gt;Node14 -->
<g id="edge16" class="edge"><title>Node10&#45;&gt;Node14</title>
<path fill="none" stroke="midnightblue" d="M613.086,-168.324C623.486,-160.185 639.261,-147.839 651.722,-138.087"/>
<polygon fill="midnightblue" stroke="midnightblue" points="653.994,-140.753 659.712,-131.834 649.68,-135.241 653.994,-140.753"/>
</g>
<!-- Node10&#45;&gt;Node8 -->
<g id="edge18" class="edge"><title>Node10&#45;&gt;Node8</title>
<path fill="none" stroke="midnightblue" d="M596.036,-168.368C583.494,-150.215 554.19,-107.802 537.739,-83.9902"/>
<polygon fill="midnightblue" stroke="midnightblue" points="540.5,-81.8292 531.936,-75.5914 534.741,-85.8083 540.5,-81.8292"/>
</g>
<!-- Node15 -->
<g id="node15" class="node"><title>Node15</title>
<polygon fill="white" stroke="#bfbfbf" points="599,-56.5 599,-75.5 671,-75.5 671,-56.5 599,-56.5"/>
<text text-anchor="middle" x="635" y="-63.5" font-family="Helvetica,sans-Serif" font-size="10.00">WebServer.h</text>
</g>
<!-- Node10&#45;&gt;Node15 -->
<g id="edge19" class="edge"><title>Node10&#45;&gt;Node15</title>
<path fill="none" stroke="midnightblue" d="M604.533,-168.154C608.131,-155.634 614.956,-132.035 621,-112 623.662,-103.177 626.692,-93.4058 629.25,-85.2295"/>
<polygon fill="midnightblue" stroke="midnightblue" points="632.613,-86.2026 632.272,-75.6133 625.935,-84.1042 632.613,-86.2026"/>
</g>
<!-- Node11&#45;&gt;Node8 -->
<g id="edge12" class="edge"><title>Node11&#45;&gt;Node8</title>
<path fill="none" stroke="midnightblue" d="M730.277,-114.262C727.152,-113.491 724.007,-112.723 721,-112 670.811,-99.9365 613.201,-86.719 573.686,-77.75"/>
<polygon fill="midnightblue" stroke="midnightblue" points="574.321,-74.3053 563.795,-75.5079 572.774,-81.1321 574.321,-74.3053"/>
</g>
<!-- Node12 -->
<g id="node12" class="node"><title>Node12</title>
<g id="a_node12"><a xlink:href="_object_types_8h.html" target="_top" xlink:title="Framework/ObjectTypes.h">
<polygon fill="white" stroke="black" points="691.5,-56.5 691.5,-75.5 822.5,-75.5 822.5,-56.5 691.5,-56.5"/>
<text text-anchor="middle" x="757" y="-63.5" font-family="Helvetica,sans-Serif" font-size="10.00">Framework/ObjectTypes.h</text>
</a>
</g>
</g>
<!-- Node11&#45;&gt;Node12 -->
<g id="edge13" class="edge"><title>Node11&#45;&gt;Node12</title>
<path fill="none" stroke="midnightblue" d="M757,-112.083C757,-105.006 757,-94.8611 757,-85.9865"/>
<polygon fill="midnightblue" stroke="midnightblue" points="760.5,-85.751 757,-75.7511 753.5,-85.7511 760.5,-85.751"/>
</g>
<!-- Node13&#45;&gt;Node4 -->
<g id="edge15" class="edge"><title>Node13&#45;&gt;Node4</title>
<path fill="none" stroke="midnightblue" d="M422.179,-116.16C342.604,-105.978 158.554,-82.4263 77.5179,-72.0568"/>
<polygon fill="midnightblue" stroke="midnightblue" points="77.608,-68.5399 67.2446,-70.7422 76.7194,-75.4832 77.608,-68.5399"/>
</g>
<!-- Node14&#45;&gt;Node15 -->
<g id="edge17" class="edge"><title>Node14&#45;&gt;Node15</title>
<path fill="none" stroke="midnightblue" d="M665.055,-112.083C660.023,-104.534 652.663,-93.4948 646.487,-84.2298"/>
<polygon fill="midnightblue" stroke="midnightblue" points="649.293,-82.1301 640.834,-75.7511 643.469,-86.0131 649.293,-82.1301"/>
</g>
<!-- Node16&#45;&gt;Node11 -->
<g id="edge21" class="edge"><title>Node16&#45;&gt;Node11</title>
<path fill="none" stroke="midnightblue" d="M597.098,-224.464C623.127,-217.185 658.829,-205.154 687,-188 708.787,-174.733 729.663,-153.944 742.858,-139.461"/>
<polygon fill="midnightblue" stroke="midnightblue" points="745.667,-141.569 749.688,-131.766 740.432,-136.921 745.667,-141.569"/>
</g>
<!-- Node16&#45;&gt;Node8 -->
<g id="edge22" class="edge"><title>Node16&#45;&gt;Node8</title>
<path fill="none" stroke="midnightblue" d="M554.79,-224.35C548.075,-215.737 538.453,-201.839 534,-188 522.81,-153.225 523.114,-110.001 524.472,-85.7583"/>
<polygon fill="midnightblue" stroke="midnightblue" points="527.964,-85.993 525.154,-75.7774 520.98,-85.5153 527.964,-85.993"/>
</g>
<!-- Node16&#45;&gt;Node10 -->
<g id="edge23" class="edge"><title>Node16&#45;&gt;Node10</title>
<path fill="none" stroke="midnightblue" d="M568.605,-224.083C574.255,-216.455 582.545,-205.264 589.451,-195.941"/>
<polygon fill="midnightblue" stroke="midnightblue" points="592.378,-197.87 595.518,-187.751 586.753,-193.703 592.378,-197.87"/>
</g>
<!-- Node16&#45;&gt;Node13 -->
<g id="edge24" class="edge"><title>Node16&#45;&gt;Node13</title>
<path fill="none" stroke="midnightblue" d="M547.493,-224.49C534.321,-216.285 514.889,-202.939 501,-188 487.696,-173.689 476.195,-154.479 468.789,-140.659"/>
<polygon fill="midnightblue" stroke="midnightblue" points="471.856,-138.97 464.152,-131.696 465.638,-142.186 471.856,-138.97"/>
</g>
<!-- Node16&#45;&gt;Node14 -->
<g id="edge25" class="edge"><title>Node16&#45;&gt;Node14</title>
<path fill="none" stroke="midnightblue" d="M611.683,-224.471C632.957,-218.126 655.881,-207.105 669,-188 678.178,-174.634 677.688,-155.809 675.489,-141.856"/>
<polygon fill="midnightblue" stroke="midnightblue" points="678.894,-141.033 673.511,-131.908 672.028,-142.398 678.894,-141.033"/>
</g>
<!-- Node17&#45;&gt;Node11 -->
<g id="edge27" class="edge"><title>Node17&#45;&gt;Node11</title>
<path fill="none" stroke="midnightblue" d="M829.801,-224.368C816.764,-206.215 786.303,-163.802 769.202,-139.99"/>
<polygon fill="midnightblue" stroke="midnightblue" points="771.846,-137.672 763.17,-131.591 766.161,-141.755 771.846,-137.672"/>
</g>
<!-- Node19 -->
<g id="node19" class="node"><title>Node19</title>
<polygon fill="white" stroke="#bfbfbf" points="263.5,-168.5 263.5,-187.5 314.5,-187.5 314.5,-168.5 263.5,-168.5"/>
<text text-anchor="middle" x="289" y="-175.5" font-family="Helvetica,sans-Serif" font-size="10.00">stddef.h</text>
</g>
<!-- Node18&#45;&gt;Node19 -->
<g id="edge29" class="edge"><title>Node18&#45;&gt;Node19</title>
<path fill="none" stroke="midnightblue" d="M243.917,-224.083C251.78,-216.22 263.431,-204.569 272.919,-195.081"/>
<polygon fill="midnightblue" stroke="midnightblue" points="275.653,-197.297 280.249,-187.751 270.703,-192.347 275.653,-197.297"/>
</g>
<!-- Node18&#45;&gt;Node9 -->
<g id="edge30" class="edge"><title>Node18&#45;&gt;Node9</title>
<path fill="none" stroke="midnightblue" d="M236.444,-224.177C238.801,-211.278 244.221,-186.768 254,-168 284.003,-110.418 336.817,-53.7272 363.533,-26.9596"/>
<polygon fill="midnightblue" stroke="midnightblue" points="366.281,-29.1646 370.932,-19.6452 361.36,-24.1864 366.281,-29.1646"/>
</g>
</g>
</svg>
