<?xml version="1.0" encoding="UTF-8" standalone="no"?>
<!DOCTYPE svg PUBLIC "-//W3C//DTD SVG 1.1//EN"
 "http://www.w3.org/Graphics/SVG/1.1/DTD/svg11.dtd">
<!-- Generated by graphviz version 2.30.1 (20130214.1330)
 -->
<!-- Title: Framework/SDConfigManager.h Pages: 1 -->
<!--zoomable 140 -->
<svg id="main" version="1.1" xmlns="http://www.w3.org/2000/svg" xmlns:xlink="http://www.w3.org/1999/xlink" xml:space="preserve" onload="init(evt)">
<style type="text/css"><![CDATA[
.edge:hover path { stroke: red; }
.edge:hover polygon { stroke: red; fill: red; }
]]></style>
<script type="text/javascript"><![CDATA[
var edges = document.getElementsByTagName('g');
if (edges && edges.length) {
  for (var i=0;i<edges.length;i++) {
    if (edges[i].id.substr(0,4)=='edge') {
      edges[i].setAttribute('class','edge');
    }
  }
}
]]></script>
        <defs>
                <circle id="rim" cx="0" cy="0" r="7"/>
                <circle id="rim2" cx="0" cy="0" r="3.5"/>
                <g id="zoomPlus">
                        <use xlink:href="#rim" fill="#404040">
                                <set attributeName="fill" to="#808080" begin="zoomplus.mouseover" end="zoomplus.mouseout"/>
                        </use>
                        <path d="M-4,0h8M0,-4v8" fill="none" stroke="white" stroke-width="1.5" pointer-events="none"/>
                </g>
                <g id="zoomMin">
                        <use xlink:href="#rim" fill="#404040">
                                <set attributeName="fill" to="#808080" begin="zoomminus.mouseover" end="zoomminus.mouseout"/>
                        </use>
                        <path d="M-4,0h8" fill="none" stroke="white" stroke-width="1.5" pointer-events="none"/>
                </g>
                <g id="dirArrow">
                        <path fill="none" stroke="white" stroke-width="1.5" d="M0,-3.0v7 M-2.5,-0.5L0,-3.0L2.5,-0.5"/>
                </g>
               <g id="resetDef">
                       <use xlink:href="#rim2" fill="#404040">
                               <set attributeName="fill" to="#808080" begin="reset.mouseover" end="reset.mouseout"/>
                       </use>
               </g>
        </defs>

<script type="text/javascript">
var viewWidth = 1878;
var viewHeight = 140;
var sectionId = 'dynsection-1';
</script>
<script xlink:href="svgpan.js"/>
<svg id="graph" class="graph">
<g id="viewport">
<title>Framework/SDConfigManager.h</title>
<polygon fill="white" stroke="white" points="-4,5 -4,-136 1875,-136 1875,5 -4,5"/>
<!-- Node1 -->
<g id="node1" class="node"><title>Node1</title>
<polygon fill="#bfbfbf" stroke="black" points="858,-112.5 858,-131.5 1012,-131.5 1012,-112.5 858,-112.5"/>
<text text-anchor="middle" x="935" y="-119.5" font-family="Helvetica,sans-Serif" font-size="10.00">Framework/SDConfigManager.h</text>
</g>
<!-- Node2 -->
<g id="node2" class="node"><title>Node2</title>
<g id="a_node2"><a xlink:href="_aquaduino_8h.html" target="_top" xlink:title="Aquaduino.h">
<polygon fill="white" stroke="black" points="899.5,-56.5 899.5,-75.5 970.5,-75.5 970.5,-56.5 899.5,-56.5"/>
<text text-anchor="middle" x="935" y="-63.5" font-family="Helvetica,sans-Serif" font-size="10.00">Aquaduino.h</text>
</a>
</g>
</g>
<!-- Node1&#45;&gt;Node2 -->
<g id="edge1" class="edge"><title>Node1&#45;&gt;Node2</title>
<path fill="none" stroke="midnightblue" d="M935,-101.805C935,-92.9102 935,-82.7798 935,-75.7511"/>
<polygon fill="midnightblue" stroke="midnightblue" points="931.5,-102.083 935,-112.083 938.5,-102.083 931.5,-102.083"/>
</g>
<!-- Node11 -->
<g id="node11" class="node"><title>Node11</title>
<g id="a_node11"><a xlink:href="_s_d_config_manager_8cpp.html" target="_top" xlink:title="Framework/SDConfigManager.cpp">
<polygon fill="white" stroke="black" points="1706,-0.5 1706,-19.5 1870,-19.5 1870,-0.5 1706,-0.5"/>
<text text-anchor="middle" x="1788" y="-7.5" font-family="Helvetica,sans-Serif" font-size="10.00">Framework/SDConfigManager.cpp</text>
</a>
</g>
</g>
<!-- Node1&#45;&gt;Node11 -->
<g id="edge15" class="edge"><title>Node1&#45;&gt;Node11</title>
<path fill="none" stroke="midnightblue" d="M1011.32,-111.159C1176.75,-89.8253 1566,-39.6278 1721.82,-19.5345"/>
<polygon fill="midnightblue" stroke="midnightblue" points="1010.69,-107.71 1001.22,-112.46 1011.59,-114.652 1010.69,-107.71"/>
</g>
<!-- Node3 -->
<g id="node3" class="node"><title>Node3</title>
<g id="a_node3"><a xlink:href="_digital_output_8cpp.html" target="_top" xlink:title="Actuators/DigitalOutput.cpp">
<polygon fill="white" stroke="black" points="158.5,-0.5 158.5,-19.5 295.5,-19.5 295.5,-0.5 158.5,-0.5"/>
<text text-anchor="middle" x="227" y="-7.5" font-family="Helvetica,sans-Serif" font-size="10.00">Actuators/DigitalOutput.cpp</text>
</a>
</g>
</g>
<!-- Node2&#45;&gt;Node3 -->
<g id="edge2" class="edge"><title>Node2&#45;&gt;Node3</title>
<path fill="none" stroke="midnightblue" d="M889.219,-62.4461C785.141,-56.4844 522.827,-40.5809 304,-20 301.32,-19.7479 298.589,-19.4803 295.831,-19.2012"/>
<polygon fill="midnightblue" stroke="midnightblue" points="889.191,-65.9501 899.374,-63.0249 889.59,-58.9614 889.191,-65.9501"/>
</g>
<!-- Node4 -->
<g id="node4" class="node"><title>Node4</title>
<g id="a_node4"><a xlink:href="_config_manager_8h.html" target="_top" xlink:title="Framework/ConfigManager.h">
<polygon fill="white" stroke="black" points="0,-0.5 0,-19.5 140,-19.5 140,-0.5 0,-0.5"/>
<text text-anchor="middle" x="70" y="-7.5" font-family="Helvetica,sans-Serif" font-size="10.00">Framework/ConfigManager.h</text>
</a>
</g>
</g>
<!-- Node2&#45;&gt;Node4 -->
<g id="edge3" class="edge"><title>Node2&#45;&gt;Node4</title>
<path fill="none" stroke="midnightblue" d="M889.289,-63.2829C768.323,-58.544 429.866,-44.0196 149,-20 146.112,-19.753 143.166,-19.4859 140.191,-19.2038"/>
<polygon fill="midnightblue" stroke="midnightblue" points="889.176,-66.781 899.304,-63.6723 889.448,-59.7863 889.176,-66.781"/>
</g>
<!-- Node5 -->
<g id="node5" class="node"><title>Node5</title>
<g id="a_node5"><a xlink:href="_aquaduino_8cpp.html" target="_top" xlink:title="Aquaduino.cpp">
<polygon fill="white" stroke="black" points="313.5,-0.5 313.5,-19.5 394.5,-19.5 394.5,-0.5 313.5,-0.5"/>
<text text-anchor="middle" x="354" y="-7.5" font-family="Helvetica,sans-Serif" font-size="10.00">Aquaduino.cpp</text>
</a>
</g>
</g>
<!-- Node2&#45;&gt;Node5 -->
<g id="edge5" class="edge"><title>Node2&#45;&gt;Node5</title>
<path fill="none" stroke="midnightblue" d="M889.365,-62.5752C797.299,-57.3655 582.843,-43.6213 404,-20 400.94,-19.5958 397.781,-19.1339 394.609,-18.6376"/>
<polygon fill="midnightblue" stroke="midnightblue" points="889.276,-66.0756 899.455,-63.1396 889.667,-59.0865 889.276,-66.0756"/>
</g>
<!-- Node6 -->
<g id="node6" class="node"><title>Node6</title>
<g id="a_node6"><a xlink:href="_clock_timer_controller_8cpp.html" target="_top" xlink:title="Controller/ClockTimerController.cpp">
<polygon fill="white" stroke="black" points="413,-0.5 413,-19.5 583,-19.5 583,-0.5 413,-0.5"/>
<text text-anchor="middle" x="498" y="-7.5" font-family="Helvetica,sans-Serif" font-size="10.00">Controller/ClockTimerController.cpp</text>
</a>
</g>
</g>
<!-- Node2&#45;&gt;Node6 -->
<g id="edge6" class="edge"><title>Node2&#45;&gt;Node6</title>
<path fill="none" stroke="midnightblue" d="M888.91,-59.3047C811.933,-49.7926 656.803,-30.6232 566.837,-19.5062"/>
<polygon fill="midnightblue" stroke="midnightblue" points="888.885,-62.8281 899.238,-60.581 889.743,-55.8809 888.885,-62.8281"/>
</g>
<!-- Node7 -->
<g id="node7" class="node"><title>Node7</title>
<g id="a_node7"><a xlink:href="_level_controller_8cpp.html" target="_top" xlink:title="Controller/LevelController.cpp">
<polygon fill="white" stroke="black" points="601.5,-0.5 601.5,-19.5 744.5,-19.5 744.5,-0.5 601.5,-0.5"/>
<text text-anchor="middle" x="673" y="-7.5" font-family="Helvetica,sans-Serif" font-size="10.00">Controller/LevelController.cpp</text>
</a>
</g>
</g>
<!-- Node2&#45;&gt;Node7 -->
<g id="edge7" class="edge"><title>Node2&#45;&gt;Node7</title>
<path fill="none" stroke="midnightblue" d="M889.329,-55.5869C840.04,-45.428 762.221,-29.3892 714.583,-19.5704"/>
<polygon fill="midnightblue" stroke="midnightblue" points="888.892,-59.0704 899.393,-57.6611 890.305,-52.2145 888.892,-59.0704"/>
</g>
<!-- Node8 -->
<g id="node8" class="node"><title>Node8</title>
<g id="a_node8"><a xlink:href="_temperature_controller_8cpp.html" target="_top" xlink:title="Controller/TemperatureController.cpp">
<polygon fill="white" stroke="black" points="762.5,-0.5 762.5,-19.5 937.5,-19.5 937.5,-0.5 762.5,-0.5"/>
<text text-anchor="middle" x="850" y="-7.5" font-family="Helvetica,sans-Serif" font-size="10.00">Controller/TemperatureController.cpp</text>
</a>
</g>
</g>
<!-- Node2&#45;&gt;Node8 -->
<g id="edge8" class="edge"><title>Node2&#45;&gt;Node8</title>
<path fill="none" stroke="midnightblue" d="M912.806,-50.9005C897.22,-40.9986 876.87,-28.0705 863.623,-19.6545"/>
<polygon fill="midnightblue" stroke="midnightblue" points="911.026,-53.9158 921.343,-56.324 914.779,-48.0073 911.026,-53.9158"/>
</g>
<!-- Node9 -->
<g id="node9" class="node"><title>Node9</title>
<g id="a_node9"><a xlink:href="_controller_8cpp.html" target="_top" xlink:title="Framework/Controller.cpp">
<polygon fill="white" stroke="black" points="956,-0.5 956,-19.5 1084,-19.5 1084,-0.5 956,-0.5"/>
<text text-anchor="middle" x="1020" y="-7.5" font-family="Helvetica,sans-Serif" font-size="10.00">Framework/Controller.cpp</text>
</a>
</g>
</g>
<!-- Node2&#45;&gt;Node9 -->
<g id="edge9" class="edge"><title>Node2&#45;&gt;Node9</title>
<path fill="none" stroke="midnightblue" d="M957.194,-50.9005C972.78,-40.9986 993.13,-28.0705 1006.38,-19.6545"/>
<polygon fill="midnightblue" stroke="midnightblue" points="955.221,-48.0073 948.657,-56.324 958.974,-53.9158 955.221,-48.0073"/>
</g>
<!-- Node10 -->
<g id="node10" class="node"><title>Node10</title>
<g id="a_node10"><a xlink:href="_n_t_p_sync_8cpp.html" target="_top" xlink:title="Framework/NTPSync.cpp">
<polygon fill="white" stroke="black" points="1102,-0.5 1102,-19.5 1230,-19.5 1230,-0.5 1102,-0.5"/>
<text text-anchor="middle" x="1166" y="-7.5" font-family="Helvetica,sans-Serif" font-size="10.00">Framework/NTPSync.cpp</text>
</a>
</g>
</g>
<!-- Node2&#45;&gt;Node10 -->
<g id="edge10" class="edge"><title>Node2&#45;&gt;Node10</title>
<path fill="none" stroke="midnightblue" d="M980.379,-54.3919C1024.05,-44.1831 1089.24,-28.944 1129.61,-19.5069"/>
<polygon fill="midnightblue" stroke="midnightblue" points="979.528,-50.9964 970.588,-56.6808 981.122,-57.8126 979.528,-50.9964"/>
</g>
<!-- Node2&#45;&gt;Node11 -->
<g id="edge11" class="edge"><title>Node2&#45;&gt;Node11</title>
<path fill="none" stroke="midnightblue" d="M980.904,-62.9239C1099.49,-57.4227 1425.77,-41.4127 1697,-20 1699.85,-19.7751 1702.75,-19.5373 1705.67,-19.2896"/>
<polygon fill="midnightblue" stroke="midnightblue" points="980.569,-59.4355 970.741,-63.3931 980.892,-66.4281 980.569,-59.4355"/>
</g>
<!-- Node12 -->
<g id="node12" class="node"><title>Node12</title>
<g id="a_node12"><a xlink:href="configweb_8cpp.html" target="_top" xlink:title="Webinterface/configweb.cpp">
<polygon fill="white" stroke="black" points="1248,-0.5 1248,-19.5 1386,-19.5 1386,-0.5 1248,-0.5"/>
<text text-anchor="middle" x="1317" y="-7.5" font-family="Helvetica,sans-Serif" font-size="10.00">Webinterface/configweb.cpp</text>
</a>
</g>
</g>
<!-- Node2&#45;&gt;Node12 -->
<g id="edge12" class="edge"><title>Node2&#45;&gt;Node12</title>
<path fill="none" stroke="midnightblue" d="M980.704,-58.5392C1049.62,-48.7975 1180.19,-30.3391 1256.79,-19.512"/>
<polygon fill="midnightblue" stroke="midnightblue" points="980.006,-55.103 970.595,-59.9683 980.986,-62.0341 980.006,-55.103"/>
</g>
<!-- Node13 -->
<g id="node13" class="node"><title>Node13</title>
<g id="a_node13"><a xlink:href="dispatch_8cpp.html" target="_top" xlink:title="Webinterface/dispatch.cpp">
<polygon fill="white" stroke="black" points="1404,-0.5 1404,-19.5 1536,-19.5 1536,-0.5 1404,-0.5"/>
<text text-anchor="middle" x="1470" y="-7.5" font-family="Helvetica,sans-Serif" font-size="10.00">Webinterface/dispatch.cpp</text>
</a>
</g>
</g>
<!-- Node2&#45;&gt;Node13 -->
<g id="edge13" class="edge"><title>Node2&#45;&gt;Node13</title>
<path fill="none" stroke="midnightblue" d="M980.583,-60.8745C1063.24,-53.3194 1243.34,-36.5156 1395,-20 1397.87,-19.6877 1400.8,-19.3625 1403.76,-19.0291"/>
<polygon fill="midnightblue" stroke="midnightblue" points="980.162,-57.3982 970.522,-61.7924 980.798,-64.3693 980.162,-57.3982"/>
</g>
<!-- Node14 -->
<g id="node14" class="node"><title>Node14</title>
<g id="a_node14"><a xlink:href="mainweb_8cpp.html" target="_top" xlink:title="Webinterface/mainweb.cpp">
<polygon fill="white" stroke="black" points="1554,-0.5 1554,-19.5 1688,-19.5 1688,-0.5 1554,-0.5"/>
<text text-anchor="middle" x="1621" y="-7.5" font-family="Helvetica,sans-Serif" font-size="10.00">Webinterface/mainweb.cpp</text>
</a>
</g>
</g>
<!-- Node2&#45;&gt;Node14 -->
<g id="edge14" class="edge"><title>Node2&#45;&gt;Node14</title>
<path fill="none" stroke="midnightblue" d="M981.035,-62.3018C1082.83,-56.1823 1334.69,-40.1997 1545,-20 1547.91,-19.7205 1550.88,-19.4226 1553.88,-19.1115"/>
<polygon fill="midnightblue" stroke="midnightblue" points="980.573,-58.8231 970.8,-62.9142 980.991,-65.8106 980.573,-58.8231"/>
</g>
<!-- Node4&#45;&gt;Node1 -->
<g id="edge4" class="edge"><title>Node4&#45;&gt;Node1</title>
<path fill="none" stroke="midnightblue" d="M147.094,-20.8038C314.666,-42.1136 709.717,-92.3513 867.845,-112.46"/>
<polygon fill="midnightblue" stroke="midnightblue" points="147.474,-17.3241 137.113,-19.5345 146.591,-24.2682 147.474,-17.3241"/>
</g>
</g>
</svg>
        <g id="navigator" transform="translate(0 0)" fill="#404254">
                <rect fill="#f2f5e9" fill-opacity="0.5" stroke="#606060" stroke-width=".5" x="0" y="0" width="60" height="60"/>
                <use id="zoomplus" xlink:href="#zoomPlus" x="17" y="9" onmousedown="handleZoom(evt,'in')"/>
                <use id="zoomminus" xlink:href="#zoomMin" x="42" y="9" onmousedown="handleZoom(evt,'out')"/>
                <use id="reset" xlink:href="#resetDef" x="30" y="36" onmousedown="handleReset()"/>
                <g id="arrowUp" xlink:href="#dirArrow" transform="translate(30 24)" onmousedown="handlePan(0,-1)">
                  <use xlink:href="#rim" fill="#404040">
                        <set attributeName="fill" to="#808080" begin="arrowUp.mouseover" end="arrowUp.mouseout"/>
                  </use>
                  <path fill="none" stroke="white" stroke-width="1.5" d="M0,-3.0v7 M-2.5,-0.5L0,-3.0L2.5,-0.5"/>
                </g>
                <g id="arrowRight" xlink:href="#dirArrow" transform="rotate(90) translate(36 -43)" onmousedown="handlePan(1,0)">
                  <use xlink:href="#rim" fill="#404040">
                        <set attributeName="fill" to="#808080" begin="arrowRight.mouseover" end="arrowRight.mouseout"/>
                  </use>
                  <path fill="none" stroke="white" stroke-width="1.5" d="M0,-3.0v7 M-2.5,-0.5L0,-3.0L2.5,-0.5"/>
                </g>
                <g id="arrowDown" xlink:href="#dirArrow" transform="rotate(180) translate(-30 -48)" onmousedown="handlePan(0,1)">
                  <use xlink:href="#rim" fill="#404040">
                        <set attributeName="fill" to="#808080" begin="arrowDown.mouseover" end="arrowDown.mouseout"/>
                  </use>
                  <path fill="none" stroke="white" stroke-width="1.5" d="M0,-3.0v7 M-2.5,-0.5L0,-3.0L2.5,-0.5"/>
                </g>
                <g id="arrowLeft" xlink:href="#dirArrow" transform="rotate(270) translate(-36 17)" onmousedown="handlePan(-1,0)">
                  <use xlink:href="#rim" fill="#404040">
                        <set attributeName="fill" to="#808080" begin="arrowLeft.mouseover" end="arrowLeft.mouseout"/>
                  </use>
                  <path fill="none" stroke="white" stroke-width="1.5" d="M0,-3.0v7 M-2.5,-0.5L0,-3.0L2.5,-0.5"/>
                </g>
        </g>
        <svg viewBox="0 0 15 15" width="100%" height="30px" preserveAspectRatio="xMaxYMin meet">
         <g id="arrow_out" transform="scale(0.3 0.3)">
          <a xlink:href="_s_d_config_manager_8h__dep__incl_org.svg" target="_base">
           <rect id="button" ry="5" rx="5" y="6" x="6" height="38" width="38"
                fill="#f2f5e9" fill-opacity="0.5" stroke="#606060" stroke-width="1.0"/>
           <path id="arrow"
             d="M 11.500037,31.436501 C 11.940474,20.09759 22.043105,11.32322 32.158766,21.979434 L 37.068811,17.246167 C 37.068811,17.246167 37.088388,32 37.088388,32 L 22.160133,31.978069 C 22.160133,31.978069 26.997745,27.140456 26.997745,27.140456 C 18.528582,18.264221 13.291696,25.230495 11.500037,31.436501 z"
             style="fill:#404040;"/>
          </a>
         </g>
        </svg>
</svg>
