<?xml version="1.0" encoding="UTF-8" standalone="no"?>
<!DOCTYPE svg PUBLIC "-//W3C//DTD SVG 1.1//EN"
 "http://www.w3.org/Graphics/SVG/1.1/DTD/svg11.dtd">
<!-- Generated by graphviz version 2.30.1 (20130214.1330)
 -->
<!-- Title: Framework/SDConfigManager.h Pages: 1 -->
<!--zoomable 420 -->
<svg id="main" version="1.1" xmlns="http://www.w3.org/2000/svg" xmlns:xlink="http://www.w3.org/1999/xlink" xml:space="preserve" onload="init(evt)">
<style type="text/css"><![CDATA[
.edge:hover path { stroke: red; }
.edge:hover polygon { stroke: red; fill: red; }
]]></style>
<script type="text/javascript"><![CDATA[
var edges = document.getElementsByTagName('g');
if (edges && edges.length) {
  for (var i=0;i<edges.length;i++) {
    if (edges[i].id.substr(0,4)=='edge') {
      edges[i].setAttribute('class','edge');
    }
  }
}
]]></script>
        <defs>
                <circle id="rim" cx="0" cy="0" r="7"/>
                <circle id="rim2" cx="0" cy="0" r="3.5"/>
                <g id="zoomPlus">
                        <use xlink:href="#rim" fill="#404040">
                                <set attributeName="fill" to="#808080" begin="zoomplus.mouseover" end="zoomplus.mouseout"/>
                        </use>
                        <path d="M-4,0h8M0,-4v8" fill="none" stroke="white" stroke-width="1.5" pointer-events="none"/>
                </g>
                <g id="zoomMin">
                        <use xlink:href="#rim" fill="#404040">
                                <set attributeName="fill" to="#808080" begin="zoomminus.mouseover" end="zoomminus.mouseout"/>
                        </use>
                        <path d="M-4,0h8" fill="none" stroke="white" stroke-width="1.5" pointer-events="none"/>
                </g>
                <g id="dirArrow">
                        <path fill="none" stroke="white" stroke-width="1.5" d="M0,-3.0v7 M-2.5,-0.5L0,-3.0L2.5,-0.5"/>
                </g>
               <g id="resetDef">
                       <use xlink:href="#rim2" fill="#404040">
                               <set attributeName="fill" to="#808080" begin="reset.mouseover" end="reset.mouseout"/>
                       </use>
               </g>
        </defs>

<script type="text/javascript">
var viewWidth = 899;
var viewHeight = 420;
var sectionId = 'dynsection-0';
</script>
<script xlink:href="svgpan.js"/>
<svg id="graph" class="graph">
<g id="viewport">
<title>Framework/SDConfigManager.h</title>
<polygon fill="white" stroke="white" points="-4,5 -4,-416 896,-416 896,5 -4,5"/>
<!-- Node1 -->
<g id="node1" class="node"><title>Node1</title>
<polygon fill="#bfbfbf" stroke="black" points="412,-392.5 412,-411.5 566,-411.5 566,-392.5 412,-392.5"/>
<text text-anchor="middle" x="489" y="-399.5" font-family="Helvetica,sans-Serif" font-size="10.00">Framework/SDConfigManager.h</text>
</g>
<!-- Node2 -->
<g id="node2" class="node"><title>Node2</title>
<g id="a_node2"><a xlink:href="_config_manager_8h.html" target="_top" xlink:title="ConfigManager.h">
<polygon fill="white" stroke="black" points="487.5,-336.5 487.5,-355.5 576.5,-355.5 576.5,-336.5 487.5,-336.5"/>
<text text-anchor="middle" x="532" y="-343.5" font-family="Helvetica,sans-Serif" font-size="10.00">ConfigManager.h</text>
</a>
</g>
</g>
<!-- Node1&#45;&gt;Node2 -->
<g id="edge1" class="edge"><title>Node1&#45;&gt;Node2</title>
<path fill="none" stroke="midnightblue" d="M496.101,-392.083C502.237,-384.377 511.27,-373.033 518.739,-363.653"/>
<polygon fill="midnightblue" stroke="midnightblue" points="521.54,-365.754 525.032,-355.751 516.064,-361.394 521.54,-365.754"/>
</g>
<!-- Node3 -->
<g id="node3" class="node"><title>Node3</title>
<polygon fill="white" stroke="#bfbfbf" points="223,-56.5 223,-75.5 281,-75.5 281,-56.5 223,-56.5"/>
<text text-anchor="middle" x="252" y="-63.5" font-family="Helvetica,sans-Serif" font-size="10.00">Arduino.h</text>
</g>
<!-- Node2&#45;&gt;Node3 -->
<g id="edge2" class="edge"><title>Node2&#45;&gt;Node3</title>
<path fill="none" stroke="midnightblue" d="M487.1,-345.216C358.842,-344.635 0,-334.148 0,-235 0,-235 0,-235 0,-177 0,-131.16 141.831,-92.1893 212.686,-75.5807"/>
<polygon fill="midnightblue" stroke="midnightblue" points="213.642,-78.9522 222.599,-73.2944 212.068,-72.1313 213.642,-78.9522"/>
</g>
<!-- Node4 -->
<g id="node4" class="node"><title>Node4</title>
<g id="a_node4"><a xlink:href="_aquaduino_8h.html" target="_top" xlink:title="Aquaduino.h">
<polygon fill="white" stroke="black" points="407.5,-280.5 407.5,-299.5 478.5,-299.5 478.5,-280.5 407.5,-280.5"/>
<text text-anchor="middle" x="443" y="-287.5" font-family="Helvetica,sans-Serif" font-size="10.00">Aquaduino.h</text>
</a>
</g>
</g>
<!-- Node2&#45;&gt;Node4 -->
<g id="edge3" class="edge"><title>Node2&#45;&gt;Node4</title>
<path fill="none" stroke="midnightblue" d="M517.701,-336.324C503.817,-327.9 482.508,-314.971 466.196,-305.074"/>
<polygon fill="midnightblue" stroke="midnightblue" points="467.629,-301.85 457.264,-299.655 463.998,-307.834 467.629,-301.85"/>
</g>
<!-- Node15 -->
<g id="node15" class="node"><title>Node15</title>
<g id="a_node15"><a xlink:href="_actuator_8h.html" target="_top" xlink:title="Framework/Actuator.h">
<polygon fill="white" stroke="black" points="506.5,-224.5 506.5,-243.5 619.5,-243.5 619.5,-224.5 506.5,-224.5"/>
<text text-anchor="middle" x="563" y="-231.5" font-family="Helvetica,sans-Serif" font-size="10.00">Framework/Actuator.h</text>
</a>
</g>
</g>
<!-- Node2&#45;&gt;Node15 -->
<g id="edge33" class="edge"><title>Node2&#45;&gt;Node15</title>
<path fill="none" stroke="midnightblue" d="M534.433,-336.368C539.458,-318.537 551.08,-277.295 557.851,-253.272"/>
<polygon fill="midnightblue" stroke="midnightblue" points="561.235,-254.166 560.579,-243.591 554.497,-252.267 561.235,-254.166"/>
</g>
<!-- Node9 -->
<g id="node9" class="node"><title>Node9</title>
<g id="a_node9"><a xlink:href="_controller_8h.html" target="_top" xlink:title="Framework/Controller.h">
<polygon fill="white" stroke="black" points="544.5,-168.5 544.5,-187.5 661.5,-187.5 661.5,-168.5 544.5,-168.5"/>
<text text-anchor="middle" x="603" y="-175.5" font-family="Helvetica,sans-Serif" font-size="10.00">Framework/Controller.h</text>
</a>
</g>
</g>
<!-- Node2&#45;&gt;Node9 -->
<g id="edge34" class="edge"><title>Node2&#45;&gt;Node9</title>
<path fill="none" stroke="midnightblue" d="M545.151,-336.347C567.264,-320.908 611.13,-286.236 628,-244 634.486,-227.761 625.665,-209.125 616.761,-195.983"/>
<polygon fill="midnightblue" stroke="midnightblue" points="619.523,-193.831 610.772,-187.859 613.889,-197.985 619.523,-193.831"/>
</g>
<!-- Node16 -->
<g id="node16" class="node"><title>Node16</title>
<g id="a_node16"><a xlink:href="_sensor_8h.html" target="_top" xlink:title="Framework/Sensor.h">
<polygon fill="white" stroke="black" points="783.5,-224.5 783.5,-243.5 890.5,-243.5 890.5,-224.5 783.5,-224.5"/>
<text text-anchor="middle" x="837" y="-231.5" font-family="Helvetica,sans-Serif" font-size="10.00">Framework/Sensor.h</text>
</a>
</g>
</g>
<!-- Node2&#45;&gt;Node16 -->
<g id="edge35" class="edge"><title>Node2&#45;&gt;Node16</title>
<path fill="none" stroke="midnightblue" d="M557.467,-336.373C583.719,-327.435 625.806,-312.984 662,-300 711.978,-282.071 769.658,-260.469 804.715,-247.238"/>
<polygon fill="midnightblue" stroke="midnightblue" points="806.289,-250.385 814.406,-243.576 803.814,-243.837 806.289,-250.385"/>
</g>
<!-- Node4&#45;&gt;Node3 -->
<g id="edge4" class="edge"><title>Node4&#45;&gt;Node3</title>
<path fill="none" stroke="midnightblue" d="M407.145,-284.426C362.106,-277.902 288.573,-264.407 271,-244 232.057,-198.777 241.053,-121.07 247.825,-85.6145"/>
<polygon fill="midnightblue" stroke="midnightblue" points="251.281,-86.1845 249.882,-75.6825 244.426,-84.765 251.281,-86.1845"/>
</g>
<!-- Node5 -->
<g id="node5" class="node"><title>Node5</title>
<polygon fill="white" stroke="#bfbfbf" points="28,-224.5 28,-243.5 90,-243.5 90,-224.5 28,-224.5"/>
<text text-anchor="middle" x="59" y="-231.5" font-family="Helvetica,sans-Serif" font-size="10.00">Ethernet.h</text>
</g>
<!-- Node4&#45;&gt;Node5 -->
<g id="edge5" class="edge"><title>Node4&#45;&gt;Node5</title>
<path fill="none" stroke="midnightblue" d="M407.18,-285.403C346.175,-279.042 218.045,-264.66 100.293,-244.096"/>
<polygon fill="midnightblue" stroke="midnightblue" points="100.844,-240.639 90.3882,-242.347 99.6272,-247.532 100.844,-240.639"/>
</g>
<!-- Node6 -->
<g id="node6" class="node"><title>Node6</title>
<polygon fill="white" stroke="#bfbfbf" points="280.5,-224.5 280.5,-243.5 373.5,-243.5 373.5,-224.5 280.5,-224.5"/>
<text text-anchor="middle" x="327" y="-231.5" font-family="Helvetica,sans-Serif" font-size="10.00">TemplateParser.h</text>
</g>
<!-- Node4&#45;&gt;Node6 -->
<g id="edge6" class="edge"><title>Node4&#45;&gt;Node6</title>
<path fill="none" stroke="midnightblue" d="M424.619,-280.444C405.784,-271.675 376.269,-257.935 354.621,-247.858"/>
<polygon fill="midnightblue" stroke="midnightblue" points="355.838,-244.564 345.295,-243.516 352.883,-250.91 355.838,-244.564"/>
</g>
<!-- Node7 -->
<g id="node7" class="node"><title>Node7</title>
<g id="a_node7"><a xlink:href="_config_8h.html" target="_top" xlink:title="Framework/Config.h">
<polygon fill="white" stroke="black" points="475.5,-56.5 475.5,-75.5 578.5,-75.5 578.5,-56.5 475.5,-56.5"/>
<text text-anchor="middle" x="527" y="-63.5" font-family="Helvetica,sans-Serif" font-size="10.00">Framework/Config.h</text>
</a>
</g>
</g>
<!-- Node4&#45;&gt;Node7 -->
<g id="edge7" class="edge"><title>Node4&#45;&gt;Node7</title>
<path fill="none" stroke="midnightblue" d="M437.669,-280.342C421.57,-252.974 376.774,-166.894 414,-112 425.917,-94.4276 445.904,-83.717 465.784,-77.1888"/>
<polygon fill="midnightblue" stroke="midnightblue" points="466.907,-80.5067 475.499,-74.3083 464.917,-73.7955 466.907,-80.5067"/>
</g>
<!-- Node4&#45;&gt;Node9 -->
<g id="edge9" class="edge"><title>Node4&#45;&gt;Node9</title>
<path fill="none" stroke="midnightblue" d="M448.272,-280.29C456.92,-266.641 475.34,-240.111 497,-224 516.803,-209.27 542.156,-198.282 563.102,-190.853"/>
<polygon fill="midnightblue" stroke="midnightblue" points="564.345,-194.127 572.682,-187.59 562.088,-187.501 564.345,-194.127"/>
</g>
<!-- Node4&#45;&gt;Node15 -->
<g id="edge19" class="edge"><title>Node4&#45;&gt;Node15</title>
<path fill="none" stroke="midnightblue" d="M462.014,-280.444C481.588,-271.636 512.308,-257.812 534.729,-247.722"/>
<polygon fill="midnightblue" stroke="midnightblue" points="536.392,-250.812 544.075,-243.516 533.519,-244.428 536.392,-250.812"/>
</g>
<!-- Node4&#45;&gt;Node16 -->
<g id="edge25" class="edge"><title>Node4&#45;&gt;Node16</title>
<path fill="none" stroke="midnightblue" d="M478.66,-284.113C545.305,-274.978 689.563,-255.207 773.299,-243.731"/>
<polygon fill="midnightblue" stroke="midnightblue" points="774.019,-247.165 783.451,-242.339 773.068,-240.23 774.019,-247.165"/>
</g>
<!-- Node17 -->
<g id="node17" class="node"><title>Node17</title>
<g id="a_node17"><a xlink:href="_array_list_8h.html" target="_top" xlink:title="Framework/ArrayList.h">
<polygon fill="white" stroke="black" points="108.5,-224.5 108.5,-243.5 223.5,-243.5 223.5,-224.5 108.5,-224.5"/>
<text text-anchor="middle" x="166" y="-231.5" font-family="Helvetica,sans-Serif" font-size="10.00">Framework/ArrayList.h</text>
</a>
</g>
</g>
<!-- Node4&#45;&gt;Node17 -->
<g id="edge27" class="edge"><title>Node4&#45;&gt;Node17</title>
<path fill="none" stroke="midnightblue" d="M407.354,-282.051C359.759,-272.773 275.039,-256.257 219.694,-245.467"/>
<polygon fill="midnightblue" stroke="midnightblue" points="220.202,-242.001 209.717,-243.522 218.863,-248.871 220.202,-242.001"/>
</g>
<!-- Node4&#45;&gt;Node1 -->
<g id="edge30" class="edge"><title>Node4&#45;&gt;Node1</title>
<path fill="none" stroke="midnightblue" d="M446.593,-299.591C454.069,-317.468 471.435,-358.997 481.472,-382.998"/>
<polygon fill="midnightblue" stroke="midnightblue" points="478.303,-384.493 485.39,-392.368 484.761,-381.792 478.303,-384.493"/>
</g>
<!-- Node10 -->
<g id="node10" class="node"><title>Node10</title>
<g id="a_node10"><a xlink:href="_object_8h.html" target="_top" xlink:title="Object.h">
<polygon fill="white" stroke="black" points="731.5,-112.5 731.5,-131.5 784.5,-131.5 784.5,-112.5 731.5,-112.5"/>
<text text-anchor="middle" x="758" y="-119.5" font-family="Helvetica,sans-Serif" font-size="10.00">Object.h</text>
</a>
</g>
</g>
<!-- Node4&#45;&gt;Node10 -->
<g id="edge31" class="edge"><title>Node4&#45;&gt;Node10</title>
<path fill="none" stroke="midnightblue" d="M478.86,-285.113C536.174,-277.067 648.694,-253.481 715,-188 729.099,-174.076 741.14,-154.81 748.862,-140.872"/>
<polygon fill="midnightblue" stroke="midnightblue" points="752.074,-142.287 753.69,-131.816 745.897,-138.994 752.074,-142.287"/>
</g>
<!-- Node12 -->
<g id="node12" class="node"><title>Node12</title>
<g id="a_node12"><a xlink:href="_serializable_8h.html" target="_top" xlink:title="Serializable.h">
<polygon fill="white" stroke="black" points="423.5,-112.5 423.5,-131.5 498.5,-131.5 498.5,-112.5 423.5,-112.5"/>
<text text-anchor="middle" x="461" y="-119.5" font-family="Helvetica,sans-Serif" font-size="10.00">Serializable.h</text>
</a>
</g>
</g>
<!-- Node4&#45;&gt;Node12 -->
<g id="edge32" class="edge"><title>Node4&#45;&gt;Node12</title>
<path fill="none" stroke="midnightblue" d="M443.968,-280.075C446.801,-253.945 455.122,-177.211 458.986,-141.577"/>
<polygon fill="midnightblue" stroke="midnightblue" points="462.472,-141.887 460.071,-131.568 455.513,-141.132 462.472,-141.887"/>
</g>
<!-- Node8 -->
<g id="node8" class="node"><title>Node8</title>
<polygon fill="white" stroke="#bfbfbf" points="219.5,-0.5 219.5,-19.5 268.5,-19.5 268.5,-0.5 219.5,-0.5"/>
<text text-anchor="middle" x="244" y="-7.5" font-family="Helvetica,sans-Serif" font-size="10.00">stdint.h</text>
</g>
<!-- Node7&#45;&gt;Node8 -->
<g id="edge8" class="edge"><title>Node7&#45;&gt;Node8</title>
<path fill="none" stroke="midnightblue" d="M482.158,-56.4435C425.583,-45.6484 329.521,-27.3185 278.399,-17.5637"/>
<polygon fill="midnightblue" stroke="midnightblue" points="278.979,-14.1113 268.5,-15.6749 277.667,-20.9873 278.979,-14.1113"/>
</g>
<!-- Node9&#45;&gt;Node10 -->
<g id="edge10" class="edge"><title>Node9&#45;&gt;Node10</title>
<path fill="none" stroke="midnightblue" d="M627.56,-168.444C653.523,-159.399 694.668,-145.064 723.797,-134.916"/>
<polygon fill="midnightblue" stroke="midnightblue" points="725.263,-138.112 733.555,-131.516 722.96,-131.501 725.263,-138.112"/>
</g>
<!-- Node9&#45;&gt;Node12 -->
<g id="edge13" class="edge"><title>Node9&#45;&gt;Node12</title>
<path fill="none" stroke="midnightblue" d="M580.5,-168.444C556.923,-159.478 519.678,-145.314 493.036,-135.183"/>
<polygon fill="midnightblue" stroke="midnightblue" points="493.986,-131.8 483.395,-131.516 491.498,-138.342 493.986,-131.8"/>
</g>
<!-- Node13 -->
<g id="node13" class="node"><title>Node13</title>
<g id="a_node13"><a xlink:href="_web_interface_8h.html" target="_top" xlink:title="WebInterface.h">
<polygon fill="white" stroke="black" points="631,-112.5 631,-131.5 713,-131.5 713,-112.5 631,-112.5"/>
<text text-anchor="middle" x="672" y="-119.5" font-family="Helvetica,sans-Serif" font-size="10.00">WebInterface.h</text>
</a>
</g>
</g>
<!-- Node9&#45;&gt;Node13 -->
<g id="edge15" class="edge"><title>Node9&#45;&gt;Node13</title>
<path fill="none" stroke="midnightblue" d="M614.086,-168.324C624.486,-160.185 640.261,-147.839 652.722,-138.087"/>
<polygon fill="midnightblue" stroke="midnightblue" points="654.994,-140.753 660.712,-131.834 650.68,-135.241 654.994,-140.753"/>
</g>
<!-- Node9&#45;&gt;Node7 -->
<g id="edge17" class="edge"><title>Node9&#45;&gt;Node7</title>
<path fill="none" stroke="midnightblue" d="M597.036,-168.368C584.494,-150.215 555.19,-107.802 538.739,-83.9902"/>
<polygon fill="midnightblue" stroke="midnightblue" points="541.5,-81.8292 532.936,-75.5914 535.741,-85.8083 541.5,-81.8292"/>
</g>
<!-- Node14 -->
<g id="node14" class="node"><title>Node14</title>
<polygon fill="white" stroke="#bfbfbf" points="600,-56.5 600,-75.5 672,-75.5 672,-56.5 600,-56.5"/>
<text text-anchor="middle" x="636" y="-63.5" font-family="Helvetica,sans-Serif" font-size="10.00">WebServer.h</text>
</g>
<!-- Node9&#45;&gt;Node14 -->
<g id="edge18" class="edge"><title>Node9&#45;&gt;Node14</title>
<path fill="none" stroke="midnightblue" d="M605.533,-168.154C609.131,-155.634 615.956,-132.035 622,-112 624.662,-103.177 627.692,-93.4058 630.25,-85.2295"/>
<polygon fill="midnightblue" stroke="midnightblue" points="633.613,-86.2026 633.272,-75.6133 626.935,-84.1042 633.613,-86.2026"/>
</g>
<!-- Node10&#45;&gt;Node7 -->
<g id="edge11" class="edge"><title>Node10&#45;&gt;Node7</title>
<path fill="none" stroke="midnightblue" d="M731.277,-114.262C728.152,-113.491 725.007,-112.723 722,-112 671.811,-99.9365 614.201,-86.719 574.686,-77.75"/>
<polygon fill="midnightblue" stroke="midnightblue" points="575.321,-74.3053 564.795,-75.5079 573.774,-81.1321 575.321,-74.3053"/>
</g>
<!-- Node11 -->
<g id="node11" class="node"><title>Node11</title>
<g id="a_node11"><a xlink:href="_object_types_8h.html" target="_top" xlink:title="Framework/ObjectTypes.h">
<polygon fill="white" stroke="black" points="692.5,-56.5 692.5,-75.5 823.5,-75.5 823.5,-56.5 692.5,-56.5"/>
<text text-anchor="middle" x="758" y="-63.5" font-family="Helvetica,sans-Serif" font-size="10.00">Framework/ObjectTypes.h</text>
</a>
</g>
</g>
<!-- Node10&#45;&gt;Node11 -->
<g id="edge12" class="edge"><title>Node10&#45;&gt;Node11</title>
<path fill="none" stroke="midnightblue" d="M758,-112.083C758,-105.006 758,-94.8611 758,-85.9865"/>
<polygon fill="midnightblue" stroke="midnightblue" points="761.5,-85.751 758,-75.7511 754.5,-85.7511 761.5,-85.751"/>
</g>
<!-- Node12&#45;&gt;Node3 -->
<g id="edge14" class="edge"><title>Node12&#45;&gt;Node3</title>
<path fill="none" stroke="midnightblue" d="M427.883,-112.444C390.718,-102.841 330.477,-87.2763 291.047,-77.0887"/>
<polygon fill="midnightblue" stroke="midnightblue" points="291.81,-73.6709 281.252,-74.558 290.059,-80.4484 291.81,-73.6709"/>
</g>
<!-- Node13&#45;&gt;Node14 -->
<g id="edge16" class="edge"><title>Node13&#45;&gt;Node14</title>
<path fill="none" stroke="midnightblue" d="M666.055,-112.083C661.023,-104.534 653.663,-93.4948 647.487,-84.2298"/>
<polygon fill="midnightblue" stroke="midnightblue" points="650.293,-82.1301 641.834,-75.7511 644.469,-86.0131 650.293,-82.1301"/>
</g>
<!-- Node15&#45;&gt;Node10 -->
<g id="edge20" class="edge"><title>Node15&#45;&gt;Node10</title>
<path fill="none" stroke="midnightblue" d="M598.098,-224.464C624.127,-217.185 659.829,-205.154 688,-188 709.787,-174.733 730.663,-153.944 743.858,-139.461"/>
<polygon fill="midnightblue" stroke="midnightblue" points="746.667,-141.569 750.688,-131.766 741.432,-136.921 746.667,-141.569"/>
</g>
<!-- Node15&#45;&gt;Node7 -->
<g id="edge21" class="edge"><title>Node15&#45;&gt;Node7</title>
<path fill="none" stroke="midnightblue" d="M555.79,-224.35C549.075,-215.737 539.453,-201.839 535,-188 523.81,-153.225 524.114,-110.001 525.472,-85.7583"/>
<polygon fill="midnightblue" stroke="midnightblue" points="528.964,-85.993 526.154,-75.7774 521.98,-85.5153 528.964,-85.993"/>
</g>
<!-- Node15&#45;&gt;Node9 -->
<g id="edge22" class="edge"><title>Node15&#45;&gt;Node9</title>
<path fill="none" stroke="midnightblue" d="M569.605,-224.083C575.255,-216.455 583.545,-205.264 590.451,-195.941"/>
<polygon fill="midnightblue" stroke="midnightblue" points="593.378,-197.87 596.518,-187.751 587.753,-193.703 593.378,-197.87"/>
</g>
<!-- Node15&#45;&gt;Node12 -->
<g id="edge23" class="edge"><title>Node15&#45;&gt;Node12</title>
<path fill="none" stroke="midnightblue" d="M548.493,-224.49C535.321,-216.285 515.889,-202.939 502,-188 488.696,-173.689 477.195,-154.479 469.789,-140.659"/>
<polygon fill="midnightblue" stroke="midnightblue" points="472.856,-138.97 465.152,-131.696 466.638,-142.186 472.856,-138.97"/>
</g>
<!-- Node15&#45;&gt;Node13 -->
<g id="edge24" class="edge"><title>Node15&#45;&gt;Node13</title>
<path fill="none" stroke="midnightblue" d="M612.683,-224.471C633.957,-218.126 656.881,-207.105 670,-188 679.178,-174.634 678.688,-155.809 676.489,-141.856"/>
<polygon fill="midnightblue" stroke="midnightblue" points="679.894,-141.033 674.511,-131.908 673.028,-142.398 679.894,-141.033"/>
</g>
<!-- Node16&#45;&gt;Node10 -->
<g id="edge26" class="edge"><title>Node16&#45;&gt;Node10</title>
<path fill="none" stroke="midnightblue" d="M830.801,-224.368C817.764,-206.215 787.303,-163.802 770.202,-139.99"/>
<polygon fill="midnightblue" stroke="midnightblue" points="772.846,-137.672 764.17,-131.591 767.161,-141.755 772.846,-137.672"/>
</g>
<!-- Node18 -->
<g id="node18" class="node"><title>Node18</title>
<polygon fill="white" stroke="#bfbfbf" points="140.5,-168.5 140.5,-187.5 191.5,-187.5 191.5,-168.5 140.5,-168.5"/>
<text text-anchor="middle" x="166" y="-175.5" font-family="Helvetica,sans-Serif" font-size="10.00">stddef.h</text>
</g>
<!-- Node17&#45;&gt;Node18 -->
<g id="edge28" class="edge"><title>Node17&#45;&gt;Node18</title>
<path fill="none" stroke="midnightblue" d="M166,-224.083C166,-217.006 166,-206.861 166,-197.986"/>
<polygon fill="midnightblue" stroke="midnightblue" points="169.5,-197.751 166,-187.751 162.5,-197.751 169.5,-197.751"/>
</g>
<!-- Node17&#45;&gt;Node8 -->
<g id="edge29" class="edge"><title>Node17&#45;&gt;Node8</title>
<path fill="none" stroke="midnightblue" d="M156.444,-224.45C147.912,-216.12 136.011,-202.604 131,-188 128.115,-179.592 128.272,-176.46 131,-168 150.054,-108.91 200.52,-53.286 227.092,-26.9391"/>
<polygon fill="midnightblue" stroke="midnightblue" points="229.777,-29.21 234.509,-19.731 224.899,-24.1898 229.777,-29.21"/>
</g>
</g>
</svg>
        <g id="navigator" transform="translate(0 0)" fill="#404254">
                <rect fill="#f2f5e9" fill-opacity="0.5" stroke="#606060" stroke-width=".5" x="0" y="0" width="60" height="60"/>
                <use id="zoomplus" xlink:href="#zoomPlus" x="17" y="9" onmousedown="handleZoom(evt,'in')"/>
                <use id="zoomminus" xlink:href="#zoomMin" x="42" y="9" onmousedown="handleZoom(evt,'out')"/>
                <use id="reset" xlink:href="#resetDef" x="30" y="36" onmousedown="handleReset()"/>
                <g id="arrowUp" xlink:href="#dirArrow" transform="translate(30 24)" onmousedown="handlePan(0,-1)">
                  <use xlink:href="#rim" fill="#404040">
                        <set attributeName="fill" to="#808080" begin="arrowUp.mouseover" end="arrowUp.mouseout"/>
                  </use>
                  <path fill="none" stroke="white" stroke-width="1.5" d="M0,-3.0v7 M-2.5,-0.5L0,-3.0L2.5,-0.5"/>
                </g>
                <g id="arrowRight" xlink:href="#dirArrow" transform="rotate(90) translate(36 -43)" onmousedown="handlePan(1,0)">
                  <use xlink:href="#rim" fill="#404040">
                        <set attributeName="fill" to="#808080" begin="arrowRight.mouseover" end="arrowRight.mouseout"/>
                  </use>
                  <path fill="none" stroke="white" stroke-width="1.5" d="M0,-3.0v7 M-2.5,-0.5L0,-3.0L2.5,-0.5"/>
                </g>
                <g id="arrowDown" xlink:href="#dirArrow" transform="rotate(180) translate(-30 -48)" onmousedown="handlePan(0,1)">
                  <use xlink:href="#rim" fill="#404040">
                        <set attributeName="fill" to="#808080" begin="arrowDown.mouseover" end="arrowDown.mouseout"/>
                  </use>
                  <path fill="none" stroke="white" stroke-width="1.5" d="M0,-3.0v7 M-2.5,-0.5L0,-3.0L2.5,-0.5"/>
                </g>
                <g id="arrowLeft" xlink:href="#dirArrow" transform="rotate(270) translate(-36 17)" onmousedown="handlePan(-1,0)">
                  <use xlink:href="#rim" fill="#404040">
                        <set attributeName="fill" to="#808080" begin="arrowLeft.mouseover" end="arrowLeft.mouseout"/>
                  </use>
                  <path fill="none" stroke="white" stroke-width="1.5" d="M0,-3.0v7 M-2.5,-0.5L0,-3.0L2.5,-0.5"/>
                </g>
        </g>
        <svg viewBox="0 0 15 15" width="100%" height="30px" preserveAspectRatio="xMaxYMin meet">
         <g id="arrow_out" transform="scale(0.3 0.3)">
          <a xlink:href="_s_d_config_manager_8h__incl_org.svg" target="_base">
           <rect id="button" ry="5" rx="5" y="6" x="6" height="38" width="38"
                fill="#f2f5e9" fill-opacity="0.5" stroke="#606060" stroke-width="1.0"/>
           <path id="arrow"
             d="M 11.500037,31.436501 C 11.940474,20.09759 22.043105,11.32322 32.158766,21.979434 L 37.068811,17.246167 C 37.068811,17.246167 37.088388,32 37.088388,32 L 22.160133,31.978069 C 22.160133,31.978069 26.997745,27.140456 26.997745,27.140456 C 18.528582,18.264221 13.291696,25.230495 11.500037,31.436501 z"
             style="fill:#404040;"/>
          </a>
         </g>
        </svg>
</svg>
