<?xml version="1.0" encoding="UTF-8" standalone="no"?>
<!DOCTYPE svg PUBLIC "-//W3C//DTD SVG 1.1//EN"
 "http://www.w3.org/Graphics/SVG/1.1/DTD/svg11.dtd">
<!-- Generated by graphviz version 2.30.1 (20130214.1330)
 -->
<!-- Title: Framework/Sensor.h Pages: 1 -->
<svg width="259pt" height="196pt"
 viewBox="0.00 0.00 259.00 196.00" xmlns="http://www.w3.org/2000/svg" xmlns:xlink="http://www.w3.org/1999/xlink">
<g id="graph0" class="graph" transform="scale(1 1) rotate(0) translate(4 192)">
<title>Framework/Sensor.h</title>
<polygon fill="white" stroke="white" points="-4,5 -4,-192 256,-192 256,5 -4,5"/>
<!-- Node1 -->
<g id="node1" class="node"><title>Node1</title>
<polygon fill="#bfbfbf" stroke="black" points="64.5,-168.5 64.5,-187.5 171.5,-187.5 171.5,-168.5 64.5,-168.5"/>
<text text-anchor="middle" x="118" y="-175.5" font-family="Helvetica,sans-Serif" font-size="10.00">Framework/Sensor.h</text>
</g>
<!-- Node2 -->
<g id="node2" class="node"><title>Node2</title>
<g id="a_node2"><a xlink:href="_object_8h.html" target="_top" xlink:title="Object.h">
<polygon fill="white" stroke="black" points="91.5,-112.5 91.5,-131.5 144.5,-131.5 144.5,-112.5 91.5,-112.5"/>
<text text-anchor="middle" x="118" y="-119.5" font-family="Helvetica,sans-Serif" font-size="10.00">Object.h</text>
</a>
</g>
</g>
<!-- Node1&#45;&gt;Node2 -->
<g id="edge1" class="edge"><title>Node1&#45;&gt;Node2</title>
<path fill="none" stroke="midnightblue" d="M118,-168.083C118,-161.006 118,-150.861 118,-141.986"/>
<polygon fill="midnightblue" stroke="midnightblue" points="121.5,-141.751 118,-131.751 114.5,-141.751 121.5,-141.751"/>
</g>
<!-- Node3 -->
<g id="node3" class="node"><title>Node3</title>
<g id="a_node3"><a xlink:href="_config_8h.html" target="_top" xlink:title="Framework/Config.h">
<polygon fill="white" stroke="black" points="-0.5,-56.5 -0.5,-75.5 102.5,-75.5 102.5,-56.5 -0.5,-56.5"/>
<text text-anchor="middle" x="51" y="-63.5" font-family="Helvetica,sans-Serif" font-size="10.00">Framework/Config.h</text>
</a>
</g>
</g>
<!-- Node2&#45;&gt;Node3 -->
<g id="edge2" class="edge"><title>Node2&#45;&gt;Node3</title>
<path fill="none" stroke="midnightblue" d="M107.235,-112.324C97.2339,-104.263 82.1135,-92.0765 70.0695,-82.3695"/>
<polygon fill="midnightblue" stroke="midnightblue" points="71.9429,-79.3841 61.9606,-75.8339 67.5502,-84.8343 71.9429,-79.3841"/>
</g>
<!-- Node5 -->
<g id="node5" class="node"><title>Node5</title>
<g id="a_node5"><a xlink:href="_object_types_8h.html" target="_top" xlink:title="Framework/ObjectTypes.h">
<polygon fill="white" stroke="black" points="120.5,-56.5 120.5,-75.5 251.5,-75.5 251.5,-56.5 120.5,-56.5"/>
<text text-anchor="middle" x="186" y="-63.5" font-family="Helvetica,sans-Serif" font-size="10.00">Framework/ObjectTypes.h</text>
</a>
</g>
</g>
<!-- Node2&#45;&gt;Node5 -->
<g id="edge4" class="edge"><title>Node2&#45;&gt;Node5</title>
<path fill="none" stroke="midnightblue" d="M128.925,-112.324C139.175,-104.185 154.721,-91.8395 167.001,-82.0874"/>
<polygon fill="midnightblue" stroke="midnightblue" points="169.221,-84.7937 174.876,-75.8339 164.868,-79.3119 169.221,-84.7937"/>
</g>
<!-- Node4 -->
<g id="node4" class="node"><title>Node4</title>
<polygon fill="white" stroke="#bfbfbf" points="26.5,-0.5 26.5,-19.5 75.5,-19.5 75.5,-0.5 26.5,-0.5"/>
<text text-anchor="middle" x="51" y="-7.5" font-family="Helvetica,sans-Serif" font-size="10.00">stdint.h</text>
</g>
<!-- Node3&#45;&gt;Node4 -->
<g id="edge3" class="edge"><title>Node3&#45;&gt;Node4</title>
<path fill="none" stroke="midnightblue" d="M51,-56.083C51,-49.0059 51,-38.8611 51,-29.9865"/>
<polygon fill="midnightblue" stroke="midnightblue" points="54.5001,-29.751 51,-19.7511 47.5001,-29.7511 54.5001,-29.751"/>
</g>
</g>
</svg>
