<?xml version="1.0" encoding="UTF-8" standalone="no"?>
<!DOCTYPE svg PUBLIC "-//W3C//DTD SVG 1.1//EN"
 "http://www.w3.org/Graphics/SVG/1.1/DTD/svg11.dtd">
<!-- Generated by graphviz version 2.30.1 (20130214.1330)
 -->
<!-- Title: Framework/Sensor.h Pages: 1 -->
<svg width="2046pt" height="252pt"
 viewBox="0.00 0.00 2046.00 252.00" xmlns="http://www.w3.org/2000/svg" xmlns:xlink="http://www.w3.org/1999/xlink">
<g id="graph0" class="graph" transform="scale(1 1) rotate(0) translate(4 248)">
<title>Framework/Sensor.h</title>
<polygon fill="white" stroke="white" points="-4,5 -4,-248 2043,-248 2043,5 -4,5"/>
<!-- Node1 -->
<g id="node1" class="node"><title>Node1</title>
<polygon fill="#bfbfbf" stroke="black" points="1035.5,-224.5 1035.5,-243.5 1142.5,-243.5 1142.5,-224.5 1035.5,-224.5"/>
<text text-anchor="middle" x="1089" y="-231.5" font-family="Helvetica,sans-Serif" font-size="10.00">Framework/Sensor.h</text>
</g>
<!-- Node2 -->
<g id="node2" class="node"><title>Node2</title>
<g id="a_node2"><a xlink:href="_aquaduino_8h.html" target="_top" xlink:title="Aquaduino.h">
<polygon fill="white" stroke="black" points="1053.5,-168.5 1053.5,-187.5 1124.5,-187.5 1124.5,-168.5 1053.5,-168.5"/>
<text text-anchor="middle" x="1089" y="-175.5" font-family="Helvetica,sans-Serif" font-size="10.00">Aquaduino.h</text>
</a>
</g>
</g>
<!-- Node1&#45;&gt;Node2 -->
<g id="edge1" class="edge"><title>Node1&#45;&gt;Node2</title>
<path fill="none" stroke="midnightblue" d="M1089,-213.805C1089,-204.91 1089,-194.78 1089,-187.751"/>
<polygon fill="midnightblue" stroke="midnightblue" points="1085.5,-214.083 1089,-224.083 1092.5,-214.083 1085.5,-214.083"/>
</g>
<!-- Node4 -->
<g id="node4" class="node"><title>Node4</title>
<g id="a_node4"><a xlink:href="_config_manager_8h.html" target="_top" xlink:title="Framework/ConfigManager.h">
<polygon fill="white" stroke="black" points="1898,-112.5 1898,-131.5 2038,-131.5 2038,-112.5 1898,-112.5"/>
<text text-anchor="middle" x="1968" y="-119.5" font-family="Helvetica,sans-Serif" font-size="10.00">Framework/ConfigManager.h</text>
</a>
</g>
</g>
<!-- Node1&#45;&gt;Node4 -->
<g id="edge17" class="edge"><title>Node1&#45;&gt;Node4</title>
<path fill="none" stroke="midnightblue" d="M1103.88,-216.788C1119.41,-201.11 1145.32,-178.262 1173,-168 1318.63,-114.006 1716.09,-143.177 1871,-132 1879.69,-131.373 1888.81,-130.634 1897.83,-129.854"/>
<polygon fill="midnightblue" stroke="midnightblue" points="1101.14,-214.587 1096.75,-224.229 1106.2,-219.429 1101.14,-214.587"/>
</g>
<!-- Node16 -->
<g id="node16" class="node"><title>Node16</title>
<g id="a_node16"><a xlink:href="_d_s18_s20_8h.html" target="_top" xlink:title="Sensors/DS18S20.h">
<polygon fill="white" stroke="black" points="199.5,-168.5 199.5,-187.5 304.5,-187.5 304.5,-168.5 199.5,-168.5"/>
<text text-anchor="middle" x="252" y="-175.5" font-family="Helvetica,sans-Serif" font-size="10.00">Sensors/DS18S20.h</text>
</a>
</g>
</g>
<!-- Node1&#45;&gt;Node16 -->
<g id="edge18" class="edge"><title>Node1&#45;&gt;Node16</title>
<path fill="none" stroke="midnightblue" d="M1024.93,-231.148C892.084,-226.896 577.062,-214.68 314,-188 310.97,-187.693 307.861,-187.345 304.727,-186.969"/>
<polygon fill="midnightblue" stroke="midnightblue" points="1025.21,-234.658 1035.32,-231.476 1025.43,-227.662 1025.21,-234.658"/>
</g>
<!-- Node18 -->
<g id="node18" class="node"><title>Node18</title>
<g id="a_node18"><a xlink:href="_digital_input_8h.html" target="_top" xlink:title="Sensors/DigitalInput.h">
<polygon fill="white" stroke="black" points="323,-168.5 323,-187.5 435,-187.5 435,-168.5 323,-168.5"/>
<text text-anchor="middle" x="379" y="-175.5" font-family="Helvetica,sans-Serif" font-size="10.00">Sensors/DigitalInput.h</text>
</a>
</g>
</g>
<!-- Node1&#45;&gt;Node18 -->
<g id="edge21" class="edge"><title>Node1&#45;&gt;Node18</title>
<path fill="none" stroke="midnightblue" d="M1024.98,-228.131C887.453,-217.671 565.757,-193.204 435.377,-183.288"/>
<polygon fill="midnightblue" stroke="midnightblue" points="1025.11,-231.651 1035.34,-228.919 1025.64,-224.671 1025.11,-231.651"/>
</g>
<!-- Node20 -->
<g id="node20" class="node"><title>Node20</title>
<g id="a_node20"><a xlink:href="_sensor_8cpp.html" target="_top" xlink:title="Framework/Sensor.cpp">
<polygon fill="white" stroke="black" points="1181.5,-168.5 1181.5,-187.5 1298.5,-187.5 1298.5,-168.5 1181.5,-168.5"/>
<text text-anchor="middle" x="1240" y="-175.5" font-family="Helvetica,sans-Serif" font-size="10.00">Framework/Sensor.cpp</text>
</a>
</g>
</g>
<!-- Node1&#45;&gt;Node20 -->
<g id="edge24" class="edge"><title>Node1&#45;&gt;Node20</title>
<path fill="none" stroke="midnightblue" d="M1122.45,-221.039C1150.86,-210.879 1190.94,-196.546 1216.19,-187.516"/>
<polygon fill="midnightblue" stroke="midnightblue" points="1121.16,-217.781 1112.93,-224.444 1123.52,-224.372 1121.16,-217.781"/>
</g>
<!-- Node3 -->
<g id="node3" class="node"><title>Node3</title>
<g id="a_node3"><a xlink:href="_digital_output_8cpp.html" target="_top" xlink:title="Actuators/DigitalOutput.cpp">
<polygon fill="white" stroke="black" points="373.5,-112.5 373.5,-131.5 510.5,-131.5 510.5,-112.5 373.5,-112.5"/>
<text text-anchor="middle" x="442" y="-119.5" font-family="Helvetica,sans-Serif" font-size="10.00">Actuators/DigitalOutput.cpp</text>
</a>
</g>
</g>
<!-- Node2&#45;&gt;Node3 -->
<g id="edge2" class="edge"><title>Node2&#45;&gt;Node3</title>
<path fill="none" stroke="midnightblue" d="M1043.09,-173.781C946.925,-166.94 717.295,-150.093 525,-132 520.382,-131.566 515.622,-131.099 510.827,-130.615"/>
<polygon fill="midnightblue" stroke="midnightblue" points="1043.11,-177.291 1053.34,-174.508 1043.61,-170.309 1043.11,-177.291"/>
</g>
<!-- Node2&#45;&gt;Node4 -->
<g id="edge3" class="edge"><title>Node2&#45;&gt;Node4</title>
<path fill="none" stroke="midnightblue" d="M1135.04,-168.483C1136.37,-168.31 1137.69,-168.148 1139,-168 1468.38,-130.558 1553.5,-157.669 1884,-132 1888.53,-131.648 1893.2,-131.249 1897.9,-130.82"/>
<polygon fill="midnightblue" stroke="midnightblue" points="1134.09,-165.085 1124.7,-169.994 1135.1,-172.011 1134.09,-165.085"/>
</g>
<!-- Node7 -->
<g id="node7" class="node"><title>Node7</title>
<g id="a_node7"><a xlink:href="_aquaduino_8cpp.html" target="_top" xlink:title="Aquaduino.cpp">
<polygon fill="white" stroke="black" points="274.5,-112.5 274.5,-131.5 355.5,-131.5 355.5,-112.5 274.5,-112.5"/>
<text text-anchor="middle" x="315" y="-119.5" font-family="Helvetica,sans-Serif" font-size="10.00">Aquaduino.cpp</text>
</a>
</g>
</g>
<!-- Node2&#45;&gt;Node7 -->
<g id="edge7" class="edge"><title>Node2&#45;&gt;Node7</title>
<path fill="none" stroke="midnightblue" d="M1043.24,-176.059C928.507,-173.288 619.518,-163.282 364,-132 361.253,-131.664 358.427,-131.271 355.584,-130.841"/>
<polygon fill="midnightblue" stroke="midnightblue" points="1043.33,-179.562 1053.4,-176.298 1043.49,-172.564 1043.33,-179.562"/>
</g>
<!-- Node8 -->
<g id="node8" class="node"><title>Node8</title>
<g id="a_node8"><a xlink:href="_clock_timer_controller_8cpp.html" target="_top" xlink:title="Controller/ClockTimerController.cpp">
<polygon fill="white" stroke="black" points="567,-112.5 567,-131.5 737,-131.5 737,-112.5 567,-112.5"/>
<text text-anchor="middle" x="652" y="-119.5" font-family="Helvetica,sans-Serif" font-size="10.00">Controller/ClockTimerController.cpp</text>
</a>
</g>
</g>
<!-- Node2&#45;&gt;Node8 -->
<g id="edge8" class="edge"><title>Node2&#45;&gt;Node8</title>
<path fill="none" stroke="midnightblue" d="M1042.91,-171.305C965.933,-161.793 810.803,-142.623 720.837,-131.506"/>
<polygon fill="midnightblue" stroke="midnightblue" points="1042.88,-174.828 1053.24,-172.581 1043.74,-167.881 1042.88,-174.828"/>
</g>
<!-- Node9 -->
<g id="node9" class="node"><title>Node9</title>
<g id="a_node9"><a xlink:href="_level_controller_8cpp.html" target="_top" xlink:title="Controller/LevelController.cpp">
<polygon fill="white" stroke="black" points="755.5,-112.5 755.5,-131.5 898.5,-131.5 898.5,-112.5 755.5,-112.5"/>
<text text-anchor="middle" x="827" y="-119.5" font-family="Helvetica,sans-Serif" font-size="10.00">Controller/LevelController.cpp</text>
</a>
</g>
</g>
<!-- Node2&#45;&gt;Node9 -->
<g id="edge9" class="edge"><title>Node2&#45;&gt;Node9</title>
<path fill="none" stroke="midnightblue" d="M1043.33,-167.587C994.04,-157.428 916.221,-141.389 868.583,-131.57"/>
<polygon fill="midnightblue" stroke="midnightblue" points="1042.89,-171.07 1053.39,-169.661 1044.31,-164.214 1042.89,-171.07"/>
</g>
<!-- Node10 -->
<g id="node10" class="node"><title>Node10</title>
<g id="a_node10"><a xlink:href="_temperature_controller_8cpp.html" target="_top" xlink:title="Controller/TemperatureController.cpp">
<polygon fill="white" stroke="black" points="916.5,-112.5 916.5,-131.5 1091.5,-131.5 1091.5,-112.5 916.5,-112.5"/>
<text text-anchor="middle" x="1004" y="-119.5" font-family="Helvetica,sans-Serif" font-size="10.00">Controller/TemperatureController.cpp</text>
</a>
</g>
</g>
<!-- Node2&#45;&gt;Node10 -->
<g id="edge10" class="edge"><title>Node2&#45;&gt;Node10</title>
<path fill="none" stroke="midnightblue" d="M1066.81,-162.901C1051.22,-152.999 1030.87,-140.071 1017.62,-131.655"/>
<polygon fill="midnightblue" stroke="midnightblue" points="1065.03,-165.916 1075.34,-168.324 1068.78,-160.007 1065.03,-165.916"/>
</g>
<!-- Node11 -->
<g id="node11" class="node"><title>Node11</title>
<g id="a_node11"><a xlink:href="_controller_8cpp.html" target="_top" xlink:title="Framework/Controller.cpp">
<polygon fill="white" stroke="black" points="1110,-112.5 1110,-131.5 1238,-131.5 1238,-112.5 1110,-112.5"/>
<text text-anchor="middle" x="1174" y="-119.5" font-family="Helvetica,sans-Serif" font-size="10.00">Framework/Controller.cpp</text>
</a>
</g>
</g>
<!-- Node2&#45;&gt;Node11 -->
<g id="edge11" class="edge"><title>Node2&#45;&gt;Node11</title>
<path fill="none" stroke="midnightblue" d="M1111.19,-162.901C1126.78,-152.999 1147.13,-140.071 1160.38,-131.655"/>
<polygon fill="midnightblue" stroke="midnightblue" points="1109.22,-160.007 1102.66,-168.324 1112.97,-165.916 1109.22,-160.007"/>
</g>
<!-- Node12 -->
<g id="node12" class="node"><title>Node12</title>
<g id="a_node12"><a xlink:href="_n_t_p_sync_8cpp.html" target="_top" xlink:title="Framework/NTPSync.cpp">
<polygon fill="white" stroke="black" points="1256,-112.5 1256,-131.5 1384,-131.5 1384,-112.5 1256,-112.5"/>
<text text-anchor="middle" x="1320" y="-119.5" font-family="Helvetica,sans-Serif" font-size="10.00">Framework/NTPSync.cpp</text>
</a>
</g>
</g>
<!-- Node2&#45;&gt;Node12 -->
<g id="edge12" class="edge"><title>Node2&#45;&gt;Node12</title>
<path fill="none" stroke="midnightblue" d="M1134.38,-166.392C1178.05,-156.183 1243.24,-140.944 1283.61,-131.507"/>
<polygon fill="midnightblue" stroke="midnightblue" points="1133.53,-162.996 1124.59,-168.681 1135.12,-169.813 1133.53,-162.996"/>
</g>
<!-- Node6 -->
<g id="node6" class="node"><title>Node6</title>
<g id="a_node6"><a xlink:href="_s_d_config_manager_8cpp.html" target="_top" xlink:title="Framework/SDConfigManager.cpp">
<polygon fill="white" stroke="black" points="1122,-0.5 1122,-19.5 1286,-19.5 1286,-0.5 1122,-0.5"/>
<text text-anchor="middle" x="1204" y="-7.5" font-family="Helvetica,sans-Serif" font-size="10.00">Framework/SDConfigManager.cpp</text>
</a>
</g>
</g>
<!-- Node2&#45;&gt;Node6 -->
<g id="edge13" class="edge"><title>Node2&#45;&gt;Node6</title>
<path fill="none" stroke="midnightblue" d="M1042.89,-176.576C919.787,-174.97 590.503,-167.374 558,-132 551.986,-125.455 552.22,-118.753 558,-112 629.686,-28.2352 964.524,-13.4382 1121.89,-11.1734"/>
<polygon fill="midnightblue" stroke="midnightblue" points="1043.08,-180.079 1053.12,-176.702 1043.16,-173.079 1043.08,-180.079"/>
</g>
<!-- Node13 -->
<g id="node13" class="node"><title>Node13</title>
<g id="a_node13"><a xlink:href="configweb_8cpp.html" target="_top" xlink:title="Webinterface/configweb.cpp">
<polygon fill="white" stroke="black" points="1402,-112.5 1402,-131.5 1540,-131.5 1540,-112.5 1402,-112.5"/>
<text text-anchor="middle" x="1471" y="-119.5" font-family="Helvetica,sans-Serif" font-size="10.00">Webinterface/configweb.cpp</text>
</a>
</g>
</g>
<!-- Node2&#45;&gt;Node13 -->
<g id="edge14" class="edge"><title>Node2&#45;&gt;Node13</title>
<path fill="none" stroke="midnightblue" d="M1134.61,-168.705C1136.09,-168.463 1137.56,-168.228 1139,-168 1229.64,-153.707 1334.64,-139.942 1401.88,-131.481"/>
<polygon fill="midnightblue" stroke="midnightblue" points="1134.03,-165.255 1124.75,-170.371 1135.19,-172.157 1134.03,-165.255"/>
</g>
<!-- Node14 -->
<g id="node14" class="node"><title>Node14</title>
<g id="a_node14"><a xlink:href="dispatch_8cpp.html" target="_top" xlink:title="Webinterface/dispatch.cpp">
<polygon fill="white" stroke="black" points="1558,-112.5 1558,-131.5 1690,-131.5 1690,-112.5 1558,-112.5"/>
<text text-anchor="middle" x="1624" y="-119.5" font-family="Helvetica,sans-Serif" font-size="10.00">Webinterface/dispatch.cpp</text>
</a>
</g>
</g>
<!-- Node2&#45;&gt;Node14 -->
<g id="edge15" class="edge"><title>Node2&#45;&gt;Node14</title>
<path fill="none" stroke="midnightblue" d="M1134.6,-168.616C1136.08,-168.4 1137.55,-168.193 1139,-168 1320.31,-143.772 1367.06,-150.9 1549,-132 1551.87,-131.702 1554.8,-131.389 1557.76,-131.065"/>
<polygon fill="midnightblue" stroke="midnightblue" points="1134.05,-165.158 1124.72,-170.165 1135.14,-172.074 1134.05,-165.158"/>
</g>
<!-- Node15 -->
<g id="node15" class="node"><title>Node15</title>
<g id="a_node15"><a xlink:href="mainweb_8cpp.html" target="_top" xlink:title="Webinterface/mainweb.cpp">
<polygon fill="white" stroke="black" points="1708,-112.5 1708,-131.5 1842,-131.5 1842,-112.5 1708,-112.5"/>
<text text-anchor="middle" x="1775" y="-119.5" font-family="Helvetica,sans-Serif" font-size="10.00">Webinterface/mainweb.cpp</text>
</a>
</g>
</g>
<!-- Node2&#45;&gt;Node15 -->
<g id="edge16" class="edge"><title>Node2&#45;&gt;Node15</title>
<path fill="none" stroke="midnightblue" d="M1134.59,-168.571C1136.08,-168.368 1137.55,-168.177 1139,-168 1386.57,-137.86 1450.63,-154.673 1699,-132 1701.91,-131.734 1704.88,-131.448 1707.88,-131.146"/>
<polygon fill="midnightblue" stroke="midnightblue" points="1134.07,-165.111 1124.7,-170.063 1135.11,-172.032 1134.07,-165.111"/>
</g>
<!-- Node5 -->
<g id="node5" class="node"><title>Node5</title>
<g id="a_node5"><a xlink:href="_s_d_config_manager_8h.html" target="_top" xlink:title="Framework/SDConfigManager.h">
<polygon fill="white" stroke="black" points="1793,-56.5 1793,-75.5 1947,-75.5 1947,-56.5 1793,-56.5"/>
<text text-anchor="middle" x="1870" y="-63.5" font-family="Helvetica,sans-Serif" font-size="10.00">Framework/SDConfigManager.h</text>
</a>
</g>
</g>
<!-- Node4&#45;&gt;Node5 -->
<g id="edge4" class="edge"><title>Node4&#45;&gt;Node5</title>
<path fill="none" stroke="midnightblue" d="M1943.41,-107.453C1925.32,-97.4835 1901.27,-84.2279 1885.71,-75.6545"/>
<polygon fill="midnightblue" stroke="midnightblue" points="1941.81,-110.563 1952.25,-112.324 1945.19,-104.432 1941.81,-110.563"/>
</g>
<!-- Node5&#45;&gt;Node2 -->
<g id="edge5" class="edge"><title>Node5&#45;&gt;Node2</title>
<path fill="none" stroke="midnightblue" d="M1870,-86.1202C1868.88,-101.117 1864.68,-121.2 1851,-132 1788.84,-181.094 1217.7,-158.965 1139,-168 1134.36,-168.533 1129.49,-169.231 1124.7,-170.003"/>
<polygon fill="midnightblue" stroke="midnightblue" points="1873.51,-85.9988 1870.36,-75.8819 1866.52,-85.7527 1873.51,-85.9988"/>
</g>
<!-- Node5&#45;&gt;Node6 -->
<g id="edge6" class="edge"><title>Node5&#45;&gt;Node6</title>
<path fill="none" stroke="midnightblue" d="M1782.69,-57.9207C1653.3,-47.4296 1412.37,-27.8946 1286.07,-17.6542"/>
<polygon fill="midnightblue" stroke="midnightblue" points="1782.7,-61.4331 1792.95,-58.7528 1783.27,-54.456 1782.7,-61.4331"/>
</g>
<!-- Node16&#45;&gt;Node7 -->
<g id="edge19" class="edge"><title>Node16&#45;&gt;Node7</title>
<path fill="none" stroke="midnightblue" d="M270.04,-161.537C281.273,-151.909 295.319,-139.869 304.694,-131.834"/>
<polygon fill="midnightblue" stroke="midnightblue" points="267.437,-159.159 262.122,-168.324 271.992,-164.473 267.437,-159.159"/>
</g>
<!-- Node17 -->
<g id="node17" class="node"><title>Node17</title>
<g id="a_node17"><a xlink:href="_d_s18_s20_8cpp.html" target="_top" xlink:title="Sensors/DS18S20.cpp">
<polygon fill="white" stroke="black" points="0,-112.5 0,-131.5 116,-131.5 116,-112.5 0,-112.5"/>
<text text-anchor="middle" x="58" y="-119.5" font-family="Helvetica,sans-Serif" font-size="10.00">Sensors/DS18S20.cpp</text>
</a>
</g>
</g>
<!-- Node16&#45;&gt;Node17 -->
<g id="edge20" class="edge"><title>Node16&#45;&gt;Node17</title>
<path fill="none" stroke="midnightblue" d="M211.399,-165.699C174.785,-155.507 121.743,-140.743 88.5961,-131.516"/>
<polygon fill="midnightblue" stroke="midnightblue" points="210.688,-169.134 221.26,-168.444 212.565,-162.39 210.688,-169.134"/>
</g>
<!-- Node18&#45;&gt;Node7 -->
<g id="edge22" class="edge"><title>Node18&#45;&gt;Node7</title>
<path fill="none" stroke="midnightblue" d="M361.009,-161.82C349.542,-152.145 335.087,-139.948 325.47,-131.834"/>
<polygon fill="midnightblue" stroke="midnightblue" points="358.817,-164.55 368.717,-168.324 363.331,-159.2 358.817,-164.55"/>
</g>
<!-- Node19 -->
<g id="node19" class="node"><title>Node19</title>
<g id="a_node19"><a xlink:href="_digital_input_8cpp.html" target="_top" xlink:title="Sensors/DigitalInput.cpp">
<polygon fill="white" stroke="black" points="134,-112.5 134,-131.5 256,-131.5 256,-112.5 134,-112.5"/>
<text text-anchor="middle" x="195" y="-119.5" font-family="Helvetica,sans-Serif" font-size="10.00">Sensors/DigitalInput.cpp</text>
</a>
</g>
</g>
<!-- Node18&#45;&gt;Node19 -->
<g id="edge23" class="edge"><title>Node18&#45;&gt;Node19</title>
<path fill="none" stroke="midnightblue" d="M340.046,-165.568C305.335,-155.381 255.323,-140.703 224.019,-131.516"/>
<polygon fill="midnightblue" stroke="midnightblue" points="339.264,-168.986 349.845,-168.444 341.235,-162.269 339.264,-168.986"/>
</g>
</g>
</svg>
