<?xml version="1.0" encoding="UTF-8" standalone="no"?>
<!DOCTYPE svg PUBLIC "-//W3C//DTD SVG 1.1//EN"
 "http://www.w3.org/Graphics/SVG/1.1/DTD/svg11.dtd">
<!-- Generated by graphviz version 2.30.1 (20130214.1330)
 -->
<!-- Title: Framework/Serializable.h Pages: 1 -->
<svg width="1923pt" height="364pt"
 viewBox="0.00 0.00 1923.00 364.00" xmlns="http://www.w3.org/2000/svg" xmlns:xlink="http://www.w3.org/1999/xlink">
<g id="graph0" class="graph" transform="scale(1 1) rotate(0) translate(4 360)">
<title>Framework/Serializable.h</title>
<polygon fill="white" stroke="white" points="-4,5 -4,-360 1920,-360 1920,5 -4,5"/>
<!-- Node1 -->
<g id="node1" class="node"><title>Node1</title>
<polygon fill="#bfbfbf" stroke="black" points="707,-336.5 707,-355.5 833,-355.5 833,-336.5 707,-336.5"/>
<text text-anchor="middle" x="770" y="-343.5" font-family="Helvetica,sans-Serif" font-size="10.00">Framework/Serializable.h</text>
</g>
<!-- Node2 -->
<g id="node2" class="node"><title>Node2</title>
<g id="a_node2"><a xlink:href="_controller_8h.html" target="_top" xlink:title="Framework/Controller.h">
<polygon fill="white" stroke="black" points="619.5,-280.5 619.5,-299.5 736.5,-299.5 736.5,-280.5 619.5,-280.5"/>
<text text-anchor="middle" x="678" y="-287.5" font-family="Helvetica,sans-Serif" font-size="10.00">Framework/Controller.h</text>
</a>
</g>
</g>
<!-- Node1&#45;&gt;Node2 -->
<g id="edge1" class="edge"><title>Node1&#45;&gt;Node2</title>
<path fill="none" stroke="midnightblue" d="M746.45,-331.177C729.521,-321.241 707.217,-308.149 692.745,-299.655"/>
<polygon fill="midnightblue" stroke="midnightblue" points="744.823,-334.28 755.219,-336.324 748.366,-328.243 744.823,-334.28"/>
</g>
<!-- Node17 -->
<g id="node17" class="node"><title>Node17</title>
<g id="a_node17"><a xlink:href="_actuator_8h.html" target="_top" xlink:title="Framework/Actuator.h">
<polygon fill="white" stroke="black" points="339.5,-224.5 339.5,-243.5 452.5,-243.5 452.5,-224.5 339.5,-224.5"/>
<text text-anchor="middle" x="396" y="-231.5" font-family="Helvetica,sans-Serif" font-size="10.00">Framework/Actuator.h</text>
</a>
</g>
</g>
<!-- Node1&#45;&gt;Node17 -->
<g id="edge41" class="edge"><title>Node1&#45;&gt;Node17</title>
<path fill="none" stroke="midnightblue" d="M728.98,-333.715C696.618,-324.751 650.36,-311.804 610,-300 542.918,-280.381 464.372,-256.216 423.647,-243.598"/>
<polygon fill="midnightblue" stroke="midnightblue" points="728.403,-337.187 738.974,-336.479 730.269,-330.44 728.403,-337.187"/>
</g>
<!-- Node3 -->
<g id="node3" class="node"><title>Node3</title>
<g id="a_node3"><a xlink:href="_aquaduino_8h.html" target="_top" xlink:title="Aquaduino.h">
<polygon fill="white" stroke="black" points="1004.5,-168.5 1004.5,-187.5 1075.5,-187.5 1075.5,-168.5 1004.5,-168.5"/>
<text text-anchor="middle" x="1040" y="-175.5" font-family="Helvetica,sans-Serif" font-size="10.00">Aquaduino.h</text>
</a>
</g>
</g>
<!-- Node1&#45;&gt;Node3 -->
<g id="edge42" class="edge"><title>Node1&#45;&gt;Node3</title>
<path fill="none" stroke="midnightblue" d="M843.352,-344.022C916.361,-338.639 1024.96,-317.733 1078,-244 1091.82,-224.794 1067.1,-200.253 1051.43,-187.523"/>
<polygon fill="midnightblue" stroke="midnightblue" points="843.044,-340.535 833.295,-344.683 843.503,-347.52 843.044,-340.535"/>
</g>
<!-- Node25 -->
<g id="node25" class="node"><title>Node25</title>
<g id="a_node25"><a xlink:href="_clock_timer_8h.html" target="_top" xlink:title="Controller/ClockTimer.h">
<polygon fill="white" stroke="black" points="784,-280.5 784,-299.5 902,-299.5 902,-280.5 784,-280.5"/>
<text text-anchor="middle" x="843" y="-287.5" font-family="Helvetica,sans-Serif" font-size="10.00">Controller/ClockTimer.h</text>
</a>
</g>
</g>
<!-- Node1&#45;&gt;Node25 -->
<g id="edge43" class="edge"><title>Node1&#45;&gt;Node25</title>
<path fill="none" stroke="midnightblue" d="M790.142,-330.101C803.279,-320.382 819.982,-308.027 831.058,-299.834"/>
<polygon fill="midnightblue" stroke="midnightblue" points="787.687,-327.563 781.729,-336.324 791.85,-333.191 787.687,-327.563"/>
</g>
<!-- Node2&#45;&gt;Node3 -->
<g id="edge2" class="edge"><title>Node2&#45;&gt;Node3</title>
<path fill="none" stroke="midnightblue" d="M692.217,-272.456C706.286,-257.253 729.254,-235.403 754,-224 797.995,-203.727 937.874,-188.472 1004.31,-182.171"/>
<polygon fill="midnightblue" stroke="midnightblue" points="689.426,-270.326 685.361,-280.109 694.64,-274.996 689.426,-270.326"/>
</g>
<!-- Node2&#45;&gt;Node17 -->
<g id="edge18" class="edge"><title>Node2&#45;&gt;Node17</title>
<path fill="none" stroke="midnightblue" d="M623.361,-278.537C570.065,-268.332 489.996,-252.999 440.475,-243.516"/>
<polygon fill="midnightblue" stroke="midnightblue" points="622.836,-282 633.316,-280.444 624.153,-275.125 622.836,-282"/>
</g>
<!-- Node5 -->
<g id="node5" class="node"><title>Node5</title>
<g id="a_node5"><a xlink:href="_config_manager_8h.html" target="_top" xlink:title="Framework/ConfigManager.h">
<polygon fill="white" stroke="black" points="298,-112.5 298,-131.5 438,-131.5 438,-112.5 298,-112.5"/>
<text text-anchor="middle" x="368" y="-119.5" font-family="Helvetica,sans-Serif" font-size="10.00">Framework/ConfigManager.h</text>
</a>
</g>
</g>
<!-- Node2&#45;&gt;Node5 -->
<g id="edge34" class="edge"><title>Node2&#45;&gt;Node5</title>
<path fill="none" stroke="midnightblue" d="M644.559,-276.792C599.539,-259.739 517.631,-226.512 453,-188 423.796,-170.598 392.909,-144.86 377.669,-131.597"/>
<polygon fill="midnightblue" stroke="midnightblue" points="643.525,-280.142 654.117,-280.379 645.985,-273.589 643.525,-280.142"/>
</g>
<!-- Node21 -->
<g id="node21" class="node"><title>Node21</title>
<g id="a_node21"><a xlink:href="_temperature_controller_8h.html" target="_top" xlink:title="Controller/TemperatureController.h">
<polygon fill="white" stroke="black" points="606,-168.5 606,-187.5 770,-187.5 770,-168.5 606,-168.5"/>
<text text-anchor="middle" x="688" y="-175.5" font-family="Helvetica,sans-Serif" font-size="10.00">Controller/TemperatureController.h</text>
</a>
</g>
</g>
<!-- Node2&#45;&gt;Node21 -->
<g id="edge35" class="edge"><title>Node2&#45;&gt;Node21</title>
<path fill="none" stroke="midnightblue" d="M679.283,-270.12C680.206,-257.14 681.542,-239.513 683,-224 684.192,-211.322 685.877,-196.669 686.955,-187.618"/>
<polygon fill="midnightblue" stroke="midnightblue" points="675.787,-269.942 678.585,-280.161 682.77,-270.427 675.787,-269.942"/>
</g>
<!-- Node22 -->
<g id="node22" class="node"><title>Node22</title>
<g id="a_node22"><a xlink:href="_level_controller_8h.html" target="_top" xlink:title="Controller/LevelController.h">
<polygon fill="white" stroke="black" points="788,-168.5 788,-187.5 920,-187.5 920,-168.5 788,-168.5"/>
<text text-anchor="middle" x="854" y="-175.5" font-family="Helvetica,sans-Serif" font-size="10.00">Controller/LevelController.h</text>
</a>
</g>
</g>
<!-- Node2&#45;&gt;Node22 -->
<g id="edge36" class="edge"><title>Node2&#45;&gt;Node22</title>
<path fill="none" stroke="midnightblue" d="M686.022,-270.598C693.232,-256.052 705.128,-236.224 721,-224 745.333,-205.259 777.932,-194.065 804.766,-187.529"/>
<polygon fill="midnightblue" stroke="midnightblue" points="682.659,-269.53 681.61,-280.072 689.004,-272.484 682.659,-269.53"/>
</g>
<!-- Node24 -->
<g id="node24" class="node"><title>Node24</title>
<g id="a_node24"><a xlink:href="_clock_timer_controller_8h.html" target="_top" xlink:title="Controller/ClockTimerController.h">
<polygon fill="white" stroke="black" points="763.5,-224.5 763.5,-243.5 922.5,-243.5 922.5,-224.5 763.5,-224.5"/>
<text text-anchor="middle" x="843" y="-231.5" font-family="Helvetica,sans-Serif" font-size="10.00">Controller/ClockTimerController.h</text>
</a>
</g>
</g>
<!-- Node2&#45;&gt;Node24 -->
<g id="edge37" class="edge"><title>Node2&#45;&gt;Node24</title>
<path fill="none" stroke="midnightblue" d="M713.736,-277.304C744.827,-267.129 789.147,-252.625 816.978,-243.516"/>
<polygon fill="midnightblue" stroke="midnightblue" points="712.56,-274.007 704.145,-280.444 714.737,-280.659 712.56,-274.007"/>
</g>
<!-- Node12 -->
<g id="node12" class="node"><title>Node12</title>
<g id="a_node12"><a xlink:href="_controller_8cpp.html" target="_top" xlink:title="Framework/Controller.cpp">
<polygon fill="white" stroke="black" points="152,-112.5 152,-131.5 280,-131.5 280,-112.5 152,-112.5"/>
<text text-anchor="middle" x="216" y="-119.5" font-family="Helvetica,sans-Serif" font-size="10.00">Framework/Controller.cpp</text>
</a>
</g>
</g>
<!-- Node2&#45;&gt;Node12 -->
<g id="edge40" class="edge"><title>Node2&#45;&gt;Node12</title>
<path fill="none" stroke="midnightblue" d="M609.269,-286.941C538.012,-283.237 424.083,-272.889 330,-244 277.178,-227.781 249.043,-234.375 219,-188 207.822,-170.744 211.021,-145.171 213.805,-131.828"/>
<polygon fill="midnightblue" stroke="midnightblue" points="609.306,-290.447 619.465,-287.44 609.649,-283.455 609.306,-290.447"/>
</g>
<!-- Node4 -->
<g id="node4" class="node"><title>Node4</title>
<g id="a_node4"><a xlink:href="_digital_output_8cpp.html" target="_top" xlink:title="Actuators/DigitalOutput.cpp">
<polygon fill="white" stroke="black" points="456.5,-112.5 456.5,-131.5 593.5,-131.5 593.5,-112.5 456.5,-112.5"/>
<text text-anchor="middle" x="525" y="-119.5" font-family="Helvetica,sans-Serif" font-size="10.00">Actuators/DigitalOutput.cpp</text>
</a>
</g>
</g>
<!-- Node3&#45;&gt;Node4 -->
<g id="edge3" class="edge"><title>Node3&#45;&gt;Node4</title>
<path fill="none" stroke="midnightblue" d="M994.32,-172.519C914.639,-164.655 745.077,-147.711 602,-132 599.324,-131.706 596.597,-131.403 593.842,-131.095"/>
<polygon fill="midnightblue" stroke="midnightblue" points="994.203,-176.024 1004.5,-173.522 994.89,-169.058 994.203,-176.024"/>
</g>
<!-- Node3&#45;&gt;Node5 -->
<g id="edge4" class="edge"><title>Node3&#45;&gt;Node5</title>
<path fill="none" stroke="midnightblue" d="M994.171,-173.218C974.161,-171.584 950.421,-169.668 929,-168 714.83,-151.32 660.871,-152.162 447,-132 444.114,-131.728 441.17,-131.44 438.196,-131.14"/>
<polygon fill="midnightblue" stroke="midnightblue" points="994.01,-176.717 1004.26,-174.044 994.581,-169.74 994.01,-176.717"/>
</g>
<!-- Node8 -->
<g id="node8" class="node"><title>Node8</title>
<g id="a_node8"><a xlink:href="_aquaduino_8cpp.html" target="_top" xlink:title="Aquaduino.cpp">
<polygon fill="white" stroke="black" points="611.5,-112.5 611.5,-131.5 692.5,-131.5 692.5,-112.5 611.5,-112.5"/>
<text text-anchor="middle" x="652" y="-119.5" font-family="Helvetica,sans-Serif" font-size="10.00">Aquaduino.cpp</text>
</a>
</g>
</g>
<!-- Node3&#45;&gt;Node8 -->
<g id="edge8" class="edge"><title>Node3&#45;&gt;Node8</title>
<path fill="none" stroke="midnightblue" d="M994.334,-171.669C929.128,-163.891 805.648,-148.546 701,-132 698.266,-131.568 695.45,-131.103 692.615,-130.62"/>
<polygon fill="midnightblue" stroke="midnightblue" points="993.944,-175.147 1004.29,-172.851 994.769,-168.196 993.944,-175.147"/>
</g>
<!-- Node9 -->
<g id="node9" class="node"><title>Node9</title>
<g id="a_node9"><a xlink:href="_clock_timer_controller_8cpp.html" target="_top" xlink:title="Controller/ClockTimerController.cpp">
<polygon fill="white" stroke="black" points="1745,-112.5 1745,-131.5 1915,-131.5 1915,-112.5 1745,-112.5"/>
<text text-anchor="middle" x="1830" y="-119.5" font-family="Helvetica,sans-Serif" font-size="10.00">Controller/ClockTimerController.cpp</text>
</a>
</g>
</g>
<!-- Node3&#45;&gt;Node9 -->
<g id="edge9" class="edge"><title>Node3&#45;&gt;Node9</title>
<path fill="none" stroke="midnightblue" d="M1085.71,-174.534C1197.04,-168.423 1491.04,-151.641 1736,-132 1738.94,-131.764 1741.93,-131.517 1744.96,-131.261"/>
<polygon fill="midnightblue" stroke="midnightblue" points="1085.31,-171.051 1075.52,-175.092 1085.7,-178.04 1085.31,-171.051"/>
</g>
<!-- Node10 -->
<g id="node10" class="node"><title>Node10</title>
<g id="a_node10"><a xlink:href="_level_controller_8cpp.html" target="_top" xlink:title="Controller/LevelController.cpp">
<polygon fill="white" stroke="black" points="903.5,-112.5 903.5,-131.5 1046.5,-131.5 1046.5,-112.5 903.5,-112.5"/>
<text text-anchor="middle" x="975" y="-119.5" font-family="Helvetica,sans-Serif" font-size="10.00">Controller/LevelController.cpp</text>
</a>
</g>
</g>
<!-- Node3&#45;&gt;Node10 -->
<g id="edge10" class="edge"><title>Node3&#45;&gt;Node10</title>
<path fill="none" stroke="midnightblue" d="M1021.73,-161.82C1010.08,-152.145 995.401,-139.948 985.633,-131.834"/>
<polygon fill="midnightblue" stroke="midnightblue" points="1019.63,-164.626 1029.56,-168.324 1024.1,-159.242 1019.63,-164.626"/>
</g>
<!-- Node11 -->
<g id="node11" class="node"><title>Node11</title>
<g id="a_node11"><a xlink:href="_temperature_controller_8cpp.html" target="_top" xlink:title="Controller/TemperatureController.cpp">
<polygon fill="white" stroke="black" points="710.5,-112.5 710.5,-131.5 885.5,-131.5 885.5,-112.5 710.5,-112.5"/>
<text text-anchor="middle" x="798" y="-119.5" font-family="Helvetica,sans-Serif" font-size="10.00">Controller/TemperatureController.cpp</text>
</a>
</g>
</g>
<!-- Node3&#45;&gt;Node11 -->
<g id="edge11" class="edge"><title>Node3&#45;&gt;Node11</title>
<path fill="none" stroke="midnightblue" d="M994.355,-166.815C948.66,-156.618 879.145,-141.107 836.254,-131.536"/>
<polygon fill="midnightblue" stroke="midnightblue" points="993.77,-170.27 1004.29,-169.032 995.294,-163.438 993.77,-170.27"/>
</g>
<!-- Node3&#45;&gt;Node12 -->
<g id="edge12" class="edge"><title>Node3&#45;&gt;Node12</title>
<path fill="none" stroke="midnightblue" d="M993.954,-173.01C973.996,-171.347 950.353,-169.466 929,-168 644.775,-148.487 572.756,-157.444 289,-132 286.075,-131.738 283.086,-131.45 280.068,-131.143"/>
<polygon fill="midnightblue" stroke="midnightblue" points="993.766,-176.507 1004.02,-173.857 994.352,-169.531 993.766,-176.507"/>
</g>
<!-- Node13 -->
<g id="node13" class="node"><title>Node13</title>
<g id="a_node13"><a xlink:href="_n_t_p_sync_8cpp.html" target="_top" xlink:title="Framework/NTPSync.cpp">
<polygon fill="white" stroke="black" points="1599,-112.5 1599,-131.5 1727,-131.5 1727,-112.5 1599,-112.5"/>
<text text-anchor="middle" x="1663" y="-119.5" font-family="Helvetica,sans-Serif" font-size="10.00">Framework/NTPSync.cpp</text>
</a>
</g>
</g>
<!-- Node3&#45;&gt;Node13 -->
<g id="edge13" class="edge"><title>Node3&#45;&gt;Node13</title>
<path fill="none" stroke="midnightblue" d="M1085.74,-173.728C1179.48,-166.91 1400.14,-150.292 1585,-132 1589.48,-131.557 1594.1,-131.079 1598.74,-130.582"/>
<polygon fill="midnightblue" stroke="midnightblue" points="1085.47,-170.238 1075.75,-174.453 1085.97,-177.22 1085.47,-170.238"/>
</g>
<!-- Node7 -->
<g id="node7" class="node"><title>Node7</title>
<g id="a_node7"><a xlink:href="_s_d_config_manager_8cpp.html" target="_top" xlink:title="Framework/SDConfigManager.cpp">
<polygon fill="white" stroke="black" points="1436,-0.5 1436,-19.5 1600,-19.5 1600,-0.5 1436,-0.5"/>
<text text-anchor="middle" x="1518" y="-7.5" font-family="Helvetica,sans-Serif" font-size="10.00">Framework/SDConfigManager.cpp</text>
</a>
</g>
</g>
<!-- Node3&#45;&gt;Node7 -->
<g id="edge14" class="edge"><title>Node3&#45;&gt;Node7</title>
<path fill="none" stroke="midnightblue" d="M1085.97,-174.108C1204.68,-166.466 1513.43,-145.403 1531,-132 1558.86,-110.744 1563.14,-89.2255 1552,-56 1547.14,-41.5174 1535.58,-27.9752 1527.29,-19.6053"/>
<polygon fill="midnightblue" stroke="midnightblue" points="1085.51,-170.631 1075.76,-174.763 1085.96,-177.616 1085.51,-170.631"/>
</g>
<!-- Node14 -->
<g id="node14" class="node"><title>Node14</title>
<g id="a_node14"><a xlink:href="configweb_8cpp.html" target="_top" xlink:title="Webinterface/configweb.cpp">
<polygon fill="white" stroke="black" points="1065,-112.5 1065,-131.5 1203,-131.5 1203,-112.5 1065,-112.5"/>
<text text-anchor="middle" x="1134" y="-119.5" font-family="Helvetica,sans-Serif" font-size="10.00">Webinterface/configweb.cpp</text>
</a>
</g>
</g>
<!-- Node3&#45;&gt;Node14 -->
<g id="edge15" class="edge"><title>Node3&#45;&gt;Node14</title>
<path fill="none" stroke="midnightblue" d="M1064.06,-163.177C1081.36,-153.241 1104.15,-140.149 1118.93,-131.655"/>
<polygon fill="midnightblue" stroke="midnightblue" points="1062.03,-160.308 1055.1,-168.324 1065.52,-166.378 1062.03,-160.308"/>
</g>
<!-- Node15 -->
<g id="node15" class="node"><title>Node15</title>
<g id="a_node15"><a xlink:href="dispatch_8cpp.html" target="_top" xlink:title="Webinterface/dispatch.cpp">
<polygon fill="white" stroke="black" points="1221,-112.5 1221,-131.5 1353,-131.5 1353,-112.5 1221,-112.5"/>
<text text-anchor="middle" x="1287" y="-119.5" font-family="Helvetica,sans-Serif" font-size="10.00">Webinterface/dispatch.cpp</text>
</a>
</g>
</g>
<!-- Node3&#45;&gt;Node15 -->
<g id="edge16" class="edge"><title>Node3&#45;&gt;Node15</title>
<path fill="none" stroke="midnightblue" d="M1085.5,-167.053C1132.17,-156.85 1203.99,-141.148 1248.1,-131.505"/>
<polygon fill="midnightblue" stroke="midnightblue" points="1084.67,-163.65 1075.65,-169.206 1086.17,-170.489 1084.67,-163.65"/>
</g>
<!-- Node16 -->
<g id="node16" class="node"><title>Node16</title>
<g id="a_node16"><a xlink:href="mainweb_8cpp.html" target="_top" xlink:title="Webinterface/mainweb.cpp">
<polygon fill="white" stroke="black" points="1371,-112.5 1371,-131.5 1505,-131.5 1505,-112.5 1371,-112.5"/>
<text text-anchor="middle" x="1438" y="-119.5" font-family="Helvetica,sans-Serif" font-size="10.00">Webinterface/mainweb.cpp</text>
</a>
</g>
</g>
<!-- Node3&#45;&gt;Node16 -->
<g id="edge17" class="edge"><title>Node3&#45;&gt;Node16</title>
<path fill="none" stroke="midnightblue" d="M1085.68,-170.802C1156.89,-161.141 1294.53,-142.466 1375.08,-131.537"/>
<polygon fill="midnightblue" stroke="midnightblue" points="1085.11,-167.348 1075.67,-172.16 1086.05,-174.284 1085.11,-167.348"/>
</g>
<!-- Node6 -->
<g id="node6" class="node"><title>Node6</title>
<g id="a_node6"><a xlink:href="_s_d_config_manager_8h.html" target="_top" xlink:title="Framework/SDConfigManager.h">
<polygon fill="white" stroke="black" points="1389,-56.5 1389,-75.5 1543,-75.5 1543,-56.5 1389,-56.5"/>
<text text-anchor="middle" x="1466" y="-63.5" font-family="Helvetica,sans-Serif" font-size="10.00">Framework/SDConfigManager.h</text>
</a>
</g>
</g>
<!-- Node5&#45;&gt;Node6 -->
<g id="edge5" class="edge"><title>Node5&#45;&gt;Node6</title>
<path fill="none" stroke="midnightblue" d="M448.219,-111.961C805.862,-84.0648 1220.23,-72.4365 1388.87,-68.5818"/>
<polygon fill="midnightblue" stroke="midnightblue" points="447.882,-108.476 438.187,-112.749 448.43,-115.455 447.882,-108.476"/>
</g>
<!-- Node6&#45;&gt;Node3 -->
<g id="edge6" class="edge"><title>Node6&#45;&gt;Node3</title>
<path fill="none" stroke="midnightblue" d="M1488.65,-81.3444C1507.42,-94.9615 1528.82,-115.711 1514,-132 1484.63,-164.295 1180.96,-173.933 1075.7,-176.316"/>
<polygon fill="midnightblue" stroke="midnightblue" points="1490.57,-78.4175 1480.34,-75.6315 1486.6,-84.1839 1490.57,-78.4175"/>
</g>
<!-- Node6&#45;&gt;Node7 -->
<g id="edge7" class="edge"><title>Node6&#45;&gt;Node7</title>
<path fill="none" stroke="midnightblue" d="M1481.68,-48.7175C1490.84,-39.1997 1502.05,-27.5608 1509.57,-19.7511"/>
<polygon fill="midnightblue" stroke="midnightblue" points="1479,-46.452 1474.59,-56.083 1484.04,-51.3075 1479,-46.452"/>
</g>
<!-- Node17&#45;&gt;Node3 -->
<g id="edge19" class="edge"><title>Node17&#45;&gt;Node3</title>
<path fill="none" stroke="midnightblue" d="M462.817,-227.397C598.159,-216.049 900.622,-190.687 1004.31,-181.992"/>
<polygon fill="midnightblue" stroke="midnightblue" points="462.259,-223.932 452.586,-228.255 462.844,-230.907 462.259,-223.932"/>
</g>
<!-- Node17&#45;&gt;Node5 -->
<g id="edge20" class="edge"><title>Node17&#45;&gt;Node5</title>
<path fill="none" stroke="midnightblue" d="M391.335,-214.674C385.214,-190.625 374.717,-149.388 370.187,-131.591"/>
<polygon fill="midnightblue" stroke="midnightblue" points="387.944,-215.541 393.803,-224.368 394.728,-213.814 387.944,-215.541"/>
</g>
<!-- Node18 -->
<g id="node18" class="node"><title>Node18</title>
<g id="a_node18"><a xlink:href="_digital_output_8h.html" target="_top" xlink:title="Actuators/DigitalOutput.h">
<polygon fill="white" stroke="black" points="462,-168.5 462,-187.5 588,-187.5 588,-168.5 462,-168.5"/>
<text text-anchor="middle" x="525" y="-175.5" font-family="Helvetica,sans-Serif" font-size="10.00">Actuators/DigitalOutput.h</text>
</a>
</g>
</g>
<!-- Node17&#45;&gt;Node18 -->
<g id="edge21" class="edge"><title>Node17&#45;&gt;Node18</title>
<path fill="none" stroke="midnightblue" d="M425.854,-220.503C450.038,-210.38 483.462,-196.388 504.655,-187.516"/>
<polygon fill="midnightblue" stroke="midnightblue" points="424.313,-217.354 416.44,-224.444 427.016,-223.811 424.313,-217.354"/>
</g>
<!-- Node19 -->
<g id="node19" class="node"><title>Node19</title>
<g id="a_node19"><a xlink:href="_p_w_m_output_8h.html" target="_top" xlink:title="Actuators/PWMOutput.h">
<polygon fill="white" stroke="black" points="15,-168.5 15,-187.5 139,-187.5 139,-168.5 15,-168.5"/>
<text text-anchor="middle" x="77" y="-175.5" font-family="Helvetica,sans-Serif" font-size="10.00">Actuators/PWMOutput.h</text>
</a>
</g>
</g>
<!-- Node17&#45;&gt;Node19 -->
<g id="edge24" class="edge"><title>Node17&#45;&gt;Node19</title>
<path fill="none" stroke="midnightblue" d="M335.316,-222.727C275.034,-212.523 183.678,-197.058 127.31,-187.516"/>
<polygon fill="midnightblue" stroke="midnightblue" points="335.01,-226.225 345.454,-224.444 336.178,-219.324 335.01,-226.225"/>
</g>
<!-- Node17&#45;&gt;Node21 -->
<g id="edge26" class="edge"><title>Node17&#45;&gt;Node21</title>
<path fill="none" stroke="midnightblue" d="M452.233,-222.601C507.418,-212.395 590.565,-197.019 641.948,-187.516"/>
<polygon fill="midnightblue" stroke="midnightblue" points="451.465,-219.183 442.268,-224.444 452.738,-226.067 451.465,-219.183"/>
</g>
<!-- Node17&#45;&gt;Node22 -->
<g id="edge29" class="edge"><title>Node17&#45;&gt;Node22</title>
<path fill="none" stroke="midnightblue" d="M462.755,-225.207C539.182,-216.274 668.131,-201.165 779,-188 781.865,-187.66 784.791,-187.312 787.748,-186.959"/>
<polygon fill="midnightblue" stroke="midnightblue" points="462.311,-221.735 452.785,-226.373 463.123,-228.688 462.311,-221.735"/>
</g>
<!-- Node23 -->
<g id="node23" class="node"><title>Node23</title>
<g id="a_node23"><a xlink:href="_actuator_8cpp.html" target="_top" xlink:title="Framework/Actuator.cpp">
<polygon fill="white" stroke="black" points="244.5,-168.5 244.5,-187.5 367.5,-187.5 367.5,-168.5 244.5,-168.5"/>
<text text-anchor="middle" x="306" y="-175.5" font-family="Helvetica,sans-Serif" font-size="10.00">Framework/Actuator.cpp</text>
</a>
</g>
</g>
<!-- Node17&#45;&gt;Node23 -->
<g id="edge32" class="edge"><title>Node17&#45;&gt;Node23</title>
<path fill="none" stroke="midnightblue" d="M372.962,-219.177C356.401,-209.241 334.582,-196.149 320.424,-187.655"/>
<polygon fill="midnightblue" stroke="midnightblue" points="371.164,-222.18 381.54,-224.324 374.766,-216.178 371.164,-222.18"/>
</g>
<!-- Node17&#45;&gt;Node12 -->
<g id="edge33" class="edge"><title>Node17&#45;&gt;Node12</title>
<path fill="none" stroke="midnightblue" d="M328.946,-229.122C296.703,-223.9 259.774,-212.483 235,-188 219.613,-172.794 216.529,-145.868 216.012,-131.924"/>
<polygon fill="midnightblue" stroke="midnightblue" points="328.831,-232.642 339.229,-230.608 329.832,-225.714 328.831,-232.642"/>
</g>
<!-- Node18&#45;&gt;Node4 -->
<g id="edge22" class="edge"><title>Node18&#45;&gt;Node4</title>
<path fill="none" stroke="midnightblue" d="M525,-157.805C525,-148.91 525,-138.78 525,-131.751"/>
<polygon fill="midnightblue" stroke="midnightblue" points="521.5,-158.083 525,-168.083 528.5,-158.083 521.5,-158.083"/>
</g>
<!-- Node18&#45;&gt;Node8 -->
<g id="edge23" class="edge"><title>Node18&#45;&gt;Node8</title>
<path fill="none" stroke="midnightblue" d="M554.391,-164.503C578.2,-154.38 611.106,-140.388 631.971,-131.516"/>
<polygon fill="midnightblue" stroke="midnightblue" points="552.957,-161.31 545.124,-168.444 555.696,-167.751 552.957,-161.31"/>
</g>
<!-- Node20 -->
<g id="node20" class="node"><title>Node20</title>
<g id="a_node20"><a xlink:href="_p_w_m_output_8cpp.html" target="_top" xlink:title="Actuators/PWMOutput.cpp">
<polygon fill="white" stroke="black" points="0,-112.5 0,-131.5 134,-131.5 134,-112.5 0,-112.5"/>
<text text-anchor="middle" x="67" y="-119.5" font-family="Helvetica,sans-Serif" font-size="10.00">Actuators/PWMOutput.cpp</text>
</a>
</g>
</g>
<!-- Node19&#45;&gt;Node20 -->
<g id="edge25" class="edge"><title>Node19&#45;&gt;Node20</title>
<path fill="none" stroke="midnightblue" d="M73.5001,-158.101C71.84,-149.136 69.9367,-138.858 68.6206,-131.751"/>
<polygon fill="midnightblue" stroke="midnightblue" points="70.0862,-158.888 75.3487,-168.083 76.9692,-157.613 70.0862,-158.888"/>
</g>
<!-- Node21&#45;&gt;Node8 -->
<g id="edge27" class="edge"><title>Node21&#45;&gt;Node8</title>
<path fill="none" stroke="midnightblue" d="M676.377,-159.566C670.183,-150.275 662.832,-139.248 657.834,-131.751"/>
<polygon fill="midnightblue" stroke="midnightblue" points="673.596,-161.704 682.055,-168.083 679.42,-157.821 673.596,-161.704"/>
</g>
<!-- Node21&#45;&gt;Node11 -->
<g id="edge28" class="edge"><title>Node21&#45;&gt;Node11</title>
<path fill="none" stroke="midnightblue" d="M714.762,-163.862C735.159,-153.849 762.666,-140.346 780.37,-131.655"/>
<polygon fill="midnightblue" stroke="midnightblue" points="713.108,-160.775 705.673,-168.324 716.192,-167.059 713.108,-160.775"/>
</g>
<!-- Node22&#45;&gt;Node8 -->
<g id="edge30" class="edge"><title>Node22&#45;&gt;Node8</title>
<path fill="none" stroke="midnightblue" d="M812.212,-165.829C774.073,-155.633 718.519,-140.782 683.858,-131.516"/>
<polygon fill="midnightblue" stroke="midnightblue" points="811.428,-169.242 821.992,-168.444 813.236,-162.48 811.428,-169.242"/>
</g>
<!-- Node22&#45;&gt;Node10 -->
<g id="edge31" class="edge"><title>Node22&#45;&gt;Node10</title>
<path fill="none" stroke="midnightblue" d="M882.306,-164.368C904.965,-154.255 936.126,-140.349 955.917,-131.516"/>
<polygon fill="midnightblue" stroke="midnightblue" points="880.878,-161.172 873.173,-168.444 883.731,-167.564 880.878,-161.172"/>
</g>
<!-- Node24&#45;&gt;Node8 -->
<g id="edge38" class="edge"><title>Node24&#45;&gt;Node8</title>
<path fill="none" stroke="midnightblue" d="M881.545,-220.873C912.456,-209.169 947.815,-190.019 929,-168 895.678,-129.003 751.563,-140.634 701,-132 698.272,-131.534 695.46,-131.044 692.628,-130.543"/>
<polygon fill="midnightblue" stroke="midnightblue" points="879.961,-217.723 871.739,-224.405 882.334,-224.309 879.961,-217.723"/>
</g>
<!-- Node24&#45;&gt;Node9 -->
<g id="edge39" class="edge"><title>Node24&#45;&gt;Node9</title>
<path fill="none" stroke="midnightblue" d="M929.594,-223.349C1120.03,-202.126 1572.59,-151.688 1753.42,-131.535"/>
<polygon fill="midnightblue" stroke="midnightblue" points="929.178,-219.874 919.627,-224.46 929.953,-226.831 929.178,-219.874"/>
</g>
<!-- Node25&#45;&gt;Node24 -->
<g id="edge44" class="edge"><title>Node25&#45;&gt;Node24</title>
<path fill="none" stroke="midnightblue" d="M843,-269.805C843,-260.91 843,-250.78 843,-243.751"/>
<polygon fill="midnightblue" stroke="midnightblue" points="839.5,-270.083 843,-280.083 846.5,-270.083 839.5,-270.083"/>
</g>
<!-- Node26 -->
<g id="node26" class="node"><title>Node26</title>
<g id="a_node26"><a xlink:href="_clock_timer_8cpp.html" target="_top" xlink:title="Controller/ClockTimer.cpp">
<polygon fill="white" stroke="black" points="941,-224.5 941,-243.5 1069,-243.5 1069,-224.5 941,-224.5"/>
<text text-anchor="middle" x="1005" y="-231.5" font-family="Helvetica,sans-Serif" font-size="10.00">Controller/ClockTimer.cpp</text>
</a>
</g>
</g>
<!-- Node25&#45;&gt;Node26 -->
<g id="edge45" class="edge"><title>Node25&#45;&gt;Node26</title>
<path fill="none" stroke="midnightblue" d="M878.484,-277.172C908.988,-267.004 952.245,-252.585 979.451,-243.516"/>
<polygon fill="midnightblue" stroke="midnightblue" points="877.049,-273.961 868.669,-280.444 879.263,-280.602 877.049,-273.961"/>
</g>
</g>
</svg>
