<?xml version="1.0" encoding="UTF-8" standalone="no"?>
<!DOCTYPE svg PUBLIC "-//W3C//DTD SVG 1.1//EN"
 "http://www.w3.org/Graphics/SVG/1.1/DTD/svg11.dtd">
<!-- Generated by graphviz version 2.30.1 (20130214.1330)
 -->
<!-- Title: Controller/TemperatureController.h Pages: 1 -->
<svg width="468pt" height="308pt"
 viewBox="0.00 0.00 468.00 308.00" xmlns="http://www.w3.org/2000/svg" xmlns:xlink="http://www.w3.org/1999/xlink">
<g id="graph0" class="graph" transform="scale(1 1) rotate(0) translate(4 304)">
<title>Controller/TemperatureController.h</title>
<polygon fill="white" stroke="white" points="-4,5 -4,-304 465,-304 465,5 -4,5"/>
<!-- Node1 -->
<g id="node1" class="node"><title>Node1</title>
<polygon fill="#bfbfbf" stroke="black" points="186,-280.5 186,-299.5 350,-299.5 350,-280.5 186,-280.5"/>
<text text-anchor="middle" x="268" y="-287.5" font-family="Helvetica,sans-Serif" font-size="10.00">Controller/TemperatureController.h</text>
</g>
<!-- Node2 -->
<g id="node2" class="node"><title>Node2</title>
<g id="a_node2"><a xlink:href="_controller_8h.html" target="_top" xlink:title="Framework/Controller.h">
<polygon fill="white" stroke="black" points="209.5,-168.5 209.5,-187.5 326.5,-187.5 326.5,-168.5 209.5,-168.5"/>
<text text-anchor="middle" x="268" y="-175.5" font-family="Helvetica,sans-Serif" font-size="10.00">Framework/Controller.h</text>
</a>
</g>
</g>
<!-- Node1&#45;&gt;Node2 -->
<g id="edge1" class="edge"><title>Node1&#45;&gt;Node2</title>
<path fill="none" stroke="midnightblue" d="M261.895,-280.191C256.245,-271.46 248.245,-257.478 245,-244 241.026,-227.492 248.517,-209.323 255.988,-196.401"/>
<polygon fill="midnightblue" stroke="midnightblue" points="259.129,-197.981 261.507,-187.656 253.209,-194.245 259.129,-197.981"/>
</g>
<!-- Node11 -->
<g id="node11" class="node"><title>Node11</title>
<g id="a_node11"><a xlink:href="_actuator_8h.html" target="_top" xlink:title="Framework/Actuator.h">
<polygon fill="white" stroke="black" points="254.5,-224.5 254.5,-243.5 367.5,-243.5 367.5,-224.5 254.5,-224.5"/>
<text text-anchor="middle" x="311" y="-231.5" font-family="Helvetica,sans-Serif" font-size="10.00">Framework/Actuator.h</text>
</a>
</g>
</g>
<!-- Node1&#45;&gt;Node11 -->
<g id="edge12" class="edge"><title>Node1&#45;&gt;Node11</title>
<path fill="none" stroke="midnightblue" d="M275.101,-280.083C281.237,-272.377 290.27,-261.033 297.739,-251.653"/>
<polygon fill="midnightblue" stroke="midnightblue" points="300.54,-253.754 304.032,-243.751 295.064,-249.394 300.54,-253.754"/>
</g>
<!-- Node3 -->
<g id="node3" class="node"><title>Node3</title>
<g id="a_node3"><a xlink:href="_object_8h.html" target="_top" xlink:title="Object.h">
<polygon fill="white" stroke="black" points="99.5,-112.5 99.5,-131.5 152.5,-131.5 152.5,-112.5 99.5,-112.5"/>
<text text-anchor="middle" x="126" y="-119.5" font-family="Helvetica,sans-Serif" font-size="10.00">Object.h</text>
</a>
</g>
</g>
<!-- Node2&#45;&gt;Node3 -->
<g id="edge2" class="edge"><title>Node2&#45;&gt;Node3</title>
<path fill="none" stroke="midnightblue" d="M245.5,-168.444C221.923,-159.478 184.678,-145.314 158.036,-135.183"/>
<polygon fill="midnightblue" stroke="midnightblue" points="158.986,-131.8 148.395,-131.516 156.498,-138.342 158.986,-131.8"/>
</g>
<!-- Node7 -->
<g id="node7" class="node"><title>Node7</title>
<g id="a_node7"><a xlink:href="_serializable_8h.html" target="_top" xlink:title="Serializable.h">
<polygon fill="white" stroke="black" points="385.5,-112.5 385.5,-131.5 460.5,-131.5 460.5,-112.5 385.5,-112.5"/>
<text text-anchor="middle" x="423" y="-119.5" font-family="Helvetica,sans-Serif" font-size="10.00">Serializable.h</text>
</a>
</g>
</g>
<!-- Node2&#45;&gt;Node7 -->
<g id="edge6" class="edge"><title>Node2&#45;&gt;Node7</title>
<path fill="none" stroke="midnightblue" d="M292.56,-168.444C318.523,-159.399 359.668,-145.064 388.797,-134.916"/>
<polygon fill="midnightblue" stroke="midnightblue" points="390.263,-138.112 398.555,-131.516 387.96,-131.501 390.263,-138.112"/>
</g>
<!-- Node9 -->
<g id="node9" class="node"><title>Node9</title>
<g id="a_node9"><a xlink:href="_web_interface_8h.html" target="_top" xlink:title="WebInterface.h">
<polygon fill="white" stroke="black" points="285,-112.5 285,-131.5 367,-131.5 367,-112.5 285,-112.5"/>
<text text-anchor="middle" x="326" y="-119.5" font-family="Helvetica,sans-Serif" font-size="10.00">WebInterface.h</text>
</a>
</g>
</g>
<!-- Node2&#45;&gt;Node9 -->
<g id="edge8" class="edge"><title>Node2&#45;&gt;Node9</title>
<path fill="none" stroke="midnightblue" d="M277.319,-168.324C285.893,-160.341 298.812,-148.313 309.188,-138.653"/>
<polygon fill="midnightblue" stroke="midnightblue" points="311.578,-141.21 316.512,-131.834 306.808,-136.086 311.578,-141.21"/>
</g>
<!-- Node4 -->
<g id="node4" class="node"><title>Node4</title>
<g id="a_node4"><a xlink:href="_config_8h.html" target="_top" xlink:title="Framework/Config.h">
<polygon fill="white" stroke="black" points="148.5,-56.5 148.5,-75.5 251.5,-75.5 251.5,-56.5 148.5,-56.5"/>
<text text-anchor="middle" x="200" y="-63.5" font-family="Helvetica,sans-Serif" font-size="10.00">Framework/Config.h</text>
</a>
</g>
</g>
<!-- Node2&#45;&gt;Node4 -->
<g id="edge10" class="edge"><title>Node2&#45;&gt;Node4</title>
<path fill="none" stroke="midnightblue" d="M262.664,-168.368C251.492,-150.296 225.455,-108.176 210.699,-84.3074"/>
<polygon fill="midnightblue" stroke="midnightblue" points="213.546,-82.257 205.311,-75.5914 207.592,-85.9378 213.546,-82.257"/>
</g>
<!-- Node10 -->
<g id="node10" class="node"><title>Node10</title>
<polygon fill="white" stroke="#bfbfbf" points="270,-56.5 270,-75.5 342,-75.5 342,-56.5 270,-56.5"/>
<text text-anchor="middle" x="306" y="-63.5" font-family="Helvetica,sans-Serif" font-size="10.00">WebServer.h</text>
</g>
<!-- Node2&#45;&gt;Node10 -->
<g id="edge11" class="edge"><title>Node2&#45;&gt;Node10</title>
<path fill="none" stroke="midnightblue" d="M267.815,-168.289C267.819,-155.528 268.882,-131.188 276,-112 279.749,-101.894 286.168,-91.8029 292.109,-83.7453"/>
<polygon fill="midnightblue" stroke="midnightblue" points="295.056,-85.6578 298.445,-75.6197 289.536,-81.3533 295.056,-85.6578"/>
</g>
<!-- Node3&#45;&gt;Node4 -->
<g id="edge3" class="edge"><title>Node3&#45;&gt;Node4</title>
<path fill="none" stroke="midnightblue" d="M137.889,-112.324C149.15,-104.107 166.287,-91.6017 179.709,-81.8069"/>
<polygon fill="midnightblue" stroke="midnightblue" points="181.88,-84.5559 187.894,-75.8339 177.753,-78.9014 181.88,-84.5559"/>
</g>
<!-- Node6 -->
<g id="node6" class="node"><title>Node6</title>
<g id="a_node6"><a xlink:href="_object_types_8h.html" target="_top" xlink:title="Framework/ObjectTypes.h">
<polygon fill="white" stroke="black" points="-0.5,-56.5 -0.5,-75.5 130.5,-75.5 130.5,-56.5 -0.5,-56.5"/>
<text text-anchor="middle" x="65" y="-63.5" font-family="Helvetica,sans-Serif" font-size="10.00">Framework/ObjectTypes.h</text>
</a>
</g>
</g>
<!-- Node3&#45;&gt;Node6 -->
<g id="edge5" class="edge"><title>Node3&#45;&gt;Node6</title>
<path fill="none" stroke="midnightblue" d="M116.199,-112.324C107.182,-104.341 93.594,-92.3128 82.682,-82.6529"/>
<polygon fill="midnightblue" stroke="midnightblue" points="84.7866,-79.8416 74.979,-75.8339 80.1467,-85.083 84.7866,-79.8416"/>
</g>
<!-- Node5 -->
<g id="node5" class="node"><title>Node5</title>
<polygon fill="white" stroke="#bfbfbf" points="175.5,-0.5 175.5,-19.5 224.5,-19.5 224.5,-0.5 175.5,-0.5"/>
<text text-anchor="middle" x="200" y="-7.5" font-family="Helvetica,sans-Serif" font-size="10.00">stdint.h</text>
</g>
<!-- Node4&#45;&gt;Node5 -->
<g id="edge4" class="edge"><title>Node4&#45;&gt;Node5</title>
<path fill="none" stroke="midnightblue" d="M200,-56.083C200,-49.0059 200,-38.8611 200,-29.9865"/>
<polygon fill="midnightblue" stroke="midnightblue" points="203.5,-29.751 200,-19.7511 196.5,-29.7511 203.5,-29.751"/>
</g>
<!-- Node8 -->
<g id="node8" class="node"><title>Node8</title>
<polygon fill="white" stroke="#bfbfbf" points="394,-56.5 394,-75.5 452,-75.5 452,-56.5 394,-56.5"/>
<text text-anchor="middle" x="423" y="-63.5" font-family="Helvetica,sans-Serif" font-size="10.00">Arduino.h</text>
</g>
<!-- Node7&#45;&gt;Node8 -->
<g id="edge7" class="edge"><title>Node7&#45;&gt;Node8</title>
<path fill="none" stroke="midnightblue" d="M423,-112.083C423,-105.006 423,-94.8611 423,-85.9865"/>
<polygon fill="midnightblue" stroke="midnightblue" points="426.5,-85.751 423,-75.7511 419.5,-85.7511 426.5,-85.751"/>
</g>
<!-- Node9&#45;&gt;Node10 -->
<g id="edge9" class="edge"><title>Node9&#45;&gt;Node10</title>
<path fill="none" stroke="midnightblue" d="M322.697,-112.083C320.018,-104.849 316.151,-94.4087 312.814,-85.3968"/>
<polygon fill="midnightblue" stroke="midnightblue" points="315.996,-83.9129 309.241,-75.7511 309.432,-86.3442 315.996,-83.9129"/>
</g>
<!-- Node11&#45;&gt;Node3 -->
<g id="edge13" class="edge"><title>Node11&#45;&gt;Node3</title>
<path fill="none" stroke="midnightblue" d="M254.412,-224.851C225.946,-218.519 192.228,-207.398 167,-188 151.169,-175.828 139.835,-155.67 133.15,-141.026"/>
<polygon fill="midnightblue" stroke="midnightblue" points="136.245,-139.359 129.107,-131.529 129.804,-142.101 136.245,-139.359"/>
</g>
<!-- Node11&#45;&gt;Node4 -->
<g id="edge14" class="edge"><title>Node11&#45;&gt;Node4</title>
<path fill="none" stroke="midnightblue" d="M256.92,-224.468C235.477,-218.146 212.896,-207.143 200,-188 179.144,-157.04 187.242,-110.758 194.147,-85.3441"/>
<polygon fill="midnightblue" stroke="midnightblue" points="197.564,-86.1315 197.036,-75.5498 190.85,-84.1508 197.564,-86.1315"/>
</g>
<!-- Node11&#45;&gt;Node2 -->
<g id="edge15" class="edge"><title>Node11&#45;&gt;Node2</title>
<path fill="none" stroke="midnightblue" d="M303.899,-224.083C297.763,-216.377 288.73,-205.033 281.261,-195.653"/>
<polygon fill="midnightblue" stroke="midnightblue" points="283.936,-193.394 274.968,-187.751 278.46,-197.754 283.936,-193.394"/>
</g>
<!-- Node11&#45;&gt;Node7 -->
<g id="edge16" class="edge"><title>Node11&#45;&gt;Node7</title>
<path fill="none" stroke="midnightblue" d="M319.788,-224.368C338.599,-205.894 382.993,-162.293 406.97,-138.744"/>
<polygon fill="midnightblue" stroke="midnightblue" points="409.57,-141.096 414.252,-131.591 404.665,-136.101 409.57,-141.096"/>
</g>
<!-- Node11&#45;&gt;Node9 -->
<g id="edge17" class="edge"><title>Node11&#45;&gt;Node9</title>
<path fill="none" stroke="midnightblue" d="M317.367,-224.232C323.26,-215.532 331.607,-201.572 335,-188 338.886,-172.458 335.787,-154.377 332.204,-141.237"/>
<polygon fill="midnightblue" stroke="midnightblue" points="335.503,-140.058 329.224,-131.525 328.811,-142.112 335.503,-140.058"/>
</g>
</g>
</svg>
