<?xml version="1.0" encoding="UTF-8" standalone="no"?>
<!DOCTYPE svg PUBLIC "-//W3C//DTD SVG 1.1//EN"
 "http://www.w3.org/Graphics/SVG/1.1/DTD/svg11.dtd">
<!-- Generated by graphviz version 2.30.1 (20130214.1330)
 -->
<!-- Title: Controller/TemperatureController.cpp Pages: 1 -->
<svg width="939pt" height="476pt"
 viewBox="0.00 0.00 938.69 476.00" xmlns="http://www.w3.org/2000/svg" xmlns:xlink="http://www.w3.org/1999/xlink">
<g id="graph0" class="graph" transform="scale(1 1) rotate(0) translate(4 472)">
<title>Controller/TemperatureController.cpp</title>
<polygon fill="white" stroke="white" points="-4,5 -4,-472 935.691,-472 935.691,5 -4,5"/>
<!-- Node1 -->
<g id="node1" class="node"><title>Node1</title>
<polygon fill="#bfbfbf" stroke="black" points="552.191,-448.5 552.191,-467.5 727.191,-467.5 727.191,-448.5 552.191,-448.5"/>
<text text-anchor="middle" x="639.691" y="-455.5" font-family="Helvetica,sans-Serif" font-size="10.00">Controller/TemperatureController.cpp</text>
</g>
<!-- Node2 -->
<g id="node2" class="node"><title>Node2</title>
<g id="a_node2"><a xlink:href="_temperature_controller_8h.html" target="_top" xlink:title="Controller/TemperatureController.h">
<polygon fill="white" stroke="black" points="28.691,-280.5 28.691,-299.5 192.691,-299.5 192.691,-280.5 28.691,-280.5"/>
<text text-anchor="middle" x="110.691" y="-287.5" font-family="Helvetica,sans-Serif" font-size="10.00">Controller/TemperatureController.h</text>
</a>
</g>
</g>
<!-- Node1&#45;&gt;Node2 -->
<g id="edge1" class="edge"><title>Node1&#45;&gt;Node2</title>
<path fill="none" stroke="midnightblue" d="M551.944,-449.251C425.371,-436.457 199.895,-407.112 137.691,-356 123.697,-344.502 116.857,-324.529 113.577,-309.749"/>
<polygon fill="midnightblue" stroke="midnightblue" points="116.975,-308.876 111.704,-299.685 110.093,-310.157 116.975,-308.876"/>
</g>
<!-- Node13 -->
<g id="node13" class="node"><title>Node13</title>
<g id="a_node13"><a xlink:href="_aquaduino_8h.html" target="_top" xlink:title="Aquaduino.h">
<polygon fill="white" stroke="black" points="568.191,-392.5 568.191,-411.5 639.191,-411.5 639.191,-392.5 568.191,-392.5"/>
<text text-anchor="middle" x="603.691" y="-399.5" font-family="Helvetica,sans-Serif" font-size="10.00">Aquaduino.h</text>
</a>
</g>
</g>
<!-- Node1&#45;&gt;Node13 -->
<g id="edge19" class="edge"><title>Node1&#45;&gt;Node13</title>
<path fill="none" stroke="midnightblue" d="M633.746,-448.083C628.714,-440.534 621.354,-429.495 615.177,-420.23"/>
<polygon fill="midnightblue" stroke="midnightblue" points="617.984,-418.13 609.525,-411.751 612.16,-422.013 617.984,-418.13"/>
</g>
<!-- Node21 -->
<g id="node21" class="node"><title>Node21</title>
<polygon fill="white" stroke="#bfbfbf" points="657.691,-392.5 657.691,-411.5 695.691,-411.5 695.691,-392.5 657.691,-392.5"/>
<text text-anchor="middle" x="676.691" y="-399.5" font-family="Helvetica,sans-Serif" font-size="10.00">SD.h</text>
</g>
<!-- Node1&#45;&gt;Node21 -->
<g id="edge40" class="edge"><title>Node1&#45;&gt;Node21</title>
<path fill="none" stroke="midnightblue" d="M645.801,-448.083C650.973,-440.534 658.537,-429.495 664.885,-420.23"/>
<polygon fill="midnightblue" stroke="midnightblue" points="667.93,-421.979 670.695,-411.751 662.155,-418.022 667.93,-421.979"/>
</g>
<!-- Node15 -->
<g id="node15" class="node"><title>Node15</title>
<polygon fill="white" stroke="#bfbfbf" points="838.191,-336.5 838.191,-355.5 931.191,-355.5 931.191,-336.5 838.191,-336.5"/>
<text text-anchor="middle" x="884.691" y="-343.5" font-family="Helvetica,sans-Serif" font-size="10.00">TemplateParser.h</text>
</g>
<!-- Node1&#45;&gt;Node15 -->
<g id="edge41" class="edge"><title>Node1&#45;&gt;Node15</title>
<path fill="none" stroke="midnightblue" d="M658.916,-448.368C701.852,-429.091 805.726,-382.454 856.205,-359.789"/>
<polygon fill="midnightblue" stroke="midnightblue" points="857.866,-362.88 865.556,-355.591 854.999,-356.494 857.866,-362.88"/>
</g>
<!-- Node3 -->
<g id="node3" class="node"><title>Node3</title>
<g id="a_node3"><a xlink:href="_controller_8h.html" target="_top" xlink:title="Framework/Controller.h">
<polygon fill="white" stroke="black" points="346.191,-168.5 346.191,-187.5 463.191,-187.5 463.191,-168.5 346.191,-168.5"/>
<text text-anchor="middle" x="404.691" y="-175.5" font-family="Helvetica,sans-Serif" font-size="10.00">Framework/Controller.h</text>
</a>
</g>
</g>
<!-- Node2&#45;&gt;Node3 -->
<g id="edge2" class="edge"><title>Node2&#45;&gt;Node3</title>
<path fill="none" stroke="midnightblue" d="M131.825,-280.45C163.277,-267.787 224.322,-243.452 276.691,-224 308.076,-212.343 344.067,-199.758 369.875,-190.87"/>
<polygon fill="midnightblue" stroke="midnightblue" points="371.259,-194.095 379.58,-187.536 368.985,-187.475 371.259,-194.095"/>
</g>
<!-- Node12 -->
<g id="node12" class="node"><title>Node12</title>
<g id="a_node12"><a xlink:href="_actuator_8h.html" target="_top" xlink:title="Framework/Actuator.h">
<polygon fill="white" stroke="black" points="389.191,-224.5 389.191,-243.5 502.191,-243.5 502.191,-224.5 389.191,-224.5"/>
<text text-anchor="middle" x="445.691" y="-231.5" font-family="Helvetica,sans-Serif" font-size="10.00">Framework/Actuator.h</text>
</a>
</g>
</g>
<!-- Node2&#45;&gt;Node12 -->
<g id="edge13" class="edge"><title>Node2&#45;&gt;Node12</title>
<path fill="none" stroke="midnightblue" d="M163.773,-280.444C223.193,-270.865 319.411,-255.356 382.62,-245.167"/>
<polygon fill="midnightblue" stroke="midnightblue" points="383.542,-248.563 392.858,-243.516 382.428,-241.653 383.542,-248.563"/>
</g>
<!-- Node4 -->
<g id="node4" class="node"><title>Node4</title>
<g id="a_node4"><a xlink:href="_object_8h.html" target="_top" xlink:title="Object.h">
<polygon fill="white" stroke="black" points="597.191,-112.5 597.191,-131.5 650.191,-131.5 650.191,-112.5 597.191,-112.5"/>
<text text-anchor="middle" x="623.691" y="-119.5" font-family="Helvetica,sans-Serif" font-size="10.00">Object.h</text>
</a>
</g>
</g>
<!-- Node3&#45;&gt;Node4 -->
<g id="edge3" class="edge"><title>Node3&#45;&gt;Node4</title>
<path fill="none" stroke="midnightblue" d="M439.392,-168.444C479.753,-158.492 546.084,-142.136 587.196,-131.999"/>
<polygon fill="midnightblue" stroke="midnightblue" points="588.203,-135.355 597.074,-129.563 586.527,-128.559 588.203,-135.355"/>
</g>
<!-- Node8 -->
<g id="node8" class="node"><title>Node8</title>
<g id="a_node8"><a xlink:href="_serializable_8h.html" target="_top" xlink:title="Serializable.h">
<polygon fill="white" stroke="black" points="668.191,-112.5 668.191,-131.5 743.191,-131.5 743.191,-112.5 668.191,-112.5"/>
<text text-anchor="middle" x="705.691" y="-119.5" font-family="Helvetica,sans-Serif" font-size="10.00">Serializable.h</text>
</a>
</g>
</g>
<!-- Node3&#45;&gt;Node8 -->
<g id="edge7" class="edge"><title>Node3&#45;&gt;Node8</title>
<path fill="none" stroke="midnightblue" d="M453.895,-168.491C502.991,-159.953 580.85,-146.288 658.085,-132.091"/>
<polygon fill="midnightblue" stroke="midnightblue" points="658.789,-135.521 667.99,-130.267 657.521,-128.636 658.789,-135.521"/>
</g>
<!-- Node10 -->
<g id="node10" class="node"><title>Node10</title>
<g id="a_node10"><a xlink:href="_web_interface_8h.html" target="_top" xlink:title="WebInterface.h">
<polygon fill="white" stroke="black" points="294.691,-112.5 294.691,-131.5 376.691,-131.5 376.691,-112.5 294.691,-112.5"/>
<text text-anchor="middle" x="335.691" y="-119.5" font-family="Helvetica,sans-Serif" font-size="10.00">WebInterface.h</text>
</a>
</g>
</g>
<!-- Node3&#45;&gt;Node10 -->
<g id="edge9" class="edge"><title>Node3&#45;&gt;Node10</title>
<path fill="none" stroke="midnightblue" d="M393.605,-168.324C383.205,-160.185 367.43,-147.839 354.969,-138.087"/>
<polygon fill="midnightblue" stroke="midnightblue" points="357.011,-135.241 346.979,-131.834 352.697,-140.753 357.011,-135.241"/>
</g>
<!-- Node5 -->
<g id="node5" class="node"><title>Node5</title>
<g id="a_node5"><a xlink:href="_config_8h.html" target="_top" xlink:title="Framework/Config.h">
<polygon fill="white" stroke="black" points="439.191,-56.5 439.191,-75.5 542.191,-75.5 542.191,-56.5 439.191,-56.5"/>
<text text-anchor="middle" x="490.691" y="-63.5" font-family="Helvetica,sans-Serif" font-size="10.00">Framework/Config.h</text>
</a>
</g>
</g>
<!-- Node3&#45;&gt;Node5 -->
<g id="edge11" class="edge"><title>Node3&#45;&gt;Node5</title>
<path fill="none" stroke="midnightblue" d="M411.439,-168.368C425.694,-150.135 459.085,-107.426 477.654,-83.6752"/>
<polygon fill="midnightblue" stroke="midnightblue" points="480.572,-85.6253 483.974,-75.5914 475.057,-81.3138 480.572,-85.6253"/>
</g>
<!-- Node11 -->
<g id="node11" class="node"><title>Node11</title>
<polygon fill="white" stroke="#bfbfbf" points="324.691,-56.5 324.691,-75.5 396.691,-75.5 396.691,-56.5 324.691,-56.5"/>
<text text-anchor="middle" x="360.691" y="-63.5" font-family="Helvetica,sans-Serif" font-size="10.00">WebServer.h</text>
</g>
<!-- Node3&#45;&gt;Node11 -->
<g id="edge12" class="edge"><title>Node3&#45;&gt;Node11</title>
<path fill="none" stroke="midnightblue" d="M402.819,-168.378C399.928,-155.729 393.849,-131.527 385.691,-112 381.729,-102.517 376.282,-92.4726 371.483,-84.2853"/>
<polygon fill="midnightblue" stroke="midnightblue" points="374.445,-82.4188 366.276,-75.6719 368.454,-86.0404 374.445,-82.4188"/>
</g>
<!-- Node4&#45;&gt;Node5 -->
<g id="edge4" class="edge"><title>Node4&#45;&gt;Node5</title>
<path fill="none" stroke="midnightblue" d="M602.617,-112.444C580.631,-103.517 545.957,-89.4387 521.027,-79.3168"/>
<polygon fill="midnightblue" stroke="midnightblue" points="522.249,-76.0355 511.667,-75.5164 519.615,-82.5213 522.249,-76.0355"/>
</g>
<!-- Node7 -->
<g id="node7" class="node"><title>Node7</title>
<g id="a_node7"><a xlink:href="_object_types_8h.html" target="_top" xlink:title="Framework/ObjectTypes.h">
<polygon fill="white" stroke="black" points="560.191,-56.5 560.191,-75.5 691.191,-75.5 691.191,-56.5 560.191,-56.5"/>
<text text-anchor="middle" x="625.691" y="-63.5" font-family="Helvetica,sans-Serif" font-size="10.00">Framework/ObjectTypes.h</text>
</a>
</g>
</g>
<!-- Node4&#45;&gt;Node7 -->
<g id="edge6" class="edge"><title>Node4&#45;&gt;Node7</title>
<path fill="none" stroke="midnightblue" d="M624.021,-112.083C624.283,-105.006 624.659,-94.8611 624.988,-85.9865"/>
<polygon fill="midnightblue" stroke="midnightblue" points="628.494,-85.8738 625.367,-75.7511 621.499,-85.6147 628.494,-85.8738"/>
</g>
<!-- Node6 -->
<g id="node6" class="node"><title>Node6</title>
<polygon fill="white" stroke="#bfbfbf" points="221.191,-0.5 221.191,-19.5 270.191,-19.5 270.191,-0.5 221.191,-0.5"/>
<text text-anchor="middle" x="245.691" y="-7.5" font-family="Helvetica,sans-Serif" font-size="10.00">stdint.h</text>
</g>
<!-- Node5&#45;&gt;Node6 -->
<g id="edge5" class="edge"><title>Node5&#45;&gt;Node6</title>
<path fill="none" stroke="midnightblue" d="M451.87,-56.4435C404.678,-46.042 325.748,-28.6452 280.464,-18.6642"/>
<polygon fill="midnightblue" stroke="midnightblue" points="281.044,-15.2081 270.525,-16.4736 279.537,-22.0441 281.044,-15.2081"/>
</g>
<!-- Node9 -->
<g id="node9" class="node"><title>Node9</title>
<polygon fill="white" stroke="#bfbfbf" points="742.691,-56.5 742.691,-75.5 800.691,-75.5 800.691,-56.5 742.691,-56.5"/>
<text text-anchor="middle" x="771.691" y="-63.5" font-family="Helvetica,sans-Serif" font-size="10.00">Arduino.h</text>
</g>
<!-- Node8&#45;&gt;Node9 -->
<g id="edge8" class="edge"><title>Node8&#45;&gt;Node9</title>
<path fill="none" stroke="midnightblue" d="M716.295,-112.324C726.147,-104.263 741.042,-92.0765 752.906,-82.3695"/>
<polygon fill="midnightblue" stroke="midnightblue" points="755.371,-84.8752 760.894,-75.8339 750.938,-79.4575 755.371,-84.8752"/>
</g>
<!-- Node10&#45;&gt;Node11 -->
<g id="edge10" class="edge"><title>Node10&#45;&gt;Node11</title>
<path fill="none" stroke="midnightblue" d="M339.819,-112.083C343.205,-104.77 348.107,-94.1814 352.31,-85.1034"/>
<polygon fill="midnightblue" stroke="midnightblue" points="355.614,-86.2962 356.64,-75.7511 349.262,-83.3553 355.614,-86.2962"/>
</g>
<!-- Node12&#45;&gt;Node4 -->
<g id="edge14" class="edge"><title>Node12&#45;&gt;Node4</title>
<path fill="none" stroke="midnightblue" d="M459.658,-224.368C490.333,-205.412 563.817,-160.001 601.13,-136.942"/>
<polygon fill="midnightblue" stroke="midnightblue" points="603.122,-139.826 609.788,-131.591 599.442,-133.871 603.122,-139.826"/>
</g>
<!-- Node12&#45;&gt;Node5 -->
<g id="edge15" class="edge"><title>Node12&#45;&gt;Node5</title>
<path fill="none" stroke="midnightblue" d="M452.115,-224.174C458.149,-215.432 466.939,-201.441 471.691,-188 483.935,-153.37 488.306,-110.384 489.854,-86.0845"/>
<polygon fill="midnightblue" stroke="midnightblue" points="493.366,-85.9492 490.41,-75.7754 486.377,-85.5726 493.366,-85.9492"/>
</g>
<!-- Node12&#45;&gt;Node3 -->
<g id="edge16" class="edge"><title>Node12&#45;&gt;Node3</title>
<path fill="none" stroke="midnightblue" d="M438.921,-224.083C433.129,-216.455 424.632,-205.264 417.553,-195.941"/>
<polygon fill="midnightblue" stroke="midnightblue" points="420.17,-193.599 411.335,-187.751 414.595,-197.832 420.17,-193.599"/>
</g>
<!-- Node12&#45;&gt;Node8 -->
<g id="edge17" class="edge"><title>Node12&#45;&gt;Node8</title>
<path fill="none" stroke="midnightblue" d="M466.093,-224.368C511.848,-205.01 622.811,-158.065 676.128,-135.507"/>
<polygon fill="midnightblue" stroke="midnightblue" points="677.538,-138.711 685.384,-131.591 674.811,-132.264 677.538,-138.711"/>
</g>
<!-- Node12&#45;&gt;Node10 -->
<g id="edge18" class="edge"><title>Node12&#45;&gt;Node10</title>
<path fill="none" stroke="midnightblue" d="M393.835,-224.469C372.465,-218.138 349.702,-207.128 336.691,-188 327.575,-174.599 328.372,-155.778 330.829,-141.835"/>
<polygon fill="midnightblue" stroke="midnightblue" points="334.285,-142.413 332.997,-131.896 327.446,-140.92 334.285,-142.413"/>
</g>
<!-- Node13&#45;&gt;Node9 -->
<g id="edge20" class="edge"><title>Node13&#45;&gt;Node9</title>
<path fill="none" stroke="midnightblue" d="M637.689,-392.447C664.088,-384.995 701.062,-372.749 730.691,-356 770.273,-333.625 809.691,-336.468 809.691,-291 809.691,-291 809.691,-291 809.691,-177 809.691,-142.813 793.09,-105.764 781.834,-84.5707"/>
<polygon fill="midnightblue" stroke="midnightblue" points="784.872,-82.832 776.975,-75.769 778.744,-86.2151 784.872,-82.832"/>
</g>
<!-- Node14 -->
<g id="node14" class="node"><title>Node14</title>
<polygon fill="white" stroke="#bfbfbf" points="394.691,-336.5 394.691,-355.5 456.691,-355.5 456.691,-336.5 394.691,-336.5"/>
<text text-anchor="middle" x="425.691" y="-343.5" font-family="Helvetica,sans-Serif" font-size="10.00">Ethernet.h</text>
</g>
<!-- Node13&#45;&gt;Node14 -->
<g id="edge21" class="edge"><title>Node13&#45;&gt;Node14</title>
<path fill="none" stroke="midnightblue" d="M575.486,-392.444C545.281,-383.28 497.18,-368.688 463.662,-358.519"/>
<polygon fill="midnightblue" stroke="midnightblue" points="464.349,-355.07 453.764,-355.516 462.317,-361.769 464.349,-355.07"/>
</g>
<!-- Node13&#45;&gt;Node15 -->
<g id="edge22" class="edge"><title>Node13&#45;&gt;Node15</title>
<path fill="none" stroke="midnightblue" d="M639.547,-393.799C642.639,-393.187 645.72,-392.58 648.691,-392 710.605,-379.906 781.734,-366.396 829.58,-357.364"/>
<polygon fill="midnightblue" stroke="midnightblue" points="830.247,-360.8 839.425,-355.506 828.949,-353.921 830.247,-360.8"/>
</g>
<!-- Node13&#45;&gt;Node5 -->
<g id="edge23" class="edge"><title>Node13&#45;&gt;Node5</title>
<path fill="none" stroke="midnightblue" d="M612.979,-392.395C621.272,-384.025 632.835,-370.483 637.691,-356 640.517,-347.572 639.891,-344.612 637.691,-336 637.246,-334.26 532.897,-143.944 500.302,-84.5192"/>
<polygon fill="midnightblue" stroke="midnightblue" points="503.277,-82.666 495.399,-75.5817 497.14,-86.0326 503.277,-82.666"/>
</g>
<!-- Node13&#45;&gt;Node3 -->
<g id="edge24" class="edge"><title>Node13&#45;&gt;Node3</title>
<path fill="none" stroke="midnightblue" d="M567.904,-399.653C507.668,-396.552 390.093,-386.632 364.691,-356 351.275,-339.822 306.301,-404.49 371.691,-224 375.472,-213.565 382.477,-203.457 389.064,-195.474"/>
<polygon fill="midnightblue" stroke="midnightblue" points="391.899,-197.551 395.875,-187.73 386.643,-192.928 391.899,-197.551"/>
</g>
<!-- Node13&#45;&gt;Node12 -->
<g id="edge25" class="edge"><title>Node13&#45;&gt;Node12</title>
<path fill="none" stroke="midnightblue" d="M567.84,-399.253C510.078,-395.604 400.468,-384.953 376.691,-356 348.335,-321.471 396.851,-273.756 426.048,-249.873"/>
<polygon fill="midnightblue" stroke="midnightblue" points="428.38,-252.491 434.037,-243.533 424.028,-247.008 428.38,-252.491"/>
</g>
<!-- Node16 -->
<g id="node16" class="node"><title>Node16</title>
<g id="a_node16"><a xlink:href="_sensor_8h.html" target="_top" xlink:title="Framework/Sensor.h">
<polygon fill="white" stroke="black" points="597.191,-224.5 597.191,-243.5 704.191,-243.5 704.191,-224.5 597.191,-224.5"/>
<text text-anchor="middle" x="650.691" y="-231.5" font-family="Helvetica,sans-Serif" font-size="10.00">Framework/Sensor.h</text>
</a>
</g>
</g>
<!-- Node13&#45;&gt;Node16 -->
<g id="edge26" class="edge"><title>Node13&#45;&gt;Node16</title>
<path fill="none" stroke="midnightblue" d="M626.479,-392.471C642.017,-385.316 661.398,-373.435 670.691,-356 688.479,-322.625 671.954,-277.312 660.169,-252.695"/>
<polygon fill="midnightblue" stroke="midnightblue" points="663.158,-250.851 655.522,-243.507 656.912,-254.01 663.158,-250.851"/>
</g>
<!-- Node17 -->
<g id="node17" class="node"><title>Node17</title>
<g id="a_node17"><a xlink:href="_array_list_8h.html" target="_top" xlink:title="Framework/ArrayList.h">
<polygon fill="white" stroke="black" points="147.191,-336.5 147.191,-355.5 262.191,-355.5 262.191,-336.5 147.191,-336.5"/>
<text text-anchor="middle" x="204.691" y="-343.5" font-family="Helvetica,sans-Serif" font-size="10.00">Framework/ArrayList.h</text>
</a>
</g>
</g>
<!-- Node13&#45;&gt;Node17 -->
<g id="edge28" class="edge"><title>Node13&#45;&gt;Node17</title>
<path fill="none" stroke="midnightblue" d="M567.931,-396.16C501.485,-387.168 357.993,-367.748 272.59,-356.189"/>
<polygon fill="midnightblue" stroke="midnightblue" points="272.851,-352.693 262.472,-354.82 271.912,-359.63 272.851,-352.693"/>
</g>
<!-- Node19 -->
<g id="node19" class="node"><title>Node19</title>
<g id="a_node19"><a xlink:href="_s_d_config_manager_8h.html" target="_top" xlink:title="Framework/SDConfigManager.h">
<polygon fill="white" stroke="black" points="474.691,-336.5 474.691,-355.5 628.691,-355.5 628.691,-336.5 474.691,-336.5"/>
<text text-anchor="middle" x="551.691" y="-343.5" font-family="Helvetica,sans-Serif" font-size="10.00">Framework/SDConfigManager.h</text>
</a>
</g>
</g>
<!-- Node13&#45;&gt;Node19 -->
<g id="edge31" class="edge"><title>Node13&#45;&gt;Node19</title>
<path fill="none" stroke="midnightblue" d="M595.104,-392.083C587.532,-384.22 576.313,-372.569 567.177,-363.081"/>
<polygon fill="midnightblue" stroke="midnightblue" points="569.575,-360.527 560.118,-355.751 564.533,-365.382 569.575,-360.527"/>
</g>
<!-- Node13&#45;&gt;Node4 -->
<g id="edge38" class="edge"><title>Node13&#45;&gt;Node4</title>
<path fill="none" stroke="midnightblue" d="M633.595,-392.394C652.2,-385.51 675.094,-373.979 688.691,-356 719.398,-315.396 707.328,-294.625 712.691,-244 713.627,-235.161 715.832,-232.315 712.691,-224 698.912,-187.521 665.287,-155.689 643.54,-137.942"/>
<polygon fill="midnightblue" stroke="midnightblue" points="645.594,-135.105 635.581,-131.642 641.249,-140.593 645.594,-135.105"/>
</g>
<!-- Node13&#45;&gt;Node8 -->
<g id="edge39" class="edge"><title>Node13&#45;&gt;Node8</title>
<path fill="none" stroke="midnightblue" d="M639.352,-394.173C662.47,-387.967 691.552,-376.523 709.691,-356 764.03,-294.519 729.76,-184.213 713.174,-141.032"/>
<polygon fill="midnightblue" stroke="midnightblue" points="716.357,-139.564 709.403,-131.571 709.854,-142.156 716.357,-139.564"/>
</g>
<!-- Node16&#45;&gt;Node4 -->
<g id="edge27" class="edge"><title>Node16&#45;&gt;Node4</title>
<path fill="none" stroke="midnightblue" d="M648.572,-224.368C644.215,-206.617 634.164,-165.666 628.256,-141.597"/>
<polygon fill="midnightblue" stroke="midnightblue" points="631.583,-140.469 625.8,-131.591 624.785,-142.137 631.583,-140.469"/>
</g>
<!-- Node18 -->
<g id="node18" class="node"><title>Node18</title>
<polygon fill="white" stroke="#bfbfbf" points="211.191,-280.5 211.191,-299.5 262.191,-299.5 262.191,-280.5 211.191,-280.5"/>
<text text-anchor="middle" x="236.691" y="-287.5" font-family="Helvetica,sans-Serif" font-size="10.00">stddef.h</text>
</g>
<!-- Node17&#45;&gt;Node18 -->
<g id="edge29" class="edge"><title>Node17&#45;&gt;Node18</title>
<path fill="none" stroke="midnightblue" d="M209.975,-336.083C214.402,-328.613 220.854,-317.724 226.309,-308.52"/>
<polygon fill="midnightblue" stroke="midnightblue" points="229.418,-310.138 231.505,-299.751 223.396,-306.57 229.418,-310.138"/>
</g>
<!-- Node17&#45;&gt;Node6 -->
<g id="edge30" class="edge"><title>Node17&#45;&gt;Node6</title>
<path fill="none" stroke="midnightblue" d="M146.896,-337.345C99.6701,-329.963 37.8564,-317.352 19.691,-300 -2.07288,-279.21 0.690959,-265.098 0.690959,-235 0.690959,-235 0.690959,-235 0.690959,-121 0.690959,-30.0509 142.938,-13.837 210.656,-11.2712"/>
<polygon fill="midnightblue" stroke="midnightblue" points="210.96,-14.7638 220.851,-10.9672 210.751,-7.76687 210.96,-14.7638"/>
</g>
<!-- Node20 -->
<g id="node20" class="node"><title>Node20</title>
<g id="a_node20"><a xlink:href="_config_manager_8h.html" target="_top" xlink:title="ConfigManager.h">
<polygon fill="white" stroke="black" points="443.191,-280.5 443.191,-299.5 532.191,-299.5 532.191,-280.5 443.191,-280.5"/>
<text text-anchor="middle" x="487.691" y="-287.5" font-family="Helvetica,sans-Serif" font-size="10.00">ConfigManager.h</text>
</a>
</g>
</g>
<!-- Node19&#45;&gt;Node20 -->
<g id="edge32" class="edge"><title>Node19&#45;&gt;Node20</title>
<path fill="none" stroke="midnightblue" d="M541.408,-336.324C531.855,-328.263 517.411,-316.077 505.907,-306.369"/>
<polygon fill="midnightblue" stroke="midnightblue" points="508.061,-303.608 498.161,-299.834 503.547,-308.958 508.061,-303.608"/>
</g>
<!-- Node20&#45;&gt;Node9 -->
<g id="edge33" class="edge"><title>Node20&#45;&gt;Node9</title>
<path fill="none" stroke="midnightblue" d="M500.465,-280.314C519.315,-267.585 555.796,-243.284 587.691,-224 659.21,-180.759 699.203,-197.036 751.691,-132 762.457,-118.66 767.444,-99.5446 769.745,-85.495"/>
<polygon fill="midnightblue" stroke="midnightblue" points="773.222,-85.8953 771.073,-75.5209 766.283,-84.9715 773.222,-85.8953"/>
</g>
<!-- Node20&#45;&gt;Node13 -->
<g id="edge34" class="edge"><title>Node20&#45;&gt;Node13</title>
<path fill="none" stroke="midnightblue" d="M450.233,-299.525C412.802,-309.784 363.741,-329.057 385.691,-356 406.946,-382.09 500.177,-393.509 557.614,-398.143"/>
<polygon fill="midnightblue" stroke="midnightblue" points="557.659,-401.656 567.897,-398.931 558.194,-394.677 557.659,-401.656"/>
</g>
<!-- Node20&#45;&gt;Node12 -->
<g id="edge35" class="edge"><title>Node20&#45;&gt;Node12</title>
<path fill="none" stroke="midnightblue" d="M480.756,-280.083C474.762,-272.377 465.939,-261.033 458.643,-251.653"/>
<polygon fill="midnightblue" stroke="midnightblue" points="461.4,-249.496 452.497,-243.751 455.874,-253.793 461.4,-249.496"/>
</g>
<!-- Node20&#45;&gt;Node3 -->
<g id="edge36" class="edge"><title>Node20&#45;&gt;Node3</title>
<path fill="none" stroke="midnightblue" d="M443.133,-282.376C420.063,-276.44 393.831,-265.211 379.691,-244 369.678,-228.981 379.847,-209.372 390.063,-195.636"/>
<polygon fill="midnightblue" stroke="midnightblue" points="393.019,-197.546 396.572,-187.564 387.57,-193.152 393.019,-197.546"/>
</g>
<!-- Node20&#45;&gt;Node16 -->
<g id="edge37" class="edge"><title>Node20&#45;&gt;Node16</title>
<path fill="none" stroke="midnightblue" d="M513.519,-280.444C540.94,-271.359 584.468,-256.939 615.123,-246.783"/>
<polygon fill="midnightblue" stroke="midnightblue" points="616.592,-249.984 624.984,-243.516 614.391,-243.339 616.592,-249.984"/>
</g>
</g>
</svg>
