<?xml version="1.0" encoding="UTF-8" standalone="no"?>
<!DOCTYPE svg PUBLIC "-//W3C//DTD SVG 1.1//EN"
 "http://www.w3.org/Graphics/SVG/1.1/DTD/svg11.dtd">
<!-- Generated by graphviz version 2.30.1 (20130214.1330)
 -->
<!-- Title: Framework/WebInterface.h Pages: 1 -->
<svg width="1924pt" height="364pt"
 viewBox="0.00 0.00 1924.00 364.00" xmlns="http://www.w3.org/2000/svg" xmlns:xlink="http://www.w3.org/1999/xlink">
<g id="graph0" class="graph" transform="scale(1 1) rotate(0) translate(4 360)">
<title>Framework/WebInterface.h</title>
<polygon fill="white" stroke="white" points="-4,5 -4,-360 1921,-360 1921,5 -4,5"/>
<!-- Node1 -->
<g id="node1" class="node"><title>Node1</title>
<polygon fill="#bfbfbf" stroke="black" points="1478.5,-336.5 1478.5,-355.5 1611.5,-355.5 1611.5,-336.5 1478.5,-336.5"/>
<text text-anchor="middle" x="1545" y="-343.5" font-family="Helvetica,sans-Serif" font-size="10.00">Framework/WebInterface.h</text>
</g>
<!-- Node2 -->
<g id="node2" class="node"><title>Node2</title>
<g id="a_node2"><a xlink:href="_controller_8h.html" target="_top" xlink:title="Framework/Controller.h">
<polygon fill="white" stroke="black" points="1024.5,-280.5 1024.5,-299.5 1141.5,-299.5 1141.5,-280.5 1024.5,-280.5"/>
<text text-anchor="middle" x="1083" y="-287.5" font-family="Helvetica,sans-Serif" font-size="10.00">Framework/Controller.h</text>
</a>
</g>
</g>
<!-- Node1&#45;&gt;Node2 -->
<g id="edge1" class="edge"><title>Node1&#45;&gt;Node2</title>
<path fill="none" stroke="midnightblue" d="M1468.24,-336.028C1376.38,-325.291 1224.59,-307.549 1141.62,-297.851"/>
<polygon fill="midnightblue" stroke="midnightblue" points="1467.98,-339.521 1478.31,-337.206 1468.79,-332.568 1467.98,-339.521"/>
</g>
<!-- Node17 -->
<g id="node17" class="node"><title>Node17</title>
<g id="a_node17"><a xlink:href="_actuator_8h.html" target="_top" xlink:title="Framework/Actuator.h">
<polygon fill="white" stroke="black" points="912.5,-224.5 912.5,-243.5 1025.5,-243.5 1025.5,-224.5 912.5,-224.5"/>
<text text-anchor="middle" x="969" y="-231.5" font-family="Helvetica,sans-Serif" font-size="10.00">Framework/Actuator.h</text>
</a>
</g>
</g>
<!-- Node1&#45;&gt;Node17 -->
<g id="edge41" class="edge"><title>Node1&#45;&gt;Node17</title>
<path fill="none" stroke="midnightblue" d="M1468.24,-342.048C1330.79,-336.24 1053.36,-321.955 1015,-300 992.443,-287.09 978.208,-258.087 972.238,-243.589"/>
<polygon fill="midnightblue" stroke="midnightblue" points="1468.15,-345.547 1478.29,-342.468 1468.44,-338.553 1468.15,-345.547"/>
</g>
<!-- Node14 -->
<g id="node14" class="node"><title>Node14</title>
<g id="a_node14"><a xlink:href="configweb_8cpp.html" target="_top" xlink:title="Webinterface/configweb.cpp">
<polygon fill="white" stroke="black" points="1476,-112.5 1476,-131.5 1614,-131.5 1614,-112.5 1476,-112.5"/>
<text text-anchor="middle" x="1545" y="-119.5" font-family="Helvetica,sans-Serif" font-size="10.00">Webinterface/configweb.cpp</text>
</a>
</g>
</g>
<!-- Node1&#45;&gt;Node14 -->
<g id="edge42" class="edge"><title>Node1&#45;&gt;Node14</title>
<path fill="none" stroke="midnightblue" d="M1545,-326.295C1545,-280.644 1545,-164.854 1545,-131.884"/>
<polygon fill="midnightblue" stroke="midnightblue" points="1541.5,-326.297 1545,-336.297 1548.5,-326.297 1541.5,-326.297"/>
</g>
<!-- Node15 -->
<g id="node15" class="node"><title>Node15</title>
<g id="a_node15"><a xlink:href="dispatch_8cpp.html" target="_top" xlink:title="Webinterface/dispatch.cpp">
<polygon fill="white" stroke="black" points="1632,-112.5 1632,-131.5 1764,-131.5 1764,-112.5 1632,-112.5"/>
<text text-anchor="middle" x="1698" y="-119.5" font-family="Helvetica,sans-Serif" font-size="10.00">Webinterface/dispatch.cpp</text>
</a>
</g>
</g>
<!-- Node1&#45;&gt;Node15 -->
<g id="edge43" class="edge"><title>Node1&#45;&gt;Node15</title>
<path fill="none" stroke="midnightblue" d="M1556.71,-328.002C1587.32,-283.601 1668.87,-165.273 1691.88,-131.884"/>
<polygon fill="midnightblue" stroke="midnightblue" points="1553.79,-326.077 1551,-336.297 1559.55,-330.05 1553.79,-326.077"/>
</g>
<!-- Node16 -->
<g id="node16" class="node"><title>Node16</title>
<g id="a_node16"><a xlink:href="mainweb_8cpp.html" target="_top" xlink:title="Webinterface/mainweb.cpp">
<polygon fill="white" stroke="black" points="1782,-112.5 1782,-131.5 1916,-131.5 1916,-112.5 1782,-112.5"/>
<text text-anchor="middle" x="1849" y="-119.5" font-family="Helvetica,sans-Serif" font-size="10.00">Webinterface/mainweb.cpp</text>
</a>
</g>
</g>
<!-- Node1&#45;&gt;Node16 -->
<g id="edge44" class="edge"><title>Node1&#45;&gt;Node16</title>
<path fill="none" stroke="midnightblue" d="M1565.33,-330.153C1623.8,-287.455 1791.15,-165.247 1837.17,-131.643"/>
<polygon fill="midnightblue" stroke="midnightblue" points="1562.93,-327.573 1556.92,-336.297 1567.06,-333.226 1562.93,-327.573"/>
</g>
<!-- Node3 -->
<g id="node3" class="node"><title>Node3</title>
<g id="a_node3"><a xlink:href="_aquaduino_8h.html" target="_top" xlink:title="Aquaduino.h">
<polygon fill="white" stroke="black" points="1054.5,-168.5 1054.5,-187.5 1125.5,-187.5 1125.5,-168.5 1054.5,-168.5"/>
<text text-anchor="middle" x="1090" y="-175.5" font-family="Helvetica,sans-Serif" font-size="10.00">Aquaduino.h</text>
</a>
</g>
</g>
<!-- Node2&#45;&gt;Node3 -->
<g id="edge2" class="edge"><title>Node2&#45;&gt;Node3</title>
<path fill="none" stroke="midnightblue" d="M1084.19,-270.348C1085.72,-246.254 1088.33,-205.308 1089.45,-187.591"/>
<polygon fill="midnightblue" stroke="midnightblue" points="1080.69,-270.166 1083.55,-280.368 1087.68,-270.611 1080.69,-270.166"/>
</g>
<!-- Node2&#45;&gt;Node17 -->
<g id="edge18" class="edge"><title>Node2&#45;&gt;Node17</title>
<path fill="none" stroke="midnightblue" d="M1055.76,-276.096C1034.46,-266.007 1005.46,-252.27 986.979,-243.516"/>
<polygon fill="midnightblue" stroke="midnightblue" points="1054.4,-279.326 1064.94,-280.444 1057.4,-273 1054.4,-279.326"/>
</g>
<!-- Node5 -->
<g id="node5" class="node"><title>Node5</title>
<g id="a_node5"><a xlink:href="_config_manager_8h.html" target="_top" xlink:title="Framework/ConfigManager.h">
<polygon fill="white" stroke="black" points="1318,-112.5 1318,-131.5 1458,-131.5 1458,-112.5 1318,-112.5"/>
<text text-anchor="middle" x="1388" y="-119.5" font-family="Helvetica,sans-Serif" font-size="10.00">Framework/ConfigManager.h</text>
</a>
</g>
</g>
<!-- Node2&#45;&gt;Node5 -->
<g id="edge34" class="edge"><title>Node2&#45;&gt;Node5</title>
<path fill="none" stroke="midnightblue" d="M1107.86,-275.47C1168.44,-242.497 1322.38,-158.714 1372.19,-131.605"/>
<polygon fill="midnightblue" stroke="midnightblue" points="1106.08,-272.454 1098.97,-280.309 1109.43,-278.603 1106.08,-272.454"/>
</g>
<!-- Node21 -->
<g id="node21" class="node"><title>Node21</title>
<g id="a_node21"><a xlink:href="_temperature_controller_8h.html" target="_top" xlink:title="Controller/TemperatureController.h">
<polygon fill="white" stroke="black" points="436,-168.5 436,-187.5 600,-187.5 600,-168.5 436,-168.5"/>
<text text-anchor="middle" x="518" y="-175.5" font-family="Helvetica,sans-Serif" font-size="10.00">Controller/TemperatureController.h</text>
</a>
</g>
</g>
<!-- Node2&#45;&gt;Node21 -->
<g id="edge35" class="edge"><title>Node2&#45;&gt;Node21</title>
<path fill="none" stroke="midnightblue" d="M1029.13,-278.512C917.75,-256.827 664.014,-207.427 561.837,-187.535"/>
<polygon fill="midnightblue" stroke="midnightblue" points="1028.65,-281.984 1039.14,-280.46 1029.99,-275.113 1028.65,-281.984"/>
</g>
<!-- Node22 -->
<g id="node22" class="node"><title>Node22</title>
<g id="a_node22"><a xlink:href="_level_controller_8h.html" target="_top" xlink:title="Controller/LevelController.h">
<polygon fill="white" stroke="black" points="904,-168.5 904,-187.5 1036,-187.5 1036,-168.5 904,-168.5"/>
<text text-anchor="middle" x="970" y="-175.5" font-family="Helvetica,sans-Serif" font-size="10.00">Controller/LevelController.h</text>
</a>
</g>
</g>
<!-- Node2&#45;&gt;Node22 -->
<g id="edge36" class="edge"><title>Node2&#45;&gt;Node22</title>
<path fill="none" stroke="midnightblue" d="M1072.2,-271.785C1063.04,-257.962 1049.02,-238.53 1034,-224 1018.87,-209.362 998.598,-195.953 984.959,-187.651"/>
<polygon fill="midnightblue" stroke="midnightblue" points="1069.35,-273.828 1077.72,-280.329 1075.23,-270.03 1069.35,-273.828"/>
</g>
<!-- Node24 -->
<g id="node24" class="node"><title>Node24</title>
<g id="a_node24"><a xlink:href="_clock_timer_controller_8h.html" target="_top" xlink:title="Controller/ClockTimerController.h">
<polygon fill="white" stroke="black" points="257.5,-168.5 257.5,-187.5 416.5,-187.5 416.5,-168.5 257.5,-168.5"/>
<text text-anchor="middle" x="337" y="-175.5" font-family="Helvetica,sans-Serif" font-size="10.00">Controller/ClockTimerController.h</text>
</a>
</g>
</g>
<!-- Node2&#45;&gt;Node24 -->
<g id="edge37" class="edge"><title>Node2&#45;&gt;Node24</title>
<path fill="none" stroke="midnightblue" d="M1014.32,-280.336C946.165,-271.621 838.774,-257.564 746,-244 616.878,-225.122 465.259,-200.339 387.948,-187.514"/>
<polygon fill="midnightblue" stroke="midnightblue" points="1014.13,-283.841 1024.49,-281.636 1015.02,-276.898 1014.13,-283.841"/>
</g>
<!-- Node12 -->
<g id="node12" class="node"><title>Node12</title>
<g id="a_node12"><a xlink:href="_controller_8cpp.html" target="_top" xlink:title="Framework/Controller.cpp">
<polygon fill="white" stroke="black" points="1172,-112.5 1172,-131.5 1300,-131.5 1300,-112.5 1172,-112.5"/>
<text text-anchor="middle" x="1236" y="-119.5" font-family="Helvetica,sans-Serif" font-size="10.00">Framework/Controller.cpp</text>
</a>
</g>
</g>
<!-- Node2&#45;&gt;Node12 -->
<g id="edge40" class="edge"><title>Node2&#45;&gt;Node12</title>
<path fill="none" stroke="midnightblue" d="M1098.07,-272.651C1130.06,-237.939 1203.84,-157.898 1228.1,-131.568"/>
<polygon fill="midnightblue" stroke="midnightblue" points="1095.43,-270.35 1091.23,-280.075 1100.58,-275.094 1095.43,-270.35"/>
</g>
<!-- Node4 -->
<g id="node4" class="node"><title>Node4</title>
<g id="a_node4"><a xlink:href="_digital_output_8cpp.html" target="_top" xlink:title="Actuators/DigitalOutput.cpp">
<polygon fill="white" stroke="black" points="633.5,-112.5 633.5,-131.5 770.5,-131.5 770.5,-112.5 633.5,-112.5"/>
<text text-anchor="middle" x="702" y="-119.5" font-family="Helvetica,sans-Serif" font-size="10.00">Actuators/DigitalOutput.cpp</text>
</a>
</g>
</g>
<!-- Node3&#45;&gt;Node4 -->
<g id="edge3" class="edge"><title>Node3&#45;&gt;Node4</title>
<path fill="none" stroke="midnightblue" d="M1043.98,-167.955C979.276,-157.689 850.667,-141.398 770.623,-131.45"/>
<polygon fill="midnightblue" stroke="midnightblue" points="1043.75,-171.462 1054.18,-169.611 1044.87,-164.552 1043.75,-171.462"/>
</g>
<!-- Node3&#45;&gt;Node5 -->
<g id="edge4" class="edge"><title>Node3&#45;&gt;Node5</title>
<path fill="none" stroke="midnightblue" d="M1135.58,-168.741C1191.21,-158.661 1284.79,-141.702 1341.04,-131.509"/>
<polygon fill="midnightblue" stroke="midnightblue" points="1134.87,-165.313 1125.65,-170.54 1136.11,-172.201 1134.87,-165.313"/>
</g>
<!-- Node8 -->
<g id="node8" class="node"><title>Node8</title>
<g id="a_node8"><a xlink:href="_aquaduino_8cpp.html" target="_top" xlink:title="Aquaduino.cpp">
<polygon fill="white" stroke="black" points="152.5,-112.5 152.5,-131.5 233.5,-131.5 233.5,-112.5 152.5,-112.5"/>
<text text-anchor="middle" x="193" y="-119.5" font-family="Helvetica,sans-Serif" font-size="10.00">Aquaduino.cpp</text>
</a>
</g>
</g>
<!-- Node3&#45;&gt;Node8 -->
<g id="edge8" class="edge"><title>Node3&#45;&gt;Node8</title>
<path fill="none" stroke="midnightblue" d="M1044.17,-168.118C689.059,-125.748 594.299,-171.324 243,-132 239.932,-131.657 236.769,-131.239 233.593,-130.774"/>
<polygon fill="midnightblue" stroke="midnightblue" points="1043.87,-171.607 1054.22,-169.332 1044.71,-164.658 1043.87,-171.607"/>
</g>
<!-- Node9 -->
<g id="node9" class="node"><title>Node9</title>
<g id="a_node9"><a xlink:href="_clock_timer_controller_8cpp.html" target="_top" xlink:title="Controller/ClockTimerController.cpp">
<polygon fill="white" stroke="black" points="252,-112.5 252,-131.5 422,-131.5 422,-112.5 252,-112.5"/>
<text text-anchor="middle" x="337" y="-119.5" font-family="Helvetica,sans-Serif" font-size="10.00">Controller/ClockTimerController.cpp</text>
</a>
</g>
</g>
<!-- Node3&#45;&gt;Node9 -->
<g id="edge9" class="edge"><title>Node3&#45;&gt;Node9</title>
<path fill="none" stroke="midnightblue" d="M1044.04,-168.074C772.131,-133.591 700.22,-152.774 431,-132 428.058,-131.773 425.065,-131.533 422.042,-131.284"/>
<polygon fill="midnightblue" stroke="midnightblue" points="1043.85,-171.578 1054.21,-169.377 1044.74,-164.634 1043.85,-171.578"/>
</g>
<!-- Node10 -->
<g id="node10" class="node"><title>Node10</title>
<g id="a_node10"><a xlink:href="_level_controller_8cpp.html" target="_top" xlink:title="Controller/LevelController.cpp">
<polygon fill="white" stroke="black" points="788.5,-112.5 788.5,-131.5 931.5,-131.5 931.5,-112.5 788.5,-112.5"/>
<text text-anchor="middle" x="860" y="-119.5" font-family="Helvetica,sans-Serif" font-size="10.00">Controller/LevelController.cpp</text>
</a>
</g>
</g>
<!-- Node3&#45;&gt;Node10 -->
<g id="edge10" class="edge"><title>Node3&#45;&gt;Node10</title>
<path fill="none" stroke="midnightblue" d="M1044.31,-166.273C1000.94,-156.09 936.591,-140.982 896.53,-131.577"/>
<polygon fill="midnightblue" stroke="midnightblue" points="1043.78,-169.743 1054.31,-168.622 1045.38,-162.929 1043.78,-169.743"/>
</g>
<!-- Node11 -->
<g id="node11" class="node"><title>Node11</title>
<g id="a_node11"><a xlink:href="_temperature_controller_8cpp.html" target="_top" xlink:title="Controller/TemperatureController.cpp">
<polygon fill="white" stroke="black" points="440.5,-112.5 440.5,-131.5 615.5,-131.5 615.5,-112.5 440.5,-112.5"/>
<text text-anchor="middle" x="528" y="-119.5" font-family="Helvetica,sans-Serif" font-size="10.00">Controller/TemperatureController.cpp</text>
</a>
</g>
</g>
<!-- Node3&#45;&gt;Node11 -->
<g id="edge11" class="edge"><title>Node3&#45;&gt;Node11</title>
<path fill="none" stroke="midnightblue" d="M1044.05,-168.024C857.347,-141.79 807.756,-148.47 624,-132 621.249,-131.753 618.454,-131.501 615.631,-131.245"/>
<polygon fill="midnightblue" stroke="midnightblue" points="1043.81,-171.525 1054.2,-169.464 1044.79,-164.594 1043.81,-171.525"/>
</g>
<!-- Node3&#45;&gt;Node12 -->
<g id="edge12" class="edge"><title>Node3&#45;&gt;Node12</title>
<path fill="none" stroke="midnightblue" d="M1122.7,-164.906C1150.15,-154.754 1188.67,-140.506 1212.97,-131.516"/>
<polygon fill="midnightblue" stroke="midnightblue" points="1121.3,-161.692 1113.13,-168.444 1123.73,-168.257 1121.3,-161.692"/>
</g>
<!-- Node13 -->
<g id="node13" class="node"><title>Node13</title>
<g id="a_node13"><a xlink:href="_n_t_p_sync_8cpp.html" target="_top" xlink:title="Framework/NTPSync.cpp">
<polygon fill="white" stroke="black" points="1026,-112.5 1026,-131.5 1154,-131.5 1154,-112.5 1026,-112.5"/>
<text text-anchor="middle" x="1090" y="-119.5" font-family="Helvetica,sans-Serif" font-size="10.00">Framework/NTPSync.cpp</text>
</a>
</g>
</g>
<!-- Node3&#45;&gt;Node13 -->
<g id="edge13" class="edge"><title>Node3&#45;&gt;Node13</title>
<path fill="none" stroke="midnightblue" d="M1090,-157.805C1090,-148.91 1090,-138.78 1090,-131.751"/>
<polygon fill="midnightblue" stroke="midnightblue" points="1086.5,-158.083 1090,-168.083 1093.5,-158.083 1086.5,-158.083"/>
</g>
<!-- Node7 -->
<g id="node7" class="node"><title>Node7</title>
<g id="a_node7"><a xlink:href="_s_d_config_manager_8cpp.html" target="_top" xlink:title="Framework/SDConfigManager.cpp">
<polygon fill="white" stroke="black" points="930,-0.5 930,-19.5 1094,-19.5 1094,-0.5 930,-0.5"/>
<text text-anchor="middle" x="1012" y="-7.5" font-family="Helvetica,sans-Serif" font-size="10.00">Framework/SDConfigManager.cpp</text>
</a>
</g>
</g>
<!-- Node3&#45;&gt;Node7 -->
<g id="edge14" class="edge"><title>Node3&#45;&gt;Node7</title>
<path fill="none" stroke="midnightblue" d="M1058.82,-164.054C1043.13,-156.418 1024.6,-145.578 1011,-132 990.716,-111.744 986.358,-103.705 979,-76 976.719,-67.4089 976.234,-64.4477 979,-56 983.702,-41.6367 994.928,-28.0685 1002.98,-19.66"/>
<polygon fill="midnightblue" stroke="midnightblue" points="1057.62,-167.353 1068.16,-168.39 1060.56,-161.004 1057.62,-167.353"/>
</g>
<!-- Node3&#45;&gt;Node14 -->
<g id="edge15" class="edge"><title>Node3&#45;&gt;Node14</title>
<path fill="none" stroke="midnightblue" d="M1135.96,-171.546C1216.02,-162.044 1381.51,-142.403 1475.61,-131.235"/>
<polygon fill="midnightblue" stroke="midnightblue" points="1135.22,-168.108 1125.7,-172.763 1136.05,-175.06 1135.22,-168.108"/>
</g>
<!-- Node3&#45;&gt;Node15 -->
<g id="edge16" class="edge"><title>Node3&#45;&gt;Node15</title>
<path fill="none" stroke="midnightblue" d="M1135.7,-173.687C1227.93,-166.88 1442.87,-150.406 1623,-132 1625.87,-131.707 1628.8,-131.397 1631.76,-131.077"/>
<polygon fill="midnightblue" stroke="midnightblue" points="1135.31,-170.206 1125.59,-174.43 1135.82,-177.187 1135.31,-170.206"/>
</g>
<!-- Node3&#45;&gt;Node16 -->
<g id="edge17" class="edge"><title>Node3&#45;&gt;Node16</title>
<path fill="none" stroke="midnightblue" d="M1135.68,-174.814C1245.58,-169.375 1533.41,-154.064 1773,-132 1775.91,-131.732 1778.88,-131.444 1781.88,-131.14"/>
<polygon fill="midnightblue" stroke="midnightblue" points="1135.42,-171.322 1125.6,-175.31 1135.76,-178.314 1135.42,-171.322"/>
</g>
<!-- Node6 -->
<g id="node6" class="node"><title>Node6</title>
<g id="a_node6"><a xlink:href="_s_d_config_manager_8h.html" target="_top" xlink:title="Framework/SDConfigManager.h">
<polygon fill="white" stroke="black" points="988,-56.5 988,-75.5 1142,-75.5 1142,-56.5 988,-56.5"/>
<text text-anchor="middle" x="1065" y="-63.5" font-family="Helvetica,sans-Serif" font-size="10.00">Framework/SDConfigManager.h</text>
</a>
</g>
</g>
<!-- Node5&#45;&gt;Node6 -->
<g id="edge5" class="edge"><title>Node5&#45;&gt;Node6</title>
<path fill="none" stroke="midnightblue" d="M1326.93,-110.791C1265.9,-100.587 1173.13,-85.078 1115.94,-75.5164"/>
<polygon fill="midnightblue" stroke="midnightblue" points="1326.38,-114.247 1336.82,-112.444 1327.53,-107.342 1326.38,-114.247"/>
</g>
<!-- Node6&#45;&gt;Node3 -->
<g id="edge6" class="edge"><title>Node6&#45;&gt;Node3</title>
<path fill="none" stroke="midnightblue" d="M1042.1,-81.5693C1025.16,-94.2834 1006.69,-113.538 1017,-132 1026.94,-149.809 1047.15,-161.445 1063.79,-168.414"/>
<polygon fill="midnightblue" stroke="midnightblue" points="1044.48,-84.1701 1050.65,-75.5558 1040.46,-78.4435 1044.48,-84.1701"/>
</g>
<!-- Node6&#45;&gt;Node7 -->
<g id="edge7" class="edge"><title>Node6&#45;&gt;Node7</title>
<path fill="none" stroke="midnightblue" d="M1049.02,-48.7175C1039.68,-39.1997 1028.25,-27.5608 1020.59,-19.7511"/>
<polygon fill="midnightblue" stroke="midnightblue" points="1046.75,-51.3978 1056.25,-56.083 1051.74,-46.4945 1046.75,-51.3978"/>
</g>
<!-- Node17&#45;&gt;Node3 -->
<g id="edge19" class="edge"><title>Node17&#45;&gt;Node3</title>
<path fill="none" stroke="midnightblue" d="M997.306,-220.368C1019.97,-210.255 1051.13,-196.349 1070.92,-187.516"/>
<polygon fill="midnightblue" stroke="midnightblue" points="995.878,-217.172 988.173,-224.444 998.731,-223.564 995.878,-217.172"/>
</g>
<!-- Node17&#45;&gt;Node5 -->
<g id="edge20" class="edge"><title>Node17&#45;&gt;Node5</title>
<path fill="none" stroke="midnightblue" d="M1019.56,-222.329C1059.48,-213.693 1116.5,-200.888 1166,-188 1236.73,-169.584 1319.1,-144.5 1360.81,-131.537"/>
<polygon fill="midnightblue" stroke="midnightblue" points="1018.58,-218.959 1009.54,-224.487 1020.06,-225.803 1018.58,-218.959"/>
</g>
<!-- Node18 -->
<g id="node18" class="node"><title>Node18</title>
<g id="a_node18"><a xlink:href="_digital_output_8h.html" target="_top" xlink:title="Actuators/DigitalOutput.h">
<polygon fill="white" stroke="black" points="618,-168.5 618,-187.5 744,-187.5 744,-168.5 618,-168.5"/>
<text text-anchor="middle" x="681" y="-175.5" font-family="Helvetica,sans-Serif" font-size="10.00">Actuators/DigitalOutput.h</text>
</a>
</g>
</g>
<!-- Node17&#45;&gt;Node18 -->
<g id="edge21" class="edge"><title>Node17&#45;&gt;Node18</title>
<path fill="none" stroke="midnightblue" d="M913.198,-222.537C858.768,-212.332 776.996,-196.999 726.421,-187.516"/>
<polygon fill="midnightblue" stroke="midnightblue" points="912.892,-226.041 923.366,-224.444 914.182,-219.161 912.892,-226.041"/>
</g>
<!-- Node19 -->
<g id="node19" class="node"><title>Node19</title>
<g id="a_node19"><a xlink:href="_p_w_m_output_8h.html" target="_top" xlink:title="Actuators/PWMOutput.h">
<polygon fill="white" stroke="black" points="60,-168.5 60,-187.5 184,-187.5 184,-168.5 60,-168.5"/>
<text text-anchor="middle" x="122" y="-175.5" font-family="Helvetica,sans-Serif" font-size="10.00">Actuators/PWMOutput.h</text>
</a>
</g>
</g>
<!-- Node17&#45;&gt;Node19 -->
<g id="edge24" class="edge"><title>Node17&#45;&gt;Node19</title>
<path fill="none" stroke="midnightblue" d="M902.076,-229.024C774.714,-221.413 488.693,-204.107 248,-188 227.212,-186.609 204.501,-185.011 184.157,-183.551"/>
<polygon fill="midnightblue" stroke="midnightblue" points="902.245,-232.541 912.436,-229.643 902.663,-225.553 902.245,-232.541"/>
</g>
<!-- Node17&#45;&gt;Node21 -->
<g id="edge26" class="edge"><title>Node17&#45;&gt;Node21</title>
<path fill="none" stroke="midnightblue" d="M902.164,-224.997C818.32,-214.958 675.153,-197.817 589.275,-187.534"/>
<polygon fill="midnightblue" stroke="midnightblue" points="901.992,-228.502 912.337,-226.216 902.824,-221.551 901.992,-228.502"/>
</g>
<!-- Node17&#45;&gt;Node22 -->
<g id="edge29" class="edge"><title>Node17&#45;&gt;Node22</title>
<path fill="none" stroke="midnightblue" d="M969.355,-213.805C969.52,-204.91 969.708,-194.78 969.838,-187.751"/>
<polygon fill="midnightblue" stroke="midnightblue" points="965.851,-214.02 969.165,-224.083 972.85,-214.15 965.851,-214.02"/>
</g>
<!-- Node23 -->
<g id="node23" class="node"><title>Node23</title>
<g id="a_node23"><a xlink:href="_actuator_8cpp.html" target="_top" xlink:title="Framework/Actuator.cpp">
<polygon fill="white" stroke="black" points="762.5,-168.5 762.5,-187.5 885.5,-187.5 885.5,-168.5 762.5,-168.5"/>
<text text-anchor="middle" x="824" y="-175.5" font-family="Helvetica,sans-Serif" font-size="10.00">Framework/Actuator.cpp</text>
</a>
</g>
</g>
<!-- Node17&#45;&gt;Node23 -->
<g id="edge32" class="edge"><title>Node17&#45;&gt;Node23</title>
<path fill="none" stroke="midnightblue" d="M936.525,-220.906C909.264,-210.754 871.008,-196.506 846.868,-187.516"/>
<polygon fill="midnightblue" stroke="midnightblue" points="935.432,-224.233 946.024,-224.444 937.875,-217.674 935.432,-224.233"/>
</g>
<!-- Node17&#45;&gt;Node12 -->
<g id="edge33" class="edge"><title>Node17&#45;&gt;Node12</title>
<path fill="none" stroke="midnightblue" d="M1024.22,-222.315C1056.97,-214.916 1098.82,-203.578 1134,-188 1169.52,-172.273 1206.97,-145.331 1225.01,-131.597"/>
<polygon fill="midnightblue" stroke="midnightblue" points="1023.38,-218.916 1014.37,-224.485 1024.89,-225.752 1023.38,-218.916"/>
</g>
<!-- Node18&#45;&gt;Node4 -->
<g id="edge22" class="edge"><title>Node18&#45;&gt;Node4</title>
<path fill="none" stroke="midnightblue" d="M688.121,-158.69C691.66,-149.589 695.772,-139.014 698.597,-131.751"/>
<polygon fill="midnightblue" stroke="midnightblue" points="684.83,-157.494 684.468,-168.083 691.354,-160.032 684.83,-157.494"/>
</g>
<!-- Node18&#45;&gt;Node8 -->
<g id="edge23" class="edge"><title>Node18&#45;&gt;Node8</title>
<path fill="none" stroke="midnightblue" d="M607.421,-167.856C444.799,-150.04 401.576,-154.035 243,-132 239.942,-131.575 236.786,-131.098 233.616,-130.591"/>
<polygon fill="midnightblue" stroke="midnightblue" points="607.471,-171.383 617.795,-169.004 608.241,-164.425 607.471,-171.383"/>
</g>
<!-- Node20 -->
<g id="node20" class="node"><title>Node20</title>
<g id="a_node20"><a xlink:href="_p_w_m_output_8cpp.html" target="_top" xlink:title="Actuators/PWMOutput.cpp">
<polygon fill="white" stroke="black" points="0,-112.5 0,-131.5 134,-131.5 134,-112.5 0,-112.5"/>
<text text-anchor="middle" x="67" y="-119.5" font-family="Helvetica,sans-Serif" font-size="10.00">Actuators/PWMOutput.cpp</text>
</a>
</g>
</g>
<!-- Node19&#45;&gt;Node20 -->
<g id="edge25" class="edge"><title>Node19&#45;&gt;Node20</title>
<path fill="none" stroke="midnightblue" d="M105.706,-161.002C95.9594,-151.433 83.947,-139.639 75.9131,-131.751"/>
<polygon fill="midnightblue" stroke="midnightblue" points="103.33,-163.575 112.918,-168.083 108.234,-158.58 103.33,-163.575"/>
</g>
<!-- Node21&#45;&gt;Node8 -->
<g id="edge27" class="edge"><title>Node21&#45;&gt;Node8</title>
<path fill="none" stroke="midnightblue" d="M454.383,-166.884C398.615,-157.946 315.378,-144.435 243,-132 239.958,-131.477 236.812,-130.929 233.65,-130.373"/>
<polygon fill="midnightblue" stroke="midnightblue" points="454.04,-170.373 464.467,-168.498 455.147,-163.461 454.04,-170.373"/>
</g>
<!-- Node21&#45;&gt;Node11 -->
<g id="edge28" class="edge"><title>Node21&#45;&gt;Node11</title>
<path fill="none" stroke="midnightblue" d="M521.5,-158.101C523.16,-149.136 525.063,-138.858 526.379,-131.751"/>
<polygon fill="midnightblue" stroke="midnightblue" points="518.031,-157.613 519.651,-168.083 524.914,-158.888 518.031,-157.613"/>
</g>
<!-- Node22&#45;&gt;Node8 -->
<g id="edge30" class="edge"><title>Node22&#45;&gt;Node8</title>
<path fill="none" stroke="midnightblue" d="M893.737,-168.046C603.609,-143.454 527.573,-165.352 243,-132 239.934,-131.641 236.772,-131.211 233.597,-130.738"/>
<polygon fill="midnightblue" stroke="midnightblue" points="893.443,-171.533 903.706,-168.902 894.042,-164.559 893.443,-171.533"/>
</g>
<!-- Node22&#45;&gt;Node10 -->
<g id="edge31" class="edge"><title>Node22&#45;&gt;Node10</title>
<path fill="none" stroke="midnightblue" d="M943.238,-163.862C922.841,-153.849 895.334,-140.346 877.63,-131.655"/>
<polygon fill="midnightblue" stroke="midnightblue" points="941.808,-167.059 952.327,-168.324 944.892,-160.775 941.808,-167.059"/>
</g>
<!-- Node24&#45;&gt;Node8 -->
<g id="edge38" class="edge"><title>Node24&#45;&gt;Node8</title>
<path fill="none" stroke="midnightblue" d="M304.749,-164.906C277.676,-154.754 239.683,-140.506 215.71,-131.516"/>
<polygon fill="midnightblue" stroke="midnightblue" points="303.591,-168.209 314.183,-168.444 306.048,-161.655 303.591,-168.209"/>
</g>
<!-- Node24&#45;&gt;Node9 -->
<g id="edge39" class="edge"><title>Node24&#45;&gt;Node9</title>
<path fill="none" stroke="midnightblue" d="M337,-157.805C337,-148.91 337,-138.78 337,-131.751"/>
<polygon fill="midnightblue" stroke="midnightblue" points="333.5,-158.083 337,-168.083 340.5,-158.083 333.5,-158.083"/>
</g>
</g>
</svg>
