<?xml version="1.0" encoding="UTF-8" standalone="no"?>
<!DOCTYPE svg PUBLIC "-//W3C//DTD SVG 1.1//EN"
 "http://www.w3.org/Graphics/SVG/1.1/DTD/svg11.dtd">
<!-- Generated by graphviz version 2.30.1 (20130214.1330)
 -->
<!-- Title: Aquaduino::getTemperature Pages: 1 -->
<svg width="554pt" height="116pt"
 viewBox="0.00 0.00 554.00 116.00" xmlns="http://www.w3.org/2000/svg" xmlns:xlink="http://www.w3.org/1999/xlink">
<g id="graph0" class="graph" transform="scale(1 1) rotate(0) translate(4 112)">
<title>Aquaduino::getTemperature</title>
<polygon fill="white" stroke="white" points="-4,5 -4,-112 551,-112 551,5 -4,5"/>
<!-- Node1 -->
<g id="node1" class="node"><title>Node1</title>
<polygon fill="#bfbfbf" stroke="black" points="0,-44.5 0,-63.5 136,-63.5 136,-44.5 0,-44.5"/>
<text text-anchor="middle" x="68" y="-51.5" font-family="Helvetica,sans-Serif" font-size="10.00">Aquaduino::getTemperature</text>
</g>
<!-- Node2 -->
<g id="node2" class="node"><title>Node2</title>
<g id="a_node2"><a xlink:href="class_temperature_controller.html#a3609b19c2673e3ea33640e155d3949cc" target="_top" xlink:title="TemperatureController::run">
<polygon fill="white" stroke="black" points="172.5,-88.5 172.5,-107.5 303.5,-107.5 303.5,-88.5 172.5,-88.5"/>
<text text-anchor="middle" x="238" y="-95.5" font-family="Helvetica,sans-Serif" font-size="10.00">TemperatureController::run</text>
</a>
</g>
</g>
<!-- Node1&#45;&gt;Node2 -->
<g id="edge1" class="edge"><title>Node1&#45;&gt;Node2</title>
<path fill="none" stroke="midnightblue" d="M115.409,-66.1547C142.292,-73.1955 175.647,-81.9312 200.618,-88.4713"/>
<polygon fill="midnightblue" stroke="midnightblue" points="116.014,-62.6952 105.453,-63.5473 114.24,-69.4668 116.014,-62.6952"/>
</g>
<!-- Node3 -->
<g id="node3" class="node"><title>Node3</title>
<g id="a_node3"><a xlink:href="class_temperature_controller.html#a99ce11713729731ec86877a129021779" target="_top" xlink:title="TemperatureController\l::showWebinterface">
<polygon fill="white" stroke="black" points="182,-39 182,-69 294,-69 294,-39 182,-39"/>
<text text-anchor="start" x="190" y="-57" font-family="Helvetica,sans-Serif" font-size="10.00">TemperatureController</text>
<text text-anchor="middle" x="238" y="-46" font-family="Helvetica,sans-Serif" font-size="10.00">::showWebinterface</text>
</a>
</g>
</g>
<!-- Node1&#45;&gt;Node3 -->
<g id="edge2" class="edge"><title>Node1&#45;&gt;Node3</title>
<path fill="none" stroke="midnightblue" d="M146.692,-54C158.522,-54 170.519,-54 181.738,-54"/>
<polygon fill="midnightblue" stroke="midnightblue" points="146.364,-50.5001 136.364,-54 146.364,-57.5001 146.364,-50.5001"/>
</g>
<!-- Node4 -->
<g id="node4" class="node"><title>Node4</title>
<g id="a_node4"><a xlink:href="mainweb_8cpp.html#afd56fefe2a8598f61d016320f5250491" target="_top" xlink:title="defaultCmd">
<polygon fill="white" stroke="black" points="205.5,-0.5 205.5,-19.5 270.5,-19.5 270.5,-0.5 205.5,-0.5"/>
<text text-anchor="middle" x="238" y="-7.5" font-family="Helvetica,sans-Serif" font-size="10.00">defaultCmd</text>
</a>
</g>
</g>
<!-- Node1&#45;&gt;Node4 -->
<g id="edge3" class="edge"><title>Node1&#45;&gt;Node4</title>
<path fill="none" stroke="midnightblue" d="M115.257,-41.8851C143.929,-34.3756 180.009,-24.9261 205.424,-18.27"/>
<polygon fill="midnightblue" stroke="midnightblue" points="114.24,-38.5332 105.453,-44.4527 116.014,-45.3048 114.24,-38.5332"/>
</g>
<!-- Node5 -->
<g id="node5" class="node"><title>Node5</title>
<g id="a_node5"><a xlink:href="class_aquaduino.html#a6f21b3e1fe7fd8b1c13d1e78372abed6" target="_top" xlink:title="Aquaduino::setWebserver">
<polygon fill="white" stroke="black" points="340,-0.5 340,-19.5 468,-19.5 468,-0.5 340,-0.5"/>
<text text-anchor="middle" x="404" y="-7.5" font-family="Helvetica,sans-Serif" font-size="10.00">Aquaduino::setWebserver</text>
</a>
</g>
</g>
<!-- Node4&#45;&gt;Node5 -->
<g id="edge4" class="edge"><title>Node4&#45;&gt;Node5</title>
<path fill="none" stroke="midnightblue" d="M280.758,-10C298.71,-10 320.085,-10 339.901,-10"/>
<polygon fill="midnightblue" stroke="midnightblue" points="280.621,-6.5001 270.621,-10 280.621,-13.5001 280.621,-6.5001"/>
</g>
<!-- Node6 -->
<g id="node6" class="node"><title>Node6</title>
<g id="a_node6"><a xlink:href="_aquaduino_8cpp.html#a4fc01d736fe50cf5b977f755b675f11d" target="_top" xlink:title="setup">
<polygon fill="white" stroke="black" points="504.5,-0.5 504.5,-19.5 545.5,-19.5 545.5,-0.5 504.5,-0.5"/>
<text text-anchor="middle" x="525" y="-7.5" font-family="Helvetica,sans-Serif" font-size="10.00">setup</text>
</a>
</g>
</g>
<!-- Node5&#45;&gt;Node6 -->
<g id="edge5" class="edge"><title>Node5&#45;&gt;Node6</title>
<path fill="none" stroke="midnightblue" d="M478.371,-10C487.872,-10 496.873,-10 504.331,-10"/>
<polygon fill="midnightblue" stroke="midnightblue" points="478.333,-6.5001 468.333,-10 478.333,-13.5001 478.333,-6.5001"/>
</g>
</g>
</svg>
