<?xml version="1.0" encoding="UTF-8" standalone="no"?>
<!DOCTYPE svg PUBLIC "-//W3C//DTD SVG 1.1//EN"
 "http://www.w3.org/Graphics/SVG/1.1/DTD/svg11.dtd">
<!-- Generated by graphviz version 2.30.1 (20130214.1330)
 -->
<!-- Title: ArrayList::add Pages: 1 -->
<svg width="326pt" height="66pt"
 viewBox="0.00 0.00 326.00 66.00" xmlns="http://www.w3.org/2000/svg" xmlns:xlink="http://www.w3.org/1999/xlink">
<g id="graph0" class="graph" transform="scale(1 1) rotate(0) translate(4 62)">
<title>ArrayList::add</title>
<polygon fill="white" stroke="white" points="-4,5 -4,-62 323,-62 323,5 -4,5"/>
<!-- Node1 -->
<g id="node1" class="node"><title>Node1</title>
<polygon fill="#bfbfbf" stroke="black" points="0.5,-19.5 0.5,-38.5 77.5,-38.5 77.5,-19.5 0.5,-19.5"/>
<text text-anchor="middle" x="39" y="-26.5" font-family="Helvetica,sans-Serif" font-size="10.00">ArrayList::add</text>
</g>
<!-- Node2 -->
<g id="node2" class="node"><title>Node2</title>
<g id="a_node2"><a xlink:href="class_aquaduino.html#aa6fc15ac00f3216cbb31654b2e457e7e" target="_top" xlink:title="Aquaduino::addController">
<polygon fill="white" stroke="black" points="114.5,-38.5 114.5,-57.5 239.5,-57.5 239.5,-38.5 114.5,-38.5"/>
<text text-anchor="middle" x="177" y="-45.5" font-family="Helvetica,sans-Serif" font-size="10.00">Aquaduino::addController</text>
</a>
</g>
</g>
<!-- Node1&#45;&gt;Node2 -->
<g id="edge1" class="edge"><title>Node1&#45;&gt;Node2</title>
<path fill="none" stroke="midnightblue" d="M87.4452,-35.6284C96.1234,-36.8408 105.295,-38.122 114.316,-39.3824"/>
<polygon fill="midnightblue" stroke="midnightblue" points="87.9107,-32.1595 77.5226,-34.2421 86.9421,-39.0922 87.9107,-32.1595"/>
</g>
<!-- Node4 -->
<g id="node4" class="node"><title>Node4</title>
<g id="a_node4"><a xlink:href="class_aquaduino.html#a25e61694a18574fc00fdc14a8ef0d7ac" target="_top" xlink:title="Aquaduino::addActuator">
<polygon fill="white" stroke="black" points="116.5,-0.5 116.5,-19.5 237.5,-19.5 237.5,-0.5 116.5,-0.5"/>
<text text-anchor="middle" x="177" y="-7.5" font-family="Helvetica,sans-Serif" font-size="10.00">Aquaduino::addActuator</text>
</a>
</g>
</g>
<!-- Node1&#45;&gt;Node4 -->
<g id="edge3" class="edge"><title>Node1&#45;&gt;Node4</title>
<path fill="none" stroke="midnightblue" d="M87.7088,-22.3348C96.9759,-21.0401 106.797,-19.6681 116.391,-18.3277"/>
<polygon fill="midnightblue" stroke="midnightblue" points="86.9421,-18.9078 77.5226,-23.7579 87.9107,-25.8405 86.9421,-18.9078"/>
</g>
<!-- Node3 -->
<g id="node3" class="node"><title>Node3</title>
<g id="a_node3"><a xlink:href="_aquaduino_8cpp.html#a4fc01d736fe50cf5b977f755b675f11d" target="_top" xlink:title="setup">
<polygon fill="white" stroke="black" points="276.5,-19.5 276.5,-38.5 317.5,-38.5 317.5,-19.5 276.5,-19.5"/>
<text text-anchor="middle" x="297" y="-26.5" font-family="Helvetica,sans-Serif" font-size="10.00">setup</text>
</a>
</g>
</g>
<!-- Node2&#45;&gt;Node3 -->
<g id="edge2" class="edge"><title>Node2&#45;&gt;Node3</title>
<path fill="none" stroke="midnightblue" d="M247.227,-36.8533C257.89,-35.1363 268.094,-33.4933 276.387,-32.158"/>
<polygon fill="midnightblue" stroke="midnightblue" points="246.662,-33.3991 237.346,-38.4443 247.775,-40.3101 246.662,-33.3991"/>
</g>
<!-- Node4&#45;&gt;Node3 -->
<g id="edge4" class="edge"><title>Node4&#45;&gt;Node3</title>
<path fill="none" stroke="midnightblue" d="M247.227,-21.1467C257.89,-22.8637 268.094,-24.5067 276.387,-25.842"/>
<polygon fill="midnightblue" stroke="midnightblue" points="247.775,-17.6899 237.346,-19.5557 246.662,-24.6009 247.775,-17.6899"/>
</g>
</g>
</svg>
