<?xml version="1.0" encoding="UTF-8" standalone="no"?>
<!DOCTYPE svg PUBLIC "-//W3C//DTD SVG 1.1//EN"
 "http://www.w3.org/Graphics/SVG/1.1/DTD/svg11.dtd">
<!-- Generated by graphviz version 2.30.1 (20130214.1330)
 -->
<!-- Title: SDConfigManager::readConfig Pages: 1 -->
<svg width="336pt" height="115pt"
 viewBox="0.00 0.00 336.00 115.00" xmlns="http://www.w3.org/2000/svg" xmlns:xlink="http://www.w3.org/1999/xlink">
<g id="graph0" class="graph" transform="scale(1 1) rotate(0) translate(4 111)">
<title>SDConfigManager::readConfig</title>
<polygon fill="white" stroke="white" points="-4,5 -4,-111 333,-111 333,5 -4,5"/>
<!-- Node1 -->
<g id="node1" class="node"><title>Node1</title>
<polygon fill="#bfbfbf" stroke="black" points="0,-38.5 0,-57.5 146,-57.5 146,-38.5 0,-38.5"/>
<text text-anchor="middle" x="73" y="-45.5" font-family="Helvetica,sans-Serif" font-size="10.00">SDConfigManager::readConfig</text>
</g>
<!-- Node2 -->
<g id="node2" class="node"><title>Node2</title>
<g id="a_node2"><a xlink:href="class_s_d_config_manager.html#af82e2c7188e996b42f9158b108dd6abc" target="_top" xlink:title="SDConfigManager::readStruct\lFromFile">
<polygon fill="white" stroke="black" points="182,-77 182,-107 328,-107 328,-77 182,-77"/>
<text text-anchor="start" x="190" y="-95" font-family="Helvetica,sans-Serif" font-size="10.00">SDConfigManager::readStruct</text>
<text text-anchor="middle" x="255" y="-84" font-family="Helvetica,sans-Serif" font-size="10.00">FromFile</text>
</a>
</g>
</g>
<!-- Node1&#45;&gt;Node2 -->
<g id="edge1" class="edge"><title>Node1&#45;&gt;Node2</title>
<path fill="none" stroke="midnightblue" d="M113.057,-57.5473C133.323,-62.5012 158.728,-68.7112 182.366,-74.4895"/>
<polygon fill="midnightblue" stroke="midnightblue" points="181.824,-77.9599 192.369,-76.9346 183.486,-71.1601 181.824,-77.9599"/>
</g>
<!-- Node3 -->
<g id="node3" class="node"><title>Node3</title>
<g id="a_node3"><a xlink:href="class_object.html#aa06e8c00bea02f598f7a68c5a1775de6" target="_top" xlink:title="Object::getType">
<polygon fill="white" stroke="black" points="212,-38.5 212,-57.5 298,-57.5 298,-38.5 212,-38.5"/>
<text text-anchor="middle" x="255" y="-45.5" font-family="Helvetica,sans-Serif" font-size="10.00">Object::getType</text>
</a>
</g>
</g>
<!-- Node1&#45;&gt;Node3 -->
<g id="edge2" class="edge"><title>Node1&#45;&gt;Node3</title>
<path fill="none" stroke="midnightblue" d="M146.176,-48C164.643,-48 184.153,-48 201.426,-48"/>
<polygon fill="midnightblue" stroke="midnightblue" points="201.862,-51.5001 211.862,-48 201.862,-44.5001 201.862,-51.5001"/>
</g>
<!-- Node4 -->
<g id="node4" class="node"><title>Node4</title>
<g id="a_node4"><a xlink:href="class_aquaduino.html#af0dc485b4dd7a95d7ec727c647f49bd3" target="_top" xlink:title="Aquaduino::deserialize">
<polygon fill="white" stroke="black" points="197.5,-0.5 197.5,-19.5 312.5,-19.5 312.5,-0.5 197.5,-0.5"/>
<text text-anchor="middle" x="255" y="-7.5" font-family="Helvetica,sans-Serif" font-size="10.00">Aquaduino::deserialize</text>
</a>
</g>
</g>
<!-- Node1&#45;&gt;Node4 -->
<g id="edge3" class="edge"><title>Node1&#45;&gt;Node4</title>
<path fill="none" stroke="midnightblue" d="M119.422,-38.411C143.603,-33.3061 173.527,-26.9887 199.014,-21.6082"/>
<polygon fill="midnightblue" stroke="midnightblue" points="199.844,-25.0102 208.905,-19.5201 198.398,-18.1612 199.844,-25.0102"/>
</g>
</g>
</svg>
