<?xml version="1.0" encoding="UTF-8" standalone="no"?>
<!DOCTYPE svg PUBLIC "-//W3C//DTD SVG 1.1//EN"
 "http://www.w3.org/Graphics/SVG/1.1/DTD/svg11.dtd">
<!-- Generated by graphviz version 2.30.1 (20130214.1330)
 -->
<!-- Title: WebInterface Pages: 1 -->
<svg width="668pt" height="508pt"
 viewBox="0.00 0.00 668.00 508.00" xmlns="http://www.w3.org/2000/svg" xmlns:xlink="http://www.w3.org/1999/xlink">
<g id="graph0" class="graph" transform="scale(1 1) rotate(0) translate(4 504)">
<title>WebInterface</title>
<polygon fill="white" stroke="white" points="-4,5 -4,-504 665,-504 665,5 -4,5"/>
<!-- Node1 -->
<g id="node1" class="node"><title>Node1</title>
<polygon fill="#bfbfbf" stroke="black" points="195.5,-442.5 195.5,-499.5 306.5,-499.5 306.5,-442.5 195.5,-442.5"/>
<text text-anchor="middle" x="251" y="-487.5" font-family="Helvetica,sans-Serif" font-size="10.00">WebInterface</text>
<polyline fill="none" stroke="black" points="195.5,-480.5 306.5,-480.5 "/>
<text text-anchor="middle" x="251" y="-468.5" font-family="Helvetica,sans-Serif" font-size="10.00"> </text>
<polyline fill="none" stroke="black" points="195.5,-461.5 306.5,-461.5 "/>
<text text-anchor="start" x="203.5" y="-449.5" font-family="Helvetica,sans-Serif" font-size="10.00">+ showWebinterface()</text>
</g>
<!-- Node2 -->
<g id="node2" class="node"><title>Node2</title>
<g id="a_node2"><a xlink:href="class_actuator.html" target="_top" xlink:title="{Actuator\n|# m_ControlledBy\l# m_locked\l|+ Actuator()\l+ setController()\l+ getController()\l+ lock()\l+ unlock()\l+ isLocked()\l+ on()\l+ off()\l+ isOn()\l+ supportsPWM()\l+ setPWM()\l+ getPWM()\l+ showWebinterface()\l# ~Actuator()\l}">
<polygon fill="white" stroke="black" points="128.5,-194.5 128.5,-405.5 239.5,-405.5 239.5,-194.5 128.5,-194.5"/>
<text text-anchor="middle" x="184" y="-393.5" font-family="Helvetica,sans-Serif" font-size="10.00">Actuator</text>
<polyline fill="none" stroke="black" points="128.5,-386.5 239.5,-386.5 "/>
<text text-anchor="start" x="136.5" y="-374.5" font-family="Helvetica,sans-Serif" font-size="10.00"># m_ControlledBy</text>
<text text-anchor="start" x="136.5" y="-363.5" font-family="Helvetica,sans-Serif" font-size="10.00"># m_locked</text>
<polyline fill="none" stroke="black" points="128.5,-356.5 239.5,-356.5 "/>
<text text-anchor="start" x="136.5" y="-344.5" font-family="Helvetica,sans-Serif" font-size="10.00">+ Actuator()</text>
<text text-anchor="start" x="136.5" y="-333.5" font-family="Helvetica,sans-Serif" font-size="10.00">+ setController()</text>
<text text-anchor="start" x="136.5" y="-322.5" font-family="Helvetica,sans-Serif" font-size="10.00">+ getController()</text>
<text text-anchor="start" x="136.5" y="-311.5" font-family="Helvetica,sans-Serif" font-size="10.00">+ lock()</text>
<text text-anchor="start" x="136.5" y="-300.5" font-family="Helvetica,sans-Serif" font-size="10.00">+ unlock()</text>
<text text-anchor="start" x="136.5" y="-289.5" font-family="Helvetica,sans-Serif" font-size="10.00">+ isLocked()</text>
<text text-anchor="start" x="136.5" y="-278.5" font-family="Helvetica,sans-Serif" font-size="10.00">+ on()</text>
<text text-anchor="start" x="136.5" y="-267.5" font-family="Helvetica,sans-Serif" font-size="10.00">+ off()</text>
<text text-anchor="start" x="136.5" y="-256.5" font-family="Helvetica,sans-Serif" font-size="10.00">+ isOn()</text>
<text text-anchor="start" x="136.5" y="-245.5" font-family="Helvetica,sans-Serif" font-size="10.00">+ supportsPWM()</text>
<text text-anchor="start" x="136.5" y="-234.5" font-family="Helvetica,sans-Serif" font-size="10.00">+ setPWM()</text>
<text text-anchor="start" x="136.5" y="-223.5" font-family="Helvetica,sans-Serif" font-size="10.00">+ getPWM()</text>
<text text-anchor="start" x="136.5" y="-212.5" font-family="Helvetica,sans-Serif" font-size="10.00">+ showWebinterface()</text>
<text text-anchor="start" x="136.5" y="-201.5" font-family="Helvetica,sans-Serif" font-size="10.00"># ~Actuator()</text>
</a>
</g>
</g>
<!-- Node1&#45;&gt;Node2 -->
<g id="edge1" class="edge"><title>Node1&#45;&gt;Node2</title>
<path fill="none" stroke="midnightblue" d="M236.355,-433.059C233.02,-424.647 229.316,-415.304 225.462,-405.584"/>
<polygon fill="none" stroke="midnightblue" points="233.147,-434.465 240.086,-442.471 239.654,-431.885 233.147,-434.465"/>
</g>
<!-- Node5 -->
<g id="node5" class="node"><title>Node5</title>
<g id="a_node5"><a xlink:href="class_controller.html" target="_top" xlink:title="{Controller\n||+ Controller()\l+ run()\l+ showWebinterface()\l# ~Controller()\l# allMyActuators()\l}">
<polygon fill="white" stroke="black" points="330.5,-249.5 330.5,-350.5 441.5,-350.5 441.5,-249.5 330.5,-249.5"/>
<text text-anchor="middle" x="386" y="-338.5" font-family="Helvetica,sans-Serif" font-size="10.00">Controller</text>
<polyline fill="none" stroke="black" points="330.5,-331.5 441.5,-331.5 "/>
<text text-anchor="middle" x="386" y="-319.5" font-family="Helvetica,sans-Serif" font-size="10.00"> </text>
<polyline fill="none" stroke="black" points="330.5,-312.5 441.5,-312.5 "/>
<text text-anchor="start" x="338.5" y="-300.5" font-family="Helvetica,sans-Serif" font-size="10.00">+ Controller()</text>
<text text-anchor="start" x="338.5" y="-289.5" font-family="Helvetica,sans-Serif" font-size="10.00">+ run()</text>
<text text-anchor="start" x="338.5" y="-278.5" font-family="Helvetica,sans-Serif" font-size="10.00">+ showWebinterface()</text>
<text text-anchor="start" x="338.5" y="-267.5" font-family="Helvetica,sans-Serif" font-size="10.00"># ~Controller()</text>
<text text-anchor="start" x="338.5" y="-256.5" font-family="Helvetica,sans-Serif" font-size="10.00"># allMyActuators()</text>
</a>
</g>
</g>
<!-- Node1&#45;&gt;Node5 -->
<g id="edge4" class="edge"><title>Node1&#45;&gt;Node5</title>
<path fill="none" stroke="midnightblue" d="M279.31,-434.561C298.74,-410.237 324.798,-377.616 346.298,-350.702"/>
<polygon fill="none" stroke="midnightblue" points="276.497,-432.473 272.991,-442.471 281.967,-436.842 276.497,-432.473"/>
</g>
<!-- Node3 -->
<g id="node3" class="node"><title>Node3</title>
<g id="a_node3"><a xlink:href="class_digital_output.html" target="_top" xlink:title="{DigitalOutput\n||+ DigitalOutput()\l+ serialize()\l+ deserialize()\l+ on()\l+ off()\l+ isOn()\l+ supportsPWM()\l+ setPWM()\l+ getPWM()\l+ showWebinterface()\l}">
<polygon fill="white" stroke="black" points="-0.5,-1 -0.5,-157 110.5,-157 110.5,-1 -0.5,-1"/>
<text text-anchor="middle" x="55" y="-145" font-family="Helvetica,sans-Serif" font-size="10.00">DigitalOutput</text>
<polyline fill="none" stroke="black" points="-0.5,-138 110.5,-138 "/>
<text text-anchor="middle" x="55" y="-126" font-family="Helvetica,sans-Serif" font-size="10.00"> </text>
<polyline fill="none" stroke="black" points="-0.5,-119 110.5,-119 "/>
<text text-anchor="start" x="7.5" y="-107" font-family="Helvetica,sans-Serif" font-size="10.00">+ DigitalOutput()</text>
<text text-anchor="start" x="7.5" y="-96" font-family="Helvetica,sans-Serif" font-size="10.00">+ serialize()</text>
<text text-anchor="start" x="7.5" y="-85" font-family="Helvetica,sans-Serif" font-size="10.00">+ deserialize()</text>
<text text-anchor="start" x="7.5" y="-74" font-family="Helvetica,sans-Serif" font-size="10.00">+ on()</text>
<text text-anchor="start" x="7.5" y="-63" font-family="Helvetica,sans-Serif" font-size="10.00">+ off()</text>
<text text-anchor="start" x="7.5" y="-52" font-family="Helvetica,sans-Serif" font-size="10.00">+ isOn()</text>
<text text-anchor="start" x="7.5" y="-41" font-family="Helvetica,sans-Serif" font-size="10.00">+ supportsPWM()</text>
<text text-anchor="start" x="7.5" y="-30" font-family="Helvetica,sans-Serif" font-size="10.00">+ setPWM()</text>
<text text-anchor="start" x="7.5" y="-19" font-family="Helvetica,sans-Serif" font-size="10.00">+ getPWM()</text>
<text text-anchor="start" x="7.5" y="-8" font-family="Helvetica,sans-Serif" font-size="10.00">+ showWebinterface()</text>
</a>
</g>
</g>
<!-- Node2&#45;&gt;Node3 -->
<g id="edge2" class="edge"><title>Node2&#45;&gt;Node3</title>
<path fill="none" stroke="midnightblue" d="M123.08,-195.578C115.436,-182.6 107.724,-169.508 100.376,-157.034"/>
<polygon fill="none" stroke="midnightblue" points="120.265,-197.695 128.356,-204.535 126.297,-194.143 120.265,-197.695"/>
</g>
<!-- Node4 -->
<g id="node4" class="node"><title>Node4</title>
<g id="a_node4"><a xlink:href="class_p_w_m_output.html" target="_top" xlink:title="{PWMOutput\n||+ PWMOutput()\l+ serialize()\l+ deserialize()\l+ on()\l+ off()\l+ isOn()\l+ supportsPWM()\l+ setPWM()\l+ getPWM()\l+ showWebinterface()\l}">
<polygon fill="white" stroke="black" points="128.5,-1 128.5,-157 239.5,-157 239.5,-1 128.5,-1"/>
<text text-anchor="middle" x="184" y="-145" font-family="Helvetica,sans-Serif" font-size="10.00">PWMOutput</text>
<polyline fill="none" stroke="black" points="128.5,-138 239.5,-138 "/>
<text text-anchor="middle" x="184" y="-126" font-family="Helvetica,sans-Serif" font-size="10.00"> </text>
<polyline fill="none" stroke="black" points="128.5,-119 239.5,-119 "/>
<text text-anchor="start" x="136.5" y="-107" font-family="Helvetica,sans-Serif" font-size="10.00">+ PWMOutput()</text>
<text text-anchor="start" x="136.5" y="-96" font-family="Helvetica,sans-Serif" font-size="10.00">+ serialize()</text>
<text text-anchor="start" x="136.5" y="-85" font-family="Helvetica,sans-Serif" font-size="10.00">+ deserialize()</text>
<text text-anchor="start" x="136.5" y="-74" font-family="Helvetica,sans-Serif" font-size="10.00">+ on()</text>
<text text-anchor="start" x="136.5" y="-63" font-family="Helvetica,sans-Serif" font-size="10.00">+ off()</text>
<text text-anchor="start" x="136.5" y="-52" font-family="Helvetica,sans-Serif" font-size="10.00">+ isOn()</text>
<text text-anchor="start" x="136.5" y="-41" font-family="Helvetica,sans-Serif" font-size="10.00">+ supportsPWM()</text>
<text text-anchor="start" x="136.5" y="-30" font-family="Helvetica,sans-Serif" font-size="10.00">+ setPWM()</text>
<text text-anchor="start" x="136.5" y="-19" font-family="Helvetica,sans-Serif" font-size="10.00">+ getPWM()</text>
<text text-anchor="start" x="136.5" y="-8" font-family="Helvetica,sans-Serif" font-size="10.00">+ showWebinterface()</text>
</a>
</g>
</g>
<!-- Node2&#45;&gt;Node4 -->
<g id="edge3" class="edge"><title>Node2&#45;&gt;Node4</title>
<path fill="none" stroke="midnightblue" d="M184,-184.021C184,-174.915 184,-165.859 184,-157.107"/>
<polygon fill="none" stroke="midnightblue" points="180.5,-184.311 184,-194.311 187.5,-184.311 180.5,-184.311"/>
</g>
<!-- Node6 -->
<g id="node6" class="node"><title>Node6</title>
<g id="a_node6"><a xlink:href="class_clock_timer_controller.html" target="_top" xlink:title="{ClockTimerController\n||+ ClockTimerController()\l+ serialize()\l+ deserialize()\l+ run()\l+ showWebinterface()\l}">
<polygon fill="white" stroke="black" points="258,-28.5 258,-129.5 380,-129.5 380,-28.5 258,-28.5"/>
<text text-anchor="middle" x="319" y="-117.5" font-family="Helvetica,sans-Serif" font-size="10.00">ClockTimerController</text>
<polyline fill="none" stroke="black" points="258,-110.5 380,-110.5 "/>
<text text-anchor="middle" x="319" y="-98.5" font-family="Helvetica,sans-Serif" font-size="10.00"> </text>
<polyline fill="none" stroke="black" points="258,-91.5 380,-91.5 "/>
<text text-anchor="start" x="266" y="-79.5" font-family="Helvetica,sans-Serif" font-size="10.00">+ ClockTimerController()</text>
<text text-anchor="start" x="266" y="-68.5" font-family="Helvetica,sans-Serif" font-size="10.00">+ serialize()</text>
<text text-anchor="start" x="266" y="-57.5" font-family="Helvetica,sans-Serif" font-size="10.00">+ deserialize()</text>
<text text-anchor="start" x="266" y="-46.5" font-family="Helvetica,sans-Serif" font-size="10.00">+ run()</text>
<text text-anchor="start" x="266" y="-35.5" font-family="Helvetica,sans-Serif" font-size="10.00">+ showWebinterface()</text>
</a>
</g>
</g>
<!-- Node5&#45;&gt;Node6 -->
<g id="edge5" class="edge"><title>Node5&#45;&gt;Node6</title>
<path fill="none" stroke="midnightblue" d="M367.766,-239.401C357.264,-205.072 344.215,-162.42 334.259,-129.876"/>
<polygon fill="none" stroke="midnightblue" points="364.524,-240.767 370.797,-249.306 371.218,-238.719 364.524,-240.767"/>
</g>
<!-- Node7 -->
<g id="node7" class="node"><title>Node7</title>
<g id="a_node7"><a xlink:href="class_level_controller.html" target="_top" xlink:title="{LevelController\n||+ LevelController()\l+ serialize()\l+ deserialize()\l+ run()\l+ showWebinterface()\l}">
<polygon fill="white" stroke="black" points="398.5,-28.5 398.5,-129.5 509.5,-129.5 509.5,-28.5 398.5,-28.5"/>
<text text-anchor="middle" x="454" y="-117.5" font-family="Helvetica,sans-Serif" font-size="10.00">LevelController</text>
<polyline fill="none" stroke="black" points="398.5,-110.5 509.5,-110.5 "/>
<text text-anchor="middle" x="454" y="-98.5" font-family="Helvetica,sans-Serif" font-size="10.00"> </text>
<polyline fill="none" stroke="black" points="398.5,-91.5 509.5,-91.5 "/>
<text text-anchor="start" x="406.5" y="-79.5" font-family="Helvetica,sans-Serif" font-size="10.00">+ LevelController()</text>
<text text-anchor="start" x="406.5" y="-68.5" font-family="Helvetica,sans-Serif" font-size="10.00">+ serialize()</text>
<text text-anchor="start" x="406.5" y="-57.5" font-family="Helvetica,sans-Serif" font-size="10.00">+ deserialize()</text>
<text text-anchor="start" x="406.5" y="-46.5" font-family="Helvetica,sans-Serif" font-size="10.00">+ run()</text>
<text text-anchor="start" x="406.5" y="-35.5" font-family="Helvetica,sans-Serif" font-size="10.00">+ showWebinterface()</text>
</a>
</g>
</g>
<!-- Node5&#45;&gt;Node7 -->
<g id="edge6" class="edge"><title>Node5&#45;&gt;Node7</title>
<path fill="none" stroke="midnightblue" d="M404.506,-239.401C415.165,-205.072 428.408,-162.42 438.513,-129.876"/>
<polygon fill="none" stroke="midnightblue" points="401.053,-238.717 401.43,-249.306 407.738,-240.793 401.053,-238.717"/>
</g>
<!-- Node8 -->
<g id="node8" class="node"><title>Node8</title>
<g id="a_node8"><a xlink:href="class_temperature_controller.html" target="_top" xlink:title="{TemperatureController\n||+ TemperatureController()\l+ ~TemperatureController()\l+ serialize()\l+ deserialize()\l+ run()\l+ showWebinterface()\l}">
<polygon fill="white" stroke="black" points="527.5,-23 527.5,-135 660.5,-135 660.5,-23 527.5,-23"/>
<text text-anchor="middle" x="594" y="-123" font-family="Helvetica,sans-Serif" font-size="10.00">TemperatureController</text>
<polyline fill="none" stroke="black" points="527.5,-116 660.5,-116 "/>
<text text-anchor="middle" x="594" y="-104" font-family="Helvetica,sans-Serif" font-size="10.00"> </text>
<polyline fill="none" stroke="black" points="527.5,-97 660.5,-97 "/>
<text text-anchor="start" x="535.5" y="-85" font-family="Helvetica,sans-Serif" font-size="10.00">+ TemperatureController()</text>
<text text-anchor="start" x="535.5" y="-74" font-family="Helvetica,sans-Serif" font-size="10.00">+ ~TemperatureController()</text>
<text text-anchor="start" x="535.5" y="-63" font-family="Helvetica,sans-Serif" font-size="10.00">+ serialize()</text>
<text text-anchor="start" x="535.5" y="-52" font-family="Helvetica,sans-Serif" font-size="10.00">+ deserialize()</text>
<text text-anchor="start" x="535.5" y="-41" font-family="Helvetica,sans-Serif" font-size="10.00">+ run()</text>
<text text-anchor="start" x="535.5" y="-30" font-family="Helvetica,sans-Serif" font-size="10.00">+ showWebinterface()</text>
</a>
</g>
</g>
<!-- Node5&#45;&gt;Node8 -->
<g id="edge7" class="edge"><title>Node5&#45;&gt;Node8</title>
<path fill="none" stroke="midnightblue" d="M440.148,-241.988C471.406,-209.077 510.533,-167.881 541.507,-135.27"/>
<polygon fill="none" stroke="midnightblue" points="437.547,-239.644 433.198,-249.306 442.623,-244.465 437.547,-239.644"/>
</g>
</g>
</svg>
