<?xml version="1.0" encoding="UTF-8" standalone="no"?>
<!DOCTYPE svg PUBLIC "-//W3C//DTD SVG 1.1//EN"
 "http://www.w3.org/Graphics/SVG/1.1/DTD/svg11.dtd">
<!-- Generated by graphviz version 2.30.1 (20130214.1330)
 -->
<!-- Title: Aquaduino::writeConfig Pages: 1 -->
<svg width="640pt" height="104pt"
 viewBox="0.00 0.00 640.00 104.00" xmlns="http://www.w3.org/2000/svg" xmlns:xlink="http://www.w3.org/1999/xlink">
<g id="graph0" class="graph" transform="scale(1 1) rotate(0) translate(4 100)">
<title>Aquaduino::writeConfig</title>
<polygon fill="white" stroke="white" points="-4,5 -4,-100 637,-100 637,5 -4,5"/>
<!-- Node1 -->
<g id="node1" class="node"><title>Node1</title>
<polygon fill="#bfbfbf" stroke="black" points="0,-38.5 0,-57.5 116,-57.5 116,-38.5 0,-38.5"/>
<text text-anchor="middle" x="58" y="-45.5" font-family="Helvetica,sans-Serif" font-size="10.00">Aquaduino::writeConfig</text>
</g>
<!-- Node2 -->
<g id="node2" class="node"><title>Node2</title>
<g id="a_node2"><a xlink:href="dispatch_8cpp.html#a57a05a1aa70f5b076936a72ec80f9db3" target="_top" xlink:title="configCmd">
<polygon fill="white" stroke="black" points="152,-76.5 152,-95.5 214,-95.5 214,-76.5 152,-76.5"/>
<text text-anchor="middle" x="183" y="-83.5" font-family="Helvetica,sans-Serif" font-size="10.00">configCmd</text>
</a>
</g>
</g>
<!-- Node1&#45;&gt;Node2 -->
<g id="edge1" class="edge"><title>Node1&#45;&gt;Node2</title>
<path fill="none" stroke="midnightblue" d="M99.7253,-60.5818C116.728,-65.8346 136.131,-71.8289 151.822,-76.6768"/>
<polygon fill="midnightblue" stroke="midnightblue" points="100.626,-57.1968 90.0381,-57.589 98.5594,-63.8849 100.626,-57.1968"/>
</g>
<!-- Node3 -->
<g id="node3" class="node"><title>Node3</title>
<g id="a_node3"><a xlink:href="dispatch_8cpp.html#a0c9bf0c5f9946202d30b8743843e361a" target="_top" xlink:title="controllerDispatchCommand">
<polygon fill="white" stroke="black" points="250.5,-38.5 250.5,-57.5 389.5,-57.5 389.5,-38.5 250.5,-38.5"/>
<text text-anchor="middle" x="320" y="-45.5" font-family="Helvetica,sans-Serif" font-size="10.00">controllerDispatchCommand</text>
</a>
</g>
</g>
<!-- Node1&#45;&gt;Node3 -->
<g id="edge5" class="edge"><title>Node1&#45;&gt;Node3</title>
<path fill="none" stroke="midnightblue" d="M126.511,-48C164.503,-48 211.838,-48 250.061,-48"/>
<polygon fill="midnightblue" stroke="midnightblue" points="126.058,-44.5001 116.058,-48 126.058,-51.5001 126.058,-44.5001"/>
</g>
<!-- Node6 -->
<g id="node6" class="node"><title>Node6</title>
<g id="a_node6"><a xlink:href="mainweb_8cpp.html#afd56fefe2a8598f61d016320f5250491" target="_top" xlink:title="defaultCmd">
<polygon fill="white" stroke="black" points="287.5,-0.5 287.5,-19.5 352.5,-19.5 352.5,-0.5 287.5,-0.5"/>
<text text-anchor="middle" x="320" y="-7.5" font-family="Helvetica,sans-Serif" font-size="10.00">defaultCmd</text>
</a>
</g>
</g>
<!-- Node1&#45;&gt;Node6 -->
<g id="edge6" class="edge"><title>Node1&#45;&gt;Node6</title>
<path fill="none" stroke="midnightblue" d="M126.186,-38.1805C178.068,-30.5977 247.521,-20.4469 287.346,-14.6263"/>
<polygon fill="midnightblue" stroke="midnightblue" points="125.447,-34.7513 116.058,-39.6607 126.459,-41.6777 125.447,-34.7513"/>
</g>
<!-- Node2&#45;&gt;Node3 -->
<g id="edge2" class="edge"><title>Node2&#45;&gt;Node3</title>
<path fill="none" stroke="midnightblue" d="M224.062,-74.7234C243.453,-69.2652 266.484,-62.7823 285.006,-57.5687"/>
<polygon fill="midnightblue" stroke="midnightblue" points="222.974,-71.3934 214.297,-77.4721 224.871,-78.1315 222.974,-71.3934"/>
</g>
<!-- Node4 -->
<g id="node4" class="node"><title>Node4</title>
<g id="a_node4"><a xlink:href="class_aquaduino.html#a6f21b3e1fe7fd8b1c13d1e78372abed6" target="_top" xlink:title="Aquaduino::setWebserver">
<polygon fill="white" stroke="black" points="426,-19.5 426,-38.5 554,-38.5 554,-19.5 426,-19.5"/>
<text text-anchor="middle" x="490" y="-26.5" font-family="Helvetica,sans-Serif" font-size="10.00">Aquaduino::setWebserver</text>
</a>
</g>
</g>
<!-- Node3&#45;&gt;Node4 -->
<g id="edge3" class="edge"><title>Node3&#45;&gt;Node4</title>
<path fill="none" stroke="midnightblue" d="M399.987,-39.0669C408.699,-38.0817 417.482,-37.0883 425.961,-36.1294"/>
<polygon fill="midnightblue" stroke="midnightblue" points="399.36,-35.6154 389.817,-40.2172 400.147,-42.5711 399.36,-35.6154"/>
</g>
<!-- Node5 -->
<g id="node5" class="node"><title>Node5</title>
<g id="a_node5"><a xlink:href="_aquaduino_8cpp.html#a4fc01d736fe50cf5b977f755b675f11d" target="_top" xlink:title="setup">
<polygon fill="white" stroke="black" points="590.5,-19.5 590.5,-38.5 631.5,-38.5 631.5,-19.5 590.5,-19.5"/>
<text text-anchor="middle" x="611" y="-26.5" font-family="Helvetica,sans-Serif" font-size="10.00">setup</text>
</a>
</g>
</g>
<!-- Node4&#45;&gt;Node5 -->
<g id="edge4" class="edge"><title>Node4&#45;&gt;Node5</title>
<path fill="none" stroke="midnightblue" d="M564.371,-29C573.872,-29 582.873,-29 590.331,-29"/>
<polygon fill="midnightblue" stroke="midnightblue" points="564.333,-25.5001 554.333,-29 564.333,-32.5001 564.333,-25.5001"/>
</g>
<!-- Node6&#45;&gt;Node4 -->
<g id="edge7" class="edge"><title>Node6&#45;&gt;Node4</title>
<path fill="none" stroke="midnightblue" d="M362.745,-14.7212C381.8,-16.8762 404.777,-19.4747 425.877,-21.8611"/>
<polygon fill="midnightblue" stroke="midnightblue" points="362.93,-11.2198 352.6,-13.5738 362.143,-18.1755 362.93,-11.2198"/>
</g>
</g>
</svg>
