<?xml version="1.0" encoding="UTF-8" standalone="no"?>
<!DOCTYPE svg PUBLIC "-//W3C//DTD SVG 1.1//EN"
 "http://www.w3.org/Graphics/SVG/1.1/DTD/svg11.dtd">
<!-- Generated by graphviz version 2.30.1 (20130214.1330)
 -->
<!-- Title: Aquaduino Pages: 1 -->
<svg width="175pt" height="370pt"
 viewBox="0.00 0.00 175.00 370.00" xmlns="http://www.w3.org/2000/svg" xmlns:xlink="http://www.w3.org/1999/xlink">
<g id="graph0" class="graph" transform="scale(1 1) rotate(0) translate(4 366)">
<title>Aquaduino</title>
<polygon fill="white" stroke="white" points="-4,5 -4,-366 172,-366 172,5 -4,5"/>
<!-- Node1 -->
<g id="node1" class="node"><title>Node1</title>
<polygon fill="#bfbfbf" stroke="black" points="39,-0.5 39,-167.5 123,-167.5 123,-0.5 39,-0.5"/>
<text text-anchor="middle" x="81" y="-155.5" font-family="Helvetica,sans-Serif" font-size="10.00">Aquaduino</text>
<polyline fill="none" stroke="black" points="39,-148.5 123,-148.5 "/>
<text text-anchor="middle" x="81" y="-136.5" font-family="Helvetica,sans-Serif" font-size="10.00"> </text>
<polyline fill="none" stroke="black" points="39,-129.5 123,-129.5 "/>
<text text-anchor="start" x="47" y="-117.5" font-family="Helvetica,sans-Serif" font-size="10.00">+ Aquaduino()</text>
<text text-anchor="start" x="47" y="-106.5" font-family="Helvetica,sans-Serif" font-size="10.00">+ setMAC()</text>
<text text-anchor="start" x="47" y="-95.5" font-family="Helvetica,sans-Serif" font-size="10.00">+ getMAC()</text>
<text text-anchor="start" x="47" y="-84.5" font-family="Helvetica,sans-Serif" font-size="10.00">+ getIP()</text>
<text text-anchor="start" x="47" y="-73.5" font-family="Helvetica,sans-Serif" font-size="10.00">+ setIP()</text>
<text text-anchor="start" x="47" y="-62.5" font-family="Helvetica,sans-Serif" font-size="10.00">+ getNetmask()</text>
<text text-anchor="start" x="47" y="-51.5" font-family="Helvetica,sans-Serif" font-size="10.00">+ setNetmask()</text>
<text text-anchor="start" x="47" y="-40.5" font-family="Helvetica,sans-Serif" font-size="10.00">+ getGateway()</text>
<text text-anchor="start" x="47" y="-29.5" font-family="Helvetica,sans-Serif" font-size="10.00">+ setGateway()</text>
<text text-anchor="start" x="47" y="-18.5" font-family="Helvetica,sans-Serif" font-size="10.00">+ getDNS()</text>
<text text-anchor="start" x="47" y="-7.5" font-family="Helvetica,sans-Serif" font-size="10.00">and 45 more...</text>
</g>
<!-- Node2 -->
<g id="node2" class="node"><title>Node2</title>
<g id="a_node2"><a xlink:href="class_object.html" target="_top" xlink:title="{Object\n|# m_Name\l# m_URL\l# m_Type\l|+ Object()\l+ Object()\l+ setName()\l+ getName()\l+ setURL()\l+ getURL()\l+ getType()\l# ~Object()\l}">
<polygon fill="white" stroke="black" points="-0.5,-205 -0.5,-361 70.5,-361 70.5,-205 -0.5,-205"/>
<text text-anchor="middle" x="35" y="-349" font-family="Helvetica,sans-Serif" font-size="10.00">Object</text>
<polyline fill="none" stroke="black" points="-0.5,-342 70.5,-342 "/>
<text text-anchor="start" x="7.5" y="-330" font-family="Helvetica,sans-Serif" font-size="10.00"># m_Name</text>
<text text-anchor="start" x="7.5" y="-319" font-family="Helvetica,sans-Serif" font-size="10.00"># m_URL</text>
<text text-anchor="start" x="7.5" y="-308" font-family="Helvetica,sans-Serif" font-size="10.00"># m_Type</text>
<polyline fill="none" stroke="black" points="-0.5,-301 70.5,-301 "/>
<text text-anchor="start" x="7.5" y="-289" font-family="Helvetica,sans-Serif" font-size="10.00">+ Object()</text>
<text text-anchor="start" x="7.5" y="-278" font-family="Helvetica,sans-Serif" font-size="10.00">+ Object()</text>
<text text-anchor="start" x="7.5" y="-267" font-family="Helvetica,sans-Serif" font-size="10.00">+ setName()</text>
<text text-anchor="start" x="7.5" y="-256" font-family="Helvetica,sans-Serif" font-size="10.00">+ getName()</text>
<text text-anchor="start" x="7.5" y="-245" font-family="Helvetica,sans-Serif" font-size="10.00">+ setURL()</text>
<text text-anchor="start" x="7.5" y="-234" font-family="Helvetica,sans-Serif" font-size="10.00">+ getURL()</text>
<text text-anchor="start" x="7.5" y="-223" font-family="Helvetica,sans-Serif" font-size="10.00">+ getType()</text>
<text text-anchor="start" x="7.5" y="-212" font-family="Helvetica,sans-Serif" font-size="10.00"># ~Object()</text>
</a>
</g>
</g>
<!-- Node2&#45;&gt;Node1 -->
<g id="edge1" class="edge"><title>Node2&#45;&gt;Node1</title>
<path fill="none" stroke="midnightblue" d="M55.2708,-195.188C57.3943,-186.094 59.5493,-176.865 61.662,-167.817"/>
<polygon fill="none" stroke="midnightblue" points="51.8481,-194.454 52.9824,-204.988 58.6647,-196.046 51.8481,-194.454"/>
</g>
<!-- Node3 -->
<g id="node3" class="node"><title>Node3</title>
<g id="a_node3"><a xlink:href="class_serializable.html" target="_top" xlink:title="{Serializable\n||+ serialize()\l+ deserialize()\l}">
<polygon fill="white" stroke="black" points="89,-249 89,-317 167,-317 167,-249 89,-249"/>
<text text-anchor="middle" x="128" y="-305" font-family="Helvetica,sans-Serif" font-size="10.00">Serializable</text>
<polyline fill="none" stroke="black" points="89,-298 167,-298 "/>
<text text-anchor="middle" x="128" y="-286" font-family="Helvetica,sans-Serif" font-size="10.00"> </text>
<polyline fill="none" stroke="black" points="89,-279 167,-279 "/>
<text text-anchor="start" x="97" y="-267" font-family="Helvetica,sans-Serif" font-size="10.00">+ serialize()</text>
<text text-anchor="start" x="97" y="-256" font-family="Helvetica,sans-Serif" font-size="10.00">+ deserialize()</text>
</a>
</g>
</g>
<!-- Node3&#45;&gt;Node1 -->
<g id="edge2" class="edge"><title>Node3&#45;&gt;Node1</title>
<path fill="none" stroke="#8b1a1a" d="M117.689,-238.781C112.723,-217.965 106.594,-192.278 100.778,-167.899"/>
<polygon fill="none" stroke="#8b1a1a" points="114.302,-239.667 120.027,-248.582 121.111,-238.042 114.302,-239.667"/>
</g>
</g>
</svg>
