<?xml version="1.0" encoding="UTF-8" standalone="no"?>
<!DOCTYPE svg PUBLIC "-//W3C//DTD SVG 1.1//EN"
 "http://www.w3.org/Graphics/SVG/1.1/DTD/svg11.dtd">
<!-- Generated by graphviz version 2.30.1 (20130214.1330)
 -->
<!-- Title: SDConfigManager::writeConfig Pages: 1 -->
<svg width="490pt" height="229pt"
 viewBox="0.00 0.00 490.00 229.00" xmlns="http://www.w3.org/2000/svg" xmlns:xlink="http://www.w3.org/1999/xlink">
<g id="graph0" class="graph" transform="scale(1 1) rotate(0) translate(4 225)">
<title>SDConfigManager::writeConfig</title>
<polygon fill="white" stroke="white" points="-4,5 -4,-225 487,-225 487,5 -4,5"/>
<!-- Node1 -->
<g id="node1" class="node"><title>Node1</title>
<polygon fill="#bfbfbf" stroke="black" points="0,-106.5 0,-125.5 148,-125.5 148,-106.5 0,-106.5"/>
<text text-anchor="middle" x="74" y="-113.5" font-family="Helvetica,sans-Serif" font-size="10.00">SDConfigManager::writeConfig</text>
</g>
<!-- Node2 -->
<g id="node2" class="node"><title>Node2</title>
<g id="a_node2"><a xlink:href="class_aquaduino.html#a9370f6df101b782a36865c6f49b3bba1" target="_top" xlink:title="Aquaduino::getActuatorID">
<polygon fill="white" stroke="black" points="194,-201.5 194,-220.5 322,-220.5 322,-201.5 194,-201.5"/>
<text text-anchor="middle" x="258" y="-208.5" font-family="Helvetica,sans-Serif" font-size="10.00">Aquaduino::getActuatorID</text>
</a>
</g>
</g>
<!-- Node1&#45;&gt;Node2 -->
<g id="edge1" class="edge"><title>Node1&#45;&gt;Node2</title>
<path fill="none" stroke="midnightblue" d="M85.9479,-125.653C104.718,-141.716 144.819,-173.948 184,-192 189.258,-194.422 194.876,-196.575 200.574,-198.478"/>
<polygon fill="midnightblue" stroke="midnightblue" points="199.601,-201.84 210.188,-201.45 201.668,-195.153 199.601,-201.84"/>
</g>
<!-- Node4 -->
<g id="node4" class="node"><title>Node4</title>
<g id="a_node4"><a xlink:href="class_serializable.html#a97b461d082ed7a40a0cf8b143ef2f05b" target="_top" xlink:title="Serializable::serialize">
<polygon fill="white" stroke="black" points="203.5,-163.5 203.5,-182.5 312.5,-182.5 312.5,-163.5 203.5,-163.5"/>
<text text-anchor="middle" x="258" y="-170.5" font-family="Helvetica,sans-Serif" font-size="10.00">Serializable::serialize</text>
</a>
</g>
</g>
<!-- Node1&#45;&gt;Node4 -->
<g id="edge3" class="edge"><title>Node1&#45;&gt;Node4</title>
<path fill="none" stroke="midnightblue" d="M100.794,-125.654C122.759,-133.715 155.238,-145.259 184,-154 191.75,-156.355 200.016,-158.682 208.097,-160.855"/>
<polygon fill="midnightblue" stroke="midnightblue" points="207.253,-164.252 217.815,-163.423 209.041,-157.484 207.253,-164.252"/>
</g>
<!-- Node5 -->
<g id="node5" class="node"><title>Node5</title>
<g id="a_node5"><a xlink:href="class_actuator.html#aa12e6c3347af475a8b6ea1c8b38bd9e6" target="_top" xlink:title="Actuator::getController">
<polygon fill="white" stroke="black" points="201,-125.5 201,-144.5 315,-144.5 315,-125.5 201,-125.5"/>
<text text-anchor="middle" x="258" y="-132.5" font-family="Helvetica,sans-Serif" font-size="10.00">Actuator::getController</text>
</a>
</g>
</g>
<!-- Node1&#45;&gt;Node5 -->
<g id="edge4" class="edge"><title>Node1&#45;&gt;Node5</title>
<path fill="none" stroke="midnightblue" d="M148.24,-123.646C162.388,-125.123 177.132,-126.662 191.031,-128.113"/>
<polygon fill="midnightblue" stroke="midnightblue" points="190.672,-131.595 200.982,-129.152 191.399,-124.632 190.672,-131.595"/>
</g>
<!-- Node6 -->
<g id="node6" class="node"><title>Node6</title>
<g id="a_node6"><a xlink:href="class_object.html#aa06e8c00bea02f598f7a68c5a1775de6" target="_top" xlink:title="Object::getType">
<polygon fill="white" stroke="black" points="215,-87.5 215,-106.5 301,-106.5 301,-87.5 215,-87.5"/>
<text text-anchor="middle" x="258" y="-94.5" font-family="Helvetica,sans-Serif" font-size="10.00">Object::getType</text>
</a>
</g>
</g>
<!-- Node1&#45;&gt;Node6 -->
<g id="edge5" class="edge"><title>Node1&#45;&gt;Node6</title>
<path fill="none" stroke="midnightblue" d="M148.24,-108.354C167.148,-106.38 187.121,-104.295 204.719,-102.458"/>
<polygon fill="midnightblue" stroke="midnightblue" points="205.198,-105.927 214.78,-101.408 204.471,-98.9649 205.198,-105.927"/>
</g>
<!-- Node7 -->
<g id="node7" class="node"><title>Node7</title>
<g id="a_node7"><a xlink:href="class_object.html#aff677ddb7fe429a58e22cd3cadbcee7b" target="_top" xlink:title="Object::getName">
<polygon fill="white" stroke="black" points="213,-49.5 213,-68.5 303,-68.5 303,-49.5 213,-49.5"/>
<text text-anchor="middle" x="258" y="-56.5" font-family="Helvetica,sans-Serif" font-size="10.00">Object::getName</text>
</a>
</g>
</g>
<!-- Node1&#45;&gt;Node7 -->
<g id="edge6" class="edge"><title>Node1&#45;&gt;Node7</title>
<path fill="none" stroke="midnightblue" d="M100.794,-106.346C122.759,-98.2849 155.238,-86.741 184,-78 191.75,-75.6447 200.016,-73.3184 208.097,-71.1446"/>
<polygon fill="midnightblue" stroke="midnightblue" points="209.041,-74.5155 217.815,-68.577 207.253,-67.7478 209.041,-74.5155"/>
</g>
<!-- Node8 -->
<g id="node8" class="node"><title>Node8</title>
<g id="a_node8"><a xlink:href="class_s_d_config_manager.html#a85a23603c7aecf85c331b0d9059c05b6" target="_top" xlink:title="SDConfigManager::writeStruct\lToFile">
<polygon fill="white" stroke="black" points="184.5,-0 184.5,-30 331.5,-30 331.5,-0 184.5,-0"/>
<text text-anchor="start" x="192.5" y="-18" font-family="Helvetica,sans-Serif" font-size="10.00">SDConfigManager::writeStruct</text>
<text text-anchor="middle" x="258" y="-7" font-family="Helvetica,sans-Serif" font-size="10.00">ToFile</text>
</a>
</g>
</g>
<!-- Node1&#45;&gt;Node8 -->
<g id="edge7" class="edge"><title>Node1&#45;&gt;Node8</title>
<path fill="none" stroke="midnightblue" d="M86.4087,-106.414C105.532,-90.7349 145.732,-59.4104 184,-40 188.256,-37.8411 192.741,-35.799 197.31,-33.8829"/>
<polygon fill="midnightblue" stroke="midnightblue" points="198.755,-37.0749 206.756,-30.1299 196.17,-30.5695 198.755,-37.0749"/>
</g>
<!-- Node3 -->
<g id="node3" class="node"><title>Node3</title>
<g id="a_node3"><a xlink:href="class_array_list.html#a20ac96a11ec710178bec5d1e78a266b8" target="_top" xlink:title="ArrayList::findElement">
<polygon fill="white" stroke="black" points="368.5,-201.5 368.5,-220.5 481.5,-220.5 481.5,-201.5 368.5,-201.5"/>
<text text-anchor="middle" x="425" y="-208.5" font-family="Helvetica,sans-Serif" font-size="10.00">ArrayList::findElement</text>
</a>
</g>
</g>
<!-- Node2&#45;&gt;Node3 -->
<g id="edge2" class="edge"><title>Node2&#45;&gt;Node3</title>
<path fill="none" stroke="midnightblue" d="M322.321,-211C334.06,-211 346.347,-211 358.158,-211"/>
<polygon fill="midnightblue" stroke="midnightblue" points="358.39,-214.5 368.39,-211 358.39,-207.5 358.39,-214.5"/>
</g>
</g>
</svg>
