<?xml version="1.0" encoding="UTF-8" standalone="no"?>
<!DOCTYPE svg PUBLIC "-//W3C//DTD SVG 1.1//EN"
 "http://www.w3.org/Graphics/SVG/1.1/DTD/svg11.dtd">
<!-- Generated by graphviz version 2.30.1 (20130214.1330)
 -->
<!-- Title: Aquaduino::getNextController Pages: 1 -->
<svg width="702pt" height="78pt"
 viewBox="0.00 0.00 702.00 77.84" xmlns="http://www.w3.org/2000/svg" xmlns:xlink="http://www.w3.org/1999/xlink">
<g id="graph0" class="graph" transform="scale(1 1) rotate(0) translate(4 73.843)">
<title>Aquaduino::getNextController</title>
<polygon fill="white" stroke="white" points="-4,5 -4,-73.843 699,-73.843 699,5 -4,5"/>
<!-- Node1 -->
<g id="node1" class="node"><title>Node1</title>
<polygon fill="#bfbfbf" stroke="black" points="0.5,-12.343 0.5,-31.343 143.5,-31.343 143.5,-12.343 0.5,-12.343"/>
<text text-anchor="middle" x="72" y="-19.343" font-family="Helvetica,sans-Serif" font-size="10.00">Aquaduino::getNextController</text>
</g>
<!-- Node2 -->
<g id="node2" class="node"><title>Node2</title>
<g id="a_node2"><a xlink:href="dispatch_8cpp.html#a0c9bf0c5f9946202d30b8743843e361a" target="_top" xlink:title="controllerDispatchCommand">
<polygon fill="white" stroke="black" points="312.5,-50.343 312.5,-69.343 451.5,-69.343 451.5,-50.343 312.5,-50.343"/>
<text text-anchor="middle" x="382" y="-57.343" font-family="Helvetica,sans-Serif" font-size="10.00">controllerDispatchCommand</text>
</a>
</g>
</g>
<!-- Node1&#45;&gt;Node2 -->
<g id="edge1" class="edge"><title>Node1&#45;&gt;Node2</title>
<path fill="none" stroke="midnightblue" d="M131.916,-33.1925C147.51,-35.953 164.357,-38.7184 180,-40.843 223.937,-46.8104 273.531,-51.5197 312.463,-54.7571"/>
<polygon fill="midnightblue" stroke="midnightblue" points="132.336,-29.712 121.874,-31.386 131.097,-36.6014 132.336,-29.712"/>
</g>
<!-- Node5 -->
<g id="node5" class="node"><title>Node5</title>
<g id="a_node5"><a xlink:href="mainweb_8cpp.html#adc3a282df65858d7820a8c90f7191472" target="_top" xlink:title="printActuatorTable">
<polygon fill="white" stroke="black" points="180.5,-12.343 180.5,-31.343 275.5,-31.343 275.5,-12.343 180.5,-12.343"/>
<text text-anchor="middle" x="228" y="-19.343" font-family="Helvetica,sans-Serif" font-size="10.00">printActuatorTable</text>
</a>
</g>
</g>
<!-- Node1&#45;&gt;Node5 -->
<g id="edge4" class="edge"><title>Node1&#45;&gt;Node5</title>
<path fill="none" stroke="midnightblue" d="M153.831,-21.843C162.81,-21.843 171.72,-21.843 180.069,-21.843"/>
<polygon fill="midnightblue" stroke="midnightblue" points="153.69,-18.3431 143.69,-21.843 153.69,-25.3431 153.69,-18.3431"/>
</g>
<!-- Node6 -->
<g id="node6" class="node"><title>Node6</title>
<g id="a_node6"><a xlink:href="mainweb_8cpp.html#afd56fefe2a8598f61d016320f5250491" target="_top" xlink:title="defaultCmd">
<polygon fill="white" stroke="black" points="349.5,-12.343 349.5,-31.343 414.5,-31.343 414.5,-12.343 349.5,-12.343"/>
<text text-anchor="middle" x="382" y="-19.343" font-family="Helvetica,sans-Serif" font-size="10.00">defaultCmd</text>
</a>
</g>
</g>
<!-- Node1&#45;&gt;Node6 -->
<g id="edge7" class="edge"><title>Node1&#45;&gt;Node6</title>
<path fill="none" stroke="midnightblue" d="M126.775,-10.3914C143.723,-7.2956 162.568,-4.37867 180,-2.84301 222.502,0.901248 233.504,0.970882 276,-2.84301 300.909,-5.07852 328.746,-10.24 349.497,-14.6198"/>
<polygon fill="midnightblue" stroke="midnightblue" points="125.676,-7.03705 116.498,-12.3312 126.974,-13.9156 125.676,-7.03705"/>
</g>
<!-- Node3 -->
<g id="node3" class="node"><title>Node3</title>
<g id="a_node3"><a xlink:href="class_aquaduino.html#a6f21b3e1fe7fd8b1c13d1e78372abed6" target="_top" xlink:title="Aquaduino::setWebserver">
<polygon fill="white" stroke="black" points="488,-31.343 488,-50.343 616,-50.343 616,-31.343 488,-31.343"/>
<text text-anchor="middle" x="552" y="-38.343" font-family="Helvetica,sans-Serif" font-size="10.00">Aquaduino::setWebserver</text>
</a>
</g>
</g>
<!-- Node2&#45;&gt;Node3 -->
<g id="edge2" class="edge"><title>Node2&#45;&gt;Node3</title>
<path fill="none" stroke="midnightblue" d="M461.987,-50.9099C470.699,-49.9247 479.482,-48.9313 487.961,-47.9724"/>
<polygon fill="midnightblue" stroke="midnightblue" points="461.36,-47.4585 451.817,-52.0602 462.147,-54.4141 461.36,-47.4585"/>
</g>
<!-- Node4 -->
<g id="node4" class="node"><title>Node4</title>
<g id="a_node4"><a xlink:href="_aquaduino_8cpp.html#a4fc01d736fe50cf5b977f755b675f11d" target="_top" xlink:title="setup">
<polygon fill="white" stroke="black" points="652.5,-31.343 652.5,-50.343 693.5,-50.343 693.5,-31.343 652.5,-31.343"/>
<text text-anchor="middle" x="673" y="-38.343" font-family="Helvetica,sans-Serif" font-size="10.00">setup</text>
</a>
</g>
</g>
<!-- Node3&#45;&gt;Node4 -->
<g id="edge3" class="edge"><title>Node3&#45;&gt;Node4</title>
<path fill="none" stroke="midnightblue" d="M626.371,-40.843C635.872,-40.843 644.873,-40.843 652.331,-40.843"/>
<polygon fill="midnightblue" stroke="midnightblue" points="626.333,-37.3431 616.333,-40.843 626.333,-44.3431 626.333,-37.3431"/>
</g>
<!-- Node5&#45;&gt;Node6 -->
<g id="edge5" class="edge"><title>Node5&#45;&gt;Node6</title>
<path fill="none" stroke="midnightblue" d="M285.873,-21.843C307.387,-21.843 331.089,-21.843 349.452,-21.843"/>
<polygon fill="midnightblue" stroke="midnightblue" points="285.845,-18.3431 275.845,-21.843 285.845,-25.3431 285.845,-18.3431"/>
</g>
<!-- Node6&#45;&gt;Node3 -->
<g id="edge6" class="edge"><title>Node6&#45;&gt;Node3</title>
<path fill="none" stroke="midnightblue" d="M424.745,-26.5642C443.8,-28.7192 466.777,-31.3178 487.877,-33.7041"/>
<polygon fill="midnightblue" stroke="midnightblue" points="424.93,-23.0628 414.6,-25.4168 424.143,-30.0185 424.93,-23.0628"/>
</g>
</g>
</svg>
