<?xml version="1.0" encoding="UTF-8" standalone="no"?>
<!DOCTYPE svg PUBLIC "-//W3C//DTD SVG 1.1//EN"
 "http://www.w3.org/Graphics/SVG/1.1/DTD/svg11.dtd">
<!-- Generated by graphviz version 2.30.1 (20130214.1330)
 -->
<!-- Title: Sensor Pages: 1 -->
<svg width="78pt" height="282pt"
 viewBox="0.00 0.00 78.00 282.00" xmlns="http://www.w3.org/2000/svg" xmlns:xlink="http://www.w3.org/1999/xlink">
<g id="graph0" class="graph" transform="scale(1 1) rotate(0) translate(4 278)">
<title>Sensor</title>
<polygon fill="white" stroke="white" points="-4,5 -4,-278 75,-278 75,5 -4,5"/>
<!-- Node1 -->
<g id="node1" class="node"><title>Node1</title>
<polygon fill="#bfbfbf" stroke="black" points="1,-0.5 1,-79.5 69,-79.5 69,-0.5 1,-0.5"/>
<text text-anchor="middle" x="35" y="-67.5" font-family="Helvetica,sans-Serif" font-size="10.00">Sensor</text>
<polyline fill="none" stroke="black" points="1,-60.5 69,-60.5 "/>
<text text-anchor="middle" x="35" y="-48.5" font-family="Helvetica,sans-Serif" font-size="10.00"> </text>
<polyline fill="none" stroke="black" points="1,-41.5 69,-41.5 "/>
<text text-anchor="start" x="9" y="-29.5" font-family="Helvetica,sans-Serif" font-size="10.00">+ read()</text>
<text text-anchor="start" x="9" y="-18.5" font-family="Helvetica,sans-Serif" font-size="10.00">+ Sensor()</text>
<text text-anchor="start" x="9" y="-7.5" font-family="Helvetica,sans-Serif" font-size="10.00"># ~Sensor()</text>
</g>
<!-- Node2 -->
<g id="node2" class="node"><title>Node2</title>
<g id="a_node2"><a xlink:href="class_object.html" target="_top" xlink:title="{Object\n|# m_Name\l# m_URL\l# m_Type\l|+ Object()\l+ Object()\l+ setName()\l+ getName()\l+ setURL()\l+ getURL()\l+ getType()\l# ~Object()\l}">
<polygon fill="white" stroke="black" points="-0.5,-117 -0.5,-273 70.5,-273 70.5,-117 -0.5,-117"/>
<text text-anchor="middle" x="35" y="-261" font-family="Helvetica,sans-Serif" font-size="10.00">Object</text>
<polyline fill="none" stroke="black" points="-0.5,-254 70.5,-254 "/>
<text text-anchor="start" x="7.5" y="-242" font-family="Helvetica,sans-Serif" font-size="10.00"># m_Name</text>
<text text-anchor="start" x="7.5" y="-231" font-family="Helvetica,sans-Serif" font-size="10.00"># m_URL</text>
<text text-anchor="start" x="7.5" y="-220" font-family="Helvetica,sans-Serif" font-size="10.00"># m_Type</text>
<polyline fill="none" stroke="black" points="-0.5,-213 70.5,-213 "/>
<text text-anchor="start" x="7.5" y="-201" font-family="Helvetica,sans-Serif" font-size="10.00">+ Object()</text>
<text text-anchor="start" x="7.5" y="-190" font-family="Helvetica,sans-Serif" font-size="10.00">+ Object()</text>
<text text-anchor="start" x="7.5" y="-179" font-family="Helvetica,sans-Serif" font-size="10.00">+ setName()</text>
<text text-anchor="start" x="7.5" y="-168" font-family="Helvetica,sans-Serif" font-size="10.00">+ getName()</text>
<text text-anchor="start" x="7.5" y="-157" font-family="Helvetica,sans-Serif" font-size="10.00">+ setURL()</text>
<text text-anchor="start" x="7.5" y="-146" font-family="Helvetica,sans-Serif" font-size="10.00">+ getURL()</text>
<text text-anchor="start" x="7.5" y="-135" font-family="Helvetica,sans-Serif" font-size="10.00">+ getType()</text>
<text text-anchor="start" x="7.5" y="-124" font-family="Helvetica,sans-Serif" font-size="10.00"># ~Object()</text>
</a>
</g>
</g>
<!-- Node2&#45;&gt;Node1 -->
<g id="edge1" class="edge"><title>Node2&#45;&gt;Node1</title>
<path fill="none" stroke="midnightblue" d="M35,-106.478C35,-97.2024 35,-88.1474 35,-79.8742"/>
<polygon fill="none" stroke="midnightblue" points="31.5001,-106.603 35,-116.604 38.5001,-106.604 31.5001,-106.603"/>
</g>
</g>
</svg>
