<?xml version="1.0" encoding="UTF-8" standalone="no"?>
<!DOCTYPE svg PUBLIC "-//W3C//DTD SVG 1.1//EN"
 "http://www.w3.org/Graphics/SVG/1.1/DTD/svg11.dtd">
<!-- Generated by graphviz version 2.30.1 (20130214.1330)
 -->
<!-- Title: DigitalOutput::showWebinterface Pages: 1 -->
<svg width="352pt" height="66pt"
 viewBox="0.00 0.00 352.00 66.00" xmlns="http://www.w3.org/2000/svg" xmlns:xlink="http://www.w3.org/1999/xlink">
<g id="graph0" class="graph" transform="scale(1 1) rotate(0) translate(4 62)">
<title>DigitalOutput::showWebinterface</title>
<polygon fill="white" stroke="white" points="-4,5 -4,-62 349,-62 349,5 -4,5"/>
<!-- Node1 -->
<g id="node1" class="node"><title>Node1</title>
<polygon fill="#bfbfbf" stroke="black" points="0,-19.5 0,-38.5 158,-38.5 158,-19.5 0,-19.5"/>
<text text-anchor="middle" x="79" y="-26.5" font-family="Helvetica,sans-Serif" font-size="10.00">DigitalOutput::showWebinterface</text>
</g>
<!-- Node2 -->
<g id="node2" class="node"><title>Node2</title>
<g id="a_node2"><a xlink:href="class_aquaduino.html#aed76e9fb8f6a3714bbd8de7781133f6e" target="_top" xlink:title="Aquaduino::getTemplateParser">
<polygon fill="white" stroke="black" points="194,-38.5 194,-57.5 344,-57.5 344,-38.5 194,-38.5"/>
<text text-anchor="middle" x="269" y="-45.5" font-family="Helvetica,sans-Serif" font-size="10.00">Aquaduino::getTemplateParser</text>
</a>
</g>
</g>
<!-- Node1&#45;&gt;Node2 -->
<g id="edge1" class="edge"><title>Node1&#45;&gt;Node2</title>
<path fill="none" stroke="midnightblue" d="M158.096,-36.8926C166.579,-37.75 175.241,-38.6254 183.794,-39.4898"/>
<polygon fill="midnightblue" stroke="midnightblue" points="183.465,-42.9743 193.766,-40.4976 184.169,-36.0098 183.465,-42.9743"/>
</g>
<!-- Node3 -->
<g id="node3" class="node"><title>Node3</title>
<g id="a_node3"><a xlink:href="class_object.html#aff677ddb7fe429a58e22cd3cadbcee7b" target="_top" xlink:title="Object::getName">
<polygon fill="white" stroke="black" points="224,-0.5 224,-19.5 314,-19.5 314,-0.5 224,-0.5"/>
<text text-anchor="middle" x="269" y="-7.5" font-family="Helvetica,sans-Serif" font-size="10.00">Object::getName</text>
</a>
</g>
</g>
<!-- Node1&#45;&gt;Node3 -->
<g id="edge2" class="edge"><title>Node1&#45;&gt;Node3</title>
<path fill="none" stroke="midnightblue" d="M158.096,-21.1074C176.902,-19.2067 196.583,-17.2177 214.009,-15.4566"/>
<polygon fill="midnightblue" stroke="midnightblue" points="214.387,-18.9362 223.984,-14.4484 213.683,-11.9717 214.387,-18.9362"/>
</g>
</g>
</svg>
