<?xml version="1.0" encoding="UTF-8" standalone="no"?>
<!DOCTYPE svg PUBLIC "-//W3C//DTD SVG 1.1//EN"
 "http://www.w3.org/Graphics/SVG/1.1/DTD/svg11.dtd">
<!-- Generated by graphviz version 2.30.1 (20130214.1330)
 -->
<!-- Title: Sensor::read Pages: 1 -->
<svg width="270pt" height="28pt"
 viewBox="0.00 0.00 270.00 28.00" xmlns="http://www.w3.org/2000/svg" xmlns:xlink="http://www.w3.org/1999/xlink">
<g id="graph0" class="graph" transform="scale(1 1) rotate(0) translate(4 24)">
<title>Sensor::read</title>
<polygon fill="white" stroke="white" points="-4,5 -4,-24 267,-24 267,5 -4,5"/>
<!-- Node1 -->
<g id="node1" class="node"><title>Node1</title>
<polygon fill="#bfbfbf" stroke="black" points="0,-0.5 0,-19.5 72,-19.5 72,-0.5 0,-0.5"/>
<text text-anchor="middle" x="36" y="-7.5" font-family="Helvetica,sans-Serif" font-size="10.00">Sensor::read</text>
</g>
<!-- Node2 -->
<g id="node2" class="node"><title>Node2</title>
<g id="a_node2"><a xlink:href="class_aquaduino.html#a72ddeb7acd4e678dbbf7835f6876fc3c" target="_top" xlink:title="Aquaduino::run">
<polygon fill="white" stroke="black" points="108,-0.5 108,-19.5 190,-19.5 190,-0.5 108,-0.5"/>
<text text-anchor="middle" x="149" y="-7.5" font-family="Helvetica,sans-Serif" font-size="10.00">Aquaduino::run</text>
</a>
</g>
</g>
<!-- Node1&#45;&gt;Node2 -->
<g id="edge1" class="edge"><title>Node1&#45;&gt;Node2</title>
<path fill="none" stroke="midnightblue" d="M82.1986,-10C90.6394,-10 99.4096,-10 107.691,-10"/>
<polygon fill="midnightblue" stroke="midnightblue" points="82.1211,-6.5001 72.1211,-10 82.1211,-13.5001 82.1211,-6.5001"/>
</g>
<!-- Node3 -->
<g id="node3" class="node"><title>Node3</title>
<g id="a_node3"><a xlink:href="_aquaduino_8cpp.html#afe461d27b9c48d5921c00d521181f12f" target="_top" xlink:title="loop">
<polygon fill="white" stroke="black" points="226.5,-0.5 226.5,-19.5 261.5,-19.5 261.5,-0.5 226.5,-0.5"/>
<text text-anchor="middle" x="244" y="-7.5" font-family="Helvetica,sans-Serif" font-size="10.00">loop</text>
</a>
</g>
</g>
<!-- Node2&#45;&gt;Node3 -->
<g id="edge2" class="edge"><title>Node2&#45;&gt;Node3</title>
<path fill="none" stroke="midnightblue" d="M200.326,-10C209.602,-10 218.673,-10 226.051,-10"/>
<polygon fill="midnightblue" stroke="midnightblue" points="200.25,-6.5001 190.25,-10 200.25,-13.5001 200.25,-6.5001"/>
</g>
</g>
</svg>
