<?xml version="1.0" encoding="UTF-8" standalone="no"?>
<!DOCTYPE svg PUBLIC "-//W3C//DTD SVG 1.1//EN"
 "http://www.w3.org/Graphics/SVG/1.1/DTD/svg11.dtd">
<!-- Generated by graphviz version 2.30.1 (20130214.1330)
 -->
<!-- Title: SDConfigManager::writeConfig Pages: 1 -->
<svg width="490pt" height="191pt"
 viewBox="0.00 0.00 490.00 191.00" xmlns="http://www.w3.org/2000/svg" xmlns:xlink="http://www.w3.org/1999/xlink">
<g id="graph0" class="graph" transform="scale(1 1) rotate(0) translate(4 187)">
<title>SDConfigManager::writeConfig</title>
<polygon fill="white" stroke="white" points="-4,5 -4,-187 487,-187 487,5 -4,5"/>
<!-- Node1 -->
<g id="node1" class="node"><title>Node1</title>
<polygon fill="#bfbfbf" stroke="black" points="0,-87.5 0,-106.5 148,-106.5 148,-87.5 0,-87.5"/>
<text text-anchor="middle" x="74" y="-94.5" font-family="Helvetica,sans-Serif" font-size="10.00">SDConfigManager::writeConfig</text>
</g>
<!-- Node2 -->
<g id="node2" class="node"><title>Node2</title>
<g id="a_node2"><a xlink:href="class_aquaduino.html#a2edba497281c7520a016b62a7cec01f0" target="_top" xlink:title="Aquaduino::getControllerID">
<polygon fill="white" stroke="black" points="192,-163.5 192,-182.5 324,-182.5 324,-163.5 192,-163.5"/>
<text text-anchor="middle" x="258" y="-170.5" font-family="Helvetica,sans-Serif" font-size="10.00">Aquaduino::getControllerID</text>
</a>
</g>
</g>
<!-- Node1&#45;&gt;Node2 -->
<g id="edge1" class="edge"><title>Node1&#45;&gt;Node2</title>
<path fill="none" stroke="midnightblue" d="M90.7154,-106.681C111.436,-119.099 149.333,-140.625 184,-154 190.321,-156.439 197.068,-158.668 203.812,-160.672"/>
<polygon fill="midnightblue" stroke="midnightblue" points="203.064,-164.098 213.639,-163.447 204.966,-157.361 203.064,-164.098"/>
</g>
<!-- Node4 -->
<g id="node4" class="node"><title>Node4</title>
<g id="a_node4"><a xlink:href="class_serializable.html#a97b461d082ed7a40a0cf8b143ef2f05b" target="_top" xlink:title="Serializable::serialize">
<polygon fill="white" stroke="black" points="203.5,-125.5 203.5,-144.5 312.5,-144.5 312.5,-125.5 203.5,-125.5"/>
<text text-anchor="middle" x="258" y="-132.5" font-family="Helvetica,sans-Serif" font-size="10.00">Serializable::serialize</text>
</a>
</g>
</g>
<!-- Node1&#45;&gt;Node4 -->
<g id="edge3" class="edge"><title>Node1&#45;&gt;Node4</title>
<path fill="none" stroke="midnightblue" d="M120.926,-106.589C145.376,-111.694 175.633,-118.011 201.403,-123.392"/>
<polygon fill="midnightblue" stroke="midnightblue" points="200.9,-126.862 211.404,-125.48 202.33,-120.01 200.9,-126.862"/>
</g>
<!-- Node5 -->
<g id="node5" class="node"><title>Node5</title>
<g id="a_node5"><a xlink:href="class_object.html#aa06e8c00bea02f598f7a68c5a1775de6" target="_top" xlink:title="Object::getType">
<polygon fill="white" stroke="black" points="215,-87.5 215,-106.5 301,-106.5 301,-87.5 215,-87.5"/>
<text text-anchor="middle" x="258" y="-94.5" font-family="Helvetica,sans-Serif" font-size="10.00">Object::getType</text>
</a>
</g>
</g>
<!-- Node1&#45;&gt;Node5 -->
<g id="edge4" class="edge"><title>Node1&#45;&gt;Node5</title>
<path fill="none" stroke="midnightblue" d="M148.24,-97C167.148,-97 187.121,-97 204.719,-97"/>
<polygon fill="midnightblue" stroke="midnightblue" points="204.781,-100.5 214.78,-97 204.78,-93.5001 204.781,-100.5"/>
</g>
<!-- Node6 -->
<g id="node6" class="node"><title>Node6</title>
<g id="a_node6"><a xlink:href="class_object.html#aff677ddb7fe429a58e22cd3cadbcee7b" target="_top" xlink:title="Object::getName">
<polygon fill="white" stroke="black" points="213,-49.5 213,-68.5 303,-68.5 303,-49.5 213,-49.5"/>
<text text-anchor="middle" x="258" y="-56.5" font-family="Helvetica,sans-Serif" font-size="10.00">Object::getName</text>
</a>
</g>
</g>
<!-- Node1&#45;&gt;Node6 -->
<g id="edge5" class="edge"><title>Node1&#45;&gt;Node6</title>
<path fill="none" stroke="midnightblue" d="M120.926,-87.411C145.841,-82.2091 176.786,-75.748 202.868,-70.3023"/>
<polygon fill="midnightblue" stroke="midnightblue" points="203.898,-73.6627 212.972,-68.1927 202.468,-66.8105 203.898,-73.6627"/>
</g>
<!-- Node7 -->
<g id="node7" class="node"><title>Node7</title>
<g id="a_node7"><a xlink:href="class_s_d_config_manager.html#a85a23603c7aecf85c331b0d9059c05b6" target="_top" xlink:title="SDConfigManager::writeStruct\lToFile">
<polygon fill="white" stroke="black" points="184.5,-0 184.5,-30 331.5,-30 331.5,-0 184.5,-0"/>
<text text-anchor="start" x="192.5" y="-18" font-family="Helvetica,sans-Serif" font-size="10.00">SDConfigManager::writeStruct</text>
<text text-anchor="middle" x="258" y="-7" font-family="Helvetica,sans-Serif" font-size="10.00">ToFile</text>
</a>
</g>
</g>
<!-- Node1&#45;&gt;Node7 -->
<g id="edge6" class="edge"><title>Node1&#45;&gt;Node7</title>
<path fill="none" stroke="midnightblue" d="M91.6054,-87.3007C112.65,-75.2479 150.254,-54.5024 184,-40 189.077,-37.8182 194.413,-35.6904 199.793,-33.6559"/>
<polygon fill="midnightblue" stroke="midnightblue" points="201.295,-36.8329 209.478,-30.1029 198.885,-30.2612 201.295,-36.8329"/>
</g>
<!-- Node3 -->
<g id="node3" class="node"><title>Node3</title>
<g id="a_node3"><a xlink:href="class_array_list.html#a20ac96a11ec710178bec5d1e78a266b8" target="_top" xlink:title="ArrayList::findElement">
<polygon fill="white" stroke="black" points="368.5,-163.5 368.5,-182.5 481.5,-182.5 481.5,-163.5 368.5,-163.5"/>
<text text-anchor="middle" x="425" y="-170.5" font-family="Helvetica,sans-Serif" font-size="10.00">ArrayList::findElement</text>
</a>
</g>
</g>
<!-- Node2&#45;&gt;Node3 -->
<g id="edge2" class="edge"><title>Node2&#45;&gt;Node3</title>
<path fill="none" stroke="midnightblue" d="M324.212,-173C335.385,-173 347,-173 358.189,-173"/>
<polygon fill="midnightblue" stroke="midnightblue" points="358.318,-176.5 368.318,-173 358.318,-169.5 358.318,-176.5"/>
</g>
</g>
</svg>
