<?xml version="1.0" encoding="UTF-8" standalone="no"?>
<!DOCTYPE svg PUBLIC "-//W3C//DTD SVG 1.1//EN"
 "http://www.w3.org/Graphics/SVG/1.1/DTD/svg11.dtd">
<!-- Generated by graphviz version 2.30.1 (20130214.1330)
 -->
<!-- Title: Aquaduino::getNTP Pages: 1 -->
<svg width="872pt" height="66pt"
 viewBox="0.00 0.00 872.00 66.00" xmlns="http://www.w3.org/2000/svg" xmlns:xlink="http://www.w3.org/1999/xlink">
<g id="graph0" class="graph" transform="scale(1 1) rotate(0) translate(4 62)">
<title>Aquaduino::getNTP</title>
<polygon fill="white" stroke="white" points="-4,5 -4,-62 869,-62 869,5 -4,5"/>
<!-- Node1 -->
<g id="node1" class="node"><title>Node1</title>
<polygon fill="#bfbfbf" stroke="black" points="0.5,-19.5 0.5,-38.5 101.5,-38.5 101.5,-19.5 0.5,-19.5"/>
<text text-anchor="middle" x="51" y="-26.5" font-family="Helvetica,sans-Serif" font-size="10.00">Aquaduino::getNTP</text>
</g>
<!-- Node2 -->
<g id="node2" class="node"><title>Node2</title>
<g id="a_node2"><a xlink:href="_n_t_p_sync_8cpp.html#a2898e3c748953d17a36dab59bda980dc" target="_top" xlink:title="NTPSync">
<polygon fill="white" stroke="black" points="138,-38.5 138,-57.5 196,-57.5 196,-38.5 138,-38.5"/>
<text text-anchor="middle" x="167" y="-45.5" font-family="Helvetica,sans-Serif" font-size="10.00">NTPSync</text>
</a>
</g>
</g>
<!-- Node1&#45;&gt;Node2 -->
<g id="edge1" class="edge"><title>Node1&#45;&gt;Node2</title>
<path fill="none" stroke="midnightblue" d="M111.574,-38.9291C120.711,-40.4518 129.759,-41.9598 137.777,-43.2961"/>
<polygon fill="midnightblue" stroke="midnightblue" points="112.11,-35.4701 101.67,-37.2784 110.959,-42.3749 112.11,-35.4701"/>
</g>
<!-- Node8 -->
<g id="node8" class="node"><title>Node8</title>
<g id="a_node8"><a xlink:href="configweb_8cpp.html#af63922b5bba9bcc24b202484ec739456" target="_top" xlink:title="printTopLevelTemplate">
<polygon fill="white" stroke="black" points="233.5,-0.5 233.5,-19.5 346.5,-19.5 346.5,-0.5 233.5,-0.5"/>
<text text-anchor="middle" x="290" y="-7.5" font-family="Helvetica,sans-Serif" font-size="10.00">printTopLevelTemplate</text>
</a>
</g>
</g>
<!-- Node1&#45;&gt;Node8 -->
<g id="edge8" class="edge"><title>Node1&#45;&gt;Node8</title>
<path fill="none" stroke="midnightblue" d="M111.896,-24.1982C149.137,-21.2126 196.7,-17.3996 233.157,-14.4769"/>
<polygon fill="midnightblue" stroke="midnightblue" points="111.371,-20.729 101.683,-25.017 111.931,-27.7066 111.371,-20.729"/>
</g>
<!-- Node3 -->
<g id="node3" class="node"><title>Node3</title>
<g id="a_node3"><a xlink:href="class_aquaduino.html#a2636dfe3b0c322dbbf46b70ab3929930" target="_top" xlink:title="Aquaduino::enableNTP">
<polygon fill="white" stroke="black" points="232,-38.5 232,-57.5 348,-57.5 348,-38.5 232,-38.5"/>
<text text-anchor="middle" x="290" y="-45.5" font-family="Helvetica,sans-Serif" font-size="10.00">Aquaduino::enableNTP</text>
</a>
</g>
</g>
<!-- Node2&#45;&gt;Node3 -->
<g id="edge2" class="edge"><title>Node2&#45;&gt;Node3</title>
<path fill="none" stroke="midnightblue" d="M206.096,-48C214.333,-48 223.215,-48 231.999,-48"/>
<polygon fill="midnightblue" stroke="midnightblue" points="206.064,-44.5001 196.064,-48 206.064,-51.5001 206.064,-44.5001"/>
</g>
<!-- Node4 -->
<g id="node4" class="node"><title>Node4</title>
<g id="a_node4"><a xlink:href="_aquaduino_8cpp.html#a4fc01d736fe50cf5b977f755b675f11d" target="_top" xlink:title="setup">
<polygon fill="white" stroke="black" points="822.5,-19.5 822.5,-38.5 863.5,-38.5 863.5,-19.5 822.5,-19.5"/>
<text text-anchor="middle" x="843" y="-26.5" font-family="Helvetica,sans-Serif" font-size="10.00">setup</text>
</a>
</g>
</g>
<!-- Node3&#45;&gt;Node4 -->
<g id="edge3" class="edge"><title>Node3&#45;&gt;Node4</title>
<path fill="none" stroke="midnightblue" d="M358.417,-45.6753C484.15,-41.3397 748.388,-32.228 822.376,-29.6767"/>
<polygon fill="midnightblue" stroke="midnightblue" points="358.023,-42.1867 348.149,-46.0293 358.264,-49.1825 358.023,-42.1867"/>
</g>
<!-- Node5 -->
<g id="node5" class="node"><title>Node5</title>
<g id="a_node5"><a xlink:href="dispatch_8cpp.html#a57a05a1aa70f5b076936a72ec80f9db3" target="_top" xlink:title="configCmd">
<polygon fill="white" stroke="black" points="384,-0.5 384,-19.5 446,-19.5 446,-0.5 384,-0.5"/>
<text text-anchor="middle" x="415" y="-7.5" font-family="Helvetica,sans-Serif" font-size="10.00">configCmd</text>
</a>
</g>
</g>
<!-- Node3&#45;&gt;Node5 -->
<g id="edge4" class="edge"><title>Node3&#45;&gt;Node5</title>
<path fill="none" stroke="midnightblue" d="M331.725,-35.4182C348.728,-30.1654 368.131,-24.1711 383.822,-19.3232"/>
<polygon fill="midnightblue" stroke="midnightblue" points="330.559,-32.1151 322.038,-38.411 332.626,-38.8032 330.559,-32.1151"/>
</g>
<!-- Node6 -->
<g id="node6" class="node"><title>Node6</title>
<g id="a_node6"><a xlink:href="dispatch_8cpp.html#a0c9bf0c5f9946202d30b8743843e361a" target="_top" xlink:title="controllerDispatchCommand">
<polygon fill="white" stroke="black" points="482.5,-0.5 482.5,-19.5 621.5,-19.5 621.5,-0.5 482.5,-0.5"/>
<text text-anchor="middle" x="552" y="-7.5" font-family="Helvetica,sans-Serif" font-size="10.00">controllerDispatchCommand</text>
</a>
</g>
</g>
<!-- Node5&#45;&gt;Node6 -->
<g id="edge5" class="edge"><title>Node5&#45;&gt;Node6</title>
<path fill="none" stroke="midnightblue" d="M456.362,-10C464.621,-10 473.53,-10 482.463,-10"/>
<polygon fill="midnightblue" stroke="midnightblue" points="456.297,-6.5001 446.297,-10 456.297,-13.5001 456.297,-6.5001"/>
</g>
<!-- Node7 -->
<g id="node7" class="node"><title>Node7</title>
<g id="a_node7"><a xlink:href="class_aquaduino.html#a6f21b3e1fe7fd8b1c13d1e78372abed6" target="_top" xlink:title="Aquaduino::setWebserver">
<polygon fill="white" stroke="black" points="658,-0.5 658,-19.5 786,-19.5 786,-0.5 658,-0.5"/>
<text text-anchor="middle" x="722" y="-7.5" font-family="Helvetica,sans-Serif" font-size="10.00">Aquaduino::setWebserver</text>
</a>
</g>
</g>
<!-- Node6&#45;&gt;Node7 -->
<g id="edge6" class="edge"><title>Node6&#45;&gt;Node7</title>
<path fill="none" stroke="midnightblue" d="M631.987,-10C640.699,-10 649.482,-10 657.961,-10"/>
<polygon fill="midnightblue" stroke="midnightblue" points="631.817,-6.5001 621.817,-10 631.817,-13.5001 631.817,-6.5001"/>
</g>
<!-- Node7&#45;&gt;Node4 -->
<g id="edge7" class="edge"><title>Node7&#45;&gt;Node4</title>
<path fill="none" stroke="midnightblue" d="M792.894,-21.1595C803.733,-22.8901 814.097,-24.5449 822.487,-25.8845"/>
<polygon fill="midnightblue" stroke="midnightblue" points="793.275,-17.6762 782.849,-19.5557 792.172,-24.5886 793.275,-17.6762"/>
</g>
<!-- Node8&#45;&gt;Node5 -->
<g id="edge9" class="edge"><title>Node8&#45;&gt;Node5</title>
<path fill="none" stroke="midnightblue" d="M356.901,-10C366.252,-10 375.467,-10 383.674,-10"/>
<polygon fill="midnightblue" stroke="midnightblue" points="356.742,-6.5001 346.742,-10 356.742,-13.5001 356.742,-6.5001"/>
</g>
</g>
</svg>
