<?xml version="1.0" encoding="UTF-8" standalone="no"?>
<!DOCTYPE svg PUBLIC "-//W3C//DTD SVG 1.1//EN"
 "http://www.w3.org/Graphics/SVG/1.1/DTD/svg11.dtd">
<!-- Generated by graphviz version 2.30.1 (20130214.1330)
 -->
<!-- Title: Controller::allMyActuators Pages: 1 -->
<svg width="488pt" height="161pt"
 viewBox="0.00 0.00 488.00 161.00" xmlns="http://www.w3.org/2000/svg" xmlns:xlink="http://www.w3.org/1999/xlink">
<g id="graph0" class="graph" transform="scale(1 1) rotate(0) translate(4 157)">
<title>Controller::allMyActuators</title>
<polygon fill="white" stroke="white" points="-4,5 -4,-157 485,-157 485,5 -4,5"/>
<!-- Node1 -->
<g id="node1" class="node"><title>Node1</title>
<polygon fill="#bfbfbf" stroke="black" points="0.5,-38.5 0.5,-57.5 129.5,-57.5 129.5,-38.5 0.5,-38.5"/>
<text text-anchor="middle" x="65" y="-45.5" font-family="Helvetica,sans-Serif" font-size="10.00">Controller::allMyActuators</text>
</g>
<!-- Node2 -->
<g id="node2" class="node"><title>Node2</title>
<g id="a_node2"><a xlink:href="class_aquaduino.html#a088ba3bf2e3429f341e09d0c8f62ded4" target="_top" xlink:title="Aquaduino::getAssignedActuators">
<polygon fill="white" stroke="black" points="166,-76.5 166,-95.5 330,-95.5 330,-76.5 166,-76.5"/>
<text text-anchor="middle" x="248" y="-83.5" font-family="Helvetica,sans-Serif" font-size="10.00">Aquaduino::getAssignedActuators</text>
</a>
</g>
</g>
<!-- Node1&#45;&gt;Node2 -->
<g id="edge1" class="edge"><title>Node1&#45;&gt;Node2</title>
<path fill="none" stroke="midnightblue" d="M111.674,-57.589C135.989,-62.6939 166.08,-69.0113 191.708,-74.3918"/>
<polygon fill="midnightblue" stroke="midnightblue" points="191.149,-77.8505 201.654,-76.4799 192.587,-70.9999 191.149,-77.8505"/>
</g>
<!-- Node7 -->
<g id="node7" class="node"><title>Node7</title>
<g id="a_node7"><a xlink:href="class_actuator.html#a40700c01e3123133fd11157f9707ac8a" target="_top" xlink:title="Actuator::on">
<polygon fill="white" stroke="black" points="213,-38.5 213,-57.5 283,-57.5 283,-38.5 213,-38.5"/>
<text text-anchor="middle" x="248" y="-45.5" font-family="Helvetica,sans-Serif" font-size="10.00">Actuator::on</text>
</a>
</g>
</g>
<!-- Node1&#45;&gt;Node7 -->
<g id="edge6" class="edge"><title>Node1&#45;&gt;Node7</title>
<path fill="none" stroke="midnightblue" d="M129.559,-48C153.742,-48 180.748,-48 202.76,-48"/>
<polygon fill="midnightblue" stroke="midnightblue" points="202.811,-51.5001 212.811,-48 202.811,-44.5001 202.811,-51.5001"/>
</g>
<!-- Node8 -->
<g id="node8" class="node"><title>Node8</title>
<g id="a_node8"><a xlink:href="class_actuator.html#a767243ef9f90e7a99175ad466cc02916" target="_top" xlink:title="Actuator::off">
<polygon fill="white" stroke="black" points="213.5,-0.5 213.5,-19.5 282.5,-19.5 282.5,-0.5 213.5,-0.5"/>
<text text-anchor="middle" x="248" y="-7.5" font-family="Helvetica,sans-Serif" font-size="10.00">Actuator::off</text>
</a>
</g>
</g>
<!-- Node1&#45;&gt;Node8 -->
<g id="edge7" class="edge"><title>Node1&#45;&gt;Node8</title>
<path fill="none" stroke="midnightblue" d="M111.674,-38.411C139.842,-32.4973 175.761,-24.9562 203.514,-19.1297"/>
<polygon fill="midnightblue" stroke="midnightblue" points="204.272,-22.5468 213.34,-17.0668 202.834,-15.6962 204.272,-22.5468"/>
</g>
<!-- Node3 -->
<g id="node3" class="node"><title>Node3</title>
<g id="a_node3"><a xlink:href="class_array_list.html#a20ac96a11ec710178bec5d1e78a266b8" target="_top" xlink:title="ArrayList::findElement">
<polygon fill="white" stroke="black" points="366.5,-133.5 366.5,-152.5 479.5,-152.5 479.5,-133.5 366.5,-133.5"/>
<text text-anchor="middle" x="423" y="-140.5" font-family="Helvetica,sans-Serif" font-size="10.00">ArrayList::findElement</text>
</a>
</g>
</g>
<!-- Node2&#45;&gt;Node3 -->
<g id="edge2" class="edge"><title>Node2&#45;&gt;Node3</title>
<path fill="none" stroke="midnightblue" d="M277.956,-95.5405C306.772,-105.035 351.182,-119.667 383.071,-130.174"/>
<polygon fill="midnightblue" stroke="midnightblue" points="382.356,-133.623 392.949,-133.428 384.547,-126.975 382.356,-133.623"/>
</g>
<!-- Node4 -->
<g id="node4" class="node"><title>Node4</title>
<g id="a_node4"><a xlink:href="class_array_list.html#ada61a62619272992ac7fb0da2cf400b8" target="_top" xlink:title="ArrayList::resetIterator">
<polygon fill="white" stroke="black" points="366.5,-95.5 366.5,-114.5 479.5,-114.5 479.5,-95.5 366.5,-95.5"/>
<text text-anchor="middle" x="423" y="-102.5" font-family="Helvetica,sans-Serif" font-size="10.00">ArrayList::resetIterator</text>
</a>
</g>
</g>
<!-- Node2&#45;&gt;Node4 -->
<g id="edge3" class="edge"><title>Node2&#45;&gt;Node4</title>
<path fill="none" stroke="midnightblue" d="M330.181,-94.9159C339.015,-95.886 347.923,-96.8644 356.535,-97.8102"/>
<polygon fill="midnightblue" stroke="midnightblue" points="356.164,-101.29 366.486,-98.9031 356.928,-94.3323 356.164,-101.29"/>
</g>
<!-- Node5 -->
<g id="node5" class="node"><title>Node5</title>
<g id="a_node5"><a xlink:href="class_array_list.html#a921b9822fbf598f6fece601973db200b" target="_top" xlink:title="ArrayList::getNext">
<polygon fill="white" stroke="black" points="375.5,-57.5 375.5,-76.5 470.5,-76.5 470.5,-57.5 375.5,-57.5"/>
<text text-anchor="middle" x="423" y="-64.5" font-family="Helvetica,sans-Serif" font-size="10.00">ArrayList::getNext</text>
</a>
</g>
</g>
<!-- Node2&#45;&gt;Node5 -->
<g id="edge4" class="edge"><title>Node2&#45;&gt;Node5</title>
<path fill="none" stroke="midnightblue" d="M330.181,-77.0841C342.011,-75.7849 353.974,-74.4711 365.18,-73.2403"/>
<polygon fill="midnightblue" stroke="midnightblue" points="365.675,-76.7071 375.234,-72.1362 364.911,-69.7489 365.675,-76.7071"/>
</g>
<!-- Node6 -->
<g id="node6" class="node"><title>Node6</title>
<g id="a_node6"><a xlink:href="class_actuator.html#aa12e6c3347af475a8b6ea1c8b38bd9e6" target="_top" xlink:title="Actuator::getController">
<polygon fill="white" stroke="black" points="366,-19.5 366,-38.5 480,-38.5 480,-19.5 366,-19.5"/>
<text text-anchor="middle" x="423" y="-26.5" font-family="Helvetica,sans-Serif" font-size="10.00">Actuator::getController</text>
</a>
</g>
</g>
<!-- Node2&#45;&gt;Node6 -->
<g id="edge5" class="edge"><title>Node2&#45;&gt;Node6</title>
<path fill="none" stroke="midnightblue" d="M298.858,-76.418C309.294,-73.8274 320.124,-70.6948 330,-67 346.945,-60.6604 349.382,-55.1511 366,-48 370.827,-45.9228 375.963,-43.9166 381.091,-42.0362"/>
<polygon fill="midnightblue" stroke="midnightblue" points="382.594,-45.2174 390.859,-38.5892 380.264,-38.6164 382.594,-45.2174"/>
</g>
</g>
</svg>
