<?xml version="1.0" encoding="UTF-8" standalone="no"?>
<!DOCTYPE svg PUBLIC "-//W3C//DTD SVG 1.1//EN"
 "http://www.w3.org/Graphics/SVG/1.1/DTD/svg11.dtd">
<!-- Generated by graphviz version 2.30.1 (20130214.1330)
 -->
<!-- Title: SDConfigManager::readConfig Pages: 1 -->
<svg width="486pt" height="154pt"
 viewBox="0.00 0.00 486.00 154.00" xmlns="http://www.w3.org/2000/svg" xmlns:xlink="http://www.w3.org/1999/xlink">
<g id="graph0" class="graph" transform="scale(1 1) rotate(0) translate(4 150)">
<title>SDConfigManager::readConfig</title>
<polygon fill="white" stroke="white" points="-4,5 -4,-150 483,-150 483,5 -4,5"/>
<!-- Node1 -->
<g id="node1" class="node"><title>Node1</title>
<polygon fill="#bfbfbf" stroke="black" points="0,-60.5 0,-79.5 146,-79.5 146,-60.5 0,-60.5"/>
<text text-anchor="middle" x="73" y="-67.5" font-family="Helvetica,sans-Serif" font-size="10.00">SDConfigManager::readConfig</text>
</g>
<!-- Node2 -->
<g id="node2" class="node"><title>Node2</title>
<g id="a_node2"><a xlink:href="class_aquaduino.html#a2edba497281c7520a016b62a7cec01f0" target="_top" xlink:title="Aquaduino::getControllerID">
<polygon fill="white" stroke="black" points="189,-126.5 189,-145.5 321,-145.5 321,-126.5 189,-126.5"/>
<text text-anchor="middle" x="255" y="-133.5" font-family="Helvetica,sans-Serif" font-size="10.00">Aquaduino::getControllerID</text>
</a>
</g>
</g>
<!-- Node1&#45;&gt;Node2 -->
<g id="edge1" class="edge"><title>Node1&#45;&gt;Node2</title>
<path fill="none" stroke="midnightblue" d="M94.3866,-79.6384C115.868,-89.5668 150.839,-105.089 182,-116 189.747,-118.713 198.064,-121.306 206.194,-123.674"/>
<polygon fill="midnightblue" stroke="midnightblue" points="205.393,-127.085 215.968,-126.442 207.301,-120.35 205.393,-127.085"/>
</g>
<!-- Node4 -->
<g id="node4" class="node"><title>Node4</title>
<g id="a_node4"><a xlink:href="class_s_d_config_manager.html#af82e2c7188e996b42f9158b108dd6abc" target="_top" xlink:title="SDConfigManager::readStruct\lFromFile">
<polygon fill="white" stroke="black" points="182,-77 182,-107 328,-107 328,-77 182,-77"/>
<text text-anchor="start" x="190" y="-95" font-family="Helvetica,sans-Serif" font-size="10.00">SDConfigManager::readStruct</text>
<text text-anchor="middle" x="255" y="-84" font-family="Helvetica,sans-Serif" font-size="10.00">FromFile</text>
</a>
</g>
</g>
<!-- Node1&#45;&gt;Node4 -->
<g id="edge3" class="edge"><title>Node1&#45;&gt;Node4</title>
<path fill="none" stroke="midnightblue" d="M146.176,-78.8215C154.612,-79.8525 163.265,-80.9102 171.824,-81.9562"/>
<polygon fill="midnightblue" stroke="midnightblue" points="171.457,-85.4374 181.808,-83.1765 172.307,-78.4891 171.457,-85.4374"/>
</g>
<!-- Node5 -->
<g id="node5" class="node"><title>Node5</title>
<g id="a_node5"><a xlink:href="class_object.html#aa06e8c00bea02f598f7a68c5a1775de6" target="_top" xlink:title="Object::getType">
<polygon fill="white" stroke="black" points="212,-38.5 212,-57.5 298,-57.5 298,-38.5 212,-38.5"/>
<text text-anchor="middle" x="255" y="-45.5" font-family="Helvetica,sans-Serif" font-size="10.00">Object::getType</text>
</a>
</g>
</g>
<!-- Node1&#45;&gt;Node5 -->
<g id="edge4" class="edge"><title>Node1&#45;&gt;Node5</title>
<path fill="none" stroke="midnightblue" d="M146.176,-61.1785C164.817,-58.9001 184.521,-56.4918 201.914,-54.3661"/>
<polygon fill="midnightblue" stroke="midnightblue" points="202.36,-57.8376 211.862,-53.1502 201.511,-50.8893 202.36,-57.8376"/>
</g>
<!-- Node6 -->
<g id="node6" class="node"><title>Node6</title>
<g id="a_node6"><a xlink:href="class_serializable.html#ad6a1d38f4e11eb3e1b1bacd0759dc778" target="_top" xlink:title="Serializable::deserialize">
<polygon fill="white" stroke="black" points="195.5,-0.5 195.5,-19.5 314.5,-19.5 314.5,-0.5 195.5,-0.5"/>
<text text-anchor="middle" x="255" y="-7.5" font-family="Helvetica,sans-Serif" font-size="10.00">Serializable::deserialize</text>
</a>
</g>
</g>
<!-- Node1&#45;&gt;Node6 -->
<g id="edge5" class="edge"><title>Node1&#45;&gt;Node6</title>
<path fill="none" stroke="midnightblue" d="M96.9264,-60.494C118.621,-51.691 152.208,-38.5567 182,-29 189.444,-26.6122 197.388,-24.2923 205.181,-22.1415"/>
<polygon fill="midnightblue" stroke="midnightblue" points="206.178,-25.4977 214.923,-19.5152 204.356,-18.739 206.178,-25.4977"/>
</g>
<!-- Node3 -->
<g id="node3" class="node"><title>Node3</title>
<g id="a_node3"><a xlink:href="class_array_list.html#a20ac96a11ec710178bec5d1e78a266b8" target="_top" xlink:title="ArrayList::findElement">
<polygon fill="white" stroke="black" points="364.5,-126.5 364.5,-145.5 477.5,-145.5 477.5,-126.5 364.5,-126.5"/>
<text text-anchor="middle" x="421" y="-133.5" font-family="Helvetica,sans-Serif" font-size="10.00">ArrayList::findElement</text>
</a>
</g>
</g>
<!-- Node2&#45;&gt;Node3 -->
<g id="edge2" class="edge"><title>Node2&#45;&gt;Node3</title>
<path fill="none" stroke="midnightblue" d="M321.288,-136C332.119,-136 343.356,-136 354.199,-136"/>
<polygon fill="midnightblue" stroke="midnightblue" points="354.449,-139.5 364.448,-136 354.448,-132.5 354.449,-139.5"/>
</g>
</g>
</svg>
