<?xml version="1.0" encoding="UTF-8" standalone="no"?>
<!DOCTYPE svg PUBLIC "-//W3C//DTD SVG 1.1//EN"
 "http://www.w3.org/Graphics/SVG/1.1/DTD/svg11.dtd">
<!-- Generated by graphviz version 2.30.1 (20130214.1330)
 -->
<!-- Title: PWMOutput Pages: 1 -->
<svg width="304pt" height="608pt"
 viewBox="0.00 0.00 304.00 608.00" xmlns="http://www.w3.org/2000/svg" xmlns:xlink="http://www.w3.org/1999/xlink">
<g id="graph0" class="graph" transform="scale(1 1) rotate(0) translate(4 604)">
<title>PWMOutput</title>
<polygon fill="white" stroke="white" points="-4,5 -4,-604 301,-604 301,5 -4,5"/>
<!-- Node1 -->
<g id="node1" class="node"><title>Node1</title>
<polygon fill="#bfbfbf" stroke="black" points="72.5,-1 72.5,-157 183.5,-157 183.5,-1 72.5,-1"/>
<text text-anchor="middle" x="128" y="-145" font-family="Helvetica,sans-Serif" font-size="10.00">PWMOutput</text>
<polyline fill="none" stroke="black" points="72.5,-138 183.5,-138 "/>
<text text-anchor="middle" x="128" y="-126" font-family="Helvetica,sans-Serif" font-size="10.00"> </text>
<polyline fill="none" stroke="black" points="72.5,-119 183.5,-119 "/>
<text text-anchor="start" x="80.5" y="-107" font-family="Helvetica,sans-Serif" font-size="10.00">+ PWMOutput()</text>
<text text-anchor="start" x="80.5" y="-96" font-family="Helvetica,sans-Serif" font-size="10.00">+ serialize()</text>
<text text-anchor="start" x="80.5" y="-85" font-family="Helvetica,sans-Serif" font-size="10.00">+ deserialize()</text>
<text text-anchor="start" x="80.5" y="-74" font-family="Helvetica,sans-Serif" font-size="10.00">+ on()</text>
<text text-anchor="start" x="80.5" y="-63" font-family="Helvetica,sans-Serif" font-size="10.00">+ off()</text>
<text text-anchor="start" x="80.5" y="-52" font-family="Helvetica,sans-Serif" font-size="10.00">+ isOn()</text>
<text text-anchor="start" x="80.5" y="-41" font-family="Helvetica,sans-Serif" font-size="10.00">+ supportsPWM()</text>
<text text-anchor="start" x="80.5" y="-30" font-family="Helvetica,sans-Serif" font-size="10.00">+ setPWM()</text>
<text text-anchor="start" x="80.5" y="-19" font-family="Helvetica,sans-Serif" font-size="10.00">+ getPWM()</text>
<text text-anchor="start" x="80.5" y="-8" font-family="Helvetica,sans-Serif" font-size="10.00">+ showWebinterface()</text>
</g>
<!-- Node2 -->
<g id="node2" class="node"><title>Node2</title>
<g id="a_node2"><a xlink:href="class_actuator.html" target="_top" xlink:title="{Actuator\n|# m_ControlledBy\l# m_locked\l|+ Actuator()\l+ setController()\l+ getController()\l+ lock()\l+ unlock()\l+ isLocked()\l+ on()\l+ off()\l+ isOn()\l+ supportsPWM()\l+ setPWM()\l+ getPWM()\l+ showWebinterface()\l# ~Actuator()\l}">
<polygon fill="white" stroke="black" points="72.5,-194.5 72.5,-405.5 183.5,-405.5 183.5,-194.5 72.5,-194.5"/>
<text text-anchor="middle" x="128" y="-393.5" font-family="Helvetica,sans-Serif" font-size="10.00">Actuator</text>
<polyline fill="none" stroke="black" points="72.5,-386.5 183.5,-386.5 "/>
<text text-anchor="start" x="80.5" y="-374.5" font-family="Helvetica,sans-Serif" font-size="10.00"># m_ControlledBy</text>
<text text-anchor="start" x="80.5" y="-363.5" font-family="Helvetica,sans-Serif" font-size="10.00"># m_locked</text>
<polyline fill="none" stroke="black" points="72.5,-356.5 183.5,-356.5 "/>
<text text-anchor="start" x="80.5" y="-344.5" font-family="Helvetica,sans-Serif" font-size="10.00">+ Actuator()</text>
<text text-anchor="start" x="80.5" y="-333.5" font-family="Helvetica,sans-Serif" font-size="10.00">+ setController()</text>
<text text-anchor="start" x="80.5" y="-322.5" font-family="Helvetica,sans-Serif" font-size="10.00">+ getController()</text>
<text text-anchor="start" x="80.5" y="-311.5" font-family="Helvetica,sans-Serif" font-size="10.00">+ lock()</text>
<text text-anchor="start" x="80.5" y="-300.5" font-family="Helvetica,sans-Serif" font-size="10.00">+ unlock()</text>
<text text-anchor="start" x="80.5" y="-289.5" font-family="Helvetica,sans-Serif" font-size="10.00">+ isLocked()</text>
<text text-anchor="start" x="80.5" y="-278.5" font-family="Helvetica,sans-Serif" font-size="10.00">+ on()</text>
<text text-anchor="start" x="80.5" y="-267.5" font-family="Helvetica,sans-Serif" font-size="10.00">+ off()</text>
<text text-anchor="start" x="80.5" y="-256.5" font-family="Helvetica,sans-Serif" font-size="10.00">+ isOn()</text>
<text text-anchor="start" x="80.5" y="-245.5" font-family="Helvetica,sans-Serif" font-size="10.00">+ supportsPWM()</text>
<text text-anchor="start" x="80.5" y="-234.5" font-family="Helvetica,sans-Serif" font-size="10.00">+ setPWM()</text>
<text text-anchor="start" x="80.5" y="-223.5" font-family="Helvetica,sans-Serif" font-size="10.00">+ getPWM()</text>
<text text-anchor="start" x="80.5" y="-212.5" font-family="Helvetica,sans-Serif" font-size="10.00">+ showWebinterface()</text>
<text text-anchor="start" x="80.5" y="-201.5" font-family="Helvetica,sans-Serif" font-size="10.00"># ~Actuator()</text>
</a>
</g>
</g>
<!-- Node2&#45;&gt;Node1 -->
<g id="edge1" class="edge"><title>Node2&#45;&gt;Node1</title>
<path fill="none" stroke="midnightblue" d="M128,-184.021C128,-174.915 128,-165.859 128,-157.107"/>
<polygon fill="none" stroke="midnightblue" points="124.5,-184.311 128,-194.311 131.5,-184.311 124.5,-184.311"/>
</g>
<!-- Node3 -->
<g id="node3" class="node"><title>Node3</title>
<g id="a_node3"><a xlink:href="class_object.html" target="_top" xlink:title="{Object\n|# m_Name\l# m_URL\l# m_Type\l|+ Object()\l+ Object()\l+ setName()\l+ getName()\l+ setURL()\l+ getURL()\l+ getType()\l# ~Object()\l}">
<polygon fill="white" stroke="black" points="-0.5,-443 -0.5,-599 70.5,-599 70.5,-443 -0.5,-443"/>
<text text-anchor="middle" x="35" y="-587" font-family="Helvetica,sans-Serif" font-size="10.00">Object</text>
<polyline fill="none" stroke="black" points="-0.5,-580 70.5,-580 "/>
<text text-anchor="start" x="7.5" y="-568" font-family="Helvetica,sans-Serif" font-size="10.00"># m_Name</text>
<text text-anchor="start" x="7.5" y="-557" font-family="Helvetica,sans-Serif" font-size="10.00"># m_URL</text>
<text text-anchor="start" x="7.5" y="-546" font-family="Helvetica,sans-Serif" font-size="10.00"># m_Type</text>
<polyline fill="none" stroke="black" points="-0.5,-539 70.5,-539 "/>
<text text-anchor="start" x="7.5" y="-527" font-family="Helvetica,sans-Serif" font-size="10.00">+ Object()</text>
<text text-anchor="start" x="7.5" y="-516" font-family="Helvetica,sans-Serif" font-size="10.00">+ Object()</text>
<text text-anchor="start" x="7.5" y="-505" font-family="Helvetica,sans-Serif" font-size="10.00">+ setName()</text>
<text text-anchor="start" x="7.5" y="-494" font-family="Helvetica,sans-Serif" font-size="10.00">+ getName()</text>
<text text-anchor="start" x="7.5" y="-483" font-family="Helvetica,sans-Serif" font-size="10.00">+ setURL()</text>
<text text-anchor="start" x="7.5" y="-472" font-family="Helvetica,sans-Serif" font-size="10.00">+ getURL()</text>
<text text-anchor="start" x="7.5" y="-461" font-family="Helvetica,sans-Serif" font-size="10.00">+ getType()</text>
<text text-anchor="start" x="7.5" y="-450" font-family="Helvetica,sans-Serif" font-size="10.00"># ~Object()</text>
</a>
</g>
</g>
<!-- Node3&#45;&gt;Node2 -->
<g id="edge2" class="edge"><title>Node3&#45;&gt;Node2</title>
<path fill="none" stroke="midnightblue" d="M71.796,-433.351C75.6792,-424.207 79.6569,-414.84 83.6141,-405.522"/>
<polygon fill="none" stroke="midnightblue" points="68.4756,-432.216 67.7883,-442.789 74.9187,-434.952 68.4756,-432.216"/>
</g>
<!-- Node4 -->
<g id="node4" class="node"><title>Node4</title>
<g id="a_node4"><a xlink:href="class_serializable.html" target="_top" xlink:title="{Serializable\n||+ serialize()\l+ deserialize()\l}">
<polygon fill="white" stroke="black" points="89,-487 89,-555 167,-555 167,-487 89,-487"/>
<text text-anchor="middle" x="128" y="-543" font-family="Helvetica,sans-Serif" font-size="10.00">Serializable</text>
<polyline fill="none" stroke="black" points="89,-536 167,-536 "/>
<text text-anchor="middle" x="128" y="-524" font-family="Helvetica,sans-Serif" font-size="10.00"> </text>
<polyline fill="none" stroke="black" points="89,-517 167,-517 "/>
<text text-anchor="start" x="97" y="-505" font-family="Helvetica,sans-Serif" font-size="10.00">+ serialize()</text>
<text text-anchor="start" x="97" y="-494" font-family="Helvetica,sans-Serif" font-size="10.00">+ deserialize()</text>
</a>
</g>
</g>
<!-- Node4&#45;&gt;Node2 -->
<g id="edge3" class="edge"><title>Node4&#45;&gt;Node2</title>
<path fill="none" stroke="midnightblue" d="M128,-476.54C128,-456.134 128,-430.844 128,-405.875"/>
<polygon fill="none" stroke="midnightblue" points="124.5,-476.739 128,-486.739 131.5,-476.739 124.5,-476.739"/>
</g>
<!-- Node5 -->
<g id="node5" class="node"><title>Node5</title>
<g id="a_node5"><a xlink:href="class_web_interface.html" target="_top" xlink:title="{WebInterface\n||+ showWebinterface()\l}">
<polygon fill="white" stroke="black" points="185.5,-492.5 185.5,-549.5 296.5,-549.5 296.5,-492.5 185.5,-492.5"/>
<text text-anchor="middle" x="241" y="-537.5" font-family="Helvetica,sans-Serif" font-size="10.00">WebInterface</text>
<polyline fill="none" stroke="black" points="185.5,-530.5 296.5,-530.5 "/>
<text text-anchor="middle" x="241" y="-518.5" font-family="Helvetica,sans-Serif" font-size="10.00"> </text>
<polyline fill="none" stroke="black" points="185.5,-511.5 296.5,-511.5 "/>
<text text-anchor="start" x="193.5" y="-499.5" font-family="Helvetica,sans-Serif" font-size="10.00">+ showWebinterface()</text>
</a>
</g>
</g>
<!-- Node5&#45;&gt;Node2 -->
<g id="edge4" class="edge"><title>Node5&#45;&gt;Node2</title>
<path fill="none" stroke="midnightblue" d="M222.025,-483.226C210.978,-461.815 196.436,-433.632 182.1,-405.85"/>
<polygon fill="none" stroke="midnightblue" points="218.993,-484.982 226.688,-492.263 225.213,-481.772 218.993,-484.982"/>
</g>
</g>
</svg>
