<?xml version="1.0" encoding="UTF-8" standalone="no"?>
<!DOCTYPE svg PUBLIC "-//W3C//DTD SVG 1.1//EN"
 "http://www.w3.org/Graphics/SVG/1.1/DTD/svg11.dtd">
<!-- Generated by graphviz version 2.30.1 (20130214.1330)
 -->
<!-- Title: DigitalOutput::on Pages: 1 -->
<svg width="270pt" height="104pt"
 viewBox="0.00 0.00 270.00 104.00" xmlns="http://www.w3.org/2000/svg" xmlns:xlink="http://www.w3.org/1999/xlink">
<g id="graph0" class="graph" transform="scale(1 1) rotate(0) translate(4 100)">
<title>DigitalOutput::on</title>
<polygon fill="white" stroke="white" points="-4,5 -4,-100 267,-100 267,5 -4,5"/>
<!-- Node1 -->
<g id="node1" class="node"><title>Node1</title>
<polygon fill="#bfbfbf" stroke="black" points="0.5,-38.5 0.5,-57.5 89.5,-57.5 89.5,-38.5 0.5,-38.5"/>
<text text-anchor="middle" x="45" y="-45.5" font-family="Helvetica,sans-Serif" font-size="10.00">DigitalOutput::on</text>
</g>
<!-- Node2 -->
<g id="node2" class="node"><title>Node2</title>
<g id="a_node2"><a xlink:href="class_digital_output.html#a4849e592d6f75c56cfae2fe4aff87f97" target="_top" xlink:title="DigitalOutput::DigitalOutput">
<polygon fill="white" stroke="black" points="126.5,-76.5 126.5,-95.5 261.5,-95.5 261.5,-76.5 126.5,-76.5"/>
<text text-anchor="middle" x="194" y="-83.5" font-family="Helvetica,sans-Serif" font-size="10.00">DigitalOutput::DigitalOutput</text>
</a>
</g>
</g>
<!-- Node1&#45;&gt;Node2 -->
<g id="edge1" class="edge"><title>Node1&#45;&gt;Node2</title>
<path fill="none" stroke="midnightblue" d="M92.8548,-60.1121C113.328,-65.4044 136.99,-71.5213 156.172,-76.4799"/>
<polygon fill="midnightblue" stroke="midnightblue" points="93.652,-56.7032 83.0943,-57.589 91.9001,-63.4805 93.652,-56.7032"/>
</g>
<!-- Node3 -->
<g id="node3" class="node"><title>Node3</title>
<g id="a_node3"><a xlink:href="class_digital_output.html#a2d57fa5b1ca9f901451269327309e537" target="_top" xlink:title="DigitalOutput::setPWM">
<polygon fill="white" stroke="black" points="135.5,-38.5 135.5,-57.5 252.5,-57.5 252.5,-38.5 135.5,-38.5"/>
<text text-anchor="middle" x="194" y="-45.5" font-family="Helvetica,sans-Serif" font-size="10.00">DigitalOutput::setPWM</text>
</a>
</g>
</g>
<!-- Node1&#45;&gt;Node3 -->
<g id="edge2" class="edge"><title>Node1&#45;&gt;Node3</title>
<path fill="none" stroke="midnightblue" d="M100.027,-48C111.512,-48 123.68,-48 135.296,-48"/>
<polygon fill="midnightblue" stroke="midnightblue" points="99.7069,-44.5001 89.7068,-48 99.7068,-51.5001 99.7069,-44.5001"/>
</g>
<!-- Node4 -->
<g id="node4" class="node"><title>Node4</title>
<g id="a_node4"><a xlink:href="_aquaduino_8cpp.html#a4fc01d736fe50cf5b977f755b675f11d" target="_top" xlink:title="setup">
<polygon fill="white" stroke="black" points="173.5,-0.5 173.5,-19.5 214.5,-19.5 214.5,-0.5 173.5,-0.5"/>
<text text-anchor="middle" x="194" y="-7.5" font-family="Helvetica,sans-Serif" font-size="10.00">setup</text>
</a>
</g>
</g>
<!-- Node1&#45;&gt;Node4 -->
<g id="edge3" class="edge"><title>Node1&#45;&gt;Node4</title>
<path fill="none" stroke="midnightblue" d="M92.7911,-35.9043C119.889,-28.8995 152.592,-20.4455 173.098,-15.1446"/>
<polygon fill="midnightblue" stroke="midnightblue" points="91.9001,-32.5195 83.0943,-38.411 93.652,-39.2968 91.9001,-32.5195"/>
</g>
</g>
</svg>
