<?xml version="1.0" encoding="UTF-8" standalone="no"?>
<!DOCTYPE svg PUBLIC "-//W3C//DTD SVG 1.1//EN"
 "http://www.w3.org/Graphics/SVG/1.1/DTD/svg11.dtd">
<!-- Generated by graphviz version 2.30.1 (20130214.1330)
 -->
<!-- Title: ClockTimerController::run Pages: 1 -->
<svg width="406pt" height="180pt"
 viewBox="0.00 0.00 406.00 180.00" xmlns="http://www.w3.org/2000/svg" xmlns:xlink="http://www.w3.org/1999/xlink">
<g id="graph0" class="graph" transform="scale(1 1) rotate(0) translate(4 176)">
<title>ClockTimerController::run</title>
<polygon fill="white" stroke="white" points="-4,5 -4,-176 403,-176 403,5 -4,5"/>
<!-- Node1 -->
<g id="node1" class="node"><title>Node1</title>
<polygon fill="#bfbfbf" stroke="black" points="0,-76.5 0,-95.5 126,-95.5 126,-76.5 0,-76.5"/>
<text text-anchor="middle" x="63" y="-83.5" font-family="Helvetica,sans-Serif" font-size="10.00">ClockTimerController::run</text>
</g>
<!-- Node2 -->
<g id="node2" class="node"><title>Node2</title>
<g id="a_node2"><a xlink:href="class_aquaduino.html#abf0068cda6e8dfbf3bab8c7cc6514f84" target="_top" xlink:title="Aquaduino::getActuator">
<polygon fill="white" stroke="black" points="164.5,-152.5 164.5,-171.5 283.5,-171.5 283.5,-152.5 164.5,-152.5"/>
<text text-anchor="middle" x="224" y="-159.5" font-family="Helvetica,sans-Serif" font-size="10.00">Aquaduino::getActuator</text>
</a>
</g>
</g>
<!-- Node1&#45;&gt;Node2 -->
<g id="edge1" class="edge"><title>Node1&#45;&gt;Node2</title>
<path fill="none" stroke="midnightblue" d="M78.0738,-95.5539C96.6435,-107.834 130.651,-129.211 162,-143 167.077,-145.233 172.497,-147.318 177.934,-149.229"/>
<polygon fill="midnightblue" stroke="midnightblue" points="177.072,-152.631 187.666,-152.473 179.286,-145.99 177.072,-152.631"/>
</g>
<!-- Node4 -->
<g id="node4" class="node"><title>Node4</title>
<g id="a_node4"><a xlink:href="class_aquaduino.html#a22f89de6e7212c48dfab2b605e3ec875" target="_top" xlink:title="Aquaduino::getController">
<polygon fill="white" stroke="black" points="162.5,-114.5 162.5,-133.5 285.5,-133.5 285.5,-114.5 162.5,-114.5"/>
<text text-anchor="middle" x="224" y="-121.5" font-family="Helvetica,sans-Serif" font-size="10.00">Aquaduino::getController</text>
</a>
</g>
</g>
<!-- Node1&#45;&gt;Node4 -->
<g id="edge3" class="edge"><title>Node1&#45;&gt;Node4</title>
<path fill="none" stroke="midnightblue" d="M104.122,-95.589C125.104,-100.604 150.982,-106.788 173.23,-112.105"/>
<polygon fill="midnightblue" stroke="midnightblue" points="172.626,-115.56 183.166,-114.48 174.254,-108.751 172.626,-115.56"/>
</g>
<!-- Node5 -->
<g id="node5" class="node"><title>Node5</title>
<g id="a_node5"><a xlink:href="class_actuator.html#aa12e6c3347af475a8b6ea1c8b38bd9e6" target="_top" xlink:title="Actuator::getController">
<polygon fill="white" stroke="black" points="167,-76.5 167,-95.5 281,-95.5 281,-76.5 167,-76.5"/>
<text text-anchor="middle" x="224" y="-83.5" font-family="Helvetica,sans-Serif" font-size="10.00">Actuator::getController</text>
</a>
</g>
</g>
<!-- Node1&#45;&gt;Node5 -->
<g id="edge5" class="edge"><title>Node1&#45;&gt;Node5</title>
<path fill="none" stroke="midnightblue" d="M126.385,-86C136.264,-86 146.514,-86 156.483,-86"/>
<polygon fill="midnightblue" stroke="midnightblue" points="156.744,-89.5001 166.744,-86 156.744,-82.5001 156.744,-89.5001"/>
</g>
<!-- Node6 -->
<g id="node6" class="node"><title>Node6</title>
<g id="a_node6"><a xlink:href="class_actuator.html#a40700c01e3123133fd11157f9707ac8a" target="_top" xlink:title="Actuator::on">
<polygon fill="white" stroke="black" points="189,-38.5 189,-57.5 259,-57.5 259,-38.5 189,-38.5"/>
<text text-anchor="middle" x="224" y="-45.5" font-family="Helvetica,sans-Serif" font-size="10.00">Actuator::on</text>
</a>
</g>
</g>
<!-- Node1&#45;&gt;Node6 -->
<g id="edge6" class="edge"><title>Node1&#45;&gt;Node6</title>
<path fill="none" stroke="midnightblue" d="M104.122,-76.411C126.882,-70.9717 155.401,-64.1557 178.801,-58.5634"/>
<polygon fill="midnightblue" stroke="midnightblue" points="179.905,-61.8981 188.817,-56.1695 178.278,-55.0899 179.905,-61.8981"/>
</g>
<!-- Node7 -->
<g id="node7" class="node"><title>Node7</title>
<g id="a_node7"><a xlink:href="class_actuator.html#a767243ef9f90e7a99175ad466cc02916" target="_top" xlink:title="Actuator::off">
<polygon fill="white" stroke="black" points="189.5,-0.5 189.5,-19.5 258.5,-19.5 258.5,-0.5 189.5,-0.5"/>
<text text-anchor="middle" x="224" y="-7.5" font-family="Helvetica,sans-Serif" font-size="10.00">Actuator::off</text>
</a>
</g>
</g>
<!-- Node1&#45;&gt;Node7 -->
<g id="edge7" class="edge"><title>Node1&#45;&gt;Node7</title>
<path fill="none" stroke="midnightblue" d="M78.0738,-76.4461C96.6435,-64.166 130.651,-42.7888 162,-29 167.529,-26.5682 173.466,-24.3112 179.386,-22.2648"/>
<polygon fill="midnightblue" stroke="midnightblue" points="180.85,-25.4683 189.261,-19.0259 178.668,-18.8169 180.85,-25.4683"/>
</g>
<!-- Node3 -->
<g id="node3" class="node"><title>Node3</title>
<g id="a_node3"><a xlink:href="class_array_list.html#a054a989435b72d720ffb11b8824aa62f" target="_top" xlink:title="ArrayList::get">
<polygon fill="white" stroke="black" points="322.5,-133.5 322.5,-152.5 397.5,-152.5 397.5,-133.5 322.5,-133.5"/>
<text text-anchor="middle" x="360" y="-140.5" font-family="Helvetica,sans-Serif" font-size="10.00">ArrayList::get</text>
</a>
</g>
</g>
<!-- Node2&#45;&gt;Node3 -->
<g id="edge2" class="edge"><title>Node2&#45;&gt;Node3</title>
<path fill="none" stroke="midnightblue" d="M283.774,-153.666C293.278,-152.319 303.005,-150.94 312.176,-149.639"/>
<polygon fill="midnightblue" stroke="midnightblue" points="312.843,-153.08 322.252,-148.21 311.86,-146.149 312.843,-153.08"/>
</g>
<!-- Node4&#45;&gt;Node3 -->
<g id="edge4" class="edge"><title>Node4&#45;&gt;Node3</title>
<path fill="none" stroke="midnightblue" d="M285.727,-132.611C294.588,-133.867 303.598,-135.144 312.127,-136.354"/>
<polygon fill="midnightblue" stroke="midnightblue" points="311.859,-139.851 322.251,-137.789 312.841,-132.92 311.859,-139.851"/>
</g>
</g>
</svg>
