<?xml version="1.0" encoding="UTF-8" standalone="no"?>
<!DOCTYPE svg PUBLIC "-//W3C//DTD SVG 1.1//EN"
 "http://www.w3.org/Graphics/SVG/1.1/DTD/svg11.dtd">
<!-- Generated by graphviz version 2.30.1 (20130214.1330)
 -->
<!-- Title: TemperatureController::run Pages: 1 -->
<svg width="312pt" height="180pt"
 viewBox="0.00 0.00 312.00 180.00" xmlns="http://www.w3.org/2000/svg" xmlns:xlink="http://www.w3.org/1999/xlink">
<g id="graph0" class="graph" transform="scale(1 1) rotate(0) translate(4 176)">
<title>TemperatureController::run</title>
<polygon fill="white" stroke="white" points="-4,5 -4,-176 309,-176 309,5 -4,5"/>
<!-- Node1 -->
<g id="node1" class="node"><title>Node1</title>
<polygon fill="#bfbfbf" stroke="black" points="0.5,-76.5 0.5,-95.5 131.5,-95.5 131.5,-76.5 0.5,-76.5"/>
<text text-anchor="middle" x="66" y="-83.5" font-family="Helvetica,sans-Serif" font-size="10.00">TemperatureController::run</text>
</g>
<!-- Node2 -->
<g id="node2" class="node"><title>Node2</title>
<g id="a_node2"><a xlink:href="class_aquaduino.html#a417e6bdfac5f5c16ca24f46bbd4b4142" target="_top" xlink:title="Aquaduino::getTemperature">
<polygon fill="white" stroke="black" points="168,-152.5 168,-171.5 304,-171.5 304,-152.5 168,-152.5"/>
<text text-anchor="middle" x="236" y="-159.5" font-family="Helvetica,sans-Serif" font-size="10.00">Aquaduino::getTemperature</text>
</a>
</g>
</g>
<!-- Node1&#45;&gt;Node2 -->
<g id="edge1" class="edge"><title>Node1&#45;&gt;Node2</title>
<path fill="none" stroke="midnightblue" d="M81.4965,-95.6479C100.626,-108.03 135.665,-129.517 168,-143 173.576,-145.325 179.528,-147.467 185.497,-149.407"/>
<polygon fill="midnightblue" stroke="midnightblue" points="184.907,-152.888 195.494,-152.481 186.964,-146.197 184.907,-152.888"/>
</g>
<!-- Node3 -->
<g id="node3" class="node"><title>Node3</title>
<g id="a_node3"><a xlink:href="class_actuator.html#a66f12d52b9d350c6c5a55c5691e13682" target="_top" xlink:title="Actuator::supportsPWM">
<polygon fill="white" stroke="black" points="175,-114.5 175,-133.5 297,-133.5 297,-114.5 175,-114.5"/>
<text text-anchor="middle" x="236" y="-121.5" font-family="Helvetica,sans-Serif" font-size="10.00">Actuator::supportsPWM</text>
</a>
</g>
</g>
<!-- Node1&#45;&gt;Node3 -->
<g id="edge2" class="edge"><title>Node1&#45;&gt;Node3</title>
<path fill="none" stroke="midnightblue" d="M109.393,-95.589C131.763,-100.649 159.398,-106.9 183.047,-112.249"/>
<polygon fill="midnightblue" stroke="midnightblue" points="182.386,-115.687 192.911,-114.48 183.93,-108.86 182.386,-115.687"/>
</g>
<!-- Node4 -->
<g id="node4" class="node"><title>Node4</title>
<g id="a_node4"><a xlink:href="class_actuator.html#a80dbe74fa140d0246452b4531ffbb86f" target="_top" xlink:title="Actuator::setPWM">
<polygon fill="white" stroke="black" points="187,-76.5 187,-95.5 285,-95.5 285,-76.5 187,-76.5"/>
<text text-anchor="middle" x="236" y="-83.5" font-family="Helvetica,sans-Serif" font-size="10.00">Actuator::setPWM</text>
</a>
</g>
</g>
<!-- Node1&#45;&gt;Node4 -->
<g id="edge3" class="edge"><title>Node1&#45;&gt;Node4</title>
<path fill="none" stroke="midnightblue" d="M131.953,-86C146.665,-86 162.199,-86 176.619,-86"/>
<polygon fill="midnightblue" stroke="midnightblue" points="176.895,-89.5001 186.895,-86 176.895,-82.5001 176.895,-89.5001"/>
</g>
<!-- Node5 -->
<g id="node5" class="node"><title>Node5</title>
<g id="a_node5"><a xlink:href="class_actuator.html#a40700c01e3123133fd11157f9707ac8a" target="_top" xlink:title="Actuator::on">
<polygon fill="white" stroke="black" points="201,-38.5 201,-57.5 271,-57.5 271,-38.5 201,-38.5"/>
<text text-anchor="middle" x="236" y="-45.5" font-family="Helvetica,sans-Serif" font-size="10.00">Actuator::on</text>
</a>
</g>
</g>
<!-- Node1&#45;&gt;Node5 -->
<g id="edge4" class="edge"><title>Node1&#45;&gt;Node5</title>
<path fill="none" stroke="midnightblue" d="M109.393,-76.411C134.255,-70.7876 165.621,-63.6929 190.79,-58"/>
<polygon fill="midnightblue" stroke="midnightblue" points="191.825,-61.3542 200.807,-55.7342 190.281,-54.5267 191.825,-61.3542"/>
</g>
<!-- Node6 -->
<g id="node6" class="node"><title>Node6</title>
<g id="a_node6"><a xlink:href="class_actuator.html#a767243ef9f90e7a99175ad466cc02916" target="_top" xlink:title="Actuator::off">
<polygon fill="white" stroke="black" points="201.5,-0.5 201.5,-19.5 270.5,-19.5 270.5,-0.5 201.5,-0.5"/>
<text text-anchor="middle" x="236" y="-7.5" font-family="Helvetica,sans-Serif" font-size="10.00">Actuator::off</text>
</a>
</g>
</g>
<!-- Node1&#45;&gt;Node6 -->
<g id="edge5" class="edge"><title>Node1&#45;&gt;Node6</title>
<path fill="none" stroke="midnightblue" d="M81.4965,-76.3521C100.626,-63.9704 135.665,-42.4833 168,-29 175.537,-25.8572 183.76,-23.0503 191.784,-20.6207"/>
<polygon fill="midnightblue" stroke="midnightblue" points="192.771,-23.9787 201.411,-17.8471 190.833,-17.2522 192.771,-23.9787"/>
</g>
</g>
</svg>
