<?xml version="1.0" encoding="UTF-8" standalone="no"?>
<!DOCTYPE svg PUBLIC "-//W3C//DTD SVG 1.1//EN"
 "http://www.w3.org/Graphics/SVG/1.1/DTD/svg11.dtd">
<!-- Generated by graphviz version 2.30.1 (20130214.1330)
 -->
<!-- Title: Aquaduino::getActuator Pages: 1 -->
<svg width="532pt" height="66pt"
 viewBox="0.00 0.00 532.00 66.00" xmlns="http://www.w3.org/2000/svg" xmlns:xlink="http://www.w3.org/1999/xlink">
<g id="graph0" class="graph" transform="scale(1 1) rotate(0) translate(4 62)">
<title>Aquaduino::getActuator</title>
<polygon fill="white" stroke="white" points="-4,5 -4,-62 529,-62 529,5 -4,5"/>
<!-- Node1 -->
<g id="node1" class="node"><title>Node1</title>
<polygon fill="#bfbfbf" stroke="black" points="0.5,-19.5 0.5,-38.5 119.5,-38.5 119.5,-19.5 0.5,-19.5"/>
<text text-anchor="middle" x="60" y="-26.5" font-family="Helvetica,sans-Serif" font-size="10.00">Aquaduino::getActuator</text>
</g>
<!-- Node2 -->
<g id="node2" class="node"><title>Node2</title>
<g id="a_node2"><a xlink:href="class_clock_timer_controller.html#a7a429effb602dd413ed83bf005071e22" target="_top" xlink:title="ClockTimerController::run">
<polygon fill="white" stroke="black" points="156,-38.5 156,-57.5 282,-57.5 282,-38.5 156,-38.5"/>
<text text-anchor="middle" x="219" y="-45.5" font-family="Helvetica,sans-Serif" font-size="10.00">ClockTimerController::run</text>
</a>
</g>
</g>
<!-- Node1&#45;&gt;Node2 -->
<g id="edge1" class="edge"><title>Node1&#45;&gt;Node2</title>
<path fill="none" stroke="midnightblue" d="M129.942,-37.3433C138.572,-38.3877 147.359,-39.4511 155.876,-40.4819"/>
<polygon fill="midnightblue" stroke="midnightblue" points="130.256,-33.8558 119.908,-36.129 129.415,-40.8051 130.256,-33.8558"/>
</g>
<!-- Node3 -->
<g id="node3" class="node"><title>Node3</title>
<g id="a_node3"><a xlink:href="mainweb_8cpp.html#afd56fefe2a8598f61d016320f5250491" target="_top" xlink:title="defaultCmd">
<polygon fill="white" stroke="black" points="186.5,-0.5 186.5,-19.5 251.5,-19.5 251.5,-0.5 186.5,-0.5"/>
<text text-anchor="middle" x="219" y="-7.5" font-family="Helvetica,sans-Serif" font-size="10.00">defaultCmd</text>
</a>
</g>
</g>
<!-- Node1&#45;&gt;Node3 -->
<g id="edge2" class="edge"><title>Node1&#45;&gt;Node3</title>
<path fill="none" stroke="midnightblue" d="M130.029,-20.6462C149.573,-18.281 169.911,-15.8197 186.103,-13.8601"/>
<polygon fill="midnightblue" stroke="midnightblue" points="129.415,-17.1949 119.908,-21.871 130.256,-24.1442 129.415,-17.1949"/>
</g>
<!-- Node4 -->
<g id="node4" class="node"><title>Node4</title>
<g id="a_node4"><a xlink:href="class_aquaduino.html#a6f21b3e1fe7fd8b1c13d1e78372abed6" target="_top" xlink:title="Aquaduino::setWebserver">
<polygon fill="white" stroke="black" points="318,-0.5 318,-19.5 446,-19.5 446,-0.5 318,-0.5"/>
<text text-anchor="middle" x="382" y="-7.5" font-family="Helvetica,sans-Serif" font-size="10.00">Aquaduino::setWebserver</text>
</a>
</g>
</g>
<!-- Node3&#45;&gt;Node4 -->
<g id="edge3" class="edge"><title>Node3&#45;&gt;Node4</title>
<path fill="none" stroke="midnightblue" d="M262.011,-10C279.086,-10 299.182,-10 317.95,-10"/>
<polygon fill="midnightblue" stroke="midnightblue" points="261.808,-6.5001 251.808,-10 261.808,-13.5001 261.808,-6.5001"/>
</g>
<!-- Node5 -->
<g id="node5" class="node"><title>Node5</title>
<g id="a_node5"><a xlink:href="_aquaduino_8cpp.html#a4fc01d736fe50cf5b977f755b675f11d" target="_top" xlink:title="setup">
<polygon fill="white" stroke="black" points="482.5,-0.5 482.5,-19.5 523.5,-19.5 523.5,-0.5 482.5,-0.5"/>
<text text-anchor="middle" x="503" y="-7.5" font-family="Helvetica,sans-Serif" font-size="10.00">setup</text>
</a>
</g>
</g>
<!-- Node4&#45;&gt;Node5 -->
<g id="edge4" class="edge"><title>Node4&#45;&gt;Node5</title>
<path fill="none" stroke="midnightblue" d="M456.371,-10C465.872,-10 474.873,-10 482.331,-10"/>
<polygon fill="midnightblue" stroke="midnightblue" points="456.333,-6.5001 446.333,-10 456.333,-13.5001 456.333,-6.5001"/>
</g>
</g>
</svg>
