<?xml version="1.0" encoding="UTF-8" standalone="no"?>
<!DOCTYPE svg PUBLIC "-//W3C//DTD SVG 1.1//EN"
 "http://www.w3.org/Graphics/SVG/1.1/DTD/svg11.dtd">
<!-- Generated by graphviz version 2.30.1 (20130214.1330)
 -->
<!-- Title: ArrayList::getNrOfElements Pages: 1 -->
<svg width="328pt" height="66pt"
 viewBox="0.00 0.00 328.00 66.00" xmlns="http://www.w3.org/2000/svg" xmlns:xlink="http://www.w3.org/1999/xlink">
<g id="graph0" class="graph" transform="scale(1 1) rotate(0) translate(4 62)">
<title>ArrayList::getNrOfElements</title>
<polygon fill="white" stroke="white" points="-4,5 -4,-62 325,-62 325,5 -4,5"/>
<!-- Node1 -->
<g id="node1" class="node"><title>Node1</title>
<polygon fill="#bfbfbf" stroke="black" points="0,-19.5 0,-38.5 136,-38.5 136,-19.5 0,-19.5"/>
<text text-anchor="middle" x="68" y="-26.5" font-family="Helvetica,sans-Serif" font-size="10.00">ArrayList::getNrOfElements</text>
</g>
<!-- Node2 -->
<g id="node2" class="node"><title>Node2</title>
<g id="a_node2"><a xlink:href="class_aquaduino.html#a1e036998c13a39ba06cd7adce665c0e5" target="_top" xlink:title="Aquaduino::getNrOfControllers">
<polygon fill="white" stroke="black" points="172,-38.5 172,-57.5 320,-57.5 320,-38.5 172,-38.5"/>
<text text-anchor="middle" x="246" y="-45.5" font-family="Helvetica,sans-Serif" font-size="10.00">Aquaduino::getNrOfControllers</text>
</a>
</g>
</g>
<!-- Node1&#45;&gt;Node2 -->
<g id="edge1" class="edge"><title>Node1&#45;&gt;Node2</title>
<path fill="none" stroke="midnightblue" d="M146.063,-37.3193C154.674,-38.2489 163.427,-39.1939 171.986,-40.1178"/>
<polygon fill="midnightblue" stroke="midnightblue" points="146.358,-33.8309 136.04,-36.2373 145.607,-40.7905 146.358,-33.8309"/>
</g>
<!-- Node3 -->
<g id="node3" class="node"><title>Node3</title>
<g id="a_node3"><a xlink:href="class_aquaduino.html#a683e0ec31d5929fb0a402ed88009833c" target="_top" xlink:title="Aquaduino::getNrOfActuators">
<polygon fill="white" stroke="black" points="174.5,-0.5 174.5,-19.5 317.5,-19.5 317.5,-0.5 174.5,-0.5"/>
<text text-anchor="middle" x="246" y="-7.5" font-family="Helvetica,sans-Serif" font-size="10.00">Aquaduino::getNrOfActuators</text>
</a>
</g>
</g>
<!-- Node1&#45;&gt;Node3 -->
<g id="edge2" class="edge"><title>Node1&#45;&gt;Node3</title>
<path fill="none" stroke="midnightblue" d="M146.133,-20.6731C155.514,-19.6604 165.062,-18.6297 174.342,-17.6278"/>
<polygon fill="midnightblue" stroke="midnightblue" points="145.607,-17.2095 136.04,-21.7627 146.358,-24.1691 145.607,-17.2095"/>
</g>
</g>
</svg>
