<?xml version="1.0" encoding="UTF-8" standalone="no"?>
<!DOCTYPE svg PUBLIC "-//W3C//DTD SVG 1.1//EN"
 "http://www.w3.org/Graphics/SVG/1.1/DTD/svg11.dtd">
<!-- Generated by graphviz version 2.30.1 (20130214.1330)
 -->
<!-- Title: ConfigManager::writeConfig Pages: 1 -->
<svg width="810pt" height="104pt"
 viewBox="0.00 0.00 810.00 104.00" xmlns="http://www.w3.org/2000/svg" xmlns:xlink="http://www.w3.org/1999/xlink">
<g id="graph0" class="graph" transform="scale(1 1) rotate(0) translate(4 100)">
<title>ConfigManager::writeConfig</title>
<polygon fill="white" stroke="white" points="-4,5 -4,-100 807,-100 807,5 -4,5"/>
<!-- Node1 -->
<g id="node1" class="node"><title>Node1</title>
<polygon fill="#bfbfbf" stroke="black" points="0,-38.5 0,-57.5 134,-57.5 134,-38.5 0,-38.5"/>
<text text-anchor="middle" x="67" y="-45.5" font-family="Helvetica,sans-Serif" font-size="10.00">ConfigManager::writeConfig</text>
</g>
<!-- Node2 -->
<g id="node2" class="node"><title>Node2</title>
<g id="a_node2"><a xlink:href="class_aquaduino.html#a16e05153698a4aed10c0ebf9f472abb5" target="_top" xlink:title="Aquaduino::writeConfig">
<polygon fill="white" stroke="black" points="170,-38.5 170,-57.5 286,-57.5 286,-38.5 170,-38.5"/>
<text text-anchor="middle" x="228" y="-45.5" font-family="Helvetica,sans-Serif" font-size="10.00">Aquaduino::writeConfig</text>
</a>
</g>
</g>
<!-- Node1&#45;&gt;Node2 -->
<g id="edge1" class="edge"><title>Node1&#45;&gt;Node2</title>
<path fill="none" stroke="midnightblue" d="M144.129,-48C152.757,-48 161.438,-48 169.765,-48"/>
<polygon fill="midnightblue" stroke="midnightblue" points="144.049,-44.5001 134.049,-48 144.049,-51.5001 144.049,-44.5001"/>
</g>
<!-- Node3 -->
<g id="node3" class="node"><title>Node3</title>
<g id="a_node3"><a xlink:href="dispatch_8cpp.html#a57a05a1aa70f5b076936a72ec80f9db3" target="_top" xlink:title="configCmd">
<polygon fill="white" stroke="black" points="322,-76.5 322,-95.5 384,-95.5 384,-76.5 322,-76.5"/>
<text text-anchor="middle" x="353" y="-83.5" font-family="Helvetica,sans-Serif" font-size="10.00">configCmd</text>
</a>
</g>
</g>
<!-- Node2&#45;&gt;Node3 -->
<g id="edge2" class="edge"><title>Node2&#45;&gt;Node3</title>
<path fill="none" stroke="midnightblue" d="M269.725,-60.5818C286.728,-65.8346 306.131,-71.8289 321.822,-76.6768"/>
<polygon fill="midnightblue" stroke="midnightblue" points="270.626,-57.1968 260.038,-57.589 268.559,-63.8849 270.626,-57.1968"/>
</g>
<!-- Node4 -->
<g id="node4" class="node"><title>Node4</title>
<g id="a_node4"><a xlink:href="dispatch_8cpp.html#a0c9bf0c5f9946202d30b8743843e361a" target="_top" xlink:title="controllerDispatchCommand">
<polygon fill="white" stroke="black" points="420.5,-38.5 420.5,-57.5 559.5,-57.5 559.5,-38.5 420.5,-38.5"/>
<text text-anchor="middle" x="490" y="-45.5" font-family="Helvetica,sans-Serif" font-size="10.00">controllerDispatchCommand</text>
</a>
</g>
</g>
<!-- Node2&#45;&gt;Node4 -->
<g id="edge6" class="edge"><title>Node2&#45;&gt;Node4</title>
<path fill="none" stroke="midnightblue" d="M296.511,-48C334.503,-48 381.838,-48 420.061,-48"/>
<polygon fill="midnightblue" stroke="midnightblue" points="296.058,-44.5001 286.058,-48 296.058,-51.5001 296.058,-44.5001"/>
</g>
<!-- Node7 -->
<g id="node7" class="node"><title>Node7</title>
<g id="a_node7"><a xlink:href="mainweb_8cpp.html#afd56fefe2a8598f61d016320f5250491" target="_top" xlink:title="defaultCmd">
<polygon fill="white" stroke="black" points="457.5,-0.5 457.5,-19.5 522.5,-19.5 522.5,-0.5 457.5,-0.5"/>
<text text-anchor="middle" x="490" y="-7.5" font-family="Helvetica,sans-Serif" font-size="10.00">defaultCmd</text>
</a>
</g>
</g>
<!-- Node2&#45;&gt;Node7 -->
<g id="edge7" class="edge"><title>Node2&#45;&gt;Node7</title>
<path fill="none" stroke="midnightblue" d="M296.186,-38.1805C348.068,-30.5977 417.521,-20.4469 457.346,-14.6263"/>
<polygon fill="midnightblue" stroke="midnightblue" points="295.447,-34.7513 286.058,-39.6607 296.459,-41.6777 295.447,-34.7513"/>
</g>
<!-- Node3&#45;&gt;Node4 -->
<g id="edge3" class="edge"><title>Node3&#45;&gt;Node4</title>
<path fill="none" stroke="midnightblue" d="M394.062,-74.7234C413.453,-69.2652 436.484,-62.7823 455.006,-57.5687"/>
<polygon fill="midnightblue" stroke="midnightblue" points="392.974,-71.3934 384.297,-77.4721 394.871,-78.1315 392.974,-71.3934"/>
</g>
<!-- Node5 -->
<g id="node5" class="node"><title>Node5</title>
<g id="a_node5"><a xlink:href="class_aquaduino.html#a6f21b3e1fe7fd8b1c13d1e78372abed6" target="_top" xlink:title="Aquaduino::setWebserver">
<polygon fill="white" stroke="black" points="596,-19.5 596,-38.5 724,-38.5 724,-19.5 596,-19.5"/>
<text text-anchor="middle" x="660" y="-26.5" font-family="Helvetica,sans-Serif" font-size="10.00">Aquaduino::setWebserver</text>
</a>
</g>
</g>
<!-- Node4&#45;&gt;Node5 -->
<g id="edge4" class="edge"><title>Node4&#45;&gt;Node5</title>
<path fill="none" stroke="midnightblue" d="M569.987,-39.0669C578.699,-38.0817 587.482,-37.0883 595.961,-36.1294"/>
<polygon fill="midnightblue" stroke="midnightblue" points="569.36,-35.6154 559.817,-40.2172 570.147,-42.5711 569.36,-35.6154"/>
</g>
<!-- Node6 -->
<g id="node6" class="node"><title>Node6</title>
<g id="a_node6"><a xlink:href="_aquaduino_8cpp.html#a4fc01d736fe50cf5b977f755b675f11d" target="_top" xlink:title="setup">
<polygon fill="white" stroke="black" points="760.5,-19.5 760.5,-38.5 801.5,-38.5 801.5,-19.5 760.5,-19.5"/>
<text text-anchor="middle" x="781" y="-26.5" font-family="Helvetica,sans-Serif" font-size="10.00">setup</text>
</a>
</g>
</g>
<!-- Node5&#45;&gt;Node6 -->
<g id="edge5" class="edge"><title>Node5&#45;&gt;Node6</title>
<path fill="none" stroke="midnightblue" d="M734.371,-29C743.872,-29 752.873,-29 760.331,-29"/>
<polygon fill="midnightblue" stroke="midnightblue" points="734.333,-25.5001 724.333,-29 734.333,-32.5001 734.333,-25.5001"/>
</g>
<!-- Node7&#45;&gt;Node5 -->
<g id="edge8" class="edge"><title>Node7&#45;&gt;Node5</title>
<path fill="none" stroke="midnightblue" d="M532.745,-14.7212C551.8,-16.8762 574.777,-19.4747 595.877,-21.8611"/>
<polygon fill="midnightblue" stroke="midnightblue" points="532.93,-11.2198 522.6,-13.5738 532.143,-18.1755 532.93,-11.2198"/>
</g>
</g>
</svg>
