<?xml version="1.0" encoding="UTF-8" standalone="no"?>
<!DOCTYPE svg PUBLIC "-//W3C//DTD SVG 1.1//EN"
 "http://www.w3.org/Graphics/SVG/1.1/DTD/svg11.dtd">
<!-- Generated by graphviz version 2.30.1 (20130214.1330)
 -->
<!-- Title: Object Pages: 1 -->
<!--zoomable 608 -->
<svg id="main" version="1.1" xmlns="http://www.w3.org/2000/svg" xmlns:xlink="http://www.w3.org/1999/xlink" xml:space="preserve" onload="init(evt)">
<style type="text/css"><![CDATA[
.edge:hover path { stroke: red; }
.edge:hover polygon { stroke: red; fill: red; }
]]></style>
<script type="text/javascript"><![CDATA[
var edges = document.getElementsByTagName('g');
if (edges && edges.length) {
  for (var i=0;i<edges.length;i++) {
    if (edges[i].id.substr(0,4)=='edge') {
      edges[i].setAttribute('class','edge');
    }
  }
}
]]></script>
        <defs>
                <circle id="rim" cx="0" cy="0" r="7"/>
                <circle id="rim2" cx="0" cy="0" r="3.5"/>
                <g id="zoomPlus">
                        <use xlink:href="#rim" fill="#404040">
                                <set attributeName="fill" to="#808080" begin="zoomplus.mouseover" end="zoomplus.mouseout"/>
                        </use>
                        <path d="M-4,0h8M0,-4v8" fill="none" stroke="white" stroke-width="1.5" pointer-events="none"/>
                </g>
                <g id="zoomMin">
                        <use xlink:href="#rim" fill="#404040">
                                <set attributeName="fill" to="#808080" begin="zoomminus.mouseover" end="zoomminus.mouseout"/>
                        </use>
                        <path d="M-4,0h8" fill="none" stroke="white" stroke-width="1.5" pointer-events="none"/>
                </g>
                <g id="dirArrow">
                        <path fill="none" stroke="white" stroke-width="1.5" d="M0,-3.0v7 M-2.5,-0.5L0,-3.0L2.5,-0.5"/>
                </g>
               <g id="resetDef">
                       <use xlink:href="#rim2" fill="#404040">
                               <set attributeName="fill" to="#808080" begin="reset.mouseover" end="reset.mouseout"/>
                       </use>
               </g>
        </defs>

<script type="text/javascript">
var viewWidth = 858;
var viewHeight = 608;
var sectionId = 'dynsection-0';
</script>
<script xlink:href="svgpan.js"/>
<svg id="graph" class="graph">
<g id="viewport">
<title>Object</title>
<polygon fill="white" stroke="white" points="-4,5 -4,-604 855,-604 855,5 -4,5"/>
<!-- Node1 -->
<g id="node1" class="node"><title>Node1</title>
<polygon fill="#bfbfbf" stroke="black" points="360.5,-443 360.5,-599 431.5,-599 431.5,-443 360.5,-443"/>
<text text-anchor="middle" x="396" y="-587" font-family="Helvetica,sans-Serif" font-size="10.00">Object</text>
<polyline fill="none" stroke="black" points="360.5,-580 431.5,-580 "/>
<text text-anchor="start" x="368.5" y="-568" font-family="Helvetica,sans-Serif" font-size="10.00"># m_Name</text>
<text text-anchor="start" x="368.5" y="-557" font-family="Helvetica,sans-Serif" font-size="10.00"># m_URL</text>
<text text-anchor="start" x="368.5" y="-546" font-family="Helvetica,sans-Serif" font-size="10.00"># m_Type</text>
<polyline fill="none" stroke="black" points="360.5,-539 431.5,-539 "/>
<text text-anchor="start" x="368.5" y="-527" font-family="Helvetica,sans-Serif" font-size="10.00">+ Object()</text>
<text text-anchor="start" x="368.5" y="-516" font-family="Helvetica,sans-Serif" font-size="10.00">+ Object()</text>
<text text-anchor="start" x="368.5" y="-505" font-family="Helvetica,sans-Serif" font-size="10.00">+ setName()</text>
<text text-anchor="start" x="368.5" y="-494" font-family="Helvetica,sans-Serif" font-size="10.00">+ getName()</text>
<text text-anchor="start" x="368.5" y="-483" font-family="Helvetica,sans-Serif" font-size="10.00">+ setURL()</text>
<text text-anchor="start" x="368.5" y="-472" font-family="Helvetica,sans-Serif" font-size="10.00">+ getURL()</text>
<text text-anchor="start" x="368.5" y="-461" font-family="Helvetica,sans-Serif" font-size="10.00">+ getType()</text>
<text text-anchor="start" x="368.5" y="-450" font-family="Helvetica,sans-Serif" font-size="10.00"># ~Object()</text>
</g>
<!-- Node2 -->
<g id="node2" class="node"><title>Node2</title>
<g id="a_node2"><a xlink:href="class_actuator.html" target="_top" xlink:title="{Actuator\n|# m_ControlledBy\l# m_locked\l|+ Actuator()\l+ setController()\l+ getController()\l+ lock()\l+ unlock()\l+ isLocked()\l+ on()\l+ off()\l+ isOn()\l+ supportsPWM()\l+ setPWM()\l+ getPWM()\l+ showWebinterface()\l# ~Actuator()\l}">
<polygon fill="white" stroke="black" points="128.5,-194.5 128.5,-405.5 239.5,-405.5 239.5,-194.5 128.5,-194.5"/>
<text text-anchor="middle" x="184" y="-393.5" font-family="Helvetica,sans-Serif" font-size="10.00">Actuator</text>
<polyline fill="none" stroke="black" points="128.5,-386.5 239.5,-386.5 "/>
<text text-anchor="start" x="136.5" y="-374.5" font-family="Helvetica,sans-Serif" font-size="10.00"># m_ControlledBy</text>
<text text-anchor="start" x="136.5" y="-363.5" font-family="Helvetica,sans-Serif" font-size="10.00"># m_locked</text>
<polyline fill="none" stroke="black" points="128.5,-356.5 239.5,-356.5 "/>
<text text-anchor="start" x="136.5" y="-344.5" font-family="Helvetica,sans-Serif" font-size="10.00">+ Actuator()</text>
<text text-anchor="start" x="136.5" y="-333.5" font-family="Helvetica,sans-Serif" font-size="10.00">+ setController()</text>
<text text-anchor="start" x="136.5" y="-322.5" font-family="Helvetica,sans-Serif" font-size="10.00">+ getController()</text>
<text text-anchor="start" x="136.5" y="-311.5" font-family="Helvetica,sans-Serif" font-size="10.00">+ lock()</text>
<text text-anchor="start" x="136.5" y="-300.5" font-family="Helvetica,sans-Serif" font-size="10.00">+ unlock()</text>
<text text-anchor="start" x="136.5" y="-289.5" font-family="Helvetica,sans-Serif" font-size="10.00">+ isLocked()</text>
<text text-anchor="start" x="136.5" y="-278.5" font-family="Helvetica,sans-Serif" font-size="10.00">+ on()</text>
<text text-anchor="start" x="136.5" y="-267.5" font-family="Helvetica,sans-Serif" font-size="10.00">+ off()</text>
<text text-anchor="start" x="136.5" y="-256.5" font-family="Helvetica,sans-Serif" font-size="10.00">+ isOn()</text>
<text text-anchor="start" x="136.5" y="-245.5" font-family="Helvetica,sans-Serif" font-size="10.00">+ supportsPWM()</text>
<text text-anchor="start" x="136.5" y="-234.5" font-family="Helvetica,sans-Serif" font-size="10.00">+ setPWM()</text>
<text text-anchor="start" x="136.5" y="-223.5" font-family="Helvetica,sans-Serif" font-size="10.00">+ getPWM()</text>
<text text-anchor="start" x="136.5" y="-212.5" font-family="Helvetica,sans-Serif" font-size="10.00">+ showWebinterface()</text>
<text text-anchor="start" x="136.5" y="-201.5" font-family="Helvetica,sans-Serif" font-size="10.00"># ~Actuator()</text>
</a>
</g>
</g>
<!-- Node1&#45;&gt;Node2 -->
<g id="edge1" class="edge"><title>Node1&#45;&gt;Node2</title>
<path fill="none" stroke="midnightblue" d="M352.852,-475.427C320.199,-441.696 275.091,-395.098 239.711,-358.551"/>
<polygon fill="none" stroke="midnightblue" points="350.567,-478.099 360.037,-482.85 355.596,-473.23 350.567,-478.099"/>
</g>
<!-- Node5 -->
<g id="node5" class="node"><title>Node5</title>
<g id="a_node5"><a xlink:href="class_aquaduino.html" target="_top" xlink:title="{Aquaduino\n||+ Aquaduino()\l+ setMAC()\l+ getMAC()\l+ getIP()\l+ setIP()\l+ getNetmask()\l+ setNetmask()\l+ getGateway()\l+ setGateway()\l+ getDNS()\land 45 more...\l}">
<polygon fill="white" stroke="black" points="296,-216.5 296,-383.5 380,-383.5 380,-216.5 296,-216.5"/>
<text text-anchor="middle" x="338" y="-371.5" font-family="Helvetica,sans-Serif" font-size="10.00">Aquaduino</text>
<polyline fill="none" stroke="black" points="296,-364.5 380,-364.5 "/>
<text text-anchor="middle" x="338" y="-352.5" font-family="Helvetica,sans-Serif" font-size="10.00"> </text>
<polyline fill="none" stroke="black" points="296,-345.5 380,-345.5 "/>
<text text-anchor="start" x="304" y="-333.5" font-family="Helvetica,sans-Serif" font-size="10.00">+ Aquaduino()</text>
<text text-anchor="start" x="304" y="-322.5" font-family="Helvetica,sans-Serif" font-size="10.00">+ setMAC()</text>
<text text-anchor="start" x="304" y="-311.5" font-family="Helvetica,sans-Serif" font-size="10.00">+ getMAC()</text>
<text text-anchor="start" x="304" y="-300.5" font-family="Helvetica,sans-Serif" font-size="10.00">+ getIP()</text>
<text text-anchor="start" x="304" y="-289.5" font-family="Helvetica,sans-Serif" font-size="10.00">+ setIP()</text>
<text text-anchor="start" x="304" y="-278.5" font-family="Helvetica,sans-Serif" font-size="10.00">+ getNetmask()</text>
<text text-anchor="start" x="304" y="-267.5" font-family="Helvetica,sans-Serif" font-size="10.00">+ setNetmask()</text>
<text text-anchor="start" x="304" y="-256.5" font-family="Helvetica,sans-Serif" font-size="10.00">+ getGateway()</text>
<text text-anchor="start" x="304" y="-245.5" font-family="Helvetica,sans-Serif" font-size="10.00">+ setGateway()</text>
<text text-anchor="start" x="304" y="-234.5" font-family="Helvetica,sans-Serif" font-size="10.00">+ getDNS()</text>
<text text-anchor="start" x="304" y="-223.5" font-family="Helvetica,sans-Serif" font-size="10.00">and 45 more...</text>
</a>
</g>
</g>
<!-- Node1&#45;&gt;Node5 -->
<g id="edge4" class="edge"><title>Node1&#45;&gt;Node5</title>
<path fill="none" stroke="midnightblue" d="M372.915,-432.833C368.637,-416.68 364.18,-399.851 359.937,-383.832"/>
<polygon fill="none" stroke="midnightblue" points="369.608,-434.018 375.551,-442.789 376.375,-432.226 369.608,-434.018"/>
</g>
<!-- Node6 -->
<g id="node6" class="node"><title>Node6</title>
<g id="a_node6"><a xlink:href="class_controller.html" target="_top" xlink:title="{Controller\n||+ Controller()\l+ run()\l+ showWebinterface()\l# ~Controller()\l# allMyActuators()\l}">
<polygon fill="white" stroke="black" points="398.5,-249.5 398.5,-350.5 509.5,-350.5 509.5,-249.5 398.5,-249.5"/>
<text text-anchor="middle" x="454" y="-338.5" font-family="Helvetica,sans-Serif" font-size="10.00">Controller</text>
<polyline fill="none" stroke="black" points="398.5,-331.5 509.5,-331.5 "/>
<text text-anchor="middle" x="454" y="-319.5" font-family="Helvetica,sans-Serif" font-size="10.00"> </text>
<polyline fill="none" stroke="black" points="398.5,-312.5 509.5,-312.5 "/>
<text text-anchor="start" x="406.5" y="-300.5" font-family="Helvetica,sans-Serif" font-size="10.00">+ Controller()</text>
<text text-anchor="start" x="406.5" y="-289.5" font-family="Helvetica,sans-Serif" font-size="10.00">+ run()</text>
<text text-anchor="start" x="406.5" y="-278.5" font-family="Helvetica,sans-Serif" font-size="10.00">+ showWebinterface()</text>
<text text-anchor="start" x="406.5" y="-267.5" font-family="Helvetica,sans-Serif" font-size="10.00"># ~Controller()</text>
<text text-anchor="start" x="406.5" y="-256.5" font-family="Helvetica,sans-Serif" font-size="10.00"># allMyActuators()</text>
</a>
</g>
</g>
<!-- Node1&#45;&gt;Node6 -->
<g id="edge5" class="edge"><title>Node1&#45;&gt;Node6</title>
<path fill="none" stroke="midnightblue" d="M419.048,-432.976C426.469,-404.954 434.434,-374.88 440.883,-350.529"/>
<polygon fill="none" stroke="midnightblue" points="415.625,-432.226 416.449,-442.789 422.392,-434.018 415.625,-432.226"/>
</g>
<!-- Node10 -->
<g id="node10" class="node"><title>Node10</title>
<g id="a_node10"><a xlink:href="class_sensor.html" target="_top" xlink:title="{Sensor\n||+ read()\l+ Sensor()\l# ~Sensor()\l}">
<polygon fill="white" stroke="black" points="685,-260.5 685,-339.5 753,-339.5 753,-260.5 685,-260.5"/>
<text text-anchor="middle" x="719" y="-327.5" font-family="Helvetica,sans-Serif" font-size="10.00">Sensor</text>
<polyline fill="none" stroke="black" points="685,-320.5 753,-320.5 "/>
<text text-anchor="middle" x="719" y="-308.5" font-family="Helvetica,sans-Serif" font-size="10.00"> </text>
<polyline fill="none" stroke="black" points="685,-301.5 753,-301.5 "/>
<text text-anchor="start" x="693" y="-289.5" font-family="Helvetica,sans-Serif" font-size="10.00">+ read()</text>
<text text-anchor="start" x="693" y="-278.5" font-family="Helvetica,sans-Serif" font-size="10.00">+ Sensor()</text>
<text text-anchor="start" x="693" y="-267.5" font-family="Helvetica,sans-Serif" font-size="10.00"># ~Sensor()</text>
</a>
</g>
</g>
<!-- Node1&#45;&gt;Node10 -->
<g id="edge9" class="edge"><title>Node1&#45;&gt;Node10</title>
<path fill="none" stroke="midnightblue" d="M440.245,-490.001C505.505,-445.753 626.175,-363.937 684.992,-324.058"/>
<polygon fill="none" stroke="midnightblue" points="438.113,-487.218 431.801,-495.726 442.042,-493.011 438.113,-487.218"/>
</g>
<!-- Node3 -->
<g id="node3" class="node"><title>Node3</title>
<g id="a_node3"><a xlink:href="class_digital_output.html" target="_top" xlink:title="{DigitalOutput\n||+ DigitalOutput()\l+ serialize()\l+ deserialize()\l+ on()\l+ off()\l+ isOn()\l+ supportsPWM()\l+ setPWM()\l+ getPWM()\l+ showWebinterface()\l}">
<polygon fill="white" stroke="black" points="-0.5,-1 -0.5,-157 110.5,-157 110.5,-1 -0.5,-1"/>
<text text-anchor="middle" x="55" y="-145" font-family="Helvetica,sans-Serif" font-size="10.00">DigitalOutput</text>
<polyline fill="none" stroke="black" points="-0.5,-138 110.5,-138 "/>
<text text-anchor="middle" x="55" y="-126" font-family="Helvetica,sans-Serif" font-size="10.00"> </text>
<polyline fill="none" stroke="black" points="-0.5,-119 110.5,-119 "/>
<text text-anchor="start" x="7.5" y="-107" font-family="Helvetica,sans-Serif" font-size="10.00">+ DigitalOutput()</text>
<text text-anchor="start" x="7.5" y="-96" font-family="Helvetica,sans-Serif" font-size="10.00">+ serialize()</text>
<text text-anchor="start" x="7.5" y="-85" font-family="Helvetica,sans-Serif" font-size="10.00">+ deserialize()</text>
<text text-anchor="start" x="7.5" y="-74" font-family="Helvetica,sans-Serif" font-size="10.00">+ on()</text>
<text text-anchor="start" x="7.5" y="-63" font-family="Helvetica,sans-Serif" font-size="10.00">+ off()</text>
<text text-anchor="start" x="7.5" y="-52" font-family="Helvetica,sans-Serif" font-size="10.00">+ isOn()</text>
<text text-anchor="start" x="7.5" y="-41" font-family="Helvetica,sans-Serif" font-size="10.00">+ supportsPWM()</text>
<text text-anchor="start" x="7.5" y="-30" font-family="Helvetica,sans-Serif" font-size="10.00">+ setPWM()</text>
<text text-anchor="start" x="7.5" y="-19" font-family="Helvetica,sans-Serif" font-size="10.00">+ getPWM()</text>
<text text-anchor="start" x="7.5" y="-8" font-family="Helvetica,sans-Serif" font-size="10.00">+ showWebinterface()</text>
</a>
</g>
</g>
<!-- Node2&#45;&gt;Node3 -->
<g id="edge2" class="edge"><title>Node2&#45;&gt;Node3</title>
<path fill="none" stroke="midnightblue" d="M123.08,-195.578C115.436,-182.6 107.724,-169.508 100.376,-157.034"/>
<polygon fill="none" stroke="midnightblue" points="120.265,-197.695 128.356,-204.535 126.297,-194.143 120.265,-197.695"/>
</g>
<!-- Node4 -->
<g id="node4" class="node"><title>Node4</title>
<g id="a_node4"><a xlink:href="class_p_w_m_output.html" target="_top" xlink:title="{PWMOutput\n||+ PWMOutput()\l+ serialize()\l+ deserialize()\l+ on()\l+ off()\l+ isOn()\l+ supportsPWM()\l+ setPWM()\l+ getPWM()\l+ showWebinterface()\l}">
<polygon fill="white" stroke="black" points="128.5,-1 128.5,-157 239.5,-157 239.5,-1 128.5,-1"/>
<text text-anchor="middle" x="184" y="-145" font-family="Helvetica,sans-Serif" font-size="10.00">PWMOutput</text>
<polyline fill="none" stroke="black" points="128.5,-138 239.5,-138 "/>
<text text-anchor="middle" x="184" y="-126" font-family="Helvetica,sans-Serif" font-size="10.00"> </text>
<polyline fill="none" stroke="black" points="128.5,-119 239.5,-119 "/>
<text text-anchor="start" x="136.5" y="-107" font-family="Helvetica,sans-Serif" font-size="10.00">+ PWMOutput()</text>
<text text-anchor="start" x="136.5" y="-96" font-family="Helvetica,sans-Serif" font-size="10.00">+ serialize()</text>
<text text-anchor="start" x="136.5" y="-85" font-family="Helvetica,sans-Serif" font-size="10.00">+ deserialize()</text>
<text text-anchor="start" x="136.5" y="-74" font-family="Helvetica,sans-Serif" font-size="10.00">+ on()</text>
<text text-anchor="start" x="136.5" y="-63" font-family="Helvetica,sans-Serif" font-size="10.00">+ off()</text>
<text text-anchor="start" x="136.5" y="-52" font-family="Helvetica,sans-Serif" font-size="10.00">+ isOn()</text>
<text text-anchor="start" x="136.5" y="-41" font-family="Helvetica,sans-Serif" font-size="10.00">+ supportsPWM()</text>
<text text-anchor="start" x="136.5" y="-30" font-family="Helvetica,sans-Serif" font-size="10.00">+ setPWM()</text>
<text text-anchor="start" x="136.5" y="-19" font-family="Helvetica,sans-Serif" font-size="10.00">+ getPWM()</text>
<text text-anchor="start" x="136.5" y="-8" font-family="Helvetica,sans-Serif" font-size="10.00">+ showWebinterface()</text>
</a>
</g>
</g>
<!-- Node2&#45;&gt;Node4 -->
<g id="edge3" class="edge"><title>Node2&#45;&gt;Node4</title>
<path fill="none" stroke="midnightblue" d="M184,-184.021C184,-174.915 184,-165.859 184,-157.107"/>
<polygon fill="none" stroke="midnightblue" points="180.5,-184.311 184,-194.311 187.5,-184.311 180.5,-184.311"/>
</g>
<!-- Node7 -->
<g id="node7" class="node"><title>Node7</title>
<g id="a_node7"><a xlink:href="class_clock_timer_controller.html" target="_top" xlink:title="{ClockTimerController\n||+ ClockTimerController()\l+ serialize()\l+ deserialize()\l+ run()\l+ showWebinterface()\l}">
<polygon fill="white" stroke="black" points="258,-28.5 258,-129.5 380,-129.5 380,-28.5 258,-28.5"/>
<text text-anchor="middle" x="319" y="-117.5" font-family="Helvetica,sans-Serif" font-size="10.00">ClockTimerController</text>
<polyline fill="none" stroke="black" points="258,-110.5 380,-110.5 "/>
<text text-anchor="middle" x="319" y="-98.5" font-family="Helvetica,sans-Serif" font-size="10.00"> </text>
<polyline fill="none" stroke="black" points="258,-91.5 380,-91.5 "/>
<text text-anchor="start" x="266" y="-79.5" font-family="Helvetica,sans-Serif" font-size="10.00">+ ClockTimerController()</text>
<text text-anchor="start" x="266" y="-68.5" font-family="Helvetica,sans-Serif" font-size="10.00">+ serialize()</text>
<text text-anchor="start" x="266" y="-57.5" font-family="Helvetica,sans-Serif" font-size="10.00">+ deserialize()</text>
<text text-anchor="start" x="266" y="-46.5" font-family="Helvetica,sans-Serif" font-size="10.00">+ run()</text>
<text text-anchor="start" x="266" y="-35.5" font-family="Helvetica,sans-Serif" font-size="10.00">+ showWebinterface()</text>
</a>
</g>
</g>
<!-- Node6&#45;&gt;Node7 -->
<g id="edge6" class="edge"><title>Node6&#45;&gt;Node7</title>
<path fill="none" stroke="midnightblue" d="M418.075,-240.722C396.777,-206.172 370.065,-162.839 349.746,-129.876"/>
<polygon fill="none" stroke="midnightblue" points="415.139,-242.63 423.366,-249.306 421.098,-238.956 415.139,-242.63"/>
</g>
<!-- Node8 -->
<g id="node8" class="node"><title>Node8</title>
<g id="a_node8"><a xlink:href="class_level_controller.html" target="_top" xlink:title="{LevelController\n||+ LevelController()\l+ serialize()\l+ deserialize()\l+ run()\l+ showWebinterface()\l}">
<polygon fill="white" stroke="black" points="398.5,-28.5 398.5,-129.5 509.5,-129.5 509.5,-28.5 398.5,-28.5"/>
<text text-anchor="middle" x="454" y="-117.5" font-family="Helvetica,sans-Serif" font-size="10.00">LevelController</text>
<polyline fill="none" stroke="black" points="398.5,-110.5 509.5,-110.5 "/>
<text text-anchor="middle" x="454" y="-98.5" font-family="Helvetica,sans-Serif" font-size="10.00"> </text>
<polyline fill="none" stroke="black" points="398.5,-91.5 509.5,-91.5 "/>
<text text-anchor="start" x="406.5" y="-79.5" font-family="Helvetica,sans-Serif" font-size="10.00">+ LevelController()</text>
<text text-anchor="start" x="406.5" y="-68.5" font-family="Helvetica,sans-Serif" font-size="10.00">+ serialize()</text>
<text text-anchor="start" x="406.5" y="-57.5" font-family="Helvetica,sans-Serif" font-size="10.00">+ deserialize()</text>
<text text-anchor="start" x="406.5" y="-46.5" font-family="Helvetica,sans-Serif" font-size="10.00">+ run()</text>
<text text-anchor="start" x="406.5" y="-35.5" font-family="Helvetica,sans-Serif" font-size="10.00">+ showWebinterface()</text>
</a>
</g>
</g>
<!-- Node6&#45;&gt;Node8 -->
<g id="edge7" class="edge"><title>Node6&#45;&gt;Node8</title>
<path fill="none" stroke="midnightblue" d="M454,-238.958C454,-204.706 454,-162.28 454,-129.876"/>
<polygon fill="none" stroke="midnightblue" points="450.5,-239.305 454,-249.306 457.5,-239.306 450.5,-239.305"/>
</g>
<!-- Node9 -->
<g id="node9" class="node"><title>Node9</title>
<g id="a_node9"><a xlink:href="class_temperature_controller.html" target="_top" xlink:title="{TemperatureController\n||+ TemperatureController()\l+ ~TemperatureController()\l+ serialize()\l+ deserialize()\l+ run()\l+ showWebinterface()\l}">
<polygon fill="white" stroke="black" points="527.5,-23 527.5,-135 660.5,-135 660.5,-23 527.5,-23"/>
<text text-anchor="middle" x="594" y="-123" font-family="Helvetica,sans-Serif" font-size="10.00">TemperatureController</text>
<polyline fill="none" stroke="black" points="527.5,-116 660.5,-116 "/>
<text text-anchor="middle" x="594" y="-104" font-family="Helvetica,sans-Serif" font-size="10.00"> </text>
<polyline fill="none" stroke="black" points="527.5,-97 660.5,-97 "/>
<text text-anchor="start" x="535.5" y="-85" font-family="Helvetica,sans-Serif" font-size="10.00">+ TemperatureController()</text>
<text text-anchor="start" x="535.5" y="-74" font-family="Helvetica,sans-Serif" font-size="10.00">+ ~TemperatureController()</text>
<text text-anchor="start" x="535.5" y="-63" font-family="Helvetica,sans-Serif" font-size="10.00">+ serialize()</text>
<text text-anchor="start" x="535.5" y="-52" font-family="Helvetica,sans-Serif" font-size="10.00">+ deserialize()</text>
<text text-anchor="start" x="535.5" y="-41" font-family="Helvetica,sans-Serif" font-size="10.00">+ run()</text>
<text text-anchor="start" x="535.5" y="-30" font-family="Helvetica,sans-Serif" font-size="10.00">+ showWebinterface()</text>
</a>
</g>
</g>
<!-- Node6&#45;&gt;Node9 -->
<g id="edge8" class="edge"><title>Node6&#45;&gt;Node9</title>
<path fill="none" stroke="midnightblue" d="M491.244,-240.739C512.148,-208.04 538.083,-167.47 558.668,-135.27"/>
<polygon fill="none" stroke="midnightblue" points="488.205,-238.995 485.768,-249.306 494.103,-242.765 488.205,-238.995"/>
</g>
<!-- Node11 -->
<g id="node11" class="node"><title>Node11</title>
<g id="a_node11"><a xlink:href="class_digital_input.html" target="_top" xlink:title="{DigitalInput\n||+ read()\l+ DigitalInput()\l}">
<polygon fill="white" stroke="black" points="679,-45 679,-113 759,-113 759,-45 679,-45"/>
<text text-anchor="middle" x="719" y="-101" font-family="Helvetica,sans-Serif" font-size="10.00">DigitalInput</text>
<polyline fill="none" stroke="black" points="679,-94 759,-94 "/>
<text text-anchor="middle" x="719" y="-82" font-family="Helvetica,sans-Serif" font-size="10.00"> </text>
<polyline fill="none" stroke="black" points="679,-75 759,-75 "/>
<text text-anchor="start" x="687" y="-63" font-family="Helvetica,sans-Serif" font-size="10.00">+ read()</text>
<text text-anchor="start" x="687" y="-52" font-family="Helvetica,sans-Serif" font-size="10.00">+ DigitalInput()</text>
</a>
</g>
</g>
<!-- Node10&#45;&gt;Node11 -->
<g id="edge10" class="edge"><title>Node10&#45;&gt;Node11</title>
<path fill="none" stroke="midnightblue" d="M719,-250.149C719,-208.476 719,-149.682 719,-113.25"/>
<polygon fill="none" stroke="midnightblue" points="715.5,-250.351 719,-260.351 722.5,-250.351 715.5,-250.351"/>
</g>
<!-- Node12 -->
<g id="node12" class="node"><title>Node12</title>
<g id="a_node12"><a xlink:href="class_d_s18_s20.html" target="_top" xlink:title="{DS18S20\n||+ DS18S20()\l+ read()\l}">
<polygon fill="white" stroke="black" points="777.5,-45 777.5,-113 850.5,-113 850.5,-45 777.5,-45"/>
<text text-anchor="middle" x="814" y="-101" font-family="Helvetica,sans-Serif" font-size="10.00">DS18S20</text>
<polyline fill="none" stroke="black" points="777.5,-94 850.5,-94 "/>
<text text-anchor="middle" x="814" y="-82" font-family="Helvetica,sans-Serif" font-size="10.00"> </text>
<polyline fill="none" stroke="black" points="777.5,-75 850.5,-75 "/>
<text text-anchor="start" x="785.5" y="-63" font-family="Helvetica,sans-Serif" font-size="10.00">+ DS18S20()</text>
<text text-anchor="start" x="785.5" y="-52" font-family="Helvetica,sans-Serif" font-size="10.00">+ read()</text>
</a>
</g>
</g>
<!-- Node10&#45;&gt;Node12 -->
<g id="edge11" class="edge"><title>Node10&#45;&gt;Node12</title>
<path fill="none" stroke="midnightblue" d="M739.847,-250.942C757.944,-209.224 783.672,-149.914 799.576,-113.25"/>
<polygon fill="none" stroke="midnightblue" points="736.534,-249.784 735.765,-260.351 742.956,-252.57 736.534,-249.784"/>
</g>
</g>
</svg>
        <g id="navigator" transform="translate(0 0)" fill="#404254">
                <rect fill="#f2f5e9" fill-opacity="0.5" stroke="#606060" stroke-width=".5" x="0" y="0" width="60" height="60"/>
                <use id="zoomplus" xlink:href="#zoomPlus" x="17" y="9" onmousedown="handleZoom(evt,'in')"/>
                <use id="zoomminus" xlink:href="#zoomMin" x="42" y="9" onmousedown="handleZoom(evt,'out')"/>
                <use id="reset" xlink:href="#resetDef" x="30" y="36" onmousedown="handleReset()"/>
                <g id="arrowUp" xlink:href="#dirArrow" transform="translate(30 24)" onmousedown="handlePan(0,-1)">
                  <use xlink:href="#rim" fill="#404040">
                        <set attributeName="fill" to="#808080" begin="arrowUp.mouseover" end="arrowUp.mouseout"/>
                  </use>
                  <path fill="none" stroke="white" stroke-width="1.5" d="M0,-3.0v7 M-2.5,-0.5L0,-3.0L2.5,-0.5"/>
                </g>
                <g id="arrowRight" xlink:href="#dirArrow" transform="rotate(90) translate(36 -43)" onmousedown="handlePan(1,0)">
                  <use xlink:href="#rim" fill="#404040">
                        <set attributeName="fill" to="#808080" begin="arrowRight.mouseover" end="arrowRight.mouseout"/>
                  </use>
                  <path fill="none" stroke="white" stroke-width="1.5" d="M0,-3.0v7 M-2.5,-0.5L0,-3.0L2.5,-0.5"/>
                </g>
                <g id="arrowDown" xlink:href="#dirArrow" transform="rotate(180) translate(-30 -48)" onmousedown="handlePan(0,1)">
                  <use xlink:href="#rim" fill="#404040">
                        <set attributeName="fill" to="#808080" begin="arrowDown.mouseover" end="arrowDown.mouseout"/>
                  </use>
                  <path fill="none" stroke="white" stroke-width="1.5" d="M0,-3.0v7 M-2.5,-0.5L0,-3.0L2.5,-0.5"/>
                </g>
                <g id="arrowLeft" xlink:href="#dirArrow" transform="rotate(270) translate(-36 17)" onmousedown="handlePan(-1,0)">
                  <use xlink:href="#rim" fill="#404040">
                        <set attributeName="fill" to="#808080" begin="arrowLeft.mouseover" end="arrowLeft.mouseout"/>
                  </use>
                  <path fill="none" stroke="white" stroke-width="1.5" d="M0,-3.0v7 M-2.5,-0.5L0,-3.0L2.5,-0.5"/>
                </g>
        </g>
        <svg viewBox="0 0 15 15" width="100%" height="30px" preserveAspectRatio="xMaxYMin meet">
         <g id="arrow_out" transform="scale(0.3 0.3)">
          <a xlink:href="class_object__inherit__graph_org.svg" target="_base">
           <rect id="button" ry="5" rx="5" y="6" x="6" height="38" width="38"
                fill="#f2f5e9" fill-opacity="0.5" stroke="#606060" stroke-width="1.0"/>
           <path id="arrow"
             d="M 11.500037,31.436501 C 11.940474,20.09759 22.043105,11.32322 32.158766,21.979434 L 37.068811,17.246167 C 37.068811,17.246167 37.088388,32 37.088388,32 L 22.160133,31.978069 C 22.160133,31.978069 26.997745,27.140456 26.997745,27.140456 C 18.528582,18.264221 13.291696,25.230495 11.500037,31.436501 z"
             style="fill:#404040;"/>
          </a>
         </g>
        </svg>
</svg>
