<?xml version="1.0" encoding="UTF-8" standalone="no"?>
<!DOCTYPE svg PUBLIC "-//W3C//DTD SVG 1.1//EN"
 "http://www.w3.org/Graphics/SVG/1.1/DTD/svg11.dtd">
<!-- Generated by graphviz version 2.30.1 (20130214.1330)
 -->
<!-- Title: Actuator::getController Pages: 1 -->
<!--zoomable 208 -->
<svg id="main" version="1.1" xmlns="http://www.w3.org/2000/svg" xmlns:xlink="http://www.w3.org/1999/xlink" xml:space="preserve" onload="init(evt)">
<style type="text/css"><![CDATA[
.edge:hover path { stroke: red; }
.edge:hover polygon { stroke: red; fill: red; }
]]></style>
<script type="text/javascript"><![CDATA[
var edges = document.getElementsByTagName('g');
if (edges && edges.length) {
  for (var i=0;i<edges.length;i++) {
    if (edges[i].id.substr(0,4)=='edge') {
      edges[i].setAttribute('class','edge');
    }
  }
}
]]></script>
        <defs>
                <circle id="rim" cx="0" cy="0" r="7"/>
                <circle id="rim2" cx="0" cy="0" r="3.5"/>
                <g id="zoomPlus">
                        <use xlink:href="#rim" fill="#404040">
                                <set attributeName="fill" to="#808080" begin="zoomplus.mouseover" end="zoomplus.mouseout"/>
                        </use>
                        <path d="M-4,0h8M0,-4v8" fill="none" stroke="white" stroke-width="1.5" pointer-events="none"/>
                </g>
                <g id="zoomMin">
                        <use xlink:href="#rim" fill="#404040">
                                <set attributeName="fill" to="#808080" begin="zoomminus.mouseover" end="zoomminus.mouseout"/>
                        </use>
                        <path d="M-4,0h8" fill="none" stroke="white" stroke-width="1.5" pointer-events="none"/>
                </g>
                <g id="dirArrow">
                        <path fill="none" stroke="white" stroke-width="1.5" d="M0,-3.0v7 M-2.5,-0.5L0,-3.0L2.5,-0.5"/>
                </g>
               <g id="resetDef">
                       <use xlink:href="#rim2" fill="#404040">
                               <set attributeName="fill" to="#808080" begin="reset.mouseover" end="reset.mouseout"/>
                       </use>
               </g>
        </defs>

<script type="text/javascript">
var viewWidth = 740;
var viewHeight = 208;
var sectionId = 'dynsection-3';
</script>
<script xlink:href="svgpan.js"/>
<svg id="graph" class="graph">
<g id="viewport">
<title>Actuator::getController</title>
<polygon fill="white" stroke="white" points="-4,5 -4,-203.636 737,-203.636 737,5 -4,5"/>
<!-- Node1 -->
<g id="node1" class="node"><title>Node1</title>
<polygon fill="#bfbfbf" stroke="black" points="0,-85.1364 0,-104.136 114,-104.136 114,-85.1364 0,-85.1364"/>
<text text-anchor="middle" x="57" y="-92.1364" font-family="Helvetica,sans-Serif" font-size="10.00">Actuator::getController</text>
</g>
<!-- Node2 -->
<g id="node2" class="node"><title>Node2</title>
<g id="a_node2"><a xlink:href="class_aquaduino.html#a088ba3bf2e3429f341e09d0c8f62ded4" target="_top" xlink:title="Aquaduino::getAssignedActuators">
<polygon fill="white" stroke="black" points="155,-180.136 155,-199.136 319,-199.136 319,-180.136 155,-180.136"/>
<text text-anchor="middle" x="237" y="-187.136" font-family="Helvetica,sans-Serif" font-size="10.00">Aquaduino::getAssignedActuators</text>
</a>
</g>
</g>
<!-- Node1&#45;&gt;Node2 -->
<g id="edge1" class="edge"><title>Node1&#45;&gt;Node2</title>
<path fill="none" stroke="midnightblue" d="M73.5774,-111.566C90.6405,-129.056 119.645,-155.825 150,-170.636 157.97,-174.525 166.744,-177.627 175.547,-180.1"/>
<polygon fill="midnightblue" stroke="midnightblue" points="76.0479,-109.085 66.6159,-104.259 70.9799,-113.914 76.0479,-109.085"/>
</g>
<!-- Node5 -->
<g id="node5" class="node"><title>Node5</title>
<g id="a_node5"><a xlink:href="class_aquaduino.html#aee9a7b8ca4ec2a13e7deaf5fea4e24c3" target="_top" xlink:title="Aquaduino::getAssignedActuatorIDs">
<polygon fill="white" stroke="black" points="150.5,-142.136 150.5,-161.136 323.5,-161.136 323.5,-142.136 150.5,-142.136"/>
<text text-anchor="middle" x="237" y="-149.136" font-family="Helvetica,sans-Serif" font-size="10.00">Aquaduino::getAssignedActuatorIDs</text>
</a>
</g>
</g>
<!-- Node1&#45;&gt;Node5 -->
<g id="edge4" class="edge"><title>Node1&#45;&gt;Node5</title>
<path fill="none" stroke="midnightblue" d="M87.7205,-108.461C105.505,-116.341 128.718,-125.946 150,-132.636 161.378,-136.213 173.806,-139.374 185.588,-142.041"/>
<polygon fill="midnightblue" stroke="midnightblue" points="89.0012,-105.199 78.4454,-104.29 86.1304,-111.583 89.0012,-105.199"/>
</g>
<!-- Node6 -->
<g id="node6" class="node"><title>Node6</title>
<g id="a_node6"><a xlink:href="class_clock_timer_controller.html#a7a429effb602dd413ed83bf005071e22" target="_top" xlink:title="ClockTimerController::run">
<polygon fill="white" stroke="black" points="174,-104.136 174,-123.136 300,-123.136 300,-104.136 174,-104.136"/>
<text text-anchor="middle" x="237" y="-111.136" font-family="Helvetica,sans-Serif" font-size="10.00">ClockTimerController::run</text>
</a>
</g>
</g>
<!-- Node1&#45;&gt;Node6 -->
<g id="edge5" class="edge"><title>Node1&#45;&gt;Node6</title>
<path fill="none" stroke="midnightblue" d="M124.271,-101.71C140.51,-103.444 157.832,-105.293 173.869,-107.004"/>
<polygon fill="midnightblue" stroke="midnightblue" points="124.635,-98.2294 114.32,-100.648 123.892,-105.19 124.635,-98.2294"/>
</g>
<!-- Node7 -->
<g id="node7" class="node"><title>Node7</title>
<g id="a_node7"><a xlink:href="class_s_d_config_manager.html#ac7a5874b228c4659eda6ea80e307578f" target="_top" xlink:title="SDConfigManager::writeConfig">
<polygon fill="white" stroke="black" points="163,-66.1364 163,-85.1364 311,-85.1364 311,-66.1364 163,-66.1364"/>
<text text-anchor="middle" x="237" y="-73.1364" font-family="Helvetica,sans-Serif" font-size="10.00">SDConfigManager::writeConfig</text>
</a>
</g>
</g>
<!-- Node1&#45;&gt;Node7 -->
<g id="edge6" class="edge"><title>Node1&#45;&gt;Node7</title>
<path fill="none" stroke="midnightblue" d="M124.607,-87.5267C137.056,-86.1979 150.13,-84.8023 162.766,-83.4535"/>
<polygon fill="midnightblue" stroke="midnightblue" points="123.892,-84.083 114.32,-88.6247 124.635,-91.0434 123.892,-84.083"/>
</g>
<!-- Node8 -->
<g id="node8" class="node"><title>Node8</title>
<g id="a_node8"><a xlink:href="mainweb_8cpp.html#adc3a282df65858d7820a8c90f7191472" target="_top" xlink:title="printActuatorTable">
<polygon fill="white" stroke="black" points="189.5,-28.1364 189.5,-47.1364 284.5,-47.1364 284.5,-28.1364 189.5,-28.1364"/>
<text text-anchor="middle" x="237" y="-35.1364" font-family="Helvetica,sans-Serif" font-size="10.00">printActuatorTable</text>
</a>
</g>
</g>
<!-- Node1&#45;&gt;Node8 -->
<g id="edge7" class="edge"><title>Node1&#45;&gt;Node8</title>
<path fill="none" stroke="midnightblue" d="M87.7205,-80.812C105.505,-72.9323 128.718,-63.3264 150,-56.6364 162.545,-52.693 176.366,-49.2548 189.191,-46.4275"/>
<polygon fill="midnightblue" stroke="midnightblue" points="86.1304,-77.6894 78.4454,-84.9826 89.0012,-84.0737 86.1304,-77.6894"/>
</g>
<!-- Node9 -->
<g id="node9" class="node"><title>Node9</title>
<g id="a_node9"><a xlink:href="mainweb_8cpp.html#afd56fefe2a8598f61d016320f5250491" target="_top" xlink:title="defaultCmd">
<polygon fill="white" stroke="black" points="392.5,-9.13639 392.5,-28.1364 457.5,-28.1364 457.5,-9.13639 392.5,-9.13639"/>
<text text-anchor="middle" x="425" y="-16.1364" font-family="Helvetica,sans-Serif" font-size="10.00">defaultCmd</text>
</a>
</g>
</g>
<!-- Node1&#45;&gt;Node9 -->
<g id="edge11" class="edge"><title>Node1&#45;&gt;Node9</title>
<path fill="none" stroke="midnightblue" d="M72.2274,-77.2528C88.691,-58.6492 117.71,-30.2487 150,-18.6364 233.259,11.3056 340.175,-2.26189 392.419,-11.9203"/>
<polygon fill="midnightblue" stroke="midnightblue" points="69.4259,-75.1434 65.5799,-85.0155 74.7428,-79.6965 69.4259,-75.1434"/>
</g>
<!-- Node3 -->
<g id="node3" class="node"><title>Node3</title>
<g id="a_node3"><a xlink:href="class_controller.html#ab276a8fd2df621098a9a24f5dfcc6bb2" target="_top" xlink:title="Controller::allMyActuators">
<polygon fill="white" stroke="black" points="360.5,-180.136 360.5,-199.136 489.5,-199.136 489.5,-180.136 360.5,-180.136"/>
<text text-anchor="middle" x="425" y="-187.136" font-family="Helvetica,sans-Serif" font-size="10.00">Controller::allMyActuators</text>
</a>
</g>
</g>
<!-- Node2&#45;&gt;Node3 -->
<g id="edge2" class="edge"><title>Node2&#45;&gt;Node3</title>
<path fill="none" stroke="midnightblue" d="M329.116,-189.636C339.652,-189.636 350.22,-189.636 360.28,-189.636"/>
<polygon fill="midnightblue" stroke="midnightblue" points="329.041,-186.136 319.041,-189.636 329.041,-193.136 329.041,-186.136"/>
</g>
<!-- Node4 -->
<g id="node4" class="node"><title>Node4</title>
<g id="a_node4"><a xlink:href="class_level_controller.html#acf5109c2a5b60a9923e4c7b6d4176f6c" target="_top" xlink:title="LevelController::run">
<polygon fill="white" stroke="black" points="540.5,-180.136 540.5,-199.136 639.5,-199.136 639.5,-180.136 540.5,-180.136"/>
<text text-anchor="middle" x="590" y="-187.136" font-family="Helvetica,sans-Serif" font-size="10.00">LevelController::run</text>
</a>
</g>
</g>
<!-- Node3&#45;&gt;Node4 -->
<g id="edge3" class="edge"><title>Node3&#45;&gt;Node4</title>
<path fill="none" stroke="midnightblue" d="M500.275,-189.636C513.874,-189.636 527.744,-189.636 540.353,-189.636"/>
<polygon fill="midnightblue" stroke="midnightblue" points="499.954,-186.136 489.954,-189.636 499.954,-193.136 499.954,-186.136"/>
</g>
<!-- Node8&#45;&gt;Node9 -->
<g id="edge8" class="edge"><title>Node8&#45;&gt;Node9</title>
<path fill="none" stroke="midnightblue" d="M295.056,-31.8081C327.023,-28.5427 365.687,-24.5931 392.29,-21.8756"/>
<polygon fill="midnightblue" stroke="midnightblue" points="294.528,-28.3437 284.936,-32.8419 295.24,-35.3075 294.528,-28.3437"/>
</g>
<!-- Node10 -->
<g id="node10" class="node"><title>Node10</title>
<g id="a_node10"><a xlink:href="class_aquaduino.html#a6f21b3e1fe7fd8b1c13d1e78372abed6" target="_top" xlink:title="Aquaduino::setWebserver">
<polygon fill="white" stroke="black" points="526,-9.13639 526,-28.1364 654,-28.1364 654,-9.13639 526,-9.13639"/>
<text text-anchor="middle" x="590" y="-16.1364" font-family="Helvetica,sans-Serif" font-size="10.00">Aquaduino::setWebserver</text>
</a>
</g>
</g>
<!-- Node9&#45;&gt;Node10 -->
<g id="edge9" class="edge"><title>Node9&#45;&gt;Node10</title>
<path fill="none" stroke="midnightblue" d="M468.294,-18.6364C485.852,-18.6364 506.597,-18.6364 525.892,-18.6364"/>
<polygon fill="midnightblue" stroke="midnightblue" points="467.815,-15.1365 457.815,-18.6364 467.815,-22.1365 467.815,-15.1365"/>
</g>
<!-- Node11 -->
<g id="node11" class="node"><title>Node11</title>
<g id="a_node11"><a xlink:href="_aquaduino_8cpp.html#a4fc01d736fe50cf5b977f755b675f11d" target="_top" xlink:title="setup">
<polygon fill="white" stroke="black" points="690.5,-9.13639 690.5,-28.1364 731.5,-28.1364 731.5,-9.13639 690.5,-9.13639"/>
<text text-anchor="middle" x="711" y="-16.1364" font-family="Helvetica,sans-Serif" font-size="10.00">setup</text>
</a>
</g>
</g>
<!-- Node10&#45;&gt;Node11 -->
<g id="edge10" class="edge"><title>Node10&#45;&gt;Node11</title>
<path fill="none" stroke="midnightblue" d="M664.371,-18.6364C673.872,-18.6364 682.873,-18.6364 690.331,-18.6364"/>
<polygon fill="midnightblue" stroke="midnightblue" points="664.333,-15.1365 654.333,-18.6364 664.333,-22.1365 664.333,-15.1365"/>
</g>
</g>
</svg>
        <g id="navigator" transform="translate(0 0)" fill="#404254">
                <rect fill="#f2f5e9" fill-opacity="0.5" stroke="#606060" stroke-width=".5" x="0" y="0" width="60" height="60"/>
                <use id="zoomplus" xlink:href="#zoomPlus" x="17" y="9" onmousedown="handleZoom(evt,'in')"/>
                <use id="zoomminus" xlink:href="#zoomMin" x="42" y="9" onmousedown="handleZoom(evt,'out')"/>
                <use id="reset" xlink:href="#resetDef" x="30" y="36" onmousedown="handleReset()"/>
                <g id="arrowUp" xlink:href="#dirArrow" transform="translate(30 24)" onmousedown="handlePan(0,-1)">
                  <use xlink:href="#rim" fill="#404040">
                        <set attributeName="fill" to="#808080" begin="arrowUp.mouseover" end="arrowUp.mouseout"/>
                  </use>
                  <path fill="none" stroke="white" stroke-width="1.5" d="M0,-3.0v7 M-2.5,-0.5L0,-3.0L2.5,-0.5"/>
                </g>
                <g id="arrowRight" xlink:href="#dirArrow" transform="rotate(90) translate(36 -43)" onmousedown="handlePan(1,0)">
                  <use xlink:href="#rim" fill="#404040">
                        <set attributeName="fill" to="#808080" begin="arrowRight.mouseover" end="arrowRight.mouseout"/>
                  </use>
                  <path fill="none" stroke="white" stroke-width="1.5" d="M0,-3.0v7 M-2.5,-0.5L0,-3.0L2.5,-0.5"/>
                </g>
                <g id="arrowDown" xlink:href="#dirArrow" transform="rotate(180) translate(-30 -48)" onmousedown="handlePan(0,1)">
                  <use xlink:href="#rim" fill="#404040">
                        <set attributeName="fill" to="#808080" begin="arrowDown.mouseover" end="arrowDown.mouseout"/>
                  </use>
                  <path fill="none" stroke="white" stroke-width="1.5" d="M0,-3.0v7 M-2.5,-0.5L0,-3.0L2.5,-0.5"/>
                </g>
                <g id="arrowLeft" xlink:href="#dirArrow" transform="rotate(270) translate(-36 17)" onmousedown="handlePan(-1,0)">
                  <use xlink:href="#rim" fill="#404040">
                        <set attributeName="fill" to="#808080" begin="arrowLeft.mouseover" end="arrowLeft.mouseout"/>
                  </use>
                  <path fill="none" stroke="white" stroke-width="1.5" d="M0,-3.0v7 M-2.5,-0.5L0,-3.0L2.5,-0.5"/>
                </g>
        </g>
        <svg viewBox="0 0 15 15" width="100%" height="30px" preserveAspectRatio="xMaxYMin meet">
         <g id="arrow_out" transform="scale(0.3 0.3)">
          <a xlink:href="class_actuator_aa12e6c3347af475a8b6ea1c8b38bd9e6_icgraph_org.svg" target="_base">
           <rect id="button" ry="5" rx="5" y="6" x="6" height="38" width="38"
                fill="#f2f5e9" fill-opacity="0.5" stroke="#606060" stroke-width="1.0"/>
           <path id="arrow"
             d="M 11.500037,31.436501 C 11.940474,20.09759 22.043105,11.32322 32.158766,21.979434 L 37.068811,17.246167 C 37.068811,17.246167 37.088388,32 37.088388,32 L 22.160133,31.978069 C 22.160133,31.978069 26.997745,27.140456 26.997745,27.140456 C 18.528582,18.264221 13.291696,25.230495 11.500037,31.436501 z"
             style="fill:#404040;"/>
          </a>
         </g>
        </svg>
</svg>
