<?xml version="1.0" encoding="UTF-8" standalone="no"?>
<!DOCTYPE svg PUBLIC "-//W3C//DTD SVG 1.1//EN"
 "http://www.w3.org/Graphics/SVG/1.1/DTD/svg11.dtd">
<!-- Generated by graphviz version 2.30.1 (20130214.1330)
 -->
<!-- Title: Aquaduino::resetActuatorIterator Pages: 1 -->
<svg width="686pt" height="118pt"
 viewBox="0.00 0.00 686.00 117.52" xmlns="http://www.w3.org/2000/svg" xmlns:xlink="http://www.w3.org/1999/xlink">
<g id="graph0" class="graph" transform="scale(1 1) rotate(0) translate(4 113.518)">
<title>Aquaduino::resetActuatorIterator</title>
<polygon fill="white" stroke="white" points="-4,5 -4,-113.518 683,-113.518 683,5 -4,5"/>
<!-- Node1 -->
<g id="node1" class="node"><title>Node1</title>
<polygon fill="#bfbfbf" stroke="black" points="0.5,-27.5176 0.5,-57.5176 127.5,-57.5176 127.5,-27.5176 0.5,-27.5176"/>
<text text-anchor="start" x="8.5" y="-45.5176" font-family="Helvetica,sans-Serif" font-size="10.00">Aquaduino::resetActuator</text>
<text text-anchor="middle" x="64" y="-34.5176" font-family="Helvetica,sans-Serif" font-size="10.00">Iterator</text>
</g>
<!-- Node2 -->
<g id="node2" class="node"><title>Node2</title>
<g id="a_node2"><a xlink:href="dispatch_8cpp.html#a57a05a1aa70f5b076936a72ec80f9db3" target="_top" xlink:title="configCmd">
<polygon fill="white" stroke="black" points="181,-90.0176 181,-109.018 243,-109.018 243,-90.0176 181,-90.0176"/>
<text text-anchor="middle" x="212" y="-97.0176" font-family="Helvetica,sans-Serif" font-size="10.00">configCmd</text>
</a>
</g>
</g>
<!-- Node1&#45;&gt;Node2 -->
<g id="edge1" class="edge"><title>Node1&#45;&gt;Node2</title>
<path fill="none" stroke="midnightblue" d="M113.232,-61.3479C137.698,-70.8995 166.374,-82.095 186.317,-89.881"/>
<polygon fill="midnightblue" stroke="midnightblue" points="114.33,-58.0194 103.742,-57.6429 111.784,-64.54 114.33,-58.0194"/>
</g>
<!-- Node3 -->
<g id="node3" class="node"><title>Node3</title>
<g id="a_node3"><a xlink:href="dispatch_8cpp.html#a0c9bf0c5f9946202d30b8743843e361a" target="_top" xlink:title="controllerDispatchCommand">
<polygon fill="white" stroke="black" points="296.5,-52.0176 296.5,-71.0176 435.5,-71.0176 435.5,-52.0176 296.5,-52.0176"/>
<text text-anchor="middle" x="366" y="-59.0176" font-family="Helvetica,sans-Serif" font-size="10.00">controllerDispatchCommand</text>
</a>
</g>
</g>
<!-- Node1&#45;&gt;Node3 -->
<g id="edge5" class="edge"><title>Node1&#45;&gt;Node3</title>
<path fill="none" stroke="midnightblue" d="M137.588,-47.1148C185.848,-50.1712 248.833,-54.1603 296.278,-57.1651"/>
<polygon fill="midnightblue" stroke="midnightblue" points="137.726,-43.6166 127.525,-46.4775 137.283,-50.6026 137.726,-43.6166"/>
</g>
<!-- Node6 -->
<g id="node6" class="node"><title>Node6</title>
<g id="a_node6"><a xlink:href="mainweb_8cpp.html#adc3a282df65858d7820a8c90f7191472" target="_top" xlink:title="printActuatorTable">
<polygon fill="white" stroke="black" points="164.5,-14.0176 164.5,-33.0176 259.5,-33.0176 259.5,-14.0176 164.5,-14.0176"/>
<text text-anchor="middle" x="212" y="-21.0176" font-family="Helvetica,sans-Serif" font-size="10.00">printActuatorTable</text>
</a>
</g>
</g>
<!-- Node1&#45;&gt;Node6 -->
<g id="edge6" class="edge"><title>Node1&#45;&gt;Node6</title>
<path fill="none" stroke="midnightblue" d="M137.84,-33.0383C146.791,-31.8735 155.745,-30.7082 164.165,-29.6126"/>
<polygon fill="midnightblue" stroke="midnightblue" points="137.229,-29.5883 127.764,-34.3496 138.133,-36.5297 137.229,-29.5883"/>
</g>
<!-- Node7 -->
<g id="node7" class="node"><title>Node7</title>
<g id="a_node7"><a xlink:href="mainweb_8cpp.html#afd56fefe2a8598f61d016320f5250491" target="_top" xlink:title="defaultCmd">
<polygon fill="white" stroke="black" points="333.5,-14.0176 333.5,-33.0176 398.5,-33.0176 398.5,-14.0176 333.5,-14.0176"/>
<text text-anchor="middle" x="366" y="-21.0176" font-family="Helvetica,sans-Serif" font-size="10.00">defaultCmd</text>
</a>
</g>
</g>
<!-- Node1&#45;&gt;Node7 -->
<g id="edge9" class="edge"><title>Node1&#45;&gt;Node7</title>
<path fill="none" stroke="midnightblue" d="M105.189,-23.2441C122.806,-15.8156 143.992,-8.22564 164,-4.51756 223.279,6.46846 293.636,-5.88489 333.426,-15.1746"/>
<polygon fill="midnightblue" stroke="midnightblue" points="103.573,-20.1302 95.7989,-27.3288 106.365,-26.5492 103.573,-20.1302"/>
</g>
<!-- Node2&#45;&gt;Node3 -->
<g id="edge2" class="edge"><title>Node2&#45;&gt;Node3</title>
<path fill="none" stroke="midnightblue" d="M252.784,-89.5715C275.688,-83.8455 304.32,-76.6876 326.929,-71.0353"/>
<polygon fill="midnightblue" stroke="midnightblue" points="251.883,-86.1891 243.03,-92.01 253.581,-92.9801 251.883,-86.1891"/>
</g>
<!-- Node4 -->
<g id="node4" class="node"><title>Node4</title>
<g id="a_node4"><a xlink:href="class_aquaduino.html#a6f21b3e1fe7fd8b1c13d1e78372abed6" target="_top" xlink:title="Aquaduino::setWebserver">
<polygon fill="white" stroke="black" points="472,-33.0176 472,-52.0176 600,-52.0176 600,-33.0176 472,-33.0176"/>
<text text-anchor="middle" x="536" y="-40.0176" font-family="Helvetica,sans-Serif" font-size="10.00">Aquaduino::setWebserver</text>
</a>
</g>
</g>
<!-- Node3&#45;&gt;Node4 -->
<g id="edge3" class="edge"><title>Node3&#45;&gt;Node4</title>
<path fill="none" stroke="midnightblue" d="M445.987,-52.5845C454.699,-51.5993 463.482,-50.6059 471.961,-49.6469"/>
<polygon fill="midnightblue" stroke="midnightblue" points="445.36,-49.133 435.817,-53.7347 446.147,-56.0887 445.36,-49.133"/>
</g>
<!-- Node5 -->
<g id="node5" class="node"><title>Node5</title>
<g id="a_node5"><a xlink:href="_aquaduino_8cpp.html#a4fc01d736fe50cf5b977f755b675f11d" target="_top" xlink:title="setup">
<polygon fill="white" stroke="black" points="636.5,-33.0176 636.5,-52.0176 677.5,-52.0176 677.5,-33.0176 636.5,-33.0176"/>
<text text-anchor="middle" x="657" y="-40.0176" font-family="Helvetica,sans-Serif" font-size="10.00">setup</text>
</a>
</g>
</g>
<!-- Node4&#45;&gt;Node5 -->
<g id="edge4" class="edge"><title>Node4&#45;&gt;Node5</title>
<path fill="none" stroke="midnightblue" d="M610.371,-42.5176C619.872,-42.5176 628.873,-42.5176 636.331,-42.5176"/>
<polygon fill="midnightblue" stroke="midnightblue" points="610.333,-39.0177 600.333,-42.5176 610.333,-46.0177 610.333,-39.0177"/>
</g>
<!-- Node6&#45;&gt;Node7 -->
<g id="edge7" class="edge"><title>Node6&#45;&gt;Node7</title>
<path fill="none" stroke="midnightblue" d="M269.873,-23.5176C291.387,-23.5176 315.089,-23.5176 333.452,-23.5176"/>
<polygon fill="midnightblue" stroke="midnightblue" points="269.845,-20.0177 259.845,-23.5176 269.845,-27.0177 269.845,-20.0177"/>
</g>
<!-- Node7&#45;&gt;Node4 -->
<g id="edge8" class="edge"><title>Node7&#45;&gt;Node4</title>
<path fill="none" stroke="midnightblue" d="M408.745,-28.2387C427.8,-30.3937 450.777,-32.9923 471.877,-35.3787"/>
<polygon fill="midnightblue" stroke="midnightblue" points="408.93,-24.7374 398.6,-27.0913 408.143,-31.693 408.93,-24.7374"/>
</g>
</g>
</svg>
