<?xml version="1.0" encoding="UTF-8" standalone="no"?>
<!DOCTYPE svg PUBLIC "-//W3C//DTD SVG 1.1//EN"
 "http://www.w3.org/Graphics/SVG/1.1/DTD/svg11.dtd">
<!-- Generated by graphviz version 2.30.1 (20130214.1330)
 -->
<!-- Title: Object::getURL Pages: 1 -->
<svg width="510pt" height="66pt"
 viewBox="0.00 0.00 510.00 66.00" xmlns="http://www.w3.org/2000/svg" xmlns:xlink="http://www.w3.org/1999/xlink">
<g id="graph0" class="graph" transform="scale(1 1) rotate(0) translate(4 62)">
<title>Object::getURL</title>
<polygon fill="white" stroke="white" points="-4,5 -4,-62 507,-62 507,5 -4,5"/>
<!-- Node1 -->
<g id="node1" class="node"><title>Node1</title>
<polygon fill="#bfbfbf" stroke="black" points="0.5,-19.5 0.5,-38.5 83.5,-38.5 83.5,-19.5 0.5,-19.5"/>
<text text-anchor="middle" x="42" y="-26.5" font-family="Helvetica,sans-Serif" font-size="10.00">Object::getURL</text>
</g>
<!-- Node2 -->
<g id="node2" class="node"><title>Node2</title>
<g id="a_node2"><a xlink:href="dispatch_8cpp.html#a0c9bf0c5f9946202d30b8743843e361a" target="_top" xlink:title="controllerDispatchCommand">
<polygon fill="white" stroke="black" points="120.5,-38.5 120.5,-57.5 259.5,-57.5 259.5,-38.5 120.5,-38.5"/>
<text text-anchor="middle" x="190" y="-45.5" font-family="Helvetica,sans-Serif" font-size="10.00">controllerDispatchCommand</text>
</a>
</g>
</g>
<!-- Node1&#45;&gt;Node2 -->
<g id="edge1" class="edge"><title>Node1&#45;&gt;Node2</title>
<path fill="none" stroke="midnightblue" d="M93.841,-35.6163C102.392,-36.7291 111.391,-37.9001 120.304,-39.06"/>
<polygon fill="midnightblue" stroke="midnightblue" points="94.0372,-32.1124 83.6691,-34.2926 93.1338,-39.0539 94.0372,-32.1124"/>
</g>
<!-- Node5 -->
<g id="node5" class="node"><title>Node5</title>
<g id="a_node5"><a xlink:href="mainweb_8cpp.html#afd56fefe2a8598f61d016320f5250491" target="_top" xlink:title="defaultCmd">
<polygon fill="white" stroke="black" points="157.5,-0.5 157.5,-19.5 222.5,-19.5 222.5,-0.5 157.5,-0.5"/>
<text text-anchor="middle" x="190" y="-7.5" font-family="Helvetica,sans-Serif" font-size="10.00">defaultCmd</text>
</a>
</g>
</g>
<!-- Node1&#45;&gt;Node5 -->
<g id="edge4" class="edge"><title>Node1&#45;&gt;Node5</title>
<path fill="none" stroke="midnightblue" d="M93.7846,-22.391C114.911,-19.6417 138.782,-16.5353 157.337,-14.1205"/>
<polygon fill="midnightblue" stroke="midnightblue" points="93.1338,-18.9461 83.6691,-23.7074 94.0372,-25.8876 93.1338,-18.9461"/>
</g>
<!-- Node3 -->
<g id="node3" class="node"><title>Node3</title>
<g id="a_node3"><a xlink:href="class_aquaduino.html#a6f21b3e1fe7fd8b1c13d1e78372abed6" target="_top" xlink:title="Aquaduino::setWebserver">
<polygon fill="white" stroke="black" points="296,-19.5 296,-38.5 424,-38.5 424,-19.5 296,-19.5"/>
<text text-anchor="middle" x="360" y="-26.5" font-family="Helvetica,sans-Serif" font-size="10.00">Aquaduino::setWebserver</text>
</a>
</g>
</g>
<!-- Node2&#45;&gt;Node3 -->
<g id="edge2" class="edge"><title>Node2&#45;&gt;Node3</title>
<path fill="none" stroke="midnightblue" d="M269.987,-39.0669C278.699,-38.0817 287.482,-37.0883 295.961,-36.1294"/>
<polygon fill="midnightblue" stroke="midnightblue" points="269.36,-35.6154 259.817,-40.2172 270.147,-42.5711 269.36,-35.6154"/>
</g>
<!-- Node4 -->
<g id="node4" class="node"><title>Node4</title>
<g id="a_node4"><a xlink:href="_aquaduino_8cpp.html#a4fc01d736fe50cf5b977f755b675f11d" target="_top" xlink:title="setup">
<polygon fill="white" stroke="black" points="460.5,-19.5 460.5,-38.5 501.5,-38.5 501.5,-19.5 460.5,-19.5"/>
<text text-anchor="middle" x="481" y="-26.5" font-family="Helvetica,sans-Serif" font-size="10.00">setup</text>
</a>
</g>
</g>
<!-- Node3&#45;&gt;Node4 -->
<g id="edge3" class="edge"><title>Node3&#45;&gt;Node4</title>
<path fill="none" stroke="midnightblue" d="M434.371,-29C443.872,-29 452.873,-29 460.331,-29"/>
<polygon fill="midnightblue" stroke="midnightblue" points="434.333,-25.5001 424.333,-29 434.333,-32.5001 434.333,-25.5001"/>
</g>
<!-- Node5&#45;&gt;Node3 -->
<g id="edge5" class="edge"><title>Node5&#45;&gt;Node3</title>
<path fill="none" stroke="midnightblue" d="M232.745,-14.7212C251.8,-16.8762 274.777,-19.4747 295.877,-21.8611"/>
<polygon fill="midnightblue" stroke="midnightblue" points="232.93,-11.2198 222.6,-13.5738 232.143,-18.1755 232.93,-11.2198"/>
</g>
</g>
</svg>
