<?xml version="1.0" encoding="UTF-8" standalone="no"?>
<!DOCTYPE svg PUBLIC "-//W3C//DTD SVG 1.1//EN"
 "http://www.w3.org/Graphics/SVG/1.1/DTD/svg11.dtd">
<!-- Generated by graphviz version 2.30.1 (20130214.1330)
 -->
<!-- Title: Object::setName Pages: 1 -->
<svg width="522pt" height="180pt"
 viewBox="0.00 0.00 522.00 180.00" xmlns="http://www.w3.org/2000/svg" xmlns:xlink="http://www.w3.org/1999/xlink">
<g id="graph0" class="graph" transform="scale(1 1) rotate(0) translate(4 176)">
<title>Object::setName</title>
<polygon fill="white" stroke="white" points="-4,5 -4,-176 519,-176 519,5 -4,5"/>
<!-- Node1 -->
<g id="node1" class="node"><title>Node1</title>
<polygon fill="#bfbfbf" stroke="black" points="0,-76.5 0,-95.5 90,-95.5 90,-76.5 0,-76.5"/>
<text text-anchor="middle" x="45" y="-83.5" font-family="Helvetica,sans-Serif" font-size="10.00">Object::setName</text>
</g>
<!-- Node2 -->
<g id="node2" class="node"><title>Node2</title>
<g id="a_node2"><a xlink:href="class_actuator.html#afd0f5153231172af5891c1b05b64e691" target="_top" xlink:title="Actuator::Actuator">
<polygon fill="white" stroke="black" points="151,-152.5 151,-171.5 247,-171.5 247,-152.5 151,-152.5"/>
<text text-anchor="middle" x="199" y="-159.5" font-family="Helvetica,sans-Serif" font-size="10.00">Actuator::Actuator</text>
</a>
</g>
</g>
<!-- Node1&#45;&gt;Node2 -->
<g id="edge1" class="edge"><title>Node1&#45;&gt;Node2</title>
<path fill="none" stroke="midnightblue" d="M64.6082,-102.241C80.0887,-114.987 103.202,-132.308 126,-143 134.076,-146.788 143.029,-149.914 151.8,-152.46"/>
<polygon fill="midnightblue" stroke="midnightblue" points="66.7472,-99.4669 56.8437,-95.7023 62.238,-104.821 66.7472,-99.4669"/>
</g>
<!-- Node3 -->
<g id="node3" class="node"><title>Node3</title>
<g id="a_node3"><a xlink:href="class_controller.html#aecfb49c69609c51545acbdad4d2ac1a4" target="_top" xlink:title="Controller::Controller">
<polygon fill="white" stroke="black" points="146.5,-114.5 146.5,-133.5 251.5,-133.5 251.5,-114.5 146.5,-114.5"/>
<text text-anchor="middle" x="199" y="-121.5" font-family="Helvetica,sans-Serif" font-size="10.00">Controller::Controller</text>
</a>
</g>
</g>
<!-- Node1&#45;&gt;Node3 -->
<g id="edge2" class="edge"><title>Node1&#45;&gt;Node3</title>
<path fill="none" stroke="midnightblue" d="M94.16,-98.04C115.395,-103.349 139.995,-109.499 159.92,-114.48"/>
<polygon fill="midnightblue" stroke="midnightblue" points="94.9063,-94.6189 84.356,-95.589 93.2085,-101.41 94.9063,-94.6189"/>
</g>
<!-- Node4 -->
<g id="node4" class="node"><title>Node4</title>
<g id="a_node4"><a xlink:href="class_object.html#ac194108499cccd2a5ed218b2da57993f" target="_top" xlink:title="Object::Object">
<polygon fill="white" stroke="black" points="159,-76.5 159,-95.5 239,-95.5 239,-76.5 159,-76.5"/>
<text text-anchor="middle" x="199" y="-83.5" font-family="Helvetica,sans-Serif" font-size="10.00">Object::Object</text>
</a>
</g>
</g>
<!-- Node1&#45;&gt;Node4 -->
<g id="edge3" class="edge"><title>Node1&#45;&gt;Node4</title>
<path fill="none" stroke="midnightblue" d="M100.565,-86C119.89,-86 141.229,-86 158.998,-86"/>
<polygon fill="midnightblue" stroke="midnightblue" points="100.373,-82.5001 90.3733,-86 100.373,-89.5001 100.373,-82.5001"/>
</g>
<!-- Node5 -->
<g id="node5" class="node"><title>Node5</title>
<g id="a_node5"><a xlink:href="class_s_d_config_manager.html#a10a368240d6e6c04ccf4920885fc8d93" target="_top" xlink:title="SDConfigManager::readConfig">
<polygon fill="white" stroke="black" points="126,-38.5 126,-57.5 272,-57.5 272,-38.5 126,-38.5"/>
<text text-anchor="middle" x="199" y="-45.5" font-family="Helvetica,sans-Serif" font-size="10.00">SDConfigManager::readConfig</text>
</a>
</g>
</g>
<!-- Node1&#45;&gt;Node5 -->
<g id="edge4" class="edge"><title>Node1&#45;&gt;Node5</title>
<path fill="none" stroke="midnightblue" d="M94.16,-73.96C115.395,-68.6512 139.995,-62.5012 159.92,-57.5201"/>
<polygon fill="midnightblue" stroke="midnightblue" points="93.2085,-70.5901 84.356,-76.411 94.9063,-77.3811 93.2085,-70.5901"/>
</g>
<!-- Node6 -->
<g id="node6" class="node"><title>Node6</title>
<g id="a_node6"><a xlink:href="mainweb_8cpp.html#afd56fefe2a8598f61d016320f5250491" target="_top" xlink:title="defaultCmd">
<polygon fill="white" stroke="black" points="166.5,-0.5 166.5,-19.5 231.5,-19.5 231.5,-0.5 166.5,-0.5"/>
<text text-anchor="middle" x="199" y="-7.5" font-family="Helvetica,sans-Serif" font-size="10.00">defaultCmd</text>
</a>
</g>
</g>
<!-- Node1&#45;&gt;Node6 -->
<g id="edge5" class="edge"><title>Node1&#45;&gt;Node6</title>
<path fill="none" stroke="midnightblue" d="M64.6082,-69.7586C80.0887,-57.0129 103.202,-39.6922 126,-29 138.641,-23.0715 153.431,-18.7635 166.306,-15.764"/>
<polygon fill="midnightblue" stroke="midnightblue" points="62.238,-67.1789 56.8437,-76.2977 66.7472,-72.5331 62.238,-67.1789"/>
</g>
<!-- Node7 -->
<g id="node7" class="node"><title>Node7</title>
<g id="a_node7"><a xlink:href="class_aquaduino.html#a6f21b3e1fe7fd8b1c13d1e78372abed6" target="_top" xlink:title="Aquaduino::setWebserver">
<polygon fill="white" stroke="black" points="308,-0.5 308,-19.5 436,-19.5 436,-0.5 308,-0.5"/>
<text text-anchor="middle" x="372" y="-7.5" font-family="Helvetica,sans-Serif" font-size="10.00">Aquaduino::setWebserver</text>
</a>
</g>
</g>
<!-- Node6&#45;&gt;Node7 -->
<g id="edge6" class="edge"><title>Node6&#45;&gt;Node7</title>
<path fill="none" stroke="midnightblue" d="M242.005,-10C261.833,-10 285.916,-10 307.879,-10"/>
<polygon fill="midnightblue" stroke="midnightblue" points="241.763,-6.5001 231.763,-10 241.763,-13.5001 241.763,-6.5001"/>
</g>
<!-- Node8 -->
<g id="node8" class="node"><title>Node8</title>
<g id="a_node8"><a xlink:href="_aquaduino_8cpp.html#a4fc01d736fe50cf5b977f755b675f11d" target="_top" xlink:title="setup">
<polygon fill="white" stroke="black" points="472.5,-0.5 472.5,-19.5 513.5,-19.5 513.5,-0.5 472.5,-0.5"/>
<text text-anchor="middle" x="493" y="-7.5" font-family="Helvetica,sans-Serif" font-size="10.00">setup</text>
</a>
</g>
</g>
<!-- Node7&#45;&gt;Node8 -->
<g id="edge7" class="edge"><title>Node7&#45;&gt;Node8</title>
<path fill="none" stroke="midnightblue" d="M446.371,-10C455.872,-10 464.873,-10 472.331,-10"/>
<polygon fill="midnightblue" stroke="midnightblue" points="446.333,-6.5001 436.333,-10 446.333,-13.5001 446.333,-6.5001"/>
</g>
</g>
</svg>
