<?xml version="1.0" encoding="UTF-8" standalone="no"?>
<!DOCTYPE svg PUBLIC "-//W3C//DTD SVG 1.1//EN"
 "http://www.w3.org/Graphics/SVG/1.1/DTD/svg11.dtd">
<!-- Generated by graphviz version 2.30.1 (20130214.1330)
 -->
<!-- Title: ArrayList::getNext Pages: 1 -->
<svg width="898pt" height="274pt"
 viewBox="0.00 0.00 898.00 273.60" xmlns="http://www.w3.org/2000/svg" xmlns:xlink="http://www.w3.org/1999/xlink">
<g id="graph0" class="graph" transform="scale(1 1) rotate(0) translate(4 269.599)">
<title>ArrayList::getNext</title>
<polygon fill="white" stroke="white" points="-4,5 -4,-269.599 895,-269.599 895,5 -4,5"/>
<!-- Node1 -->
<g id="node1" class="node"><title>Node1</title>
<polygon fill="#bfbfbf" stroke="black" points="0.5,-76.5 0.5,-95.5 95.5,-95.5 95.5,-76.5 0.5,-76.5"/>
<text text-anchor="middle" x="48" y="-83.5" font-family="Helvetica,sans-Serif" font-size="10.00">ArrayList::getNext</text>
</g>
<!-- Node2 -->
<g id="node2" class="node"><title>Node2</title>
<g id="a_node2"><a xlink:href="class_aquaduino.html#ab2e484eadc69b75889abd55143195f07" target="_top" xlink:title="Aquaduino::getNextController">
<polygon fill="white" stroke="black" points="147.5,-114.5 147.5,-133.5 290.5,-133.5 290.5,-114.5 147.5,-114.5"/>
<text text-anchor="middle" x="219" y="-121.5" font-family="Helvetica,sans-Serif" font-size="10.00">Aquaduino::getNextController</text>
</a>
</g>
</g>
<!-- Node1&#45;&gt;Node2 -->
<g id="edge1" class="edge"><title>Node1&#45;&gt;Node2</title>
<path fill="none" stroke="midnightblue" d="M100.242,-97.7943C110.744,-100.193 121.726,-102.689 132,-105 145.874,-108.12 161.017,-111.481 174.676,-114.496"/>
<polygon fill="midnightblue" stroke="midnightblue" points="100.888,-94.3518 90.3597,-95.533 99.327,-101.175 100.888,-94.3518"/>
</g>
<!-- Node8 -->
<g id="node8" class="node"><title>Node8</title>
<g id="a_node8"><a xlink:href="class_aquaduino.html#ab0fcce5c8f5895244e6f92c8d775fae7" target="_top" xlink:title="Aquaduino::getNextActuator">
<polygon fill="white" stroke="black" points="149.5,-190.5 149.5,-209.5 288.5,-209.5 288.5,-190.5 149.5,-190.5"/>
<text text-anchor="middle" x="219" y="-197.5" font-family="Helvetica,sans-Serif" font-size="10.00">Aquaduino::getNextActuator</text>
</a>
</g>
</g>
<!-- Node1&#45;&gt;Node8 -->
<g id="edge9" class="edge"><title>Node1&#45;&gt;Node8</title>
<path fill="none" stroke="midnightblue" d="M71.2686,-101.439C87.9417,-112.964 111.337,-129.059 132,-143 156.946,-159.831 186.187,-179.119 203.343,-190.391"/>
<polygon fill="midnightblue" stroke="midnightblue" points="72.9723,-98.3621 62.7574,-95.5501 68.9891,-104.118 72.9723,-98.3621"/>
</g>
<!-- Node10 -->
<g id="node10" class="node"><title>Node10</title>
<g id="a_node10"><a xlink:href="class_aquaduino.html#a088ba3bf2e3429f341e09d0c8f62ded4" target="_top" xlink:title="Aquaduino::getAssignedActuators">
<polygon fill="white" stroke="black" points="137,-76.5 137,-95.5 301,-95.5 301,-76.5 137,-76.5"/>
<text text-anchor="middle" x="219" y="-83.5" font-family="Helvetica,sans-Serif" font-size="10.00">Aquaduino::getAssignedActuators</text>
</a>
</g>
</g>
<!-- Node1&#45;&gt;Node10 -->
<g id="edge15" class="edge"><title>Node1&#45;&gt;Node10</title>
<path fill="none" stroke="midnightblue" d="M105.791,-86C115.771,-86 126.331,-86 136.823,-86"/>
<polygon fill="midnightblue" stroke="midnightblue" points="105.627,-82.5001 95.6274,-86 105.627,-89.5001 105.627,-82.5001"/>
</g>
<!-- Node13 -->
<g id="node13" class="node"><title>Node13</title>
<g id="a_node13"><a xlink:href="class_aquaduino.html#aee9a7b8ca4ec2a13e7deaf5fea4e24c3" target="_top" xlink:title="Aquaduino::getAssignedActuatorIDs">
<polygon fill="white" stroke="black" points="132.5,-38.5 132.5,-57.5 305.5,-57.5 305.5,-38.5 132.5,-38.5"/>
<text text-anchor="middle" x="219" y="-45.5" font-family="Helvetica,sans-Serif" font-size="10.00">Aquaduino::getAssignedActuatorIDs</text>
</a>
</g>
</g>
<!-- Node1&#45;&gt;Node13 -->
<g id="edge18" class="edge"><title>Node1&#45;&gt;Node13</title>
<path fill="none" stroke="midnightblue" d="M100.242,-74.2057C110.744,-71.8066 121.726,-69.3107 132,-67 145.874,-63.8795 161.017,-60.5188 174.676,-57.5042"/>
<polygon fill="midnightblue" stroke="midnightblue" points="99.327,-70.8246 90.3597,-76.467 100.888,-77.6482 99.327,-70.8246"/>
</g>
<!-- Node14 -->
<g id="node14" class="node"><title>Node14</title>
<g id="a_node14"><a xlink:href="class_aquaduino.html#a72ddeb7acd4e678dbbf7835f6876fc3c" target="_top" xlink:title="Aquaduino::run">
<polygon fill="white" stroke="black" points="178,-0.5 178,-19.5 260,-19.5 260,-0.5 178,-0.5"/>
<text text-anchor="middle" x="219" y="-7.5" font-family="Helvetica,sans-Serif" font-size="10.00">Aquaduino::run</text>
</a>
</g>
</g>
<!-- Node1&#45;&gt;Node14 -->
<g id="edge19" class="edge"><title>Node1&#45;&gt;Node14</title>
<path fill="none" stroke="midnightblue" d="M68.0193,-69.7569C84.0736,-56.8622 108.189,-39.3379 132,-29 146.306,-22.7888 162.865,-18.5108 177.61,-15.6116"/>
<polygon fill="midnightblue" stroke="midnightblue" points="65.4811,-67.3129 59.9827,-76.3694 69.9287,-72.7184 65.4811,-67.3129"/>
</g>
<!-- Node3 -->
<g id="node3" class="node"><title>Node3</title>
<g id="a_node3"><a xlink:href="dispatch_8cpp.html#a0c9bf0c5f9946202d30b8743843e361a" target="_top" xlink:title="controllerDispatchCommand">
<polygon fill="white" stroke="black" points="508.5,-209.5 508.5,-228.5 647.5,-228.5 647.5,-209.5 508.5,-209.5"/>
<text text-anchor="middle" x="578" y="-216.5" font-family="Helvetica,sans-Serif" font-size="10.00">controllerDispatchCommand</text>
</a>
</g>
</g>
<!-- Node2&#45;&gt;Node3 -->
<g id="edge2" class="edge"><title>Node2&#45;&gt;Node3</title>
<path fill="none" stroke="midnightblue" d="M265.557,-136.123C337.47,-155.259 475.822,-192.076 541.159,-209.462"/>
<polygon fill="midnightblue" stroke="midnightblue" points="266.429,-132.733 255.865,-133.544 264.629,-139.498 266.429,-132.733"/>
</g>
<!-- Node6 -->
<g id="node6" class="node"><title>Node6</title>
<g id="a_node6"><a xlink:href="mainweb_8cpp.html#adc3a282df65858d7820a8c90f7191472" target="_top" xlink:title="printActuatorTable">
<polygon fill="white" stroke="black" points="359.5,-114.5 359.5,-133.5 454.5,-133.5 454.5,-114.5 359.5,-114.5"/>
<text text-anchor="middle" x="407" y="-121.5" font-family="Helvetica,sans-Serif" font-size="10.00">printActuatorTable</text>
</a>
</g>
</g>
<!-- Node2&#45;&gt;Node6 -->
<g id="edge5" class="edge"><title>Node2&#45;&gt;Node6</title>
<path fill="none" stroke="midnightblue" d="M300.669,-124C320.735,-124 341.58,-124 359.379,-124"/>
<polygon fill="midnightblue" stroke="midnightblue" points="300.584,-120.5 290.584,-124 300.584,-127.5 300.584,-120.5"/>
</g>
<!-- Node7 -->
<g id="node7" class="node"><title>Node7</title>
<g id="a_node7"><a xlink:href="mainweb_8cpp.html#afd56fefe2a8598f61d016320f5250491" target="_top" xlink:title="defaultCmd">
<polygon fill="white" stroke="black" points="545.5,-133.5 545.5,-152.5 610.5,-152.5 610.5,-133.5 545.5,-133.5"/>
<text text-anchor="middle" x="578" y="-140.5" font-family="Helvetica,sans-Serif" font-size="10.00">defaultCmd</text>
</a>
</g>
</g>
<!-- Node2&#45;&gt;Node7 -->
<g id="edge8" class="edge"><title>Node2&#45;&gt;Node7</title>
<path fill="none" stroke="midnightblue" d="M272.071,-112.592C323.289,-103.125 403.532,-92.9916 472,-105 502.743,-110.392 536.347,-124.032 557.054,-133.412"/>
<polygon fill="midnightblue" stroke="midnightblue" points="271.394,-109.158 262.227,-114.47 272.706,-116.034 271.394,-109.158"/>
</g>
<!-- Node4 -->
<g id="node4" class="node"><title>Node4</title>
<g id="a_node4"><a xlink:href="class_aquaduino.html#a6f21b3e1fe7fd8b1c13d1e78372abed6" target="_top" xlink:title="Aquaduino::setWebserver">
<polygon fill="white" stroke="black" points="684,-171.5 684,-190.5 812,-190.5 812,-171.5 684,-171.5"/>
<text text-anchor="middle" x="748" y="-178.5" font-family="Helvetica,sans-Serif" font-size="10.00">Aquaduino::setWebserver</text>
</a>
</g>
</g>
<!-- Node3&#45;&gt;Node4 -->
<g id="edge3" class="edge"><title>Node3&#45;&gt;Node4</title>
<path fill="none" stroke="midnightblue" d="M631.276,-207.176C654.961,-201.818 682.59,-195.569 704.911,-190.52"/>
<polygon fill="midnightblue" stroke="midnightblue" points="630.375,-203.791 621.393,-209.411 631.919,-210.619 630.375,-203.791"/>
</g>
<!-- Node5 -->
<g id="node5" class="node"><title>Node5</title>
<g id="a_node5"><a xlink:href="_aquaduino_8cpp.html#a4fc01d736fe50cf5b977f755b675f11d" target="_top" xlink:title="setup">
<polygon fill="white" stroke="black" points="848.5,-171.5 848.5,-190.5 889.5,-190.5 889.5,-171.5 848.5,-171.5"/>
<text text-anchor="middle" x="869" y="-178.5" font-family="Helvetica,sans-Serif" font-size="10.00">setup</text>
</a>
</g>
</g>
<!-- Node4&#45;&gt;Node5 -->
<g id="edge4" class="edge"><title>Node4&#45;&gt;Node5</title>
<path fill="none" stroke="midnightblue" d="M822.371,-181C831.872,-181 840.873,-181 848.331,-181"/>
<polygon fill="midnightblue" stroke="midnightblue" points="822.333,-177.5 812.333,-181 822.333,-184.5 822.333,-177.5"/>
</g>
<!-- Node6&#45;&gt;Node7 -->
<g id="edge6" class="edge"><title>Node6&#45;&gt;Node7</title>
<path fill="none" stroke="midnightblue" d="M464.716,-130.376C491.651,-133.405 522.823,-136.909 545.479,-139.456"/>
<polygon fill="midnightblue" stroke="midnightblue" points="464.956,-126.881 454.627,-129.242 464.174,-133.838 464.956,-126.881"/>
</g>
<!-- Node7&#45;&gt;Node4 -->
<g id="edge7" class="edge"><title>Node7&#45;&gt;Node4</title>
<path fill="none" stroke="midnightblue" d="M620.404,-152.365C646.065,-158.17 678.939,-165.605 704.756,-171.445"/>
<polygon fill="midnightblue" stroke="midnightblue" points="621.125,-148.94 610.6,-150.148 619.581,-155.768 621.125,-148.94"/>
</g>
<!-- Node9 -->
<g id="node9" class="node"><title>Node9</title>
<g id="a_node9"><a xlink:href="dispatch_8cpp.html#a57a05a1aa70f5b076936a72ec80f9db3" target="_top" xlink:title="configCmd">
<polygon fill="white" stroke="black" points="376,-228.5 376,-247.5 438,-247.5 438,-228.5 376,-228.5"/>
<text text-anchor="middle" x="407" y="-235.5" font-family="Helvetica,sans-Serif" font-size="10.00">configCmd</text>
</a>
</g>
</g>
<!-- Node8&#45;&gt;Node9 -->
<g id="edge10" class="edge"><title>Node8&#45;&gt;Node9</title>
<path fill="none" stroke="midnightblue" d="M276.832,-211.611C309.523,-218.29 349.277,-226.411 375.974,-231.866"/>
<polygon fill="midnightblue" stroke="midnightblue" points="277.434,-208.162 266.936,-209.589 276.033,-215.02 277.434,-208.162"/>
</g>
<!-- Node8&#45;&gt;Node3 -->
<g id="edge12" class="edge"><title>Node8&#45;&gt;Node3</title>
<path fill="none" stroke="midnightblue" d="M243.686,-214.903C267.484,-228.928 305.734,-248.946 342,-257 398.404,-269.526 415.091,-266.981 472,-257 502.743,-251.608 536.347,-237.968 557.054,-228.588"/>
<polygon fill="midnightblue" stroke="midnightblue" points="245.383,-211.839 235.011,-209.676 241.77,-217.835 245.383,-211.839"/>
</g>
<!-- Node8&#45;&gt;Node6 -->
<g id="edge13" class="edge"><title>Node8&#45;&gt;Node6</title>
<path fill="none" stroke="midnightblue" d="M252.97,-186.529C290.216,-171.309 349.896,-146.924 382.634,-133.547"/>
<polygon fill="midnightblue" stroke="midnightblue" points="251.49,-183.352 243.557,-190.375 254.138,-189.832 251.49,-183.352"/>
</g>
<!-- Node8&#45;&gt;Node7 -->
<g id="edge14" class="edge"><title>Node8&#45;&gt;Node7</title>
<path fill="none" stroke="midnightblue" d="M289.889,-188.841C367.179,-176.501 488.298,-157.162 545.313,-148.059"/>
<polygon fill="midnightblue" stroke="midnightblue" points="289.077,-185.427 279.754,-190.459 290.181,-192.339 289.077,-185.427"/>
</g>
<!-- Node9&#45;&gt;Node3 -->
<g id="edge11" class="edge"><title>Node9&#45;&gt;Node3</title>
<path fill="none" stroke="midnightblue" d="M448.346,-233.464C466.347,-231.44 488.067,-228.998 508.493,-226.702"/>
<polygon fill="midnightblue" stroke="midnightblue" points="447.76,-230.008 438.214,-234.603 448.542,-236.964 447.76,-230.008"/>
</g>
<!-- Node11 -->
<g id="node11" class="node"><title>Node11</title>
<g id="a_node11"><a xlink:href="class_controller.html#ab276a8fd2df621098a9a24f5dfcc6bb2" target="_top" xlink:title="Controller::allMyActuators">
<polygon fill="white" stroke="black" points="342.5,-38.5 342.5,-57.5 471.5,-57.5 471.5,-38.5 342.5,-38.5"/>
<text text-anchor="middle" x="407" y="-45.5" font-family="Helvetica,sans-Serif" font-size="10.00">Controller::allMyActuators</text>
</a>
</g>
</g>
<!-- Node10&#45;&gt;Node11 -->
<g id="edge16" class="edge"><title>Node10&#45;&gt;Node11</title>
<path fill="none" stroke="midnightblue" d="M276.825,-74.3905C303.279,-68.986 334.358,-62.6365 359.402,-57.5201"/>
<polygon fill="midnightblue" stroke="midnightblue" points="276.033,-70.9801 266.936,-76.411 277.434,-77.8384 276.033,-70.9801"/>
</g>
<!-- Node12 -->
<g id="node12" class="node"><title>Node12</title>
<g id="a_node12"><a xlink:href="class_level_controller.html#acf5109c2a5b60a9923e4c7b6d4176f6c" target="_top" xlink:title="LevelController::run">
<polygon fill="white" stroke="black" points="528.5,-38.5 528.5,-57.5 627.5,-57.5 627.5,-38.5 528.5,-38.5"/>
<text text-anchor="middle" x="578" y="-45.5" font-family="Helvetica,sans-Serif" font-size="10.00">LevelController::run</text>
</a>
</g>
</g>
<!-- Node11&#45;&gt;Node12 -->
<g id="edge17" class="edge"><title>Node11&#45;&gt;Node12</title>
<path fill="none" stroke="midnightblue" d="M482.085,-48C497.738,-48 513.874,-48 528.302,-48"/>
<polygon fill="midnightblue" stroke="midnightblue" points="481.892,-44.5001 471.892,-48 481.892,-51.5001 481.892,-44.5001"/>
</g>
<!-- Node15 -->
<g id="node15" class="node"><title>Node15</title>
<g id="a_node15"><a xlink:href="_aquaduino_8cpp.html#afe461d27b9c48d5921c00d521181f12f" target="_top" xlink:title="loop">
<polygon fill="white" stroke="black" points="389.5,-0.5 389.5,-19.5 424.5,-19.5 424.5,-0.5 389.5,-0.5"/>
<text text-anchor="middle" x="407" y="-7.5" font-family="Helvetica,sans-Serif" font-size="10.00">loop</text>
</a>
</g>
</g>
<!-- Node14&#45;&gt;Node15 -->
<g id="edge20" class="edge"><title>Node14&#45;&gt;Node15</title>
<path fill="none" stroke="midnightblue" d="M270.36,-10C309.898,-10 362.56,-10 389.135,-10"/>
<polygon fill="midnightblue" stroke="midnightblue" points="270.359,-6.5001 260.359,-10 270.359,-13.5001 270.359,-6.5001"/>
</g>
</g>
</svg>
