<?xml version="1.0" encoding="UTF-8" standalone="no"?>
<!DOCTYPE svg PUBLIC "-//W3C//DTD SVG 1.1//EN"
 "http://www.w3.org/Graphics/SVG/1.1/DTD/svg11.dtd">
<!-- Generated by graphviz version 2.30.1 (20130214.1330)
 -->
<!-- Title: Aquaduino::getActuatorID Pages: 1 -->
<svg width="320pt" height="66pt"
 viewBox="0.00 0.00 320.00 66.00" xmlns="http://www.w3.org/2000/svg" xmlns:xlink="http://www.w3.org/1999/xlink">
<g id="graph0" class="graph" transform="scale(1 1) rotate(0) translate(4 62)">
<title>Aquaduino::getActuatorID</title>
<polygon fill="white" stroke="white" points="-4,5 -4,-62 317,-62 317,5 -4,5"/>
<!-- Node1 -->
<g id="node1" class="node"><title>Node1</title>
<polygon fill="#bfbfbf" stroke="black" points="0,-19.5 0,-38.5 128,-38.5 128,-19.5 0,-19.5"/>
<text text-anchor="middle" x="64" y="-26.5" font-family="Helvetica,sans-Serif" font-size="10.00">Aquaduino::getActuatorID</text>
</g>
<!-- Node2 -->
<g id="node2" class="node"><title>Node2</title>
<g id="a_node2"><a xlink:href="class_s_d_config_manager.html#ac7a5874b228c4659eda6ea80e307578f" target="_top" xlink:title="SDConfigManager::writeConfig">
<polygon fill="white" stroke="black" points="164,-38.5 164,-57.5 312,-57.5 312,-38.5 164,-38.5"/>
<text text-anchor="middle" x="238" y="-45.5" font-family="Helvetica,sans-Serif" font-size="10.00">SDConfigManager::writeConfig</text>
</a>
</g>
</g>
<!-- Node1&#45;&gt;Node2 -->
<g id="edge1" class="edge"><title>Node1&#45;&gt;Node2</title>
<path fill="none" stroke="midnightblue" d="M138.258,-37.0925C146.697,-38.0247 155.304,-38.9754 163.743,-39.9076"/>
<polygon fill="midnightblue" stroke="midnightblue" points="138.394,-33.5862 128.07,-35.967 137.625,-40.5439 138.394,-33.5862"/>
</g>
<!-- Node3 -->
<g id="node3" class="node"><title>Node3</title>
<g id="a_node3"><a xlink:href="class_s_d_config_manager.html#a10a368240d6e6c04ccf4920885fc8d93" target="_top" xlink:title="SDConfigManager::readConfig">
<polygon fill="white" stroke="black" points="165,-0.5 165,-19.5 311,-19.5 311,-0.5 165,-0.5"/>
<text text-anchor="middle" x="238" y="-7.5" font-family="Helvetica,sans-Serif" font-size="10.00">SDConfigManager::readConfig</text>
</a>
</g>
</g>
<!-- Node1&#45;&gt;Node3 -->
<g id="edge2" class="edge"><title>Node1&#45;&gt;Node3</title>
<path fill="none" stroke="midnightblue" d="M138.024,-20.9334C146.93,-19.9496 156.026,-18.9448 164.919,-17.9624"/>
<polygon fill="midnightblue" stroke="midnightblue" points="137.625,-17.4561 128.07,-22.033 138.394,-24.4138 137.625,-17.4561"/>
</g>
</g>
</svg>
