<?xml version="1.0" encoding="UTF-8" standalone="no"?>
<!DOCTYPE svg PUBLIC "-//W3C//DTD SVG 1.1//EN"
 "http://www.w3.org/Graphics/SVG/1.1/DTD/svg11.dtd">
<!-- Generated by graphviz version 2.30.1 (20130214.1330)
 -->
<!-- Title: Aquaduino::enableNTP Pages: 1 -->
<svg width="356pt" height="28pt"
 viewBox="0.00 0.00 356.00 28.00" xmlns="http://www.w3.org/2000/svg" xmlns:xlink="http://www.w3.org/1999/xlink">
<g id="graph0" class="graph" transform="scale(1 1) rotate(0) translate(4 24)">
<title>Aquaduino::enableNTP</title>
<polygon fill="white" stroke="white" points="-4,5 -4,-24 353,-24 353,5 -4,5"/>
<!-- Node1 -->
<g id="node1" class="node"><title>Node1</title>
<polygon fill="#bfbfbf" stroke="black" points="0,-0.5 0,-19.5 116,-19.5 116,-0.5 0,-0.5"/>
<text text-anchor="middle" x="58" y="-7.5" font-family="Helvetica,sans-Serif" font-size="10.00">Aquaduino::enableNTP</text>
</g>
<!-- Node2 -->
<g id="node2" class="node"><title>Node2</title>
<g id="a_node2"><a xlink:href="_aquaduino_8cpp.html#a2898e3c748953d17a36dab59bda980dc" target="_top" xlink:title="NTPSync">
<polygon fill="white" stroke="black" points="152,-0.5 152,-19.5 210,-19.5 210,-0.5 152,-0.5"/>
<text text-anchor="middle" x="181" y="-7.5" font-family="Helvetica,sans-Serif" font-size="10.00">NTPSync</text>
</a>
</g>
</g>
<!-- Node1&#45;&gt;Node2 -->
<g id="edge1" class="edge"><title>Node1&#45;&gt;Node2</title>
<path fill="none" stroke="midnightblue" d="M116.311,-10C124.89,-10 133.555,-10 141.614,-10"/>
<polygon fill="midnightblue" stroke="midnightblue" points="141.799,-13.5001 151.799,-10 141.799,-6.5001 141.799,-13.5001"/>
</g>
<!-- Node3 -->
<g id="node3" class="node"><title>Node3</title>
<g id="a_node3"><a xlink:href="class_aquaduino.html#a3e007b2b50b6542ce7e906aec2ffda09" target="_top" xlink:title="Aquaduino::getNTP">
<polygon fill="white" stroke="black" points="246.5,-0.5 246.5,-19.5 347.5,-19.5 347.5,-0.5 246.5,-0.5"/>
<text text-anchor="middle" x="297" y="-7.5" font-family="Helvetica,sans-Serif" font-size="10.00">Aquaduino::getNTP</text>
</a>
</g>
</g>
<!-- Node2&#45;&gt;Node3 -->
<g id="edge2" class="edge"><title>Node2&#45;&gt;Node3</title>
<path fill="none" stroke="midnightblue" d="M210.18,-10C218.132,-10 227.1,-10 236.164,-10"/>
<polygon fill="midnightblue" stroke="midnightblue" points="236.389,-13.5001 246.389,-10 236.389,-6.5001 236.389,-13.5001"/>
</g>
</g>
</svg>
