<?xml version="1.0" encoding="UTF-8" standalone="no"?>
<!DOCTYPE svg PUBLIC "-//W3C//DTD SVG 1.1//EN"
 "http://www.w3.org/Graphics/SVG/1.1/DTD/svg11.dtd">
<!-- Generated by graphviz version 2.30.1 (20130214.1330)
 -->
<!-- Title: Aquaduino::readConfig Pages: 1 -->
<svg width="362pt" height="104pt"
 viewBox="0.00 0.00 362.00 104.00" xmlns="http://www.w3.org/2000/svg" xmlns:xlink="http://www.w3.org/1999/xlink">
<g id="graph0" class="graph" transform="scale(1 1) rotate(0) translate(4 100)">
<title>Aquaduino::readConfig</title>
<polygon fill="white" stroke="white" points="-4,5 -4,-100 359,-100 359,5 -4,5"/>
<!-- Node1 -->
<g id="node1" class="node"><title>Node1</title>
<polygon fill="#bfbfbf" stroke="black" points="0,-38.5 0,-57.5 114,-57.5 114,-38.5 0,-38.5"/>
<text text-anchor="middle" x="57" y="-45.5" font-family="Helvetica,sans-Serif" font-size="10.00">Aquaduino::readConfig</text>
</g>
<!-- Node2 -->
<g id="node2" class="node"><title>Node2</title>
<g id="a_node2"><a xlink:href="class_aquaduino.html#afc3c3509621a7830b1a79cf7ca8aae63" target="_top" xlink:title="Aquaduino::Aquaduino">
<polygon fill="white" stroke="black" points="156,-76.5 156,-95.5 270,-95.5 270,-76.5 156,-76.5"/>
<text text-anchor="middle" x="213" y="-83.5" font-family="Helvetica,sans-Serif" font-size="10.00">Aquaduino::Aquaduino</text>
</a>
</g>
</g>
<!-- Node1&#45;&gt;Node2 -->
<g id="edge1" class="edge"><title>Node1&#45;&gt;Node2</title>
<path fill="none" stroke="midnightblue" d="M106.794,-60.04C128.308,-65.3488 153.232,-71.4988 173.419,-76.4799"/>
<polygon fill="midnightblue" stroke="midnightblue" points="107.408,-56.5867 96.8607,-57.589 105.731,-63.3828 107.408,-56.5867"/>
</g>
<!-- Node3 -->
<g id="node3" class="node"><title>Node3</title>
<g id="a_node3"><a xlink:href="class_aquaduino.html#aa6fc15ac00f3216cbb31654b2e457e7e" target="_top" xlink:title="Aquaduino::addController">
<polygon fill="white" stroke="black" points="150.5,-38.5 150.5,-57.5 275.5,-57.5 275.5,-38.5 150.5,-38.5"/>
<text text-anchor="middle" x="213" y="-45.5" font-family="Helvetica,sans-Serif" font-size="10.00">Aquaduino::addController</text>
</a>
</g>
</g>
<!-- Node1&#45;&gt;Node3 -->
<g id="edge2" class="edge"><title>Node1&#45;&gt;Node3</title>
<path fill="none" stroke="midnightblue" d="M124.115,-48C132.801,-48 141.675,-48 150.283,-48"/>
<polygon fill="midnightblue" stroke="midnightblue" points="124.033,-44.5001 114.033,-48 124.033,-51.5001 124.033,-44.5001"/>
</g>
<!-- Node5 -->
<g id="node5" class="node"><title>Node5</title>
<g id="a_node5"><a xlink:href="class_aquaduino.html#a25e61694a18574fc00fdc14a8ef0d7ac" target="_top" xlink:title="Aquaduino::addActuator">
<polygon fill="white" stroke="black" points="152.5,-0.5 152.5,-19.5 273.5,-19.5 273.5,-0.5 152.5,-0.5"/>
<text text-anchor="middle" x="213" y="-7.5" font-family="Helvetica,sans-Serif" font-size="10.00">Aquaduino::addActuator</text>
</a>
</g>
</g>
<!-- Node1&#45;&gt;Node5 -->
<g id="edge4" class="edge"><title>Node1&#45;&gt;Node5</title>
<path fill="none" stroke="midnightblue" d="M106.794,-35.96C128.308,-30.6512 153.232,-24.5012 173.419,-19.5201"/>
<polygon fill="midnightblue" stroke="midnightblue" points="105.731,-32.6172 96.8607,-38.411 107.408,-39.4133 105.731,-32.6172"/>
</g>
<!-- Node4 -->
<g id="node4" class="node"><title>Node4</title>
<g id="a_node4"><a xlink:href="_aquaduino_8cpp.html#a4fc01d736fe50cf5b977f755b675f11d" target="_top" xlink:title="setup">
<polygon fill="white" stroke="black" points="312.5,-19.5 312.5,-38.5 353.5,-38.5 353.5,-19.5 312.5,-19.5"/>
<text text-anchor="middle" x="333" y="-26.5" font-family="Helvetica,sans-Serif" font-size="10.00">setup</text>
</a>
</g>
</g>
<!-- Node3&#45;&gt;Node4 -->
<g id="edge3" class="edge"><title>Node3&#45;&gt;Node4</title>
<path fill="none" stroke="midnightblue" d="M283.227,-36.8533C293.89,-35.1363 304.094,-33.4933 312.387,-32.158"/>
<polygon fill="midnightblue" stroke="midnightblue" points="282.662,-33.3991 273.346,-38.4443 283.775,-40.3101 282.662,-33.3991"/>
</g>
<!-- Node5&#45;&gt;Node4 -->
<g id="edge5" class="edge"><title>Node5&#45;&gt;Node4</title>
<path fill="none" stroke="midnightblue" d="M283.227,-21.1467C293.89,-22.8637 304.094,-24.5067 312.387,-25.842"/>
<polygon fill="midnightblue" stroke="midnightblue" points="283.775,-17.6899 273.346,-19.5557 282.662,-24.6009 283.775,-17.6899"/>
</g>
</g>
</svg>
