<?xml version="1.0" encoding="UTF-8" standalone="no"?>
<!DOCTYPE svg PUBLIC "-//W3C//DTD SVG 1.1//EN"
 "http://www.w3.org/Graphics/SVG/1.1/DTD/svg11.dtd">
<!-- Generated by graphviz version 2.30.1 (20130214.1330)
 -->
<!-- Title: Object::getType Pages: 1 -->
<svg width="278pt" height="66pt"
 viewBox="0.00 0.00 278.00 66.00" xmlns="http://www.w3.org/2000/svg" xmlns:xlink="http://www.w3.org/1999/xlink">
<g id="graph0" class="graph" transform="scale(1 1) rotate(0) translate(4 62)">
<title>Object::getType</title>
<polygon fill="white" stroke="white" points="-4,5 -4,-62 275,-62 275,5 -4,5"/>
<!-- Node1 -->
<g id="node1" class="node"><title>Node1</title>
<polygon fill="#bfbfbf" stroke="black" points="0,-19.5 0,-38.5 86,-38.5 86,-19.5 0,-19.5"/>
<text text-anchor="middle" x="43" y="-26.5" font-family="Helvetica,sans-Serif" font-size="10.00">Object::getType</text>
</g>
<!-- Node2 -->
<g id="node2" class="node"><title>Node2</title>
<g id="a_node2"><a xlink:href="class_s_d_config_manager.html#ac7a5874b228c4659eda6ea80e307578f" target="_top" xlink:title="SDConfigManager::writeConfig">
<polygon fill="white" stroke="black" points="122,-38.5 122,-57.5 270,-57.5 270,-38.5 122,-38.5"/>
<text text-anchor="middle" x="196" y="-45.5" font-family="Helvetica,sans-Serif" font-size="10.00">SDConfigManager::writeConfig</text>
</a>
</g>
</g>
<!-- Node1&#45;&gt;Node2 -->
<g id="edge1" class="edge"><title>Node1&#45;&gt;Node2</title>
<path fill="none" stroke="midnightblue" d="M96.0234,-35.546C104.39,-36.5987 113.183,-37.7051 121.933,-38.8061"/>
<polygon fill="midnightblue" stroke="midnightblue" points="96.4207,-32.0685 86.0619,-34.2926 95.5467,-39.0137 96.4207,-32.0685"/>
</g>
<!-- Node3 -->
<g id="node3" class="node"><title>Node3</title>
<g id="a_node3"><a xlink:href="class_s_d_config_manager.html#a1202df1cf91716fba4c51f9b27b7cc90" target="_top" xlink:title="SDConfigManager::readConfig">
<polygon fill="white" stroke="black" points="123,-0.5 123,-19.5 269,-19.5 269,-0.5 123,-0.5"/>
<text text-anchor="middle" x="196" y="-7.5" font-family="Helvetica,sans-Serif" font-size="10.00">SDConfigManager::readConfig</text>
</a>
</g>
</g>
<!-- Node1&#45;&gt;Node3 -->
<g id="edge2" class="edge"><title>Node1&#45;&gt;Node3</title>
<path fill="none" stroke="midnightblue" d="M96.2627,-22.4239C104.833,-21.3455 113.847,-20.2114 122.798,-19.085"/>
<polygon fill="midnightblue" stroke="midnightblue" points="95.5467,-18.9863 86.0619,-23.7074 96.4207,-25.9315 95.5467,-18.9863"/>
</g>
</g>
</svg>
