<?xml version="1.0" encoding="UTF-8" standalone="no"?>
<!DOCTYPE svg PUBLIC "-//W3C//DTD SVG 1.1//EN"
 "http://www.w3.org/Graphics/SVG/1.1/DTD/svg11.dtd">
<!-- Generated by graphviz version 2.30.1 (20130214.1330)
 -->
<!-- Title: Actuator::off Pages: 1 -->
<svg width="488pt" height="142pt"
 viewBox="0.00 0.00 488.00 142.00" xmlns="http://www.w3.org/2000/svg" xmlns:xlink="http://www.w3.org/1999/xlink">
<g id="graph0" class="graph" transform="scale(1 1) rotate(0) translate(4 138)">
<title>Actuator::off</title>
<polygon fill="white" stroke="white" points="-4,5 -4,-138 485,-138 485,5 -4,5"/>
<!-- Node1 -->
<g id="node1" class="node"><title>Node1</title>
<polygon fill="#bfbfbf" stroke="black" points="0.5,-57.5 0.5,-76.5 69.5,-76.5 69.5,-57.5 0.5,-57.5"/>
<text text-anchor="middle" x="35" y="-64.5" font-family="Helvetica,sans-Serif" font-size="10.00">Actuator::off</text>
</g>
<!-- Node2 -->
<g id="node2" class="node"><title>Node2</title>
<g id="a_node2"><a xlink:href="class_clock_timer_controller.html#a7a429effb602dd413ed83bf005071e22" target="_top" xlink:title="ClockTimerController::run">
<polygon fill="white" stroke="black" points="109,-114.5 109,-133.5 235,-133.5 235,-114.5 109,-114.5"/>
<text text-anchor="middle" x="172" y="-121.5" font-family="Helvetica,sans-Serif" font-size="10.00">ClockTimerController::run</text>
</a>
</g>
</g>
<!-- Node1&#45;&gt;Node2 -->
<g id="edge1" class="edge"><title>Node1&#45;&gt;Node2</title>
<path fill="none" stroke="midnightblue" d="M60.2784,-81.8438C73.4686,-89.4774 90.2594,-98.5138 106,-105 114.696,-108.583 124.305,-111.783 133.407,-114.488"/>
<polygon fill="midnightblue" stroke="midnightblue" points="61.7677,-78.6587 51.3768,-76.5899 58.2096,-84.687 61.7677,-78.6587"/>
</g>
<!-- Node3 -->
<g id="node3" class="node"><title>Node3</title>
<g id="a_node3"><a xlink:href="class_temperature_controller.html#a3609b19c2673e3ea33640e155d3949cc" target="_top" xlink:title="TemperatureController::run">
<polygon fill="white" stroke="black" points="106.5,-76.5 106.5,-95.5 237.5,-95.5 237.5,-76.5 106.5,-76.5"/>
<text text-anchor="middle" x="172" y="-83.5" font-family="Helvetica,sans-Serif" font-size="10.00">TemperatureController::run</text>
</a>
</g>
</g>
<!-- Node1&#45;&gt;Node3 -->
<g id="edge2" class="edge"><title>Node1&#45;&gt;Node3</title>
<path fill="none" stroke="midnightblue" d="M79.7759,-73.1611C88.292,-74.3596 97.3853,-75.6394 106.409,-76.9094"/>
<polygon fill="midnightblue" stroke="midnightblue" points="80.1082,-69.6734 69.718,-71.7455 79.1326,-76.6051 80.1082,-69.6734"/>
</g>
<!-- Node4 -->
<g id="node4" class="node"><title>Node4</title>
<g id="a_node4"><a xlink:href="class_controller.html#ab276a8fd2df621098a9a24f5dfcc6bb2" target="_top" xlink:title="Controller::allMyActuators">
<polygon fill="white" stroke="black" points="107.5,-38.5 107.5,-57.5 236.5,-57.5 236.5,-38.5 107.5,-38.5"/>
<text text-anchor="middle" x="172" y="-45.5" font-family="Helvetica,sans-Serif" font-size="10.00">Controller::allMyActuators</text>
</a>
</g>
</g>
<!-- Node1&#45;&gt;Node4 -->
<g id="edge3" class="edge"><title>Node1&#45;&gt;Node4</title>
<path fill="none" stroke="midnightblue" d="M79.7779,-60.8387C88.6284,-59.593 98.1024,-58.2597 107.474,-56.9407"/>
<polygon fill="midnightblue" stroke="midnightblue" points="79.1326,-57.3949 69.718,-62.2545 80.1082,-64.3266 79.1326,-57.3949"/>
</g>
<!-- Node6 -->
<g id="node6" class="node"><title>Node6</title>
<g id="a_node6"><a xlink:href="mainweb_8cpp.html#afd56fefe2a8598f61d016320f5250491" target="_top" xlink:title="defaultCmd">
<polygon fill="white" stroke="black" points="139.5,-0.5 139.5,-19.5 204.5,-19.5 204.5,-0.5 139.5,-0.5"/>
<text text-anchor="middle" x="172" y="-7.5" font-family="Helvetica,sans-Serif" font-size="10.00">defaultCmd</text>
</a>
</g>
</g>
<!-- Node1&#45;&gt;Node6 -->
<g id="edge5" class="edge"><title>Node1&#45;&gt;Node6</title>
<path fill="none" stroke="midnightblue" d="M60.2784,-52.1562C73.4686,-44.5226 90.2594,-35.4862 106,-29 116.653,-24.6103 128.675,-20.7971 139.457,-17.7624"/>
<polygon fill="midnightblue" stroke="midnightblue" points="58.2096,-49.313 51.3768,-57.4101 61.7677,-55.3413 58.2096,-49.313"/>
</g>
<!-- Node5 -->
<g id="node5" class="node"><title>Node5</title>
<g id="a_node5"><a xlink:href="class_level_controller.html#acf5109c2a5b60a9923e4c7b6d4176f6c" target="_top" xlink:title="LevelController::run">
<polygon fill="white" stroke="black" points="288.5,-38.5 288.5,-57.5 387.5,-57.5 387.5,-38.5 288.5,-38.5"/>
<text text-anchor="middle" x="338" y="-45.5" font-family="Helvetica,sans-Serif" font-size="10.00">LevelController::run</text>
</a>
</g>
</g>
<!-- Node4&#45;&gt;Node5 -->
<g id="edge4" class="edge"><title>Node4&#45;&gt;Node5</title>
<path fill="none" stroke="midnightblue" d="M246.992,-48C260.993,-48 275.308,-48 288.284,-48"/>
<polygon fill="midnightblue" stroke="midnightblue" points="246.876,-44.5001 236.876,-48 246.876,-51.5001 246.876,-44.5001"/>
</g>
<!-- Node7 -->
<g id="node7" class="node"><title>Node7</title>
<g id="a_node7"><a xlink:href="class_aquaduino.html#a6f21b3e1fe7fd8b1c13d1e78372abed6" target="_top" xlink:title="Aquaduino::setWebserver">
<polygon fill="white" stroke="black" points="274,-0.5 274,-19.5 402,-19.5 402,-0.5 274,-0.5"/>
<text text-anchor="middle" x="338" y="-7.5" font-family="Helvetica,sans-Serif" font-size="10.00">Aquaduino::setWebserver</text>
</a>
</g>
</g>
<!-- Node6&#45;&gt;Node7 -->
<g id="edge6" class="edge"><title>Node6&#45;&gt;Node7</title>
<path fill="none" stroke="midnightblue" d="M214.758,-10C232.71,-10 254.085,-10 273.901,-10"/>
<polygon fill="midnightblue" stroke="midnightblue" points="214.621,-6.5001 204.621,-10 214.621,-13.5001 214.621,-6.5001"/>
</g>
<!-- Node8 -->
<g id="node8" class="node"><title>Node8</title>
<g id="a_node8"><a xlink:href="_aquaduino_8cpp.html#a4fc01d736fe50cf5b977f755b675f11d" target="_top" xlink:title="setup">
<polygon fill="white" stroke="black" points="438.5,-0.5 438.5,-19.5 479.5,-19.5 479.5,-0.5 438.5,-0.5"/>
<text text-anchor="middle" x="459" y="-7.5" font-family="Helvetica,sans-Serif" font-size="10.00">setup</text>
</a>
</g>
</g>
<!-- Node7&#45;&gt;Node8 -->
<g id="edge7" class="edge"><title>Node7&#45;&gt;Node8</title>
<path fill="none" stroke="midnightblue" d="M412.371,-10C421.872,-10 430.873,-10 438.331,-10"/>
<polygon fill="midnightblue" stroke="midnightblue" points="412.333,-6.5001 402.333,-10 412.333,-13.5001 412.333,-6.5001"/>
</g>
</g>
</svg>
