<?xml version="1.0" encoding="UTF-8" standalone="no"?>
<!DOCTYPE svg PUBLIC "-//W3C//DTD SVG 1.1//EN"
 "http://www.w3.org/Graphics/SVG/1.1/DTD/svg11.dtd">
<!-- Generated by graphviz version 2.30.1 (20130214.1330)
 -->
<!-- Title: Aquaduino::getNextActuator Pages: 1 -->
<svg width="698pt" height="117pt"
 viewBox="0.00 0.00 698.00 117.16" xmlns="http://www.w3.org/2000/svg" xmlns:xlink="http://www.w3.org/1999/xlink">
<g id="graph0" class="graph" transform="scale(1 1) rotate(0) translate(4 113.162)">
<title>Aquaduino::getNextActuator</title>
<polygon fill="white" stroke="white" points="-4,5 -4,-113.162 695,-113.162 695,5 -4,5"/>
<!-- Node1 -->
<g id="node1" class="node"><title>Node1</title>
<polygon fill="#bfbfbf" stroke="black" points="0.5,-32.662 0.5,-51.662 139.5,-51.662 139.5,-32.662 0.5,-32.662"/>
<text text-anchor="middle" x="70" y="-39.662" font-family="Helvetica,sans-Serif" font-size="10.00">Aquaduino::getNextActuator</text>
</g>
<!-- Node2 -->
<g id="node2" class="node"><title>Node2</title>
<g id="a_node2"><a xlink:href="dispatch_8cpp.html#a57a05a1aa70f5b076936a72ec80f9db3" target="_top" xlink:title="configCmd">
<polygon fill="white" stroke="black" points="193,-89.662 193,-108.662 255,-108.662 255,-89.662 193,-89.662"/>
<text text-anchor="middle" x="224" y="-96.662" font-family="Helvetica,sans-Serif" font-size="10.00">configCmd</text>
</a>
</g>
</g>
<!-- Node1&#45;&gt;Node2 -->
<g id="edge1" class="edge"><title>Node1&#45;&gt;Node2</title>
<path fill="none" stroke="midnightblue" d="M105.841,-55.2275C133.781,-65.7048 172.347,-80.1671 197.476,-89.5904"/>
<polygon fill="midnightblue" stroke="midnightblue" points="107.034,-51.9367 96.4414,-51.7025 104.576,-58.491 107.034,-51.9367"/>
</g>
<!-- Node3 -->
<g id="node3" class="node"><title>Node3</title>
<g id="a_node3"><a xlink:href="dispatch_8cpp.html#a0c9bf0c5f9946202d30b8743843e361a" target="_top" xlink:title="controllerDispatchCommand">
<polygon fill="white" stroke="black" points="308.5,-51.662 308.5,-70.662 447.5,-70.662 447.5,-51.662 308.5,-51.662"/>
<text text-anchor="middle" x="378" y="-58.662" font-family="Helvetica,sans-Serif" font-size="10.00">controllerDispatchCommand</text>
</a>
</g>
</g>
<!-- Node1&#45;&gt;Node3 -->
<g id="edge5" class="edge"><title>Node1&#45;&gt;Node3</title>
<path fill="none" stroke="midnightblue" d="M149.918,-47.0622C198.933,-50.1056 261.318,-53.9792 308.293,-56.8959"/>
<polygon fill="midnightblue" stroke="midnightblue" points="149.87,-43.5525 139.672,-46.426 149.436,-50.5391 149.87,-43.5525"/>
</g>
<!-- Node6 -->
<g id="node6" class="node"><title>Node6</title>
<g id="a_node6"><a xlink:href="mainweb_8cpp.html#adc3a282df65858d7820a8c90f7191472" target="_top" xlink:title="printActuatorTable">
<polygon fill="white" stroke="black" points="176.5,-13.662 176.5,-32.662 271.5,-32.662 271.5,-13.662 176.5,-13.662"/>
<text text-anchor="middle" x="224" y="-20.662" font-family="Helvetica,sans-Serif" font-size="10.00">printActuatorTable</text>
</a>
</g>
</g>
<!-- Node1&#45;&gt;Node6 -->
<g id="edge6" class="edge"><title>Node1&#45;&gt;Node6</title>
<path fill="none" stroke="midnightblue" d="M149.966,-32.2913C158.898,-31.1748 167.775,-30.0652 176.103,-29.0242"/>
<polygon fill="midnightblue" stroke="midnightblue" points="149.373,-28.8381 139.884,-33.5515 150.241,-35.784 149.373,-28.8381"/>
</g>
<!-- Node7 -->
<g id="node7" class="node"><title>Node7</title>
<g id="a_node7"><a xlink:href="mainweb_8cpp.html#afd56fefe2a8598f61d016320f5250491" target="_top" xlink:title="defaultCmd">
<polygon fill="white" stroke="black" points="345.5,-13.662 345.5,-32.662 410.5,-32.662 410.5,-13.662 345.5,-13.662"/>
<text text-anchor="middle" x="378" y="-20.662" font-family="Helvetica,sans-Serif" font-size="10.00">defaultCmd</text>
</a>
</g>
</g>
<!-- Node1&#45;&gt;Node7 -->
<g id="edge9" class="edge"><title>Node1&#45;&gt;Node7</title>
<path fill="none" stroke="midnightblue" d="M100.122,-28.52C120.788,-19.6182 149.461,-8.81669 176,-4.16203 235.382,6.25276 305.704,-5.90423 345.459,-15.0036"/>
<polygon fill="midnightblue" stroke="midnightblue" points="98.6787,-25.3314 90.9464,-32.5744 101.508,-31.7342 98.6787,-25.3314"/>
</g>
<!-- Node2&#45;&gt;Node3 -->
<g id="edge2" class="edge"><title>Node2&#45;&gt;Node3</title>
<path fill="none" stroke="midnightblue" d="M264.784,-89.216C287.688,-83.49 316.32,-76.3321 338.929,-70.6798"/>
<polygon fill="midnightblue" stroke="midnightblue" points="263.883,-85.8335 255.03,-91.6544 265.581,-92.6245 263.883,-85.8335"/>
</g>
<!-- Node4 -->
<g id="node4" class="node"><title>Node4</title>
<g id="a_node4"><a xlink:href="class_aquaduino.html#a6f21b3e1fe7fd8b1c13d1e78372abed6" target="_top" xlink:title="Aquaduino::setWebserver">
<polygon fill="white" stroke="black" points="484,-32.662 484,-51.662 612,-51.662 612,-32.662 484,-32.662"/>
<text text-anchor="middle" x="548" y="-39.662" font-family="Helvetica,sans-Serif" font-size="10.00">Aquaduino::setWebserver</text>
</a>
</g>
</g>
<!-- Node3&#45;&gt;Node4 -->
<g id="edge3" class="edge"><title>Node3&#45;&gt;Node4</title>
<path fill="none" stroke="midnightblue" d="M457.987,-52.2289C466.699,-51.2437 475.482,-50.2503 483.961,-49.2914"/>
<polygon fill="midnightblue" stroke="midnightblue" points="457.36,-48.7775 447.817,-53.3792 458.147,-55.7331 457.36,-48.7775"/>
</g>
<!-- Node5 -->
<g id="node5" class="node"><title>Node5</title>
<g id="a_node5"><a xlink:href="_aquaduino_8cpp.html#a4fc01d736fe50cf5b977f755b675f11d" target="_top" xlink:title="setup">
<polygon fill="white" stroke="black" points="648.5,-32.662 648.5,-51.662 689.5,-51.662 689.5,-32.662 648.5,-32.662"/>
<text text-anchor="middle" x="669" y="-39.662" font-family="Helvetica,sans-Serif" font-size="10.00">setup</text>
</a>
</g>
</g>
<!-- Node4&#45;&gt;Node5 -->
<g id="edge4" class="edge"><title>Node4&#45;&gt;Node5</title>
<path fill="none" stroke="midnightblue" d="M622.371,-42.162C631.872,-42.162 640.873,-42.162 648.331,-42.162"/>
<polygon fill="midnightblue" stroke="midnightblue" points="622.333,-38.6621 612.333,-42.162 622.333,-45.6621 622.333,-38.6621"/>
</g>
<!-- Node6&#45;&gt;Node7 -->
<g id="edge7" class="edge"><title>Node6&#45;&gt;Node7</title>
<path fill="none" stroke="midnightblue" d="M281.873,-23.162C303.387,-23.162 327.089,-23.162 345.452,-23.162"/>
<polygon fill="midnightblue" stroke="midnightblue" points="281.845,-19.6621 271.845,-23.162 281.845,-26.6621 281.845,-19.6621"/>
</g>
<!-- Node7&#45;&gt;Node4 -->
<g id="edge8" class="edge"><title>Node7&#45;&gt;Node4</title>
<path fill="none" stroke="midnightblue" d="M420.745,-27.8832C439.8,-30.0382 462.777,-32.6368 483.877,-35.0231"/>
<polygon fill="midnightblue" stroke="midnightblue" points="420.93,-24.3818 410.6,-26.7358 420.143,-31.3375 420.93,-24.3818"/>
</g>
</g>
</svg>
