<?xml version="1.0" encoding="UTF-8" standalone="no"?>
<!DOCTYPE svg PUBLIC "-//W3C//DTD SVG 1.1//EN"
 "http://www.w3.org/Graphics/SVG/1.1/DTD/svg11.dtd">
<!-- Generated by graphviz version 2.30.1 (20130214.1330)
 -->
<!-- Title: DigitalInput Pages: 1 -->
<svg width="88pt" height="388pt"
 viewBox="0.00 0.00 88.00 388.00" xmlns="http://www.w3.org/2000/svg" xmlns:xlink="http://www.w3.org/1999/xlink">
<g id="graph0" class="graph" transform="scale(1 1) rotate(0) translate(4 384)">
<title>DigitalInput</title>
<polygon fill="white" stroke="white" points="-4,5 -4,-384 85,-384 85,5 -4,5"/>
<!-- Node1 -->
<g id="node1" class="node"><title>Node1</title>
<polygon fill="#bfbfbf" stroke="black" points="0,-1 0,-69 80,-69 80,-1 0,-1"/>
<text text-anchor="middle" x="40" y="-57" font-family="Helvetica,sans-Serif" font-size="10.00">DigitalInput</text>
<polyline fill="none" stroke="black" points="0,-50 80,-50 "/>
<text text-anchor="middle" x="40" y="-38" font-family="Helvetica,sans-Serif" font-size="10.00"> </text>
<polyline fill="none" stroke="black" points="0,-31 80,-31 "/>
<text text-anchor="start" x="8" y="-19" font-family="Helvetica,sans-Serif" font-size="10.00">+ read()</text>
<text text-anchor="start" x="8" y="-8" font-family="Helvetica,sans-Serif" font-size="10.00">+ DigitalInput()</text>
</g>
<!-- Node2 -->
<g id="node2" class="node"><title>Node2</title>
<g id="a_node2"><a xlink:href="class_sensor.html" target="_top" xlink:title="{Sensor\n||+ read()\l+ Sensor()\l# ~Sensor()\l}">
<polygon fill="white" stroke="black" points="6,-106.5 6,-185.5 74,-185.5 74,-106.5 6,-106.5"/>
<text text-anchor="middle" x="40" y="-173.5" font-family="Helvetica,sans-Serif" font-size="10.00">Sensor</text>
<polyline fill="none" stroke="black" points="6,-166.5 74,-166.5 "/>
<text text-anchor="middle" x="40" y="-154.5" font-family="Helvetica,sans-Serif" font-size="10.00"> </text>
<polyline fill="none" stroke="black" points="6,-147.5 74,-147.5 "/>
<text text-anchor="start" x="14" y="-135.5" font-family="Helvetica,sans-Serif" font-size="10.00">+ read()</text>
<text text-anchor="start" x="14" y="-124.5" font-family="Helvetica,sans-Serif" font-size="10.00">+ Sensor()</text>
<text text-anchor="start" x="14" y="-113.5" font-family="Helvetica,sans-Serif" font-size="10.00"># ~Sensor()</text>
</a>
</g>
</g>
<!-- Node2&#45;&gt;Node1 -->
<g id="edge1" class="edge"><title>Node2&#45;&gt;Node1</title>
<path fill="none" stroke="midnightblue" d="M40,-96.125C40,-87.0164 40,-77.6961 40,-69.1962"/>
<polygon fill="none" stroke="midnightblue" points="36.5001,-96.2637 40,-106.264 43.5001,-96.2638 36.5001,-96.2637"/>
</g>
<!-- Node3 -->
<g id="node3" class="node"><title>Node3</title>
<g id="a_node3"><a xlink:href="class_object.html" target="_top" xlink:title="{Object\n|# m_Name\l# m_URL\l# m_Type\l|+ Object()\l+ Object()\l+ setName()\l+ getName()\l+ setURL()\l+ getURL()\l+ getType()\l# ~Object()\l}">
<polygon fill="white" stroke="black" points="4.5,-223 4.5,-379 75.5,-379 75.5,-223 4.5,-223"/>
<text text-anchor="middle" x="40" y="-367" font-family="Helvetica,sans-Serif" font-size="10.00">Object</text>
<polyline fill="none" stroke="black" points="4.5,-360 75.5,-360 "/>
<text text-anchor="start" x="12.5" y="-348" font-family="Helvetica,sans-Serif" font-size="10.00"># m_Name</text>
<text text-anchor="start" x="12.5" y="-337" font-family="Helvetica,sans-Serif" font-size="10.00"># m_URL</text>
<text text-anchor="start" x="12.5" y="-326" font-family="Helvetica,sans-Serif" font-size="10.00"># m_Type</text>
<polyline fill="none" stroke="black" points="4.5,-319 75.5,-319 "/>
<text text-anchor="start" x="12.5" y="-307" font-family="Helvetica,sans-Serif" font-size="10.00">+ Object()</text>
<text text-anchor="start" x="12.5" y="-296" font-family="Helvetica,sans-Serif" font-size="10.00">+ Object()</text>
<text text-anchor="start" x="12.5" y="-285" font-family="Helvetica,sans-Serif" font-size="10.00">+ setName()</text>
<text text-anchor="start" x="12.5" y="-274" font-family="Helvetica,sans-Serif" font-size="10.00">+ getName()</text>
<text text-anchor="start" x="12.5" y="-263" font-family="Helvetica,sans-Serif" font-size="10.00">+ setURL()</text>
<text text-anchor="start" x="12.5" y="-252" font-family="Helvetica,sans-Serif" font-size="10.00">+ getURL()</text>
<text text-anchor="start" x="12.5" y="-241" font-family="Helvetica,sans-Serif" font-size="10.00">+ getType()</text>
<text text-anchor="start" x="12.5" y="-230" font-family="Helvetica,sans-Serif" font-size="10.00"># ~Object()</text>
</a>
</g>
</g>
<!-- Node3&#45;&gt;Node2 -->
<g id="edge2" class="edge"><title>Node3&#45;&gt;Node2</title>
<path fill="none" stroke="midnightblue" d="M40,-212.478C40,-203.202 40,-194.147 40,-185.874"/>
<polygon fill="none" stroke="midnightblue" points="36.5001,-212.603 40,-222.604 43.5001,-212.604 36.5001,-212.603"/>
</g>
</g>
</svg>
