<?xml version="1.0" encoding="UTF-8" standalone="no"?>
<!DOCTYPE svg PUBLIC "-//W3C//DTD SVG 1.1//EN"
 "http://www.w3.org/Graphics/SVG/1.1/DTD/svg11.dtd">
<!-- Generated by graphviz version 2.30.1 (20130214.1330)
 -->
<!-- Title: Sensor Pages: 1 -->
<svg width="179pt" height="388pt"
 viewBox="0.00 0.00 179.00 388.00" xmlns="http://www.w3.org/2000/svg" xmlns:xlink="http://www.w3.org/1999/xlink">
<g id="graph0" class="graph" transform="scale(1 1) rotate(0) translate(4 384)">
<title>Sensor</title>
<polygon fill="white" stroke="white" points="-4,5 -4,-384 176,-384 176,5 -4,5"/>
<!-- Node1 -->
<g id="node1" class="node"><title>Node1</title>
<polygon fill="#bfbfbf" stroke="black" points="53,-106.5 53,-185.5 121,-185.5 121,-106.5 53,-106.5"/>
<text text-anchor="middle" x="87" y="-173.5" font-family="Helvetica,sans-Serif" font-size="10.00">Sensor</text>
<polyline fill="none" stroke="black" points="53,-166.5 121,-166.5 "/>
<text text-anchor="middle" x="87" y="-154.5" font-family="Helvetica,sans-Serif" font-size="10.00"> </text>
<polyline fill="none" stroke="black" points="53,-147.5 121,-147.5 "/>
<text text-anchor="start" x="61" y="-135.5" font-family="Helvetica,sans-Serif" font-size="10.00">+ read()</text>
<text text-anchor="start" x="61" y="-124.5" font-family="Helvetica,sans-Serif" font-size="10.00">+ Sensor()</text>
<text text-anchor="start" x="61" y="-113.5" font-family="Helvetica,sans-Serif" font-size="10.00"># ~Sensor()</text>
</g>
<!-- Node3 -->
<g id="node3" class="node"><title>Node3</title>
<g id="a_node3"><a xlink:href="class_digital_input.html" target="_top" xlink:title="{DigitalInput\n||+ read()\l+ DigitalInput()\l}">
<polygon fill="white" stroke="black" points="0,-1 0,-69 80,-69 80,-1 0,-1"/>
<text text-anchor="middle" x="40" y="-57" font-family="Helvetica,sans-Serif" font-size="10.00">DigitalInput</text>
<polyline fill="none" stroke="black" points="0,-50 80,-50 "/>
<text text-anchor="middle" x="40" y="-38" font-family="Helvetica,sans-Serif" font-size="10.00"> </text>
<polyline fill="none" stroke="black" points="0,-31 80,-31 "/>
<text text-anchor="start" x="8" y="-19" font-family="Helvetica,sans-Serif" font-size="10.00">+ read()</text>
<text text-anchor="start" x="8" y="-8" font-family="Helvetica,sans-Serif" font-size="10.00">+ DigitalInput()</text>
</a>
</g>
</g>
<!-- Node1&#45;&gt;Node3 -->
<g id="edge2" class="edge"><title>Node1&#45;&gt;Node3</title>
<path fill="none" stroke="midnightblue" d="M66.3052,-97.0057C62.2576,-87.6186 58.0973,-77.9703 54.314,-69.1962"/>
<polygon fill="none" stroke="midnightblue" points="63.1237,-98.4669 70.2972,-106.264 69.5516,-95.6952 63.1237,-98.4669"/>
</g>
<!-- Node4 -->
<g id="node4" class="node"><title>Node4</title>
<g id="a_node4"><a xlink:href="class_d_s18_s20.html" target="_top" xlink:title="{DS18S20\n||+ DS18S20()\l+ read()\l}">
<polygon fill="white" stroke="black" points="98.5,-1 98.5,-69 171.5,-69 171.5,-1 98.5,-1"/>
<text text-anchor="middle" x="135" y="-57" font-family="Helvetica,sans-Serif" font-size="10.00">DS18S20</text>
<polyline fill="none" stroke="black" points="98.5,-50 171.5,-50 "/>
<text text-anchor="middle" x="135" y="-38" font-family="Helvetica,sans-Serif" font-size="10.00"> </text>
<polyline fill="none" stroke="black" points="98.5,-31 171.5,-31 "/>
<text text-anchor="start" x="106.5" y="-19" font-family="Helvetica,sans-Serif" font-size="10.00">+ DS18S20()</text>
<text text-anchor="start" x="106.5" y="-8" font-family="Helvetica,sans-Serif" font-size="10.00">+ read()</text>
</a>
</g>
</g>
<!-- Node1&#45;&gt;Node4 -->
<g id="edge3" class="edge"><title>Node1&#45;&gt;Node4</title>
<path fill="none" stroke="midnightblue" d="M108.135,-97.0057C112.269,-87.6186 116.518,-77.9703 120.381,-69.1962"/>
<polygon fill="none" stroke="midnightblue" points="104.885,-95.7013 104.058,-106.264 111.292,-98.5224 104.885,-95.7013"/>
</g>
<!-- Node2 -->
<g id="node2" class="node"><title>Node2</title>
<g id="a_node2"><a xlink:href="class_object.html" target="_top" xlink:title="{Object\n|# m_Name\l# m_URL\l# m_Type\l|+ Object()\l+ Object()\l+ setName()\l+ getName()\l+ setURL()\l+ getURL()\l+ getType()\l# ~Object()\l}">
<polygon fill="white" stroke="black" points="51.5,-223 51.5,-379 122.5,-379 122.5,-223 51.5,-223"/>
<text text-anchor="middle" x="87" y="-367" font-family="Helvetica,sans-Serif" font-size="10.00">Object</text>
<polyline fill="none" stroke="black" points="51.5,-360 122.5,-360 "/>
<text text-anchor="start" x="59.5" y="-348" font-family="Helvetica,sans-Serif" font-size="10.00"># m_Name</text>
<text text-anchor="start" x="59.5" y="-337" font-family="Helvetica,sans-Serif" font-size="10.00"># m_URL</text>
<text text-anchor="start" x="59.5" y="-326" font-family="Helvetica,sans-Serif" font-size="10.00"># m_Type</text>
<polyline fill="none" stroke="black" points="51.5,-319 122.5,-319 "/>
<text text-anchor="start" x="59.5" y="-307" font-family="Helvetica,sans-Serif" font-size="10.00">+ Object()</text>
<text text-anchor="start" x="59.5" y="-296" font-family="Helvetica,sans-Serif" font-size="10.00">+ Object()</text>
<text text-anchor="start" x="59.5" y="-285" font-family="Helvetica,sans-Serif" font-size="10.00">+ setName()</text>
<text text-anchor="start" x="59.5" y="-274" font-family="Helvetica,sans-Serif" font-size="10.00">+ getName()</text>
<text text-anchor="start" x="59.5" y="-263" font-family="Helvetica,sans-Serif" font-size="10.00">+ setURL()</text>
<text text-anchor="start" x="59.5" y="-252" font-family="Helvetica,sans-Serif" font-size="10.00">+ getURL()</text>
<text text-anchor="start" x="59.5" y="-241" font-family="Helvetica,sans-Serif" font-size="10.00">+ getType()</text>
<text text-anchor="start" x="59.5" y="-230" font-family="Helvetica,sans-Serif" font-size="10.00"># ~Object()</text>
</a>
</g>
</g>
<!-- Node2&#45;&gt;Node1 -->
<g id="edge1" class="edge"><title>Node2&#45;&gt;Node1</title>
<path fill="none" stroke="midnightblue" d="M87,-212.478C87,-203.202 87,-194.147 87,-185.874"/>
<polygon fill="none" stroke="midnightblue" points="83.5001,-212.603 87,-222.604 90.5001,-212.604 83.5001,-212.603"/>
</g>
</g>
</svg>
