<?xml version="1.0" encoding="UTF-8" standalone="no"?>
<!DOCTYPE svg PUBLIC "-//W3C//DTD SVG 1.1//EN"
 "http://www.w3.org/Graphics/SVG/1.1/DTD/svg11.dtd">
<!-- Generated by graphviz version 2.30.1 (20130214.1330)
 -->
<!-- Title: Actuator::setController Pages: 1 -->
<svg width="546pt" height="66pt"
 viewBox="0.00 0.00 546.00 66.00" xmlns="http://www.w3.org/2000/svg" xmlns:xlink="http://www.w3.org/1999/xlink">
<g id="graph0" class="graph" transform="scale(1 1) rotate(0) translate(4 62)">
<title>Actuator::setController</title>
<polygon fill="white" stroke="white" points="-4,5 -4,-62 543,-62 543,5 -4,5"/>
<!-- Node1 -->
<g id="node1" class="node"><title>Node1</title>
<polygon fill="#bfbfbf" stroke="black" points="0,-19.5 0,-38.5 114,-38.5 114,-19.5 0,-19.5"/>
<text text-anchor="middle" x="57" y="-26.5" font-family="Helvetica,sans-Serif" font-size="10.00">Actuator::setController</text>
</g>
<!-- Node2 -->
<g id="node2" class="node"><title>Node2</title>
<g id="a_node2"><a xlink:href="class_s_d_config_manager.html#a10a368240d6e6c04ccf4920885fc8d93" target="_top" xlink:title="SDConfigManager::readConfig">
<polygon fill="white" stroke="black" points="150,-38.5 150,-57.5 296,-57.5 296,-38.5 150,-38.5"/>
<text text-anchor="middle" x="223" y="-45.5" font-family="Helvetica,sans-Serif" font-size="10.00">SDConfigManager::readConfig</text>
</a>
</g>
</g>
<!-- Node1&#45;&gt;Node2 -->
<g id="edge1" class="edge"><title>Node1&#45;&gt;Node2</title>
<path fill="none" stroke="midnightblue" d="M124.482,-36.7021C132.825,-37.6687 141.39,-38.6611 149.816,-39.6372"/>
<polygon fill="midnightblue" stroke="midnightblue" points="124.776,-33.2129 114.439,-35.5387 123.97,-40.1664 124.776,-33.2129"/>
</g>
<!-- Node3 -->
<g id="node3" class="node"><title>Node3</title>
<g id="a_node3"><a xlink:href="mainweb_8cpp.html#afd56fefe2a8598f61d016320f5250491" target="_top" xlink:title="defaultCmd">
<polygon fill="white" stroke="black" points="190.5,-0.5 190.5,-19.5 255.5,-19.5 255.5,-0.5 190.5,-0.5"/>
<text text-anchor="middle" x="223" y="-7.5" font-family="Helvetica,sans-Serif" font-size="10.00">defaultCmd</text>
</a>
</g>
</g>
<!-- Node1&#45;&gt;Node3 -->
<g id="edge2" class="edge"><title>Node1&#45;&gt;Node3</title>
<path fill="none" stroke="midnightblue" d="M124.414,-21.3056C147.183,-18.6678 171.617,-15.8371 190.34,-13.668"/>
<polygon fill="midnightblue" stroke="midnightblue" points="123.97,-17.8336 114.439,-22.4613 124.776,-24.7871 123.97,-17.8336"/>
</g>
<!-- Node4 -->
<g id="node4" class="node"><title>Node4</title>
<g id="a_node4"><a xlink:href="class_aquaduino.html#a6f21b3e1fe7fd8b1c13d1e78372abed6" target="_top" xlink:title="Aquaduino::setWebserver">
<polygon fill="white" stroke="black" points="332,-0.5 332,-19.5 460,-19.5 460,-0.5 332,-0.5"/>
<text text-anchor="middle" x="396" y="-7.5" font-family="Helvetica,sans-Serif" font-size="10.00">Aquaduino::setWebserver</text>
</a>
</g>
</g>
<!-- Node3&#45;&gt;Node4 -->
<g id="edge3" class="edge"><title>Node3&#45;&gt;Node4</title>
<path fill="none" stroke="midnightblue" d="M266.005,-10C285.833,-10 309.916,-10 331.879,-10"/>
<polygon fill="midnightblue" stroke="midnightblue" points="265.763,-6.5001 255.763,-10 265.763,-13.5001 265.763,-6.5001"/>
</g>
<!-- Node5 -->
<g id="node5" class="node"><title>Node5</title>
<g id="a_node5"><a xlink:href="_aquaduino_8cpp.html#a4fc01d736fe50cf5b977f755b675f11d" target="_top" xlink:title="setup">
<polygon fill="white" stroke="black" points="496.5,-0.5 496.5,-19.5 537.5,-19.5 537.5,-0.5 496.5,-0.5"/>
<text text-anchor="middle" x="517" y="-7.5" font-family="Helvetica,sans-Serif" font-size="10.00">setup</text>
</a>
</g>
</g>
<!-- Node4&#45;&gt;Node5 -->
<g id="edge4" class="edge"><title>Node4&#45;&gt;Node5</title>
<path fill="none" stroke="midnightblue" d="M470.371,-10C479.872,-10 488.873,-10 496.331,-10"/>
<polygon fill="midnightblue" stroke="midnightblue" points="470.333,-6.5001 460.333,-10 470.333,-13.5001 470.333,-6.5001"/>
</g>
</g>
</svg>
