<?xml version="1.0" encoding="UTF-8" standalone="no"?>
<!DOCTYPE svg PUBLIC "-//W3C//DTD SVG 1.1//EN"
 "http://www.w3.org/Graphics/SVG/1.1/DTD/svg11.dtd">
<!-- Generated by graphviz version 2.30.1 (20130214.1330)
 -->
<!-- Title: Controller Pages: 1 -->
<svg width="410pt" height="454pt"
 viewBox="0.00 0.00 410.00 454.00" xmlns="http://www.w3.org/2000/svg" xmlns:xlink="http://www.w3.org/1999/xlink">
<g id="graph0" class="graph" transform="scale(1 1) rotate(0) translate(4 450)">
<title>Controller</title>
<polygon fill="white" stroke="white" points="-4,5 -4,-450 407,-450 407,5 -4,5"/>
<!-- Node1 -->
<g id="node1" class="node"><title>Node1</title>
<polygon fill="#bfbfbf" stroke="black" points="140.5,-150.5 140.5,-251.5 251.5,-251.5 251.5,-150.5 140.5,-150.5"/>
<text text-anchor="middle" x="196" y="-239.5" font-family="Helvetica,sans-Serif" font-size="10.00">Controller</text>
<polyline fill="none" stroke="black" points="140.5,-232.5 251.5,-232.5 "/>
<text text-anchor="middle" x="196" y="-220.5" font-family="Helvetica,sans-Serif" font-size="10.00"> </text>
<polyline fill="none" stroke="black" points="140.5,-213.5 251.5,-213.5 "/>
<text text-anchor="start" x="148.5" y="-201.5" font-family="Helvetica,sans-Serif" font-size="10.00">+ Controller()</text>
<text text-anchor="start" x="148.5" y="-190.5" font-family="Helvetica,sans-Serif" font-size="10.00">+ run()</text>
<text text-anchor="start" x="148.5" y="-179.5" font-family="Helvetica,sans-Serif" font-size="10.00">+ showWebinterface()</text>
<text text-anchor="start" x="148.5" y="-168.5" font-family="Helvetica,sans-Serif" font-size="10.00"># ~Controller()</text>
<text text-anchor="start" x="148.5" y="-157.5" font-family="Helvetica,sans-Serif" font-size="10.00"># allMyActuators()</text>
</g>
<!-- Node5 -->
<g id="node5" class="node"><title>Node5</title>
<g id="a_node5"><a xlink:href="class_clock_timer_controller.html" target="_top" xlink:title="{ClockTimerController\n||+ ClockTimerController()\l+ serialize()\l+ deserialize()\l+ run()\l+ showWebinterface()\l}">
<polygon fill="white" stroke="black" points="0,-6.5 0,-107.5 122,-107.5 122,-6.5 0,-6.5"/>
<text text-anchor="middle" x="61" y="-95.5" font-family="Helvetica,sans-Serif" font-size="10.00">ClockTimerController</text>
<polyline fill="none" stroke="black" points="0,-88.5 122,-88.5 "/>
<text text-anchor="middle" x="61" y="-76.5" font-family="Helvetica,sans-Serif" font-size="10.00"> </text>
<polyline fill="none" stroke="black" points="0,-69.5 122,-69.5 "/>
<text text-anchor="start" x="8" y="-57.5" font-family="Helvetica,sans-Serif" font-size="10.00">+ ClockTimerController()</text>
<text text-anchor="start" x="8" y="-46.5" font-family="Helvetica,sans-Serif" font-size="10.00">+ serialize()</text>
<text text-anchor="start" x="8" y="-35.5" font-family="Helvetica,sans-Serif" font-size="10.00">+ deserialize()</text>
<text text-anchor="start" x="8" y="-24.5" font-family="Helvetica,sans-Serif" font-size="10.00">+ run()</text>
<text text-anchor="start" x="8" y="-13.5" font-family="Helvetica,sans-Serif" font-size="10.00">+ showWebinterface()</text>
</a>
</g>
</g>
<!-- Node1&#45;&gt;Node5 -->
<g id="edge4" class="edge"><title>Node1&#45;&gt;Node5</title>
<path fill="none" stroke="midnightblue" d="M141.638,-142.819C130.639,-131.25 119.155,-119.171 108.418,-107.877"/>
<polygon fill="none" stroke="midnightblue" points="139.357,-145.499 148.784,-150.335 144.43,-140.676 139.357,-145.499"/>
</g>
<!-- Node6 -->
<g id="node6" class="node"><title>Node6</title>
<g id="a_node6"><a xlink:href="class_level_controller.html" target="_top" xlink:title="{LevelController\n||+ LevelController()\l+ serialize()\l+ deserialize()\l+ run()\l+ showWebinterface()\l}">
<polygon fill="white" stroke="black" points="140.5,-6.5 140.5,-107.5 251.5,-107.5 251.5,-6.5 140.5,-6.5"/>
<text text-anchor="middle" x="196" y="-95.5" font-family="Helvetica,sans-Serif" font-size="10.00">LevelController</text>
<polyline fill="none" stroke="black" points="140.5,-88.5 251.5,-88.5 "/>
<text text-anchor="middle" x="196" y="-76.5" font-family="Helvetica,sans-Serif" font-size="10.00"> </text>
<polyline fill="none" stroke="black" points="140.5,-69.5 251.5,-69.5 "/>
<text text-anchor="start" x="148.5" y="-57.5" font-family="Helvetica,sans-Serif" font-size="10.00">+ LevelController()</text>
<text text-anchor="start" x="148.5" y="-46.5" font-family="Helvetica,sans-Serif" font-size="10.00">+ serialize()</text>
<text text-anchor="start" x="148.5" y="-35.5" font-family="Helvetica,sans-Serif" font-size="10.00">+ deserialize()</text>
<text text-anchor="start" x="148.5" y="-24.5" font-family="Helvetica,sans-Serif" font-size="10.00">+ run()</text>
<text text-anchor="start" x="148.5" y="-13.5" font-family="Helvetica,sans-Serif" font-size="10.00">+ showWebinterface()</text>
</a>
</g>
</g>
<!-- Node1&#45;&gt;Node6 -->
<g id="edge5" class="edge"><title>Node1&#45;&gt;Node6</title>
<path fill="none" stroke="midnightblue" d="M196,-140.167C196,-129.414 196,-118.31 196,-107.877"/>
<polygon fill="none" stroke="midnightblue" points="192.5,-140.335 196,-150.335 199.5,-140.335 192.5,-140.335"/>
</g>
<!-- Node7 -->
<g id="node7" class="node"><title>Node7</title>
<g id="a_node7"><a xlink:href="class_temperature_controller.html" target="_top" xlink:title="{TemperatureController\n||+ TemperatureController()\l+ ~TemperatureController()\l+ serialize()\l+ deserialize()\l+ run()\l+ showWebinterface()\l}">
<polygon fill="white" stroke="black" points="269.5,-1 269.5,-113 402.5,-113 402.5,-1 269.5,-1"/>
<text text-anchor="middle" x="336" y="-101" font-family="Helvetica,sans-Serif" font-size="10.00">TemperatureController</text>
<polyline fill="none" stroke="black" points="269.5,-94 402.5,-94 "/>
<text text-anchor="middle" x="336" y="-82" font-family="Helvetica,sans-Serif" font-size="10.00"> </text>
<polyline fill="none" stroke="black" points="269.5,-75 402.5,-75 "/>
<text text-anchor="start" x="277.5" y="-63" font-family="Helvetica,sans-Serif" font-size="10.00">+ TemperatureController()</text>
<text text-anchor="start" x="277.5" y="-52" font-family="Helvetica,sans-Serif" font-size="10.00">+ ~TemperatureController()</text>
<text text-anchor="start" x="277.5" y="-41" font-family="Helvetica,sans-Serif" font-size="10.00">+ serialize()</text>
<text text-anchor="start" x="277.5" y="-30" font-family="Helvetica,sans-Serif" font-size="10.00">+ deserialize()</text>
<text text-anchor="start" x="277.5" y="-19" font-family="Helvetica,sans-Serif" font-size="10.00">+ run()</text>
<text text-anchor="start" x="277.5" y="-8" font-family="Helvetica,sans-Serif" font-size="10.00">+ showWebinterface()</text>
</a>
</g>
</g>
<!-- Node1&#45;&gt;Node7 -->
<g id="edge6" class="edge"><title>Node1&#45;&gt;Node7</title>
<path fill="none" stroke="midnightblue" d="M252.269,-142.927C261.93,-133.128 271.954,-122.961 281.565,-113.212"/>
<polygon fill="none" stroke="midnightblue" points="249.494,-140.757 244.965,-150.335 254.478,-145.671 249.494,-140.757"/>
</g>
<!-- Node2 -->
<g id="node2" class="node"><title>Node2</title>
<g id="a_node2"><a xlink:href="class_object.html" target="_top" xlink:title="{Object\n|# m_Name\l# m_URL\l# m_Type\l|+ Object()\l+ Object()\l+ setName()\l+ getName()\l+ setURL()\l+ getURL()\l+ getType()\l# ~Object()\l}">
<polygon fill="white" stroke="black" points="67.5,-289 67.5,-445 138.5,-445 138.5,-289 67.5,-289"/>
<text text-anchor="middle" x="103" y="-433" font-family="Helvetica,sans-Serif" font-size="10.00">Object</text>
<polyline fill="none" stroke="black" points="67.5,-426 138.5,-426 "/>
<text text-anchor="start" x="75.5" y="-414" font-family="Helvetica,sans-Serif" font-size="10.00"># m_Name</text>
<text text-anchor="start" x="75.5" y="-403" font-family="Helvetica,sans-Serif" font-size="10.00"># m_URL</text>
<text text-anchor="start" x="75.5" y="-392" font-family="Helvetica,sans-Serif" font-size="10.00"># m_Type</text>
<polyline fill="none" stroke="black" points="67.5,-385 138.5,-385 "/>
<text text-anchor="start" x="75.5" y="-373" font-family="Helvetica,sans-Serif" font-size="10.00">+ Object()</text>
<text text-anchor="start" x="75.5" y="-362" font-family="Helvetica,sans-Serif" font-size="10.00">+ Object()</text>
<text text-anchor="start" x="75.5" y="-351" font-family="Helvetica,sans-Serif" font-size="10.00">+ setName()</text>
<text text-anchor="start" x="75.5" y="-340" font-family="Helvetica,sans-Serif" font-size="10.00">+ getName()</text>
<text text-anchor="start" x="75.5" y="-329" font-family="Helvetica,sans-Serif" font-size="10.00">+ setURL()</text>
<text text-anchor="start" x="75.5" y="-318" font-family="Helvetica,sans-Serif" font-size="10.00">+ getURL()</text>
<text text-anchor="start" x="75.5" y="-307" font-family="Helvetica,sans-Serif" font-size="10.00">+ getType()</text>
<text text-anchor="start" x="75.5" y="-296" font-family="Helvetica,sans-Serif" font-size="10.00"># ~Object()</text>
</a>
</g>
</g>
<!-- Node2&#45;&gt;Node1 -->
<g id="edge1" class="edge"><title>Node2&#45;&gt;Node1</title>
<path fill="none" stroke="midnightblue" d="M143.732,-294.172C151.893,-279.78 160.295,-264.963 167.912,-251.532"/>
<polygon fill="none" stroke="midnightblue" points="140.579,-292.637 138.69,-303.062 146.668,-296.09 140.579,-292.637"/>
</g>
<!-- Node3 -->
<g id="node3" class="node"><title>Node3</title>
<g id="a_node3"><a xlink:href="class_serializable.html" target="_top" xlink:title="{Serializable\n||+ serialize()\l+ deserialize()\l}">
<polygon fill="white" stroke="black" points="157,-333 157,-401 235,-401 235,-333 157,-333"/>
<text text-anchor="middle" x="196" y="-389" font-family="Helvetica,sans-Serif" font-size="10.00">Serializable</text>
<polyline fill="none" stroke="black" points="157,-382 235,-382 "/>
<text text-anchor="middle" x="196" y="-370" font-family="Helvetica,sans-Serif" font-size="10.00"> </text>
<polyline fill="none" stroke="black" points="157,-363 235,-363 "/>
<text text-anchor="start" x="165" y="-351" font-family="Helvetica,sans-Serif" font-size="10.00">+ serialize()</text>
<text text-anchor="start" x="165" y="-340" font-family="Helvetica,sans-Serif" font-size="10.00">+ deserialize()</text>
</a>
</g>
</g>
<!-- Node3&#45;&gt;Node1 -->
<g id="edge2" class="edge"><title>Node3&#45;&gt;Node1</title>
<path fill="none" stroke="midnightblue" d="M196,-322.527C196,-300.73 196,-274.233 196,-251.64"/>
<polygon fill="none" stroke="midnightblue" points="192.5,-322.812 196,-332.812 199.5,-322.812 192.5,-322.812"/>
</g>
<!-- Node4 -->
<g id="node4" class="node"><title>Node4</title>
<g id="a_node4"><a xlink:href="class_web_interface.html" target="_top" xlink:title="{WebInterface\n||+ showWebinterface()\l}">
<polygon fill="white" stroke="black" points="253.5,-338.5 253.5,-395.5 364.5,-395.5 364.5,-338.5 253.5,-338.5"/>
<text text-anchor="middle" x="309" y="-383.5" font-family="Helvetica,sans-Serif" font-size="10.00">WebInterface</text>
<polyline fill="none" stroke="black" points="253.5,-376.5 364.5,-376.5 "/>
<text text-anchor="middle" x="309" y="-364.5" font-family="Helvetica,sans-Serif" font-size="10.00"> </text>
<polyline fill="none" stroke="black" points="253.5,-357.5 364.5,-357.5 "/>
<text text-anchor="start" x="261.5" y="-345.5" font-family="Helvetica,sans-Serif" font-size="10.00">+ showWebinterface()</text>
</a>
</g>
</g>
<!-- Node4&#45;&gt;Node1 -->
<g id="edge3" class="edge"><title>Node4&#45;&gt;Node1</title>
<path fill="none" stroke="midnightblue" d="M284.017,-329.741C268.181,-306.758 247.487,-276.725 230.144,-251.555"/>
<polygon fill="none" stroke="midnightblue" points="281.275,-331.931 289.831,-338.18 287.039,-327.959 281.275,-331.931"/>
</g>
</g>
</svg>
