<?xml version="1.0" encoding="UTF-8" standalone="no"?>
<!DOCTYPE svg PUBLIC "-//W3C//DTD SVG 1.1//EN"
 "http://www.w3.org/Graphics/SVG/1.1/DTD/svg11.dtd">
<!-- Generated by graphviz version 2.30.1 (20130214.1330)
 -->
<!-- Title: Aquaduino::addController Pages: 1 -->
<svg width="454pt" height="104pt"
 viewBox="0.00 0.00 454.00 104.00" xmlns="http://www.w3.org/2000/svg" xmlns:xlink="http://www.w3.org/1999/xlink">
<g id="graph0" class="graph" transform="scale(1 1) rotate(0) translate(4 100)">
<title>Aquaduino::addController</title>
<polygon fill="white" stroke="white" points="-4,5 -4,-100 451,-100 451,5 -4,5"/>
<!-- Node1 -->
<g id="node1" class="node"><title>Node1</title>
<polygon fill="#bfbfbf" stroke="black" points="0.5,-38.5 0.5,-57.5 125.5,-57.5 125.5,-38.5 0.5,-38.5"/>
<text text-anchor="middle" x="63" y="-45.5" font-family="Helvetica,sans-Serif" font-size="10.00">Aquaduino::addController</text>
</g>
<!-- Node2 -->
<g id="node2" class="node"><title>Node2</title>
<g id="a_node2"><a xlink:href="class_array_list.html#a0b32a1e8d387337f2965b054edd1f780" target="_top" xlink:title="ArrayList::add">
<polygon fill="white" stroke="black" points="180.5,-76.5 180.5,-95.5 257.5,-95.5 257.5,-76.5 180.5,-76.5"/>
<text text-anchor="middle" x="219" y="-83.5" font-family="Helvetica,sans-Serif" font-size="10.00">ArrayList::add</text>
</a>
</g>
</g>
<!-- Node1&#45;&gt;Node2 -->
<g id="edge1" class="edge"><title>Node1&#45;&gt;Node2</title>
<path fill="none" stroke="midnightblue" d="M102.861,-57.589C123.399,-62.6569 148.78,-68.9198 170.481,-74.2746"/>
<polygon fill="midnightblue" stroke="midnightblue" points="169.934,-77.7445 180.481,-76.7421 171.611,-70.9483 169.934,-77.7445"/>
</g>
<!-- Node3 -->
<g id="node3" class="node"><title>Node3</title>
<g id="a_node3"><a xlink:href="class_object.html#aff677ddb7fe429a58e22cd3cadbcee7b" target="_top" xlink:title="Object::getName">
<polygon fill="white" stroke="black" points="174,-38.5 174,-57.5 264,-57.5 264,-38.5 174,-38.5"/>
<text text-anchor="middle" x="219" y="-45.5" font-family="Helvetica,sans-Serif" font-size="10.00">Object::getName</text>
</a>
</g>
</g>
<!-- Node1&#45;&gt;Node3 -->
<g id="edge2" class="edge"><title>Node1&#45;&gt;Node3</title>
<path fill="none" stroke="midnightblue" d="M125.75,-48C138.302,-48 151.417,-48 163.688,-48"/>
<polygon fill="midnightblue" stroke="midnightblue" points="163.767,-51.5001 173.767,-48 163.767,-44.5001 163.767,-51.5001"/>
</g>
<!-- Node4 -->
<g id="node4" class="node"><title>Node4</title>
<g id="a_node4"><a xlink:href="class_aquaduino.html#a4c99a340831a418ad0956daf373e3797" target="_top" xlink:title="Aquaduino::readConfig">
<polygon fill="white" stroke="black" points="162,-0.5 162,-19.5 276,-19.5 276,-0.5 162,-0.5"/>
<text text-anchor="middle" x="219" y="-7.5" font-family="Helvetica,sans-Serif" font-size="10.00">Aquaduino::readConfig</text>
</a>
</g>
</g>
<!-- Node1&#45;&gt;Node4 -->
<g id="edge3" class="edge"><title>Node1&#45;&gt;Node4</title>
<path fill="none" stroke="midnightblue" d="M102.861,-38.411C123.091,-33.4191 148.021,-27.2676 169.504,-21.9666"/>
<polygon fill="midnightblue" stroke="midnightblue" points="170.548,-25.3139 179.419,-19.5201 168.871,-18.5177 170.548,-25.3139"/>
</g>
<!-- Node5 -->
<g id="node5" class="node"><title>Node5</title>
<g id="a_node5"><a xlink:href="class_config_manager.html#aab9cab3859b776fdc9e6eba02e53b9ee" target="_top" xlink:title="ConfigManager::readConfig">
<polygon fill="white" stroke="black" points="312.5,-0.5 312.5,-19.5 445.5,-19.5 445.5,-0.5 312.5,-0.5"/>
<text text-anchor="middle" x="379" y="-7.5" font-family="Helvetica,sans-Serif" font-size="10.00">ConfigManager::readConfig</text>
</a>
</g>
</g>
<!-- Node4&#45;&gt;Node5 -->
<g id="edge4" class="edge"><title>Node4&#45;&gt;Node5</title>
<path fill="none" stroke="midnightblue" d="M276.15,-10C284.565,-10 293.359,-10 302.102,-10"/>
<polygon fill="midnightblue" stroke="midnightblue" points="302.316,-13.5001 312.316,-10 302.316,-6.5001 302.316,-13.5001"/>
</g>
</g>
</svg>
