<?xml version="1.0" encoding="UTF-8" standalone="no"?>
<!DOCTYPE svg PUBLIC "-//W3C//DTD SVG 1.1//EN"
 "http://www.w3.org/Graphics/SVG/1.1/DTD/svg11.dtd">
<!-- Generated by graphviz version 2.30.1 (20130214.1330)
 -->
<!-- Title: Aquaduino::Aquaduino Pages: 1 -->
<svg width="442pt" height="66pt"
 viewBox="0.00 0.00 442.00 66.00" xmlns="http://www.w3.org/2000/svg" xmlns:xlink="http://www.w3.org/1999/xlink">
<g id="graph0" class="graph" transform="scale(1 1) rotate(0) translate(4 62)">
<title>Aquaduino::Aquaduino</title>
<polygon fill="white" stroke="white" points="-4,5 -4,-62 439,-62 439,5 -4,5"/>
<!-- Node1 -->
<g id="node1" class="node"><title>Node1</title>
<polygon fill="#bfbfbf" stroke="black" points="0,-19.5 0,-38.5 114,-38.5 114,-19.5 0,-19.5"/>
<text text-anchor="middle" x="57" y="-26.5" font-family="Helvetica,sans-Serif" font-size="10.00">Aquaduino::Aquaduino</text>
</g>
<!-- Node2 -->
<g id="node2" class="node"><title>Node2</title>
<g id="a_node2"><a xlink:href="class_aquaduino.html#a4c99a340831a418ad0956daf373e3797" target="_top" xlink:title="Aquaduino::readConfig">
<polygon fill="white" stroke="black" points="150,-38.5 150,-57.5 264,-57.5 264,-38.5 150,-38.5"/>
<text text-anchor="middle" x="207" y="-45.5" font-family="Helvetica,sans-Serif" font-size="10.00">Aquaduino::readConfig</text>
</a>
</g>
</g>
<!-- Node1&#45;&gt;Node2 -->
<g id="edge1" class="edge"><title>Node1&#45;&gt;Node2</title>
<path fill="none" stroke="midnightblue" d="M114.375,-36.2373C122.621,-37.296 131.178,-38.3945 139.602,-39.476"/>
<polygon fill="midnightblue" stroke="midnightblue" points="139.418,-42.9809 149.782,-40.7828 140.309,-36.0379 139.418,-42.9809"/>
</g>
<!-- Node4 -->
<g id="node4" class="node"><title>Node4</title>
<g id="a_node4"><a xlink:href="class_aquaduino.html#ad910741d704dd02ea0f66b20cfab89a1" target="_top" xlink:title="Aquaduino::setTime">
<polygon fill="white" stroke="black" points="155.5,-0.5 155.5,-19.5 258.5,-19.5 258.5,-0.5 155.5,-0.5"/>
<text text-anchor="middle" x="207" y="-7.5" font-family="Helvetica,sans-Serif" font-size="10.00">Aquaduino::setTime</text>
</a>
</g>
</g>
<!-- Node1&#45;&gt;Node4 -->
<g id="edge3" class="edge"><title>Node1&#45;&gt;Node4</title>
<path fill="none" stroke="midnightblue" d="M114.375,-21.7627C124.422,-20.4728 134.93,-19.1238 145.098,-17.8185"/>
<polygon fill="midnightblue" stroke="midnightblue" points="145.649,-21.2766 155.122,-16.5317 144.758,-14.3336 145.649,-21.2766"/>
</g>
<!-- Node3 -->
<g id="node3" class="node"><title>Node3</title>
<g id="a_node3"><a xlink:href="class_config_manager.html#aab9cab3859b776fdc9e6eba02e53b9ee" target="_top" xlink:title="ConfigManager::readConfig">
<polygon fill="white" stroke="black" points="300.5,-38.5 300.5,-57.5 433.5,-57.5 433.5,-38.5 300.5,-38.5"/>
<text text-anchor="middle" x="367" y="-45.5" font-family="Helvetica,sans-Serif" font-size="10.00">ConfigManager::readConfig</text>
</a>
</g>
</g>
<!-- Node2&#45;&gt;Node3 -->
<g id="edge2" class="edge"><title>Node2&#45;&gt;Node3</title>
<path fill="none" stroke="midnightblue" d="M264.15,-48C272.565,-48 281.359,-48 290.102,-48"/>
<polygon fill="midnightblue" stroke="midnightblue" points="290.316,-51.5001 300.316,-48 290.316,-44.5001 290.316,-51.5001"/>
</g>
</g>
</svg>
