<?xml version="1.0" encoding="UTF-8" standalone="no"?>
<!DOCTYPE svg PUBLIC "-//W3C//DTD SVG 1.1//EN"
 "http://www.w3.org/Graphics/SVG/1.1/DTD/svg11.dtd">
<!-- Generated by graphviz version 2.30.1 (20130214.1330)
 -->
<!-- Title: Object::getName Pages: 1 -->
<svg width="696pt" height="204pt"
 viewBox="0.00 0.00 696.00 204.04" xmlns="http://www.w3.org/2000/svg" xmlns:xlink="http://www.w3.org/1999/xlink">
<g id="graph0" class="graph" transform="scale(1 1) rotate(0) translate(4 200.039)">
<title>Object::getName</title>
<polygon fill="white" stroke="white" points="-4,5 -4,-200.039 693,-200.039 693,5 -4,5"/>
<!-- Node1 -->
<g id="node1" class="node"><title>Node1</title>
<polygon fill="#bfbfbf" stroke="black" points="0,-81.5391 0,-100.539 90,-100.539 90,-81.5391 0,-81.5391"/>
<text text-anchor="middle" x="45" y="-88.5391" font-family="Helvetica,sans-Serif" font-size="10.00">Object::getName</text>
</g>
<!-- Node2 -->
<g id="node2" class="node"><title>Node2</title>
<g id="a_node2"><a xlink:href="class_digital_output.html#abc5037f1990bb4b383771a77b13664e3" target="_top" xlink:title="DigitalOutput::showWebinterface">
<polygon fill="white" stroke="black" points="126,-176.539 126,-195.539 284,-195.539 284,-176.539 126,-176.539"/>
<text text-anchor="middle" x="205" y="-183.539" font-family="Helvetica,sans-Serif" font-size="10.00">DigitalOutput::showWebinterface</text>
</a>
</g>
</g>
<!-- Node1&#45;&gt;Node2 -->
<g id="edge1" class="edge"><title>Node1&#45;&gt;Node2</title>
<path fill="none" stroke="midnightblue" d="M61.3268,-108.366C76.352,-124.377 100.637,-147.779 126,-162.039 136.868,-168.149 149.481,-172.895 161.355,-176.492"/>
<polygon fill="midnightblue" stroke="midnightblue" points="63.6916,-105.766 54.3569,-100.755 58.529,-110.494 63.6916,-105.766"/>
</g>
<!-- Node3 -->
<g id="node3" class="node"><title>Node3</title>
<g id="a_node3"><a xlink:href="class_aquaduino.html#aa6fc15ac00f3216cbb31654b2e457e7e" target="_top" xlink:title="Aquaduino::addController">
<polygon fill="white" stroke="black" points="320.5,-138.539 320.5,-157.539 445.5,-157.539 445.5,-138.539 320.5,-138.539"/>
<text text-anchor="middle" x="383" y="-145.539" font-family="Helvetica,sans-Serif" font-size="10.00">Aquaduino::addController</text>
</a>
</g>
</g>
<!-- Node1&#45;&gt;Node3 -->
<g id="edge2" class="edge"><title>Node1&#45;&gt;Node3</title>
<path fill="none" stroke="midnightblue" d="M73.7989,-104.906C88.877,-111.807 108.054,-119.602 126,-124.039 191.11,-140.135 267.976,-145.605 320.37,-147.377"/>
<polygon fill="midnightblue" stroke="midnightblue" points="75.0747,-101.639 64.5365,-100.545 72.0928,-107.972 75.0747,-101.639"/>
</g>
<!-- Node5 -->
<g id="node5" class="node"><title>Node5</title>
<g id="a_node5"><a xlink:href="class_aquaduino.html#a25e61694a18574fc00fdc14a8ef0d7ac" target="_top" xlink:title="Aquaduino::addActuator">
<polygon fill="white" stroke="black" points="485.5,-100.539 485.5,-119.539 606.5,-119.539 606.5,-100.539 485.5,-100.539"/>
<text text-anchor="middle" x="546" y="-107.539" font-family="Helvetica,sans-Serif" font-size="10.00">Aquaduino::addActuator</text>
</a>
</g>
</g>
<!-- Node1&#45;&gt;Node5 -->
<g id="edge4" class="edge"><title>Node1&#45;&gt;Node5</title>
<path fill="none" stroke="midnightblue" d="M100.453,-93.1125C194.668,-96.6998 387.367,-104.037 485.183,-107.762"/>
<polygon fill="midnightblue" stroke="midnightblue" points="100.409,-89.6084 90.2829,-92.7252 100.142,-96.6033 100.409,-89.6084"/>
</g>
<!-- Node6 -->
<g id="node6" class="node"><title>Node6</title>
<g id="a_node6"><a xlink:href="class_s_d_config_manager.html#ac7a5874b228c4659eda6ea80e307578f" target="_top" xlink:title="SDConfigManager::writeConfig">
<polygon fill="white" stroke="black" points="131,-62.5391 131,-81.5391 279,-81.5391 279,-62.5391 131,-62.5391"/>
<text text-anchor="middle" x="205" y="-69.5391" font-family="Helvetica,sans-Serif" font-size="10.00">SDConfigManager::writeConfig</text>
</a>
</g>
</g>
<!-- Node1&#45;&gt;Node6 -->
<g id="edge6" class="edge"><title>Node1&#45;&gt;Node6</title>
<path fill="none" stroke="midnightblue" d="M100.099,-84.5335C110.011,-83.3416 120.504,-82.0797 130.863,-80.8341"/>
<polygon fill="midnightblue" stroke="midnightblue" points="99.5224,-81.0776 90.0118,-85.7466 100.358,-88.0275 99.5224,-81.0776"/>
</g>
<!-- Node7 -->
<g id="node7" class="node"><title>Node7</title>
<g id="a_node7"><a xlink:href="mainweb_8cpp.html#adc3a282df65858d7820a8c90f7191472" target="_top" xlink:title="printActuatorTable">
<polygon fill="white" stroke="black" points="157.5,-24.5391 157.5,-43.5391 252.5,-43.5391 252.5,-24.5391 157.5,-24.5391"/>
<text text-anchor="middle" x="205" y="-31.5391" font-family="Helvetica,sans-Serif" font-size="10.00">printActuatorTable</text>
</a>
</g>
</g>
<!-- Node1&#45;&gt;Node7 -->
<g id="edge7" class="edge"><title>Node1&#45;&gt;Node7</title>
<path fill="none" stroke="midnightblue" d="M72.2588,-76.892C87.5996,-69.0552 107.521,-59.6006 126,-53.0391 136.245,-49.4014 147.488,-46.2166 158.169,-43.5464"/>
<polygon fill="midnightblue" stroke="midnightblue" points="70.6109,-73.8039 63.3528,-81.5221 73.8399,-80.0147 70.6109,-73.8039"/>
</g>
<!-- Node8 -->
<g id="node8" class="node"><title>Node8</title>
<g id="a_node8"><a xlink:href="mainweb_8cpp.html#afd56fefe2a8598f61d016320f5250491" target="_top" xlink:title="defaultCmd">
<polygon fill="white" stroke="black" points="350.5,-24.5391 350.5,-43.5391 415.5,-43.5391 415.5,-24.5391 350.5,-24.5391"/>
<text text-anchor="middle" x="383" y="-31.5391" font-family="Helvetica,sans-Serif" font-size="10.00">defaultCmd</text>
</a>
</g>
</g>
<!-- Node1&#45;&gt;Node8 -->
<g id="edge11" class="edge"><title>Node1&#45;&gt;Node8</title>
<path fill="none" stroke="midnightblue" d="M58.2291,-73.2092C72.1542,-54.6509 96.7971,-26.6991 126,-15.0391 204.433,16.2773 307.023,-9.18027 355.029,-24.5194"/>
<polygon fill="midnightblue" stroke="midnightblue" points="55.2942,-71.2951 52.2812,-81.4525 60.9708,-75.3911 55.2942,-71.2951"/>
</g>
<!-- Node4 -->
<g id="node4" class="node"><title>Node4</title>
<g id="a_node4"><a xlink:href="_aquaduino_8cpp.html#a4fc01d736fe50cf5b977f755b675f11d" target="_top" xlink:title="setup">
<polygon fill="white" stroke="black" points="646.5,-100.539 646.5,-119.539 687.5,-119.539 687.5,-100.539 646.5,-100.539"/>
<text text-anchor="middle" x="667" y="-107.539" font-family="Helvetica,sans-Serif" font-size="10.00">setup</text>
</a>
</g>
</g>
<!-- Node3&#45;&gt;Node4 -->
<g id="edge3" class="edge"><title>Node3&#45;&gt;Node4</title>
<path fill="none" stroke="midnightblue" d="M456.158,-146.436C500.855,-144.345 559.22,-139.623 610,-129.039 622.362,-126.462 635.773,-121.976 646.37,-118.009"/>
<polygon fill="midnightblue" stroke="midnightblue" points="455.811,-142.948 445.972,-146.878 456.115,-149.941 455.811,-142.948"/>
</g>
<!-- Node5&#45;&gt;Node4 -->
<g id="edge5" class="edge"><title>Node5&#45;&gt;Node4</title>
<path fill="none" stroke="midnightblue" d="M616.894,-110.039C627.733,-110.039 638.097,-110.039 646.487,-110.039"/>
<polygon fill="midnightblue" stroke="midnightblue" points="616.849,-106.539 606.849,-110.039 616.849,-113.539 616.849,-106.539"/>
</g>
<!-- Node7&#45;&gt;Node8 -->
<g id="edge8" class="edge"><title>Node7&#45;&gt;Node8</title>
<path fill="none" stroke="midnightblue" d="M262.734,-34.0391C291.778,-34.0391 326.046,-34.0391 350.38,-34.0391"/>
<polygon fill="midnightblue" stroke="midnightblue" points="262.703,-30.5392 252.703,-34.0391 262.703,-37.5392 262.703,-30.5392"/>
</g>
<!-- Node9 -->
<g id="node9" class="node"><title>Node9</title>
<g id="a_node9"><a xlink:href="class_aquaduino.html#a6f21b3e1fe7fd8b1c13d1e78372abed6" target="_top" xlink:title="Aquaduino::setWebserver">
<polygon fill="white" stroke="black" points="482,-43.5391 482,-62.5391 610,-62.5391 610,-43.5391 482,-43.5391"/>
<text text-anchor="middle" x="546" y="-50.5391" font-family="Helvetica,sans-Serif" font-size="10.00">Aquaduino::setWebserver</text>
</a>
</g>
</g>
<!-- Node8&#45;&gt;Node9 -->
<g id="edge9" class="edge"><title>Node8&#45;&gt;Node9</title>
<path fill="none" stroke="midnightblue" d="M426.011,-38.9969C443.086,-41.012 463.182,-43.3836 481.95,-45.5984"/>
<polygon fill="midnightblue" stroke="midnightblue" points="426.15,-35.4891 415.808,-37.7929 425.329,-42.4409 426.15,-35.4891"/>
</g>
<!-- Node9&#45;&gt;Node4 -->
<g id="edge10" class="edge"><title>Node9&#45;&gt;Node4</title>
<path fill="none" stroke="midnightblue" d="M576.071,-66.964C597.928,-77.4331 627.28,-91.4924 646.413,-100.657"/>
<polygon fill="midnightblue" stroke="midnightblue" points="577.449,-63.743 566.918,-62.5796 574.425,-70.0562 577.449,-63.743"/>
</g>
</g>
</svg>
