<?xml version="1.0" encoding="UTF-8" standalone="no"?>
<!DOCTYPE svg PUBLIC "-//W3C//DTD SVG 1.1//EN"
 "http://www.w3.org/Graphics/SVG/1.1/DTD/svg11.dtd">
<!-- Generated by graphviz version 2.30.1 (20130214.1330)
 -->
<!-- Title: Actuator Pages: 1 -->
<svg width="304pt" height="414pt"
 viewBox="0.00 0.00 304.00 414.00" xmlns="http://www.w3.org/2000/svg" xmlns:xlink="http://www.w3.org/1999/xlink">
<g id="graph0" class="graph" transform="scale(1 1) rotate(0) translate(4 410)">
<title>Actuator</title>
<polygon fill="white" stroke="white" points="-4,5 -4,-410 301,-410 301,5 -4,5"/>
<!-- Node1 -->
<g id="node1" class="node"><title>Node1</title>
<polygon fill="#bfbfbf" stroke="black" points="72.5,-0.5 72.5,-211.5 183.5,-211.5 183.5,-0.5 72.5,-0.5"/>
<text text-anchor="middle" x="128" y="-199.5" font-family="Helvetica,sans-Serif" font-size="10.00">Actuator</text>
<polyline fill="none" stroke="black" points="72.5,-192.5 183.5,-192.5 "/>
<text text-anchor="start" x="80.5" y="-180.5" font-family="Helvetica,sans-Serif" font-size="10.00"># m_ControlledBy</text>
<text text-anchor="start" x="80.5" y="-169.5" font-family="Helvetica,sans-Serif" font-size="10.00"># m_locked</text>
<polyline fill="none" stroke="black" points="72.5,-162.5 183.5,-162.5 "/>
<text text-anchor="start" x="80.5" y="-150.5" font-family="Helvetica,sans-Serif" font-size="10.00">+ Actuator()</text>
<text text-anchor="start" x="80.5" y="-139.5" font-family="Helvetica,sans-Serif" font-size="10.00">+ setController()</text>
<text text-anchor="start" x="80.5" y="-128.5" font-family="Helvetica,sans-Serif" font-size="10.00">+ getController()</text>
<text text-anchor="start" x="80.5" y="-117.5" font-family="Helvetica,sans-Serif" font-size="10.00">+ lock()</text>
<text text-anchor="start" x="80.5" y="-106.5" font-family="Helvetica,sans-Serif" font-size="10.00">+ unlock()</text>
<text text-anchor="start" x="80.5" y="-95.5" font-family="Helvetica,sans-Serif" font-size="10.00">+ isLocked()</text>
<text text-anchor="start" x="80.5" y="-84.5" font-family="Helvetica,sans-Serif" font-size="10.00">+ on()</text>
<text text-anchor="start" x="80.5" y="-73.5" font-family="Helvetica,sans-Serif" font-size="10.00">+ off()</text>
<text text-anchor="start" x="80.5" y="-62.5" font-family="Helvetica,sans-Serif" font-size="10.00">+ isOn()</text>
<text text-anchor="start" x="80.5" y="-51.5" font-family="Helvetica,sans-Serif" font-size="10.00">+ supportsPWM()</text>
<text text-anchor="start" x="80.5" y="-40.5" font-family="Helvetica,sans-Serif" font-size="10.00">+ setPWM()</text>
<text text-anchor="start" x="80.5" y="-29.5" font-family="Helvetica,sans-Serif" font-size="10.00">+ getPWM()</text>
<text text-anchor="start" x="80.5" y="-18.5" font-family="Helvetica,sans-Serif" font-size="10.00">+ showWebinterface()</text>
<text text-anchor="start" x="80.5" y="-7.5" font-family="Helvetica,sans-Serif" font-size="10.00"># ~Actuator()</text>
</g>
<!-- Node2 -->
<g id="node2" class="node"><title>Node2</title>
<g id="a_node2"><a xlink:href="class_object.html" target="_top" xlink:title="{Object\n|# m_Name\l# m_URL\l# m_Type\l|+ Object()\l+ Object()\l+ setName()\l+ getName()\l+ setURL()\l+ getURL()\l+ getType()\l# ~Object()\l}">
<polygon fill="white" stroke="black" points="-0.5,-249 -0.5,-405 70.5,-405 70.5,-249 -0.5,-249"/>
<text text-anchor="middle" x="35" y="-393" font-family="Helvetica,sans-Serif" font-size="10.00">Object</text>
<polyline fill="none" stroke="black" points="-0.5,-386 70.5,-386 "/>
<text text-anchor="start" x="7.5" y="-374" font-family="Helvetica,sans-Serif" font-size="10.00"># m_Name</text>
<text text-anchor="start" x="7.5" y="-363" font-family="Helvetica,sans-Serif" font-size="10.00"># m_URL</text>
<text text-anchor="start" x="7.5" y="-352" font-family="Helvetica,sans-Serif" font-size="10.00"># m_Type</text>
<polyline fill="none" stroke="black" points="-0.5,-345 70.5,-345 "/>
<text text-anchor="start" x="7.5" y="-333" font-family="Helvetica,sans-Serif" font-size="10.00">+ Object()</text>
<text text-anchor="start" x="7.5" y="-322" font-family="Helvetica,sans-Serif" font-size="10.00">+ Object()</text>
<text text-anchor="start" x="7.5" y="-311" font-family="Helvetica,sans-Serif" font-size="10.00">+ setName()</text>
<text text-anchor="start" x="7.5" y="-300" font-family="Helvetica,sans-Serif" font-size="10.00">+ getName()</text>
<text text-anchor="start" x="7.5" y="-289" font-family="Helvetica,sans-Serif" font-size="10.00">+ setURL()</text>
<text text-anchor="start" x="7.5" y="-278" font-family="Helvetica,sans-Serif" font-size="10.00">+ getURL()</text>
<text text-anchor="start" x="7.5" y="-267" font-family="Helvetica,sans-Serif" font-size="10.00">+ getType()</text>
<text text-anchor="start" x="7.5" y="-256" font-family="Helvetica,sans-Serif" font-size="10.00"># ~Object()</text>
</a>
</g>
</g>
<!-- Node2&#45;&gt;Node1 -->
<g id="edge1" class="edge"><title>Node2&#45;&gt;Node1</title>
<path fill="none" stroke="midnightblue" d="M71.796,-239.351C75.6792,-230.207 79.6569,-220.84 83.6141,-211.522"/>
<polygon fill="none" stroke="midnightblue" points="68.4756,-238.216 67.7883,-248.789 74.9187,-240.952 68.4756,-238.216"/>
</g>
<!-- Node3 -->
<g id="node3" class="node"><title>Node3</title>
<g id="a_node3"><a xlink:href="class_serializable.html" target="_top" xlink:title="{Serializable\n||+ serialize()\l+ deserialize()\l}">
<polygon fill="white" stroke="black" points="89,-293 89,-361 167,-361 167,-293 89,-293"/>
<text text-anchor="middle" x="128" y="-349" font-family="Helvetica,sans-Serif" font-size="10.00">Serializable</text>
<polyline fill="none" stroke="black" points="89,-342 167,-342 "/>
<text text-anchor="middle" x="128" y="-330" font-family="Helvetica,sans-Serif" font-size="10.00"> </text>
<polyline fill="none" stroke="black" points="89,-323 167,-323 "/>
<text text-anchor="start" x="97" y="-311" font-family="Helvetica,sans-Serif" font-size="10.00">+ serialize()</text>
<text text-anchor="start" x="97" y="-300" font-family="Helvetica,sans-Serif" font-size="10.00">+ deserialize()</text>
</a>
</g>
</g>
<!-- Node3&#45;&gt;Node1 -->
<g id="edge2" class="edge"><title>Node3&#45;&gt;Node1</title>
<path fill="none" stroke="midnightblue" d="M128,-282.54C128,-262.134 128,-236.844 128,-211.875"/>
<polygon fill="none" stroke="midnightblue" points="124.5,-282.739 128,-292.739 131.5,-282.739 124.5,-282.739"/>
</g>
<!-- Node4 -->
<g id="node4" class="node"><title>Node4</title>
<g id="a_node4"><a xlink:href="class_web_interface.html" target="_top" xlink:title="{WebInterface\n||+ showWebinterface()\l}">
<polygon fill="white" stroke="black" points="185.5,-298.5 185.5,-355.5 296.5,-355.5 296.5,-298.5 185.5,-298.5"/>
<text text-anchor="middle" x="241" y="-343.5" font-family="Helvetica,sans-Serif" font-size="10.00">WebInterface</text>
<polyline fill="none" stroke="black" points="185.5,-336.5 296.5,-336.5 "/>
<text text-anchor="middle" x="241" y="-324.5" font-family="Helvetica,sans-Serif" font-size="10.00"> </text>
<polyline fill="none" stroke="black" points="185.5,-317.5 296.5,-317.5 "/>
<text text-anchor="start" x="193.5" y="-305.5" font-family="Helvetica,sans-Serif" font-size="10.00">+ showWebinterface()</text>
</a>
</g>
</g>
<!-- Node4&#45;&gt;Node1 -->
<g id="edge3" class="edge"><title>Node4&#45;&gt;Node1</title>
<path fill="none" stroke="midnightblue" d="M222.025,-289.226C210.978,-267.815 196.436,-239.632 182.1,-211.85"/>
<polygon fill="none" stroke="midnightblue" points="218.993,-290.982 226.688,-298.263 225.213,-287.772 218.993,-290.982"/>
</g>
</g>
</svg>
