<?xml version="1.0" encoding="UTF-8" standalone="no"?>
<!DOCTYPE svg PUBLIC "-//W3C//DTD SVG 1.1//EN"
 "http://www.w3.org/Graphics/SVG/1.1/DTD/svg11.dtd">
<!-- Generated by graphviz version 2.30.1 (20130214.1330)
 -->
<!-- Title: Serializable Pages: 1 -->
<!--zoomable 520 -->
<svg id="main" version="1.1" xmlns="http://www.w3.org/2000/svg" xmlns:xlink="http://www.w3.org/1999/xlink" xml:space="preserve" onload="init(evt)">
<style type="text/css"><![CDATA[
.edge:hover path { stroke: red; }
.edge:hover polygon { stroke: red; fill: red; }
]]></style>
<script type="text/javascript"><![CDATA[
var edges = document.getElementsByTagName('g');
if (edges && edges.length) {
  for (var i=0;i<edges.length;i++) {
    if (edges[i].id.substr(0,4)=='edge') {
      edges[i].setAttribute('class','edge');
    }
  }
}
]]></script>
        <defs>
                <circle id="rim" cx="0" cy="0" r="7"/>
                <circle id="rim2" cx="0" cy="0" r="3.5"/>
                <g id="zoomPlus">
                        <use xlink:href="#rim" fill="#404040">
                                <set attributeName="fill" to="#808080" begin="zoomplus.mouseover" end="zoomplus.mouseout"/>
                        </use>
                        <path d="M-4,0h8M0,-4v8" fill="none" stroke="white" stroke-width="1.5" pointer-events="none"/>
                </g>
                <g id="zoomMin">
                        <use xlink:href="#rim" fill="#404040">
                                <set attributeName="fill" to="#808080" begin="zoomminus.mouseover" end="zoomminus.mouseout"/>
                        </use>
                        <path d="M-4,0h8" fill="none" stroke="white" stroke-width="1.5" pointer-events="none"/>
                </g>
                <g id="dirArrow">
                        <path fill="none" stroke="white" stroke-width="1.5" d="M0,-3.0v7 M-2.5,-0.5L0,-3.0L2.5,-0.5"/>
                </g>
               <g id="resetDef">
                       <use xlink:href="#rim2" fill="#404040">
                               <set attributeName="fill" to="#808080" begin="reset.mouseover" end="reset.mouseout"/>
                       </use>
               </g>
        </defs>

<script type="text/javascript">
var viewWidth = 701;
var viewHeight = 520;
var sectionId = 'dynsection-0';
</script>
<script xlink:href="svgpan.js"/>
<svg id="graph" class="graph">
<g id="viewport">
<title>Serializable</title>
<polygon fill="white" stroke="white" points="-4,5 -4,-516 698,-516 698,5 -4,5"/>
<!-- Node1 -->
<g id="node1" class="node"><title>Node1</title>
<polygon fill="#bfbfbf" stroke="black" points="279,-443 279,-511 357,-511 357,-443 279,-443"/>
<text text-anchor="middle" x="318" y="-499" font-family="Helvetica,sans-Serif" font-size="10.00">Serializable</text>
<polyline fill="none" stroke="black" points="279,-492 357,-492 "/>
<text text-anchor="middle" x="318" y="-480" font-family="Helvetica,sans-Serif" font-size="10.00"> </text>
<polyline fill="none" stroke="black" points="279,-473 357,-473 "/>
<text text-anchor="start" x="287" y="-461" font-family="Helvetica,sans-Serif" font-size="10.00">+ serialize()</text>
<text text-anchor="start" x="287" y="-450" font-family="Helvetica,sans-Serif" font-size="10.00">+ deserialize()</text>
</g>
<!-- Node2 -->
<g id="node2" class="node"><title>Node2</title>
<g id="a_node2"><a xlink:href="class_actuator.html" target="_top" xlink:title="{Actuator\n|# m_ControlledBy\l# m_locked\l|+ Actuator()\l+ setController()\l+ getController()\l+ lock()\l+ unlock()\l+ isLocked()\l+ on()\l+ off()\l+ isOn()\l+ supportsPWM()\l+ setPWM()\l+ getPWM()\l+ showWebinterface()\l# ~Actuator()\l}">
<polygon fill="white" stroke="black" points="94.5,-194.5 94.5,-405.5 205.5,-405.5 205.5,-194.5 94.5,-194.5"/>
<text text-anchor="middle" x="150" y="-393.5" font-family="Helvetica,sans-Serif" font-size="10.00">Actuator</text>
<polyline fill="none" stroke="black" points="94.5,-386.5 205.5,-386.5 "/>
<text text-anchor="start" x="102.5" y="-374.5" font-family="Helvetica,sans-Serif" font-size="10.00"># m_ControlledBy</text>
<text text-anchor="start" x="102.5" y="-363.5" font-family="Helvetica,sans-Serif" font-size="10.00"># m_locked</text>
<polyline fill="none" stroke="black" points="94.5,-356.5 205.5,-356.5 "/>
<text text-anchor="start" x="102.5" y="-344.5" font-family="Helvetica,sans-Serif" font-size="10.00">+ Actuator()</text>
<text text-anchor="start" x="102.5" y="-333.5" font-family="Helvetica,sans-Serif" font-size="10.00">+ setController()</text>
<text text-anchor="start" x="102.5" y="-322.5" font-family="Helvetica,sans-Serif" font-size="10.00">+ getController()</text>
<text text-anchor="start" x="102.5" y="-311.5" font-family="Helvetica,sans-Serif" font-size="10.00">+ lock()</text>
<text text-anchor="start" x="102.5" y="-300.5" font-family="Helvetica,sans-Serif" font-size="10.00">+ unlock()</text>
<text text-anchor="start" x="102.5" y="-289.5" font-family="Helvetica,sans-Serif" font-size="10.00">+ isLocked()</text>
<text text-anchor="start" x="102.5" y="-278.5" font-family="Helvetica,sans-Serif" font-size="10.00">+ on()</text>
<text text-anchor="start" x="102.5" y="-267.5" font-family="Helvetica,sans-Serif" font-size="10.00">+ off()</text>
<text text-anchor="start" x="102.5" y="-256.5" font-family="Helvetica,sans-Serif" font-size="10.00">+ isOn()</text>
<text text-anchor="start" x="102.5" y="-245.5" font-family="Helvetica,sans-Serif" font-size="10.00">+ supportsPWM()</text>
<text text-anchor="start" x="102.5" y="-234.5" font-family="Helvetica,sans-Serif" font-size="10.00">+ setPWM()</text>
<text text-anchor="start" x="102.5" y="-223.5" font-family="Helvetica,sans-Serif" font-size="10.00">+ getPWM()</text>
<text text-anchor="start" x="102.5" y="-212.5" font-family="Helvetica,sans-Serif" font-size="10.00">+ showWebinterface()</text>
<text text-anchor="start" x="102.5" y="-201.5" font-family="Helvetica,sans-Serif" font-size="10.00"># ~Actuator()</text>
</a>
</g>
</g>
<!-- Node1&#45;&gt;Node2 -->
<g id="edge1" class="edge"><title>Node1&#45;&gt;Node2</title>
<path fill="none" stroke="midnightblue" d="M270.231,-449.454C251.644,-437.685 231.013,-422.71 215,-406 211.811,-402.672 208.699,-399.162 205.674,-395.525"/>
<polygon fill="none" stroke="midnightblue" points="268.535,-452.521 278.882,-454.799 272.214,-446.565 268.535,-452.521"/>
</g>
<!-- Node5 -->
<g id="node5" class="node"><title>Node5</title>
<g id="a_node5"><a xlink:href="class_aquaduino.html" target="_top" xlink:title="{Aquaduino\n||+ Aquaduino()\l+ setMAC()\l+ getMAC()\l+ getIP()\l+ setIP()\l+ getNetmask()\l+ setNetmask()\l+ getGateway()\l+ setGateway()\l+ getDNS()\land 45 more...\l}">
<polygon fill="white" stroke="black" points="224,-216.5 224,-383.5 308,-383.5 308,-216.5 224,-216.5"/>
<text text-anchor="middle" x="266" y="-371.5" font-family="Helvetica,sans-Serif" font-size="10.00">Aquaduino</text>
<polyline fill="none" stroke="black" points="224,-364.5 308,-364.5 "/>
<text text-anchor="middle" x="266" y="-352.5" font-family="Helvetica,sans-Serif" font-size="10.00"> </text>
<polyline fill="none" stroke="black" points="224,-345.5 308,-345.5 "/>
<text text-anchor="start" x="232" y="-333.5" font-family="Helvetica,sans-Serif" font-size="10.00">+ Aquaduino()</text>
<text text-anchor="start" x="232" y="-322.5" font-family="Helvetica,sans-Serif" font-size="10.00">+ setMAC()</text>
<text text-anchor="start" x="232" y="-311.5" font-family="Helvetica,sans-Serif" font-size="10.00">+ getMAC()</text>
<text text-anchor="start" x="232" y="-300.5" font-family="Helvetica,sans-Serif" font-size="10.00">+ getIP()</text>
<text text-anchor="start" x="232" y="-289.5" font-family="Helvetica,sans-Serif" font-size="10.00">+ setIP()</text>
<text text-anchor="start" x="232" y="-278.5" font-family="Helvetica,sans-Serif" font-size="10.00">+ getNetmask()</text>
<text text-anchor="start" x="232" y="-267.5" font-family="Helvetica,sans-Serif" font-size="10.00">+ setNetmask()</text>
<text text-anchor="start" x="232" y="-256.5" font-family="Helvetica,sans-Serif" font-size="10.00">+ getGateway()</text>
<text text-anchor="start" x="232" y="-245.5" font-family="Helvetica,sans-Serif" font-size="10.00">+ setGateway()</text>
<text text-anchor="start" x="232" y="-234.5" font-family="Helvetica,sans-Serif" font-size="10.00">+ getDNS()</text>
<text text-anchor="start" x="232" y="-223.5" font-family="Helvetica,sans-Serif" font-size="10.00">and 45 more...</text>
</a>
</g>
</g>
<!-- Node1&#45;&gt;Node5 -->
<g id="edge4" class="edge"><title>Node1&#45;&gt;Node5</title>
<path fill="none" stroke="#8b1a1a" d="M305.15,-432.754C300.72,-417.845 295.599,-400.611 290.55,-383.622"/>
<polygon fill="none" stroke="#8b1a1a" points="301.893,-434.083 308.097,-442.672 308.603,-432.089 301.893,-434.083"/>
</g>
<!-- Node6 -->
<g id="node6" class="node"><title>Node6</title>
<g id="a_node6"><a xlink:href="class_clock_timer.html" target="_top" xlink:title="{ClockTimer\n||+ ClockTimer()\l+ setTimer()\l+ getTimer()\l+ getHourOn()\l+ getMinuteOn()\l+ getHourOff()\l+ getMinuteOff()\l+ setHourOn()\l+ setMinuteOn()\l+ setHourOff()\l+ setMinuteOff()\l+ clearAll()\l+ check()\l+ serialize()\l+ deserialize()\l}">
<polygon fill="white" stroke="black" points="326.5,-194.5 326.5,-405.5 413.5,-405.5 413.5,-194.5 326.5,-194.5"/>
<text text-anchor="middle" x="370" y="-393.5" font-family="Helvetica,sans-Serif" font-size="10.00">ClockTimer</text>
<polyline fill="none" stroke="black" points="326.5,-386.5 413.5,-386.5 "/>
<text text-anchor="middle" x="370" y="-374.5" font-family="Helvetica,sans-Serif" font-size="10.00"> </text>
<polyline fill="none" stroke="black" points="326.5,-367.5 413.5,-367.5 "/>
<text text-anchor="start" x="334.5" y="-355.5" font-family="Helvetica,sans-Serif" font-size="10.00">+ ClockTimer()</text>
<text text-anchor="start" x="334.5" y="-344.5" font-family="Helvetica,sans-Serif" font-size="10.00">+ setTimer()</text>
<text text-anchor="start" x="334.5" y="-333.5" font-family="Helvetica,sans-Serif" font-size="10.00">+ getTimer()</text>
<text text-anchor="start" x="334.5" y="-322.5" font-family="Helvetica,sans-Serif" font-size="10.00">+ getHourOn()</text>
<text text-anchor="start" x="334.5" y="-311.5" font-family="Helvetica,sans-Serif" font-size="10.00">+ getMinuteOn()</text>
<text text-anchor="start" x="334.5" y="-300.5" font-family="Helvetica,sans-Serif" font-size="10.00">+ getHourOff()</text>
<text text-anchor="start" x="334.5" y="-289.5" font-family="Helvetica,sans-Serif" font-size="10.00">+ getMinuteOff()</text>
<text text-anchor="start" x="334.5" y="-278.5" font-family="Helvetica,sans-Serif" font-size="10.00">+ setHourOn()</text>
<text text-anchor="start" x="334.5" y="-267.5" font-family="Helvetica,sans-Serif" font-size="10.00">+ setMinuteOn()</text>
<text text-anchor="start" x="334.5" y="-256.5" font-family="Helvetica,sans-Serif" font-size="10.00">+ setHourOff()</text>
<text text-anchor="start" x="334.5" y="-245.5" font-family="Helvetica,sans-Serif" font-size="10.00">+ setMinuteOff()</text>
<text text-anchor="start" x="334.5" y="-234.5" font-family="Helvetica,sans-Serif" font-size="10.00">+ clearAll()</text>
<text text-anchor="start" x="334.5" y="-223.5" font-family="Helvetica,sans-Serif" font-size="10.00">+ check()</text>
<text text-anchor="start" x="334.5" y="-212.5" font-family="Helvetica,sans-Serif" font-size="10.00">+ serialize()</text>
<text text-anchor="start" x="334.5" y="-201.5" font-family="Helvetica,sans-Serif" font-size="10.00">+ deserialize()</text>
</a>
</g>
</g>
<!-- Node1&#45;&gt;Node6 -->
<g id="edge5" class="edge"><title>Node1&#45;&gt;Node6</title>
<path fill="none" stroke="midnightblue" d="M330.76,-433.057C333.29,-424.542 336.049,-415.258 338.892,-405.689"/>
<polygon fill="none" stroke="midnightblue" points="327.397,-432.089 327.903,-442.672 334.107,-434.083 327.397,-432.089"/>
</g>
<!-- Node7 -->
<g id="node7" class="node"><title>Node7</title>
<g id="a_node7"><a xlink:href="class_controller.html" target="_top" xlink:title="{Controller\n||+ Controller()\l+ run()\l+ showWebinterface()\l# ~Controller()\l# allMyActuators()\l}">
<polygon fill="white" stroke="black" points="431.5,-249.5 431.5,-350.5 542.5,-350.5 542.5,-249.5 431.5,-249.5"/>
<text text-anchor="middle" x="487" y="-338.5" font-family="Helvetica,sans-Serif" font-size="10.00">Controller</text>
<polyline fill="none" stroke="black" points="431.5,-331.5 542.5,-331.5 "/>
<text text-anchor="middle" x="487" y="-319.5" font-family="Helvetica,sans-Serif" font-size="10.00"> </text>
<polyline fill="none" stroke="black" points="431.5,-312.5 542.5,-312.5 "/>
<text text-anchor="start" x="439.5" y="-300.5" font-family="Helvetica,sans-Serif" font-size="10.00">+ Controller()</text>
<text text-anchor="start" x="439.5" y="-289.5" font-family="Helvetica,sans-Serif" font-size="10.00">+ run()</text>
<text text-anchor="start" x="439.5" y="-278.5" font-family="Helvetica,sans-Serif" font-size="10.00">+ showWebinterface()</text>
<text text-anchor="start" x="439.5" y="-267.5" font-family="Helvetica,sans-Serif" font-size="10.00"># ~Controller()</text>
<text text-anchor="start" x="439.5" y="-256.5" font-family="Helvetica,sans-Serif" font-size="10.00"># allMyActuators()</text>
</a>
</g>
</g>
<!-- Node1&#45;&gt;Node7 -->
<g id="edge6" class="edge"><title>Node1&#45;&gt;Node7</title>
<path fill="none" stroke="midnightblue" d="M365.79,-449.814C384.677,-438.014 405.712,-422.921 422,-406 437.612,-389.782 451.352,-369.203 462.129,-350.57"/>
<polygon fill="none" stroke="midnightblue" points="363.724,-446.975 357.006,-455.167 367.367,-452.952 363.724,-446.975"/>
</g>
<!-- Node3 -->
<g id="node3" class="node"><title>Node3</title>
<g id="a_node3"><a xlink:href="class_digital_output.html" target="_top" xlink:title="{DigitalOutput\n||+ DigitalOutput()\l+ serialize()\l+ deserialize()\l+ on()\l+ off()\l+ isOn()\l+ supportsPWM()\l+ setPWM()\l+ getPWM()\l+ showWebinterface()\l}">
<polygon fill="white" stroke="black" points="-0.5,-1 -0.5,-157 110.5,-157 110.5,-1 -0.5,-1"/>
<text text-anchor="middle" x="55" y="-145" font-family="Helvetica,sans-Serif" font-size="10.00">DigitalOutput</text>
<polyline fill="none" stroke="black" points="-0.5,-138 110.5,-138 "/>
<text text-anchor="middle" x="55" y="-126" font-family="Helvetica,sans-Serif" font-size="10.00"> </text>
<polyline fill="none" stroke="black" points="-0.5,-119 110.5,-119 "/>
<text text-anchor="start" x="7.5" y="-107" font-family="Helvetica,sans-Serif" font-size="10.00">+ DigitalOutput()</text>
<text text-anchor="start" x="7.5" y="-96" font-family="Helvetica,sans-Serif" font-size="10.00">+ serialize()</text>
<text text-anchor="start" x="7.5" y="-85" font-family="Helvetica,sans-Serif" font-size="10.00">+ deserialize()</text>
<text text-anchor="start" x="7.5" y="-74" font-family="Helvetica,sans-Serif" font-size="10.00">+ on()</text>
<text text-anchor="start" x="7.5" y="-63" font-family="Helvetica,sans-Serif" font-size="10.00">+ off()</text>
<text text-anchor="start" x="7.5" y="-52" font-family="Helvetica,sans-Serif" font-size="10.00">+ isOn()</text>
<text text-anchor="start" x="7.5" y="-41" font-family="Helvetica,sans-Serif" font-size="10.00">+ supportsPWM()</text>
<text text-anchor="start" x="7.5" y="-30" font-family="Helvetica,sans-Serif" font-size="10.00">+ setPWM()</text>
<text text-anchor="start" x="7.5" y="-19" font-family="Helvetica,sans-Serif" font-size="10.00">+ getPWM()</text>
<text text-anchor="start" x="7.5" y="-8" font-family="Helvetica,sans-Serif" font-size="10.00">+ showWebinterface()</text>
</a>
</g>
</g>
<!-- Node2&#45;&gt;Node3 -->
<g id="edge2" class="edge"><title>Node2&#45;&gt;Node3</title>
<path fill="none" stroke="midnightblue" d="M100.506,-184.903C96.4266,-175.499 92.3672,-166.141 88.448,-157.107"/>
<polygon fill="none" stroke="midnightblue" points="97.3962,-186.529 104.587,-194.311 103.818,-183.744 97.3962,-186.529"/>
</g>
<!-- Node4 -->
<g id="node4" class="node"><title>Node4</title>
<g id="a_node4"><a xlink:href="class_p_w_m_output.html" target="_top" xlink:title="{PWMOutput\n||+ PWMOutput()\l+ serialize()\l+ deserialize()\l+ on()\l+ off()\l+ isOn()\l+ supportsPWM()\l+ setPWM()\l+ getPWM()\l+ showWebinterface()\l}">
<polygon fill="white" stroke="black" points="128.5,-1 128.5,-157 239.5,-157 239.5,-1 128.5,-1"/>
<text text-anchor="middle" x="184" y="-145" font-family="Helvetica,sans-Serif" font-size="10.00">PWMOutput</text>
<polyline fill="none" stroke="black" points="128.5,-138 239.5,-138 "/>
<text text-anchor="middle" x="184" y="-126" font-family="Helvetica,sans-Serif" font-size="10.00"> </text>
<polyline fill="none" stroke="black" points="128.5,-119 239.5,-119 "/>
<text text-anchor="start" x="136.5" y="-107" font-family="Helvetica,sans-Serif" font-size="10.00">+ PWMOutput()</text>
<text text-anchor="start" x="136.5" y="-96" font-family="Helvetica,sans-Serif" font-size="10.00">+ serialize()</text>
<text text-anchor="start" x="136.5" y="-85" font-family="Helvetica,sans-Serif" font-size="10.00">+ deserialize()</text>
<text text-anchor="start" x="136.5" y="-74" font-family="Helvetica,sans-Serif" font-size="10.00">+ on()</text>
<text text-anchor="start" x="136.5" y="-63" font-family="Helvetica,sans-Serif" font-size="10.00">+ off()</text>
<text text-anchor="start" x="136.5" y="-52" font-family="Helvetica,sans-Serif" font-size="10.00">+ isOn()</text>
<text text-anchor="start" x="136.5" y="-41" font-family="Helvetica,sans-Serif" font-size="10.00">+ supportsPWM()</text>
<text text-anchor="start" x="136.5" y="-30" font-family="Helvetica,sans-Serif" font-size="10.00">+ setPWM()</text>
<text text-anchor="start" x="136.5" y="-19" font-family="Helvetica,sans-Serif" font-size="10.00">+ getPWM()</text>
<text text-anchor="start" x="136.5" y="-8" font-family="Helvetica,sans-Serif" font-size="10.00">+ showWebinterface()</text>
</a>
</g>
</g>
<!-- Node2&#45;&gt;Node4 -->
<g id="edge3" class="edge"><title>Node2&#45;&gt;Node4</title>
<path fill="none" stroke="midnightblue" d="M167.805,-184.315C169.234,-175.109 170.656,-165.953 172.029,-157.107"/>
<polygon fill="none" stroke="midnightblue" points="164.329,-183.892 166.253,-194.311 171.246,-184.966 164.329,-183.892"/>
</g>
<!-- Node8 -->
<g id="node8" class="node"><title>Node8</title>
<g id="a_node8"><a xlink:href="class_clock_timer_controller.html" target="_top" xlink:title="{ClockTimerController\n||+ ClockTimerController()\l+ serialize()\l+ deserialize()\l+ run()\l+ showWebinterface()\l}">
<polygon fill="white" stroke="black" points="291,-28.5 291,-129.5 413,-129.5 413,-28.5 291,-28.5"/>
<text text-anchor="middle" x="352" y="-117.5" font-family="Helvetica,sans-Serif" font-size="10.00">ClockTimerController</text>
<polyline fill="none" stroke="black" points="291,-110.5 413,-110.5 "/>
<text text-anchor="middle" x="352" y="-98.5" font-family="Helvetica,sans-Serif" font-size="10.00"> </text>
<polyline fill="none" stroke="black" points="291,-91.5 413,-91.5 "/>
<text text-anchor="start" x="299" y="-79.5" font-family="Helvetica,sans-Serif" font-size="10.00">+ ClockTimerController()</text>
<text text-anchor="start" x="299" y="-68.5" font-family="Helvetica,sans-Serif" font-size="10.00">+ serialize()</text>
<text text-anchor="start" x="299" y="-57.5" font-family="Helvetica,sans-Serif" font-size="10.00">+ deserialize()</text>
<text text-anchor="start" x="299" y="-46.5" font-family="Helvetica,sans-Serif" font-size="10.00">+ run()</text>
<text text-anchor="start" x="299" y="-35.5" font-family="Helvetica,sans-Serif" font-size="10.00">+ showWebinterface()</text>
</a>
</g>
</g>
<!-- Node7&#45;&gt;Node8 -->
<g id="edge7" class="edge"><title>Node7&#45;&gt;Node8</title>
<path fill="none" stroke="midnightblue" d="M451.075,-240.722C429.777,-206.172 403.065,-162.839 382.746,-129.876"/>
<polygon fill="none" stroke="midnightblue" points="448.139,-242.63 456.366,-249.306 454.098,-238.956 448.139,-242.63"/>
</g>
<!-- Node9 -->
<g id="node9" class="node"><title>Node9</title>
<g id="a_node9"><a xlink:href="class_level_controller.html" target="_top" xlink:title="{LevelController\n||+ LevelController()\l+ serialize()\l+ deserialize()\l+ run()\l+ showWebinterface()\l}">
<polygon fill="white" stroke="black" points="431.5,-28.5 431.5,-129.5 542.5,-129.5 542.5,-28.5 431.5,-28.5"/>
<text text-anchor="middle" x="487" y="-117.5" font-family="Helvetica,sans-Serif" font-size="10.00">LevelController</text>
<polyline fill="none" stroke="black" points="431.5,-110.5 542.5,-110.5 "/>
<text text-anchor="middle" x="487" y="-98.5" font-family="Helvetica,sans-Serif" font-size="10.00"> </text>
<polyline fill="none" stroke="black" points="431.5,-91.5 542.5,-91.5 "/>
<text text-anchor="start" x="439.5" y="-79.5" font-family="Helvetica,sans-Serif" font-size="10.00">+ LevelController()</text>
<text text-anchor="start" x="439.5" y="-68.5" font-family="Helvetica,sans-Serif" font-size="10.00">+ serialize()</text>
<text text-anchor="start" x="439.5" y="-57.5" font-family="Helvetica,sans-Serif" font-size="10.00">+ deserialize()</text>
<text text-anchor="start" x="439.5" y="-46.5" font-family="Helvetica,sans-Serif" font-size="10.00">+ run()</text>
<text text-anchor="start" x="439.5" y="-35.5" font-family="Helvetica,sans-Serif" font-size="10.00">+ showWebinterface()</text>
</a>
</g>
</g>
<!-- Node7&#45;&gt;Node9 -->
<g id="edge8" class="edge"><title>Node7&#45;&gt;Node9</title>
<path fill="none" stroke="midnightblue" d="M487,-238.958C487,-204.706 487,-162.28 487,-129.876"/>
<polygon fill="none" stroke="midnightblue" points="483.5,-239.305 487,-249.306 490.5,-239.306 483.5,-239.305"/>
</g>
<!-- Node10 -->
<g id="node10" class="node"><title>Node10</title>
<g id="a_node10"><a xlink:href="class_temperature_controller.html" target="_top" xlink:title="{TemperatureController\n||+ TemperatureController()\l+ ~TemperatureController()\l+ serialize()\l+ deserialize()\l+ run()\l+ showWebinterface()\l}">
<polygon fill="white" stroke="black" points="560.5,-23 560.5,-135 693.5,-135 693.5,-23 560.5,-23"/>
<text text-anchor="middle" x="627" y="-123" font-family="Helvetica,sans-Serif" font-size="10.00">TemperatureController</text>
<polyline fill="none" stroke="black" points="560.5,-116 693.5,-116 "/>
<text text-anchor="middle" x="627" y="-104" font-family="Helvetica,sans-Serif" font-size="10.00"> </text>
<polyline fill="none" stroke="black" points="560.5,-97 693.5,-97 "/>
<text text-anchor="start" x="568.5" y="-85" font-family="Helvetica,sans-Serif" font-size="10.00">+ TemperatureController()</text>
<text text-anchor="start" x="568.5" y="-74" font-family="Helvetica,sans-Serif" font-size="10.00">+ ~TemperatureController()</text>
<text text-anchor="start" x="568.5" y="-63" font-family="Helvetica,sans-Serif" font-size="10.00">+ serialize()</text>
<text text-anchor="start" x="568.5" y="-52" font-family="Helvetica,sans-Serif" font-size="10.00">+ deserialize()</text>
<text text-anchor="start" x="568.5" y="-41" font-family="Helvetica,sans-Serif" font-size="10.00">+ run()</text>
<text text-anchor="start" x="568.5" y="-30" font-family="Helvetica,sans-Serif" font-size="10.00">+ showWebinterface()</text>
</a>
</g>
</g>
<!-- Node7&#45;&gt;Node10 -->
<g id="edge9" class="edge"><title>Node7&#45;&gt;Node10</title>
<path fill="none" stroke="midnightblue" d="M524.244,-240.739C545.148,-208.04 571.083,-167.47 591.668,-135.27"/>
<polygon fill="none" stroke="midnightblue" points="521.205,-238.995 518.768,-249.306 527.103,-242.765 521.205,-238.995"/>
</g>
</g>
</svg>
        <g id="navigator" transform="translate(0 0)" fill="#404254">
                <rect fill="#f2f5e9" fill-opacity="0.5" stroke="#606060" stroke-width=".5" x="0" y="0" width="60" height="60"/>
                <use id="zoomplus" xlink:href="#zoomPlus" x="17" y="9" onmousedown="handleZoom(evt,'in')"/>
                <use id="zoomminus" xlink:href="#zoomMin" x="42" y="9" onmousedown="handleZoom(evt,'out')"/>
                <use id="reset" xlink:href="#resetDef" x="30" y="36" onmousedown="handleReset()"/>
                <g id="arrowUp" xlink:href="#dirArrow" transform="translate(30 24)" onmousedown="handlePan(0,-1)">
                  <use xlink:href="#rim" fill="#404040">
                        <set attributeName="fill" to="#808080" begin="arrowUp.mouseover" end="arrowUp.mouseout"/>
                  </use>
                  <path fill="none" stroke="white" stroke-width="1.5" d="M0,-3.0v7 M-2.5,-0.5L0,-3.0L2.5,-0.5"/>
                </g>
                <g id="arrowRight" xlink:href="#dirArrow" transform="rotate(90) translate(36 -43)" onmousedown="handlePan(1,0)">
                  <use xlink:href="#rim" fill="#404040">
                        <set attributeName="fill" to="#808080" begin="arrowRight.mouseover" end="arrowRight.mouseout"/>
                  </use>
                  <path fill="none" stroke="white" stroke-width="1.5" d="M0,-3.0v7 M-2.5,-0.5L0,-3.0L2.5,-0.5"/>
                </g>
                <g id="arrowDown" xlink:href="#dirArrow" transform="rotate(180) translate(-30 -48)" onmousedown="handlePan(0,1)">
                  <use xlink:href="#rim" fill="#404040">
                        <set attributeName="fill" to="#808080" begin="arrowDown.mouseover" end="arrowDown.mouseout"/>
                  </use>
                  <path fill="none" stroke="white" stroke-width="1.5" d="M0,-3.0v7 M-2.5,-0.5L0,-3.0L2.5,-0.5"/>
                </g>
                <g id="arrowLeft" xlink:href="#dirArrow" transform="rotate(270) translate(-36 17)" onmousedown="handlePan(-1,0)">
                  <use xlink:href="#rim" fill="#404040">
                        <set attributeName="fill" to="#808080" begin="arrowLeft.mouseover" end="arrowLeft.mouseout"/>
                  </use>
                  <path fill="none" stroke="white" stroke-width="1.5" d="M0,-3.0v7 M-2.5,-0.5L0,-3.0L2.5,-0.5"/>
                </g>
        </g>
        <svg viewBox="0 0 15 15" width="100%" height="30px" preserveAspectRatio="xMaxYMin meet">
         <g id="arrow_out" transform="scale(0.3 0.3)">
          <a xlink:href="class_serializable__inherit__graph_org.svg" target="_base">
           <rect id="button" ry="5" rx="5" y="6" x="6" height="38" width="38"
                fill="#f2f5e9" fill-opacity="0.5" stroke="#606060" stroke-width="1.0"/>
           <path id="arrow"
             d="M 11.500037,31.436501 C 11.940474,20.09759 22.043105,11.32322 32.158766,21.979434 L 37.068811,17.246167 C 37.068811,17.246167 37.088388,32 37.088388,32 L 22.160133,31.978069 C 22.160133,31.978069 26.997745,27.140456 26.997745,27.140456 C 18.528582,18.264221 13.291696,25.230495 11.500037,31.436501 z"
             style="fill:#404040;"/>
          </a>
         </g>
        </svg>
</svg>
