<?xml version="1.0" encoding="UTF-8" standalone="no"?>
<!DOCTYPE svg PUBLIC "-//W3C//DTD SVG 1.1//EN"
 "http://www.w3.org/Graphics/SVG/1.1/DTD/svg11.dtd">
<!-- Generated by graphviz version 2.30.1 (20130214.1330)
 -->
<!-- Title: PWMOutput::setPWM Pages: 1 -->
<svg width="248pt" height="66pt"
 viewBox="0.00 0.00 248.00 66.00" xmlns="http://www.w3.org/2000/svg" xmlns:xlink="http://www.w3.org/1999/xlink">
<g id="graph0" class="graph" transform="scale(1 1) rotate(0) translate(4 62)">
<title>PWMOutput::setPWM</title>
<polygon fill="white" stroke="white" points="-4,5 -4,-62 245,-62 245,5 -4,5"/>
<!-- Node1 -->
<g id="node1" class="node"><title>Node1</title>
<polygon fill="#bfbfbf" stroke="black" points="0.5,-19.5 0.5,-38.5 115.5,-38.5 115.5,-19.5 0.5,-19.5"/>
<text text-anchor="middle" x="58" y="-26.5" font-family="Helvetica,sans-Serif" font-size="10.00">PWMOutput::setPWM</text>
</g>
<!-- Node2 -->
<g id="node2" class="node"><title>Node2</title>
<g id="a_node2"><a xlink:href="class_p_w_m_output.html#a44017f5976dfbd8ea19d8e5615bbf4be" target="_top" xlink:title="PWMOutput::on">
<polygon fill="white" stroke="black" points="152.5,-38.5 152.5,-57.5 239.5,-57.5 239.5,-38.5 152.5,-38.5"/>
<text text-anchor="middle" x="196" y="-45.5" font-family="Helvetica,sans-Serif" font-size="10.00">PWMOutput::on</text>
</a>
</g>
</g>
<!-- Node1&#45;&gt;Node2 -->
<g id="edge1" class="edge"><title>Node1&#45;&gt;Node2</title>
<path fill="none" stroke="midnightblue" d="M125.996,-38.3598C134.988,-39.6159 144.003,-40.8754 152.412,-42.0502"/>
<polygon fill="midnightblue" stroke="midnightblue" points="126.276,-34.865 115.888,-36.9476 125.308,-41.7977 126.276,-34.865"/>
</g>
<!-- Node3 -->
<g id="node3" class="node"><title>Node3</title>
<g id="a_node3"><a xlink:href="class_p_w_m_output.html#a3cdf5893f62c7dd9d11cadcc727376e3" target="_top" xlink:title="PWMOutput::off">
<polygon fill="white" stroke="black" points="153,-0.5 153,-19.5 239,-19.5 239,-0.5 153,-0.5"/>
<text text-anchor="middle" x="196" y="-7.5" font-family="Helvetica,sans-Serif" font-size="10.00">PWMOutput::off</text>
</a>
</g>
</g>
<!-- Node1&#45;&gt;Node3 -->
<g id="edge2" class="edge"><title>Node1&#45;&gt;Node3</title>
<path fill="none" stroke="midnightblue" d="M125.824,-19.6643C135.02,-18.3796 144.244,-17.0909 152.825,-15.8921"/>
<polygon fill="midnightblue" stroke="midnightblue" points="125.308,-16.2023 115.888,-21.0524 126.276,-23.135 125.308,-16.2023"/>
</g>
</g>
</svg>
