<?xml version="1.0" encoding="UTF-8" standalone="no"?>
<!DOCTYPE svg PUBLIC "-//W3C//DTD SVG 1.1//EN"
 "http://www.w3.org/Graphics/SVG/1.1/DTD/svg11.dtd">
<!-- Generated by graphviz version 2.30.1 (20130214.1330)
 -->
<!-- Title: Aquaduino::getControllerID Pages: 1 -->
<svg width="324pt" height="66pt"
 viewBox="0.00 0.00 324.00 66.00" xmlns="http://www.w3.org/2000/svg" xmlns:xlink="http://www.w3.org/1999/xlink">
<g id="graph0" class="graph" transform="scale(1 1) rotate(0) translate(4 62)">
<title>Aquaduino::getControllerID</title>
<polygon fill="white" stroke="white" points="-4,5 -4,-62 321,-62 321,5 -4,5"/>
<!-- Node1 -->
<g id="node1" class="node"><title>Node1</title>
<polygon fill="#bfbfbf" stroke="black" points="0,-19.5 0,-38.5 132,-38.5 132,-19.5 0,-19.5"/>
<text text-anchor="middle" x="66" y="-26.5" font-family="Helvetica,sans-Serif" font-size="10.00">Aquaduino::getControllerID</text>
</g>
<!-- Node2 -->
<g id="node2" class="node"><title>Node2</title>
<g id="a_node2"><a xlink:href="class_s_d_config_manager.html#abd9b2f27d34ccf9b76add87ca9f92f4f" target="_top" xlink:title="SDConfigManager::writeConfig">
<polygon fill="white" stroke="black" points="168,-38.5 168,-57.5 316,-57.5 316,-38.5 168,-38.5"/>
<text text-anchor="middle" x="242" y="-45.5" font-family="Helvetica,sans-Serif" font-size="10.00">SDConfigManager::writeConfig</text>
</a>
</g>
</g>
<!-- Node1&#45;&gt;Node2 -->
<g id="edge1" class="edge"><title>Node1&#45;&gt;Node2</title>
<path fill="none" stroke="midnightblue" d="M142.437,-37.2374C150.836,-38.1545 159.381,-39.0876 167.752,-40.0017"/>
<polygon fill="midnightblue" stroke="midnightblue" points="142.607,-33.7352 132.286,-36.129 141.847,-40.6939 142.607,-33.7352"/>
</g>
<!-- Node3 -->
<g id="node3" class="node"><title>Node3</title>
<g id="a_node3"><a xlink:href="class_s_d_config_manager.html#af4512ba0456349259714dc8f9cc582f0" target="_top" xlink:title="SDConfigManager::readConfig">
<polygon fill="white" stroke="black" points="169,-0.5 169,-19.5 315,-19.5 315,-0.5 169,-0.5"/>
<text text-anchor="middle" x="242" y="-7.5" font-family="Helvetica,sans-Serif" font-size="10.00">SDConfigManager::readConfig</text>
</a>
</g>
</g>
<!-- Node1&#45;&gt;Node3 -->
<g id="edge2" class="edge"><title>Node1&#45;&gt;Node3</title>
<path fill="none" stroke="midnightblue" d="M142.492,-20.7566C151.267,-19.7984 160.201,-18.8229 168.928,-17.8699"/>
<polygon fill="midnightblue" stroke="midnightblue" points="141.847,-17.3061 132.286,-21.871 142.607,-24.2648 141.847,-17.3061"/>
</g>
</g>
</svg>
