<?xml version="1.0" encoding="UTF-8" standalone="no"?>
<!DOCTYPE svg PUBLIC "-//W3C//DTD SVG 1.1//EN"
 "http://www.w3.org/Graphics/SVG/1.1/DTD/svg11.dtd">
<!-- Generated by graphviz version 2.30.1 (20130214.1330)
 -->
<!-- Title: LevelController::run Pages: 1 -->
<!--zoomable 161 -->
<svg id="main" version="1.1" xmlns="http://www.w3.org/2000/svg" xmlns:xlink="http://www.w3.org/1999/xlink" xml:space="preserve" onload="init(evt)">
<style type="text/css"><![CDATA[
.edge:hover path { stroke: red; }
.edge:hover polygon { stroke: red; fill: red; }
]]></style>
<script type="text/javascript"><![CDATA[
var edges = document.getElementsByTagName('g');
if (edges && edges.length) {
  for (var i=0;i<edges.length;i++) {
    if (edges[i].id.substr(0,4)=='edge') {
      edges[i].setAttribute('class','edge');
    }
  }
}
]]></script>
        <defs>
                <circle id="rim" cx="0" cy="0" r="7"/>
                <circle id="rim2" cx="0" cy="0" r="3.5"/>
                <g id="zoomPlus">
                        <use xlink:href="#rim" fill="#404040">
                                <set attributeName="fill" to="#808080" begin="zoomplus.mouseover" end="zoomplus.mouseout"/>
                        </use>
                        <path d="M-4,0h8M0,-4v8" fill="none" stroke="white" stroke-width="1.5" pointer-events="none"/>
                </g>
                <g id="zoomMin">
                        <use xlink:href="#rim" fill="#404040">
                                <set attributeName="fill" to="#808080" begin="zoomminus.mouseover" end="zoomminus.mouseout"/>
                        </use>
                        <path d="M-4,0h8" fill="none" stroke="white" stroke-width="1.5" pointer-events="none"/>
                </g>
                <g id="dirArrow">
                        <path fill="none" stroke="white" stroke-width="1.5" d="M0,-3.0v7 M-2.5,-0.5L0,-3.0L2.5,-0.5"/>
                </g>
               <g id="resetDef">
                       <use xlink:href="#rim2" fill="#404040">
                               <set attributeName="fill" to="#808080" begin="reset.mouseover" end="reset.mouseout"/>
                       </use>
               </g>
        </defs>

<script type="text/javascript">
var viewWidth = 624;
var viewHeight = 161;
var sectionId = 'dynsection-2';
</script>
<script xlink:href="svgpan.js"/>
<svg id="graph" class="graph">
<g id="viewport">
<title>LevelController::run</title>
<polygon fill="white" stroke="white" points="-4,5 -4,-157 621,-157 621,5 -4,5"/>
<!-- Node1 -->
<g id="node1" class="node"><title>Node1</title>
<polygon fill="#bfbfbf" stroke="black" points="0.5,-57.5 0.5,-76.5 99.5,-76.5 99.5,-57.5 0.5,-57.5"/>
<text text-anchor="middle" x="50" y="-64.5" font-family="Helvetica,sans-Serif" font-size="10.00">LevelController::run</text>
</g>
<!-- Node2 -->
<g id="node2" class="node"><title>Node2</title>
<g id="a_node2"><a xlink:href="class_aquaduino.html#a2d82d78d6a5c77504c45d5a233cfd54d" target="_top" xlink:title="Aquaduino::getLevel">
<polygon fill="white" stroke="black" points="149,-76.5 149,-95.5 253,-95.5 253,-76.5 149,-76.5"/>
<text text-anchor="middle" x="201" y="-83.5" font-family="Helvetica,sans-Serif" font-size="10.00">Aquaduino::getLevel</text>
</a>
</g>
</g>
<!-- Node1&#45;&gt;Node2 -->
<g id="edge1" class="edge"><title>Node1&#45;&gt;Node2</title>
<path fill="none" stroke="midnightblue" d="M99.7882,-73.2213C112.178,-74.8012 125.648,-76.5189 138.577,-78.1675"/>
<polygon fill="midnightblue" stroke="midnightblue" points="138.435,-81.6777 148.798,-79.4708 139.321,-74.7339 138.435,-81.6777"/>
</g>
<!-- Node3 -->
<g id="node3" class="node"><title>Node3</title>
<g id="a_node3"><a xlink:href="class_controller.html#ab276a8fd2df621098a9a24f5dfcc6bb2" target="_top" xlink:title="Controller::allMyActuators">
<polygon fill="white" stroke="black" points="136.5,-38.5 136.5,-57.5 265.5,-57.5 265.5,-38.5 136.5,-38.5"/>
<text text-anchor="middle" x="201" y="-45.5" font-family="Helvetica,sans-Serif" font-size="10.00">Controller::allMyActuators</text>
</a>
</g>
</g>
<!-- Node1&#45;&gt;Node3 -->
<g id="edge2" class="edge"><title>Node1&#45;&gt;Node3</title>
<path fill="none" stroke="midnightblue" d="M99.7882,-60.7787C108.298,-59.6935 117.318,-58.5434 126.322,-57.3952"/>
<polygon fill="midnightblue" stroke="midnightblue" points="126.976,-60.8402 136.453,-56.1033 126.09,-53.8965 126.976,-60.8402"/>
</g>
<!-- Node4 -->
<g id="node4" class="node"><title>Node4</title>
<g id="a_node4"><a xlink:href="class_aquaduino.html#a088ba3bf2e3429f341e09d0c8f62ded4" target="_top" xlink:title="Aquaduino::getAssignedActuators">
<polygon fill="white" stroke="black" points="302,-76.5 302,-95.5 466,-95.5 466,-76.5 302,-76.5"/>
<text text-anchor="middle" x="384" y="-83.5" font-family="Helvetica,sans-Serif" font-size="10.00">Aquaduino::getAssignedActuators</text>
</a>
</g>
</g>
<!-- Node3&#45;&gt;Node4 -->
<g id="edge3" class="edge"><title>Node3&#45;&gt;Node4</title>
<path fill="none" stroke="midnightblue" d="M247.674,-57.589C271.989,-62.6939 302.08,-69.0113 327.708,-74.3918"/>
<polygon fill="midnightblue" stroke="midnightblue" points="327.149,-77.8505 337.654,-76.4799 328.587,-70.9999 327.149,-77.8505"/>
</g>
<!-- Node9 -->
<g id="node9" class="node"><title>Node9</title>
<g id="a_node9"><a xlink:href="class_actuator.html#a40700c01e3123133fd11157f9707ac8a" target="_top" xlink:title="Actuator::on">
<polygon fill="white" stroke="black" points="349,-38.5 349,-57.5 419,-57.5 419,-38.5 349,-38.5"/>
<text text-anchor="middle" x="384" y="-45.5" font-family="Helvetica,sans-Serif" font-size="10.00">Actuator::on</text>
</a>
</g>
</g>
<!-- Node3&#45;&gt;Node9 -->
<g id="edge8" class="edge"><title>Node3&#45;&gt;Node9</title>
<path fill="none" stroke="midnightblue" d="M265.559,-48C289.742,-48 316.748,-48 338.76,-48"/>
<polygon fill="midnightblue" stroke="midnightblue" points="338.811,-51.5001 348.811,-48 338.811,-44.5001 338.811,-51.5001"/>
</g>
<!-- Node10 -->
<g id="node10" class="node"><title>Node10</title>
<g id="a_node10"><a xlink:href="class_actuator.html#a767243ef9f90e7a99175ad466cc02916" target="_top" xlink:title="Actuator::off">
<polygon fill="white" stroke="black" points="349.5,-0.5 349.5,-19.5 418.5,-19.5 418.5,-0.5 349.5,-0.5"/>
<text text-anchor="middle" x="384" y="-7.5" font-family="Helvetica,sans-Serif" font-size="10.00">Actuator::off</text>
</a>
</g>
</g>
<!-- Node3&#45;&gt;Node10 -->
<g id="edge9" class="edge"><title>Node3&#45;&gt;Node10</title>
<path fill="none" stroke="midnightblue" d="M247.674,-38.411C275.842,-32.4973 311.761,-24.9562 339.514,-19.1297"/>
<polygon fill="midnightblue" stroke="midnightblue" points="340.272,-22.5468 349.34,-17.0668 338.834,-15.6962 340.272,-22.5468"/>
</g>
<!-- Node5 -->
<g id="node5" class="node"><title>Node5</title>
<g id="a_node5"><a xlink:href="class_array_list.html#a20ac96a11ec710178bec5d1e78a266b8" target="_top" xlink:title="ArrayList::findElement">
<polygon fill="white" stroke="black" points="502.5,-133.5 502.5,-152.5 615.5,-152.5 615.5,-133.5 502.5,-133.5"/>
<text text-anchor="middle" x="559" y="-140.5" font-family="Helvetica,sans-Serif" font-size="10.00">ArrayList::findElement</text>
</a>
</g>
</g>
<!-- Node4&#45;&gt;Node5 -->
<g id="edge4" class="edge"><title>Node4&#45;&gt;Node5</title>
<path fill="none" stroke="midnightblue" d="M413.956,-95.5405C442.772,-105.035 487.182,-119.667 519.071,-130.174"/>
<polygon fill="midnightblue" stroke="midnightblue" points="518.356,-133.623 528.949,-133.428 520.547,-126.975 518.356,-133.623"/>
</g>
<!-- Node6 -->
<g id="node6" class="node"><title>Node6</title>
<g id="a_node6"><a xlink:href="class_array_list.html#ada61a62619272992ac7fb0da2cf400b8" target="_top" xlink:title="ArrayList::resetIterator">
<polygon fill="white" stroke="black" points="502.5,-95.5 502.5,-114.5 615.5,-114.5 615.5,-95.5 502.5,-95.5"/>
<text text-anchor="middle" x="559" y="-102.5" font-family="Helvetica,sans-Serif" font-size="10.00">ArrayList::resetIterator</text>
</a>
</g>
</g>
<!-- Node4&#45;&gt;Node6 -->
<g id="edge5" class="edge"><title>Node4&#45;&gt;Node6</title>
<path fill="none" stroke="midnightblue" d="M466.181,-94.9159C475.015,-95.886 483.923,-96.8644 492.535,-97.8102"/>
<polygon fill="midnightblue" stroke="midnightblue" points="492.164,-101.29 502.486,-98.9031 492.928,-94.3323 492.164,-101.29"/>
</g>
<!-- Node7 -->
<g id="node7" class="node"><title>Node7</title>
<g id="a_node7"><a xlink:href="class_array_list.html#a921b9822fbf598f6fece601973db200b" target="_top" xlink:title="ArrayList::getNext">
<polygon fill="white" stroke="black" points="511.5,-57.5 511.5,-76.5 606.5,-76.5 606.5,-57.5 511.5,-57.5"/>
<text text-anchor="middle" x="559" y="-64.5" font-family="Helvetica,sans-Serif" font-size="10.00">ArrayList::getNext</text>
</a>
</g>
</g>
<!-- Node4&#45;&gt;Node7 -->
<g id="edge6" class="edge"><title>Node4&#45;&gt;Node7</title>
<path fill="none" stroke="midnightblue" d="M466.181,-77.0841C478.011,-75.7849 489.974,-74.4711 501.18,-73.2403"/>
<polygon fill="midnightblue" stroke="midnightblue" points="501.675,-76.7071 511.234,-72.1362 500.911,-69.7489 501.675,-76.7071"/>
</g>
<!-- Node8 -->
<g id="node8" class="node"><title>Node8</title>
<g id="a_node8"><a xlink:href="class_actuator.html#aa12e6c3347af475a8b6ea1c8b38bd9e6" target="_top" xlink:title="Actuator::getController">
<polygon fill="white" stroke="black" points="502,-19.5 502,-38.5 616,-38.5 616,-19.5 502,-19.5"/>
<text text-anchor="middle" x="559" y="-26.5" font-family="Helvetica,sans-Serif" font-size="10.00">Actuator::getController</text>
</a>
</g>
</g>
<!-- Node4&#45;&gt;Node8 -->
<g id="edge7" class="edge"><title>Node4&#45;&gt;Node8</title>
<path fill="none" stroke="midnightblue" d="M434.858,-76.418C445.294,-73.8274 456.124,-70.6948 466,-67 482.945,-60.6604 485.382,-55.1511 502,-48 506.827,-45.9228 511.963,-43.9166 517.091,-42.0362"/>
<polygon fill="midnightblue" stroke="midnightblue" points="518.594,-45.2174 526.859,-38.5892 516.264,-38.6164 518.594,-45.2174"/>
</g>
</g>
</svg>
        <g id="navigator" transform="translate(0 0)" fill="#404254">
                <rect fill="#f2f5e9" fill-opacity="0.5" stroke="#606060" stroke-width=".5" x="0" y="0" width="60" height="60"/>
                <use id="zoomplus" xlink:href="#zoomPlus" x="17" y="9" onmousedown="handleZoom(evt,'in')"/>
                <use id="zoomminus" xlink:href="#zoomMin" x="42" y="9" onmousedown="handleZoom(evt,'out')"/>
                <use id="reset" xlink:href="#resetDef" x="30" y="36" onmousedown="handleReset()"/>
                <g id="arrowUp" xlink:href="#dirArrow" transform="translate(30 24)" onmousedown="handlePan(0,-1)">
                  <use xlink:href="#rim" fill="#404040">
                        <set attributeName="fill" to="#808080" begin="arrowUp.mouseover" end="arrowUp.mouseout"/>
                  </use>
                  <path fill="none" stroke="white" stroke-width="1.5" d="M0,-3.0v7 M-2.5,-0.5L0,-3.0L2.5,-0.5"/>
                </g>
                <g id="arrowRight" xlink:href="#dirArrow" transform="rotate(90) translate(36 -43)" onmousedown="handlePan(1,0)">
                  <use xlink:href="#rim" fill="#404040">
                        <set attributeName="fill" to="#808080" begin="arrowRight.mouseover" end="arrowRight.mouseout"/>
                  </use>
                  <path fill="none" stroke="white" stroke-width="1.5" d="M0,-3.0v7 M-2.5,-0.5L0,-3.0L2.5,-0.5"/>
                </g>
                <g id="arrowDown" xlink:href="#dirArrow" transform="rotate(180) translate(-30 -48)" onmousedown="handlePan(0,1)">
                  <use xlink:href="#rim" fill="#404040">
                        <set attributeName="fill" to="#808080" begin="arrowDown.mouseover" end="arrowDown.mouseout"/>
                  </use>
                  <path fill="none" stroke="white" stroke-width="1.5" d="M0,-3.0v7 M-2.5,-0.5L0,-3.0L2.5,-0.5"/>
                </g>
                <g id="arrowLeft" xlink:href="#dirArrow" transform="rotate(270) translate(-36 17)" onmousedown="handlePan(-1,0)">
                  <use xlink:href="#rim" fill="#404040">
                        <set attributeName="fill" to="#808080" begin="arrowLeft.mouseover" end="arrowLeft.mouseout"/>
                  </use>
                  <path fill="none" stroke="white" stroke-width="1.5" d="M0,-3.0v7 M-2.5,-0.5L0,-3.0L2.5,-0.5"/>
                </g>
        </g>
        <svg viewBox="0 0 15 15" width="100%" height="30px" preserveAspectRatio="xMaxYMin meet">
         <g id="arrow_out" transform="scale(0.3 0.3)">
          <a xlink:href="class_level_controller_acf5109c2a5b60a9923e4c7b6d4176f6c_cgraph_org.svg" target="_base">
           <rect id="button" ry="5" rx="5" y="6" x="6" height="38" width="38"
                fill="#f2f5e9" fill-opacity="0.5" stroke="#606060" stroke-width="1.0"/>
           <path id="arrow"
             d="M 11.500037,31.436501 C 11.940474,20.09759 22.043105,11.32322 32.158766,21.979434 L 37.068811,17.246167 C 37.068811,17.246167 37.088388,32 37.088388,32 L 22.160133,31.978069 C 22.160133,31.978069 26.997745,27.140456 26.997745,27.140456 C 18.528582,18.264221 13.291696,25.230495 11.500037,31.436501 z"
             style="fill:#404040;"/>
          </a>
         </g>
        </svg>
</svg>
