<?xml version="1.0" encoding="UTF-8" standalone="no"?>
<!DOCTYPE svg PUBLIC "-//W3C//DTD SVG 1.1//EN"
 "http://www.w3.org/Graphics/SVG/1.1/DTD/svg11.dtd">
<!-- Generated by graphviz version 2.30.1 (20130214.1330)
 -->
<!-- Title: Aquaduino::enableNTP Pages: 1 -->
<svg width="640pt" height="47pt"
 viewBox="0.00 0.00 640.00 47.00" xmlns="http://www.w3.org/2000/svg" xmlns:xlink="http://www.w3.org/1999/xlink">
<g id="graph0" class="graph" transform="scale(1 1) rotate(0) translate(4 43)">
<title>Aquaduino::enableNTP</title>
<polygon fill="white" stroke="white" points="-4,5 -4,-43 637,-43 637,5 -4,5"/>
<!-- Node1 -->
<g id="node1" class="node"><title>Node1</title>
<polygon fill="#bfbfbf" stroke="black" points="0,-19.5 0,-38.5 116,-38.5 116,-19.5 0,-19.5"/>
<text text-anchor="middle" x="58" y="-26.5" font-family="Helvetica,sans-Serif" font-size="10.00">Aquaduino::enableNTP</text>
</g>
<!-- Node2 -->
<g id="node2" class="node"><title>Node2</title>
<g id="a_node2"><a xlink:href="_aquaduino_8cpp.html#a4fc01d736fe50cf5b977f755b675f11d" target="_top" xlink:title="setup">
<polygon fill="white" stroke="black" points="590.5,-19.5 590.5,-38.5 631.5,-38.5 631.5,-19.5 590.5,-19.5"/>
<text text-anchor="middle" x="611" y="-26.5" font-family="Helvetica,sans-Serif" font-size="10.00">setup</text>
</a>
</g>
</g>
<!-- Node1&#45;&gt;Node2 -->
<g id="edge1" class="edge"><title>Node1&#45;&gt;Node2</title>
<path fill="none" stroke="midnightblue" d="M126.417,-29C252.15,-29 516.388,-29 590.376,-29"/>
<polygon fill="midnightblue" stroke="midnightblue" points="126.149,-25.5001 116.149,-29 126.149,-32.5001 126.149,-25.5001"/>
</g>
<!-- Node3 -->
<g id="node3" class="node"><title>Node3</title>
<g id="a_node3"><a xlink:href="dispatch_8cpp.html#a57a05a1aa70f5b076936a72ec80f9db3" target="_top" xlink:title="configCmd">
<polygon fill="white" stroke="black" points="152,-0.5 152,-19.5 214,-19.5 214,-0.5 152,-0.5"/>
<text text-anchor="middle" x="183" y="-7.5" font-family="Helvetica,sans-Serif" font-size="10.00">configCmd</text>
</a>
</g>
</g>
<!-- Node1&#45;&gt;Node3 -->
<g id="edge2" class="edge"><title>Node1&#45;&gt;Node3</title>
<path fill="none" stroke="midnightblue" d="M126.277,-18.6076C135.196,-17.23 143.95,-15.8776 151.783,-14.6677"/>
<polygon fill="midnightblue" stroke="midnightblue" points="125.527,-15.1818 116.179,-20.1675 126.596,-22.0998 125.527,-15.1818"/>
</g>
<!-- Node4 -->
<g id="node4" class="node"><title>Node4</title>
<g id="a_node4"><a xlink:href="dispatch_8cpp.html#a0c9bf0c5f9946202d30b8743843e361a" target="_top" xlink:title="controllerDispatchCommand">
<polygon fill="white" stroke="black" points="250.5,-0.5 250.5,-19.5 389.5,-19.5 389.5,-0.5 250.5,-0.5"/>
<text text-anchor="middle" x="320" y="-7.5" font-family="Helvetica,sans-Serif" font-size="10.00">controllerDispatchCommand</text>
</a>
</g>
</g>
<!-- Node3&#45;&gt;Node4 -->
<g id="edge3" class="edge"><title>Node3&#45;&gt;Node4</title>
<path fill="none" stroke="midnightblue" d="M224.362,-10C232.621,-10 241.53,-10 250.463,-10"/>
<polygon fill="midnightblue" stroke="midnightblue" points="224.297,-6.5001 214.297,-10 224.297,-13.5001 224.297,-6.5001"/>
</g>
<!-- Node5 -->
<g id="node5" class="node"><title>Node5</title>
<g id="a_node5"><a xlink:href="class_aquaduino.html#a6f21b3e1fe7fd8b1c13d1e78372abed6" target="_top" xlink:title="Aquaduino::setWebserver">
<polygon fill="white" stroke="black" points="426,-0.5 426,-19.5 554,-19.5 554,-0.5 426,-0.5"/>
<text text-anchor="middle" x="490" y="-7.5" font-family="Helvetica,sans-Serif" font-size="10.00">Aquaduino::setWebserver</text>
</a>
</g>
</g>
<!-- Node4&#45;&gt;Node5 -->
<g id="edge4" class="edge"><title>Node4&#45;&gt;Node5</title>
<path fill="none" stroke="midnightblue" d="M399.987,-10C408.699,-10 417.482,-10 425.961,-10"/>
<polygon fill="midnightblue" stroke="midnightblue" points="399.817,-6.5001 389.817,-10 399.817,-13.5001 399.817,-6.5001"/>
</g>
<!-- Node5&#45;&gt;Node2 -->
<g id="edge5" class="edge"><title>Node5&#45;&gt;Node2</title>
<path fill="none" stroke="midnightblue" d="M560.894,-21.1595C571.733,-22.8901 582.097,-24.5449 590.487,-25.8845"/>
<polygon fill="midnightblue" stroke="midnightblue" points="561.275,-17.6762 550.849,-19.5557 560.172,-24.5886 561.275,-17.6762"/>
</g>
</g>
</svg>
