<?xml version="1.0" encoding="UTF-8" standalone="no"?>
<!DOCTYPE svg PUBLIC "-//W3C//DTD SVG 1.1//EN"
 "http://www.w3.org/Graphics/SVG/1.1/DTD/svg11.dtd">
<!-- Generated by graphviz version 2.30.1 (20130214.1330)
 -->
<!-- Title: Aquaduino::addActuator Pages: 1 -->
<svg width="450pt" height="142pt"
 viewBox="0.00 0.00 450.00 142.00" xmlns="http://www.w3.org/2000/svg" xmlns:xlink="http://www.w3.org/1999/xlink">
<g id="graph0" class="graph" transform="scale(1 1) rotate(0) translate(4 138)">
<title>Aquaduino::addActuator</title>
<polygon fill="white" stroke="white" points="-4,5 -4,-138 447,-138 447,5 -4,5"/>
<!-- Node1 -->
<g id="node1" class="node"><title>Node1</title>
<polygon fill="#bfbfbf" stroke="black" points="0.5,-57.5 0.5,-76.5 121.5,-76.5 121.5,-57.5 0.5,-57.5"/>
<text text-anchor="middle" x="61" y="-64.5" font-family="Helvetica,sans-Serif" font-size="10.00">Aquaduino::addActuator</text>
</g>
<!-- Node2 -->
<g id="node2" class="node"><title>Node2</title>
<g id="a_node2"><a xlink:href="class_array_list.html#a0b32a1e8d387337f2965b054edd1f780" target="_top" xlink:title="ArrayList::add">
<polygon fill="white" stroke="black" points="176.5,-114.5 176.5,-133.5 253.5,-133.5 253.5,-114.5 176.5,-114.5"/>
<text text-anchor="middle" x="215" y="-121.5" font-family="Helvetica,sans-Serif" font-size="10.00">ArrayList::add</text>
</a>
</g>
</g>
<!-- Node1&#45;&gt;Node2 -->
<g id="edge1" class="edge"><title>Node1&#45;&gt;Node2</title>
<path fill="none" stroke="midnightblue" d="M85.1542,-76.5401C104.522,-84.4295 132.93,-95.7916 158,-105 163.556,-107.041 169.45,-109.126 175.248,-111.132"/>
<polygon fill="midnightblue" stroke="midnightblue" points="174.244,-114.488 184.838,-114.412 176.509,-107.864 174.244,-114.488"/>
</g>
<!-- Node3 -->
<g id="node3" class="node"><title>Node3</title>
<g id="a_node3"><a xlink:href="class_object.html#aff677ddb7fe429a58e22cd3cadbcee7b" target="_top" xlink:title="Object::getName">
<polygon fill="white" stroke="black" points="170,-76.5 170,-95.5 260,-95.5 260,-76.5 170,-76.5"/>
<text text-anchor="middle" x="215" y="-83.5" font-family="Helvetica,sans-Serif" font-size="10.00">Object::getName</text>
</a>
</g>
</g>
<!-- Node1&#45;&gt;Node3 -->
<g id="edge2" class="edge"><title>Node1&#45;&gt;Node3</title>
<path fill="none" stroke="midnightblue" d="M121.638,-74.4548C134.114,-76.0142 147.207,-77.6509 159.485,-79.1856"/>
<polygon fill="midnightblue" stroke="midnightblue" points="159.219,-82.6795 169.576,-80.4469 160.087,-75.7335 159.219,-82.6795"/>
</g>
<!-- Node4 -->
<g id="node4" class="node"><title>Node4</title>
<g id="a_node4"><a xlink:href="class_object.html#abb7e16f550fe4d7f3b6e942103dd2a2a" target="_top" xlink:title="Object::setURL">
<polygon fill="white" stroke="black" points="173.5,-38.5 173.5,-57.5 256.5,-57.5 256.5,-38.5 173.5,-38.5"/>
<text text-anchor="middle" x="215" y="-45.5" font-family="Helvetica,sans-Serif" font-size="10.00">Object::setURL</text>
</a>
</g>
</g>
<!-- Node1&#45;&gt;Node4 -->
<g id="edge3" class="edge"><title>Node1&#45;&gt;Node4</title>
<path fill="none" stroke="midnightblue" d="M121.638,-59.5452C135.424,-57.822 149.963,-56.0046 163.324,-54.3345"/>
<polygon fill="midnightblue" stroke="midnightblue" points="163.791,-57.8035 173.279,-53.0901 162.922,-50.8576 163.791,-57.8035"/>
</g>
<!-- Node5 -->
<g id="node5" class="node"><title>Node5</title>
<g id="a_node5"><a xlink:href="class_aquaduino.html#a4c99a340831a418ad0956daf373e3797" target="_top" xlink:title="Aquaduino::readConfig">
<polygon fill="white" stroke="black" points="158,-0.5 158,-19.5 272,-19.5 272,-0.5 158,-0.5"/>
<text text-anchor="middle" x="215" y="-7.5" font-family="Helvetica,sans-Serif" font-size="10.00">Aquaduino::readConfig</text>
</a>
</g>
</g>
<!-- Node1&#45;&gt;Node5 -->
<g id="edge4" class="edge"><title>Node1&#45;&gt;Node5</title>
<path fill="none" stroke="midnightblue" d="M85.1542,-57.4599C104.522,-49.5705 132.93,-38.2084 158,-29 163.556,-26.9591 169.45,-24.8738 175.248,-22.8676"/>
<polygon fill="midnightblue" stroke="midnightblue" points="176.509,-26.1355 184.838,-19.5877 174.244,-19.5122 176.509,-26.1355"/>
</g>
<!-- Node6 -->
<g id="node6" class="node"><title>Node6</title>
<g id="a_node6"><a xlink:href="class_config_manager.html#aab9cab3859b776fdc9e6eba02e53b9ee" target="_top" xlink:title="ConfigManager::readConfig">
<polygon fill="white" stroke="black" points="308.5,-0.5 308.5,-19.5 441.5,-19.5 441.5,-0.5 308.5,-0.5"/>
<text text-anchor="middle" x="375" y="-7.5" font-family="Helvetica,sans-Serif" font-size="10.00">ConfigManager::readConfig</text>
</a>
</g>
</g>
<!-- Node5&#45;&gt;Node6 -->
<g id="edge5" class="edge"><title>Node5&#45;&gt;Node6</title>
<path fill="none" stroke="midnightblue" d="M272.15,-10C280.565,-10 289.359,-10 298.102,-10"/>
<polygon fill="midnightblue" stroke="midnightblue" points="298.316,-13.5001 308.316,-10 298.316,-6.5001 298.316,-13.5001"/>
</g>
</g>
</svg>
