<?xml version="1.0" encoding="UTF-8" standalone="no"?>
<!DOCTYPE svg PUBLIC "-//W3C//DTD SVG 1.1//EN"
 "http://www.w3.org/Graphics/SVG/1.1/DTD/svg11.dtd">
<!-- Generated by graphviz version 2.30.1 (20130214.1330)
 -->
<!-- Title: ConfigManager::readConfig Pages: 1 -->
<svg width="532pt" height="104pt"
 viewBox="0.00 0.00 532.00 104.00" xmlns="http://www.w3.org/2000/svg" xmlns:xlink="http://www.w3.org/1999/xlink">
<g id="graph0" class="graph" transform="scale(1 1) rotate(0) translate(4 100)">
<title>ConfigManager::readConfig</title>
<polygon fill="white" stroke="white" points="-4,5 -4,-100 529,-100 529,5 -4,5"/>
<!-- Node1 -->
<g id="node1" class="node"><title>Node1</title>
<polygon fill="#bfbfbf" stroke="black" points="0.5,-38.5 0.5,-57.5 133.5,-57.5 133.5,-38.5 0.5,-38.5"/>
<text text-anchor="middle" x="67" y="-45.5" font-family="Helvetica,sans-Serif" font-size="10.00">ConfigManager::readConfig</text>
</g>
<!-- Node2 -->
<g id="node2" class="node"><title>Node2</title>
<g id="a_node2"><a xlink:href="class_aquaduino.html#a4c99a340831a418ad0956daf373e3797" target="_top" xlink:title="Aquaduino::readConfig">
<polygon fill="white" stroke="black" points="170,-38.5 170,-57.5 284,-57.5 284,-38.5 170,-38.5"/>
<text text-anchor="middle" x="227" y="-45.5" font-family="Helvetica,sans-Serif" font-size="10.00">Aquaduino::readConfig</text>
</a>
</g>
</g>
<!-- Node1&#45;&gt;Node2 -->
<g id="edge1" class="edge"><title>Node1&#45;&gt;Node2</title>
<path fill="none" stroke="midnightblue" d="M143.867,-48C152.627,-48 161.438,-48 169.869,-48"/>
<polygon fill="midnightblue" stroke="midnightblue" points="143.634,-44.5001 133.634,-48 143.634,-51.5001 143.634,-44.5001"/>
</g>
<!-- Node3 -->
<g id="node3" class="node"><title>Node3</title>
<g id="a_node3"><a xlink:href="class_aquaduino.html#afc3c3509621a7830b1a79cf7ca8aae63" target="_top" xlink:title="Aquaduino::Aquaduino">
<polygon fill="white" stroke="black" points="326,-76.5 326,-95.5 440,-95.5 440,-76.5 326,-76.5"/>
<text text-anchor="middle" x="383" y="-83.5" font-family="Helvetica,sans-Serif" font-size="10.00">Aquaduino::Aquaduino</text>
</a>
</g>
</g>
<!-- Node2&#45;&gt;Node3 -->
<g id="edge2" class="edge"><title>Node2&#45;&gt;Node3</title>
<path fill="none" stroke="midnightblue" d="M276.794,-60.04C298.308,-65.3488 323.232,-71.4988 343.419,-76.4799"/>
<polygon fill="midnightblue" stroke="midnightblue" points="277.408,-56.5867 266.861,-57.589 275.731,-63.3828 277.408,-56.5867"/>
</g>
<!-- Node4 -->
<g id="node4" class="node"><title>Node4</title>
<g id="a_node4"><a xlink:href="class_aquaduino.html#aa6fc15ac00f3216cbb31654b2e457e7e" target="_top" xlink:title="Aquaduino::addController">
<polygon fill="white" stroke="black" points="320.5,-38.5 320.5,-57.5 445.5,-57.5 445.5,-38.5 320.5,-38.5"/>
<text text-anchor="middle" x="383" y="-45.5" font-family="Helvetica,sans-Serif" font-size="10.00">Aquaduino::addController</text>
</a>
</g>
</g>
<!-- Node2&#45;&gt;Node4 -->
<g id="edge3" class="edge"><title>Node2&#45;&gt;Node4</title>
<path fill="none" stroke="midnightblue" d="M294.115,-48C302.801,-48 311.675,-48 320.283,-48"/>
<polygon fill="midnightblue" stroke="midnightblue" points="294.033,-44.5001 284.033,-48 294.033,-51.5001 294.033,-44.5001"/>
</g>
<!-- Node6 -->
<g id="node6" class="node"><title>Node6</title>
<g id="a_node6"><a xlink:href="class_aquaduino.html#a25e61694a18574fc00fdc14a8ef0d7ac" target="_top" xlink:title="Aquaduino::addActuator">
<polygon fill="white" stroke="black" points="322.5,-0.5 322.5,-19.5 443.5,-19.5 443.5,-0.5 322.5,-0.5"/>
<text text-anchor="middle" x="383" y="-7.5" font-family="Helvetica,sans-Serif" font-size="10.00">Aquaduino::addActuator</text>
</a>
</g>
</g>
<!-- Node2&#45;&gt;Node6 -->
<g id="edge5" class="edge"><title>Node2&#45;&gt;Node6</title>
<path fill="none" stroke="midnightblue" d="M276.794,-35.96C298.308,-30.6512 323.232,-24.5012 343.419,-19.5201"/>
<polygon fill="midnightblue" stroke="midnightblue" points="275.731,-32.6172 266.861,-38.411 277.408,-39.4133 275.731,-32.6172"/>
</g>
<!-- Node5 -->
<g id="node5" class="node"><title>Node5</title>
<g id="a_node5"><a xlink:href="_aquaduino_8cpp.html#a4fc01d736fe50cf5b977f755b675f11d" target="_top" xlink:title="setup">
<polygon fill="white" stroke="black" points="482.5,-19.5 482.5,-38.5 523.5,-38.5 523.5,-19.5 482.5,-19.5"/>
<text text-anchor="middle" x="503" y="-26.5" font-family="Helvetica,sans-Serif" font-size="10.00">setup</text>
</a>
</g>
</g>
<!-- Node4&#45;&gt;Node5 -->
<g id="edge4" class="edge"><title>Node4&#45;&gt;Node5</title>
<path fill="none" stroke="midnightblue" d="M453.227,-36.8533C463.89,-35.1363 474.094,-33.4933 482.387,-32.158"/>
<polygon fill="midnightblue" stroke="midnightblue" points="452.662,-33.3991 443.346,-38.4443 453.775,-40.3101 452.662,-33.3991"/>
</g>
<!-- Node6&#45;&gt;Node5 -->
<g id="edge6" class="edge"><title>Node6&#45;&gt;Node5</title>
<path fill="none" stroke="midnightblue" d="M453.227,-21.1467C463.89,-22.8637 474.094,-24.5067 482.387,-25.842"/>
<polygon fill="midnightblue" stroke="midnightblue" points="453.775,-17.6899 443.346,-19.5557 452.662,-24.6009 453.775,-17.6899"/>
</g>
</g>
</svg>
