<?xml version="1.0" encoding="UTF-8" standalone="no"?>
<!DOCTYPE svg PUBLIC "-//W3C//DTD SVG 1.1//EN"
 "http://www.w3.org/Graphics/SVG/1.1/DTD/svg11.dtd">
<!-- Generated by graphviz version 2.30.1 (20130214.1330)
 -->
<!-- Title: Aquaduino::getDNS Pages: 1 -->
<svg width="776pt" height="28pt"
 viewBox="0.00 0.00 776.00 28.00" xmlns="http://www.w3.org/2000/svg" xmlns:xlink="http://www.w3.org/1999/xlink">
<g id="graph0" class="graph" transform="scale(1 1) rotate(0) translate(4 24)">
<title>Aquaduino::getDNS</title>
<polygon fill="white" stroke="white" points="-4,5 -4,-24 773,-24 773,5 -4,5"/>
<!-- Node1 -->
<g id="node1" class="node"><title>Node1</title>
<polygon fill="#bfbfbf" stroke="black" points="0,-0.5 0,-19.5 102,-19.5 102,-0.5 0,-0.5"/>
<text text-anchor="middle" x="51" y="-7.5" font-family="Helvetica,sans-Serif" font-size="10.00">Aquaduino::getDNS</text>
</g>
<!-- Node2 -->
<g id="node2" class="node"><title>Node2</title>
<g id="a_node2"><a xlink:href="configweb_8cpp.html#af63922b5bba9bcc24b202484ec739456" target="_top" xlink:title="printTopLevelTemplate">
<polygon fill="white" stroke="black" points="138.5,-0.5 138.5,-19.5 251.5,-19.5 251.5,-0.5 138.5,-0.5"/>
<text text-anchor="middle" x="195" y="-7.5" font-family="Helvetica,sans-Serif" font-size="10.00">printTopLevelTemplate</text>
</a>
</g>
</g>
<!-- Node1&#45;&gt;Node2 -->
<g id="edge1" class="edge"><title>Node1&#45;&gt;Node2</title>
<path fill="none" stroke="midnightblue" d="M112.065,-10C120.698,-10 129.552,-10 138.099,-10"/>
<polygon fill="midnightblue" stroke="midnightblue" points="112.064,-6.5001 102.064,-10 112.064,-13.5001 112.064,-6.5001"/>
</g>
<!-- Node3 -->
<g id="node3" class="node"><title>Node3</title>
<g id="a_node3"><a xlink:href="dispatch_8cpp.html#a57a05a1aa70f5b076936a72ec80f9db3" target="_top" xlink:title="configCmd">
<polygon fill="white" stroke="black" points="288,-0.5 288,-19.5 350,-19.5 350,-0.5 288,-0.5"/>
<text text-anchor="middle" x="319" y="-7.5" font-family="Helvetica,sans-Serif" font-size="10.00">configCmd</text>
</a>
</g>
</g>
<!-- Node2&#45;&gt;Node3 -->
<g id="edge2" class="edge"><title>Node2&#45;&gt;Node3</title>
<path fill="none" stroke="midnightblue" d="M261.876,-10C270.923,-10 279.825,-10 287.78,-10"/>
<polygon fill="midnightblue" stroke="midnightblue" points="261.645,-6.5001 251.645,-10 261.645,-13.5001 261.645,-6.5001"/>
</g>
<!-- Node4 -->
<g id="node4" class="node"><title>Node4</title>
<g id="a_node4"><a xlink:href="dispatch_8cpp.html#a0c9bf0c5f9946202d30b8743843e361a" target="_top" xlink:title="controllerDispatchCommand">
<polygon fill="white" stroke="black" points="386.5,-0.5 386.5,-19.5 525.5,-19.5 525.5,-0.5 386.5,-0.5"/>
<text text-anchor="middle" x="456" y="-7.5" font-family="Helvetica,sans-Serif" font-size="10.00">controllerDispatchCommand</text>
</a>
</g>
</g>
<!-- Node3&#45;&gt;Node4 -->
<g id="edge3" class="edge"><title>Node3&#45;&gt;Node4</title>
<path fill="none" stroke="midnightblue" d="M360.362,-10C368.621,-10 377.53,-10 386.463,-10"/>
<polygon fill="midnightblue" stroke="midnightblue" points="360.297,-6.5001 350.297,-10 360.297,-13.5001 360.297,-6.5001"/>
</g>
<!-- Node5 -->
<g id="node5" class="node"><title>Node5</title>
<g id="a_node5"><a xlink:href="class_aquaduino.html#a6f21b3e1fe7fd8b1c13d1e78372abed6" target="_top" xlink:title="Aquaduino::setWebserver">
<polygon fill="white" stroke="black" points="562,-0.5 562,-19.5 690,-19.5 690,-0.5 562,-0.5"/>
<text text-anchor="middle" x="626" y="-7.5" font-family="Helvetica,sans-Serif" font-size="10.00">Aquaduino::setWebserver</text>
</a>
</g>
</g>
<!-- Node4&#45;&gt;Node5 -->
<g id="edge4" class="edge"><title>Node4&#45;&gt;Node5</title>
<path fill="none" stroke="midnightblue" d="M535.987,-10C544.699,-10 553.482,-10 561.961,-10"/>
<polygon fill="midnightblue" stroke="midnightblue" points="535.817,-6.5001 525.817,-10 535.817,-13.5001 535.817,-6.5001"/>
</g>
<!-- Node6 -->
<g id="node6" class="node"><title>Node6</title>
<g id="a_node6"><a xlink:href="_aquaduino_8cpp.html#a4fc01d736fe50cf5b977f755b675f11d" target="_top" xlink:title="setup">
<polygon fill="white" stroke="black" points="726.5,-0.5 726.5,-19.5 767.5,-19.5 767.5,-0.5 726.5,-0.5"/>
<text text-anchor="middle" x="747" y="-7.5" font-family="Helvetica,sans-Serif" font-size="10.00">setup</text>
</a>
</g>
</g>
<!-- Node5&#45;&gt;Node6 -->
<g id="edge5" class="edge"><title>Node5&#45;&gt;Node6</title>
<path fill="none" stroke="midnightblue" d="M700.371,-10C709.872,-10 718.873,-10 726.331,-10"/>
<polygon fill="midnightblue" stroke="midnightblue" points="700.333,-6.5001 690.333,-10 700.333,-13.5001 700.333,-6.5001"/>
</g>
</g>
</svg>
