<?xml version="1.0" encoding="UTF-8" standalone="no"?>
<!DOCTYPE svg PUBLIC "-//W3C//DTD SVG 1.1//EN"
 "http://www.w3.org/Graphics/SVG/1.1/DTD/svg11.dtd">
<!-- Generated by graphviz version 2.30.1 (20130214.1330)
 -->
<!-- Title: Aquaduino::run Pages: 1 -->
<svg width="240pt" height="142pt"
 viewBox="0.00 0.00 240.00 142.00" xmlns="http://www.w3.org/2000/svg" xmlns:xlink="http://www.w3.org/1999/xlink">
<g id="graph0" class="graph" transform="scale(1 1) rotate(0) translate(4 138)">
<title>Aquaduino::run</title>
<polygon fill="white" stroke="white" points="-4,5 -4,-138 237,-138 237,5 -4,5"/>
<!-- Node1 -->
<g id="node1" class="node"><title>Node1</title>
<polygon fill="#bfbfbf" stroke="black" points="0,-57.5 0,-76.5 82,-76.5 82,-57.5 0,-57.5"/>
<text text-anchor="middle" x="41" y="-64.5" font-family="Helvetica,sans-Serif" font-size="10.00">Aquaduino::run</text>
</g>
<!-- Node2 -->
<g id="node2" class="node"><title>Node2</title>
<g id="a_node2"><a xlink:href="class_sensor.html#a1e61b97c3b45e2d1a9d97ad45e6cc33a" target="_top" xlink:title="Sensor::read">
<polygon fill="white" stroke="black" points="139,-114.5 139,-133.5 211,-133.5 211,-114.5 139,-114.5"/>
<text text-anchor="middle" x="175" y="-121.5" font-family="Helvetica,sans-Serif" font-size="10.00">Sensor::read</text>
</a>
</g>
</g>
<!-- Node1&#45;&gt;Node2 -->
<g id="edge1" class="edge"><title>Node1&#45;&gt;Node2</title>
<path fill="none" stroke="midnightblue" d="M59.4933,-76.6041C74.6954,-84.7414 97.4432,-96.4206 118,-105 123.093,-107.125 128.515,-109.196 133.905,-111.141"/>
<polygon fill="midnightblue" stroke="midnightblue" points="132.898,-114.496 143.493,-114.491 135.207,-107.888 132.898,-114.496"/>
</g>
<!-- Node3 -->
<g id="node3" class="node"><title>Node3</title>
<g id="a_node3"><a xlink:href="class_array_list.html#ada61a62619272992ac7fb0da2cf400b8" target="_top" xlink:title="ArrayList::resetIterator">
<polygon fill="white" stroke="black" points="118.5,-76.5 118.5,-95.5 231.5,-95.5 231.5,-76.5 118.5,-76.5"/>
<text text-anchor="middle" x="175" y="-83.5" font-family="Helvetica,sans-Serif" font-size="10.00">ArrayList::resetIterator</text>
</a>
</g>
</g>
<!-- Node1&#45;&gt;Node3 -->
<g id="edge2" class="edge"><title>Node1&#45;&gt;Node3</title>
<path fill="none" stroke="midnightblue" d="M82.3216,-72.8039C90.5846,-73.9932 99.4837,-75.2742 108.374,-76.5538"/>
<polygon fill="midnightblue" stroke="midnightblue" points="107.976,-80.0326 118.373,-77.9931 108.974,-73.104 107.976,-80.0326"/>
</g>
<!-- Node4 -->
<g id="node4" class="node"><title>Node4</title>
<g id="a_node4"><a xlink:href="class_array_list.html#a921b9822fbf598f6fece601973db200b" target="_top" xlink:title="ArrayList::getNext">
<polygon fill="white" stroke="black" points="127.5,-38.5 127.5,-57.5 222.5,-57.5 222.5,-38.5 127.5,-38.5"/>
<text text-anchor="middle" x="175" y="-45.5" font-family="Helvetica,sans-Serif" font-size="10.00">ArrayList::getNext</text>
</a>
</g>
</g>
<!-- Node1&#45;&gt;Node4 -->
<g id="edge3" class="edge"><title>Node1&#45;&gt;Node4</title>
<path fill="none" stroke="midnightblue" d="M82.3216,-61.1961C93.346,-59.6093 105.503,-57.8594 117.26,-56.1672"/>
<polygon fill="midnightblue" stroke="midnightblue" points="118.051,-59.5895 127.45,-54.7004 117.053,-52.6609 118.051,-59.5895"/>
</g>
<!-- Node5 -->
<g id="node5" class="node"><title>Node5</title>
<g id="a_node5"><a xlink:href="class_controller.html#a571614716a0e7dd79674988a0f5780d8" target="_top" xlink:title="Controller::run">
<polygon fill="white" stroke="black" points="136.5,-0.5 136.5,-19.5 213.5,-19.5 213.5,-0.5 136.5,-0.5"/>
<text text-anchor="middle" x="175" y="-7.5" font-family="Helvetica,sans-Serif" font-size="10.00">Controller::run</text>
</a>
</g>
</g>
<!-- Node1&#45;&gt;Node5 -->
<g id="edge4" class="edge"><title>Node1&#45;&gt;Node5</title>
<path fill="none" stroke="midnightblue" d="M59.4933,-57.3959C74.6954,-49.2586 97.4432,-37.5794 118,-29 123.093,-26.8746 128.515,-24.8041 133.905,-22.8592"/>
<polygon fill="midnightblue" stroke="midnightblue" points="135.207,-26.1119 143.493,-19.5092 132.898,-19.5037 135.207,-26.1119"/>
</g>
</g>
</svg>
