<?xml version="1.0" encoding="UTF-8" standalone="no"?>
<!DOCTYPE svg PUBLIC "-//W3C//DTD SVG 1.1//EN"
 "http://www.w3.org/Graphics/SVG/1.1/DTD/svg11.dtd">
<!-- Generated by graphviz version 2.30.1 (20130214.1330)
 -->
<!-- Title: ArrayList::get Pages: 1 -->
<svg width="648pt" height="66pt"
 viewBox="0.00 0.00 648.00 66.00" xmlns="http://www.w3.org/2000/svg" xmlns:xlink="http://www.w3.org/1999/xlink">
<g id="graph0" class="graph" transform="scale(1 1) rotate(0) translate(4 62)">
<title>ArrayList::get</title>
<polygon fill="white" stroke="white" points="-4,5 -4,-62 645,-62 645,5 -4,5"/>
<!-- Node1 -->
<g id="node1" class="node"><title>Node1</title>
<polygon fill="#bfbfbf" stroke="black" points="0.5,-19.5 0.5,-38.5 75.5,-38.5 75.5,-19.5 0.5,-19.5"/>
<text text-anchor="middle" x="38" y="-26.5" font-family="Helvetica,sans-Serif" font-size="10.00">ArrayList::get</text>
</g>
<!-- Node2 -->
<g id="node2" class="node"><title>Node2</title>
<g id="a_node2"><a xlink:href="class_aquaduino.html#a22f89de6e7212c48dfab2b605e3ec875" target="_top" xlink:title="Aquaduino::getController">
<polygon fill="white" stroke="black" points="112.5,-38.5 112.5,-57.5 235.5,-57.5 235.5,-38.5 112.5,-38.5"/>
<text text-anchor="middle" x="174" y="-45.5" font-family="Helvetica,sans-Serif" font-size="10.00">Aquaduino::getController</text>
</a>
</g>
</g>
<!-- Node1&#45;&gt;Node2 -->
<g id="edge1" class="edge"><title>Node1&#45;&gt;Node2</title>
<path fill="none" stroke="midnightblue" d="M85.5402,-35.599C94.2266,-36.8306 103.421,-38.1343 112.456,-39.4155"/>
<polygon fill="midnightblue" stroke="midnightblue" points="86.0084,-32.1304 75.6161,-34.1918 85.0257,-39.0611 86.0084,-32.1304"/>
</g>
<!-- Node4 -->
<g id="node4" class="node"><title>Node4</title>
<g id="a_node4"><a xlink:href="class_aquaduino.html#abf0068cda6e8dfbf3bab8c7cc6514f84" target="_top" xlink:title="Aquaduino::getActuator">
<polygon fill="white" stroke="black" points="114.5,-0.5 114.5,-19.5 233.5,-19.5 233.5,-0.5 114.5,-0.5"/>
<text text-anchor="middle" x="174" y="-7.5" font-family="Helvetica,sans-Serif" font-size="10.00">Aquaduino::getActuator</text>
</a>
</g>
</g>
<!-- Node1&#45;&gt;Node4 -->
<g id="edge3" class="edge"><title>Node1&#45;&gt;Node4</title>
<path fill="none" stroke="midnightblue" d="M85.7291,-22.3742C94.9358,-21.0688 104.706,-19.6834 114.25,-18.3302"/>
<polygon fill="midnightblue" stroke="midnightblue" points="85.0257,-18.9389 75.6161,-23.8082 86.0084,-25.8696 85.0257,-18.9389"/>
</g>
<!-- Node3 -->
<g id="node3" class="node"><title>Node3</title>
<g id="a_node3"><a xlink:href="class_clock_timer_controller.html#a7a429effb602dd413ed83bf005071e22" target="_top" xlink:title="ClockTimerController::run">
<polygon fill="white" stroke="black" points="272,-38.5 272,-57.5 398,-57.5 398,-38.5 272,-38.5"/>
<text text-anchor="middle" x="335" y="-45.5" font-family="Helvetica,sans-Serif" font-size="10.00">ClockTimerController::run</text>
</a>
</g>
</g>
<!-- Node2&#45;&gt;Node3 -->
<g id="edge2" class="edge"><title>Node2&#45;&gt;Node3</title>
<path fill="none" stroke="midnightblue" d="M245.677,-48C254.369,-48 263.203,-48 271.757,-48"/>
<polygon fill="midnightblue" stroke="midnightblue" points="245.565,-44.5001 235.565,-48 245.565,-51.5001 245.565,-44.5001"/>
</g>
<!-- Node4&#45;&gt;Node3 -->
<g id="edge4" class="edge"><title>Node4&#45;&gt;Node3</title>
<path fill="none" stroke="midnightblue" d="M225.077,-21.968C247.358,-27.2931 273.229,-33.4762 294.166,-38.4799"/>
<polygon fill="midnightblue" stroke="midnightblue" points="225.662,-18.5094 215.122,-19.589 224.035,-25.3177 225.662,-18.5094"/>
</g>
<!-- Node5 -->
<g id="node5" class="node"><title>Node5</title>
<g id="a_node5"><a xlink:href="mainweb_8cpp.html#afd56fefe2a8598f61d016320f5250491" target="_top" xlink:title="defaultCmd">
<polygon fill="white" stroke="black" points="302.5,-0.5 302.5,-19.5 367.5,-19.5 367.5,-0.5 302.5,-0.5"/>
<text text-anchor="middle" x="335" y="-7.5" font-family="Helvetica,sans-Serif" font-size="10.00">defaultCmd</text>
</a>
</g>
</g>
<!-- Node4&#45;&gt;Node5 -->
<g id="edge5" class="edge"><title>Node4&#45;&gt;Node5</title>
<path fill="none" stroke="midnightblue" d="M243.936,-10C264.234,-10 285.468,-10 302.217,-10"/>
<polygon fill="midnightblue" stroke="midnightblue" points="243.754,-6.5001 233.754,-10 243.754,-13.5001 243.754,-6.5001"/>
</g>
<!-- Node6 -->
<g id="node6" class="node"><title>Node6</title>
<g id="a_node6"><a xlink:href="class_aquaduino.html#a6f21b3e1fe7fd8b1c13d1e78372abed6" target="_top" xlink:title="Aquaduino::setWebserver">
<polygon fill="white" stroke="black" points="434,-0.5 434,-19.5 562,-19.5 562,-0.5 434,-0.5"/>
<text text-anchor="middle" x="498" y="-7.5" font-family="Helvetica,sans-Serif" font-size="10.00">Aquaduino::setWebserver</text>
</a>
</g>
</g>
<!-- Node5&#45;&gt;Node6 -->
<g id="edge6" class="edge"><title>Node5&#45;&gt;Node6</title>
<path fill="none" stroke="midnightblue" d="M378.011,-10C395.086,-10 415.182,-10 433.95,-10"/>
<polygon fill="midnightblue" stroke="midnightblue" points="377.808,-6.5001 367.808,-10 377.808,-13.5001 377.808,-6.5001"/>
</g>
<!-- Node7 -->
<g id="node7" class="node"><title>Node7</title>
<g id="a_node7"><a xlink:href="_aquaduino_8cpp.html#a4fc01d736fe50cf5b977f755b675f11d" target="_top" xlink:title="setup">
<polygon fill="white" stroke="black" points="598.5,-0.5 598.5,-19.5 639.5,-19.5 639.5,-0.5 598.5,-0.5"/>
<text text-anchor="middle" x="619" y="-7.5" font-family="Helvetica,sans-Serif" font-size="10.00">setup</text>
</a>
</g>
</g>
<!-- Node6&#45;&gt;Node7 -->
<g id="edge7" class="edge"><title>Node6&#45;&gt;Node7</title>
<path fill="none" stroke="midnightblue" d="M572.371,-10C581.872,-10 590.873,-10 598.331,-10"/>
<polygon fill="midnightblue" stroke="midnightblue" points="572.333,-6.5001 562.333,-10 572.333,-13.5001 572.333,-6.5001"/>
</g>
</g>
</svg>
