<?xml version="1.0" encoding="UTF-8" standalone="no"?>
<!DOCTYPE svg PUBLIC "-//W3C//DTD SVG 1.1//EN"
 "http://www.w3.org/Graphics/SVG/1.1/DTD/svg11.dtd">
<!-- Generated by graphviz version 2.30.1 (20130214.1330)
 -->
<!-- Title: SDConfigManager::writeConfig Pages: 1 -->
<svg width="340pt" height="77pt"
 viewBox="0.00 0.00 340.00 77.00" xmlns="http://www.w3.org/2000/svg" xmlns:xlink="http://www.w3.org/1999/xlink">
<g id="graph0" class="graph" transform="scale(1 1) rotate(0) translate(4 73)">
<title>SDConfigManager::writeConfig</title>
<polygon fill="white" stroke="white" points="-4,5 -4,-73 337,-73 337,5 -4,5"/>
<!-- Node1 -->
<g id="node1" class="node"><title>Node1</title>
<polygon fill="#bfbfbf" stroke="black" points="0,-27.5 0,-46.5 148,-46.5 148,-27.5 0,-27.5"/>
<text text-anchor="middle" x="74" y="-34.5" font-family="Helvetica,sans-Serif" font-size="10.00">SDConfigManager::writeConfig</text>
</g>
<!-- Node2 -->
<g id="node2" class="node"><title>Node2</title>
<g id="a_node2"><a xlink:href="class_aquaduino.html#ac629814f13c66eda31f8dc27ae5a1a80" target="_top" xlink:title="Aquaduino::serialize">
<polygon fill="white" stroke="black" points="206,-49.5 206,-68.5 310,-68.5 310,-49.5 206,-49.5"/>
<text text-anchor="middle" x="258" y="-56.5" font-family="Helvetica,sans-Serif" font-size="10.00">Aquaduino::serialize</text>
</a>
</g>
</g>
<!-- Node1&#45;&gt;Node2 -->
<g id="edge1" class="edge"><title>Node1&#45;&gt;Node2</title>
<path fill="none" stroke="midnightblue" d="M148.24,-45.8531C163.97,-47.7546 180.436,-49.745 195.659,-51.5852"/>
<polygon fill="midnightblue" stroke="midnightblue" points="195.628,-55.1068 205.976,-52.8322 196.468,-48.1574 195.628,-55.1068"/>
</g>
<!-- Node3 -->
<g id="node3" class="node"><title>Node3</title>
<g id="a_node3"><a xlink:href="class_s_d_config_manager.html#a85a23603c7aecf85c331b0d9059c05b6" target="_top" xlink:title="SDConfigManager::writeStruct\lToFile">
<polygon fill="white" stroke="black" points="184.5,-0 184.5,-30 331.5,-30 331.5,-0 184.5,-0"/>
<text text-anchor="start" x="192.5" y="-18" font-family="Helvetica,sans-Serif" font-size="10.00">SDConfigManager::writeStruct</text>
<text text-anchor="middle" x="258" y="-7" font-family="Helvetica,sans-Serif" font-size="10.00">ToFile</text>
</a>
</g>
</g>
<!-- Node1&#45;&gt;Node3 -->
<g id="edge2" class="edge"><title>Node1&#45;&gt;Node3</title>
<path fill="none" stroke="midnightblue" d="M148.24,-28.1469C156.759,-27.117 165.494,-26.0611 174.131,-25.0171"/>
<polygon fill="midnightblue" stroke="midnightblue" points="174.699,-28.4741 184.206,-23.7992 173.859,-21.5247 174.699,-28.4741"/>
</g>
</g>
</svg>
