<?xml version="1.0" encoding="UTF-8" standalone="no"?>
<!DOCTYPE svg PUBLIC "-//W3C//DTD SVG 1.1//EN"
 "http://www.w3.org/Graphics/SVG/1.1/DTD/svg11.dtd">
<!-- Generated by graphviz version 2.30.1 (20130214.1330)
 -->
<!-- Title: Aquaduino::setTime Pages: 1 -->
<svg width="680pt" height="66pt"
 viewBox="0.00 0.00 680.00 66.00" xmlns="http://www.w3.org/2000/svg" xmlns:xlink="http://www.w3.org/1999/xlink">
<g id="graph0" class="graph" transform="scale(1 1) rotate(0) translate(4 62)">
<title>Aquaduino::setTime</title>
<polygon fill="white" stroke="white" points="-4,5 -4,-62 677,-62 677,5 -4,5"/>
<!-- Node1 -->
<g id="node1" class="node"><title>Node1</title>
<polygon fill="#bfbfbf" stroke="black" points="0.5,-19.5 0.5,-38.5 103.5,-38.5 103.5,-19.5 0.5,-19.5"/>
<text text-anchor="middle" x="52" y="-26.5" font-family="Helvetica,sans-Serif" font-size="10.00">Aquaduino::setTime</text>
</g>
<!-- Node2 -->
<g id="node2" class="node"><title>Node2</title>
<g id="a_node2"><a xlink:href="class_aquaduino.html#afc3c3509621a7830b1a79cf7ca8aae63" target="_top" xlink:title="Aquaduino::Aquaduino">
<polygon fill="white" stroke="black" points="140,-38.5 140,-57.5 254,-57.5 254,-38.5 140,-38.5"/>
<text text-anchor="middle" x="197" y="-45.5" font-family="Helvetica,sans-Serif" font-size="10.00">Aquaduino::Aquaduino</text>
</a>
</g>
</g>
<!-- Node1&#45;&gt;Node2 -->
<g id="edge1" class="edge"><title>Node1&#45;&gt;Node2</title>
<path fill="none" stroke="midnightblue" d="M113.869,-37.0875C122.541,-38.2397 131.426,-39.4202 139.999,-40.5593"/>
<polygon fill="midnightblue" stroke="midnightblue" points="114.193,-33.5999 103.819,-35.7522 113.271,-40.5389 114.193,-33.5999"/>
</g>
<!-- Node3 -->
<g id="node3" class="node"><title>Node3</title>
<g id="a_node3"><a xlink:href="dispatch_8cpp.html#a57a05a1aa70f5b076936a72ec80f9db3" target="_top" xlink:title="configCmd">
<polygon fill="white" stroke="black" points="166,-0.5 166,-19.5 228,-19.5 228,-0.5 166,-0.5"/>
<text text-anchor="middle" x="197" y="-7.5" font-family="Helvetica,sans-Serif" font-size="10.00">configCmd</text>
</a>
</g>
</g>
<!-- Node1&#45;&gt;Node3 -->
<g id="edge2" class="edge"><title>Node1&#45;&gt;Node3</title>
<path fill="none" stroke="midnightblue" d="M113.933,-20.904C131.841,-18.5246 150.653,-16.0251 165.742,-14.0203"/>
<polygon fill="midnightblue" stroke="midnightblue" points="113.271,-17.4611 103.819,-22.2478 114.193,-24.4001 113.271,-17.4611"/>
</g>
<!-- Node4 -->
<g id="node4" class="node"><title>Node4</title>
<g id="a_node4"><a xlink:href="dispatch_8cpp.html#a0c9bf0c5f9946202d30b8743843e361a" target="_top" xlink:title="controllerDispatchCommand">
<polygon fill="white" stroke="black" points="290.5,-0.5 290.5,-19.5 429.5,-19.5 429.5,-0.5 290.5,-0.5"/>
<text text-anchor="middle" x="360" y="-7.5" font-family="Helvetica,sans-Serif" font-size="10.00">controllerDispatchCommand</text>
</a>
</g>
</g>
<!-- Node3&#45;&gt;Node4 -->
<g id="edge3" class="edge"><title>Node3&#45;&gt;Node4</title>
<path fill="none" stroke="midnightblue" d="M238.69,-10C254.409,-10 272.835,-10 290.475,-10"/>
<polygon fill="midnightblue" stroke="midnightblue" points="238.283,-6.5001 228.283,-10 238.283,-13.5001 238.283,-6.5001"/>
</g>
<!-- Node5 -->
<g id="node5" class="node"><title>Node5</title>
<g id="a_node5"><a xlink:href="class_aquaduino.html#a6f21b3e1fe7fd8b1c13d1e78372abed6" target="_top" xlink:title="Aquaduino::setWebserver">
<polygon fill="white" stroke="black" points="466,-0.5 466,-19.5 594,-19.5 594,-0.5 466,-0.5"/>
<text text-anchor="middle" x="530" y="-7.5" font-family="Helvetica,sans-Serif" font-size="10.00">Aquaduino::setWebserver</text>
</a>
</g>
</g>
<!-- Node4&#45;&gt;Node5 -->
<g id="edge4" class="edge"><title>Node4&#45;&gt;Node5</title>
<path fill="none" stroke="midnightblue" d="M439.987,-10C448.699,-10 457.482,-10 465.961,-10"/>
<polygon fill="midnightblue" stroke="midnightblue" points="439.817,-6.5001 429.817,-10 439.817,-13.5001 439.817,-6.5001"/>
</g>
<!-- Node6 -->
<g id="node6" class="node"><title>Node6</title>
<g id="a_node6"><a xlink:href="_aquaduino_8cpp.html#a4fc01d736fe50cf5b977f755b675f11d" target="_top" xlink:title="setup">
<polygon fill="white" stroke="black" points="630.5,-0.5 630.5,-19.5 671.5,-19.5 671.5,-0.5 630.5,-0.5"/>
<text text-anchor="middle" x="651" y="-7.5" font-family="Helvetica,sans-Serif" font-size="10.00">setup</text>
</a>
</g>
</g>
<!-- Node5&#45;&gt;Node6 -->
<g id="edge5" class="edge"><title>Node5&#45;&gt;Node6</title>
<path fill="none" stroke="midnightblue" d="M604.371,-10C613.872,-10 622.873,-10 630.331,-10"/>
<polygon fill="midnightblue" stroke="midnightblue" points="604.333,-6.5001 594.333,-10 604.333,-13.5001 604.333,-6.5001"/>
</g>
</g>
</svg>
