<?xml version="1.0" encoding="UTF-8" standalone="no"?>
<!DOCTYPE svg PUBLIC "-//W3C//DTD SVG 1.1//EN"
 "http://www.w3.org/Graphics/SVG/1.1/DTD/svg11.dtd">
<!-- Generated by graphviz version 2.30.1 (20130214.1330)
 -->
<!-- Title: Aquaduino::getAssignedActuators Pages: 1 -->
<svg width="322pt" height="142pt"
 viewBox="0.00 0.00 322.00 142.00" xmlns="http://www.w3.org/2000/svg" xmlns:xlink="http://www.w3.org/1999/xlink">
<g id="graph0" class="graph" transform="scale(1 1) rotate(0) translate(4 138)">
<title>Aquaduino::getAssignedActuators</title>
<polygon fill="white" stroke="white" points="-4,5 -4,-138 319,-138 319,5 -4,5"/>
<!-- Node1 -->
<g id="node1" class="node"><title>Node1</title>
<polygon fill="#bfbfbf" stroke="black" points="0,-57.5 0,-76.5 164,-76.5 164,-57.5 0,-57.5"/>
<text text-anchor="middle" x="82" y="-64.5" font-family="Helvetica,sans-Serif" font-size="10.00">Aquaduino::getAssignedActuators</text>
</g>
<!-- Node2 -->
<g id="node2" class="node"><title>Node2</title>
<g id="a_node2"><a xlink:href="class_array_list.html#a20ac96a11ec710178bec5d1e78a266b8" target="_top" xlink:title="ArrayList::findElement">
<polygon fill="white" stroke="black" points="200.5,-114.5 200.5,-133.5 313.5,-133.5 313.5,-114.5 200.5,-114.5"/>
<text text-anchor="middle" x="257" y="-121.5" font-family="Helvetica,sans-Serif" font-size="10.00">ArrayList::findElement</text>
</a>
</g>
</g>
<!-- Node1&#45;&gt;Node2 -->
<g id="edge1" class="edge"><title>Node1&#45;&gt;Node2</title>
<path fill="none" stroke="midnightblue" d="M111.956,-76.5405C140.772,-86.0349 185.182,-100.667 217.071,-111.174"/>
<polygon fill="midnightblue" stroke="midnightblue" points="216.356,-114.623 226.949,-114.428 218.547,-107.975 216.356,-114.623"/>
</g>
<!-- Node3 -->
<g id="node3" class="node"><title>Node3</title>
<g id="a_node3"><a xlink:href="class_array_list.html#ada61a62619272992ac7fb0da2cf400b8" target="_top" xlink:title="ArrayList::resetIterator">
<polygon fill="white" stroke="black" points="200.5,-76.5 200.5,-95.5 313.5,-95.5 313.5,-76.5 200.5,-76.5"/>
<text text-anchor="middle" x="257" y="-83.5" font-family="Helvetica,sans-Serif" font-size="10.00">ArrayList::resetIterator</text>
</a>
</g>
</g>
<!-- Node1&#45;&gt;Node3 -->
<g id="edge2" class="edge"><title>Node1&#45;&gt;Node3</title>
<path fill="none" stroke="midnightblue" d="M164.181,-75.9159C173.015,-76.886 181.923,-77.8644 190.535,-78.8102"/>
<polygon fill="midnightblue" stroke="midnightblue" points="190.164,-82.2904 200.486,-79.9031 190.928,-75.3323 190.164,-82.2904"/>
</g>
<!-- Node4 -->
<g id="node4" class="node"><title>Node4</title>
<g id="a_node4"><a xlink:href="class_array_list.html#a921b9822fbf598f6fece601973db200b" target="_top" xlink:title="ArrayList::getNext">
<polygon fill="white" stroke="black" points="209.5,-38.5 209.5,-57.5 304.5,-57.5 304.5,-38.5 209.5,-38.5"/>
<text text-anchor="middle" x="257" y="-45.5" font-family="Helvetica,sans-Serif" font-size="10.00">ArrayList::getNext</text>
</a>
</g>
</g>
<!-- Node1&#45;&gt;Node4 -->
<g id="edge3" class="edge"><title>Node1&#45;&gt;Node4</title>
<path fill="none" stroke="midnightblue" d="M164.181,-58.0841C176.011,-56.7849 187.974,-55.4711 199.18,-54.2403"/>
<polygon fill="midnightblue" stroke="midnightblue" points="199.675,-57.7071 209.234,-53.1362 198.911,-50.7489 199.675,-57.7071"/>
</g>
<!-- Node5 -->
<g id="node5" class="node"><title>Node5</title>
<g id="a_node5"><a xlink:href="class_actuator.html#aa12e6c3347af475a8b6ea1c8b38bd9e6" target="_top" xlink:title="Actuator::getController">
<polygon fill="white" stroke="black" points="200,-0.5 200,-19.5 314,-19.5 314,-0.5 200,-0.5"/>
<text text-anchor="middle" x="257" y="-7.5" font-family="Helvetica,sans-Serif" font-size="10.00">Actuator::getController</text>
</a>
</g>
</g>
<!-- Node1&#45;&gt;Node5 -->
<g id="edge4" class="edge"><title>Node1&#45;&gt;Node5</title>
<path fill="none" stroke="midnightblue" d="M111.956,-57.4595C140.772,-47.9651 185.182,-33.3332 217.071,-22.8263"/>
<polygon fill="midnightblue" stroke="midnightblue" points="218.547,-26.0252 226.949,-19.5716 216.356,-19.3768 218.547,-26.0252"/>
</g>
</g>
</svg>
