<?xml version="1.0" encoding="UTF-8" standalone="no"?>
<!DOCTYPE svg PUBLIC "-//W3C//DTD SVG 1.1//EN"
 "http://www.w3.org/Graphics/SVG/1.1/DTD/svg11.dtd">
<!-- Generated by graphviz version 2.30.1 (20130214.1330)
 -->
<!-- Title: Aquaduino::isNTPEnabled Pages: 1 -->
<svg width="804pt" height="56pt"
 viewBox="0.00 0.00 804.00 56.00" xmlns="http://www.w3.org/2000/svg" xmlns:xlink="http://www.w3.org/1999/xlink">
<g id="graph0" class="graph" transform="scale(1 1) rotate(0) translate(4 52)">
<title>Aquaduino::isNTPEnabled</title>
<polygon fill="white" stroke="white" points="-4,5 -4,-52 801,-52 801,5 -4,5"/>
<!-- Node1 -->
<g id="node1" class="node"><title>Node1</title>
<polygon fill="#bfbfbf" stroke="black" points="0,-19.5 0,-38.5 130,-38.5 130,-19.5 0,-19.5"/>
<text text-anchor="middle" x="65" y="-26.5" font-family="Helvetica,sans-Serif" font-size="10.00">Aquaduino::isNTPEnabled</text>
</g>
<!-- Node2 -->
<g id="node2" class="node"><title>Node2</title>
<g id="a_node2"><a xlink:href="_aquaduino_8cpp.html#a4fc01d736fe50cf5b977f755b675f11d" target="_top" xlink:title="setup">
<polygon fill="white" stroke="black" points="754.5,-19.5 754.5,-38.5 795.5,-38.5 795.5,-19.5 754.5,-19.5"/>
<text text-anchor="middle" x="775" y="-26.5" font-family="Helvetica,sans-Serif" font-size="10.00">setup</text>
</a>
</g>
</g>
<!-- Node1&#45;&gt;Node2 -->
<g id="edge1" class="edge"><title>Node1&#45;&gt;Node2</title>
<path fill="none" stroke="midnightblue" d="M140.389,-36.8016C196.759,-42.0442 276.166,-48 346,-48 346,-48 346,-48 485,-48 586.569,-48 707.787,-36.1702 754.406,-31.1795"/>
<polygon fill="midnightblue" stroke="midnightblue" points="140.424,-33.2894 130.139,-35.8326 139.765,-40.2583 140.424,-33.2894"/>
</g>
<!-- Node3 -->
<g id="node3" class="node"><title>Node3</title>
<g id="a_node3"><a xlink:href="configweb_8cpp.html#af63922b5bba9bcc24b202484ec739456" target="_top" xlink:title="printTopLevelTemplate">
<polygon fill="white" stroke="black" points="166.5,-0.5 166.5,-19.5 279.5,-19.5 279.5,-0.5 166.5,-0.5"/>
<text text-anchor="middle" x="223" y="-7.5" font-family="Helvetica,sans-Serif" font-size="10.00">printTopLevelTemplate</text>
</a>
</g>
</g>
<!-- Node1&#45;&gt;Node3 -->
<g id="edge2" class="edge"><title>Node1&#45;&gt;Node3</title>
<path fill="none" stroke="midnightblue" d="M140.486,-19.928C149.163,-18.8711 157.899,-17.8072 166.262,-16.7886"/>
<polygon fill="midnightblue" stroke="midnightblue" points="139.855,-16.4789 130.352,-21.1623 140.702,-23.4275 139.855,-16.4789"/>
</g>
<!-- Node4 -->
<g id="node4" class="node"><title>Node4</title>
<g id="a_node4"><a xlink:href="dispatch_8cpp.html#a57a05a1aa70f5b076936a72ec80f9db3" target="_top" xlink:title="configCmd">
<polygon fill="white" stroke="black" points="316,-0.5 316,-19.5 378,-19.5 378,-0.5 316,-0.5"/>
<text text-anchor="middle" x="347" y="-7.5" font-family="Helvetica,sans-Serif" font-size="10.00">configCmd</text>
</a>
</g>
</g>
<!-- Node3&#45;&gt;Node4 -->
<g id="edge3" class="edge"><title>Node3&#45;&gt;Node4</title>
<path fill="none" stroke="midnightblue" d="M289.876,-10C298.923,-10 307.825,-10 315.78,-10"/>
<polygon fill="midnightblue" stroke="midnightblue" points="289.645,-6.5001 279.645,-10 289.645,-13.5001 289.645,-6.5001"/>
</g>
<!-- Node5 -->
<g id="node5" class="node"><title>Node5</title>
<g id="a_node5"><a xlink:href="dispatch_8cpp.html#a0c9bf0c5f9946202d30b8743843e361a" target="_top" xlink:title="controllerDispatchCommand">
<polygon fill="white" stroke="black" points="414.5,-0.5 414.5,-19.5 553.5,-19.5 553.5,-0.5 414.5,-0.5"/>
<text text-anchor="middle" x="484" y="-7.5" font-family="Helvetica,sans-Serif" font-size="10.00">controllerDispatchCommand</text>
</a>
</g>
</g>
<!-- Node4&#45;&gt;Node5 -->
<g id="edge4" class="edge"><title>Node4&#45;&gt;Node5</title>
<path fill="none" stroke="midnightblue" d="M388.362,-10C396.621,-10 405.53,-10 414.463,-10"/>
<polygon fill="midnightblue" stroke="midnightblue" points="388.297,-6.5001 378.297,-10 388.297,-13.5001 388.297,-6.5001"/>
</g>
<!-- Node6 -->
<g id="node6" class="node"><title>Node6</title>
<g id="a_node6"><a xlink:href="class_aquaduino.html#a6f21b3e1fe7fd8b1c13d1e78372abed6" target="_top" xlink:title="Aquaduino::setWebserver">
<polygon fill="white" stroke="black" points="590,-0.5 590,-19.5 718,-19.5 718,-0.5 590,-0.5"/>
<text text-anchor="middle" x="654" y="-7.5" font-family="Helvetica,sans-Serif" font-size="10.00">Aquaduino::setWebserver</text>
</a>
</g>
</g>
<!-- Node5&#45;&gt;Node6 -->
<g id="edge5" class="edge"><title>Node5&#45;&gt;Node6</title>
<path fill="none" stroke="midnightblue" d="M563.987,-10C572.699,-10 581.482,-10 589.961,-10"/>
<polygon fill="midnightblue" stroke="midnightblue" points="563.817,-6.5001 553.817,-10 563.817,-13.5001 563.817,-6.5001"/>
</g>
<!-- Node6&#45;&gt;Node2 -->
<g id="edge6" class="edge"><title>Node6&#45;&gt;Node2</title>
<path fill="none" stroke="midnightblue" d="M724.894,-21.1595C735.733,-22.8901 746.097,-24.5449 754.487,-25.8845"/>
<polygon fill="midnightblue" stroke="midnightblue" points="725.275,-17.6762 714.849,-19.5557 724.172,-24.5886 725.275,-17.6762"/>
</g>
</g>
</svg>
