<?xml version="1.0" encoding="UTF-8" standalone="no"?>
<!DOCTYPE svg PUBLIC "-//W3C//DTD SVG 1.1//EN"
 "http://www.w3.org/Graphics/SVG/1.1/DTD/svg11.dtd">
<!-- Generated by graphviz version 2.30.1 (20130214.1330)
 -->
<!-- Title: TemperatureController::showWebinterface Pages: 1 -->
<svg width="306pt" height="66pt"
 viewBox="0.00 0.00 306.00 66.00" xmlns="http://www.w3.org/2000/svg" xmlns:xlink="http://www.w3.org/1999/xlink">
<g id="graph0" class="graph" transform="scale(1 1) rotate(0) translate(4 62)">
<title>TemperatureController::showWebinterface</title>
<polygon fill="white" stroke="white" points="-4,5 -4,-62 303,-62 303,5 -4,5"/>
<!-- Node1 -->
<g id="node1" class="node"><title>Node1</title>
<polygon fill="#bfbfbf" stroke="black" points="0,-14 0,-44 112,-44 112,-14 0,-14"/>
<text text-anchor="start" x="8" y="-32" font-family="Helvetica,sans-Serif" font-size="10.00">TemperatureController</text>
<text text-anchor="middle" x="56" y="-21" font-family="Helvetica,sans-Serif" font-size="10.00">::showWebinterface</text>
</g>
<!-- Node2 -->
<g id="node2" class="node"><title>Node2</title>
<g id="a_node2"><a xlink:href="class_aquaduino.html#a417e6bdfac5f5c16ca24f46bbd4b4142" target="_top" xlink:title="Aquaduino::getTemperature">
<polygon fill="white" stroke="black" points="155,-38.5 155,-57.5 291,-57.5 291,-38.5 155,-38.5"/>
<text text-anchor="middle" x="223" y="-45.5" font-family="Helvetica,sans-Serif" font-size="10.00">Aquaduino::getTemperature</text>
</a>
</g>
</g>
<!-- Node1&#45;&gt;Node2 -->
<g id="edge1" class="edge"><title>Node1&#45;&gt;Node2</title>
<path fill="none" stroke="midnightblue" d="M112.402,-35.3796C122.795,-36.5764 133.834,-37.8476 144.75,-39.1045"/>
<polygon fill="midnightblue" stroke="midnightblue" points="144.383,-42.5854 154.718,-40.2524 145.184,-35.6313 144.383,-42.5854"/>
</g>
<!-- Node3 -->
<g id="node3" class="node"><title>Node3</title>
<g id="a_node3"><a xlink:href="class_aquaduino.html#aed76e9fb8f6a3714bbd8de7781133f6e" target="_top" xlink:title="Aquaduino::getTemplateParser">
<polygon fill="white" stroke="black" points="148,-0.5 148,-19.5 298,-19.5 298,-0.5 148,-0.5"/>
<text text-anchor="middle" x="223" y="-7.5" font-family="Helvetica,sans-Serif" font-size="10.00">Aquaduino::getTemplateParser</text>
</a>
</g>
</g>
<!-- Node1&#45;&gt;Node3 -->
<g id="edge2" class="edge"><title>Node1&#45;&gt;Node3</title>
<path fill="none" stroke="midnightblue" d="M112.402,-22.6204C120.611,-21.6751 129.223,-20.6834 137.859,-19.6889"/>
<polygon fill="midnightblue" stroke="midnightblue" points="138.452,-23.1439 147.986,-18.5229 137.651,-16.1899 138.452,-23.1439"/>
</g>
</g>
</svg>
