<?xml version="1.0" encoding="UTF-8" standalone="no"?>
<!DOCTYPE svg PUBLIC "-//W3C//DTD SVG 1.1//EN"
 "http://www.w3.org/Graphics/SVG/1.1/DTD/svg11.dtd">
<!-- Generated by graphviz version 2.30.1 (20130214.1330)
 -->
<!-- Title: ArrayList::findElement Pages: 1 -->
<!--zoomable 199 -->
<svg id="main" version="1.1" xmlns="http://www.w3.org/2000/svg" xmlns:xlink="http://www.w3.org/1999/xlink" xml:space="preserve" onload="init(evt)">
<style type="text/css"><![CDATA[
.edge:hover path { stroke: red; }
.edge:hover polygon { stroke: red; fill: red; }
]]></style>
<script type="text/javascript"><![CDATA[
var edges = document.getElementsByTagName('g');
if (edges && edges.length) {
  for (var i=0;i<edges.length;i++) {
    if (edges[i].id.substr(0,4)=='edge') {
      edges[i].setAttribute('class','edge');
    }
  }
}
]]></script>
        <defs>
                <circle id="rim" cx="0" cy="0" r="7"/>
                <circle id="rim2" cx="0" cy="0" r="3.5"/>
                <g id="zoomPlus">
                        <use xlink:href="#rim" fill="#404040">
                                <set attributeName="fill" to="#808080" begin="zoomplus.mouseover" end="zoomplus.mouseout"/>
                        </use>
                        <path d="M-4,0h8M0,-4v8" fill="none" stroke="white" stroke-width="1.5" pointer-events="none"/>
                </g>
                <g id="zoomMin">
                        <use xlink:href="#rim" fill="#404040">
                                <set attributeName="fill" to="#808080" begin="zoomminus.mouseover" end="zoomminus.mouseout"/>
                        </use>
                        <path d="M-4,0h8" fill="none" stroke="white" stroke-width="1.5" pointer-events="none"/>
                </g>
                <g id="dirArrow">
                        <path fill="none" stroke="white" stroke-width="1.5" d="M0,-3.0v7 M-2.5,-0.5L0,-3.0L2.5,-0.5"/>
                </g>
               <g id="resetDef">
                       <use xlink:href="#rim2" fill="#404040">
                               <set attributeName="fill" to="#808080" begin="reset.mouseover" end="reset.mouseout"/>
                       </use>
               </g>
        </defs>

<script type="text/javascript">
var viewWidth = 652;
var viewHeight = 199;
var sectionId = 'dynsection-2';
</script>
<script xlink:href="svgpan.js"/>
<svg id="graph" class="graph">
<g id="viewport">
<title>ArrayList::findElement</title>
<polygon fill="white" stroke="white" points="-4,5 -4,-195 649,-195 649,5 -4,5"/>
<!-- Node1 -->
<g id="node1" class="node"><title>Node1</title>
<polygon fill="#bfbfbf" stroke="black" points="0.5,-57.5 0.5,-76.5 113.5,-76.5 113.5,-57.5 0.5,-57.5"/>
<text text-anchor="middle" x="57" y="-64.5" font-family="Helvetica,sans-Serif" font-size="10.00">ArrayList::findElement</text>
</g>
<!-- Node2 -->
<g id="node2" class="node"><title>Node2</title>
<g id="a_node2"><a xlink:href="class_aquaduino.html#a2edba497281c7520a016b62a7cec01f0" target="_top" xlink:title="Aquaduino::getControllerID">
<polygon fill="white" stroke="black" points="171,-133.5 171,-152.5 303,-152.5 303,-133.5 171,-133.5"/>
<text text-anchor="middle" x="237" y="-140.5" font-family="Helvetica,sans-Serif" font-size="10.00">Aquaduino::getControllerID</text>
</a>
</g>
</g>
<!-- Node1&#45;&gt;Node2 -->
<g id="edge1" class="edge"><title>Node1&#45;&gt;Node2</title>
<path fill="none" stroke="midnightblue" d="M90.0078,-80.6662C125.682,-95.8978 182.442,-120.133 213.639,-133.453"/>
<polygon fill="midnightblue" stroke="midnightblue" points="91.115,-77.3334 80.5438,-76.6255 88.3662,-83.7711 91.115,-77.3334"/>
</g>
<!-- Node5 -->
<g id="node5" class="node"><title>Node5</title>
<g id="a_node5"><a xlink:href="class_aquaduino.html#a9370f6df101b782a36865c6f49b3bba1" target="_top" xlink:title="Aquaduino::getActuatorID">
<polygon fill="white" stroke="black" points="173,-76.5 173,-95.5 301,-95.5 301,-76.5 173,-76.5"/>
<text text-anchor="middle" x="237" y="-83.5" font-family="Helvetica,sans-Serif" font-size="10.00">Aquaduino::getActuatorID</text>
</a>
</g>
</g>
<!-- Node1&#45;&gt;Node5 -->
<g id="edge4" class="edge"><title>Node1&#45;&gt;Node5</title>
<path fill="none" stroke="midnightblue" d="M124.143,-74.0602C140.101,-75.7636 157.11,-77.5792 172.923,-79.267"/>
<polygon fill="midnightblue" stroke="midnightblue" points="124.147,-70.5408 113.832,-72.9596 123.404,-77.5013 124.147,-70.5408"/>
</g>
<!-- Node8 -->
<g id="node8" class="node"><title>Node8</title>
<g id="a_node8"><a xlink:href="class_aquaduino.html#a088ba3bf2e3429f341e09d0c8f62ded4" target="_top" xlink:title="Aquaduino::getAssignedActuators">
<polygon fill="white" stroke="black" points="155,-38.5 155,-57.5 319,-57.5 319,-38.5 155,-38.5"/>
<text text-anchor="middle" x="237" y="-45.5" font-family="Helvetica,sans-Serif" font-size="10.00">Aquaduino::getAssignedActuators</text>
</a>
</g>
</g>
<!-- Node1&#45;&gt;Node8 -->
<g id="edge7" class="edge"><title>Node1&#45;&gt;Node8</title>
<path fill="none" stroke="midnightblue" d="M123.806,-59.9757C133.946,-58.8934 144.518,-57.7649 154.943,-56.6521"/>
<polygon fill="midnightblue" stroke="midnightblue" points="123.404,-56.4987 113.832,-61.0404 124.147,-63.4592 123.404,-56.4987"/>
</g>
<!-- Node11 -->
<g id="node11" class="node"><title>Node11</title>
<g id="a_node11"><a xlink:href="class_aquaduino.html#aee9a7b8ca4ec2a13e7deaf5fea4e24c3" target="_top" xlink:title="Aquaduino::getAssignedActuatorIDs">
<polygon fill="white" stroke="black" points="150.5,-0.5 150.5,-19.5 323.5,-19.5 323.5,-0.5 150.5,-0.5"/>
<text text-anchor="middle" x="237" y="-7.5" font-family="Helvetica,sans-Serif" font-size="10.00">Aquaduino::getAssignedActuatorIDs</text>
</a>
</g>
</g>
<!-- Node1&#45;&gt;Node11 -->
<g id="edge10" class="edge"><title>Node1&#45;&gt;Node11</title>
<path fill="none" stroke="midnightblue" d="M87.7205,-53.1756C105.505,-45.2959 128.718,-35.69 150,-29 161.378,-25.4234 173.806,-22.2625 185.588,-19.5959"/>
<polygon fill="midnightblue" stroke="midnightblue" points="86.1304,-50.053 78.4454,-57.3462 89.0012,-56.4373 86.1304,-50.053"/>
</g>
<!-- Node3 -->
<g id="node3" class="node"><title>Node3</title>
<g id="a_node3"><a xlink:href="class_s_d_config_manager.html#abd9b2f27d34ccf9b76add87ca9f92f4f" target="_top" xlink:title="SDConfigManager::writeConfig">
<polygon fill="white" stroke="black" points="360,-171.5 360,-190.5 508,-190.5 508,-171.5 360,-171.5"/>
<text text-anchor="middle" x="434" y="-178.5" font-family="Helvetica,sans-Serif" font-size="10.00">SDConfigManager::writeConfig</text>
</a>
</g>
</g>
<!-- Node2&#45;&gt;Node3 -->
<g id="edge2" class="edge"><title>Node2&#45;&gt;Node3</title>
<path fill="none" stroke="midnightblue" d="M296.959,-154.489C324.782,-159.911 357.596,-166.306 384.025,-171.456"/>
<polygon fill="midnightblue" stroke="midnightblue" points="297.44,-151.017 286.955,-152.54 296.101,-157.888 297.44,-151.017"/>
</g>
<!-- Node4 -->
<g id="node4" class="node"><title>Node4</title>
<g id="a_node4"><a xlink:href="class_s_d_config_manager.html#af4512ba0456349259714dc8f9cc582f0" target="_top" xlink:title="SDConfigManager::readConfig">
<polygon fill="white" stroke="black" points="361,-133.5 361,-152.5 507,-152.5 507,-133.5 361,-133.5"/>
<text text-anchor="middle" x="434" y="-140.5" font-family="Helvetica,sans-Serif" font-size="10.00">SDConfigManager::readConfig</text>
</a>
</g>
</g>
<!-- Node2&#45;&gt;Node4 -->
<g id="edge3" class="edge"><title>Node2&#45;&gt;Node4</title>
<path fill="none" stroke="midnightblue" d="M313.322,-143C328.922,-143 345.322,-143 360.807,-143"/>
<polygon fill="midnightblue" stroke="midnightblue" points="313.203,-139.5 303.203,-143 313.203,-146.5 313.203,-139.5"/>
</g>
<!-- Node6 -->
<g id="node6" class="node"><title>Node6</title>
<g id="a_node6"><a xlink:href="class_s_d_config_manager.html#ac7a5874b228c4659eda6ea80e307578f" target="_top" xlink:title="SDConfigManager::writeConfig">
<polygon fill="white" stroke="black" points="360,-95.5 360,-114.5 508,-114.5 508,-95.5 360,-95.5"/>
<text text-anchor="middle" x="434" y="-102.5" font-family="Helvetica,sans-Serif" font-size="10.00">SDConfigManager::writeConfig</text>
</a>
</g>
</g>
<!-- Node5&#45;&gt;Node6 -->
<g id="edge5" class="edge"><title>Node5&#45;&gt;Node6</title>
<path fill="none" stroke="midnightblue" d="M311.288,-93.1408C327.107,-94.6822 343.835,-96.3121 359.657,-97.8537"/>
<polygon fill="midnightblue" stroke="midnightblue" points="311.334,-89.6289 301.042,-92.1425 310.655,-96.5959 311.334,-89.6289"/>
</g>
<!-- Node7 -->
<g id="node7" class="node"><title>Node7</title>
<g id="a_node7"><a xlink:href="class_s_d_config_manager.html#a10a368240d6e6c04ccf4920885fc8d93" target="_top" xlink:title="SDConfigManager::readConfig">
<polygon fill="white" stroke="black" points="361,-57.5 361,-76.5 507,-76.5 507,-57.5 361,-57.5"/>
<text text-anchor="middle" x="434" y="-64.5" font-family="Helvetica,sans-Serif" font-size="10.00">SDConfigManager::readConfig</text>
</a>
</g>
</g>
<!-- Node5&#45;&gt;Node7 -->
<g id="edge6" class="edge"><title>Node5&#45;&gt;Node7</title>
<path fill="none" stroke="midnightblue" d="M311.013,-78.8859C327.258,-77.3031 344.472,-75.6258 360.688,-74.0457"/>
<polygon fill="midnightblue" stroke="midnightblue" points="310.655,-75.4041 301.042,-79.8575 311.334,-82.3711 310.655,-75.4041"/>
</g>
<!-- Node9 -->
<g id="node9" class="node"><title>Node9</title>
<g id="a_node9"><a xlink:href="class_controller.html#ab276a8fd2df621098a9a24f5dfcc6bb2" target="_top" xlink:title="Controller::allMyActuators">
<polygon fill="white" stroke="black" points="369.5,-19.5 369.5,-38.5 498.5,-38.5 498.5,-19.5 369.5,-19.5"/>
<text text-anchor="middle" x="434" y="-26.5" font-family="Helvetica,sans-Serif" font-size="10.00">Controller::allMyActuators</text>
</a>
</g>
</g>
<!-- Node8&#45;&gt;Node9 -->
<g id="edge8" class="edge"><title>Node8&#45;&gt;Node9</title>
<path fill="none" stroke="midnightblue" d="M329.336,-39.1006C342.911,-37.7779 356.647,-36.4395 369.484,-35.1888"/>
<polygon fill="midnightblue" stroke="midnightblue" points="328.617,-35.654 319.003,-40.1074 329.296,-42.621 328.617,-35.654"/>
</g>
<!-- Node10 -->
<g id="node10" class="node"><title>Node10</title>
<g id="a_node10"><a xlink:href="class_level_controller.html#acf5109c2a5b60a9923e4c7b6d4176f6c" target="_top" xlink:title="LevelController::run">
<polygon fill="white" stroke="black" points="544.5,-19.5 544.5,-38.5 643.5,-38.5 643.5,-19.5 544.5,-19.5"/>
<text text-anchor="middle" x="594" y="-26.5" font-family="Helvetica,sans-Serif" font-size="10.00">LevelController::run</text>
</a>
</g>
</g>
<!-- Node9&#45;&gt;Node10 -->
<g id="edge9" class="edge"><title>Node9&#45;&gt;Node10</title>
<path fill="none" stroke="midnightblue" d="M509.146,-29C520.982,-29 532.963,-29 544.022,-29"/>
<polygon fill="midnightblue" stroke="midnightblue" points="508.809,-25.5001 498.809,-29 508.809,-32.5001 508.809,-25.5001"/>
</g>
</g>
</svg>
        <g id="navigator" transform="translate(0 0)" fill="#404254">
                <rect fill="#f2f5e9" fill-opacity="0.5" stroke="#606060" stroke-width=".5" x="0" y="0" width="60" height="60"/>
                <use id="zoomplus" xlink:href="#zoomPlus" x="17" y="9" onmousedown="handleZoom(evt,'in')"/>
                <use id="zoomminus" xlink:href="#zoomMin" x="42" y="9" onmousedown="handleZoom(evt,'out')"/>
                <use id="reset" xlink:href="#resetDef" x="30" y="36" onmousedown="handleReset()"/>
                <g id="arrowUp" xlink:href="#dirArrow" transform="translate(30 24)" onmousedown="handlePan(0,-1)">
                  <use xlink:href="#rim" fill="#404040">
                        <set attributeName="fill" to="#808080" begin="arrowUp.mouseover" end="arrowUp.mouseout"/>
                  </use>
                  <path fill="none" stroke="white" stroke-width="1.5" d="M0,-3.0v7 M-2.5,-0.5L0,-3.0L2.5,-0.5"/>
                </g>
                <g id="arrowRight" xlink:href="#dirArrow" transform="rotate(90) translate(36 -43)" onmousedown="handlePan(1,0)">
                  <use xlink:href="#rim" fill="#404040">
                        <set attributeName="fill" to="#808080" begin="arrowRight.mouseover" end="arrowRight.mouseout"/>
                  </use>
                  <path fill="none" stroke="white" stroke-width="1.5" d="M0,-3.0v7 M-2.5,-0.5L0,-3.0L2.5,-0.5"/>
                </g>
                <g id="arrowDown" xlink:href="#dirArrow" transform="rotate(180) translate(-30 -48)" onmousedown="handlePan(0,1)">
                  <use xlink:href="#rim" fill="#404040">
                        <set attributeName="fill" to="#808080" begin="arrowDown.mouseover" end="arrowDown.mouseout"/>
                  </use>
                  <path fill="none" stroke="white" stroke-width="1.5" d="M0,-3.0v7 M-2.5,-0.5L0,-3.0L2.5,-0.5"/>
                </g>
                <g id="arrowLeft" xlink:href="#dirArrow" transform="rotate(270) translate(-36 17)" onmousedown="handlePan(-1,0)">
                  <use xlink:href="#rim" fill="#404040">
                        <set attributeName="fill" to="#808080" begin="arrowLeft.mouseover" end="arrowLeft.mouseout"/>
                  </use>
                  <path fill="none" stroke="white" stroke-width="1.5" d="M0,-3.0v7 M-2.5,-0.5L0,-3.0L2.5,-0.5"/>
                </g>
        </g>
        <svg viewBox="0 0 15 15" width="100%" height="30px" preserveAspectRatio="xMaxYMin meet">
         <g id="arrow_out" transform="scale(0.3 0.3)">
          <a xlink:href="class_array_list_a20ac96a11ec710178bec5d1e78a266b8_icgraph_org.svg" target="_base">
           <rect id="button" ry="5" rx="5" y="6" x="6" height="38" width="38"
                fill="#f2f5e9" fill-opacity="0.5" stroke="#606060" stroke-width="1.0"/>
           <path id="arrow"
             d="M 11.500037,31.436501 C 11.940474,20.09759 22.043105,11.32322 32.158766,21.979434 L 37.068811,17.246167 C 37.068811,17.246167 37.088388,32 37.088388,32 L 22.160133,31.978069 C 22.160133,31.978069 26.997745,27.140456 26.997745,27.140456 C 18.528582,18.264221 13.291696,25.230495 11.500037,31.436501 z"
             style="fill:#404040;"/>
          </a>
         </g>
        </svg>
</svg>
