<?xml version="1.0" encoding="UTF-8" standalone="no"?>
<!DOCTYPE svg PUBLIC "-//W3C//DTD SVG 1.1//EN"
 "http://www.w3.org/Graphics/SVG/1.1/DTD/svg11.dtd">
<!-- Generated by graphviz version 2.30.1 (20130214.1330)
 -->
<!-- Title: ArrayList::resetIterator Pages: 1 -->
<!--zoomable 280 -->
<svg id="main" version="1.1" xmlns="http://www.w3.org/2000/svg" xmlns:xlink="http://www.w3.org/1999/xlink" xml:space="preserve" onload="init(evt)">
<style type="text/css"><![CDATA[
.edge:hover path { stroke: red; }
.edge:hover polygon { stroke: red; fill: red; }
]]></style>
<script type="text/javascript"><![CDATA[
var edges = document.getElementsByTagName('g');
if (edges && edges.length) {
  for (var i=0;i<edges.length;i++) {
    if (edges[i].id.substr(0,4)=='edge') {
      edges[i].setAttribute('class','edge');
    }
  }
}
]]></script>
        <defs>
                <circle id="rim" cx="0" cy="0" r="7"/>
                <circle id="rim2" cx="0" cy="0" r="3.5"/>
                <g id="zoomPlus">
                        <use xlink:href="#rim" fill="#404040">
                                <set attributeName="fill" to="#808080" begin="zoomplus.mouseover" end="zoomplus.mouseout"/>
                        </use>
                        <path d="M-4,0h8M0,-4v8" fill="none" stroke="white" stroke-width="1.5" pointer-events="none"/>
                </g>
                <g id="zoomMin">
                        <use xlink:href="#rim" fill="#404040">
                                <set attributeName="fill" to="#808080" begin="zoomminus.mouseover" end="zoomminus.mouseout"/>
                        </use>
                        <path d="M-4,0h8" fill="none" stroke="white" stroke-width="1.5" pointer-events="none"/>
                </g>
                <g id="dirArrow">
                        <path fill="none" stroke="white" stroke-width="1.5" d="M0,-3.0v7 M-2.5,-0.5L0,-3.0L2.5,-0.5"/>
                </g>
               <g id="resetDef">
                       <use xlink:href="#rim2" fill="#404040">
                               <set attributeName="fill" to="#808080" begin="reset.mouseover" end="reset.mouseout"/>
                       </use>
               </g>
        </defs>

<script type="text/javascript">
var viewWidth = 916;
var viewHeight = 280;
var sectionId = 'dynsection-6';
</script>
<script xlink:href="svgpan.js"/>
<svg id="graph" class="graph">
<g id="viewport">
<title>ArrayList::resetIterator</title>
<polygon fill="white" stroke="white" points="-4,5 -4,-275.599 913,-275.599 913,5 -4,5"/>
<!-- Node1 -->
<g id="node1" class="node"><title>Node1</title>
<polygon fill="#bfbfbf" stroke="black" points="0.5,-76.5 0.5,-95.5 113.5,-95.5 113.5,-76.5 0.5,-76.5"/>
<text text-anchor="middle" x="57" y="-83.5" font-family="Helvetica,sans-Serif" font-size="10.00">ArrayList::resetIterator</text>
</g>
<!-- Node2 -->
<g id="node2" class="node"><title>Node2</title>
<g id="a_node2"><a xlink:href="class_aquaduino.html#a01abc2912433c4af75419077cb72251e" target="_top" xlink:title="Aquaduino::resetController\lIterator">
<polygon fill="white" stroke="black" points="171.5,-115 171.5,-145 302.5,-145 302.5,-115 171.5,-115"/>
<text text-anchor="start" x="179.5" y="-133" font-family="Helvetica,sans-Serif" font-size="10.00">Aquaduino::resetController</text>
<text text-anchor="middle" x="237" y="-122" font-family="Helvetica,sans-Serif" font-size="10.00">Iterator</text>
</a>
</g>
</g>
<!-- Node1&#45;&gt;Node2 -->
<g id="edge1" class="edge"><title>Node1&#45;&gt;Node2</title>
<path fill="none" stroke="midnightblue" d="M106.364,-97.955C127.538,-103.189 152.62,-109.389 175.054,-114.935"/>
<polygon fill="midnightblue" stroke="midnightblue" points="107.171,-94.5494 96.6233,-95.5473 105.491,-101.345 107.171,-94.5494"/>
</g>
<!-- Node8 -->
<g id="node8" class="node"><title>Node8</title>
<g id="a_node8"><a xlink:href="class_aquaduino.html#ad399caf8b1461f7cf082f7816b685303" target="_top" xlink:title="Aquaduino::resetActuator\lIterator">
<polygon fill="white" stroke="black" points="173.5,-191 173.5,-221 300.5,-221 300.5,-191 173.5,-191"/>
<text text-anchor="start" x="181.5" y="-209" font-family="Helvetica,sans-Serif" font-size="10.00">Aquaduino::resetActuator</text>
<text text-anchor="middle" x="237" y="-198" font-family="Helvetica,sans-Serif" font-size="10.00">Iterator</text>
</a>
</g>
</g>
<!-- Node1&#45;&gt;Node8 -->
<g id="edge9" class="edge"><title>Node1&#45;&gt;Node8</title>
<path fill="none" stroke="midnightblue" d="M78.4446,-101.962C96.8329,-116.111 124.757,-137.092 150,-154 169.57,-167.108 192.416,-180.852 209.64,-190.916"/>
<polygon fill="midnightblue" stroke="midnightblue" points="80.2882,-98.9628 70.2372,-95.612 76.0049,-104.499 80.2882,-98.9628"/>
</g>
<!-- Node10 -->
<g id="node10" class="node"><title>Node10</title>
<g id="a_node10"><a xlink:href="class_aquaduino.html#a088ba3bf2e3429f341e09d0c8f62ded4" target="_top" xlink:title="Aquaduino::getAssignedActuators">
<polygon fill="white" stroke="black" points="155,-76.5 155,-95.5 319,-95.5 319,-76.5 155,-76.5"/>
<text text-anchor="middle" x="237" y="-83.5" font-family="Helvetica,sans-Serif" font-size="10.00">Aquaduino::getAssignedActuators</text>
</a>
</g>
</g>
<!-- Node1&#45;&gt;Node10 -->
<g id="edge15" class="edge"><title>Node1&#45;&gt;Node10</title>
<path fill="none" stroke="midnightblue" d="M124.124,-86C134.167,-86 144.627,-86 154.943,-86"/>
<polygon fill="midnightblue" stroke="midnightblue" points="123.832,-82.5001 113.832,-86 123.832,-89.5001 123.832,-82.5001"/>
</g>
<!-- Node13 -->
<g id="node13" class="node"><title>Node13</title>
<g id="a_node13"><a xlink:href="class_aquaduino.html#aee9a7b8ca4ec2a13e7deaf5fea4e24c3" target="_top" xlink:title="Aquaduino::getAssignedActuatorIDs">
<polygon fill="white" stroke="black" points="150.5,-38.5 150.5,-57.5 323.5,-57.5 323.5,-38.5 150.5,-38.5"/>
<text text-anchor="middle" x="237" y="-45.5" font-family="Helvetica,sans-Serif" font-size="10.00">Aquaduino::getAssignedActuatorIDs</text>
</a>
</g>
</g>
<!-- Node1&#45;&gt;Node13 -->
<g id="edge18" class="edge"><title>Node1&#45;&gt;Node13</title>
<path fill="none" stroke="midnightblue" d="M112.716,-74.319C137.959,-68.9301 167.545,-62.6139 191.406,-57.5201"/>
<polygon fill="midnightblue" stroke="midnightblue" points="111.966,-70.9003 102.917,-76.411 113.427,-77.746 111.966,-70.9003"/>
</g>
<!-- Node14 -->
<g id="node14" class="node"><title>Node14</title>
<g id="a_node14"><a xlink:href="class_aquaduino.html#a72ddeb7acd4e678dbbf7835f6876fc3c" target="_top" xlink:title="Aquaduino::run">
<polygon fill="white" stroke="black" points="196,-0.5 196,-19.5 278,-19.5 278,-0.5 196,-0.5"/>
<text text-anchor="middle" x="237" y="-7.5" font-family="Helvetica,sans-Serif" font-size="10.00">Aquaduino::run</text>
</a>
</g>
</g>
<!-- Node1&#45;&gt;Node14 -->
<g id="edge19" class="edge"><title>Node1&#45;&gt;Node14</title>
<path fill="none" stroke="midnightblue" d="M78.873,-70.2015C96.8374,-57.3282 123.912,-39.6036 150,-29 164.449,-23.1273 181.036,-18.9181 195.764,-15.9791"/>
<polygon fill="midnightblue" stroke="midnightblue" points="76.3667,-67.6984 70.3627,-76.4278 80.5,-73.3479 76.3667,-67.6984"/>
</g>
<!-- Node3 -->
<g id="node3" class="node"><title>Node3</title>
<g id="a_node3"><a xlink:href="dispatch_8cpp.html#a0c9bf0c5f9946202d30b8743843e361a" target="_top" xlink:title="controllerDispatchCommand">
<polygon fill="white" stroke="black" points="526.5,-215.5 526.5,-234.5 665.5,-234.5 665.5,-215.5 526.5,-215.5"/>
<text text-anchor="middle" x="596" y="-222.5" font-family="Helvetica,sans-Serif" font-size="10.00">controllerDispatchCommand</text>
</a>
</g>
</g>
<!-- Node2&#45;&gt;Node3 -->
<g id="edge2" class="edge"><title>Node2&#45;&gt;Node3</title>
<path fill="none" stroke="midnightblue" d="M304.411,-147.672C379.556,-167.669 499.219,-199.512 558.813,-215.371"/>
<polygon fill="midnightblue" stroke="midnightblue" points="305.131,-144.242 294.568,-145.053 303.331,-151.007 305.131,-144.242"/>
</g>
<!-- Node6 -->
<g id="node6" class="node"><title>Node6</title>
<g id="a_node6"><a xlink:href="mainweb_8cpp.html#adc3a282df65858d7820a8c90f7191472" target="_top" xlink:title="printActuatorTable">
<polygon fill="white" stroke="black" points="377.5,-120.5 377.5,-139.5 472.5,-139.5 472.5,-120.5 377.5,-120.5"/>
<text text-anchor="middle" x="425" y="-127.5" font-family="Helvetica,sans-Serif" font-size="10.00">printActuatorTable</text>
</a>
</g>
</g>
<!-- Node2&#45;&gt;Node6 -->
<g id="edge5" class="edge"><title>Node2&#45;&gt;Node6</title>
<path fill="none" stroke="midnightblue" d="M312.791,-130C334.647,-130 357.899,-130 377.461,-130"/>
<polygon fill="midnightblue" stroke="midnightblue" points="312.532,-126.5 302.532,-130 312.532,-133.5 312.532,-126.5"/>
</g>
<!-- Node7 -->
<g id="node7" class="node"><title>Node7</title>
<g id="a_node7"><a xlink:href="mainweb_8cpp.html#afd56fefe2a8598f61d016320f5250491" target="_top" xlink:title="defaultCmd">
<polygon fill="white" stroke="black" points="563.5,-139.5 563.5,-158.5 628.5,-158.5 628.5,-139.5 563.5,-139.5"/>
<text text-anchor="middle" x="596" y="-146.5" font-family="Helvetica,sans-Serif" font-size="10.00">defaultCmd</text>
</a>
</g>
</g>
<!-- Node2&#45;&gt;Node7 -->
<g id="edge8" class="edge"><title>Node2&#45;&gt;Node7</title>
<path fill="none" stroke="midnightblue" d="M312.808,-114.698C363.195,-106.751 430.973,-100.648 490,-111 520.743,-116.392 554.347,-130.032 575.054,-139.412"/>
<polygon fill="midnightblue" stroke="midnightblue" points="311.953,-111.291 302.65,-116.361 313.084,-118.199 311.953,-111.291"/>
</g>
<!-- Node4 -->
<g id="node4" class="node"><title>Node4</title>
<g id="a_node4"><a xlink:href="class_aquaduino.html#a6f21b3e1fe7fd8b1c13d1e78372abed6" target="_top" xlink:title="Aquaduino::setWebserver">
<polygon fill="white" stroke="black" points="702,-177.5 702,-196.5 830,-196.5 830,-177.5 702,-177.5"/>
<text text-anchor="middle" x="766" y="-184.5" font-family="Helvetica,sans-Serif" font-size="10.00">Aquaduino::setWebserver</text>
</a>
</g>
</g>
<!-- Node3&#45;&gt;Node4 -->
<g id="edge3" class="edge"><title>Node3&#45;&gt;Node4</title>
<path fill="none" stroke="midnightblue" d="M649.276,-213.176C672.961,-207.818 700.59,-201.569 722.911,-196.52"/>
<polygon fill="midnightblue" stroke="midnightblue" points="648.375,-209.791 639.393,-215.411 649.919,-216.619 648.375,-209.791"/>
</g>
<!-- Node5 -->
<g id="node5" class="node"><title>Node5</title>
<g id="a_node5"><a xlink:href="_aquaduino_8cpp.html#a4fc01d736fe50cf5b977f755b675f11d" target="_top" xlink:title="setup">
<polygon fill="white" stroke="black" points="866.5,-177.5 866.5,-196.5 907.5,-196.5 907.5,-177.5 866.5,-177.5"/>
<text text-anchor="middle" x="887" y="-184.5" font-family="Helvetica,sans-Serif" font-size="10.00">setup</text>
</a>
</g>
</g>
<!-- Node4&#45;&gt;Node5 -->
<g id="edge4" class="edge"><title>Node4&#45;&gt;Node5</title>
<path fill="none" stroke="midnightblue" d="M840.371,-187C849.872,-187 858.873,-187 866.331,-187"/>
<polygon fill="midnightblue" stroke="midnightblue" points="840.333,-183.5 830.333,-187 840.333,-190.5 840.333,-183.5"/>
</g>
<!-- Node6&#45;&gt;Node7 -->
<g id="edge6" class="edge"><title>Node6&#45;&gt;Node7</title>
<path fill="none" stroke="midnightblue" d="M482.716,-136.376C509.651,-139.405 540.823,-142.909 563.479,-145.456"/>
<polygon fill="midnightblue" stroke="midnightblue" points="482.956,-132.881 472.627,-135.242 482.174,-139.838 482.956,-132.881"/>
</g>
<!-- Node7&#45;&gt;Node4 -->
<g id="edge7" class="edge"><title>Node7&#45;&gt;Node4</title>
<path fill="none" stroke="midnightblue" d="M638.404,-158.365C664.065,-164.17 696.939,-171.605 722.756,-177.445"/>
<polygon fill="midnightblue" stroke="midnightblue" points="639.125,-154.94 628.6,-156.148 637.581,-161.768 639.125,-154.94"/>
</g>
<!-- Node9 -->
<g id="node9" class="node"><title>Node9</title>
<g id="a_node9"><a xlink:href="dispatch_8cpp.html#a57a05a1aa70f5b076936a72ec80f9db3" target="_top" xlink:title="configCmd">
<polygon fill="white" stroke="black" points="394,-234.5 394,-253.5 456,-253.5 456,-234.5 394,-234.5"/>
<text text-anchor="middle" x="425" y="-241.5" font-family="Helvetica,sans-Serif" font-size="10.00">configCmd</text>
</a>
</g>
</g>
<!-- Node8&#45;&gt;Node9 -->
<g id="edge10" class="edge"><title>Node8&#45;&gt;Node9</title>
<path fill="none" stroke="midnightblue" d="M310.809,-220.875C339.735,-226.784 371.398,-233.253 393.861,-237.843"/>
<polygon fill="midnightblue" stroke="midnightblue" points="311.21,-217.385 300.712,-218.812 309.809,-224.243 311.21,-217.385"/>
</g>
<!-- Node8&#45;&gt;Node3 -->
<g id="edge12" class="edge"><title>Node8&#45;&gt;Node3</title>
<path fill="none" stroke="midnightblue" d="M271.029,-226.281C294.804,-239.643 328.167,-255.93 360,-263 416.404,-275.526 433.091,-272.981 490,-263 520.743,-257.608 554.347,-243.968 575.054,-234.588"/>
<polygon fill="midnightblue" stroke="midnightblue" points="272.508,-223.094 262.094,-221.143 269.019,-229.162 272.508,-223.094"/>
</g>
<!-- Node8&#45;&gt;Node6 -->
<g id="edge13" class="edge"><title>Node8&#45;&gt;Node6</title>
<path fill="none" stroke="midnightblue" d="M284.312,-187.077C321.268,-171.977 371.503,-151.45 400.571,-139.573"/>
<polygon fill="midnightblue" stroke="midnightblue" points="282.681,-183.962 274.748,-190.985 285.329,-190.442 282.681,-183.962"/>
</g>
<!-- Node8&#45;&gt;Node7 -->
<g id="edge14" class="edge"><title>Node8&#45;&gt;Node7</title>
<path fill="none" stroke="midnightblue" d="M310.762,-194.383C388.188,-182.02 507.119,-163.031 563.397,-154.046"/>
<polygon fill="midnightblue" stroke="midnightblue" points="309.916,-190.973 300.593,-196.006 311.02,-197.886 309.916,-190.973"/>
</g>
<!-- Node9&#45;&gt;Node3 -->
<g id="edge11" class="edge"><title>Node9&#45;&gt;Node3</title>
<path fill="none" stroke="midnightblue" d="M466.346,-239.464C484.347,-237.44 506.067,-234.998 526.493,-232.702"/>
<polygon fill="midnightblue" stroke="midnightblue" points="465.76,-236.008 456.214,-240.603 466.542,-242.964 465.76,-236.008"/>
</g>
<!-- Node11 -->
<g id="node11" class="node"><title>Node11</title>
<g id="a_node11"><a xlink:href="class_controller.html#ab276a8fd2df621098a9a24f5dfcc6bb2" target="_top" xlink:title="Controller::allMyActuators">
<polygon fill="white" stroke="black" points="360.5,-44.5 360.5,-63.5 489.5,-63.5 489.5,-44.5 360.5,-44.5"/>
<text text-anchor="middle" x="425" y="-51.5" font-family="Helvetica,sans-Serif" font-size="10.00">Controller::allMyActuators</text>
</a>
</g>
</g>
<!-- Node10&#45;&gt;Node11 -->
<g id="edge16" class="edge"><title>Node10&#45;&gt;Node11</title>
<path fill="none" stroke="midnightblue" d="M303.255,-74.7734C324.584,-71.1038 348.056,-67.0656 368.589,-63.533"/>
<polygon fill="midnightblue" stroke="midnightblue" points="302.564,-71.3407 293.303,-76.4856 303.751,-78.2393 302.564,-71.3407"/>
</g>
<!-- Node12 -->
<g id="node12" class="node"><title>Node12</title>
<g id="a_node12"><a xlink:href="class_level_controller.html#acf5109c2a5b60a9923e4c7b6d4176f6c" target="_top" xlink:title="LevelController::run">
<polygon fill="white" stroke="black" points="546.5,-44.5 546.5,-63.5 645.5,-63.5 645.5,-44.5 546.5,-44.5"/>
<text text-anchor="middle" x="596" y="-51.5" font-family="Helvetica,sans-Serif" font-size="10.00">LevelController::run</text>
</a>
</g>
</g>
<!-- Node11&#45;&gt;Node12 -->
<g id="edge17" class="edge"><title>Node11&#45;&gt;Node12</title>
<path fill="none" stroke="midnightblue" d="M500.085,-54C515.738,-54 531.874,-54 546.302,-54"/>
<polygon fill="midnightblue" stroke="midnightblue" points="499.892,-50.5001 489.892,-54 499.892,-57.5001 499.892,-50.5001"/>
</g>
<!-- Node15 -->
<g id="node15" class="node"><title>Node15</title>
<g id="a_node15"><a xlink:href="_aquaduino_8cpp.html#afe461d27b9c48d5921c00d521181f12f" target="_top" xlink:title="loop">
<polygon fill="white" stroke="black" points="407.5,-0.5 407.5,-19.5 442.5,-19.5 442.5,-0.5 407.5,-0.5"/>
<text text-anchor="middle" x="425" y="-7.5" font-family="Helvetica,sans-Serif" font-size="10.00">loop</text>
</a>
</g>
</g>
<!-- Node14&#45;&gt;Node15 -->
<g id="edge20" class="edge"><title>Node14&#45;&gt;Node15</title>
<path fill="none" stroke="midnightblue" d="M288.36,-10C327.898,-10 380.56,-10 407.135,-10"/>
<polygon fill="midnightblue" stroke="midnightblue" points="288.359,-6.5001 278.359,-10 288.359,-13.5001 288.359,-6.5001"/>
</g>
</g>
</svg>
        <g id="navigator" transform="translate(0 0)" fill="#404254">
                <rect fill="#f2f5e9" fill-opacity="0.5" stroke="#606060" stroke-width=".5" x="0" y="0" width="60" height="60"/>
                <use id="zoomplus" xlink:href="#zoomPlus" x="17" y="9" onmousedown="handleZoom(evt,'in')"/>
                <use id="zoomminus" xlink:href="#zoomMin" x="42" y="9" onmousedown="handleZoom(evt,'out')"/>
                <use id="reset" xlink:href="#resetDef" x="30" y="36" onmousedown="handleReset()"/>
                <g id="arrowUp" xlink:href="#dirArrow" transform="translate(30 24)" onmousedown="handlePan(0,-1)">
                  <use xlink:href="#rim" fill="#404040">
                        <set attributeName="fill" to="#808080" begin="arrowUp.mouseover" end="arrowUp.mouseout"/>
                  </use>
                  <path fill="none" stroke="white" stroke-width="1.5" d="M0,-3.0v7 M-2.5,-0.5L0,-3.0L2.5,-0.5"/>
                </g>
                <g id="arrowRight" xlink:href="#dirArrow" transform="rotate(90) translate(36 -43)" onmousedown="handlePan(1,0)">
                  <use xlink:href="#rim" fill="#404040">
                        <set attributeName="fill" to="#808080" begin="arrowRight.mouseover" end="arrowRight.mouseout"/>
                  </use>
                  <path fill="none" stroke="white" stroke-width="1.5" d="M0,-3.0v7 M-2.5,-0.5L0,-3.0L2.5,-0.5"/>
                </g>
                <g id="arrowDown" xlink:href="#dirArrow" transform="rotate(180) translate(-30 -48)" onmousedown="handlePan(0,1)">
                  <use xlink:href="#rim" fill="#404040">
                        <set attributeName="fill" to="#808080" begin="arrowDown.mouseover" end="arrowDown.mouseout"/>
                  </use>
                  <path fill="none" stroke="white" stroke-width="1.5" d="M0,-3.0v7 M-2.5,-0.5L0,-3.0L2.5,-0.5"/>
                </g>
                <g id="arrowLeft" xlink:href="#dirArrow" transform="rotate(270) translate(-36 17)" onmousedown="handlePan(-1,0)">
                  <use xlink:href="#rim" fill="#404040">
                        <set attributeName="fill" to="#808080" begin="arrowLeft.mouseover" end="arrowLeft.mouseout"/>
                  </use>
                  <path fill="none" stroke="white" stroke-width="1.5" d="M0,-3.0v7 M-2.5,-0.5L0,-3.0L2.5,-0.5"/>
                </g>
        </g>
        <svg viewBox="0 0 15 15" width="100%" height="30px" preserveAspectRatio="xMaxYMin meet">
         <g id="arrow_out" transform="scale(0.3 0.3)">
          <a xlink:href="class_array_list_ada61a62619272992ac7fb0da2cf400b8_icgraph_org.svg" target="_base">
           <rect id="button" ry="5" rx="5" y="6" x="6" height="38" width="38"
                fill="#f2f5e9" fill-opacity="0.5" stroke="#606060" stroke-width="1.0"/>
           <path id="arrow"
             d="M 11.500037,31.436501 C 11.940474,20.09759 22.043105,11.32322 32.158766,21.979434 L 37.068811,17.246167 C 37.068811,17.246167 37.088388,32 37.088388,32 L 22.160133,31.978069 C 22.160133,31.978069 26.997745,27.140456 26.997745,27.140456 C 18.528582,18.264221 13.291696,25.230495 11.500037,31.436501 z"
             style="fill:#404040;"/>
          </a>
         </g>
        </svg>
</svg>
