<?xml version="1.0" encoding="UTF-8" standalone="no"?>
<!DOCTYPE svg PUBLIC "-//W3C//DTD SVG 1.1//EN"
 "http://www.w3.org/Graphics/SVG/1.1/DTD/svg11.dtd">
<!-- Generated by graphviz version 2.30.1 (20130214.1330)
 -->
<!-- Title: SDConfigManager::readConfig Pages: 1 -->
<svg width="486pt" height="230pt"
 viewBox="0.00 0.00 486.00 230.00" xmlns="http://www.w3.org/2000/svg" xmlns:xlink="http://www.w3.org/1999/xlink">
<g id="graph0" class="graph" transform="scale(1 1) rotate(0) translate(4 226)">
<title>SDConfigManager::readConfig</title>
<polygon fill="white" stroke="white" points="-4,5 -4,-226 483,-226 483,5 -4,5"/>
<!-- Node1 -->
<g id="node1" class="node"><title>Node1</title>
<polygon fill="#bfbfbf" stroke="black" points="0,-95.5 0,-114.5 146,-114.5 146,-95.5 0,-95.5"/>
<text text-anchor="middle" x="73" y="-102.5" font-family="Helvetica,sans-Serif" font-size="10.00">SDConfigManager::readConfig</text>
</g>
<!-- Node2 -->
<g id="node2" class="node"><title>Node2</title>
<g id="a_node2"><a xlink:href="class_aquaduino.html#a9370f6df101b782a36865c6f49b3bba1" target="_top" xlink:title="Aquaduino::getActuatorID">
<polygon fill="white" stroke="black" points="191,-202.5 191,-221.5 319,-221.5 319,-202.5 191,-202.5"/>
<text text-anchor="middle" x="255" y="-209.5" font-family="Helvetica,sans-Serif" font-size="10.00">Aquaduino::getActuatorID</text>
</a>
</g>
</g>
<!-- Node1&#45;&gt;Node2 -->
<g id="edge1" class="edge"><title>Node1&#45;&gt;Node2</title>
<path fill="none" stroke="midnightblue" d="M83.165,-114.633C100.69,-132.501 140.88,-170.877 182,-192 187.323,-194.734 193.065,-197.132 198.902,-199.227"/>
<polygon fill="midnightblue" stroke="midnightblue" points="198.166,-202.669 208.759,-202.471 200.354,-196.02 198.166,-202.669"/>
</g>
<!-- Node4 -->
<g id="node4" class="node"><title>Node4</title>
<g id="a_node4"><a xlink:href="class_s_d_config_manager.html#af82e2c7188e996b42f9158b108dd6abc" target="_top" xlink:title="SDConfigManager::readStruct\lFromFile">
<polygon fill="white" stroke="black" points="182,-153 182,-183 328,-183 328,-153 182,-153"/>
<text text-anchor="start" x="190" y="-171" font-family="Helvetica,sans-Serif" font-size="10.00">SDConfigManager::readStruct</text>
<text text-anchor="middle" x="255" y="-160" font-family="Helvetica,sans-Serif" font-size="10.00">FromFile</text>
</a>
</g>
</g>
<!-- Node1&#45;&gt;Node4 -->
<g id="edge3" class="edge"><title>Node1&#45;&gt;Node4</title>
<path fill="none" stroke="midnightblue" d="M101.064,-114.557C122.901,-122.26 154.418,-133.359 182,-143 188.066,-145.12 194.421,-147.336 200.738,-149.534"/>
<polygon fill="midnightblue" stroke="midnightblue" points="199.991,-152.98 210.586,-152.958 202.29,-146.368 199.991,-152.98"/>
</g>
<!-- Node5 -->
<g id="node5" class="node"><title>Node5</title>
<g id="a_node5"><a xlink:href="class_object.html#aa06e8c00bea02f598f7a68c5a1775de6" target="_top" xlink:title="Object::getType">
<polygon fill="white" stroke="black" points="212,-114.5 212,-133.5 298,-133.5 298,-114.5 212,-114.5"/>
<text text-anchor="middle" x="255" y="-121.5" font-family="Helvetica,sans-Serif" font-size="10.00">Object::getType</text>
</a>
</g>
</g>
<!-- Node1&#45;&gt;Node5 -->
<g id="edge4" class="edge"><title>Node1&#45;&gt;Node5</title>
<path fill="none" stroke="midnightblue" d="M146.176,-112.619C164.817,-114.586 184.521,-116.666 201.914,-118.502"/>
<polygon fill="midnightblue" stroke="midnightblue" points="201.55,-121.983 211.862,-119.552 202.285,-115.022 201.55,-121.983"/>
</g>
<!-- Node6 -->
<g id="node6" class="node"><title>Node6</title>
<g id="a_node6"><a xlink:href="class_serializable.html#ad6a1d38f4e11eb3e1b1bacd0759dc778" target="_top" xlink:title="Serializable::deserialize">
<polygon fill="white" stroke="black" points="195.5,-76.5 195.5,-95.5 314.5,-95.5 314.5,-76.5 195.5,-76.5"/>
<text text-anchor="middle" x="255" y="-83.5" font-family="Helvetica,sans-Serif" font-size="10.00">Serializable::deserialize</text>
</a>
</g>
</g>
<!-- Node1&#45;&gt;Node6 -->
<g id="edge5" class="edge"><title>Node1&#45;&gt;Node6</title>
<path fill="none" stroke="midnightblue" d="M146.176,-97.3815C159.064,-96.021 172.461,-94.6069 185.25,-93.257"/>
<polygon fill="midnightblue" stroke="midnightblue" points="185.778,-96.7208 195.355,-92.1903 185.043,-89.7594 185.778,-96.7208"/>
</g>
<!-- Node7 -->
<g id="node7" class="node"><title>Node7</title>
<g id="a_node7"><a xlink:href="class_object.html#a40fc29ed066a150c8c3e4fc96f858b7f" target="_top" xlink:title="Object::setName">
<polygon fill="white" stroke="black" points="210,-38.5 210,-57.5 300,-57.5 300,-38.5 210,-38.5"/>
<text text-anchor="middle" x="255" y="-45.5" font-family="Helvetica,sans-Serif" font-size="10.00">Object::setName</text>
</a>
</g>
</g>
<!-- Node1&#45;&gt;Node7 -->
<g id="edge6" class="edge"><title>Node1&#45;&gt;Node7</title>
<path fill="none" stroke="midnightblue" d="M99.5566,-95.3552C121.32,-87.2996 153.5,-75.7587 182,-67 189.559,-64.6768 197.617,-62.379 205.503,-60.2271"/>
<polygon fill="midnightblue" stroke="midnightblue" points="206.597,-63.5576 215.351,-57.5885 204.786,-56.7961 206.597,-63.5576"/>
</g>
<!-- Node8 -->
<g id="node8" class="node"><title>Node8</title>
<g id="a_node8"><a xlink:href="class_actuator.html#af5caa3a0b0cab70443433f073bcf34cc" target="_top" xlink:title="Actuator::setController">
<polygon fill="white" stroke="black" points="198,-0.5 198,-19.5 312,-19.5 312,-0.5 198,-0.5"/>
<text text-anchor="middle" x="255" y="-7.5" font-family="Helvetica,sans-Serif" font-size="10.00">Actuator::setController</text>
</a>
</g>
</g>
<!-- Node1&#45;&gt;Node8 -->
<g id="edge7" class="edge"><title>Node1&#45;&gt;Node8</title>
<path fill="none" stroke="midnightblue" d="M84.8369,-95.3555C103.419,-79.3047 143.13,-47.0911 182,-29 187.055,-26.6475 192.449,-24.5484 197.926,-22.6841"/>
<polygon fill="midnightblue" stroke="midnightblue" points="199.326,-25.9132 207.818,-19.5779 197.229,-19.2348 199.326,-25.9132"/>
</g>
<!-- Node3 -->
<g id="node3" class="node"><title>Node3</title>
<g id="a_node3"><a xlink:href="class_array_list.html#a20ac96a11ec710178bec5d1e78a266b8" target="_top" xlink:title="ArrayList::findElement">
<polygon fill="white" stroke="black" points="364.5,-202.5 364.5,-221.5 477.5,-221.5 477.5,-202.5 364.5,-202.5"/>
<text text-anchor="middle" x="421" y="-209.5" font-family="Helvetica,sans-Serif" font-size="10.00">ArrayList::findElement</text>
</a>
</g>
</g>
<!-- Node2&#45;&gt;Node3 -->
<g id="edge2" class="edge"><title>Node2&#45;&gt;Node3</title>
<path fill="none" stroke="midnightblue" d="M319.407,-212C330.724,-212 342.541,-212 353.931,-212"/>
<polygon fill="midnightblue" stroke="midnightblue" points="354.245,-215.5 364.245,-212 354.245,-208.5 354.245,-215.5"/>
</g>
</g>
</svg>
