<?xml version="1.0" encoding="UTF-8" standalone="no"?>
<!DOCTYPE svg PUBLIC "-//W3C//DTD SVG 1.1//EN"
 "http://www.w3.org/Graphics/SVG/1.1/DTD/svg11.dtd">
<!-- Generated by graphviz version 2.30.1 (20130214.1330)
 -->
<!-- Title: Object::setURL Pages: 1 -->
<svg width="328pt" height="66pt"
 viewBox="0.00 0.00 328.00 66.00" xmlns="http://www.w3.org/2000/svg" xmlns:xlink="http://www.w3.org/1999/xlink">
<g id="graph0" class="graph" transform="scale(1 1) rotate(0) translate(4 62)">
<title>Object::setURL</title>
<polygon fill="white" stroke="white" points="-4,5 -4,-62 325,-62 325,5 -4,5"/>
<!-- Node1 -->
<g id="node1" class="node"><title>Node1</title>
<polygon fill="#bfbfbf" stroke="black" points="0.5,-19.5 0.5,-38.5 83.5,-38.5 83.5,-19.5 0.5,-19.5"/>
<text text-anchor="middle" x="42" y="-26.5" font-family="Helvetica,sans-Serif" font-size="10.00">Object::setURL</text>
</g>
<!-- Node2 -->
<g id="node2" class="node"><title>Node2</title>
<g id="a_node2"><a xlink:href="class_aquaduino.html#a25e61694a18574fc00fdc14a8ef0d7ac" target="_top" xlink:title="Aquaduino::addActuator">
<polygon fill="white" stroke="black" points="120.5,-38.5 120.5,-57.5 241.5,-57.5 241.5,-38.5 120.5,-38.5"/>
<text text-anchor="middle" x="181" y="-45.5" font-family="Helvetica,sans-Serif" font-size="10.00">Aquaduino::addActuator</text>
</a>
</g>
</g>
<!-- Node1&#45;&gt;Node2 -->
<g id="edge1" class="edge"><title>Node1&#45;&gt;Node2</title>
<path fill="none" stroke="midnightblue" d="M93.7122,-36.0331C102.405,-37.2386 111.507,-38.501 120.406,-39.7352"/>
<polygon fill="midnightblue" stroke="midnightblue" points="94.1196,-32.5562 83.7336,-34.6492 93.158,-39.4898 94.1196,-32.5562"/>
</g>
<!-- Node4 -->
<g id="node4" class="node"><title>Node4</title>
<g id="a_node4"><a xlink:href="class_object.html#ac194108499cccd2a5ed218b2da57993f" target="_top" xlink:title="Object::Object">
<polygon fill="white" stroke="black" points="141,-0.5 141,-19.5 221,-19.5 221,-0.5 141,-0.5"/>
<text text-anchor="middle" x="181" y="-7.5" font-family="Helvetica,sans-Serif" font-size="10.00">Object::Object</text>
</a>
</g>
</g>
<!-- Node1&#45;&gt;Node4 -->
<g id="edge3" class="edge"><title>Node1&#45;&gt;Node4</title>
<path fill="none" stroke="midnightblue" d="M93.6889,-21.9701C109.18,-19.8217 125.977,-17.4922 140.601,-15.4641"/>
<polygon fill="midnightblue" stroke="midnightblue" points="93.158,-18.5102 83.7336,-23.3508 94.1196,-25.4438 93.158,-18.5102"/>
</g>
<!-- Node3 -->
<g id="node3" class="node"><title>Node3</title>
<g id="a_node3"><a xlink:href="_aquaduino_8cpp.html#a4fc01d736fe50cf5b977f755b675f11d" target="_top" xlink:title="setup">
<polygon fill="white" stroke="black" points="278.5,-38.5 278.5,-57.5 319.5,-57.5 319.5,-38.5 278.5,-38.5"/>
<text text-anchor="middle" x="299" y="-45.5" font-family="Helvetica,sans-Serif" font-size="10.00">setup</text>
</a>
</g>
</g>
<!-- Node2&#45;&gt;Node3 -->
<g id="edge2" class="edge"><title>Node2&#45;&gt;Node3</title>
<path fill="none" stroke="midnightblue" d="M251.932,-48C261.635,-48 270.873,-48 278.494,-48"/>
<polygon fill="midnightblue" stroke="midnightblue" points="251.699,-44.5001 241.699,-48 251.699,-51.5001 251.699,-44.5001"/>
</g>
</g>
</svg>
