<?xml version="1.0" encoding="UTF-8" standalone="no"?>
<!DOCTYPE svg PUBLIC "-//W3C//DTD SVG 1.1//EN"
 "http://www.w3.org/Graphics/SVG/1.1/DTD/svg11.dtd">
<!-- Generated by graphviz version 2.30.1 (20130214.1330)
 -->
<!-- Title: Aquaduino::getMAC Pages: 1 -->
<svg width="778pt" height="28pt"
 viewBox="0.00 0.00 778.00 28.00" xmlns="http://www.w3.org/2000/svg" xmlns:xlink="http://www.w3.org/1999/xlink">
<g id="graph0" class="graph" transform="scale(1 1) rotate(0) translate(4 24)">
<title>Aquaduino::getMAC</title>
<polygon fill="white" stroke="white" points="-4,5 -4,-24 775,-24 775,5 -4,5"/>
<!-- Node1 -->
<g id="node1" class="node"><title>Node1</title>
<polygon fill="#bfbfbf" stroke="black" points="0,-0.5 0,-19.5 104,-19.5 104,-0.5 0,-0.5"/>
<text text-anchor="middle" x="52" y="-7.5" font-family="Helvetica,sans-Serif" font-size="10.00">Aquaduino::getMAC</text>
</g>
<!-- Node2 -->
<g id="node2" class="node"><title>Node2</title>
<g id="a_node2"><a xlink:href="configweb_8cpp.html#af63922b5bba9bcc24b202484ec739456" target="_top" xlink:title="printTopLevelTemplate">
<polygon fill="white" stroke="black" points="140.5,-0.5 140.5,-19.5 253.5,-19.5 253.5,-0.5 140.5,-0.5"/>
<text text-anchor="middle" x="197" y="-7.5" font-family="Helvetica,sans-Serif" font-size="10.00">printTopLevelTemplate</text>
</a>
</g>
</g>
<!-- Node1&#45;&gt;Node2 -->
<g id="edge1" class="edge"><title>Node1&#45;&gt;Node2</title>
<path fill="none" stroke="midnightblue" d="M114.251,-10C122.9,-10 131.754,-10 140.292,-10"/>
<polygon fill="midnightblue" stroke="midnightblue" points="114.222,-6.5001 104.222,-10 114.222,-13.5001 114.222,-6.5001"/>
</g>
<!-- Node3 -->
<g id="node3" class="node"><title>Node3</title>
<g id="a_node3"><a xlink:href="dispatch_8cpp.html#a57a05a1aa70f5b076936a72ec80f9db3" target="_top" xlink:title="configCmd">
<polygon fill="white" stroke="black" points="290,-0.5 290,-19.5 352,-19.5 352,-0.5 290,-0.5"/>
<text text-anchor="middle" x="321" y="-7.5" font-family="Helvetica,sans-Serif" font-size="10.00">configCmd</text>
</a>
</g>
</g>
<!-- Node2&#45;&gt;Node3 -->
<g id="edge2" class="edge"><title>Node2&#45;&gt;Node3</title>
<path fill="none" stroke="midnightblue" d="M263.876,-10C272.923,-10 281.825,-10 289.78,-10"/>
<polygon fill="midnightblue" stroke="midnightblue" points="263.645,-6.5001 253.645,-10 263.645,-13.5001 263.645,-6.5001"/>
</g>
<!-- Node4 -->
<g id="node4" class="node"><title>Node4</title>
<g id="a_node4"><a xlink:href="dispatch_8cpp.html#a0c9bf0c5f9946202d30b8743843e361a" target="_top" xlink:title="controllerDispatchCommand">
<polygon fill="white" stroke="black" points="388.5,-0.5 388.5,-19.5 527.5,-19.5 527.5,-0.5 388.5,-0.5"/>
<text text-anchor="middle" x="458" y="-7.5" font-family="Helvetica,sans-Serif" font-size="10.00">controllerDispatchCommand</text>
</a>
</g>
</g>
<!-- Node3&#45;&gt;Node4 -->
<g id="edge3" class="edge"><title>Node3&#45;&gt;Node4</title>
<path fill="none" stroke="midnightblue" d="M362.362,-10C370.621,-10 379.53,-10 388.463,-10"/>
<polygon fill="midnightblue" stroke="midnightblue" points="362.297,-6.5001 352.297,-10 362.297,-13.5001 362.297,-6.5001"/>
</g>
<!-- Node5 -->
<g id="node5" class="node"><title>Node5</title>
<g id="a_node5"><a xlink:href="class_aquaduino.html#a6f21b3e1fe7fd8b1c13d1e78372abed6" target="_top" xlink:title="Aquaduino::setWebserver">
<polygon fill="white" stroke="black" points="564,-0.5 564,-19.5 692,-19.5 692,-0.5 564,-0.5"/>
<text text-anchor="middle" x="628" y="-7.5" font-family="Helvetica,sans-Serif" font-size="10.00">Aquaduino::setWebserver</text>
</a>
</g>
</g>
<!-- Node4&#45;&gt;Node5 -->
<g id="edge4" class="edge"><title>Node4&#45;&gt;Node5</title>
<path fill="none" stroke="midnightblue" d="M537.987,-10C546.699,-10 555.482,-10 563.961,-10"/>
<polygon fill="midnightblue" stroke="midnightblue" points="537.817,-6.5001 527.817,-10 537.817,-13.5001 537.817,-6.5001"/>
</g>
<!-- Node6 -->
<g id="node6" class="node"><title>Node6</title>
<g id="a_node6"><a xlink:href="_aquaduino_8cpp.html#a4fc01d736fe50cf5b977f755b675f11d" target="_top" xlink:title="setup">
<polygon fill="white" stroke="black" points="728.5,-0.5 728.5,-19.5 769.5,-19.5 769.5,-0.5 728.5,-0.5"/>
<text text-anchor="middle" x="749" y="-7.5" font-family="Helvetica,sans-Serif" font-size="10.00">setup</text>
</a>
</g>
</g>
<!-- Node5&#45;&gt;Node6 -->
<g id="edge5" class="edge"><title>Node5&#45;&gt;Node6</title>
<path fill="none" stroke="midnightblue" d="M702.371,-10C711.872,-10 720.873,-10 728.331,-10"/>
<polygon fill="midnightblue" stroke="midnightblue" points="702.333,-6.5001 692.333,-10 702.333,-13.5001 702.333,-6.5001"/>
</g>
</g>
</svg>
