<?xml version="1.0" encoding="UTF-8" standalone="no"?>
<!DOCTYPE svg PUBLIC "-//W3C//DTD SVG 1.1//EN"
 "http://www.w3.org/Graphics/SVG/1.1/DTD/svg11.dtd">
<!-- Generated by graphviz version 2.30.1 (20130214.1330)
 -->
<!-- Title: Aquaduino::getTemplateParser Pages: 1 -->
<svg width="880pt" height="212pt"
 viewBox="0.00 0.00 880.00 212.13" xmlns="http://www.w3.org/2000/svg" xmlns:xlink="http://www.w3.org/1999/xlink">
<g id="graph0" class="graph" transform="scale(1 1) rotate(0) translate(4 208.133)">
<title>Aquaduino::getTemplateParser</title>
<polygon fill="white" stroke="white" points="-4,5 -4,-208.133 877,-208.133 877,5 -4,5"/>
<!-- Node1 -->
<g id="node1" class="node"><title>Node1</title>
<polygon fill="#bfbfbf" stroke="black" points="0,-80.6325 0,-99.6325 150,-99.6325 150,-80.6325 0,-80.6325"/>
<text text-anchor="middle" x="75" y="-87.6325" font-family="Helvetica,sans-Serif" font-size="10.00">Aquaduino::getTemplateParser</text>
</g>
<!-- Node2 -->
<g id="node2" class="node"><title>Node2</title>
<g id="a_node2"><a xlink:href="class_digital_output.html#abc5037f1990bb4b383771a77b13664e3" target="_top" xlink:title="DigitalOutput::showWebinterface">
<polygon fill="white" stroke="black" points="190,-184.633 190,-203.633 348,-203.633 348,-184.633 190,-184.633"/>
<text text-anchor="middle" x="269" y="-191.633" font-family="Helvetica,sans-Serif" font-size="10.00">DigitalOutput::showWebinterface</text>
</a>
</g>
</g>
<!-- Node1&#45;&gt;Node2 -->
<g id="edge1" class="edge"><title>Node1&#45;&gt;Node2</title>
<path fill="none" stroke="midnightblue" d="M92.5291,-106.684C112.799,-126.025 149.037,-157.605 186,-175.133 194.186,-179.014 203.217,-182.131 212.203,-184.624"/>
<polygon fill="midnightblue" stroke="midnightblue" points="94.9464,-104.153 85.337,-99.6911 90.0665,-109.172 94.9464,-104.153"/>
</g>
<!-- Node3 -->
<g id="node3" class="node"><title>Node3</title>
<g id="a_node3"><a xlink:href="class_level_controller.html#a994667204edfed42b6689631a103d8ab" target="_top" xlink:title="LevelController::showWebinterface">
<polygon fill="white" stroke="black" points="186.5,-146.633 186.5,-165.633 351.5,-165.633 351.5,-146.633 186.5,-146.633"/>
<text text-anchor="middle" x="269" y="-153.633" font-family="Helvetica,sans-Serif" font-size="10.00">LevelController::showWebinterface</text>
</a>
</g>
</g>
<!-- Node1&#45;&gt;Node3 -->
<g id="edge2" class="edge"><title>Node1&#45;&gt;Node3</title>
<path fill="none" stroke="midnightblue" d="M105.701,-104.048C127.567,-113.923 158.204,-126.994 186,-136.133 197.971,-140.069 211.154,-143.617 223.382,-146.595"/>
<polygon fill="midnightblue" stroke="midnightblue" points="106.864,-100.731 96.3134,-99.7616 103.956,-107.099 106.864,-100.731"/>
</g>
<!-- Node4 -->
<g id="node4" class="node"><title>Node4</title>
<g id="a_node4"><a xlink:href="class_temperature_controller.html#a99ce11713729731ec86877a129021779" target="_top" xlink:title="TemperatureController\l::showWebinterface">
<polygon fill="white" stroke="black" points="213,-97.1325 213,-127.133 325,-127.133 325,-97.1325 213,-97.1325"/>
<text text-anchor="start" x="221" y="-115.133" font-family="Helvetica,sans-Serif" font-size="10.00">TemperatureController</text>
<text text-anchor="middle" x="269" y="-104.133" font-family="Helvetica,sans-Serif" font-size="10.00">::showWebinterface</text>
</a>
</g>
</g>
<!-- Node1&#45;&gt;Node4 -->
<g id="edge3" class="edge"><title>Node1&#45;&gt;Node4</title>
<path fill="none" stroke="midnightblue" d="M160.562,-99.8219C178.24,-101.847 196.442,-103.933 212.726,-105.799"/>
<polygon fill="midnightblue" stroke="midnightblue" points="160.566,-96.2995 150.232,-98.6383 159.769,-103.254 160.566,-96.2995"/>
</g>
<!-- Node5 -->
<g id="node5" class="node"><title>Node5</title>
<g id="a_node5"><a xlink:href="configweb_8cpp.html#af63922b5bba9bcc24b202484ec739456" target="_top" xlink:title="printTopLevelTemplate">
<polygon fill="white" stroke="black" points="212.5,-58.6325 212.5,-77.6325 325.5,-77.6325 325.5,-58.6325 212.5,-58.6325"/>
<text text-anchor="middle" x="269" y="-65.6325" font-family="Helvetica,sans-Serif" font-size="10.00">printTopLevelTemplate</text>
</a>
</g>
</g>
<!-- Node1&#45;&gt;Node5 -->
<g id="edge4" class="edge"><title>Node1&#45;&gt;Node5</title>
<path fill="none" stroke="midnightblue" d="M160.509,-80.4492C178.096,-78.434 196.205,-76.359 212.429,-74.5"/>
<polygon fill="midnightblue" stroke="midnightblue" points="159.769,-77.011 150.232,-81.6268 160.566,-83.9655 159.769,-77.011"/>
</g>
<!-- Node10 -->
<g id="node10" class="node"><title>Node10</title>
<g id="a_node10"><a xlink:href="mainweb_8cpp.html#adc3a282df65858d7820a8c90f7191472" target="_top" xlink:title="printActuatorTable">
<polygon fill="white" stroke="black" points="221.5,-20.6325 221.5,-39.6325 316.5,-39.6325 316.5,-20.6325 221.5,-20.6325"/>
<text text-anchor="middle" x="269" y="-27.6325" font-family="Helvetica,sans-Serif" font-size="10.00">printActuatorTable</text>
</a>
</g>
</g>
<!-- Node1&#45;&gt;Node10 -->
<g id="edge9" class="edge"><title>Node1&#45;&gt;Node10</title>
<path fill="none" stroke="midnightblue" d="M108.283,-76.8438C130.007,-68.2141 159.429,-57.1265 186,-49.1325 197.615,-45.6383 210.318,-42.4126 222.182,-39.6486"/>
<polygon fill="midnightblue" stroke="midnightblue" points="106.859,-73.644 98.8812,-80.6159 109.465,-80.1406 106.859,-73.644"/>
</g>
<!-- Node11 -->
<g id="node11" class="node"><title>Node11</title>
<g id="a_node11"><a xlink:href="mainweb_8cpp.html#afd56fefe2a8598f61d016320f5250491" target="_top" xlink:title="defaultCmd">
<polygon fill="white" stroke="black" points="388.5,-20.6325 388.5,-39.6325 453.5,-39.6325 453.5,-20.6325 388.5,-20.6325"/>
<text text-anchor="middle" x="421" y="-27.6325" font-family="Helvetica,sans-Serif" font-size="10.00">defaultCmd</text>
</a>
</g>
</g>
<!-- Node1&#45;&gt;Node11 -->
<g id="edge12" class="edge"><title>Node1&#45;&gt;Node11</title>
<path fill="none" stroke="midnightblue" d="M92.4614,-73.0945C112.459,-53.7462 148.232,-23.2895 186,-11.1325 256.613,11.5967 345.094,-7.5954 390.347,-20.59"/>
<polygon fill="midnightblue" stroke="midnightblue" points="89.7548,-70.85 85.1303,-80.3823 94.6899,-75.8144 89.7548,-70.85"/>
</g>
<!-- Node6 -->
<g id="node6" class="node"><title>Node6</title>
<g id="a_node6"><a xlink:href="dispatch_8cpp.html#a57a05a1aa70f5b076936a72ec80f9db3" target="_top" xlink:title="configCmd">
<polygon fill="white" stroke="black" points="390,-58.6325 390,-77.6325 452,-77.6325 452,-58.6325 390,-58.6325"/>
<text text-anchor="middle" x="421" y="-65.6325" font-family="Helvetica,sans-Serif" font-size="10.00">configCmd</text>
</a>
</g>
</g>
<!-- Node5&#45;&gt;Node6 -->
<g id="edge5" class="edge"><title>Node5&#45;&gt;Node6</title>
<path fill="none" stroke="midnightblue" d="M335.883,-68.1325C354.675,-68.1325 374.241,-68.1325 389.769,-68.1325"/>
<polygon fill="midnightblue" stroke="midnightblue" points="335.854,-64.6326 325.854,-68.1325 335.854,-71.6326 335.854,-64.6326"/>
</g>
<!-- Node7 -->
<g id="node7" class="node"><title>Node7</title>
<g id="a_node7"><a xlink:href="dispatch_8cpp.html#a0c9bf0c5f9946202d30b8743843e361a" target="_top" xlink:title="controllerDispatchCommand">
<polygon fill="white" stroke="black" points="490.5,-58.6325 490.5,-77.6325 629.5,-77.6325 629.5,-58.6325 490.5,-58.6325"/>
<text text-anchor="middle" x="560" y="-65.6325" font-family="Helvetica,sans-Serif" font-size="10.00">controllerDispatchCommand</text>
</a>
</g>
</g>
<!-- Node6&#45;&gt;Node7 -->
<g id="edge6" class="edge"><title>Node6&#45;&gt;Node7</title>
<path fill="none" stroke="midnightblue" d="M462.083,-68.1325C470.958,-68.1325 480.607,-68.1325 490.262,-68.1325"/>
<polygon fill="midnightblue" stroke="midnightblue" points="462.065,-64.6326 452.065,-68.1325 462.065,-71.6326 462.065,-64.6326"/>
</g>
<!-- Node8 -->
<g id="node8" class="node"><title>Node8</title>
<g id="a_node8"><a xlink:href="class_aquaduino.html#a6f21b3e1fe7fd8b1c13d1e78372abed6" target="_top" xlink:title="Aquaduino::setWebserver">
<polygon fill="white" stroke="black" points="666,-39.6325 666,-58.6325 794,-58.6325 794,-39.6325 666,-39.6325"/>
<text text-anchor="middle" x="730" y="-46.6325" font-family="Helvetica,sans-Serif" font-size="10.00">Aquaduino::setWebserver</text>
</a>
</g>
</g>
<!-- Node7&#45;&gt;Node8 -->
<g id="edge7" class="edge"><title>Node7&#45;&gt;Node8</title>
<path fill="none" stroke="midnightblue" d="M639.987,-59.1994C648.699,-58.2142 657.482,-57.2209 665.961,-56.2619"/>
<polygon fill="midnightblue" stroke="midnightblue" points="639.36,-55.748 629.817,-60.3497 640.147,-62.7036 639.36,-55.748"/>
</g>
<!-- Node9 -->
<g id="node9" class="node"><title>Node9</title>
<g id="a_node9"><a xlink:href="_aquaduino_8cpp.html#a4fc01d736fe50cf5b977f755b675f11d" target="_top" xlink:title="setup">
<polygon fill="white" stroke="black" points="830.5,-39.6325 830.5,-58.6325 871.5,-58.6325 871.5,-39.6325 830.5,-39.6325"/>
<text text-anchor="middle" x="851" y="-46.6325" font-family="Helvetica,sans-Serif" font-size="10.00">setup</text>
</a>
</g>
</g>
<!-- Node8&#45;&gt;Node9 -->
<g id="edge8" class="edge"><title>Node8&#45;&gt;Node9</title>
<path fill="none" stroke="midnightblue" d="M804.371,-49.1325C813.872,-49.1325 822.873,-49.1325 830.331,-49.1325"/>
<polygon fill="midnightblue" stroke="midnightblue" points="804.333,-45.6326 794.333,-49.1325 804.333,-52.6326 804.333,-45.6326"/>
</g>
<!-- Node10&#45;&gt;Node11 -->
<g id="edge10" class="edge"><title>Node10&#45;&gt;Node11</title>
<path fill="none" stroke="midnightblue" d="M326.657,-30.1325C347.454,-30.1325 370.256,-30.1325 388.117,-30.1325"/>
<polygon fill="midnightblue" stroke="midnightblue" points="326.639,-26.6326 316.639,-30.1325 326.639,-33.6326 326.639,-26.6326"/>
</g>
<!-- Node11&#45;&gt;Node8 -->
<g id="edge11" class="edge"><title>Node11&#45;&gt;Node8</title>
<path fill="none" stroke="midnightblue" d="M463.915,-32.7266C516.025,-35.9517 605.457,-41.4866 665.876,-45.2259"/>
<polygon fill="midnightblue" stroke="midnightblue" points="463.895,-29.2188 453.698,-32.0943 463.463,-36.2054 463.895,-29.2188"/>
</g>
</g>
</svg>
