<?xml version="1.0" encoding="UTF-8" standalone="no"?>
<!DOCTYPE svg PUBLIC "-//W3C//DTD SVG 1.1//EN"
 "http://www.w3.org/Graphics/SVG/1.1/DTD/svg11.dtd">
<!-- Generated by graphviz version 2.30.1 (20130214.1330)
 -->
<!-- Title: WebInterface Pages: 1 -->
<!--zoomable 508 -->
<svg id="main" version="1.1" xmlns="http://www.w3.org/2000/svg" xmlns:xlink="http://www.w3.org/1999/xlink" xml:space="preserve" onload="init(evt)">
<style type="text/css"><![CDATA[
.edge:hover path { stroke: red; }
.edge:hover polygon { stroke: red; fill: red; }
]]></style>
<script type="text/javascript"><![CDATA[
var edges = document.getElementsByTagName('g');
if (edges && edges.length) {
  for (var i=0;i<edges.length;i++) {
    if (edges[i].id.substr(0,4)=='edge') {
      edges[i].setAttribute('class','edge');
    }
  }
}
]]></script>
        <defs>
                <circle id="rim" cx="0" cy="0" r="7"/>
                <circle id="rim2" cx="0" cy="0" r="3.5"/>
                <g id="zoomPlus">
                        <use xlink:href="#rim" fill="#404040">
                                <set attributeName="fill" to="#808080" begin="zoomplus.mouseover" end="zoomplus.mouseout"/>
                        </use>
                        <path d="M-4,0h8M0,-4v8" fill="none" stroke="white" stroke-width="1.5" pointer-events="none"/>
                </g>
                <g id="zoomMin">
                        <use xlink:href="#rim" fill="#404040">
                                <set attributeName="fill" to="#808080" begin="zoomminus.mouseover" end="zoomminus.mouseout"/>
                        </use>
                        <path d="M-4,0h8" fill="none" stroke="white" stroke-width="1.5" pointer-events="none"/>
                </g>
                <g id="dirArrow">
                        <path fill="none" stroke="white" stroke-width="1.5" d="M0,-3.0v7 M-2.5,-0.5L0,-3.0L2.5,-0.5"/>
                </g>
               <g id="resetDef">
                       <use xlink:href="#rim2" fill="#404040">
                               <set attributeName="fill" to="#808080" begin="reset.mouseover" end="reset.mouseout"/>
                       </use>
               </g>
        </defs>

<script type="text/javascript">
var viewWidth = 668;
var viewHeight = 508;
var sectionId = 'dynsection-0';
</script>
<script xlink:href="svgpan.js"/>
<svg id="graph" class="graph">
<g id="viewport">
<title>WebInterface</title>
<polygon fill="white" stroke="white" points="-4,5 -4,-504 665,-504 665,5 -4,5"/>
<!-- Node1 -->
<g id="node1" class="node"><title>Node1</title>
<polygon fill="#bfbfbf" stroke="black" points="195.5,-442.5 195.5,-499.5 306.5,-499.5 306.5,-442.5 195.5,-442.5"/>
<text text-anchor="middle" x="251" y="-487.5" font-family="Helvetica,sans-Serif" font-size="10.00">WebInterface</text>
<polyline fill="none" stroke="black" points="195.5,-480.5 306.5,-480.5 "/>
<text text-anchor="middle" x="251" y="-468.5" font-family="Helvetica,sans-Serif" font-size="10.00"> </text>
<polyline fill="none" stroke="black" points="195.5,-461.5 306.5,-461.5 "/>
<text text-anchor="start" x="203.5" y="-449.5" font-family="Helvetica,sans-Serif" font-size="10.00">+ showWebinterface()</text>
</g>
<!-- Node2 -->
<g id="node2" class="node"><title>Node2</title>
<g id="a_node2"><a xlink:href="class_actuator.html" target="_top" xlink:title="{Actuator\n|# m_ControlledBy\l# m_locked\l|+ Actuator()\l+ setController()\l+ getController()\l+ lock()\l+ unlock()\l+ isLocked()\l+ on()\l+ off()\l+ isOn()\l+ supportsPWM()\l+ setPWM()\l+ getPWM()\l+ showWebinterface()\l# ~Actuator()\l}">
<polygon fill="white" stroke="black" points="128.5,-194.5 128.5,-405.5 239.5,-405.5 239.5,-194.5 128.5,-194.5"/>
<text text-anchor="middle" x="184" y="-393.5" font-family="Helvetica,sans-Serif" font-size="10.00">Actuator</text>
<polyline fill="none" stroke="black" points="128.5,-386.5 239.5,-386.5 "/>
<text text-anchor="start" x="136.5" y="-374.5" font-family="Helvetica,sans-Serif" font-size="10.00"># m_ControlledBy</text>
<text text-anchor="start" x="136.5" y="-363.5" font-family="Helvetica,sans-Serif" font-size="10.00"># m_locked</text>
<polyline fill="none" stroke="black" points="128.5,-356.5 239.5,-356.5 "/>
<text text-anchor="start" x="136.5" y="-344.5" font-family="Helvetica,sans-Serif" font-size="10.00">+ Actuator()</text>
<text text-anchor="start" x="136.5" y="-333.5" font-family="Helvetica,sans-Serif" font-size="10.00">+ setController()</text>
<text text-anchor="start" x="136.5" y="-322.5" font-family="Helvetica,sans-Serif" font-size="10.00">+ getController()</text>
<text text-anchor="start" x="136.5" y="-311.5" font-family="Helvetica,sans-Serif" font-size="10.00">+ lock()</text>
<text text-anchor="start" x="136.5" y="-300.5" font-family="Helvetica,sans-Serif" font-size="10.00">+ unlock()</text>
<text text-anchor="start" x="136.5" y="-289.5" font-family="Helvetica,sans-Serif" font-size="10.00">+ isLocked()</text>
<text text-anchor="start" x="136.5" y="-278.5" font-family="Helvetica,sans-Serif" font-size="10.00">+ on()</text>
<text text-anchor="start" x="136.5" y="-267.5" font-family="Helvetica,sans-Serif" font-size="10.00">+ off()</text>
<text text-anchor="start" x="136.5" y="-256.5" font-family="Helvetica,sans-Serif" font-size="10.00">+ isOn()</text>
<text text-anchor="start" x="136.5" y="-245.5" font-family="Helvetica,sans-Serif" font-size="10.00">+ supportsPWM()</text>
<text text-anchor="start" x="136.5" y="-234.5" font-family="Helvetica,sans-Serif" font-size="10.00">+ setPWM()</text>
<text text-anchor="start" x="136.5" y="-223.5" font-family="Helvetica,sans-Serif" font-size="10.00">+ getPWM()</text>
<text text-anchor="start" x="136.5" y="-212.5" font-family="Helvetica,sans-Serif" font-size="10.00">+ showWebinterface()</text>
<text text-anchor="start" x="136.5" y="-201.5" font-family="Helvetica,sans-Serif" font-size="10.00"># ~Actuator()</text>
</a>
</g>
</g>
<!-- Node1&#45;&gt;Node2 -->
<g id="edge1" class="edge"><title>Node1&#45;&gt;Node2</title>
<path fill="none" stroke="midnightblue" d="M236.355,-433.059C233.02,-424.647 229.316,-415.304 225.462,-405.584"/>
<polygon fill="none" stroke="midnightblue" points="233.147,-434.465 240.086,-442.471 239.654,-431.885 233.147,-434.465"/>
</g>
<!-- Node5 -->
<g id="node5" class="node"><title>Node5</title>
<g id="a_node5"><a xlink:href="class_controller.html" target="_top" xlink:title="{Controller\n||+ Controller()\l+ run()\l+ showWebinterface()\l# ~Controller()\l# allMyActuators()\l}">
<polygon fill="white" stroke="black" points="330.5,-249.5 330.5,-350.5 441.5,-350.5 441.5,-249.5 330.5,-249.5"/>
<text text-anchor="middle" x="386" y="-338.5" font-family="Helvetica,sans-Serif" font-size="10.00">Controller</text>
<polyline fill="none" stroke="black" points="330.5,-331.5 441.5,-331.5 "/>
<text text-anchor="middle" x="386" y="-319.5" font-family="Helvetica,sans-Serif" font-size="10.00"> </text>
<polyline fill="none" stroke="black" points="330.5,-312.5 441.5,-312.5 "/>
<text text-anchor="start" x="338.5" y="-300.5" font-family="Helvetica,sans-Serif" font-size="10.00">+ Controller()</text>
<text text-anchor="start" x="338.5" y="-289.5" font-family="Helvetica,sans-Serif" font-size="10.00">+ run()</text>
<text text-anchor="start" x="338.5" y="-278.5" font-family="Helvetica,sans-Serif" font-size="10.00">+ showWebinterface()</text>
<text text-anchor="start" x="338.5" y="-267.5" font-family="Helvetica,sans-Serif" font-size="10.00"># ~Controller()</text>
<text text-anchor="start" x="338.5" y="-256.5" font-family="Helvetica,sans-Serif" font-size="10.00"># allMyActuators()</text>
</a>
</g>
</g>
<!-- Node1&#45;&gt;Node5 -->
<g id="edge4" class="edge"><title>Node1&#45;&gt;Node5</title>
<path fill="none" stroke="midnightblue" d="M279.31,-434.561C298.74,-410.237 324.798,-377.616 346.298,-350.702"/>
<polygon fill="none" stroke="midnightblue" points="276.497,-432.473 272.991,-442.471 281.967,-436.842 276.497,-432.473"/>
</g>
<!-- Node3 -->
<g id="node3" class="node"><title>Node3</title>
<g id="a_node3"><a xlink:href="class_digital_output.html" target="_top" xlink:title="{DigitalOutput\n||+ DigitalOutput()\l+ serialize()\l+ deserialize()\l+ on()\l+ off()\l+ isOn()\l+ supportsPWM()\l+ setPWM()\l+ getPWM()\l+ showWebinterface()\l}">
<polygon fill="white" stroke="black" points="-0.5,-1 -0.5,-157 110.5,-157 110.5,-1 -0.5,-1"/>
<text text-anchor="middle" x="55" y="-145" font-family="Helvetica,sans-Serif" font-size="10.00">DigitalOutput</text>
<polyline fill="none" stroke="black" points="-0.5,-138 110.5,-138 "/>
<text text-anchor="middle" x="55" y="-126" font-family="Helvetica,sans-Serif" font-size="10.00"> </text>
<polyline fill="none" stroke="black" points="-0.5,-119 110.5,-119 "/>
<text text-anchor="start" x="7.5" y="-107" font-family="Helvetica,sans-Serif" font-size="10.00">+ DigitalOutput()</text>
<text text-anchor="start" x="7.5" y="-96" font-family="Helvetica,sans-Serif" font-size="10.00">+ serialize()</text>
<text text-anchor="start" x="7.5" y="-85" font-family="Helvetica,sans-Serif" font-size="10.00">+ deserialize()</text>
<text text-anchor="start" x="7.5" y="-74" font-family="Helvetica,sans-Serif" font-size="10.00">+ on()</text>
<text text-anchor="start" x="7.5" y="-63" font-family="Helvetica,sans-Serif" font-size="10.00">+ off()</text>
<text text-anchor="start" x="7.5" y="-52" font-family="Helvetica,sans-Serif" font-size="10.00">+ isOn()</text>
<text text-anchor="start" x="7.5" y="-41" font-family="Helvetica,sans-Serif" font-size="10.00">+ supportsPWM()</text>
<text text-anchor="start" x="7.5" y="-30" font-family="Helvetica,sans-Serif" font-size="10.00">+ setPWM()</text>
<text text-anchor="start" x="7.5" y="-19" font-family="Helvetica,sans-Serif" font-size="10.00">+ getPWM()</text>
<text text-anchor="start" x="7.5" y="-8" font-family="Helvetica,sans-Serif" font-size="10.00">+ showWebinterface()</text>
</a>
</g>
</g>
<!-- Node2&#45;&gt;Node3 -->
<g id="edge2" class="edge"><title>Node2&#45;&gt;Node3</title>
<path fill="none" stroke="midnightblue" d="M123.08,-195.578C115.436,-182.6 107.724,-169.508 100.376,-157.034"/>
<polygon fill="none" stroke="midnightblue" points="120.265,-197.695 128.356,-204.535 126.297,-194.143 120.265,-197.695"/>
</g>
<!-- Node4 -->
<g id="node4" class="node"><title>Node4</title>
<g id="a_node4"><a xlink:href="class_p_w_m_output.html" target="_top" xlink:title="{PWMOutput\n||+ PWMOutput()\l+ serialize()\l+ deserialize()\l+ on()\l+ off()\l+ isOn()\l+ supportsPWM()\l+ setPWM()\l+ getPWM()\l+ showWebinterface()\l}">
<polygon fill="white" stroke="black" points="128.5,-1 128.5,-157 239.5,-157 239.5,-1 128.5,-1"/>
<text text-anchor="middle" x="184" y="-145" font-family="Helvetica,sans-Serif" font-size="10.00">PWMOutput</text>
<polyline fill="none" stroke="black" points="128.5,-138 239.5,-138 "/>
<text text-anchor="middle" x="184" y="-126" font-family="Helvetica,sans-Serif" font-size="10.00"> </text>
<polyline fill="none" stroke="black" points="128.5,-119 239.5,-119 "/>
<text text-anchor="start" x="136.5" y="-107" font-family="Helvetica,sans-Serif" font-size="10.00">+ PWMOutput()</text>
<text text-anchor="start" x="136.5" y="-96" font-family="Helvetica,sans-Serif" font-size="10.00">+ serialize()</text>
<text text-anchor="start" x="136.5" y="-85" font-family="Helvetica,sans-Serif" font-size="10.00">+ deserialize()</text>
<text text-anchor="start" x="136.5" y="-74" font-family="Helvetica,sans-Serif" font-size="10.00">+ on()</text>
<text text-anchor="start" x="136.5" y="-63" font-family="Helvetica,sans-Serif" font-size="10.00">+ off()</text>
<text text-anchor="start" x="136.5" y="-52" font-family="Helvetica,sans-Serif" font-size="10.00">+ isOn()</text>
<text text-anchor="start" x="136.5" y="-41" font-family="Helvetica,sans-Serif" font-size="10.00">+ supportsPWM()</text>
<text text-anchor="start" x="136.5" y="-30" font-family="Helvetica,sans-Serif" font-size="10.00">+ setPWM()</text>
<text text-anchor="start" x="136.5" y="-19" font-family="Helvetica,sans-Serif" font-size="10.00">+ getPWM()</text>
<text text-anchor="start" x="136.5" y="-8" font-family="Helvetica,sans-Serif" font-size="10.00">+ showWebinterface()</text>
</a>
</g>
</g>
<!-- Node2&#45;&gt;Node4 -->
<g id="edge3" class="edge"><title>Node2&#45;&gt;Node4</title>
<path fill="none" stroke="midnightblue" d="M184,-184.021C184,-174.915 184,-165.859 184,-157.107"/>
<polygon fill="none" stroke="midnightblue" points="180.5,-184.311 184,-194.311 187.5,-184.311 180.5,-184.311"/>
</g>
<!-- Node6 -->
<g id="node6" class="node"><title>Node6</title>
<g id="a_node6"><a xlink:href="class_clock_timer_controller.html" target="_top" xlink:title="{ClockTimerController\n||+ ClockTimerController()\l+ serialize()\l+ deserialize()\l+ run()\l+ showWebinterface()\l}">
<polygon fill="white" stroke="black" points="258,-28.5 258,-129.5 380,-129.5 380,-28.5 258,-28.5"/>
<text text-anchor="middle" x="319" y="-117.5" font-family="Helvetica,sans-Serif" font-size="10.00">ClockTimerController</text>
<polyline fill="none" stroke="black" points="258,-110.5 380,-110.5 "/>
<text text-anchor="middle" x="319" y="-98.5" font-family="Helvetica,sans-Serif" font-size="10.00"> </text>
<polyline fill="none" stroke="black" points="258,-91.5 380,-91.5 "/>
<text text-anchor="start" x="266" y="-79.5" font-family="Helvetica,sans-Serif" font-size="10.00">+ ClockTimerController()</text>
<text text-anchor="start" x="266" y="-68.5" font-family="Helvetica,sans-Serif" font-size="10.00">+ serialize()</text>
<text text-anchor="start" x="266" y="-57.5" font-family="Helvetica,sans-Serif" font-size="10.00">+ deserialize()</text>
<text text-anchor="start" x="266" y="-46.5" font-family="Helvetica,sans-Serif" font-size="10.00">+ run()</text>
<text text-anchor="start" x="266" y="-35.5" font-family="Helvetica,sans-Serif" font-size="10.00">+ showWebinterface()</text>
</a>
</g>
</g>
<!-- Node5&#45;&gt;Node6 -->
<g id="edge5" class="edge"><title>Node5&#45;&gt;Node6</title>
<path fill="none" stroke="midnightblue" d="M367.766,-239.401C357.264,-205.072 344.215,-162.42 334.259,-129.876"/>
<polygon fill="none" stroke="midnightblue" points="364.524,-240.767 370.797,-249.306 371.218,-238.719 364.524,-240.767"/>
</g>
<!-- Node7 -->
<g id="node7" class="node"><title>Node7</title>
<g id="a_node7"><a xlink:href="class_level_controller.html" target="_top" xlink:title="{LevelController\n||+ LevelController()\l+ serialize()\l+ deserialize()\l+ run()\l+ showWebinterface()\l}">
<polygon fill="white" stroke="black" points="398.5,-28.5 398.5,-129.5 509.5,-129.5 509.5,-28.5 398.5,-28.5"/>
<text text-anchor="middle" x="454" y="-117.5" font-family="Helvetica,sans-Serif" font-size="10.00">LevelController</text>
<polyline fill="none" stroke="black" points="398.5,-110.5 509.5,-110.5 "/>
<text text-anchor="middle" x="454" y="-98.5" font-family="Helvetica,sans-Serif" font-size="10.00"> </text>
<polyline fill="none" stroke="black" points="398.5,-91.5 509.5,-91.5 "/>
<text text-anchor="start" x="406.5" y="-79.5" font-family="Helvetica,sans-Serif" font-size="10.00">+ LevelController()</text>
<text text-anchor="start" x="406.5" y="-68.5" font-family="Helvetica,sans-Serif" font-size="10.00">+ serialize()</text>
<text text-anchor="start" x="406.5" y="-57.5" font-family="Helvetica,sans-Serif" font-size="10.00">+ deserialize()</text>
<text text-anchor="start" x="406.5" y="-46.5" font-family="Helvetica,sans-Serif" font-size="10.00">+ run()</text>
<text text-anchor="start" x="406.5" y="-35.5" font-family="Helvetica,sans-Serif" font-size="10.00">+ showWebinterface()</text>
</a>
</g>
</g>
<!-- Node5&#45;&gt;Node7 -->
<g id="edge6" class="edge"><title>Node5&#45;&gt;Node7</title>
<path fill="none" stroke="midnightblue" d="M404.506,-239.401C415.165,-205.072 428.408,-162.42 438.513,-129.876"/>
<polygon fill="none" stroke="midnightblue" points="401.053,-238.717 401.43,-249.306 407.738,-240.793 401.053,-238.717"/>
</g>
<!-- Node8 -->
<g id="node8" class="node"><title>Node8</title>
<g id="a_node8"><a xlink:href="class_temperature_controller.html" target="_top" xlink:title="{TemperatureController\n||+ TemperatureController()\l+ ~TemperatureController()\l+ serialize()\l+ deserialize()\l+ run()\l+ showWebinterface()\l}">
<polygon fill="white" stroke="black" points="527.5,-23 527.5,-135 660.5,-135 660.5,-23 527.5,-23"/>
<text text-anchor="middle" x="594" y="-123" font-family="Helvetica,sans-Serif" font-size="10.00">TemperatureController</text>
<polyline fill="none" stroke="black" points="527.5,-116 660.5,-116 "/>
<text text-anchor="middle" x="594" y="-104" font-family="Helvetica,sans-Serif" font-size="10.00"> </text>
<polyline fill="none" stroke="black" points="527.5,-97 660.5,-97 "/>
<text text-anchor="start" x="535.5" y="-85" font-family="Helvetica,sans-Serif" font-size="10.00">+ TemperatureController()</text>
<text text-anchor="start" x="535.5" y="-74" font-family="Helvetica,sans-Serif" font-size="10.00">+ ~TemperatureController()</text>
<text text-anchor="start" x="535.5" y="-63" font-family="Helvetica,sans-Serif" font-size="10.00">+ serialize()</text>
<text text-anchor="start" x="535.5" y="-52" font-family="Helvetica,sans-Serif" font-size="10.00">+ deserialize()</text>
<text text-anchor="start" x="535.5" y="-41" font-family="Helvetica,sans-Serif" font-size="10.00">+ run()</text>
<text text-anchor="start" x="535.5" y="-30" font-family="Helvetica,sans-Serif" font-size="10.00">+ showWebinterface()</text>
</a>
</g>
</g>
<!-- Node5&#45;&gt;Node8 -->
<g id="edge7" class="edge"><title>Node5&#45;&gt;Node8</title>
<path fill="none" stroke="midnightblue" d="M440.148,-241.988C471.406,-209.077 510.533,-167.881 541.507,-135.27"/>
<polygon fill="none" stroke="midnightblue" points="437.547,-239.644 433.198,-249.306 442.623,-244.465 437.547,-239.644"/>
</g>
</g>
</svg>
        <g id="navigator" transform="translate(0 0)" fill="#404254">
                <rect fill="#f2f5e9" fill-opacity="0.5" stroke="#606060" stroke-width=".5" x="0" y="0" width="60" height="60"/>
                <use id="zoomplus" xlink:href="#zoomPlus" x="17" y="9" onmousedown="handleZoom(evt,'in')"/>
                <use id="zoomminus" xlink:href="#zoomMin" x="42" y="9" onmousedown="handleZoom(evt,'out')"/>
                <use id="reset" xlink:href="#resetDef" x="30" y="36" onmousedown="handleReset()"/>
                <g id="arrowUp" xlink:href="#dirArrow" transform="translate(30 24)" onmousedown="handlePan(0,-1)">
                  <use xlink:href="#rim" fill="#404040">
                        <set attributeName="fill" to="#808080" begin="arrowUp.mouseover" end="arrowUp.mouseout"/>
                  </use>
                  <path fill="none" stroke="white" stroke-width="1.5" d="M0,-3.0v7 M-2.5,-0.5L0,-3.0L2.5,-0.5"/>
                </g>
                <g id="arrowRight" xlink:href="#dirArrow" transform="rotate(90) translate(36 -43)" onmousedown="handlePan(1,0)">
                  <use xlink:href="#rim" fill="#404040">
                        <set attributeName="fill" to="#808080" begin="arrowRight.mouseover" end="arrowRight.mouseout"/>
                  </use>
                  <path fill="none" stroke="white" stroke-width="1.5" d="M0,-3.0v7 M-2.5,-0.5L0,-3.0L2.5,-0.5"/>
                </g>
                <g id="arrowDown" xlink:href="#dirArrow" transform="rotate(180) translate(-30 -48)" onmousedown="handlePan(0,1)">
                  <use xlink:href="#rim" fill="#404040">
                        <set attributeName="fill" to="#808080" begin="arrowDown.mouseover" end="arrowDown.mouseout"/>
                  </use>
                  <path fill="none" stroke="white" stroke-width="1.5" d="M0,-3.0v7 M-2.5,-0.5L0,-3.0L2.5,-0.5"/>
                </g>
                <g id="arrowLeft" xlink:href="#dirArrow" transform="rotate(270) translate(-36 17)" onmousedown="handlePan(-1,0)">
                  <use xlink:href="#rim" fill="#404040">
                        <set attributeName="fill" to="#808080" begin="arrowLeft.mouseover" end="arrowLeft.mouseout"/>
                  </use>
                  <path fill="none" stroke="white" stroke-width="1.5" d="M0,-3.0v7 M-2.5,-0.5L0,-3.0L2.5,-0.5"/>
                </g>
        </g>
        <svg viewBox="0 0 15 15" width="100%" height="30px" preserveAspectRatio="xMaxYMin meet">
         <g id="arrow_out" transform="scale(0.3 0.3)">
          <a xlink:href="class_web_interface__inherit__graph_org.svg" target="_base">
           <rect id="button" ry="5" rx="5" y="6" x="6" height="38" width="38"
                fill="#f2f5e9" fill-opacity="0.5" stroke="#606060" stroke-width="1.0"/>
           <path id="arrow"
             d="M 11.500037,31.436501 C 11.940474,20.09759 22.043105,11.32322 32.158766,21.979434 L 37.068811,17.246167 C 37.068811,17.246167 37.088388,32 37.088388,32 L 22.160133,31.978069 C 22.160133,31.978069 26.997745,27.140456 26.997745,27.140456 C 18.528582,18.264221 13.291696,25.230495 11.500037,31.436501 z"
             style="fill:#404040;"/>
          </a>
         </g>
        </svg>
</svg>
