<?xml version="1.0" encoding="UTF-8" standalone="no"?>
<!DOCTYPE svg PUBLIC "-//W3C//DTD SVG 1.1//EN"
 "http://www.w3.org/Graphics/SVG/1.1/DTD/svg11.dtd">
<!-- Generated by graphviz version 2.30.1 (20130214.1330)
 -->
<!-- Title: Aquaduino::getGateway Pages: 1 -->
<svg width="794pt" height="28pt"
 viewBox="0.00 0.00 794.00 28.00" xmlns="http://www.w3.org/2000/svg" xmlns:xlink="http://www.w3.org/1999/xlink">
<g id="graph0" class="graph" transform="scale(1 1) rotate(0) translate(4 24)">
<title>Aquaduino::getGateway</title>
<polygon fill="white" stroke="white" points="-4,5 -4,-24 791,-24 791,5 -4,5"/>
<!-- Node1 -->
<g id="node1" class="node"><title>Node1</title>
<polygon fill="#bfbfbf" stroke="black" points="0,-0.5 0,-19.5 120,-19.5 120,-0.5 0,-0.5"/>
<text text-anchor="middle" x="60" y="-7.5" font-family="Helvetica,sans-Serif" font-size="10.00">Aquaduino::getGateway</text>
</g>
<!-- Node2 -->
<g id="node2" class="node"><title>Node2</title>
<g id="a_node2"><a xlink:href="configweb_8cpp.html#af63922b5bba9bcc24b202484ec739456" target="_top" xlink:title="printTopLevelTemplate">
<polygon fill="white" stroke="black" points="156.5,-0.5 156.5,-19.5 269.5,-19.5 269.5,-0.5 156.5,-0.5"/>
<text text-anchor="middle" x="213" y="-7.5" font-family="Helvetica,sans-Serif" font-size="10.00">printTopLevelTemplate</text>
</a>
</g>
</g>
<!-- Node1&#45;&gt;Node2 -->
<g id="edge1" class="edge"><title>Node1&#45;&gt;Node2</title>
<path fill="none" stroke="midnightblue" d="M130.391,-10C139.099,-10 147.917,-10 156.376,-10"/>
<polygon fill="midnightblue" stroke="midnightblue" points="130.246,-6.5001 120.246,-10 130.246,-13.5001 130.246,-6.5001"/>
</g>
<!-- Node3 -->
<g id="node3" class="node"><title>Node3</title>
<g id="a_node3"><a xlink:href="dispatch_8cpp.html#a57a05a1aa70f5b076936a72ec80f9db3" target="_top" xlink:title="configCmd">
<polygon fill="white" stroke="black" points="306,-0.5 306,-19.5 368,-19.5 368,-0.5 306,-0.5"/>
<text text-anchor="middle" x="337" y="-7.5" font-family="Helvetica,sans-Serif" font-size="10.00">configCmd</text>
</a>
</g>
</g>
<!-- Node2&#45;&gt;Node3 -->
<g id="edge2" class="edge"><title>Node2&#45;&gt;Node3</title>
<path fill="none" stroke="midnightblue" d="M279.876,-10C288.923,-10 297.825,-10 305.78,-10"/>
<polygon fill="midnightblue" stroke="midnightblue" points="279.645,-6.5001 269.645,-10 279.645,-13.5001 279.645,-6.5001"/>
</g>
<!-- Node4 -->
<g id="node4" class="node"><title>Node4</title>
<g id="a_node4"><a xlink:href="dispatch_8cpp.html#a0c9bf0c5f9946202d30b8743843e361a" target="_top" xlink:title="controllerDispatchCommand">
<polygon fill="white" stroke="black" points="404.5,-0.5 404.5,-19.5 543.5,-19.5 543.5,-0.5 404.5,-0.5"/>
<text text-anchor="middle" x="474" y="-7.5" font-family="Helvetica,sans-Serif" font-size="10.00">controllerDispatchCommand</text>
</a>
</g>
</g>
<!-- Node3&#45;&gt;Node4 -->
<g id="edge3" class="edge"><title>Node3&#45;&gt;Node4</title>
<path fill="none" stroke="midnightblue" d="M378.362,-10C386.621,-10 395.53,-10 404.463,-10"/>
<polygon fill="midnightblue" stroke="midnightblue" points="378.297,-6.5001 368.297,-10 378.297,-13.5001 378.297,-6.5001"/>
</g>
<!-- Node5 -->
<g id="node5" class="node"><title>Node5</title>
<g id="a_node5"><a xlink:href="class_aquaduino.html#a6f21b3e1fe7fd8b1c13d1e78372abed6" target="_top" xlink:title="Aquaduino::setWebserver">
<polygon fill="white" stroke="black" points="580,-0.5 580,-19.5 708,-19.5 708,-0.5 580,-0.5"/>
<text text-anchor="middle" x="644" y="-7.5" font-family="Helvetica,sans-Serif" font-size="10.00">Aquaduino::setWebserver</text>
</a>
</g>
</g>
<!-- Node4&#45;&gt;Node5 -->
<g id="edge4" class="edge"><title>Node4&#45;&gt;Node5</title>
<path fill="none" stroke="midnightblue" d="M553.987,-10C562.699,-10 571.482,-10 579.961,-10"/>
<polygon fill="midnightblue" stroke="midnightblue" points="553.817,-6.5001 543.817,-10 553.817,-13.5001 553.817,-6.5001"/>
</g>
<!-- Node6 -->
<g id="node6" class="node"><title>Node6</title>
<g id="a_node6"><a xlink:href="_aquaduino_8cpp.html#a4fc01d736fe50cf5b977f755b675f11d" target="_top" xlink:title="setup">
<polygon fill="white" stroke="black" points="744.5,-0.5 744.5,-19.5 785.5,-19.5 785.5,-0.5 744.5,-0.5"/>
<text text-anchor="middle" x="765" y="-7.5" font-family="Helvetica,sans-Serif" font-size="10.00">setup</text>
</a>
</g>
</g>
<!-- Node5&#45;&gt;Node6 -->
<g id="edge5" class="edge"><title>Node5&#45;&gt;Node6</title>
<path fill="none" stroke="midnightblue" d="M718.371,-10C727.872,-10 736.873,-10 744.331,-10"/>
<polygon fill="midnightblue" stroke="midnightblue" points="718.333,-6.5001 708.333,-10 718.333,-13.5001 718.333,-6.5001"/>
</g>
</g>
</svg>
