<?xml version="1.0" encoding="UTF-8" standalone="no"?>
<!DOCTYPE svg PUBLIC "-//W3C//DTD SVG 1.1//EN"
 "http://www.w3.org/Graphics/SVG/1.1/DTD/svg11.dtd">
<!-- Generated by graphviz version 2.30.1 (20130214.1330)
 -->
<!-- Title: printTopLevelTemplate Pages: 1 -->
<svg width="308pt" height="370pt"
 viewBox="0.00 0.00 308.00 370.00" xmlns="http://www.w3.org/2000/svg" xmlns:xlink="http://www.w3.org/1999/xlink">
<g id="graph0" class="graph" transform="scale(1 1) rotate(0) translate(4 366)">
<title>printTopLevelTemplate</title>
<polygon fill="white" stroke="white" points="-4,5 -4,-366 305,-366 305,5 -4,5"/>
<!-- Node1 -->
<g id="node1" class="node"><title>Node1</title>
<polygon fill="#bfbfbf" stroke="black" points="0.5,-171.5 0.5,-190.5 113.5,-190.5 113.5,-171.5 0.5,-171.5"/>
<text text-anchor="middle" x="57" y="-178.5" font-family="Helvetica,sans-Serif" font-size="10.00">printTopLevelTemplate</text>
</g>
<!-- Node2 -->
<g id="node2" class="node"><title>Node2</title>
<g id="a_node2"><a xlink:href="class_aquaduino.html#aed76e9fb8f6a3714bbd8de7781133f6e" target="_top" xlink:title="Aquaduino::getTemplateParser">
<polygon fill="white" stroke="black" points="150,-342.5 150,-361.5 300,-361.5 300,-342.5 150,-342.5"/>
<text text-anchor="middle" x="225" y="-349.5" font-family="Helvetica,sans-Serif" font-size="10.00">Aquaduino::getTemplateParser</text>
</a>
</g>
</g>
<!-- Node1&#45;&gt;Node2 -->
<g id="edge1" class="edge"><title>Node1&#45;&gt;Node2</title>
<path fill="none" stroke="midnightblue" d="M60.9313,-190.601C69.6778,-217.573 98.2486,-294.556 150,-333 152.527,-334.877 155.222,-336.57 158.031,-338.096"/>
<polygon fill="midnightblue" stroke="midnightblue" points="156.786,-341.377 167.329,-342.424 159.74,-335.031 156.786,-341.377"/>
</g>
<!-- Node3 -->
<g id="node3" class="node"><title>Node3</title>
<g id="a_node3"><a xlink:href="class_aquaduino.html#a9f9eac411924c726db67affdeaa69c25" target="_top" xlink:title="Aquaduino::getMAC">
<polygon fill="white" stroke="black" points="173,-304.5 173,-323.5 277,-323.5 277,-304.5 173,-304.5"/>
<text text-anchor="middle" x="225" y="-311.5" font-family="Helvetica,sans-Serif" font-size="10.00">Aquaduino::getMAC</text>
</a>
</g>
</g>
<!-- Node1&#45;&gt;Node3 -->
<g id="edge2" class="edge"><title>Node1&#45;&gt;Node3</title>
<path fill="none" stroke="midnightblue" d="M62.9613,-190.696C74.8105,-212.84 107.005,-267.347 150,-295 154.107,-297.641 158.563,-299.916 163.182,-301.875"/>
<polygon fill="midnightblue" stroke="midnightblue" points="162.242,-305.259 172.835,-305.468 164.684,-298.699 162.242,-305.259"/>
</g>
<!-- Node4 -->
<g id="node4" class="node"><title>Node4</title>
<g id="a_node4"><a xlink:href="class_aquaduino.html#a02a03dd2da29f1fa24fa3753bf0eea8f" target="_top" xlink:title="Aquaduino::getIP">
<polygon fill="white" stroke="black" points="179.5,-266.5 179.5,-285.5 270.5,-285.5 270.5,-266.5 179.5,-266.5"/>
<text text-anchor="middle" x="225" y="-273.5" font-family="Helvetica,sans-Serif" font-size="10.00">Aquaduino::getIP</text>
</a>
</g>
</g>
<!-- Node1&#45;&gt;Node4 -->
<g id="edge3" class="edge"><title>Node1&#45;&gt;Node4</title>
<path fill="none" stroke="midnightblue" d="M66.9233,-190.757C82.2991,-206.973 115.475,-239.424 150,-257 156.115,-260.113 162.781,-262.744 169.525,-264.96"/>
<polygon fill="midnightblue" stroke="midnightblue" points="168.823,-268.404 179.407,-267.919 170.831,-261.698 168.823,-268.404"/>
</g>
<!-- Node5 -->
<g id="node5" class="node"><title>Node5</title>
<g id="a_node5"><a xlink:href="class_aquaduino.html#a4ba7434469e812694335c954b4572e48" target="_top" xlink:title="Aquaduino::getNetmask">
<polygon fill="white" stroke="black" points="164.5,-228.5 164.5,-247.5 285.5,-247.5 285.5,-228.5 164.5,-228.5"/>
<text text-anchor="middle" x="225" y="-235.5" font-family="Helvetica,sans-Serif" font-size="10.00">Aquaduino::getNetmask</text>
</a>
</g>
</g>
<!-- Node1&#45;&gt;Node5 -->
<g id="edge4" class="edge"><title>Node1&#45;&gt;Node5</title>
<path fill="none" stroke="midnightblue" d="M78.8752,-190.609C97.3179,-198.859 125.079,-210.699 150,-219 157.344,-221.446 165.185,-223.764 172.916,-225.886"/>
<polygon fill="midnightblue" stroke="midnightblue" points="172.038,-229.274 182.602,-228.463 173.838,-222.509 172.038,-229.274"/>
</g>
<!-- Node6 -->
<g id="node6" class="node"><title>Node6</title>
<g id="a_node6"><a xlink:href="class_aquaduino.html#a01b685574cfa55a1f2b9f7fb4139daf7" target="_top" xlink:title="Aquaduino::getGateway">
<polygon fill="white" stroke="black" points="165,-190.5 165,-209.5 285,-209.5 285,-190.5 165,-190.5"/>
<text text-anchor="middle" x="225" y="-197.5" font-family="Helvetica,sans-Serif" font-size="10.00">Aquaduino::getGateway</text>
</a>
</g>
</g>
<!-- Node1&#45;&gt;Node6 -->
<g id="edge5" class="edge"><title>Node1&#45;&gt;Node6</title>
<path fill="none" stroke="midnightblue" d="M113.737,-187.38C126.872,-188.883 141.032,-190.504 154.684,-192.066"/>
<polygon fill="midnightblue" stroke="midnightblue" points="154.666,-195.587 164.999,-193.247 155.462,-188.632 154.666,-195.587"/>
</g>
<!-- Node7 -->
<g id="node7" class="node"><title>Node7</title>
<g id="a_node7"><a xlink:href="class_aquaduino.html#af20ad1ceaeedf6cf5ff5cfed695dbe41" target="_top" xlink:title="Aquaduino::getDNS">
<polygon fill="white" stroke="black" points="174,-152.5 174,-171.5 276,-171.5 276,-152.5 174,-152.5"/>
<text text-anchor="middle" x="225" y="-159.5" font-family="Helvetica,sans-Serif" font-size="10.00">Aquaduino::getDNS</text>
</a>
</g>
</g>
<!-- Node1&#45;&gt;Node7 -->
<g id="edge6" class="edge"><title>Node1&#45;&gt;Node7</title>
<path fill="none" stroke="midnightblue" d="M113.737,-174.62C129.883,-172.772 147.578,-170.747 163.974,-168.87"/>
<polygon fill="midnightblue" stroke="midnightblue" points="164.453,-172.339 173.99,-167.724 163.656,-165.384 164.453,-172.339"/>
</g>
<!-- Node8 -->
<g id="node8" class="node"><title>Node8</title>
<g id="a_node8"><a xlink:href="class_aquaduino.html#a3e007b2b50b6542ce7e906aec2ffda09" target="_top" xlink:title="Aquaduino::getNTP">
<polygon fill="white" stroke="black" points="174.5,-114.5 174.5,-133.5 275.5,-133.5 275.5,-114.5 174.5,-114.5"/>
<text text-anchor="middle" x="225" y="-121.5" font-family="Helvetica,sans-Serif" font-size="10.00">Aquaduino::getNTP</text>
</a>
</g>
</g>
<!-- Node1&#45;&gt;Node8 -->
<g id="edge7" class="edge"><title>Node1&#45;&gt;Node8</title>
<path fill="none" stroke="midnightblue" d="M78.8752,-171.391C97.3179,-163.141 125.079,-151.301 150,-143 157.344,-140.554 165.185,-138.236 172.916,-136.114"/>
<polygon fill="midnightblue" stroke="midnightblue" points="173.838,-139.491 182.602,-133.537 172.038,-132.726 173.838,-139.491"/>
</g>
<!-- Node9 -->
<g id="node9" class="node"><title>Node9</title>
<g id="a_node9"><a xlink:href="class_aquaduino.html#abca57c3879e6b9927fe3820e36a4a912" target="_top" xlink:title="Aquaduino::isDHCPEnabled">
<polygon fill="white" stroke="black" points="156,-76.5 156,-95.5 294,-95.5 294,-76.5 156,-76.5"/>
<text text-anchor="middle" x="225" y="-83.5" font-family="Helvetica,sans-Serif" font-size="10.00">Aquaduino::isDHCPEnabled</text>
</a>
</g>
</g>
<!-- Node1&#45;&gt;Node9 -->
<g id="edge8" class="edge"><title>Node1&#45;&gt;Node9</title>
<path fill="none" stroke="midnightblue" d="M66.9233,-171.243C82.2991,-155.027 115.475,-122.576 150,-105 154.61,-102.653 159.533,-100.58 164.566,-98.7527"/>
<polygon fill="midnightblue" stroke="midnightblue" points="165.928,-101.989 174.328,-95.5323 163.735,-95.3413 165.928,-101.989"/>
</g>
<!-- Node10 -->
<g id="node10" class="node"><title>Node10</title>
<g id="a_node10"><a xlink:href="class_aquaduino.html#a2270ff8493d7fe8e0182655f312b9c5a" target="_top" xlink:title="Aquaduino::isNTPEnabled">
<polygon fill="white" stroke="black" points="160,-38.5 160,-57.5 290,-57.5 290,-38.5 160,-38.5"/>
<text text-anchor="middle" x="225" y="-45.5" font-family="Helvetica,sans-Serif" font-size="10.00">Aquaduino::isNTPEnabled</text>
</a>
</g>
</g>
<!-- Node1&#45;&gt;Node10 -->
<g id="edge9" class="edge"><title>Node1&#45;&gt;Node10</title>
<path fill="none" stroke="midnightblue" d="M62.9613,-171.304C74.8105,-149.16 107.005,-94.6529 150,-67 153.294,-64.8811 156.814,-62.9983 160.462,-61.3252"/>
<polygon fill="midnightblue" stroke="midnightblue" points="161.775,-64.5693 169.741,-57.5834 159.158,-58.0772 161.775,-64.5693"/>
</g>
<!-- Node11 -->
<g id="node11" class="node"><title>Node11</title>
<g id="a_node11"><a xlink:href="class_aquaduino.html#a9694acc4701c2367aff948c7c85eb852" target="_top" xlink:title="Aquaduino::getNtpSyncInterval">
<polygon fill="white" stroke="black" points="150.5,-0.5 150.5,-19.5 299.5,-19.5 299.5,-0.5 150.5,-0.5"/>
<text text-anchor="middle" x="225" y="-7.5" font-family="Helvetica,sans-Serif" font-size="10.00">Aquaduino::getNtpSyncInterval</text>
</a>
</g>
</g>
<!-- Node1&#45;&gt;Node11 -->
<g id="edge10" class="edge"><title>Node1&#45;&gt;Node11</title>
<path fill="none" stroke="midnightblue" d="M60.9313,-171.399C69.6778,-144.427 98.2486,-67.4445 150,-29 152.527,-27.1227 155.222,-25.4302 158.031,-23.9043"/>
<polygon fill="midnightblue" stroke="midnightblue" points="159.74,-26.9694 167.329,-19.576 156.786,-20.6233 159.74,-26.9694"/>
</g>
</g>
</svg>
