<?xml version="1.0" encoding="UTF-8" standalone="no"?>
<!DOCTYPE svg PUBLIC "-//W3C//DTD SVG 1.1//EN"
 "http://www.w3.org/Graphics/SVG/1.1/DTD/svg11.dtd">
<!-- Generated by graphviz version 2.30.1 (20130214.1330)
 -->
<!-- Title: configCmd Pages: 1 -->
<!--zoomable 943 -->
<svg id="main" version="1.1" xmlns="http://www.w3.org/2000/svg" xmlns:xlink="http://www.w3.org/1999/xlink" xml:space="preserve" onload="init(evt)">
<style type="text/css"><![CDATA[
.edge:hover path { stroke: red; }
.edge:hover polygon { stroke: red; fill: red; }
]]></style>
<script type="text/javascript"><![CDATA[
var edges = document.getElementsByTagName('g');
if (edges && edges.length) {
  for (var i=0;i<edges.length;i++) {
    if (edges[i].id.substr(0,4)=='edge') {
      edges[i].setAttribute('class','edge');
    }
  }
}
]]></script>
        <defs>
                <circle id="rim" cx="0" cy="0" r="7"/>
                <circle id="rim2" cx="0" cy="0" r="3.5"/>
                <g id="zoomPlus">
                        <use xlink:href="#rim" fill="#404040">
                                <set attributeName="fill" to="#808080" begin="zoomplus.mouseover" end="zoomplus.mouseout"/>
                        </use>
                        <path d="M-4,0h8M0,-4v8" fill="none" stroke="white" stroke-width="1.5" pointer-events="none"/>
                </g>
                <g id="zoomMin">
                        <use xlink:href="#rim" fill="#404040">
                                <set attributeName="fill" to="#808080" begin="zoomminus.mouseover" end="zoomminus.mouseout"/>
                        </use>
                        <path d="M-4,0h8" fill="none" stroke="white" stroke-width="1.5" pointer-events="none"/>
                </g>
                <g id="dirArrow">
                        <path fill="none" stroke="white" stroke-width="1.5" d="M0,-3.0v7 M-2.5,-0.5L0,-3.0L2.5,-0.5"/>
                </g>
               <g id="resetDef">
                       <use xlink:href="#rim2" fill="#404040">
                               <set attributeName="fill" to="#808080" begin="reset.mouseover" end="reset.mouseout"/>
                       </use>
               </g>
        </defs>

<script type="text/javascript">
var viewWidth = 580;
var viewHeight = 943;
var sectionId = 'dynsection-1';
</script>
<script xlink:href="svgpan.js"/>
<svg id="graph" class="graph">
<g id="viewport">
<title>configCmd</title>
<polygon fill="white" stroke="white" points="-4,5 -4,-939 577,-939 577,5 -4,5"/>
<!-- Node1 -->
<g id="node1" class="node"><title>Node1</title>
<polygon fill="#bfbfbf" stroke="black" points="0,-630.5 0,-649.5 62,-649.5 62,-630.5 0,-630.5"/>
<text text-anchor="middle" x="31" y="-637.5" font-family="Helvetica,sans-Serif" font-size="10.00">configCmd</text>
</g>
<!-- Node2 -->
<g id="node2" class="node"><title>Node2</title>
<g id="a_node2"><a xlink:href="class_aquaduino.html#a7d9431d1a546c566071cb7e14c566146" target="_top" xlink:title="Aquaduino::setMAC">
<polygon fill="white" stroke="black" points="121,-915.5 121,-934.5 225,-934.5 225,-915.5 121,-915.5"/>
<text text-anchor="middle" x="173" y="-922.5" font-family="Helvetica,sans-Serif" font-size="10.00">Aquaduino::setMAC</text>
</a>
</g>
</g>
<!-- Node1&#45;&gt;Node2 -->
<g id="edge1" class="edge"><title>Node1&#45;&gt;Node2</title>
<path fill="none" stroke="midnightblue" d="M33.0768,-649.656C38.0865,-692.885 60.4712,-868.165 98,-906 101.911,-909.943 106.523,-913.105 111.502,-915.635"/>
<polygon fill="midnightblue" stroke="midnightblue" points="110.212,-918.89 120.787,-919.54 112.926,-912.437 110.212,-918.89"/>
</g>
<!-- Node3 -->
<g id="node3" class="node"><title>Node3</title>
<g id="a_node3"><a xlink:href="class_aquaduino.html#a9c4f7492a7c094b2dac8f55a6cafd374" target="_top" xlink:title="Aquaduino::setIP">
<polygon fill="white" stroke="black" points="127.5,-877.5 127.5,-896.5 218.5,-896.5 218.5,-877.5 127.5,-877.5"/>
<text text-anchor="middle" x="173" y="-884.5" font-family="Helvetica,sans-Serif" font-size="10.00">Aquaduino::setIP</text>
</a>
</g>
</g>
<!-- Node1&#45;&gt;Node3 -->
<g id="edge2" class="edge"><title>Node1&#45;&gt;Node3</title>
<path fill="none" stroke="midnightblue" d="M31.6596,-649.927C31.0209,-685.207 33.8138,-805.739 98,-868 103.433,-873.27 110.12,-877.134 117.233,-879.958"/>
<polygon fill="midnightblue" stroke="midnightblue" points="116.526,-883.41 127.118,-883.198 118.706,-876.758 116.526,-883.41"/>
</g>
<!-- Node4 -->
<g id="node4" class="node"><title>Node4</title>
<g id="a_node4"><a xlink:href="class_aquaduino.html#afd471ba4a4700ca42163ff612793d804" target="_top" xlink:title="Aquaduino::setNetmask">
<polygon fill="white" stroke="black" points="112.5,-839.5 112.5,-858.5 233.5,-858.5 233.5,-839.5 112.5,-839.5"/>
<text text-anchor="middle" x="173" y="-846.5" font-family="Helvetica,sans-Serif" font-size="10.00">Aquaduino::setNetmask</text>
</a>
</g>
</g>
<!-- Node1&#45;&gt;Node4 -->
<g id="edge3" class="edge"><title>Node1&#45;&gt;Node4</title>
<path fill="none" stroke="midnightblue" d="M32.3064,-649.578C33.837,-680.626 43.0126,-779.397 98,-830 99.705,-831.569 101.522,-833.012 103.427,-834.34"/>
<polygon fill="midnightblue" stroke="midnightblue" points="101.868,-837.481 112.278,-839.449 105.367,-831.418 101.868,-837.481"/>
</g>
<!-- Node5 -->
<g id="node5" class="node"><title>Node5</title>
<g id="a_node5"><a xlink:href="class_aquaduino.html#a0cabe5da7d3b893f9b7064cf9f430188" target="_top" xlink:title="Aquaduino::setGateway">
<polygon fill="white" stroke="black" points="113,-801.5 113,-820.5 233,-820.5 233,-801.5 113,-801.5"/>
<text text-anchor="middle" x="173" y="-808.5" font-family="Helvetica,sans-Serif" font-size="10.00">Aquaduino::setGateway</text>
</a>
</g>
</g>
<!-- Node1&#45;&gt;Node5 -->
<g id="edge4" class="edge"><title>Node1&#45;&gt;Node5</title>
<path fill="none" stroke="midnightblue" d="M33.2313,-649.543C37.2125,-676.361 52.2544,-752.979 98,-792 99.9867,-793.695 102.106,-795.241 104.324,-796.652"/>
<polygon fill="midnightblue" stroke="midnightblue" points="102.841,-799.827 113.311,-801.449 106.137,-793.652 102.841,-799.827"/>
</g>
<!-- Node6 -->
<g id="node6" class="node"><title>Node6</title>
<g id="a_node6"><a xlink:href="class_aquaduino.html#a9e777de75e2e25dc172ee89d93e6e1ff" target="_top" xlink:title="Aquaduino::setDNS">
<polygon fill="white" stroke="black" points="122,-763.5 122,-782.5 224,-782.5 224,-763.5 122,-763.5"/>
<text text-anchor="middle" x="173" y="-770.5" font-family="Helvetica,sans-Serif" font-size="10.00">Aquaduino::setDNS</text>
</a>
</g>
</g>
<!-- Node1&#45;&gt;Node6 -->
<g id="edge5" class="edge"><title>Node1&#45;&gt;Node6</title>
<path fill="none" stroke="midnightblue" d="M34.7578,-649.68C41.5731,-671.79 61.3691,-726.23 98,-754 102.36,-757.305 107.236,-760.039 112.349,-762.299"/>
<polygon fill="midnightblue" stroke="midnightblue" points="111.157,-765.59 121.748,-765.877 113.648,-759.048 111.157,-765.59"/>
</g>
<!-- Node7 -->
<g id="node7" class="node"><title>Node7</title>
<g id="a_node7"><a xlink:href="class_aquaduino.html#a96162253d8d5b3ebbcadc25594804bd8" target="_top" xlink:title="Aquaduino::setNTP">
<polygon fill="white" stroke="black" points="122.5,-725.5 122.5,-744.5 223.5,-744.5 223.5,-725.5 122.5,-725.5"/>
<text text-anchor="middle" x="173" y="-732.5" font-family="Helvetica,sans-Serif" font-size="10.00">Aquaduino::setNTP</text>
</a>
</g>
</g>
<!-- Node1&#45;&gt;Node7 -->
<g id="edge6" class="edge"><title>Node1&#45;&gt;Node7</title>
<path fill="none" stroke="midnightblue" d="M37.5806,-649.583C47.5584,-665.838 70.0521,-698.729 98,-716 102.469,-718.762 107.327,-721.124 112.346,-723.144"/>
<polygon fill="midnightblue" stroke="midnightblue" points="111.543,-726.572 122.137,-726.621 113.885,-719.976 111.543,-726.572"/>
</g>
<!-- Node8 -->
<g id="node8" class="node"><title>Node8</title>
<g id="a_node8"><a xlink:href="class_aquaduino.html#ac8fe819d11689b731f388bf7d18a9ab3" target="_top" xlink:title="Aquaduino::enableDHCP">
<polygon fill="white" stroke="black" points="111,-687.5 111,-706.5 235,-706.5 235,-687.5 111,-687.5"/>
<text text-anchor="middle" x="173" y="-694.5" font-family="Helvetica,sans-Serif" font-size="10.00">Aquaduino::enableDHCP</text>
</a>
</g>
</g>
<!-- Node1&#45;&gt;Node8 -->
<g id="edge7" class="edge"><title>Node1&#45;&gt;Node8</title>
<path fill="none" stroke="midnightblue" d="M46.1029,-649.632C59.0896,-658.127 79.1432,-670.318 98,-678 103.965,-680.43 110.33,-682.622 116.729,-684.579"/>
<polygon fill="midnightblue" stroke="midnightblue" points="116.18,-688.063 126.758,-687.46 118.113,-681.335 116.18,-688.063"/>
</g>
<!-- Node9 -->
<g id="node9" class="node"><title>Node9</title>
<g id="a_node9"><a xlink:href="class_aquaduino.html#abb5a0eb820deffbe6e0eef23953957b9" target="_top" xlink:title="Aquaduino::disableDHCP">
<polygon fill="white" stroke="black" points="110,-649.5 110,-668.5 236,-668.5 236,-649.5 110,-649.5"/>
<text text-anchor="middle" x="173" y="-656.5" font-family="Helvetica,sans-Serif" font-size="10.00">Aquaduino::disableDHCP</text>
</a>
</g>
</g>
<!-- Node1&#45;&gt;Node9 -->
<g id="edge8" class="edge"><title>Node1&#45;&gt;Node9</title>
<path fill="none" stroke="midnightblue" d="M62.0335,-644.076C73.1738,-645.588 86.3452,-647.375 99.6305,-649.178"/>
<polygon fill="midnightblue" stroke="midnightblue" points="99.4004,-652.679 109.78,-650.556 100.342,-645.743 99.4004,-652.679"/>
</g>
<!-- Node10 -->
<g id="node10" class="node"><title>Node10</title>
<g id="a_node10"><a xlink:href="class_aquaduino.html#a2636dfe3b0c322dbbf46b70ab3929930" target="_top" xlink:title="Aquaduino::enableNTP">
<polygon fill="white" stroke="black" points="115,-611.5 115,-630.5 231,-630.5 231,-611.5 115,-611.5"/>
<text text-anchor="middle" x="173" y="-618.5" font-family="Helvetica,sans-Serif" font-size="10.00">Aquaduino::enableNTP</text>
</a>
</g>
</g>
<!-- Node1&#45;&gt;Node10 -->
<g id="edge9" class="edge"><title>Node1&#45;&gt;Node10</title>
<path fill="none" stroke="midnightblue" d="M62.0335,-635.924C74.5673,-634.223 89.672,-632.173 104.617,-630.145"/>
<polygon fill="midnightblue" stroke="midnightblue" points="105.467,-633.562 114.905,-628.749 104.525,-626.625 105.467,-633.562"/>
</g>
<!-- Node13 -->
<g id="node13" class="node"><title>Node13</title>
<g id="a_node13"><a xlink:href="class_aquaduino.html#a8af57b9214f2cde4e710915d92f21fa9" target="_top" xlink:title="Aquaduino::disableNTP">
<polygon fill="white" stroke="black" points="114,-573.5 114,-592.5 232,-592.5 232,-573.5 114,-573.5"/>
<text text-anchor="middle" x="173" y="-580.5" font-family="Helvetica,sans-Serif" font-size="10.00">Aquaduino::disableNTP</text>
</a>
</g>
</g>
<!-- Node1&#45;&gt;Node13 -->
<g id="edge12" class="edge"><title>Node1&#45;&gt;Node13</title>
<path fill="none" stroke="midnightblue" d="M46.1029,-630.368C59.0896,-621.873 79.1432,-609.682 98,-602 103.965,-599.57 110.33,-597.378 116.729,-595.421"/>
<polygon fill="midnightblue" stroke="midnightblue" points="118.113,-598.665 126.758,-592.54 116.18,-591.937 118.113,-598.665"/>
</g>
<!-- Node14 -->
<g id="node14" class="node"><title>Node14</title>
<g id="a_node14"><a xlink:href="class_aquaduino.html#ad910741d704dd02ea0f66b20cfab89a1" target="_top" xlink:title="Aquaduino::setTime">
<polygon fill="white" stroke="black" points="121.5,-535.5 121.5,-554.5 224.5,-554.5 224.5,-535.5 121.5,-535.5"/>
<text text-anchor="middle" x="173" y="-542.5" font-family="Helvetica,sans-Serif" font-size="10.00">Aquaduino::setTime</text>
</a>
</g>
</g>
<!-- Node1&#45;&gt;Node14 -->
<g id="edge13" class="edge"><title>Node1&#45;&gt;Node14</title>
<path fill="none" stroke="midnightblue" d="M37.5806,-630.417C47.5584,-614.162 70.0521,-581.271 98,-564 102.332,-561.323 107.028,-559.022 111.883,-557.044"/>
<polygon fill="midnightblue" stroke="midnightblue" points="113.142,-560.311 121.36,-553.624 110.766,-553.726 113.142,-560.311"/>
</g>
<!-- Node15 -->
<g id="node15" class="node"><title>Node15</title>
<g id="a_node15"><a xlink:href="class_aquaduino.html#a48788b0397889f5dbe04848b29a0ed57" target="_top" xlink:title="Aquaduino::setNtpSyncInterval">
<polygon fill="white" stroke="black" points="98.5,-497.5 98.5,-516.5 247.5,-516.5 247.5,-497.5 98.5,-497.5"/>
<text text-anchor="middle" x="173" y="-504.5" font-family="Helvetica,sans-Serif" font-size="10.00">Aquaduino::setNtpSyncInterval</text>
</a>
</g>
</g>
<!-- Node1&#45;&gt;Node15 -->
<g id="edge14" class="edge"><title>Node1&#45;&gt;Node15</title>
<path fill="none" stroke="midnightblue" d="M34.7578,-630.32C41.5731,-608.21 61.3691,-553.77 98,-526 100.458,-524.137 103.079,-522.456 105.814,-520.938"/>
<polygon fill="midnightblue" stroke="midnightblue" points="107.349,-524.084 114.877,-516.629 104.343,-517.762 107.349,-524.084"/>
</g>
<!-- Node16 -->
<g id="node16" class="node"><title>Node16</title>
<g id="a_node16"><a xlink:href="class_aquaduino.html#a16e05153698a4aed10c0ebf9f472abb5" target="_top" xlink:title="Aquaduino::writeConfig">
<polygon fill="white" stroke="black" points="115,-459.5 115,-478.5 231,-478.5 231,-459.5 115,-459.5"/>
<text text-anchor="middle" x="173" y="-466.5" font-family="Helvetica,sans-Serif" font-size="10.00">Aquaduino::writeConfig</text>
</a>
</g>
</g>
<!-- Node1&#45;&gt;Node16 -->
<g id="edge15" class="edge"><title>Node1&#45;&gt;Node16</title>
<path fill="none" stroke="midnightblue" d="M33.2313,-630.457C37.2125,-603.639 52.2544,-527.021 98,-488 100.395,-485.957 102.982,-484.129 105.705,-482.495"/>
<polygon fill="midnightblue" stroke="midnightblue" points="107.446,-485.537 114.794,-477.905 104.29,-479.288 107.446,-485.537"/>
</g>
<!-- Node18 -->
<g id="node18" class="node"><title>Node18</title>
<g id="a_node18"><a xlink:href="class_aquaduino.html#ad399caf8b1461f7cf082f7816b685303" target="_top" xlink:title="Aquaduino::resetActuator\lIterator">
<polygon fill="white" stroke="black" points="109.5,-410 109.5,-440 236.5,-440 236.5,-410 109.5,-410"/>
<text text-anchor="start" x="117.5" y="-428" font-family="Helvetica,sans-Serif" font-size="10.00">Aquaduino::resetActuator</text>
<text text-anchor="middle" x="173" y="-417" font-family="Helvetica,sans-Serif" font-size="10.00">Iterator</text>
</a>
</g>
</g>
<!-- Node1&#45;&gt;Node18 -->
<g id="edge17" class="edge"><title>Node1&#45;&gt;Node18</title>
<path fill="none" stroke="midnightblue" d="M32.4902,-630.152C34.5664,-599.125 45.1825,-502.369 98,-450 99.4444,-448.568 100.974,-447.218 102.573,-445.945"/>
<polygon fill="midnightblue" stroke="midnightblue" points="104.75,-448.698 111.082,-440.203 100.835,-442.895 104.75,-448.698"/>
</g>
<!-- Node20 -->
<g id="node20" class="node"><title>Node20</title>
<g id="a_node20"><a xlink:href="class_aquaduino.html#ab0fcce5c8f5895244e6f92c8d775fae7" target="_top" xlink:title="Aquaduino::getNextActuator">
<polygon fill="white" stroke="black" points="103.5,-371.5 103.5,-390.5 242.5,-390.5 242.5,-371.5 103.5,-371.5"/>
<text text-anchor="middle" x="173" y="-378.5" font-family="Helvetica,sans-Serif" font-size="10.00">Aquaduino::getNextActuator</text>
</a>
</g>
</g>
<!-- Node1&#45;&gt;Node20 -->
<g id="edge19" class="edge"><title>Node1&#45;&gt;Node20</title>
<path fill="none" stroke="midnightblue" d="M31.4904,-630.071C30.196,-593.645 30.8217,-466.043 98,-400 99.4543,-398.57 101.001,-397.244 102.623,-396.013"/>
<polygon fill="midnightblue" stroke="midnightblue" points="104.646,-398.877 111.292,-390.627 100.951,-392.932 104.646,-398.877"/>
</g>
<!-- Node22 -->
<g id="node22" class="node"><title>Node22</title>
<g id="a_node22"><a xlink:href="configweb_8cpp.html#af63922b5bba9bcc24b202484ec739456" target="_top" xlink:title="printTopLevelTemplate">
<polygon fill="white" stroke="black" points="116.5,-190.5 116.5,-209.5 229.5,-209.5 229.5,-190.5 116.5,-190.5"/>
<text text-anchor="middle" x="173" y="-197.5" font-family="Helvetica,sans-Serif" font-size="10.00">printTopLevelTemplate</text>
</a>
</g>
</g>
<!-- Node1&#45;&gt;Node22 -->
<g id="edge21" class="edge"><title>Node1&#45;&gt;Node22</title>
<path fill="none" stroke="midnightblue" d="M33.6093,-630.203C39.7124,-593.958 62.8772,-464.277 98,-362 116.416,-308.373 146.419,-248.449 161.96,-218.767"/>
<polygon fill="midnightblue" stroke="midnightblue" points="165.232,-220.065 166.811,-209.589 159.043,-216.794 165.232,-220.065"/>
</g>
<!-- Node11 -->
<g id="node11" class="node"><title>Node11</title>
<g id="a_node11"><a xlink:href="_aquaduino_8cpp.html#a2898e3c748953d17a36dab59bda980dc" target="_top" xlink:title="NTPSync">
<polygon fill="white" stroke="black" points="330,-554.5 330,-573.5 388,-573.5 388,-554.5 330,-554.5"/>
<text text-anchor="middle" x="359" y="-561.5" font-family="Helvetica,sans-Serif" font-size="10.00">NTPSync</text>
</a>
</g>
</g>
<!-- Node10&#45;&gt;Node11 -->
<g id="edge10" class="edge"><title>Node10&#45;&gt;Node11</title>
<path fill="none" stroke="midnightblue" d="M213.721,-611.434C224.862,-608.58 236.949,-605.322 248,-602 273.223,-594.419 301.28,-584.705 322.746,-576.997"/>
<polygon fill="midnightblue" stroke="midnightblue" points="324.197,-580.194 332.41,-573.502 321.816,-573.611 324.197,-580.194"/>
</g>
<!-- Node12 -->
<g id="node12" class="node"><title>Node12</title>
<g id="a_node12"><a xlink:href="class_aquaduino.html#a3e007b2b50b6542ce7e906aec2ffda09" target="_top" xlink:title="Aquaduino::getNTP">
<polygon fill="white" stroke="black" points="470.5,-334.5 470.5,-353.5 571.5,-353.5 571.5,-334.5 470.5,-334.5"/>
<text text-anchor="middle" x="521" y="-341.5" font-family="Helvetica,sans-Serif" font-size="10.00">Aquaduino::getNTP</text>
</a>
</g>
</g>
<!-- Node11&#45;&gt;Node12 -->
<g id="edge11" class="edge"><title>Node11&#45;&gt;Node12</title>
<path fill="none" stroke="midnightblue" d="M370.86,-554.372C386.052,-540.582 414.026,-513.992 434,-488 466.237,-446.05 496.034,-391.113 510.616,-362.753"/>
<polygon fill="midnightblue" stroke="midnightblue" points="513.867,-364.081 515.277,-353.58 507.627,-360.91 513.867,-364.081"/>
</g>
<!-- Node17 -->
<g id="node17" class="node"><title>Node17</title>
<g id="a_node17"><a xlink:href="class_config_manager.html#ac626ebb363c0993b1a3b2da7fc824afb" target="_top" xlink:title="ConfigManager::writeConfig">
<polygon fill="white" stroke="black" points="292,-459.5 292,-478.5 426,-478.5 426,-459.5 292,-459.5"/>
<text text-anchor="middle" x="359" y="-466.5" font-family="Helvetica,sans-Serif" font-size="10.00">ConfigManager::writeConfig</text>
</a>
</g>
</g>
<!-- Node16&#45;&gt;Node17 -->
<g id="edge16" class="edge"><title>Node16&#45;&gt;Node17</title>
<path fill="none" stroke="midnightblue" d="M231.21,-469C247.11,-469 264.636,-469 281.453,-469"/>
<polygon fill="midnightblue" stroke="midnightblue" points="281.811,-472.5 291.811,-469 281.811,-465.5 281.811,-472.5"/>
</g>
<!-- Node19 -->
<g id="node19" class="node"><title>Node19</title>
<g id="a_node19"><a xlink:href="class_array_list.html#ada61a62619272992ac7fb0da2cf400b8" target="_top" xlink:title="ArrayList::resetIterator">
<polygon fill="white" stroke="black" points="302.5,-418.5 302.5,-437.5 415.5,-437.5 415.5,-418.5 302.5,-418.5"/>
<text text-anchor="middle" x="359" y="-425.5" font-family="Helvetica,sans-Serif" font-size="10.00">ArrayList::resetIterator</text>
</a>
</g>
</g>
<!-- Node18&#45;&gt;Node19 -->
<g id="edge18" class="edge"><title>Node18&#45;&gt;Node19</title>
<path fill="none" stroke="midnightblue" d="M236.551,-426.02C254.488,-426.312 274.094,-426.632 292.22,-426.927"/>
<polygon fill="midnightblue" stroke="midnightblue" points="292.35,-430.43 302.405,-427.094 292.464,-423.431 292.35,-430.43"/>
</g>
<!-- Node21 -->
<g id="node21" class="node"><title>Node21</title>
<g id="a_node21"><a xlink:href="class_array_list.html#a921b9822fbf598f6fece601973db200b" target="_top" xlink:title="ArrayList::getNext">
<polygon fill="white" stroke="black" points="311.5,-380.5 311.5,-399.5 406.5,-399.5 406.5,-380.5 311.5,-380.5"/>
<text text-anchor="middle" x="359" y="-387.5" font-family="Helvetica,sans-Serif" font-size="10.00">ArrayList::getNext</text>
</a>
</g>
</g>
<!-- Node20&#45;&gt;Node21 -->
<g id="edge20" class="edge"><title>Node20&#45;&gt;Node21</title>
<path fill="none" stroke="midnightblue" d="M242.515,-384.351C261.912,-385.3 282.802,-386.322 301.411,-387.232"/>
<polygon fill="midnightblue" stroke="midnightblue" points="301.332,-390.732 311.491,-387.725 301.674,-383.741 301.332,-390.732"/>
</g>
<!-- Node23 -->
<g id="node23" class="node"><title>Node23</title>
<g id="a_node23"><a xlink:href="class_aquaduino.html#aed76e9fb8f6a3714bbd8de7781133f6e" target="_top" xlink:title="Aquaduino::getTemplateParser">
<polygon fill="white" stroke="black" points="284,-342.5 284,-361.5 434,-361.5 434,-342.5 284,-342.5"/>
<text text-anchor="middle" x="359" y="-349.5" font-family="Helvetica,sans-Serif" font-size="10.00">Aquaduino::getTemplateParser</text>
</a>
</g>
</g>
<!-- Node22&#45;&gt;Node23 -->
<g id="edge22" class="edge"><title>Node22&#45;&gt;Node23</title>
<path fill="none" stroke="midnightblue" d="M179.183,-209.813C192.798,-234.598 232.137,-300.083 284,-333 287.368,-335.138 290.967,-337.036 294.695,-338.72"/>
<polygon fill="midnightblue" stroke="midnightblue" points="293.585,-342.045 304.17,-342.484 296.169,-335.54 293.585,-342.045"/>
</g>
<!-- Node24 -->
<g id="node24" class="node"><title>Node24</title>
<g id="a_node24"><a xlink:href="class_aquaduino.html#a9f9eac411924c726db67affdeaa69c25" target="_top" xlink:title="Aquaduino::getMAC">
<polygon fill="white" stroke="black" points="307,-304.5 307,-323.5 411,-323.5 411,-304.5 307,-304.5"/>
<text text-anchor="middle" x="359" y="-311.5" font-family="Helvetica,sans-Serif" font-size="10.00">Aquaduino::getMAC</text>
</a>
</g>
</g>
<!-- Node22&#45;&gt;Node24 -->
<g id="edge23" class="edge"><title>Node22&#45;&gt;Node24</title>
<path fill="none" stroke="midnightblue" d="M182.333,-209.727C199.397,-229.013 240.397,-272.198 284,-295 288.512,-297.36 293.335,-299.439 298.275,-301.269"/>
<polygon fill="midnightblue" stroke="midnightblue" points="297.271,-304.624 307.865,-304.489 299.499,-297.988 297.271,-304.624"/>
</g>
<!-- Node25 -->
<g id="node25" class="node"><title>Node25</title>
<g id="a_node25"><a xlink:href="class_aquaduino.html#a02a03dd2da29f1fa24fa3753bf0eea8f" target="_top" xlink:title="Aquaduino::getIP">
<polygon fill="white" stroke="black" points="313.5,-266.5 313.5,-285.5 404.5,-285.5 404.5,-266.5 313.5,-266.5"/>
<text text-anchor="middle" x="359" y="-273.5" font-family="Helvetica,sans-Serif" font-size="10.00">Aquaduino::getIP</text>
</a>
</g>
</g>
<!-- Node22&#45;&gt;Node25 -->
<g id="edge24" class="edge"><title>Node22&#45;&gt;Node25</title>
<path fill="none" stroke="midnightblue" d="M189.866,-209.689C210.784,-222.116 249.036,-243.651 284,-257 290.411,-259.448 297.252,-261.682 304.089,-263.689"/>
<polygon fill="midnightblue" stroke="midnightblue" points="303.479,-267.152 314.052,-266.466 305.359,-260.409 303.479,-267.152"/>
</g>
<!-- Node26 -->
<g id="node26" class="node"><title>Node26</title>
<g id="a_node26"><a xlink:href="class_aquaduino.html#a4ba7434469e812694335c954b4572e48" target="_top" xlink:title="Aquaduino::getNetmask">
<polygon fill="white" stroke="black" points="298.5,-228.5 298.5,-247.5 419.5,-247.5 419.5,-228.5 298.5,-228.5"/>
<text text-anchor="middle" x="359" y="-235.5" font-family="Helvetica,sans-Serif" font-size="10.00">Aquaduino::getNetmask</text>
</a>
</g>
</g>
<!-- Node22&#45;&gt;Node26 -->
<g id="edge25" class="edge"><title>Node22&#45;&gt;Node26</title>
<path fill="none" stroke="midnightblue" d="M220.431,-209.589C245.149,-214.694 275.739,-221.011 301.792,-226.392"/>
<polygon fill="midnightblue" stroke="midnightblue" points="301.402,-229.885 311.903,-228.48 302.817,-223.03 301.402,-229.885"/>
</g>
<!-- Node27 -->
<g id="node27" class="node"><title>Node27</title>
<g id="a_node27"><a xlink:href="class_aquaduino.html#a01b685574cfa55a1f2b9f7fb4139daf7" target="_top" xlink:title="Aquaduino::getGateway">
<polygon fill="white" stroke="black" points="299,-190.5 299,-209.5 419,-209.5 419,-190.5 299,-190.5"/>
<text text-anchor="middle" x="359" y="-197.5" font-family="Helvetica,sans-Serif" font-size="10.00">Aquaduino::getGateway</text>
</a>
</g>
</g>
<!-- Node22&#45;&gt;Node27 -->
<g id="edge26" class="edge"><title>Node22&#45;&gt;Node27</title>
<path fill="none" stroke="midnightblue" d="M229.705,-200C248.35,-200 269.364,-200 288.905,-200"/>
<polygon fill="midnightblue" stroke="midnightblue" points="288.97,-203.5 298.97,-200 288.97,-196.5 288.97,-203.5"/>
</g>
<!-- Node28 -->
<g id="node28" class="node"><title>Node28</title>
<g id="a_node28"><a xlink:href="class_aquaduino.html#af20ad1ceaeedf6cf5ff5cfed695dbe41" target="_top" xlink:title="Aquaduino::getDNS">
<polygon fill="white" stroke="black" points="308,-152.5 308,-171.5 410,-171.5 410,-152.5 308,-152.5"/>
<text text-anchor="middle" x="359" y="-159.5" font-family="Helvetica,sans-Serif" font-size="10.00">Aquaduino::getDNS</text>
</a>
</g>
</g>
<!-- Node22&#45;&gt;Node28 -->
<g id="edge27" class="edge"><title>Node22&#45;&gt;Node28</title>
<path fill="none" stroke="midnightblue" d="M220.431,-190.411C245.149,-185.306 275.739,-178.989 301.792,-173.608"/>
<polygon fill="midnightblue" stroke="midnightblue" points="302.817,-176.97 311.903,-171.52 301.402,-170.115 302.817,-176.97"/>
</g>
<!-- Node22&#45;&gt;Node12 -->
<g id="edge28" class="edge"><title>Node22&#45;&gt;Node12</title>
<path fill="none" stroke="midnightblue" d="M187.733,-190.358C228.761,-162.843 352.615,-89.2999 434,-143 496.683,-184.36 513.845,-281.855 518.407,-324.007"/>
<polygon fill="midnightblue" stroke="midnightblue" points="514.937,-324.496 519.369,-334.119 521.906,-323.832 514.937,-324.496"/>
</g>
<!-- Node29 -->
<g id="node29" class="node"><title>Node29</title>
<g id="a_node29"><a xlink:href="class_aquaduino.html#abca57c3879e6b9927fe3820e36a4a912" target="_top" xlink:title="Aquaduino::isDHCPEnabled">
<polygon fill="white" stroke="black" points="290,-76.5 290,-95.5 428,-95.5 428,-76.5 290,-76.5"/>
<text text-anchor="middle" x="359" y="-83.5" font-family="Helvetica,sans-Serif" font-size="10.00">Aquaduino::isDHCPEnabled</text>
</a>
</g>
</g>
<!-- Node22&#45;&gt;Node29 -->
<g id="edge29" class="edge"><title>Node22&#45;&gt;Node29</title>
<path fill="none" stroke="midnightblue" d="M183.112,-190.477C200.905,-172.384 242.2,-132.818 284,-110 291.924,-105.674 300.755,-101.971 309.48,-98.8608"/>
<polygon fill="midnightblue" stroke="midnightblue" points="310.857,-102.091 319.23,-95.599 308.636,-95.4523 310.857,-102.091"/>
</g>
<!-- Node30 -->
<g id="node30" class="node"><title>Node30</title>
<g id="a_node30"><a xlink:href="class_aquaduino.html#a2270ff8493d7fe8e0182655f312b9c5a" target="_top" xlink:title="Aquaduino::isNTPEnabled">
<polygon fill="white" stroke="black" points="294,-38.5 294,-57.5 424,-57.5 424,-38.5 294,-38.5"/>
<text text-anchor="middle" x="359" y="-45.5" font-family="Helvetica,sans-Serif" font-size="10.00">Aquaduino::isNTPEnabled</text>
</a>
</g>
</g>
<!-- Node22&#45;&gt;Node30 -->
<g id="edge30" class="edge"><title>Node22&#45;&gt;Node30</title>
<path fill="none" stroke="midnightblue" d="M179.183,-190.187C192.798,-165.402 232.137,-99.9174 284,-67 287.368,-64.8621 290.967,-62.9643 294.695,-61.2796"/>
<polygon fill="midnightblue" stroke="midnightblue" points="296.169,-64.4602 304.17,-57.5159 293.585,-57.9546 296.169,-64.4602"/>
</g>
<!-- Node31 -->
<g id="node31" class="node"><title>Node31</title>
<g id="a_node31"><a xlink:href="class_aquaduino.html#a9694acc4701c2367aff948c7c85eb852" target="_top" xlink:title="Aquaduino::getNtpSyncInterval">
<polygon fill="white" stroke="black" points="284.5,-0.5 284.5,-19.5 433.5,-19.5 433.5,-0.5 284.5,-0.5"/>
<text text-anchor="middle" x="359" y="-7.5" font-family="Helvetica,sans-Serif" font-size="10.00">Aquaduino::getNtpSyncInterval</text>
</a>
</g>
</g>
<!-- Node22&#45;&gt;Node31 -->
<g id="edge31" class="edge"><title>Node22&#45;&gt;Node31</title>
<path fill="none" stroke="midnightblue" d="M177.254,-190.464C187.705,-161.327 223.322,-72.8006 284,-29 286.689,-27.0592 289.558,-25.3162 292.547,-23.751"/>
<polygon fill="midnightblue" stroke="midnightblue" points="294.138,-26.873 301.812,-19.5684 291.257,-20.493 294.138,-26.873"/>
</g>
</g>
</svg>
        <g id="navigator" transform="translate(0 0)" fill="#404254">
                <rect fill="#f2f5e9" fill-opacity="0.5" stroke="#606060" stroke-width=".5" x="0" y="0" width="60" height="60"/>
                <use id="zoomplus" xlink:href="#zoomPlus" x="17" y="9" onmousedown="handleZoom(evt,'in')"/>
                <use id="zoomminus" xlink:href="#zoomMin" x="42" y="9" onmousedown="handleZoom(evt,'out')"/>
                <use id="reset" xlink:href="#resetDef" x="30" y="36" onmousedown="handleReset()"/>
                <g id="arrowUp" xlink:href="#dirArrow" transform="translate(30 24)" onmousedown="handlePan(0,-1)">
                  <use xlink:href="#rim" fill="#404040">
                        <set attributeName="fill" to="#808080" begin="arrowUp.mouseover" end="arrowUp.mouseout"/>
                  </use>
                  <path fill="none" stroke="white" stroke-width="1.5" d="M0,-3.0v7 M-2.5,-0.5L0,-3.0L2.5,-0.5"/>
                </g>
                <g id="arrowRight" xlink:href="#dirArrow" transform="rotate(90) translate(36 -43)" onmousedown="handlePan(1,0)">
                  <use xlink:href="#rim" fill="#404040">
                        <set attributeName="fill" to="#808080" begin="arrowRight.mouseover" end="arrowRight.mouseout"/>
                  </use>
                  <path fill="none" stroke="white" stroke-width="1.5" d="M0,-3.0v7 M-2.5,-0.5L0,-3.0L2.5,-0.5"/>
                </g>
                <g id="arrowDown" xlink:href="#dirArrow" transform="rotate(180) translate(-30 -48)" onmousedown="handlePan(0,1)">
                  <use xlink:href="#rim" fill="#404040">
                        <set attributeName="fill" to="#808080" begin="arrowDown.mouseover" end="arrowDown.mouseout"/>
                  </use>
                  <path fill="none" stroke="white" stroke-width="1.5" d="M0,-3.0v7 M-2.5,-0.5L0,-3.0L2.5,-0.5"/>
                </g>
                <g id="arrowLeft" xlink:href="#dirArrow" transform="rotate(270) translate(-36 17)" onmousedown="handlePan(-1,0)">
                  <use xlink:href="#rim" fill="#404040">
                        <set attributeName="fill" to="#808080" begin="arrowLeft.mouseover" end="arrowLeft.mouseout"/>
                  </use>
                  <path fill="none" stroke="white" stroke-width="1.5" d="M0,-3.0v7 M-2.5,-0.5L0,-3.0L2.5,-0.5"/>
                </g>
        </g>
        <svg viewBox="0 0 15 15" width="100%" height="30px" preserveAspectRatio="xMaxYMin meet">
         <g id="arrow_out" transform="scale(0.3 0.3)">
          <a xlink:href="configweb_8cpp_a57a05a1aa70f5b076936a72ec80f9db3_cgraph_org.svg" target="_base">
           <rect id="button" ry="5" rx="5" y="6" x="6" height="38" width="38"
                fill="#f2f5e9" fill-opacity="0.5" stroke="#606060" stroke-width="1.0"/>
           <path id="arrow"
             d="M 11.500037,31.436501 C 11.940474,20.09759 22.043105,11.32322 32.158766,21.979434 L 37.068811,17.246167 C 37.068811,17.246167 37.088388,32 37.088388,32 L 22.160133,31.978069 C 22.160133,31.978069 26.997745,27.140456 26.997745,27.140456 C 18.528582,18.264221 13.291696,25.230495 11.500037,31.436501 z"
             style="fill:#404040;"/>
          </a>
         </g>
        </svg>
</svg>
