<?xml version="1.0" encoding="UTF-8" standalone="no"?>
<!DOCTYPE svg PUBLIC "-//W3C//DTD SVG 1.1//EN"
 "http://www.w3.org/Graphics/SVG/1.1/DTD/svg11.dtd">
<!-- Generated by graphviz version 2.30.1 (20130214.1330)
 -->
<!-- Title: Webinterface/dispatch.cpp Pages: 1 -->
<svg width="918pt" height="476pt"
 viewBox="0.00 0.00 918.00 476.00" xmlns="http://www.w3.org/2000/svg" xmlns:xlink="http://www.w3.org/1999/xlink">
<g id="graph0" class="graph" transform="scale(1 1) rotate(0) translate(4 472)">
<title>Webinterface/dispatch.cpp</title>
<polygon fill="white" stroke="white" points="-4,5 -4,-472 915,-472 915,5 -4,5"/>
<!-- Node1 -->
<g id="node1" class="node"><title>Node1</title>
<polygon fill="#bfbfbf" stroke="black" points="487,-448.5 487,-467.5 619,-467.5 619,-448.5 487,-448.5"/>
<text text-anchor="middle" x="553" y="-455.5" font-family="Helvetica,sans-Serif" font-size="10.00">Webinterface/dispatch.cpp</text>
</g>
<!-- Node2 -->
<g id="node2" class="node"><title>Node2</title>
<g id="a_node2"><a xlink:href="_web_interface_8h.html" target="_top" xlink:title="Framework/WebInterface.h">
<polygon fill="white" stroke="black" points="-0.5,-112.5 -0.5,-131.5 132.5,-131.5 132.5,-112.5 -0.5,-112.5"/>
<text text-anchor="middle" x="66" y="-119.5" font-family="Helvetica,sans-Serif" font-size="10.00">Framework/WebInterface.h</text>
</a>
</g>
</g>
<!-- Node1&#45;&gt;Node2 -->
<g id="edge1" class="edge"><title>Node1&#45;&gt;Node2</title>
<path fill="none" stroke="midnightblue" d="M486.95,-455.727C354.069,-451.368 67,-432.103 67,-347 67,-347 67,-347 67,-233 67,-200.947 66.5702,-163.642 66.2741,-141.748"/>
<polygon fill="midnightblue" stroke="midnightblue" points="69.7712,-141.507 66.1307,-131.558 62.7719,-141.606 69.7712,-141.507"/>
</g>
<!-- Node4 -->
<g id="node4" class="node"><title>Node4</title>
<polygon fill="white" stroke="#bfbfbf" points="581,-392.5 581,-411.5 619,-411.5 619,-392.5 581,-392.5"/>
<text text-anchor="middle" x="600" y="-399.5" font-family="Helvetica,sans-Serif" font-size="10.00">SD.h</text>
</g>
<!-- Node1&#45;&gt;Node4 -->
<g id="edge3" class="edge"><title>Node1&#45;&gt;Node4</title>
<path fill="none" stroke="midnightblue" d="M560.761,-448.083C567.537,-440.298 577.543,-428.801 585.755,-419.367"/>
<polygon fill="midnightblue" stroke="midnightblue" points="588.458,-421.592 592.383,-411.751 583.178,-416.996 588.458,-421.592"/>
</g>
<!-- Node5 -->
<g id="node5" class="node"><title>Node5</title>
<polygon fill="white" stroke="#bfbfbf" points="637,-392.5 637,-411.5 683,-411.5 683,-392.5 637,-392.5"/>
<text text-anchor="middle" x="660" y="-399.5" font-family="Helvetica,sans-Serif" font-size="10.00">Time.h</text>
</g>
<!-- Node1&#45;&gt;Node5 -->
<g id="edge4" class="edge"><title>Node1&#45;&gt;Node5</title>
<path fill="none" stroke="midnightblue" d="M570.191,-448.324C587.351,-439.664 613.946,-426.242 633.747,-416.249"/>
<polygon fill="midnightblue" stroke="midnightblue" points="635.501,-419.285 642.851,-411.655 632.347,-413.035 635.501,-419.285"/>
</g>
<!-- Node6 -->
<g id="node6" class="node"><title>Node6</title>
<g id="a_node6"><a xlink:href="_aquaduino_8h.html" target="_top" xlink:title="Aquaduino.h">
<polygon fill="white" stroke="black" points="453.5,-392.5 453.5,-411.5 524.5,-411.5 524.5,-392.5 453.5,-392.5"/>
<text text-anchor="middle" x="489" y="-399.5" font-family="Helvetica,sans-Serif" font-size="10.00">Aquaduino.h</text>
</a>
</g>
</g>
<!-- Node1&#45;&gt;Node6 -->
<g id="edge5" class="edge"><title>Node1&#45;&gt;Node6</title>
<path fill="none" stroke="midnightblue" d="M542.717,-448.324C533.164,-440.263 518.72,-428.077 507.216,-418.369"/>
<polygon fill="midnightblue" stroke="midnightblue" points="509.37,-415.608 499.47,-411.834 504.856,-420.958 509.37,-415.608"/>
</g>
<!-- Node9 -->
<g id="node9" class="node"><title>Node9</title>
<polygon fill="white" stroke="#bfbfbf" points="817.5,-336.5 817.5,-355.5 910.5,-355.5 910.5,-336.5 817.5,-336.5"/>
<text text-anchor="middle" x="864" y="-343.5" font-family="Helvetica,sans-Serif" font-size="10.00">TemplateParser.h</text>
</g>
<!-- Node1&#45;&gt;Node9 -->
<g id="edge40" class="edge"><title>Node1&#45;&gt;Node9</title>
<path fill="none" stroke="midnightblue" d="M552.794,-448.308C552.97,-434.189 555.544,-406.401 572,-392 609.895,-358.837 741.264,-363.592 807.249,-355.892"/>
<polygon fill="midnightblue" stroke="midnightblue" points="807.812,-359.348 817.254,-354.541 806.875,-352.411 807.812,-359.348"/>
</g>
<!-- Node3 -->
<g id="node3" class="node"><title>Node3</title>
<polygon fill="white" stroke="#bfbfbf" points="97,-56.5 97,-75.5 169,-75.5 169,-56.5 97,-56.5"/>
<text text-anchor="middle" x="133" y="-63.5" font-family="Helvetica,sans-Serif" font-size="10.00">WebServer.h</text>
</g>
<!-- Node2&#45;&gt;Node3 -->
<g id="edge2" class="edge"><title>Node2&#45;&gt;Node3</title>
<path fill="none" stroke="midnightblue" d="M76.7647,-112.324C86.7661,-104.263 101.887,-92.0765 113.93,-82.3695"/>
<polygon fill="midnightblue" stroke="midnightblue" points="116.45,-84.8343 122.039,-75.8339 112.057,-79.3841 116.45,-84.8343"/>
</g>
<!-- Node7 -->
<g id="node7" class="node"><title>Node7</title>
<polygon fill="white" stroke="#bfbfbf" points="274,-56.5 274,-75.5 332,-75.5 332,-56.5 274,-56.5"/>
<text text-anchor="middle" x="303" y="-63.5" font-family="Helvetica,sans-Serif" font-size="10.00">Arduino.h</text>
</g>
<!-- Node6&#45;&gt;Node7 -->
<g id="edge6" class="edge"><title>Node6&#45;&gt;Node7</title>
<path fill="none" stroke="midnightblue" d="M453.331,-398.996C391.094,-394.821 266.122,-383.216 233,-356 164.692,-299.874 129.158,-247.419 168,-168 189.244,-124.563 239.284,-95.129 272.111,-79.7127"/>
<polygon fill="midnightblue" stroke="midnightblue" points="273.62,-82.8716 281.285,-75.5572 270.732,-76.4953 273.62,-82.8716"/>
</g>
<!-- Node8 -->
<g id="node8" class="node"><title>Node8</title>
<polygon fill="white" stroke="#bfbfbf" points="280,-336.5 280,-355.5 342,-355.5 342,-336.5 280,-336.5"/>
<text text-anchor="middle" x="311" y="-343.5" font-family="Helvetica,sans-Serif" font-size="10.00">Ethernet.h</text>
</g>
<!-- Node6&#45;&gt;Node8 -->
<g id="edge7" class="edge"><title>Node6&#45;&gt;Node8</title>
<path fill="none" stroke="midnightblue" d="M460.795,-392.444C430.59,-383.28 382.489,-368.688 348.971,-358.519"/>
<polygon fill="midnightblue" stroke="midnightblue" points="349.658,-355.07 339.073,-355.516 347.626,-361.769 349.658,-355.07"/>
</g>
<!-- Node6&#45;&gt;Node9 -->
<g id="edge8" class="edge"><title>Node6&#45;&gt;Node9</title>
<path fill="none" stroke="midnightblue" d="M524.746,-394.364C529.533,-393.534 534.382,-392.724 539,-392 655.023,-373.804 686.995,-373.571 807.292,-356.066"/>
<polygon fill="midnightblue" stroke="midnightblue" points="807.876,-359.518 817.263,-354.606 806.861,-352.592 807.876,-359.518"/>
</g>
<!-- Node10 -->
<g id="node10" class="node"><title>Node10</title>
<g id="a_node10"><a xlink:href="_config_8h.html" target="_top" xlink:title="Framework/Config.h">
<polygon fill="white" stroke="black" points="385.5,-56.5 385.5,-75.5 488.5,-75.5 488.5,-56.5 385.5,-56.5"/>
<text text-anchor="middle" x="437" y="-63.5" font-family="Helvetica,sans-Serif" font-size="10.00">Framework/Config.h</text>
</a>
</g>
</g>
<!-- Node6&#45;&gt;Node10 -->
<g id="edge9" class="edge"><title>Node6&#45;&gt;Node10</title>
<path fill="none" stroke="midnightblue" d="M524.826,-394.097C573.896,-382.325 656,-353.318 656,-291 656,-291 656,-291 656,-177 656,-137.522 540.923,-97.477 477.605,-78.4315"/>
<polygon fill="midnightblue" stroke="midnightblue" points="478.495,-75.045 467.913,-75.5585 476.506,-81.7563 478.495,-75.045"/>
</g>
<!-- Node12 -->
<g id="node12" class="node"><title>Node12</title>
<g id="a_node12"><a xlink:href="_controller_8h.html" target="_top" xlink:title="Framework/Controller.h">
<polygon fill="white" stroke="black" points="177.5,-168.5 177.5,-187.5 294.5,-187.5 294.5,-168.5 177.5,-168.5"/>
<text text-anchor="middle" x="236" y="-175.5" font-family="Helvetica,sans-Serif" font-size="10.00">Framework/Controller.h</text>
</a>
</g>
</g>
<!-- Node6&#45;&gt;Node12 -->
<g id="edge11" class="edge"><title>Node6&#45;&gt;Node12</title>
<path fill="none" stroke="midnightblue" d="M453.464,-399.436C393.613,-396.002 276.61,-385.589 250,-356 210.197,-311.741 222.476,-233.543 230.912,-197.789"/>
<polygon fill="midnightblue" stroke="midnightblue" points="234.387,-198.322 233.445,-187.769 227.601,-196.606 234.387,-198.322"/>
</g>
<!-- Node16 -->
<g id="node16" class="node"><title>Node16</title>
<g id="a_node16"><a xlink:href="_actuator_8h.html" target="_top" xlink:title="Framework/Actuator.h">
<polygon fill="white" stroke="black" points="265.5,-224.5 265.5,-243.5 378.5,-243.5 378.5,-224.5 265.5,-224.5"/>
<text text-anchor="middle" x="322" y="-231.5" font-family="Helvetica,sans-Serif" font-size="10.00">Framework/Actuator.h</text>
</a>
</g>
</g>
<!-- Node6&#45;&gt;Node16 -->
<g id="edge20" class="edge"><title>Node6&#45;&gt;Node16</title>
<path fill="none" stroke="midnightblue" d="M453.149,-399.253C395.387,-395.604 285.777,-384.953 262,-356 234.624,-322.664 277.58,-274.753 303.92,-250.43"/>
<polygon fill="midnightblue" stroke="midnightblue" points="306.345,-252.957 311.465,-243.681 301.679,-247.74 306.345,-252.957"/>
</g>
<!-- Node17 -->
<g id="node17" class="node"><title>Node17</title>
<g id="a_node17"><a xlink:href="_sensor_8h.html" target="_top" xlink:title="Framework/Sensor.h">
<polygon fill="white" stroke="black" points="435.5,-224.5 435.5,-243.5 542.5,-243.5 542.5,-224.5 435.5,-224.5"/>
<text text-anchor="middle" x="489" y="-231.5" font-family="Helvetica,sans-Serif" font-size="10.00">Framework/Sensor.h</text>
</a>
</g>
</g>
<!-- Node6&#45;&gt;Node17 -->
<g id="edge26" class="edge"><title>Node6&#45;&gt;Node17</title>
<path fill="none" stroke="midnightblue" d="M498.288,-392.395C506.581,-384.025 518.144,-370.483 523,-356 535.255,-319.452 514.405,-275.725 500.304,-252.131"/>
<polygon fill="midnightblue" stroke="midnightblue" points="503.236,-250.218 494.965,-243.597 497.302,-253.931 503.236,-250.218"/>
</g>
<!-- Node18 -->
<g id="node18" class="node"><title>Node18</title>
<g id="a_node18"><a xlink:href="_array_list_8h.html" target="_top" xlink:title="Framework/ArrayList.h">
<polygon fill="white" stroke="black" points="684.5,-336.5 684.5,-355.5 799.5,-355.5 799.5,-336.5 684.5,-336.5"/>
<text text-anchor="middle" x="742" y="-343.5" font-family="Helvetica,sans-Serif" font-size="10.00">Framework/ArrayList.h</text>
</a>
</g>
</g>
<!-- Node6&#45;&gt;Node18 -->
<g id="edge28" class="edge"><title>Node6&#45;&gt;Node18</title>
<path fill="none" stroke="midnightblue" d="M524.712,-393.378C568.421,-384.048 642.694,-368.196 692.05,-357.661"/>
<polygon fill="midnightblue" stroke="midnightblue" points="692.828,-361.074 701.878,-355.564 691.367,-354.228 692.828,-361.074"/>
</g>
<!-- Node20 -->
<g id="node20" class="node"><title>Node20</title>
<g id="a_node20"><a xlink:href="_s_d_config_manager_8h.html" target="_top" xlink:title="Framework/SDConfigManager.h">
<polygon fill="white" stroke="black" points="360,-336.5 360,-355.5 514,-355.5 514,-336.5 360,-336.5"/>
<text text-anchor="middle" x="437" y="-343.5" font-family="Helvetica,sans-Serif" font-size="10.00">Framework/SDConfigManager.h</text>
</a>
</g>
</g>
<!-- Node6&#45;&gt;Node20 -->
<g id="edge31" class="edge"><title>Node6&#45;&gt;Node20</title>
<path fill="none" stroke="midnightblue" d="M480.413,-392.083C472.841,-384.22 461.622,-372.569 452.486,-363.081"/>
<polygon fill="midnightblue" stroke="midnightblue" points="454.885,-360.527 445.427,-355.751 449.842,-365.382 454.885,-360.527"/>
</g>
<!-- Node13 -->
<g id="node13" class="node"><title>Node13</title>
<g id="a_node13"><a xlink:href="_object_8h.html" target="_top" xlink:title="Object.h">
<polygon fill="white" stroke="black" points="445.5,-112.5 445.5,-131.5 498.5,-131.5 498.5,-112.5 445.5,-112.5"/>
<text text-anchor="middle" x="472" y="-119.5" font-family="Helvetica,sans-Serif" font-size="10.00">Object.h</text>
</a>
</g>
</g>
<!-- Node6&#45;&gt;Node13 -->
<g id="edge38" class="edge"><title>Node6&#45;&gt;Node13</title>
<path fill="none" stroke="midnightblue" d="M524.588,-393.425C547.158,-386.948 575.49,-375.482 594,-356 615.211,-333.674 618,-321.795 618,-291 618,-291 618,-291 618,-233 618,-202.205 615.779,-189.772 594,-168 571.096,-145.103 535.551,-133.737 508.724,-128.169"/>
<polygon fill="midnightblue" stroke="midnightblue" points="509.029,-124.664 498.552,-126.244 507.727,-131.542 509.029,-124.664"/>
</g>
<!-- Node15 -->
<g id="node15" class="node"><title>Node15</title>
<g id="a_node15"><a xlink:href="_serializable_8h.html" target="_top" xlink:title="Serializable.h">
<polygon fill="white" stroke="black" points="265.5,-112.5 265.5,-131.5 340.5,-131.5 340.5,-112.5 265.5,-112.5"/>
<text text-anchor="middle" x="303" y="-119.5" font-family="Helvetica,sans-Serif" font-size="10.00">Serializable.h</text>
</a>
</g>
</g>
<!-- Node6&#45;&gt;Node15 -->
<g id="edge39" class="edge"><title>Node6&#45;&gt;Node15</title>
<path fill="none" stroke="midnightblue" d="M503.621,-392.482C529.344,-376.272 580,-338.339 580,-291 580,-291 580,-291 580,-233 580,-184.285 430.141,-147.722 350.876,-131.79"/>
<polygon fill="midnightblue" stroke="midnightblue" points="351.134,-128.274 340.646,-129.769 349.778,-135.141 351.134,-128.274"/>
</g>
<!-- Node11 -->
<g id="node11" class="node"><title>Node11</title>
<polygon fill="white" stroke="#bfbfbf" points="575.5,-0.5 575.5,-19.5 624.5,-19.5 624.5,-0.5 575.5,-0.5"/>
<text text-anchor="middle" x="600" y="-7.5" font-family="Helvetica,sans-Serif" font-size="10.00">stdint.h</text>
</g>
<!-- Node10&#45;&gt;Node11 -->
<g id="edge10" class="edge"><title>Node10&#45;&gt;Node11</title>
<path fill="none" stroke="midnightblue" d="M462.828,-56.4435C490.572,-47.2522 534.804,-32.5987 565.509,-22.4265"/>
<polygon fill="midnightblue" stroke="midnightblue" points="566.968,-25.6302 575.36,-19.1629 564.767,-18.9854 566.968,-25.6302"/>
</g>
<!-- Node12&#45;&gt;Node13 -->
<g id="edge12" class="edge"><title>Node12&#45;&gt;Node13</title>
<path fill="none" stroke="midnightblue" d="M273.395,-168.444C317.795,-158.284 391.36,-141.451 435.406,-131.373"/>
<polygon fill="midnightblue" stroke="midnightblue" points="436.433,-134.729 445.4,-129.086 434.871,-127.905 436.433,-134.729"/>
</g>
<!-- Node12&#45;&gt;Node15 -->
<g id="edge15" class="edge"><title>Node12&#45;&gt;Node15</title>
<path fill="none" stroke="midnightblue" d="M246.765,-168.324C256.766,-160.263 271.887,-148.077 283.93,-138.369"/>
<polygon fill="midnightblue" stroke="midnightblue" points="286.45,-140.834 292.039,-131.834 282.057,-135.384 286.45,-140.834"/>
</g>
<!-- Node12&#45;&gt;Node2 -->
<g id="edge17" class="edge"><title>Node12&#45;&gt;Node2</title>
<path fill="none" stroke="midnightblue" d="M209.063,-168.444C180.34,-159.32 134.671,-144.813 102.679,-134.651"/>
<polygon fill="midnightblue" stroke="midnightblue" points="103.401,-131.208 92.811,-131.516 101.282,-137.88 103.401,-131.208"/>
</g>
<!-- Node12&#45;&gt;Node10 -->
<g id="edge18" class="edge"><title>Node12&#45;&gt;Node10</title>
<path fill="none" stroke="midnightblue" d="M236.091,-168.464C236.72,-154.569 240.052,-127.097 256,-112 273.216,-95.7027 329.953,-83.3267 375.369,-75.718"/>
<polygon fill="midnightblue" stroke="midnightblue" points="376.15,-79.1369 385.457,-74.0738 375.024,-72.228 376.15,-79.1369"/>
</g>
<!-- Node12&#45;&gt;Node3 -->
<g id="edge19" class="edge"><title>Node12&#45;&gt;Node3</title>
<path fill="none" stroke="midnightblue" d="M227.918,-168.368C210.694,-149.974 170.147,-106.671 148.03,-83.0519"/>
<polygon fill="midnightblue" stroke="midnightblue" points="150.435,-80.4987 141.045,-75.5914 145.325,-85.2832 150.435,-80.4987"/>
</g>
<!-- Node13&#45;&gt;Node10 -->
<g id="edge13" class="edge"><title>Node13&#45;&gt;Node10</title>
<path fill="none" stroke="midnightblue" d="M466.22,-112.083C461.328,-104.534 454.173,-93.4948 448.167,-84.2298"/>
<polygon fill="midnightblue" stroke="midnightblue" points="451.048,-82.239 442.672,-75.7511 445.174,-86.0463 451.048,-82.239"/>
</g>
<!-- Node14 -->
<g id="node14" class="node"><title>Node14</title>
<g id="a_node14"><a xlink:href="_object_types_8h.html" target="_top" xlink:title="Framework/ObjectTypes.h">
<polygon fill="white" stroke="black" points="506.5,-56.5 506.5,-75.5 637.5,-75.5 637.5,-56.5 506.5,-56.5"/>
<text text-anchor="middle" x="572" y="-63.5" font-family="Helvetica,sans-Serif" font-size="10.00">Framework/ObjectTypes.h</text>
</a>
</g>
</g>
<!-- Node13&#45;&gt;Node14 -->
<g id="edge14" class="edge"><title>Node13&#45;&gt;Node14</title>
<path fill="none" stroke="midnightblue" d="M488.067,-112.324C503.958,-103.743 528.507,-90.486 546.958,-80.5224"/>
<polygon fill="midnightblue" stroke="midnightblue" points="548.837,-83.4857 555.973,-75.6545 545.511,-77.3264 548.837,-83.4857"/>
</g>
<!-- Node15&#45;&gt;Node7 -->
<g id="edge16" class="edge"><title>Node15&#45;&gt;Node7</title>
<path fill="none" stroke="midnightblue" d="M303,-112.083C303,-105.006 303,-94.8611 303,-85.9865"/>
<polygon fill="midnightblue" stroke="midnightblue" points="306.5,-85.751 303,-75.7511 299.5,-85.7511 306.5,-85.751"/>
</g>
<!-- Node16&#45;&gt;Node13 -->
<g id="edge21" class="edge"><title>Node16&#45;&gt;Node13</title>
<path fill="none" stroke="midnightblue" d="M333.77,-224.368C359.401,-205.573 420.498,-160.768 452.182,-137.533"/>
<polygon fill="midnightblue" stroke="midnightblue" points="454.29,-140.328 460.284,-131.591 450.151,-134.683 454.29,-140.328"/>
</g>
<!-- Node16&#45;&gt;Node10 -->
<g id="edge22" class="edge"><title>Node16&#45;&gt;Node10</title>
<path fill="none" stroke="midnightblue" d="M328.183,-224.075C346.52,-197.606 400.831,-119.209 425.078,-84.2097"/>
<polygon fill="midnightblue" stroke="midnightblue" points="428.247,-85.7814 431.064,-75.5681 422.492,-81.7951 428.247,-85.7814"/>
</g>
<!-- Node16&#45;&gt;Node12 -->
<g id="edge23" class="edge"><title>Node16&#45;&gt;Node12</title>
<path fill="none" stroke="midnightblue" d="M308.183,-224.324C294.767,-215.9 274.176,-202.971 258.414,-193.074"/>
<polygon fill="midnightblue" stroke="midnightblue" points="260.113,-190.008 249.783,-187.655 256.391,-195.936 260.113,-190.008"/>
</g>
<!-- Node16&#45;&gt;Node15 -->
<g id="edge24" class="edge"><title>Node16&#45;&gt;Node15</title>
<path fill="none" stroke="midnightblue" d="M320.509,-224.368C317.443,-206.617 310.37,-165.666 306.212,-141.597"/>
<polygon fill="midnightblue" stroke="midnightblue" points="309.635,-140.85 304.484,-131.591 302.737,-142.041 309.635,-140.85"/>
</g>
<!-- Node16&#45;&gt;Node2 -->
<g id="edge25" class="edge"><title>Node16&#45;&gt;Node2</title>
<path fill="none" stroke="midnightblue" d="M281.322,-224.443C249.609,-216.989 204.909,-204.741 168,-188 137.321,-174.085 105.036,-152.083 85.2057,-137.595"/>
<polygon fill="midnightblue" stroke="midnightblue" points="87.1382,-134.671 77.0217,-131.523 82.9673,-140.292 87.1382,-134.671"/>
</g>
<!-- Node17&#45;&gt;Node13 -->
<g id="edge27" class="edge"><title>Node17&#45;&gt;Node13</title>
<path fill="none" stroke="midnightblue" d="M487.666,-224.368C484.923,-206.617 478.594,-165.666 474.874,-141.597"/>
<polygon fill="midnightblue" stroke="midnightblue" points="478.314,-140.94 473.328,-131.591 471.396,-142.009 478.314,-140.94"/>
</g>
<!-- Node19 -->
<g id="node19" class="node"><title>Node19</title>
<polygon fill="white" stroke="#bfbfbf" points="684.5,-280.5 684.5,-299.5 735.5,-299.5 735.5,-280.5 684.5,-280.5"/>
<text text-anchor="middle" x="710" y="-287.5" font-family="Helvetica,sans-Serif" font-size="10.00">stddef.h</text>
</g>
<!-- Node18&#45;&gt;Node19 -->
<g id="edge29" class="edge"><title>Node18&#45;&gt;Node19</title>
<path fill="none" stroke="midnightblue" d="M736.716,-336.083C732.289,-328.613 725.837,-317.724 720.382,-308.52"/>
<polygon fill="midnightblue" stroke="midnightblue" points="723.295,-306.57 715.186,-299.751 717.273,-310.138 723.295,-306.57"/>
</g>
<!-- Node18&#45;&gt;Node11 -->
<g id="edge30" class="edge"><title>Node18&#45;&gt;Node11</title>
<path fill="none" stroke="midnightblue" d="M744.967,-336.279C750.972,-317.824 764,-273.367 764,-235 764,-235 764,-235 764,-121 764,-59.196 682.675,-29.8883 634.562,-17.9574"/>
<polygon fill="midnightblue" stroke="midnightblue" points="635.088,-14.4858 624.552,-15.6058 633.487,-21.3002 635.088,-14.4858"/>
</g>
<!-- Node21 -->
<g id="node21" class="node"><title>Node21</title>
<g id="a_node21"><a xlink:href="_config_manager_8h.html" target="_top" xlink:title="ConfigManager.h">
<polygon fill="white" stroke="black" points="319.5,-280.5 319.5,-299.5 408.5,-299.5 408.5,-280.5 319.5,-280.5"/>
<text text-anchor="middle" x="364" y="-287.5" font-family="Helvetica,sans-Serif" font-size="10.00">ConfigManager.h</text>
</a>
</g>
</g>
<!-- Node20&#45;&gt;Node21 -->
<g id="edge32" class="edge"><title>Node20&#45;&gt;Node21</title>
<path fill="none" stroke="midnightblue" d="M425.271,-336.324C414.163,-328.107 397.258,-315.602 384.017,-305.807"/>
<polygon fill="midnightblue" stroke="midnightblue" points="386.063,-302.967 375.942,-299.834 381.9,-308.595 386.063,-302.967"/>
</g>
<!-- Node21&#45;&gt;Node7 -->
<g id="edge33" class="edge"><title>Node21&#45;&gt;Node7</title>
<path fill="none" stroke="midnightblue" d="M370.105,-280.191C375.755,-271.46 383.755,-257.478 387,-244 389.081,-235.358 388.447,-232.77 387,-224 378.441,-172.137 376.999,-156.487 349,-112 341.984,-100.852 331.672,-90.427 322.59,-82.4241"/>
<polygon fill="midnightblue" stroke="midnightblue" points="324.629,-79.5654 314.724,-75.8041 320.121,-84.9211 324.629,-79.5654"/>
</g>
<!-- Node21&#45;&gt;Node6 -->
<g id="edge34" class="edge"><title>Node21&#45;&gt;Node6</title>
<path fill="none" stroke="midnightblue" d="M331.485,-299.571C296.96,-310.249 250.036,-330.266 271,-356 292.255,-382.09 385.486,-393.509 442.923,-398.143"/>
<polygon fill="midnightblue" stroke="midnightblue" points="442.968,-401.656 453.206,-398.931 443.503,-394.677 442.968,-401.656"/>
</g>
<!-- Node21&#45;&gt;Node16 -->
<g id="edge35" class="edge"><title>Node21&#45;&gt;Node16</title>
<path fill="none" stroke="midnightblue" d="M357.065,-280.083C351.071,-272.377 342.248,-261.033 334.952,-251.653"/>
<polygon fill="midnightblue" stroke="midnightblue" points="337.709,-249.496 328.806,-243.751 332.183,-253.793 337.709,-249.496"/>
</g>
<!-- Node21&#45;&gt;Node12 -->
<g id="edge36" class="edge"><title>Node21&#45;&gt;Node12</title>
<path fill="none" stroke="midnightblue" d="M321.511,-280.476C299.218,-273.967 273.069,-262.797 256,-244 244.476,-231.309 239.591,-212.106 237.52,-197.86"/>
<polygon fill="midnightblue" stroke="midnightblue" points="240.976,-197.267 236.39,-187.716 234.019,-198.042 240.976,-197.267"/>
</g>
<!-- Node21&#45;&gt;Node17 -->
<g id="edge37" class="edge"><title>Node21&#45;&gt;Node17</title>
<path fill="none" stroke="midnightblue" d="M383.807,-280.444C404.287,-271.596 436.483,-257.687 459.865,-247.586"/>
<polygon fill="midnightblue" stroke="midnightblue" points="461.494,-250.695 469.286,-243.516 458.718,-244.269 461.494,-250.695"/>
</g>
</g>
</svg>
