<?xml version="1.0" encoding="UTF-8" standalone="no"?>
<!DOCTYPE svg PUBLIC "-//W3C//DTD SVG 1.1//EN"
 "http://www.w3.org/Graphics/SVG/1.1/DTD/svg11.dtd">
<!-- Generated by graphviz version 2.30.1 (20130214.1330)
 -->
<!-- Title: Graphical Class Hierarchy Pages: 1 -->
<svg width="332pt" height="275pt"
 viewBox="0.00 0.00 332.00 275.00" xmlns="http://www.w3.org/2000/svg" xmlns:xlink="http://www.w3.org/1999/xlink">
<g id="graph0" class="graph" transform="scale(1 1) rotate(0) translate(4 271)">
<title>Graphical Class Hierarchy</title>
<polygon fill="white" stroke="white" points="-4,5 -4,-271 329,-271 329,5 -4,5"/>
<!-- Node1 -->
<g id="node1" class="node"><title>Node1</title>
<g id="a_node1"><a xlink:href="class_object.html" target="_top" xlink:title="Object">
<polygon fill="white" stroke="black" points="14.5,-57.5 14.5,-76.5 59.5,-76.5 59.5,-57.5 14.5,-57.5"/>
<text text-anchor="middle" x="37" y="-64.5" font-family="Helvetica,sans-Serif" font-size="10.00">Object</text>
</a>
</g>
</g>
<!-- Node2 -->
<g id="node2" class="node"><title>Node2</title>
<g id="a_node2"><a xlink:href="class_actuator.html" target="_top" xlink:title="Actuator">
<polygon fill="white" stroke="black" points="116.5,-133.5 116.5,-152.5 169.5,-152.5 169.5,-133.5 116.5,-133.5"/>
<text text-anchor="middle" x="143" y="-140.5" font-family="Helvetica,sans-Serif" font-size="10.00">Actuator</text>
</a>
</g>
</g>
<!-- Node1&#45;&gt;Node2 -->
<g id="edge1" class="edge"><title>Node1&#45;&gt;Node2</title>
<path fill="none" stroke="midnightblue" d="M58.4719,-82.8254C63.5586,-86.7843 68.9888,-91.0332 74,-95 90.1095,-107.752 93.1242,-112.281 110,-124 114.67,-127.243 119.911,-130.502 124.778,-133.382"/>
<polygon fill="midnightblue" stroke="midnightblue" points="60.4162,-79.9039 50.3703,-76.5378 56.1244,-85.4339 60.4162,-79.9039"/>
</g>
<!-- Node5 -->
<g id="node5" class="node"><title>Node5</title>
<g id="a_node5"><a xlink:href="class_aquaduino.html" target="_top" xlink:title="Aquaduino">
<polygon fill="white" stroke="black" points="112,-57.5 112,-76.5 174,-76.5 174,-57.5 112,-57.5"/>
<text text-anchor="middle" x="143" y="-64.5" font-family="Helvetica,sans-Serif" font-size="10.00">Aquaduino</text>
</a>
</g>
</g>
<!-- Node1&#45;&gt;Node5 -->
<g id="edge4" class="edge"><title>Node1&#45;&gt;Node5</title>
<path fill="none" stroke="midnightblue" d="M69.735,-67C83.1078,-67 98.6005,-67 111.803,-67"/>
<polygon fill="midnightblue" stroke="midnightblue" points="69.5489,-63.5001 59.5489,-67 69.5488,-70.5001 69.5489,-63.5001"/>
</g>
<!-- Node6 -->
<g id="node6" class="node"><title>Node6</title>
<g id="a_node6"><a xlink:href="class_controller.html" target="_top" xlink:title="Controller">
<polygon fill="white" stroke="black" points="114,-171.5 114,-190.5 172,-190.5 172,-171.5 114,-171.5"/>
<text text-anchor="middle" x="143" y="-178.5" font-family="Helvetica,sans-Serif" font-size="10.00">Controller</text>
</a>
</g>
</g>
<!-- Node1&#45;&gt;Node6 -->
<g id="edge5" class="edge"><title>Node1&#45;&gt;Node6</title>
<path fill="none" stroke="midnightblue" d="M61.2637,-82.7753C65.8022,-86.4675 70.2957,-90.6146 74,-95 95.8134,-120.824 86.6134,-137.591 110,-162 113.487,-165.639 117.819,-168.824 122.159,-171.495"/>
<polygon fill="midnightblue" stroke="midnightblue" points="63.2897,-79.9192 53.2062,-76.6676 59.0611,-85.4977 63.2897,-79.9192"/>
</g>
<!-- Node10 -->
<g id="node10" class="node"><title>Node10</title>
<g id="a_node10"><a xlink:href="class_sensor.html" target="_top" xlink:title="Sensor">
<polygon fill="white" stroke="black" points="119.5,-19.5 119.5,-38.5 166.5,-38.5 166.5,-19.5 119.5,-19.5"/>
<text text-anchor="middle" x="143" y="-26.5" font-family="Helvetica,sans-Serif" font-size="10.00">Sensor</text>
</a>
</g>
</g>
<!-- Node1&#45;&gt;Node10 -->
<g id="edge9" class="edge"><title>Node1&#45;&gt;Node10</title>
<path fill="none" stroke="midnightblue" d="M69.1265,-55.6268C85.2921,-49.7202 104.685,-42.6344 119.399,-37.2579"/>
<polygon fill="midnightblue" stroke="midnightblue" points="67.7403,-52.407 59.5489,-59.1264 70.1427,-58.9818 67.7403,-52.407"/>
</g>
<!-- Node3 -->
<g id="node3" class="node"><title>Node3</title>
<g id="a_node3"><a xlink:href="class_digital_output.html" target="_top" xlink:title="DigitalOutput">
<polygon fill="white" stroke="black" points="231.5,-95.5 231.5,-114.5 304.5,-114.5 304.5,-95.5 231.5,-95.5"/>
<text text-anchor="middle" x="268" y="-102.5" font-family="Helvetica,sans-Serif" font-size="10.00">DigitalOutput</text>
</a>
</g>
</g>
<!-- Node2&#45;&gt;Node3 -->
<g id="edge2" class="edge"><title>Node2&#45;&gt;Node3</title>
<path fill="none" stroke="midnightblue" d="M179.557,-132.015C197.415,-126.498 218.847,-119.877 236.023,-114.57"/>
<polygon fill="midnightblue" stroke="midnightblue" points="178.306,-128.738 169.785,-135.034 180.372,-135.426 178.306,-128.738"/>
</g>
<!-- Node4 -->
<g id="node4" class="node"><title>Node4</title>
<g id="a_node4"><a xlink:href="class_p_w_m_output.html" target="_top" xlink:title="PWMOutput">
<polygon fill="white" stroke="black" points="232.5,-133.5 232.5,-152.5 303.5,-152.5 303.5,-133.5 232.5,-133.5"/>
<text text-anchor="middle" x="268" y="-140.5" font-family="Helvetica,sans-Serif" font-size="10.00">PWMOutput</text>
</a>
</g>
</g>
<!-- Node2&#45;&gt;Node4 -->
<g id="edge3" class="edge"><title>Node2&#45;&gt;Node4</title>
<path fill="none" stroke="midnightblue" d="M180.135,-143C196.629,-143 216.074,-143 232.381,-143"/>
<polygon fill="midnightblue" stroke="midnightblue" points="179.785,-139.5 169.785,-143 179.785,-146.5 179.785,-139.5"/>
</g>
<!-- Node7 -->
<g id="node7" class="node"><title>Node7</title>
<g id="a_node7"><a xlink:href="class_clock_timer_controller.html" target="_top" xlink:title="ClockTimerController">
<polygon fill="white" stroke="black" points="214.5,-209.5 214.5,-228.5 321.5,-228.5 321.5,-209.5 214.5,-209.5"/>
<text text-anchor="middle" x="268" y="-216.5" font-family="Helvetica,sans-Serif" font-size="10.00">ClockTimerController</text>
</a>
</g>
</g>
<!-- Node6&#45;&gt;Node7 -->
<g id="edge6" class="edge"><title>Node6&#45;&gt;Node7</title>
<path fill="none" stroke="midnightblue" d="M182.013,-192.744C199.308,-198.087 219.518,-204.331 235.89,-209.389"/>
<polygon fill="midnightblue" stroke="midnightblue" points="182.806,-189.326 172.219,-189.718 180.74,-196.014 182.806,-189.326"/>
</g>
<!-- Node8 -->
<g id="node8" class="node"><title>Node8</title>
<g id="a_node8"><a xlink:href="class_level_controller.html" target="_top" xlink:title="LevelController">
<polygon fill="white" stroke="black" points="228,-171.5 228,-190.5 308,-190.5 308,-171.5 228,-171.5"/>
<text text-anchor="middle" x="268" y="-178.5" font-family="Helvetica,sans-Serif" font-size="10.00">LevelController</text>
</a>
</g>
</g>
<!-- Node6&#45;&gt;Node8 -->
<g id="edge7" class="edge"><title>Node6&#45;&gt;Node8</title>
<path fill="none" stroke="midnightblue" d="M182.325,-181C196.765,-181 213.202,-181 227.728,-181"/>
<polygon fill="midnightblue" stroke="midnightblue" points="182.219,-177.5 172.219,-181 182.219,-184.5 182.219,-177.5"/>
</g>
<!-- Node9 -->
<g id="node9" class="node"><title>Node9</title>
<g id="a_node9"><a xlink:href="class_temperature_controller.html" target="_top" xlink:title="TemperatureController">
<polygon fill="white" stroke="black" points="212,-247.5 212,-266.5 324,-266.5 324,-247.5 212,-247.5"/>
<text text-anchor="middle" x="268" y="-254.5" font-family="Helvetica,sans-Serif" font-size="10.00">TemperatureController</text>
</a>
</g>
</g>
<!-- Node6&#45;&gt;Node9 -->
<g id="edge8" class="edge"><title>Node6&#45;&gt;Node9</title>
<path fill="none" stroke="midnightblue" d="M160.548,-197.885C173.569,-210.381 192.684,-227.065 212,-238 218.506,-241.683 225.846,-244.824 232.995,-247.429"/>
<polygon fill="midnightblue" stroke="midnightblue" points="162.864,-195.253 153.281,-190.734 157.954,-200.242 162.864,-195.253"/>
</g>
<!-- Node11 -->
<g id="node11" class="node"><title>Node11</title>
<g id="a_node11"><a xlink:href="class_digital_input.html" target="_top" xlink:title="DigitalInput">
<polygon fill="white" stroke="black" points="235.5,-0.5 235.5,-19.5 300.5,-19.5 300.5,-0.5 235.5,-0.5"/>
<text text-anchor="middle" x="268" y="-7.5" font-family="Helvetica,sans-Serif" font-size="10.00">DigitalInput</text>
</a>
</g>
</g>
<!-- Node10&#45;&gt;Node11 -->
<g id="edge10" class="edge"><title>Node10&#45;&gt;Node11</title>
<path fill="none" stroke="midnightblue" d="M176.683,-23.9514C194.84,-21.1467 217.326,-17.6732 235.319,-14.8937"/>
<polygon fill="midnightblue" stroke="midnightblue" points="175.909,-20.5294 166.56,-25.5151 176.977,-27.4474 175.909,-20.5294"/>
</g>
<!-- Node12 -->
<g id="node12" class="node"><title>Node12</title>
<g id="a_node12"><a xlink:href="class_d_s18_s20.html" target="_top" xlink:title="DS18S20">
<polygon fill="white" stroke="black" points="239,-38.5 239,-57.5 297,-57.5 297,-38.5 239,-38.5"/>
<text text-anchor="middle" x="268" y="-45.5" font-family="Helvetica,sans-Serif" font-size="10.00">DS18S20</text>
</a>
</g>
</g>
<!-- Node10&#45;&gt;Node12 -->
<g id="edge11" class="edge"><title>Node10&#45;&gt;Node12</title>
<path fill="none" stroke="midnightblue" d="M176.491,-34.019C195.929,-37.0216 220.382,-40.7988 238.969,-43.67"/>
<polygon fill="midnightblue" stroke="midnightblue" points="176.977,-30.5526 166.56,-32.4849 175.909,-37.4706 176.977,-30.5526"/>
</g>
<!-- Node13 -->
<g id="node13" class="node"><title>Node13</title>
<g id="a_node13"><a xlink:href="class_serializable.html" target="_top" xlink:title="Serializable">
<polygon fill="white" stroke="black" points="3.5,-104.5 3.5,-123.5 70.5,-123.5 70.5,-104.5 3.5,-104.5"/>
<text text-anchor="middle" x="37" y="-111.5" font-family="Helvetica,sans-Serif" font-size="10.00">Serializable</text>
</a>
</g>
</g>
<!-- Node13&#45;&gt;Node2 -->
<g id="edge12" class="edge"><title>Node13&#45;&gt;Node2</title>
<path fill="none" stroke="midnightblue" d="M80.6045,-125.88C92.7608,-129.27 105.626,-132.857 116.421,-135.867"/>
<polygon fill="midnightblue" stroke="midnightblue" points="81.1936,-122.411 70.6209,-123.096 79.3133,-129.154 81.1936,-122.411"/>
</g>
<!-- Node13&#45;&gt;Node5 -->
<g id="edge13" class="edge"><title>Node13&#45;&gt;Node5</title>
<path fill="none" stroke="#8b1a1a" d="M68.4236,-100.251C85.1788,-92.6788 105.567,-83.465 120.628,-76.6583"/>
<polygon fill="#8b1a1a" stroke="#8b1a1a" points="66.7172,-97.1811 59.046,-104.489 69.6,-103.56 66.7172,-97.1811"/>
</g>
<!-- Node14 -->
<g id="node14" class="node"><title>Node14</title>
<g id="a_node14"><a xlink:href="class_clock_timer.html" target="_top" xlink:title="ClockTimer">
<polygon fill="white" stroke="black" points="110.5,-95.5 110.5,-114.5 175.5,-114.5 175.5,-95.5 110.5,-95.5"/>
<text text-anchor="middle" x="143" y="-102.5" font-family="Helvetica,sans-Serif" font-size="10.00">ClockTimer</text>
</a>
</g>
</g>
<!-- Node13&#45;&gt;Node14 -->
<g id="edge14" class="edge"><title>Node13&#45;&gt;Node14</title>
<path fill="none" stroke="midnightblue" d="M80.681,-110.306C90.5555,-109.452 100.893,-108.557 110.207,-107.751"/>
<polygon fill="midnightblue" stroke="midnightblue" points="80.2819,-106.828 70.6209,-111.177 80.8855,-113.802 80.2819,-106.828"/>
</g>
<!-- Node13&#45;&gt;Node6 -->
<g id="edge15" class="edge"><title>Node13&#45;&gt;Node6</title>
<path fill="none" stroke="midnightblue" d="M60.4788,-129.423C74.5806,-138.989 93.2097,-151.429 110,-162 115.03,-165.167 120.578,-168.512 125.621,-171.497"/>
<polygon fill="midnightblue" stroke="midnightblue" points="62.1657,-126.338 51.9305,-123.6 58.2248,-132.123 62.1657,-126.338"/>
</g>
<!-- Node15 -->
<g id="node15" class="node"><title>Node15</title>
<g id="a_node15"><a xlink:href="class_web_interface.html" target="_top" xlink:title="WebInterface">
<polygon fill="white" stroke="black" points="0,-161.5 0,-180.5 74,-180.5 74,-161.5 0,-161.5"/>
<text text-anchor="middle" x="37" y="-168.5" font-family="Helvetica,sans-Serif" font-size="10.00">WebInterface</text>
</a>
</g>
</g>
<!-- Node15&#45;&gt;Node2 -->
<g id="edge16" class="edge"><title>Node15&#45;&gt;Node2</title>
<path fill="none" stroke="midnightblue" d="M83.2388,-158.82C94.509,-155.786 106.21,-152.636 116.176,-149.953"/>
<polygon fill="midnightblue" stroke="midnightblue" points="82.2463,-155.463 73.5,-161.442 84.0661,-162.222 82.2463,-155.463"/>
</g>
<!-- Node15&#45;&gt;Node6 -->
<g id="edge17" class="edge"><title>Node15&#45;&gt;Node6</title>
<path fill="none" stroke="midnightblue" d="M84.0686,-175.43C94.2149,-176.405 104.666,-177.41 113.851,-178.293"/>
<polygon fill="midnightblue" stroke="midnightblue" points="84.3714,-171.943 74.0823,-174.469 83.7013,-178.911 84.3714,-171.943"/>
</g>
</g>
</svg>
