<?xml version="1.0" encoding="UTF-8" standalone="no"?>
<!DOCTYPE svg PUBLIC "-//W3C//DTD SVG 1.1//EN"
 "http://www.w3.org/Graphics/SVG/1.1/DTD/svg11.dtd">
<!-- Generated by graphviz version 2.30.1 (20130214.1330)
 -->
<!-- Title: printActuatorTable Pages: 1 -->
<svg width="440pt" height="355pt"
 viewBox="0.00 0.00 440.00 355.00" xmlns="http://www.w3.org/2000/svg" xmlns:xlink="http://www.w3.org/1999/xlink">
<g id="graph0" class="graph" transform="scale(1 1) rotate(0) translate(4 351)">
<title>printActuatorTable</title>
<polygon fill="white" stroke="white" points="-4,5 -4,-351 437,-351 437,5 -4,5"/>
<!-- Node1 -->
<g id="node1" class="node"><title>Node1</title>
<polygon fill="#bfbfbf" stroke="black" points="0.5,-152.5 0.5,-171.5 95.5,-171.5 95.5,-152.5 0.5,-152.5"/>
<text text-anchor="middle" x="48" y="-159.5" font-family="Helvetica,sans-Serif" font-size="10.00">printActuatorTable</text>
</g>
<!-- Node2 -->
<g id="node2" class="node"><title>Node2</title>
<g id="a_node2"><a xlink:href="class_aquaduino.html#aed76e9fb8f6a3714bbd8de7781133f6e" target="_top" xlink:title="Aquaduino::getTemplateParser">
<polygon fill="white" stroke="black" points="132,-327.5 132,-346.5 282,-346.5 282,-327.5 132,-327.5"/>
<text text-anchor="middle" x="207" y="-334.5" font-family="Helvetica,sans-Serif" font-size="10.00">Aquaduino::getTemplateParser</text>
</a>
</g>
</g>
<!-- Node1&#45;&gt;Node2 -->
<g id="edge1" class="edge"><title>Node1&#45;&gt;Node2</title>
<path fill="none" stroke="midnightblue" d="M51.3154,-171.741C58.3403,-199.114 82.0565,-277.305 132,-317 134.933,-319.331 138.117,-321.392 141.459,-323.213"/>
<polygon fill="midnightblue" stroke="midnightblue" points="140.077,-326.43 150.618,-327.496 143.042,-320.089 140.077,-326.43"/>
</g>
<!-- Node3 -->
<g id="node3" class="node"><title>Node3</title>
<g id="a_node3"><a xlink:href="class_aquaduino.html#ad399caf8b1461f7cf082f7816b685303" target="_top" xlink:title="Aquaduino::resetActuator\lIterator">
<polygon fill="white" stroke="black" points="143.5,-229 143.5,-259 270.5,-259 270.5,-229 143.5,-229"/>
<text text-anchor="start" x="151.5" y="-247" font-family="Helvetica,sans-Serif" font-size="10.00">Aquaduino::resetActuator</text>
<text text-anchor="middle" x="207" y="-236" font-family="Helvetica,sans-Serif" font-size="10.00">Iterator</text>
</a>
</g>
</g>
<!-- Node1&#45;&gt;Node3 -->
<g id="edge2" class="edge"><title>Node1&#45;&gt;Node3</title>
<path fill="none" stroke="midnightblue" d="M60.7189,-171.61C76.2291,-183.951 104.797,-205.394 132,-219 136.321,-221.161 140.872,-223.205 145.506,-225.122"/>
<polygon fill="midnightblue" stroke="midnightblue" points="144.498,-228.486 155.086,-228.877 147.053,-221.969 144.498,-228.486"/>
</g>
<!-- Node5 -->
<g id="node5" class="node"><title>Node5</title>
<g id="a_node5"><a xlink:href="class_aquaduino.html#ab0fcce5c8f5895244e6f92c8d775fae7" target="_top" xlink:title="Aquaduino::getNextActuator">
<polygon fill="white" stroke="black" points="137.5,-152.5 137.5,-171.5 276.5,-171.5 276.5,-152.5 137.5,-152.5"/>
<text text-anchor="middle" x="207" y="-159.5" font-family="Helvetica,sans-Serif" font-size="10.00">Aquaduino::getNextActuator</text>
</a>
</g>
</g>
<!-- Node1&#45;&gt;Node5 -->
<g id="edge4" class="edge"><title>Node1&#45;&gt;Node5</title>
<path fill="none" stroke="midnightblue" d="M95.6801,-162C105.612,-162 116.363,-162 127.122,-162"/>
<polygon fill="midnightblue" stroke="midnightblue" points="127.415,-165.5 137.415,-162 127.415,-158.5 127.415,-165.5"/>
</g>
<!-- Node7 -->
<g id="node7" class="node"><title>Node7</title>
<g id="a_node7"><a xlink:href="class_object.html#aff677ddb7fe429a58e22cd3cadbcee7b" target="_top" xlink:title="Object::getName">
<polygon fill="white" stroke="black" points="162,-190.5 162,-209.5 252,-209.5 252,-190.5 162,-190.5"/>
<text text-anchor="middle" x="207" y="-197.5" font-family="Helvetica,sans-Serif" font-size="10.00">Object::getName</text>
</a>
</g>
</g>
<!-- Node1&#45;&gt;Node7 -->
<g id="edge6" class="edge"><title>Node1&#45;&gt;Node7</title>
<path fill="none" stroke="midnightblue" d="M88.6177,-171.589C109.336,-176.604 134.888,-182.788 156.856,-188.105"/>
<polygon fill="midnightblue" stroke="midnightblue" points="156.124,-191.529 166.667,-190.48 157.771,-184.726 156.124,-191.529"/>
</g>
<!-- Node8 -->
<g id="node8" class="node"><title>Node8</title>
<g id="a_node8"><a xlink:href="class_aquaduino.html#a01abc2912433c4af75419077cb72251e" target="_top" xlink:title="Aquaduino::resetController\lIterator">
<polygon fill="white" stroke="black" points="141.5,-278 141.5,-308 272.5,-308 272.5,-278 141.5,-278"/>
<text text-anchor="start" x="149.5" y="-296" font-family="Helvetica,sans-Serif" font-size="10.00">Aquaduino::resetController</text>
<text text-anchor="middle" x="207" y="-285" font-family="Helvetica,sans-Serif" font-size="10.00">Iterator</text>
</a>
</g>
</g>
<!-- Node1&#45;&gt;Node8 -->
<g id="edge7" class="edge"><title>Node1&#45;&gt;Node8</title>
<path fill="none" stroke="midnightblue" d="M54.0347,-171.739C65.235,-192.472 94.2314,-241.256 132,-268 134.711,-269.92 137.582,-271.701 140.555,-273.353"/>
<polygon fill="midnightblue" stroke="midnightblue" points="139.221,-276.599 149.732,-277.929 142.345,-270.334 139.221,-276.599"/>
</g>
<!-- Node9 -->
<g id="node9" class="node"><title>Node9</title>
<g id="a_node9"><a xlink:href="class_aquaduino.html#ab2e484eadc69b75889abd55143195f07" target="_top" xlink:title="Aquaduino::getNextController">
<polygon fill="white" stroke="black" points="135.5,-114.5 135.5,-133.5 278.5,-133.5 278.5,-114.5 135.5,-114.5"/>
<text text-anchor="middle" x="207" y="-121.5" font-family="Helvetica,sans-Serif" font-size="10.00">Aquaduino::getNextController</text>
</a>
</g>
</g>
<!-- Node1&#45;&gt;Node9 -->
<g id="edge9" class="edge"><title>Node1&#45;&gt;Node9</title>
<path fill="none" stroke="midnightblue" d="M88.6177,-152.411C109.336,-147.396 134.888,-141.212 156.856,-135.895"/>
<polygon fill="midnightblue" stroke="midnightblue" points="157.771,-139.274 166.667,-133.52 156.124,-132.471 157.771,-139.274"/>
</g>
<!-- Node10 -->
<g id="node10" class="node"><title>Node10</title>
<g id="a_node10"><a xlink:href="class_actuator.html#aa12e6c3347af475a8b6ea1c8b38bd9e6" target="_top" xlink:title="Actuator::getController">
<polygon fill="white" stroke="black" points="150,-76.5 150,-95.5 264,-95.5 264,-76.5 150,-76.5"/>
<text text-anchor="middle" x="207" y="-83.5" font-family="Helvetica,sans-Serif" font-size="10.00">Actuator::getController</text>
</a>
</g>
</g>
<!-- Node1&#45;&gt;Node10 -->
<g id="edge11" class="edge"><title>Node1&#45;&gt;Node10</title>
<path fill="none" stroke="midnightblue" d="M60.3055,-152.293C75.5903,-139.645 104.15,-117.656 132,-105 137.338,-102.574 143.038,-100.42 148.818,-98.5151"/>
<polygon fill="midnightblue" stroke="midnightblue" points="150.023,-101.807 158.567,-95.5419 147.981,-95.1111 150.023,-101.807"/>
</g>
<!-- Node11 -->
<g id="node11" class="node"><title>Node11</title>
<g id="a_node11"><a xlink:href="class_actuator.html#ae218188bb2620f56a3ae60712b9fbe5d" target="_top" xlink:title="Actuator::isLocked">
<polygon fill="white" stroke="black" points="158,-38.5 158,-57.5 256,-57.5 256,-38.5 158,-38.5"/>
<text text-anchor="middle" x="207" y="-45.5" font-family="Helvetica,sans-Serif" font-size="10.00">Actuator::isLocked</text>
</a>
</g>
</g>
<!-- Node1&#45;&gt;Node11 -->
<g id="edge12" class="edge"><title>Node1&#45;&gt;Node11</title>
<path fill="none" stroke="midnightblue" d="M54.6979,-152.204C66.5125,-132.794 95.6362,-89.396 132,-67 136.992,-63.9254 142.467,-61.346 148.108,-59.1826"/>
<polygon fill="midnightblue" stroke="midnightblue" points="149.363,-62.4529 157.704,-55.9205 147.11,-55.8254 149.363,-62.4529"/>
</g>
<!-- Node12 -->
<g id="node12" class="node"><title>Node12</title>
<g id="a_node12"><a xlink:href="class_actuator.html#a3d962ff8db3b12fe51df5f12ad445caa" target="_top" xlink:title="Actuator::isOn">
<polygon fill="white" stroke="black" points="167,-0.5 167,-19.5 247,-19.5 247,-0.5 167,-0.5"/>
<text text-anchor="middle" x="207" y="-7.5" font-family="Helvetica,sans-Serif" font-size="10.00">Actuator::isOn</text>
</a>
</g>
</g>
<!-- Node1&#45;&gt;Node12 -->
<g id="edge13" class="edge"><title>Node1&#45;&gt;Node12</title>
<path fill="none" stroke="midnightblue" d="M52.2101,-152.193C60.8402,-127.421 86.9843,-61.9667 132,-29 139.309,-23.6477 147.984,-19.7989 156.778,-17.0323"/>
<polygon fill="midnightblue" stroke="midnightblue" points="157.953,-20.3402 166.689,-14.3462 156.122,-13.5839 157.953,-20.3402"/>
</g>
<!-- Node4 -->
<g id="node4" class="node"><title>Node4</title>
<g id="a_node4"><a xlink:href="class_array_list.html#ada61a62619272992ac7fb0da2cf400b8" target="_top" xlink:title="ArrayList::resetIterator">
<polygon fill="white" stroke="black" points="318.5,-258.5 318.5,-277.5 431.5,-277.5 431.5,-258.5 318.5,-258.5"/>
<text text-anchor="middle" x="375" y="-265.5" font-family="Helvetica,sans-Serif" font-size="10.00">ArrayList::resetIterator</text>
</a>
</g>
</g>
<!-- Node3&#45;&gt;Node4 -->
<g id="edge3" class="edge"><title>Node3&#45;&gt;Node4</title>
<path fill="none" stroke="midnightblue" d="M270.757,-253.073C282.951,-254.836 295.766,-256.689 308.059,-258.466"/>
<polygon fill="midnightblue" stroke="midnightblue" points="307.839,-261.971 318.237,-259.938 308.841,-255.043 307.839,-261.971"/>
</g>
<!-- Node6 -->
<g id="node6" class="node"><title>Node6</title>
<g id="a_node6"><a xlink:href="class_array_list.html#a921b9822fbf598f6fece601973db200b" target="_top" xlink:title="ArrayList::getNext">
<polygon fill="white" stroke="black" points="327.5,-133.5 327.5,-152.5 422.5,-152.5 422.5,-133.5 327.5,-133.5"/>
<text text-anchor="middle" x="375" y="-140.5" font-family="Helvetica,sans-Serif" font-size="10.00">ArrayList::getNext</text>
</a>
</g>
</g>
<!-- Node5&#45;&gt;Node6 -->
<g id="edge5" class="edge"><title>Node5&#45;&gt;Node6</title>
<path fill="none" stroke="midnightblue" d="M276.957,-154.107C290.312,-152.579 304.166,-150.993 317.082,-149.515"/>
<polygon fill="midnightblue" stroke="midnightblue" points="317.675,-152.97 327.213,-148.355 316.879,-146.015 317.675,-152.97"/>
</g>
<!-- Node8&#45;&gt;Node4 -->
<g id="edge8" class="edge"><title>Node8&#45;&gt;Node4</title>
<path fill="none" stroke="midnightblue" d="M272.655,-283.263C284.343,-281.503 296.542,-279.665 308.261,-277.9"/>
<polygon fill="midnightblue" stroke="midnightblue" points="309.043,-281.322 318.411,-276.372 308.001,-274.4 309.043,-281.322"/>
</g>
<!-- Node9&#45;&gt;Node6 -->
<g id="edge10" class="edge"><title>Node9&#45;&gt;Node6</title>
<path fill="none" stroke="midnightblue" d="M278.88,-132.113C291.686,-133.578 304.884,-135.089 317.221,-136.501"/>
<polygon fill="midnightblue" stroke="midnightblue" points="317.021,-140.001 327.354,-137.661 317.817,-133.046 317.021,-140.001"/>
</g>
</g>
</svg>
