<?xml version="1.0" encoding="UTF-8" standalone="no"?>
<!DOCTYPE svg PUBLIC "-//W3C//DTD SVG 1.1//EN"
 "http://www.w3.org/Graphics/SVG/1.1/DTD/svg11.dtd">
<!-- Generated by graphviz version 2.30.1 (20130214.1330)
 -->
<!-- Title: defaultCmd Pages: 1 -->
<!--zoomable 735 -->
<svg id="main" version="1.1" xmlns="http://www.w3.org/2000/svg" xmlns:xlink="http://www.w3.org/1999/xlink" xml:space="preserve" onload="init(evt)">
<style type="text/css"><![CDATA[
.edge:hover path { stroke: red; }
.edge:hover polygon { stroke: red; fill: red; }
]]></style>
<script type="text/javascript"><![CDATA[
var edges = document.getElementsByTagName('g');
if (edges && edges.length) {
  for (var i=0;i<edges.length;i++) {
    if (edges[i].id.substr(0,4)=='edge') {
      edges[i].setAttribute('class','edge');
    }
  }
}
]]></script>
        <defs>
                <circle id="rim" cx="0" cy="0" r="7"/>
                <circle id="rim2" cx="0" cy="0" r="3.5"/>
                <g id="zoomPlus">
                        <use xlink:href="#rim" fill="#404040">
                                <set attributeName="fill" to="#808080" begin="zoomplus.mouseover" end="zoomplus.mouseout"/>
                        </use>
                        <path d="M-4,0h8M0,-4v8" fill="none" stroke="white" stroke-width="1.5" pointer-events="none"/>
                </g>
                <g id="zoomMin">
                        <use xlink:href="#rim" fill="#404040">
                                <set attributeName="fill" to="#808080" begin="zoomminus.mouseover" end="zoomminus.mouseout"/>
                        </use>
                        <path d="M-4,0h8" fill="none" stroke="white" stroke-width="1.5" pointer-events="none"/>
                </g>
                <g id="dirArrow">
                        <path fill="none" stroke="white" stroke-width="1.5" d="M0,-3.0v7 M-2.5,-0.5L0,-3.0L2.5,-0.5"/>
                </g>
               <g id="resetDef">
                       <use xlink:href="#rim2" fill="#404040">
                               <set attributeName="fill" to="#808080" begin="reset.mouseover" end="reset.mouseout"/>
                       </use>
               </g>
        </defs>

<script type="text/javascript">
var viewWidth = 582;
var viewHeight = 735;
var sectionId = 'dynsection-1';
</script>
<script xlink:href="svgpan.js"/>
<svg id="graph" class="graph">
<g id="viewport">
<title>defaultCmd</title>
<polygon fill="white" stroke="white" points="-4,5 -4,-731 579,-731 579,5 -4,5"/>
<!-- Node1 -->
<g id="node1" class="node"><title>Node1</title>
<polygon fill="#bfbfbf" stroke="black" points="0.5,-323.5 0.5,-342.5 65.5,-342.5 65.5,-323.5 0.5,-323.5"/>
<text text-anchor="middle" x="33" y="-330.5" font-family="Helvetica,sans-Serif" font-size="10.00">defaultCmd</text>
</g>
<!-- Node2 -->
<g id="node2" class="node"><title>Node2</title>
<g id="a_node2"><a xlink:href="class_aquaduino.html#aed76e9fb8f6a3714bbd8de7781133f6e" target="_top" xlink:title="Aquaduino::getTemplateParser">
<polygon fill="white" stroke="black" points="274,-707.5 274,-726.5 424,-726.5 424,-707.5 274,-707.5"/>
<text text-anchor="middle" x="349" y="-714.5" font-family="Helvetica,sans-Serif" font-size="10.00">Aquaduino::getTemplateParser</text>
</a>
</g>
</g>
<!-- Node1&#45;&gt;Node2 -->
<g id="edge1" class="edge"><title>Node1&#45;&gt;Node2</title>
<path fill="none" stroke="midnightblue" d="M34.7653,-342.778C38.7283,-390.968 58.4342,-602.73 102,-649 143.306,-692.87 210.142,-709.32 263.73,-715.103"/>
<polygon fill="midnightblue" stroke="midnightblue" points="263.624,-718.609 273.916,-716.092 264.301,-711.641 263.624,-718.609"/>
</g>
<!-- Node3 -->
<g id="node3" class="node"><title>Node3</title>
<g id="a_node3"><a xlink:href="class_aquaduino.html#abf0068cda6e8dfbf3bab8c7cc6514f84" target="_top" xlink:title="Aquaduino::getActuator">
<polygon fill="white" stroke="black" points="110.5,-342.5 110.5,-361.5 229.5,-361.5 229.5,-342.5 110.5,-342.5"/>
<text text-anchor="middle" x="170" y="-349.5" font-family="Helvetica,sans-Serif" font-size="10.00">Aquaduino::getActuator</text>
</a>
</g>
</g>
<!-- Node1&#45;&gt;Node3 -->
<g id="edge2" class="edge"><title>Node1&#45;&gt;Node3</title>
<path fill="none" stroke="midnightblue" d="M65.6515,-337.455C76.0629,-338.92 88.0773,-340.611 100.149,-342.31"/>
<polygon fill="midnightblue" stroke="midnightblue" points="99.8792,-345.806 110.269,-343.734 100.855,-338.875 99.8792,-345.806"/>
</g>
<!-- Node5 -->
<g id="node5" class="node"><title>Node5</title>
<g id="a_node5"><a xlink:href="class_object.html#a40fc29ed066a150c8c3e4fc96f858b7f" target="_top" xlink:title="Object::setName">
<polygon fill="white" stroke="black" points="125,-304.5 125,-323.5 215,-323.5 215,-304.5 125,-304.5"/>
<text text-anchor="middle" x="170" y="-311.5" font-family="Helvetica,sans-Serif" font-size="10.00">Object::setName</text>
</a>
</g>
</g>
<!-- Node1&#45;&gt;Node5 -->
<g id="edge4" class="edge"><title>Node1&#45;&gt;Node5</title>
<path fill="none" stroke="midnightblue" d="M65.6515,-328.545C80.2372,-326.493 97.969,-323.997 114.598,-321.657"/>
<polygon fill="midnightblue" stroke="midnightblue" points="115.357,-325.084 124.771,-320.225 114.381,-318.153 115.357,-325.084"/>
</g>
<!-- Node6 -->
<g id="node6" class="node"><title>Node6</title>
<g id="a_node6"><a xlink:href="class_actuator.html#af5caa3a0b0cab70443433f073bcf34cc" target="_top" xlink:title="Actuator::setController">
<polygon fill="white" stroke="black" points="113,-266.5 113,-285.5 227,-285.5 227,-266.5 113,-266.5"/>
<text text-anchor="middle" x="170" y="-273.5" font-family="Helvetica,sans-Serif" font-size="10.00">Actuator::setController</text>
</a>
</g>
</g>
<!-- Node1&#45;&gt;Node6 -->
<g id="edge5" class="edge"><title>Node1&#45;&gt;Node6</title>
<path fill="none" stroke="midnightblue" d="M48.883,-323.343C62.3298,-314.949 82.8856,-302.923 102,-295 107.717,-292.63 113.827,-290.448 119.943,-288.474"/>
<polygon fill="midnightblue" stroke="midnightblue" points="120.968,-291.821 129.505,-285.546 118.918,-285.128 120.968,-291.821"/>
</g>
<!-- Node7 -->
<g id="node7" class="node"><title>Node7</title>
<g id="a_node7"><a xlink:href="class_actuator.html#ab49074dee2e16212e254d5e93e190b5d" target="_top" xlink:title="Actuator::lock">
<polygon fill="white" stroke="black" points="131.5,-228.5 131.5,-247.5 208.5,-247.5 208.5,-228.5 131.5,-228.5"/>
<text text-anchor="middle" x="170" y="-235.5" font-family="Helvetica,sans-Serif" font-size="10.00">Actuator::lock</text>
</a>
</g>
</g>
<!-- Node1&#45;&gt;Node7 -->
<g id="edge6" class="edge"><title>Node1&#45;&gt;Node7</title>
<path fill="none" stroke="midnightblue" d="M39.8702,-323.496C50.3323,-307.359 73.7744,-274.642 102,-257 107.924,-253.297 114.587,-250.298 121.354,-247.874"/>
<polygon fill="midnightblue" stroke="midnightblue" points="122.801,-251.086 131.268,-244.717 120.678,-244.416 122.801,-251.086"/>
</g>
<!-- Node8 -->
<g id="node8" class="node"><title>Node8</title>
<g id="a_node8"><a xlink:href="class_actuator.html#a79eea4d2a41855462875126261c73608" target="_top" xlink:title="Actuator::unlock">
<polygon fill="white" stroke="black" points="126,-190.5 126,-209.5 214,-209.5 214,-190.5 126,-190.5"/>
<text text-anchor="middle" x="170" y="-197.5" font-family="Helvetica,sans-Serif" font-size="10.00">Actuator::unlock</text>
</a>
</g>
</g>
<!-- Node1&#45;&gt;Node8 -->
<g id="edge7" class="edge"><title>Node1&#45;&gt;Node8</title>
<path fill="none" stroke="midnightblue" d="M36.9794,-323.38C44.2913,-301.396 65.2553,-247.204 102,-219 106.376,-215.641 111.32,-212.876 116.491,-210.6"/>
<polygon fill="midnightblue" stroke="midnightblue" points="117.86,-213.824 125.97,-207.008 115.379,-207.279 117.86,-213.824"/>
</g>
<!-- Node9 -->
<g id="node9" class="node"><title>Node9</title>
<g id="a_node9"><a xlink:href="class_actuator.html#aa12e6c3347af475a8b6ea1c8b38bd9e6" target="_top" xlink:title="Actuator::getController">
<polygon fill="white" stroke="black" points="292,-380.5 292,-399.5 406,-399.5 406,-380.5 292,-380.5"/>
<text text-anchor="middle" x="349" y="-387.5" font-family="Helvetica,sans-Serif" font-size="10.00">Actuator::getController</text>
</a>
</g>
</g>
<!-- Node1&#45;&gt;Node9 -->
<g id="edge8" class="edge"><title>Node1&#45;&gt;Node9</title>
<path fill="none" stroke="midnightblue" d="M47.024,-342.555C60.1694,-351.629 81.4156,-364.782 102,-371 160.887,-388.787 231.118,-392.597 281.436,-392.514"/>
<polygon fill="midnightblue" stroke="midnightblue" points="281.566,-396.014 291.542,-392.445 281.518,-389.014 281.566,-396.014"/>
</g>
<!-- Node10 -->
<g id="node10" class="node"><title>Node10</title>
<g id="a_node10"><a xlink:href="class_actuator.html#a40700c01e3123133fd11157f9707ac8a" target="_top" xlink:title="Actuator::on">
<polygon fill="white" stroke="black" points="135,-152.5 135,-171.5 205,-171.5 205,-152.5 135,-152.5"/>
<text text-anchor="middle" x="170" y="-159.5" font-family="Helvetica,sans-Serif" font-size="10.00">Actuator::on</text>
</a>
</g>
</g>
<!-- Node1&#45;&gt;Node10 -->
<g id="edge9" class="edge"><title>Node1&#45;&gt;Node10</title>
<path fill="none" stroke="midnightblue" d="M35.4793,-323.122C40.0565,-296.097 56.5256,-220.343 102,-181 108.572,-175.314 116.735,-171.323 125.078,-168.524"/>
<polygon fill="midnightblue" stroke="midnightblue" points="126.199,-171.844 134.869,-165.755 124.294,-165.108 126.199,-171.844"/>
</g>
<!-- Node11 -->
<g id="node11" class="node"><title>Node11</title>
<g id="a_node11"><a xlink:href="class_actuator.html#a767243ef9f90e7a99175ad466cc02916" target="_top" xlink:title="Actuator::off">
<polygon fill="white" stroke="black" points="135.5,-114.5 135.5,-133.5 204.5,-133.5 204.5,-114.5 135.5,-114.5"/>
<text text-anchor="middle" x="170" y="-121.5" font-family="Helvetica,sans-Serif" font-size="10.00">Actuator::off</text>
</a>
</g>
</g>
<!-- Node1&#45;&gt;Node11 -->
<g id="edge10" class="edge"><title>Node1&#45;&gt;Node11</title>
<path fill="none" stroke="midnightblue" d="M34.4677,-323.47C36.5106,-292.57 47.2294,-194.2 102,-143 108.546,-136.881 116.916,-132.713 125.507,-129.878"/>
<polygon fill="midnightblue" stroke="midnightblue" points="126.498,-133.236 135.214,-127.212 124.644,-126.486 126.498,-133.236"/>
</g>
<!-- Node12 -->
<g id="node12" class="node"><title>Node12</title>
<g id="a_node12"><a xlink:href="class_aquaduino.html#ad399caf8b1461f7cf082f7816b685303" target="_top" xlink:title="Aquaduino::resetActuator\lIterator">
<polygon fill="white" stroke="black" points="285.5,-609 285.5,-639 412.5,-639 412.5,-609 285.5,-609"/>
<text text-anchor="start" x="293.5" y="-627" font-family="Helvetica,sans-Serif" font-size="10.00">Aquaduino::resetActuator</text>
<text text-anchor="middle" x="349" y="-616" font-family="Helvetica,sans-Serif" font-size="10.00">Iterator</text>
</a>
</g>
</g>
<!-- Node1&#45;&gt;Node12 -->
<g id="edge11" class="edge"><title>Node1&#45;&gt;Node12</title>
<path fill="none" stroke="midnightblue" d="M33.7552,-342.937C33.4549,-378.247 37.3906,-498.871 102,-561 147.975,-605.21 220.554,-619.571 274.983,-623.702"/>
<polygon fill="midnightblue" stroke="midnightblue" points="275.06,-627.214 285.268,-624.378 275.519,-620.229 275.06,-627.214"/>
</g>
<!-- Node14 -->
<g id="node14" class="node"><title>Node14</title>
<g id="a_node14"><a xlink:href="class_aquaduino.html#ab0fcce5c8f5895244e6f92c8d775fae7" target="_top" xlink:title="Aquaduino::getNextActuator">
<polygon fill="white" stroke="black" points="279.5,-456.5 279.5,-475.5 418.5,-475.5 418.5,-456.5 279.5,-456.5"/>
<text text-anchor="middle" x="349" y="-463.5" font-family="Helvetica,sans-Serif" font-size="10.00">Aquaduino::getNextActuator</text>
</a>
</g>
</g>
<!-- Node1&#45;&gt;Node14 -->
<g id="edge13" class="edge"><title>Node1&#45;&gt;Node14</title>
<path fill="none" stroke="midnightblue" d="M38.1549,-342.619C46.9116,-361.635 69.1948,-403.929 102,-424 152.153,-454.685 218.259,-464.64 269.313,-467.221"/>
<polygon fill="midnightblue" stroke="midnightblue" points="269.176,-470.718 279.314,-467.642 269.471,-463.724 269.176,-470.718"/>
</g>
<!-- Node16 -->
<g id="node16" class="node"><title>Node16</title>
<g id="a_node16"><a xlink:href="class_aquaduino.html#a16e05153698a4aed10c0ebf9f472abb5" target="_top" xlink:title="Aquaduino::writeConfig">
<polygon fill="white" stroke="black" points="112,-76.5 112,-95.5 228,-95.5 228,-76.5 112,-76.5"/>
<text text-anchor="middle" x="170" y="-83.5" font-family="Helvetica,sans-Serif" font-size="10.00">Aquaduino::writeConfig</text>
</a>
</g>
</g>
<!-- Node1&#45;&gt;Node16 -->
<g id="edge15" class="edge"><title>Node1&#45;&gt;Node16</title>
<path fill="none" stroke="midnightblue" d="M33.811,-323.121C33.699,-288.003 38.1917,-167.951 102,-105 103.452,-103.567 105.004,-102.241 106.637,-101.013"/>
<polygon fill="midnightblue" stroke="midnightblue" points="108.678,-103.867 115.376,-95.6577 105.021,-97.8978 108.678,-103.867"/>
</g>
<!-- Node18 -->
<g id="node18" class="node"><title>Node18</title>
<g id="a_node18"><a xlink:href="class_aquaduino.html#a417e6bdfac5f5c16ca24f46bbd4b4142" target="_top" xlink:title="Aquaduino::getTemperature">
<polygon fill="white" stroke="black" points="102,-38.5 102,-57.5 238,-57.5 238,-38.5 102,-38.5"/>
<text text-anchor="middle" x="170" y="-45.5" font-family="Helvetica,sans-Serif" font-size="10.00">Aquaduino::getTemperature</text>
</a>
</g>
</g>
<!-- Node1&#45;&gt;Node18 -->
<g id="edge17" class="edge"><title>Node1&#45;&gt;Node18</title>
<path fill="none" stroke="midnightblue" d="M35.1756,-323.363C40.6239,-280.216 64.7456,-105.238 102,-67 103.424,-65.5386 104.951,-64.1874 106.562,-62.938"/>
<polygon fill="midnightblue" stroke="midnightblue" points="108.612,-65.7838 115.221,-57.503 104.89,-59.8549 108.612,-65.7838"/>
</g>
<!-- Node19 -->
<g id="node19" class="node"><title>Node19</title>
<g id="a_node19"><a xlink:href="class_aquaduino.html#a01abc2912433c4af75419077cb72251e" target="_top" xlink:title="Aquaduino::resetController\lIterator">
<polygon fill="white" stroke="black" points="283.5,-658 283.5,-688 414.5,-688 414.5,-658 283.5,-658"/>
<text text-anchor="start" x="291.5" y="-676" font-family="Helvetica,sans-Serif" font-size="10.00">Aquaduino::resetController</text>
<text text-anchor="middle" x="349" y="-665" font-family="Helvetica,sans-Serif" font-size="10.00">Iterator</text>
</a>
</g>
</g>
<!-- Node1&#45;&gt;Node19 -->
<g id="edge18" class="edge"><title>Node1&#45;&gt;Node19</title>
<path fill="none" stroke="midnightblue" d="M35.1108,-342.527C40.3616,-385.983 64.0338,-564.971 102,-604 146.476,-649.721 218.605,-665.849 273.288,-671.203"/>
<polygon fill="midnightblue" stroke="midnightblue" points="273.017,-674.693 283.285,-672.082 273.63,-667.72 273.017,-674.693"/>
</g>
<!-- Node20 -->
<g id="node20" class="node"><title>Node20</title>
<g id="a_node20"><a xlink:href="class_aquaduino.html#ab2e484eadc69b75889abd55143195f07" target="_top" xlink:title="Aquaduino::getNextController">
<polygon fill="white" stroke="black" points="277.5,-494.5 277.5,-513.5 420.5,-513.5 420.5,-494.5 277.5,-494.5"/>
<text text-anchor="middle" x="349" y="-501.5" font-family="Helvetica,sans-Serif" font-size="10.00">Aquaduino::getNextController</text>
</a>
</g>
</g>
<!-- Node1&#45;&gt;Node20 -->
<g id="edge20" class="edge"><title>Node1&#45;&gt;Node20</title>
<path fill="none" stroke="midnightblue" d="M36.2319,-342.708C42.2603,-366.583 61.2392,-428.361 102,-458 149.522,-492.556 215.484,-503.439 267.143,-506.018"/>
<polygon fill="midnightblue" stroke="midnightblue" points="267.141,-509.52 277.274,-506.427 267.424,-502.526 267.141,-509.52"/>
</g>
<!-- Node21 -->
<g id="node21" class="node"><title>Node21</title>
<g id="a_node21"><a xlink:href="class_object.html#a67bb9bfe6e021c997565b0f5871cf2ad" target="_top" xlink:title="Object::getURL">
<polygon fill="white" stroke="black" points="128.5,-0.5 128.5,-19.5 211.5,-19.5 211.5,-0.5 128.5,-0.5"/>
<text text-anchor="middle" x="170" y="-7.5" font-family="Helvetica,sans-Serif" font-size="10.00">Object::getURL</text>
</a>
</g>
</g>
<!-- Node1&#45;&gt;Node21 -->
<g id="edge22" class="edge"><title>Node1&#45;&gt;Node21</title>
<path fill="none" stroke="midnightblue" d="M34.8531,-323.284C39.1645,-276.334 60.0195,-73.4116 102,-29 106.687,-24.0411 112.564,-20.3453 118.879,-17.5966"/>
<polygon fill="midnightblue" stroke="midnightblue" points="120.116,-20.8713 128.355,-14.2103 117.76,-14.2795 120.116,-20.8713"/>
</g>
<!-- Node22 -->
<g id="node22" class="node"><title>Node22</title>
<g id="a_node22"><a xlink:href="class_object.html#aff677ddb7fe429a58e22cd3cadbcee7b" target="_top" xlink:title="Object::getName">
<polygon fill="white" stroke="black" points="304,-418.5 304,-437.5 394,-437.5 394,-418.5 304,-418.5"/>
<text text-anchor="middle" x="349" y="-425.5" font-family="Helvetica,sans-Serif" font-size="10.00">Object::getName</text>
</a>
</g>
</g>
<!-- Node1&#45;&gt;Node22 -->
<g id="edge23" class="edge"><title>Node1&#45;&gt;Node22</title>
<path fill="none" stroke="midnightblue" d="M41.53,-342.935C52.9071,-357.133 75.9373,-382.847 102,-395 163.199,-423.536 241.651,-429.502 293.302,-429.837"/>
<polygon fill="midnightblue" stroke="midnightblue" points="293.584,-433.337 303.582,-429.831 293.58,-426.337 293.584,-433.337"/>
</g>
<!-- Node23 -->
<g id="node23" class="node"><title>Node23</title>
<g id="a_node23"><a xlink:href="mainweb_8cpp.html#adc3a282df65858d7820a8c90f7191472" target="_top" xlink:title="printActuatorTable">
<polygon fill="white" stroke="black" points="122.5,-532.5 122.5,-551.5 217.5,-551.5 217.5,-532.5 122.5,-532.5"/>
<text text-anchor="middle" x="170" y="-539.5" font-family="Helvetica,sans-Serif" font-size="10.00">printActuatorTable</text>
</a>
</g>
</g>
<!-- Node1&#45;&gt;Node23 -->
<g id="edge24" class="edge"><title>Node1&#45;&gt;Node23</title>
<path fill="none" stroke="midnightblue" d="M34.7308,-342.561C37.5401,-372.687 50.2488,-466.675 102,-518 106.003,-521.97 110.707,-525.287 115.735,-528.058"/>
<polygon fill="midnightblue" stroke="midnightblue" points="114.52,-531.355 125.055,-532.478 117.52,-525.03 114.52,-531.355"/>
</g>
<!-- Node4 -->
<g id="node4" class="node"><title>Node4</title>
<g id="a_node4"><a xlink:href="class_array_list.html#a054a989435b72d720ffb11b8824aa62f" target="_top" xlink:title="ArrayList::get">
<polygon fill="white" stroke="black" points="311.5,-342.5 311.5,-361.5 386.5,-361.5 386.5,-342.5 311.5,-342.5"/>
<text text-anchor="middle" x="349" y="-349.5" font-family="Helvetica,sans-Serif" font-size="10.00">ArrayList::get</text>
</a>
</g>
</g>
<!-- Node3&#45;&gt;Node4 -->
<g id="edge3" class="edge"><title>Node3&#45;&gt;Node4</title>
<path fill="none" stroke="midnightblue" d="M229.938,-352C253.205,-352 279.552,-352 301.444,-352"/>
<polygon fill="midnightblue" stroke="midnightblue" points="301.48,-355.5 311.48,-352 301.48,-348.5 301.48,-355.5"/>
</g>
<!-- Node13 -->
<g id="node13" class="node"><title>Node13</title>
<g id="a_node13"><a xlink:href="class_array_list.html#ada61a62619272992ac7fb0da2cf400b8" target="_top" xlink:title="ArrayList::resetIterator">
<polygon fill="white" stroke="black" points="460.5,-638.5 460.5,-657.5 573.5,-657.5 573.5,-638.5 460.5,-638.5"/>
<text text-anchor="middle" x="517" y="-645.5" font-family="Helvetica,sans-Serif" font-size="10.00">ArrayList::resetIterator</text>
</a>
</g>
</g>
<!-- Node12&#45;&gt;Node13 -->
<g id="edge12" class="edge"><title>Node12&#45;&gt;Node13</title>
<path fill="none" stroke="midnightblue" d="M412.757,-633.073C424.951,-634.836 437.766,-636.689 450.059,-638.466"/>
<polygon fill="midnightblue" stroke="midnightblue" points="449.839,-641.971 460.237,-639.938 450.841,-635.043 449.839,-641.971"/>
</g>
<!-- Node15 -->
<g id="node15" class="node"><title>Node15</title>
<g id="a_node15"><a xlink:href="class_array_list.html#a921b9822fbf598f6fece601973db200b" target="_top" xlink:title="ArrayList::getNext">
<polygon fill="white" stroke="black" points="469.5,-475.5 469.5,-494.5 564.5,-494.5 564.5,-475.5 469.5,-475.5"/>
<text text-anchor="middle" x="517" y="-482.5" font-family="Helvetica,sans-Serif" font-size="10.00">ArrayList::getNext</text>
</a>
</g>
</g>
<!-- Node14&#45;&gt;Node15 -->
<g id="edge14" class="edge"><title>Node14&#45;&gt;Node15</title>
<path fill="none" stroke="midnightblue" d="M418.957,-473.893C432.312,-475.421 446.166,-477.007 459.082,-478.485"/>
<polygon fill="midnightblue" stroke="midnightblue" points="458.879,-481.985 469.213,-479.645 459.675,-475.03 458.879,-481.985"/>
</g>
<!-- Node17 -->
<g id="node17" class="node"><title>Node17</title>
<g id="a_node17"><a xlink:href="class_config_manager.html#ac626ebb363c0993b1a3b2da7fc824afb" target="_top" xlink:title="ConfigManager::writeConfig">
<polygon fill="white" stroke="black" points="282,-76.5 282,-95.5 416,-95.5 416,-76.5 282,-76.5"/>
<text text-anchor="middle" x="349" y="-83.5" font-family="Helvetica,sans-Serif" font-size="10.00">ConfigManager::writeConfig</text>
</a>
</g>
</g>
<!-- Node16&#45;&gt;Node17 -->
<g id="edge16" class="edge"><title>Node16&#45;&gt;Node17</title>
<path fill="none" stroke="midnightblue" d="M228.467,-86C242.194,-86 257.062,-86 271.497,-86"/>
<polygon fill="midnightblue" stroke="midnightblue" points="271.908,-89.5001 281.908,-86 271.908,-82.5001 271.908,-89.5001"/>
</g>
<!-- Node19&#45;&gt;Node13 -->
<g id="edge19" class="edge"><title>Node19&#45;&gt;Node13</title>
<path fill="none" stroke="midnightblue" d="M414.655,-663.263C426.343,-661.503 438.542,-659.665 450.261,-657.9"/>
<polygon fill="midnightblue" stroke="midnightblue" points="451.043,-661.322 460.411,-656.372 450.001,-654.4 451.043,-661.322"/>
</g>
<!-- Node20&#45;&gt;Node15 -->
<g id="edge21" class="edge"><title>Node20&#45;&gt;Node15</title>
<path fill="none" stroke="midnightblue" d="M420.88,-495.887C433.686,-494.422 446.884,-492.911 459.221,-491.499"/>
<polygon fill="midnightblue" stroke="midnightblue" points="459.817,-494.954 469.354,-490.339 459.021,-487.999 459.817,-494.954"/>
</g>
<!-- Node23&#45;&gt;Node2 -->
<g id="edge25" class="edge"><title>Node23&#45;&gt;Node2</title>
<path fill="none" stroke="midnightblue" d="M174.6,-551.765C185.228,-579.2 219.204,-657.538 274,-697 277.402,-699.45 281.087,-701.6 284.934,-703.486"/>
<polygon fill="midnightblue" stroke="midnightblue" points="283.577,-706.712 294.147,-707.427 286.33,-700.276 283.577,-706.712"/>
</g>
<!-- Node23&#45;&gt;Node12 -->
<g id="edge26" class="edge"><title>Node23&#45;&gt;Node12</title>
<path fill="none" stroke="midnightblue" d="M186.26,-551.588C205.987,-563.712 241.653,-584.724 274,-599 279.04,-601.224 284.344,-603.372 289.701,-605.412"/>
<polygon fill="midnightblue" stroke="midnightblue" points="288.762,-608.796 299.356,-608.96 291.177,-602.225 288.762,-608.796"/>
</g>
<!-- Node23&#45;&gt;Node14 -->
<g id="edge27" class="edge"><title>Node23&#45;&gt;Node14</title>
<path fill="none" stroke="midnightblue" d="M185.428,-532.46C204.836,-519.997 240.764,-498.213 274,-485 280.211,-482.531 286.844,-480.298 293.492,-478.303"/>
<polygon fill="midnightblue" stroke="midnightblue" points="294.53,-481.647 303.196,-475.552 292.621,-474.912 294.53,-481.647"/>
</g>
<!-- Node23&#45;&gt;Node22 -->
<g id="edge28" class="edge"><title>Node23&#45;&gt;Node22</title>
<path fill="none" stroke="midnightblue" d="M178.659,-532.25C194.379,-512.922 232.329,-469.666 274,-447 280.328,-443.558 287.302,-440.721 294.363,-438.388"/>
<polygon fill="midnightblue" stroke="midnightblue" points="295.415,-441.726 303.993,-435.508 293.409,-435.02 295.415,-441.726"/>
</g>
<!-- Node23&#45;&gt;Node19 -->
<g id="edge29" class="edge"><title>Node23&#45;&gt;Node19</title>
<path fill="none" stroke="midnightblue" d="M177.848,-551.683C192.914,-572.307 231.029,-620.893 274,-648 277.168,-649.999 280.515,-651.857 283.964,-653.582"/>
<polygon fill="midnightblue" stroke="midnightblue" points="282.731,-656.867 293.281,-657.843 285.642,-650.501 282.731,-656.867"/>
</g>
<!-- Node23&#45;&gt;Node20 -->
<g id="edge30" class="edge"><title>Node23&#45;&gt;Node20</title>
<path fill="none" stroke="midnightblue" d="M215.665,-532.411C239.337,-527.329 268.608,-521.045 293.597,-515.68"/>
<polygon fill="midnightblue" stroke="midnightblue" points="294.614,-519.041 303.657,-513.52 293.145,-512.197 294.614,-519.041"/>
</g>
<!-- Node23&#45;&gt;Node9 -->
<g id="edge31" class="edge"><title>Node23&#45;&gt;Node9</title>
<path fill="none" stroke="midnightblue" d="M175.678,-532.184C188.019,-507.391 223.973,-441.889 274,-409 277.121,-406.948 280.45,-405.118 283.904,-403.486"/>
<polygon fill="midnightblue" stroke="midnightblue" points="285.378,-406.664 293.283,-399.609 282.704,-400.195 285.378,-406.664"/>
</g>
<!-- Node24 -->
<g id="node24" class="node"><title>Node24</title>
<g id="a_node24"><a xlink:href="class_actuator.html#ae218188bb2620f56a3ae60712b9fbe5d" target="_top" xlink:title="Actuator::isLocked">
<polygon fill="white" stroke="black" points="300,-532.5 300,-551.5 398,-551.5 398,-532.5 300,-532.5"/>
<text text-anchor="middle" x="349" y="-539.5" font-family="Helvetica,sans-Serif" font-size="10.00">Actuator::isLocked</text>
</a>
</g>
</g>
<!-- Node23&#45;&gt;Node24 -->
<g id="edge32" class="edge"><title>Node23&#45;&gt;Node24</title>
<path fill="none" stroke="midnightblue" d="M217.505,-542C239.632,-542 266.319,-542 289.778,-542"/>
<polygon fill="midnightblue" stroke="midnightblue" points="289.955,-545.5 299.955,-542 289.955,-538.5 289.955,-545.5"/>
</g>
<!-- Node25 -->
<g id="node25" class="node"><title>Node25</title>
<g id="a_node25"><a xlink:href="class_actuator.html#a3d962ff8db3b12fe51df5f12ad445caa" target="_top" xlink:title="Actuator::isOn">
<polygon fill="white" stroke="black" points="309,-570.5 309,-589.5 389,-589.5 389,-570.5 309,-570.5"/>
<text text-anchor="middle" x="349" y="-577.5" font-family="Helvetica,sans-Serif" font-size="10.00">Actuator::isOn</text>
</a>
</g>
</g>
<!-- Node23&#45;&gt;Node25 -->
<g id="edge33" class="edge"><title>Node23&#45;&gt;Node25</title>
<path fill="none" stroke="midnightblue" d="M215.665,-551.589C240.979,-557.024 272.696,-563.833 298.733,-569.423"/>
<polygon fill="midnightblue" stroke="midnightblue" points="298.261,-572.901 308.773,-571.578 299.73,-566.057 298.261,-572.901"/>
</g>
</g>
</svg>
        <g id="navigator" transform="translate(0 0)" fill="#404254">
                <rect fill="#f2f5e9" fill-opacity="0.5" stroke="#606060" stroke-width=".5" x="0" y="0" width="60" height="60"/>
                <use id="zoomplus" xlink:href="#zoomPlus" x="17" y="9" onmousedown="handleZoom(evt,'in')"/>
                <use id="zoomminus" xlink:href="#zoomMin" x="42" y="9" onmousedown="handleZoom(evt,'out')"/>
                <use id="reset" xlink:href="#resetDef" x="30" y="36" onmousedown="handleReset()"/>
                <g id="arrowUp" xlink:href="#dirArrow" transform="translate(30 24)" onmousedown="handlePan(0,-1)">
                  <use xlink:href="#rim" fill="#404040">
                        <set attributeName="fill" to="#808080" begin="arrowUp.mouseover" end="arrowUp.mouseout"/>
                  </use>
                  <path fill="none" stroke="white" stroke-width="1.5" d="M0,-3.0v7 M-2.5,-0.5L0,-3.0L2.5,-0.5"/>
                </g>
                <g id="arrowRight" xlink:href="#dirArrow" transform="rotate(90) translate(36 -43)" onmousedown="handlePan(1,0)">
                  <use xlink:href="#rim" fill="#404040">
                        <set attributeName="fill" to="#808080" begin="arrowRight.mouseover" end="arrowRight.mouseout"/>
                  </use>
                  <path fill="none" stroke="white" stroke-width="1.5" d="M0,-3.0v7 M-2.5,-0.5L0,-3.0L2.5,-0.5"/>
                </g>
                <g id="arrowDown" xlink:href="#dirArrow" transform="rotate(180) translate(-30 -48)" onmousedown="handlePan(0,1)">
                  <use xlink:href="#rim" fill="#404040">
                        <set attributeName="fill" to="#808080" begin="arrowDown.mouseover" end="arrowDown.mouseout"/>
                  </use>
                  <path fill="none" stroke="white" stroke-width="1.5" d="M0,-3.0v7 M-2.5,-0.5L0,-3.0L2.5,-0.5"/>
                </g>
                <g id="arrowLeft" xlink:href="#dirArrow" transform="rotate(270) translate(-36 17)" onmousedown="handlePan(-1,0)">
                  <use xlink:href="#rim" fill="#404040">
                        <set attributeName="fill" to="#808080" begin="arrowLeft.mouseover" end="arrowLeft.mouseout"/>
                  </use>
                  <path fill="none" stroke="white" stroke-width="1.5" d="M0,-3.0v7 M-2.5,-0.5L0,-3.0L2.5,-0.5"/>
                </g>
        </g>
        <svg viewBox="0 0 15 15" width="100%" height="30px" preserveAspectRatio="xMaxYMin meet">
         <g id="arrow_out" transform="scale(0.3 0.3)">
          <a xlink:href="mainweb_8cpp_afd56fefe2a8598f61d016320f5250491_cgraph_org.svg" target="_base">
           <rect id="button" ry="5" rx="5" y="6" x="6" height="38" width="38"
                fill="#f2f5e9" fill-opacity="0.5" stroke="#606060" stroke-width="1.0"/>
           <path id="arrow"
             d="M 11.500037,31.436501 C 11.940474,20.09759 22.043105,11.32322 32.158766,21.979434 L 37.068811,17.246167 C 37.068811,17.246167 37.088388,32 37.088388,32 L 22.160133,31.978069 C 22.160133,31.978069 26.997745,27.140456 26.997745,27.140456 C 18.528582,18.264221 13.291696,25.230495 11.500037,31.436501 z"
             style="fill:#404040;"/>
          </a>
         </g>
        </svg>
</svg>
